<?xml version="1.0" encoding="us-ascii" standalone="no"?><svg xmlns="http://www.w3.org/2000/svg" xmlns:xlink="http://www.w3.org/1999/xlink" contentStyleType="text/css" height="793px" preserveAspectRatio="none" style="width:908px;height:793px;background:#FFFFFF;" version="1.1" viewBox="0 0 908 793" width="908px" zoomAndPan="magnify"><defs/><g><!--class GreenSpaceRepository--><g id="elem_GreenSpaceRepository"><rect codeLine="11" fill="#F1F1F1" height="85.2422" id="GreenSpaceRepository" rx="2.5" ry="2.5" style="stroke:#181818;stroke-width:0.5;" width="198" x="146" y="490.5"/><ellipse cx="169.1" cy="506.5" fill="#ADD1B2" rx="11" ry="11" style="stroke:#181818;stroke-width:1.0;"/><path d="M171.8656,502.375 Q172.0219,502.1563 172.2094,502.0469 Q172.3969,501.9375 172.6156,501.9375 Q172.9906,501.9375 173.225,502.2031 Q173.4594,502.4531 173.4594,503.0625 L173.4594,504.5156 Q173.4594,505.125 173.225,505.3906 Q172.9906,505.6563 172.6156,505.6563 Q172.2719,505.6563 172.0688,505.4531 Q171.8656,505.2656 171.7563,504.75 Q171.7094,504.3906 171.5219,504.2031 Q171.1938,503.8281 170.5844,503.6094 Q169.975,503.3906 169.35,503.3906 Q168.5844,503.3906 167.9438,503.7188 Q167.3188,504.0469 166.8188,504.7969 Q166.3344,505.5469 166.3344,506.5781 L166.3344,507.6719 Q166.3344,508.9063 167.225,509.7344 Q168.1156,510.5469 169.7094,510.5469 Q170.6469,510.5469 171.3031,510.2969 Q171.6938,510.1406 172.1156,509.7031 Q172.3813,509.4375 172.5219,509.3594 Q172.6781,509.2813 172.8813,509.2813 Q173.2094,509.2813 173.4594,509.5469 Q173.725,509.7969 173.725,510.1406 Q173.725,510.4844 173.3813,510.8906 Q172.8813,511.4688 172.0844,511.7969 Q171.0063,512.25 169.7094,512.25 Q168.1938,512.25 166.9906,511.625 Q166.0063,511.125 165.3188,510.0625 Q164.6313,508.9844 164.6313,507.7031 L164.6313,506.5469 Q164.6313,505.2188 165.2406,504.0781 Q165.8656,502.9219 166.9594,502.3125 Q168.0531,501.6875 169.2875,501.6875 Q170.0219,501.6875 170.6625,501.8594 Q171.3188,502.0156 171.8656,502.375 Z " fill="#000000"/><text fill="#000000" font-family="sans-serif" font-size="14" lengthAdjust="spacing" textLength="148" x="184.9" y="512.2969">GreenSpaceRepository</text><line style="stroke:#181818;stroke-width:0.5;" x1="147" x2="343" y1="522.5" y2="522.5"/><line style="stroke:#181818;stroke-width:0.5;" x1="147" x2="343" y1="530.5" y2="530.5"/><text fill="#000000" font-family="sans-serif" font-size="14" lengthAdjust="spacing" textLength="186" x="152" y="549.6074">+getGreenSpaceRepository()</text><text fill="#000000" font-family="sans-serif" font-size="14" lengthAdjust="spacing" textLength="125" x="152" y="568.2285">+getGreenSpaces()</text></g><!--class GreenSpacesUI--><g id="elem_GreenSpacesUI"><rect codeLine="16" fill="#F1F1F1" height="48" id="GreenSpacesUI" rx="2.5" ry="2.5" style="stroke:#181818;stroke-width:0.5;" width="131" x="387.5" y="7"/><ellipse cx="402.5" cy="23" fill="#ADD1B2" rx="11" ry="11" style="stroke:#181818;stroke-width:1.0;"/><path d="M405.2656,18.875 Q405.4219,18.6563 405.6094,18.5469 Q405.7969,18.4375 406.0156,18.4375 Q406.3906,18.4375 406.625,18.7031 Q406.8594,18.9531 406.8594,19.5625 L406.8594,21.0156 Q406.8594,21.625 406.625,21.8906 Q406.3906,22.1563 406.0156,22.1563 Q405.6719,22.1563 405.4688,21.9531 Q405.2656,21.7656 405.1563,21.25 Q405.1094,20.8906 404.9219,20.7031 Q404.5938,20.3281 403.9844,20.1094 Q403.375,19.8906 402.75,19.8906 Q401.9844,19.8906 401.3438,20.2188 Q400.7188,20.5469 400.2188,21.2969 Q399.7344,22.0469 399.7344,23.0781 L399.7344,24.1719 Q399.7344,25.4063 400.625,26.2344 Q401.5156,27.0469 403.1094,27.0469 Q404.0469,27.0469 404.7031,26.7969 Q405.0938,26.6406 405.5156,26.2031 Q405.7813,25.9375 405.9219,25.8594 Q406.0781,25.7813 406.2813,25.7813 Q406.6094,25.7813 406.8594,26.0469 Q407.125,26.2969 407.125,26.6406 Q407.125,26.9844 406.7813,27.3906 Q406.2813,27.9688 405.4844,28.2969 Q404.4063,28.75 403.1094,28.75 Q401.5938,28.75 400.3906,28.125 Q399.4063,27.625 398.7188,26.5625 Q398.0313,25.4844 398.0313,24.2031 L398.0313,23.0469 Q398.0313,21.7188 398.6406,20.5781 Q399.2656,19.4219 400.3594,18.8125 Q401.4531,18.1875 402.6875,18.1875 Q403.4219,18.1875 404.0625,18.3594 Q404.7188,18.5156 405.2656,18.875 Z " fill="#000000"/><text fill="#000000" font-family="sans-serif" font-size="14" lengthAdjust="spacing" textLength="99" x="416.5" y="28.7969">GreenSpacesUI</text><line style="stroke:#181818;stroke-width:0.5;" x1="388.5" x2="517.5" y1="39" y2="39"/><line style="stroke:#181818;stroke-width:0.5;" x1="388.5" x2="517.5" y1="47" y2="47"/></g><!--class Repositories--><g id="elem_Repositories"><rect codeLine="20" fill="#F1F1F1" height="122.4844" id="Repositories" rx="2.5" ry="2.5" style="stroke:#181818;stroke-width:0.5;" width="222" x="342" y="280"/><ellipse cx="409.25" cy="296" fill="#ADD1B2" rx="11" ry="11" style="stroke:#181818;stroke-width:1.0;"/><path d="M412.0156,291.875 Q412.1719,291.6563 412.3594,291.5469 Q412.5469,291.4375 412.7656,291.4375 Q413.1406,291.4375 413.375,291.7031 Q413.6094,291.9531 413.6094,292.5625 L413.6094,294.0156 Q413.6094,294.625 413.375,294.8906 Q413.1406,295.1563 412.7656,295.1563 Q412.4219,295.1563 412.2188,294.9531 Q412.0156,294.7656 411.9063,294.25 Q411.8594,293.8906 411.6719,293.7031 Q411.3438,293.3281 410.7344,293.1094 Q410.125,292.8906 409.5,292.8906 Q408.7344,292.8906 408.0938,293.2188 Q407.4688,293.5469 406.9688,294.2969 Q406.4844,295.0469 406.4844,296.0781 L406.4844,297.1719 Q406.4844,298.4063 407.375,299.2344 Q408.2656,300.0469 409.8594,300.0469 Q410.7969,300.0469 411.4531,299.7969 Q411.8438,299.6406 412.2656,299.2031 Q412.5313,298.9375 412.6719,298.8594 Q412.8281,298.7813 413.0313,298.7813 Q413.3594,298.7813 413.6094,299.0469 Q413.875,299.2969 413.875,299.6406 Q413.875,299.9844 413.5313,300.3906 Q413.0313,300.9688 412.2344,301.2969 Q411.1563,301.75 409.8594,301.75 Q408.3438,301.75 407.1406,301.125 Q406.1563,300.625 405.4688,299.5625 Q404.7813,298.4844 404.7813,297.2031 L404.7813,296.0469 Q404.7813,294.7188 405.3906,293.5781 Q406.0156,292.4219 407.1094,291.8125 Q408.2031,291.1875 409.4375,291.1875 Q410.1719,291.1875 410.8125,291.3594 Q411.4688,291.5156 412.0156,291.875 Z " fill="#000000"/><text fill="#000000" font-family="sans-serif" font-size="14" lengthAdjust="spacing" textLength="79" x="429.75" y="301.7969">Repositories</text><line style="stroke:#181818;stroke-width:0.5;" x1="343" x2="563" y1="312" y2="312"/><line style="stroke:#181818;stroke-width:0.5;" x1="343" x2="563" y1="320" y2="320"/><text fill="#000000" font-family="sans-serif" font-size="14" lengthAdjust="spacing" textLength="94" x="348" y="339.1074">-Repositories()</text><text fill="#000000" font-family="sans-serif" font-size="14" lengthAdjust="spacing" textLength="182" x="348" y="357.7285">+getInstance() : Repositories</text><text fill="#000000" font-family="sans-serif" font-size="14" lengthAdjust="spacing" textLength="186" x="348" y="376.3496">+getGreenSpaceRepository()</text><text fill="#000000" font-family="sans-serif" font-size="14" lengthAdjust="spacing" textLength="210" x="348" y="394.9707">+getSortingAlgorithmRepository()</text></g><!--class GreenSpacesController--><g id="elem_GreenSpacesController"><rect codeLine="27" fill="#F1F1F1" height="66.6211" id="GreenSpacesController" rx="2.5" ry="2.5" style="stroke:#181818;stroke-width:0.5;" width="264" x="321" y="134"/><ellipse cx="374.25" cy="150" fill="#ADD1B2" rx="11" ry="11" style="stroke:#181818;stroke-width:1.0;"/><path d="M377.0156,145.875 Q377.1719,145.6563 377.3594,145.5469 Q377.5469,145.4375 377.7656,145.4375 Q378.1406,145.4375 378.375,145.7031 Q378.6094,145.9531 378.6094,146.5625 L378.6094,148.0156 Q378.6094,148.625 378.375,148.8906 Q378.1406,149.1563 377.7656,149.1563 Q377.4219,149.1563 377.2188,148.9531 Q377.0156,148.7656 376.9063,148.25 Q376.8594,147.8906 376.6719,147.7031 Q376.3438,147.3281 375.7344,147.1094 Q375.125,146.8906 374.5,146.8906 Q373.7344,146.8906 373.0938,147.2188 Q372.4688,147.5469 371.9688,148.2969 Q371.4844,149.0469 371.4844,150.0781 L371.4844,151.1719 Q371.4844,152.4063 372.375,153.2344 Q373.2656,154.0469 374.8594,154.0469 Q375.7969,154.0469 376.4531,153.7969 Q376.8438,153.6406 377.2656,153.2031 Q377.5313,152.9375 377.6719,152.8594 Q377.8281,152.7813 378.0313,152.7813 Q378.3594,152.7813 378.6094,153.0469 Q378.875,153.2969 378.875,153.6406 Q378.875,153.9844 378.5313,154.3906 Q378.0313,154.9688 377.2344,155.2969 Q376.1563,155.75 374.8594,155.75 Q373.3438,155.75 372.1406,155.125 Q371.1563,154.625 370.4688,153.5625 Q369.7813,152.4844 369.7813,151.2031 L369.7813,150.0469 Q369.7813,148.7188 370.3906,147.5781 Q371.0156,146.4219 372.1094,145.8125 Q373.2031,145.1875 374.4375,145.1875 Q375.1719,145.1875 375.8125,145.3594 Q376.4688,145.5156 377.0156,145.875 Z " fill="#000000"/><text fill="#000000" font-family="sans-serif" font-size="14" lengthAdjust="spacing" textLength="149" x="394.75" y="155.7969">GreenSpacesController</text><line style="stroke:#181818;stroke-width:0.5;" x1="322" x2="584" y1="166" y2="166"/><line style="stroke:#181818;stroke-width:0.5;" x1="322" x2="584" y1="174" y2="174"/><text fill="#000000" font-family="sans-serif" font-size="14" lengthAdjust="spacing" textLength="252" x="327" y="193.1074">+listGreenSpaces() : List&lt;GreenSpace&gt;</text></g><!--class GSM--><g id="elem_GSM"><rect codeLine="31" fill="#F1F1F1" height="103.8633" id="GSM" rx="2.5" ry="2.5" style="stroke:#181818;stroke-width:0.5;" width="104" x="7" y="481"/><ellipse cx="40.45" cy="497" fill="#ADD1B2" rx="11" ry="11" style="stroke:#181818;stroke-width:1.0;"/><path d="M43.2156,492.875 Q43.3719,492.6563 43.5594,492.5469 Q43.7469,492.4375 43.9656,492.4375 Q44.3406,492.4375 44.575,492.7031 Q44.8094,492.9531 44.8094,493.5625 L44.8094,495.0156 Q44.8094,495.625 44.575,495.8906 Q44.3406,496.1563 43.9656,496.1563 Q43.6219,496.1563 43.4188,495.9531 Q43.2156,495.7656 43.1063,495.25 Q43.0594,494.8906 42.8719,494.7031 Q42.5438,494.3281 41.9344,494.1094 Q41.325,493.8906 40.7,493.8906 Q39.9344,493.8906 39.2938,494.2188 Q38.6688,494.5469 38.1688,495.2969 Q37.6844,496.0469 37.6844,497.0781 L37.6844,498.1719 Q37.6844,499.4063 38.575,500.2344 Q39.4656,501.0469 41.0594,501.0469 Q41.9969,501.0469 42.6531,500.7969 Q43.0438,500.6406 43.4656,500.2031 Q43.7313,499.9375 43.8719,499.8594 Q44.0281,499.7813 44.2313,499.7813 Q44.5594,499.7813 44.8094,500.0469 Q45.075,500.2969 45.075,500.6406 Q45.075,500.9844 44.7313,501.3906 Q44.2313,501.9688 43.4344,502.2969 Q42.3563,502.75 41.0594,502.75 Q39.5438,502.75 38.3406,502.125 Q37.3563,501.625 36.6688,500.5625 Q35.9813,499.4844 35.9813,498.2031 L35.9813,497.0469 Q35.9813,495.7188 36.5906,494.5781 Q37.2156,493.4219 38.3094,492.8125 Q39.4031,492.1875 40.6375,492.1875 Q41.3719,492.1875 42.0125,492.3594 Q42.6688,492.5156 43.2156,492.875 Z " fill="#000000"/><text fill="#000000" font-family="sans-serif" font-size="14" lengthAdjust="spacing" textLength="31" x="58.55" y="502.7969">GSM</text><line style="stroke:#181818;stroke-width:0.5;" x1="8" x2="110" y1="513" y2="513"/><text fill="#000000" font-family="sans-serif" font-size="14" lengthAdjust="spacing" textLength="35" x="13" y="532.1074">name</text><text fill="#000000" font-family="sans-serif" font-size="14" lengthAdjust="spacing" textLength="33" x="13" y="550.7285">email</text><text fill="#000000" font-family="sans-serif" font-size="14" lengthAdjust="spacing" textLength="92" x="13" y="569.3496">phone number</text><line style="stroke:#181818;stroke-width:0.5;" x1="8" x2="110" y1="576.8633" y2="576.8633"/></g><!--class GreenSpace--><g id="elem_GreenSpace"><rect codeLine="37" fill="#F1F1F1" height="122.4844" id="GreenSpace" rx="2.5" ry="2.5" style="stroke:#181818;stroke-width:0.5;" width="112" x="57" y="664"/><ellipse cx="72" cy="680" fill="#ADD1B2" rx="11" ry="11" style="stroke:#181818;stroke-width:1.0;"/><path d="M74.7656,675.875 Q74.9219,675.6563 75.1094,675.5469 Q75.2969,675.4375 75.5156,675.4375 Q75.8906,675.4375 76.125,675.7031 Q76.3594,675.9531 76.3594,676.5625 L76.3594,678.0156 Q76.3594,678.625 76.125,678.8906 Q75.8906,679.1563 75.5156,679.1563 Q75.1719,679.1563 74.9688,678.9531 Q74.7656,678.7656 74.6563,678.25 Q74.6094,677.8906 74.4219,677.7031 Q74.0938,677.3281 73.4844,677.1094 Q72.875,676.8906 72.25,676.8906 Q71.4844,676.8906 70.8438,677.2188 Q70.2188,677.5469 69.7188,678.2969 Q69.2344,679.0469 69.2344,680.0781 L69.2344,681.1719 Q69.2344,682.4063 70.125,683.2344 Q71.0156,684.0469 72.6094,684.0469 Q73.5469,684.0469 74.2031,683.7969 Q74.5938,683.6406 75.0156,683.2031 Q75.2813,682.9375 75.4219,682.8594 Q75.5781,682.7813 75.7813,682.7813 Q76.1094,682.7813 76.3594,683.0469 Q76.625,683.2969 76.625,683.6406 Q76.625,683.9844 76.2813,684.3906 Q75.7813,684.9688 74.9844,685.2969 Q73.9063,685.75 72.6094,685.75 Q71.0938,685.75 69.8906,685.125 Q68.9063,684.625 68.2188,683.5625 Q67.5313,682.4844 67.5313,681.2031 L67.5313,680.0469 Q67.5313,678.7188 68.1406,677.5781 Q68.7656,676.4219 69.8594,675.8125 Q70.9531,675.1875 72.1875,675.1875 Q72.9219,675.1875 73.5625,675.3594 Q74.2188,675.5156 74.7656,675.875 Z " fill="#000000"/><text fill="#000000" font-family="sans-serif" font-size="14" lengthAdjust="spacing" textLength="80" x="86" y="685.7969">GreenSpace</text><line style="stroke:#181818;stroke-width:0.5;" x1="58" x2="168" y1="696" y2="696"/><text fill="#000000" font-family="sans-serif" font-size="14" lengthAdjust="spacing" textLength="35" x="63" y="715.1074">name</text><text fill="#000000" font-family="sans-serif" font-size="14" lengthAdjust="spacing" textLength="29" x="63" y="733.7285">area</text><text fill="#000000" font-family="sans-serif" font-size="14" lengthAdjust="spacing" textLength="51" x="63" y="752.3496">address</text><text fill="#000000" font-family="sans-serif" font-size="14" lengthAdjust="spacing" textLength="60" x="63" y="770.9707">gsmEmail</text><line style="stroke:#181818;stroke-width:0.5;" x1="58" x2="168" y1="778.4844" y2="778.4844"/></g><!--class SortingAlgorithm--><g id="elem_SortingAlgorithm"><rect codeLine="44" fill="#F1F1F1" height="85.2422" id="SortingAlgorithm" rx="2.5" ry="2.5" style="stroke:#181818;stroke-width:0.5;" width="302" x="599" y="298.5"/><ellipse cx="693.75" cy="314.5" fill="#ADD1B2" rx="11" ry="11" style="stroke:#181818;stroke-width:1.0;"/><path d="M696.5156,310.375 Q696.6719,310.1563 696.8594,310.0469 Q697.0469,309.9375 697.2656,309.9375 Q697.6406,309.9375 697.875,310.2031 Q698.1094,310.4531 698.1094,311.0625 L698.1094,312.5156 Q698.1094,313.125 697.875,313.3906 Q697.6406,313.6563 697.2656,313.6563 Q696.9219,313.6563 696.7188,313.4531 Q696.5156,313.2656 696.4063,312.75 Q696.3594,312.3906 696.1719,312.2031 Q695.8438,311.8281 695.2344,311.6094 Q694.625,311.3906 694,311.3906 Q693.2344,311.3906 692.5938,311.7188 Q691.9688,312.0469 691.4688,312.7969 Q690.9844,313.5469 690.9844,314.5781 L690.9844,315.6719 Q690.9844,316.9063 691.875,317.7344 Q692.7656,318.5469 694.3594,318.5469 Q695.2969,318.5469 695.9531,318.2969 Q696.3438,318.1406 696.7656,317.7031 Q697.0313,317.4375 697.1719,317.3594 Q697.3281,317.2813 697.5313,317.2813 Q697.8594,317.2813 698.1094,317.5469 Q698.375,317.7969 698.375,318.1406 Q698.375,318.4844 698.0313,318.8906 Q697.5313,319.4688 696.7344,319.7969 Q695.6563,320.25 694.3594,320.25 Q692.8438,320.25 691.6406,319.625 Q690.6563,319.125 689.9688,318.0625 Q689.2813,316.9844 689.2813,315.7031 L689.2813,314.5469 Q689.2813,313.2188 689.8906,312.0781 Q690.5156,310.9219 691.6094,310.3125 Q692.7031,309.6875 693.9375,309.6875 Q694.6719,309.6875 695.3125,309.8594 Q695.9688,310.0156 696.5156,310.375 Z " fill="#000000"/><text fill="#000000" font-family="sans-serif" font-size="14" lengthAdjust="spacing" textLength="104" x="714.25" y="320.2969">SortingAlgorithm</text><line style="stroke:#181818;stroke-width:0.5;" x1="600" x2="900" y1="330.5" y2="330.5"/><text fill="#000000" font-family="sans-serif" font-size="14" lengthAdjust="spacing" textLength="94" x="605" y="349.6074">algorithmName</text><line style="stroke:#181818;stroke-width:0.5;" x1="600" x2="900" y1="357.1211" y2="357.1211"/><text fill="#000000" font-family="sans-serif" font-size="14" lengthAdjust="spacing" textLength="290" x="605" y="376.2285">+sort(List&lt;GreenSpace&gt;) : List&lt;GreenSpace&gt;</text></g><!--link GreenSpacesUI to GreenSpacesController--><g id="link_GreenSpacesUI_GreenSpacesController"><path codeLine="50" d="M453,55.12 C453,76.83 453,103.52 453,127.87 " fill="none" id="GreenSpacesUI-to-GreenSpacesController" style="stroke:#181818;stroke-width:1.0;"/><polygon fill="#181818" points="453,133.87,457,124.87,453,128.87,449,124.87,453,133.87" style="stroke:#181818;stroke-width:1.0;"/><polygon fill="#000000" points="458,99.6455,460.9389,90.6004,455.0611,90.6004,458,99.6455" style="stroke:#000000;stroke-width:1.0;"/><text fill="#000000" font-family="sans-serif" font-size="13" lengthAdjust="spacing" textLength="77" x="467" y="100.0283">interacts with</text></g><!--link Repositories to GreenSpaceRepository--><g id="link_Repositories_GreenSpaceRepository"><path codeLine="51" d="M387.19,402.12 C355.77,430.82 323.3801,460.4035 295.0801,486.2535 " fill="none" id="Repositories-to-GreenSpaceRepository" style="stroke:#181818;stroke-width:1.0;"/><polygon fill="#181818" points="290.65,490.3,299.9928,487.1836,294.3417,486.9279,294.5974,481.2768,290.65,490.3" style="stroke:#181818;stroke-width:1.0;"/><polygon fill="#000000" points="350.3082,445.0176,358.9688,441.0874,355.0046,436.7475,350.3082,445.0176" style="stroke:#000000;stroke-width:1.0;"/><text fill="#000000" font-family="sans-serif" font-size="13" lengthAdjust="spacing" textLength="47" x="363" y="447.0283">provides</text></g><!--link GreenSpacesController to Repositories--><g id="link_GreenSpacesController_Repositories"><path codeLine="52" d="M453,201.16 C453,223.32 453,247.28 453,273.69 " fill="none" id="GreenSpacesController-to-Repositories" style="stroke:#181818;stroke-width:1.0;"/><polygon fill="#181818" points="453,279.69,457,270.69,453,274.69,449,270.69,453,279.69" style="stroke:#181818;stroke-width:1.0;"/><polygon fill="#000000" points="458,245.6455,460.9389,236.6004,455.0611,236.6004,458,245.6455" style="stroke:#000000;stroke-width:1.0;"/><text fill="#000000" font-family="sans-serif" font-size="13" lengthAdjust="spacing" textLength="28" x="467" y="246.0283">uses</text></g><!--link GreenSpaceRepository to GreenSpace--><g id="link_GreenSpaceRepository_GreenSpace"><path codeLine="53" d="M216.03,575.7 C198.12,601.48 178.2529,630.0721 158.3529,658.7221 " fill="none" id="GreenSpaceRepository-to-GreenSpace" style="stroke:#181818;stroke-width:1.0;"/><polygon fill="#181818" points="154.93,663.65,163.3495,658.5401,157.7824,659.5434,156.779,653.9763,154.93,663.65" style="stroke:#181818;stroke-width:1.0;"/><polygon fill="#000000" points="189.1473,628.7518,196.7216,623.0002,191.8943,619.6466,189.1473,628.7518" style="stroke:#000000;stroke-width:1.0;"/><text fill="#000000" font-family="sans-serif" font-size="13" lengthAdjust="spacing" textLength="49" x="201" y="630.0283">contains</text></g><!--link GreenSpacesController to GreenSpaceRepository--><g id="link_GreenSpacesController_GreenSpaceRepository"><path codeLine="54" d="M371.26,201.05 C288.61,233.96 173,280 173,280 C173,280 173,402 173,402 C173,402 197.8626,446.9015 218.9126,484.9015 " fill="none" id="GreenSpacesController-to-GreenSpaceRepository" style="stroke:#181818;stroke-width:1.0;"/><polygon fill="#181818" points="221.82,490.15,220.9579,480.3389,219.3972,485.7762,213.9599,484.2155,221.82,490.15" style="stroke:#181818;stroke-width:1.0;"/><polygon fill="#000000" points="175.6355,345.5511,182.5025,338.9712,177.3234,336.1915,175.6355,345.5511" style="stroke:#000000;stroke-width:1.0;"/><text fill="#000000" font-family="sans-serif" font-size="13" lengthAdjust="spacing" textLength="136" x="187" y="346.5283">gets green spaces from</text></g><!--link GreenSpacesController to SortingAlgorithm--><g id="link_GreenSpacesController_SortingAlgorithm"><path codeLine="55" d="M509.56,201.16 C557.36,228.76 620.9139,265.4598 672.6639,295.3398 " fill="none" id="GreenSpacesController-to-SortingAlgorithm" style="stroke:#181818;stroke-width:1.0;"/><polygon fill="#181818" points="677.86,298.34,672.066,290.3757,673.5299,295.8399,668.0658,297.3038,677.86,298.34" style="stroke:#181818;stroke-width:1.0;"/></g><!--link GSM to GreenSpace--><g id="link_GSM_GreenSpace"><path codeLine="56" d="M73.54,585.17 C80.45,609.46 88.74,638.64 95.94,663.98 " fill="none" id="GSM-GreenSpace" style="stroke:#181818;stroke-width:1.0;"/><polygon fill="#000000" points="92.367,629.455,92.721,619.951,87.0671,621.558,92.367,629.455" style="stroke:#000000;stroke-width:1.0;"/><text fill="#000000" font-family="sans-serif" font-size="13" lengthAdjust="spacing" textLength="53" x="100" y="630.0283">manages</text><text fill="#000000" font-family="sans-serif" font-size="13" lengthAdjust="spacing" textLength="7" x="67.9545" y="606.9991">1</text><text fill="#000000" font-family="sans-serif" font-size="13" lengthAdjust="spacing" textLength="5" x="88.5561" y="652.5238">*</text></g><!--SRC=[VLJRIiD047tVhnZwqbOfw6kGWeX8GNqm-05hCasMxYNiJ9Gg_hkJs3ONO_CqEsVEcTjkvhGplj9HEt31XwoCmI5mh55rIAMpdIumvRr5Y9YnzeNj1r2fy_1XV05RRQcFMEEHznL25Uo-EQZv11WYbq7rQ9dLHBVCqRpLZ9ii-DHy8bmfDRUuPU00qHGbGswQUapmIhKSU8Y8FfMAyGMhG8P3tCEN0lak2-GfUB6SW4cyttz5wNKZQXroKZ58XpIhWVCe3gA-yIIZot2nX6GGr8MSgw_1KncLpFdM5aBaqWsYfkgz2vvZi1RZSGhMqB1FAUPHV3UTSzsJIfyEHAyTjWOwRMnhLMNm2BvsRnYdie-PEgB-DV8y8ltsNP2xRnLF0kCc3pBwU7u-wbsIH2x6nV_Na1gkSRLQJmyg0UCPeywOu4FomLeDrZmaTXj8e8hXtUGIibRJAsYeVQq4QXg5zwxjC542yWnO6tzUVb8fQUuEGT5WG2qDjlBKpogDrw2Qkp2xdWa8iujPVyy9EEtb5z6KzWC0]--></g></svg>