<?xml version="1.0" encoding="us-ascii" standalone="no"?><svg xmlns="http://www.w3.org/2000/svg" xmlns:xlink="http://www.w3.org/1999/xlink" contentStyleType="text/css" height="812px" preserveAspectRatio="none" style="width:1059px;height:812px;background:#FFFFFF;" version="1.1" viewBox="0 0 1059 812" width="1059px" zoomAndPan="magnify"><defs/><g><rect fill="#FFFFFF" height="617.8203" style="stroke:#181818;stroke-width:1.0;" width="10" x="75" y="93.6211"/><rect fill="#FFFFFF" height="406.7832" style="stroke:#181818;stroke-width:1.0;" width="10" x="297" y="116.9121"/><rect fill="#FFFFFF" height="156.4551" style="stroke:#181818;stroke-width:1.0;" width="10" x="297" y="554.9863"/><rect fill="#FFFFFF" height="344.2012" style="stroke:#181818;stroke-width:1.0;" width="10" x="471" y="148.2031"/><rect fill="#FFFFFF" height="93.873" style="stroke:#181818;stroke-width:1.0;" width="10" x="471" y="586.2773"/><rect fill="#FFFFFF" height="31.291" style="stroke:#181818;stroke-width:1.0;" width="10" x="624" y="179.4941"/><rect fill="#FFFFFF" height="31.291" style="stroke:#181818;stroke-width:1.0;" width="10" x="765.5" y="242.0762"/><rect fill="#FFFFFF" height="31.291" style="stroke:#181818;stroke-width:1.0;" width="10" x="765.5" y="367.2402"/><rect fill="#FFFFFF" height="31.291" style="stroke:#181818;stroke-width:1.0;" width="10" x="953.5" y="304.6582"/><rect fill="#FFFFFF" height="31.291" style="stroke:#181818;stroke-width:1.0;" width="10" x="953.5" y="429.8223"/><rect fill="#FFFFFF" height="31.291" style="stroke:#181818;stroke-width:1.0;" width="10" x="953.5" y="617.5684"/><line style="stroke:#181818;stroke-width:0.5;stroke-dasharray:5.0,5.0;" x1="80" x2="80" y1="83.6211" y2="729.4414"/><line style="stroke:#181818;stroke-width:0.5;stroke-dasharray:5.0,5.0;" x1="301.5" x2="301.5" y1="83.6211" y2="729.4414"/><line style="stroke:#181818;stroke-width:0.5;stroke-dasharray:5.0,5.0;" x1="475.5" x2="475.5" y1="83.6211" y2="729.4414"/><line style="stroke:#181818;stroke-width:0.5;stroke-dasharray:5.0,5.0;" x1="628.5" x2="628.5" y1="83.6211" y2="729.4414"/><line style="stroke:#181818;stroke-width:0.5;stroke-dasharray:5.0,5.0;" x1="770.5" x2="770.5" y1="83.6211" y2="729.4414"/><line style="stroke:#181818;stroke-width:0.5;stroke-dasharray:5.0,5.0;" x1="958.5" x2="958.5" y1="83.6211" y2="729.4414"/><text fill="#000000" font-family="sans-serif" font-size="14" lengthAdjust="spacing" textLength="144" x="5" y="80.1074">Green Space Manager</text><ellipse cx="80" cy="13.5" fill="#E3E3E3" rx="8" ry="8" style="stroke:#181818;stroke-width:0.5;"/><path d="M80,21.5 L80,48.5 M67,29.5 L93,29.5 M80,48.5 L67,63.5 M80,48.5 L93,63.5 " fill="none" style="stroke:#181818;stroke-width:0.5;"/><text fill="#000000" font-family="sans-serif" font-size="14" lengthAdjust="spacing" textLength="144" x="5" y="743.5488">Green Space Manager</text><ellipse cx="80" cy="755.5625" fill="#E3E3E3" rx="8" ry="8" style="stroke:#181818;stroke-width:0.5;"/><path d="M80,763.5625 L80,790.5625 M67,771.5625 L93,771.5625 M80,790.5625 L67,805.5625 M80,790.5625 L93,805.5625 " fill="none" style="stroke:#181818;stroke-width:0.5;"/><rect fill="#E3E3E3" height="32.6211" rx="2.5" ry="2.5" style="stroke:#181818;stroke-width:0.5;" width="139" x="232.5" y="50"/><text fill="#000000" font-family="sans-serif" font-size="14" lengthAdjust="spacing" textLength="125" x="239.5" y="72.1074">:ListGreenSpacesUI</text><rect fill="#E3E3E3" height="32.6211" rx="2.5" ry="2.5" style="stroke:#181818;stroke-width:0.5;" width="139" x="232.5" y="728.4414"/><text fill="#000000" font-family="sans-serif" font-size="14" lengthAdjust="spacing" textLength="125" x="239.5" y="750.5488">:ListGreenSpacesUI</text><rect fill="#E3E3E3" height="32.6211" rx="2.5" ry="2.5" style="stroke:#181818;stroke-width:0.5;" width="189" x="381.5" y="50"/><text fill="#000000" font-family="sans-serif" font-size="14" lengthAdjust="spacing" textLength="175" x="388.5" y="72.1074">:ListGreenSpacesController</text><rect fill="#E3E3E3" height="32.6211" rx="2.5" ry="2.5" style="stroke:#181818;stroke-width:0.5;" width="189" x="381.5" y="728.4414"/><text fill="#000000" font-family="sans-serif" font-size="14" lengthAdjust="spacing" textLength="175" x="388.5" y="750.5488">:ListGreenSpacesController</text><rect fill="#E3E3E3" height="32.6211" rx="2.5" ry="2.5" style="stroke:#181818;stroke-width:0.5;" width="97" x="580.5" y="50"/><text fill="#000000" font-family="sans-serif" font-size="14" lengthAdjust="spacing" textLength="83" x="587.5" y="72.1074">:Repositories</text><rect fill="#E3E3E3" height="32.6211" rx="2.5" ry="2.5" style="stroke:#181818;stroke-width:0.5;" width="97" x="580.5" y="728.4414"/><text fill="#000000" font-family="sans-serif" font-size="14" lengthAdjust="spacing" textLength="83" x="587.5" y="750.5488">:Repositories</text><rect fill="#E3E3E3" height="51.2422" rx="2.5" ry="2.5" style="stroke:#181818;stroke-width:0.5;" width="166" x="687.5" y="31.3789"/><text fill="#000000" font-family="sans-serif" font-size="14" lengthAdjust="spacing" textLength="152" x="694.5" y="53.4863">GreenSpaceRepository:</text><text fill="#000000" font-family="sans-serif" font-size="14" lengthAdjust="spacing" textLength="148" x="696.5" y="72.1074">GreenSpaceRepository</text><rect fill="#E3E3E3" height="51.2422" rx="2.5" ry="2.5" style="stroke:#181818;stroke-width:0.5;" width="166" x="687.5" y="728.4414"/><text fill="#000000" font-family="sans-serif" font-size="14" lengthAdjust="spacing" textLength="152" x="694.5" y="750.5488">GreenSpaceRepository:</text><text fill="#000000" font-family="sans-serif" font-size="14" lengthAdjust="spacing" textLength="148" x="696.5" y="769.1699">GreenSpaceRepository</text><rect fill="#E3E3E3" height="51.2422" rx="2.5" ry="2.5" style="stroke:#181818;stroke-width:0.5;" width="190" x="863.5" y="31.3789"/><text fill="#000000" font-family="sans-serif" font-size="14" lengthAdjust="spacing" textLength="176" x="870.5" y="53.4863">SortingAlgorithmRepository:</text><text fill="#000000" font-family="sans-serif" font-size="14" lengthAdjust="spacing" textLength="172" x="872.5" y="72.1074">SortingAlgorithmRepository</text><rect fill="#E3E3E3" height="51.2422" rx="2.5" ry="2.5" style="stroke:#181818;stroke-width:0.5;" width="190" x="863.5" y="728.4414"/><text fill="#000000" font-family="sans-serif" font-size="14" lengthAdjust="spacing" textLength="176" x="870.5" y="750.5488">SortingAlgorithmRepository:</text><text fill="#000000" font-family="sans-serif" font-size="14" lengthAdjust="spacing" textLength="172" x="872.5" y="769.1699">SortingAlgorithmRepository</text><rect fill="#FFFFFF" height="617.8203" style="stroke:#181818;stroke-width:1.0;" width="10" x="75" y="93.6211"/><rect fill="#FFFFFF" height="406.7832" style="stroke:#181818;stroke-width:1.0;" width="10" x="297" y="116.9121"/><rect fill="#FFFFFF" height="156.4551" style="stroke:#181818;stroke-width:1.0;" width="10" x="297" y="554.9863"/><rect fill="#FFFFFF" height="344.2012" style="stroke:#181818;stroke-width:1.0;" width="10" x="471" y="148.2031"/><rect fill="#FFFFFF" height="93.873" style="stroke:#181818;stroke-width:1.0;" width="10" x="471" y="586.2773"/><rect fill="#FFFFFF" height="31.291" style="stroke:#181818;stroke-width:1.0;" width="10" x="624" y="179.4941"/><rect fill="#FFFFFF" height="31.291" style="stroke:#181818;stroke-width:1.0;" width="10" x="765.5" y="242.0762"/><rect fill="#FFFFFF" height="31.291" style="stroke:#181818;stroke-width:1.0;" width="10" x="765.5" y="367.2402"/><rect fill="#FFFFFF" height="31.291" style="stroke:#181818;stroke-width:1.0;" width="10" x="953.5" y="304.6582"/><rect fill="#FFFFFF" height="31.291" style="stroke:#181818;stroke-width:1.0;" width="10" x="953.5" y="429.8223"/><rect fill="#FFFFFF" height="31.291" style="stroke:#181818;stroke-width:1.0;" width="10" x="953.5" y="617.5684"/><polygon fill="#181818" points="285,112.9121,295,116.9121,285,120.9121,289,116.9121" style="stroke:#181818;stroke-width:1.0;"/><line style="stroke:#181818;stroke-width:1.0;" x1="85" x2="291" y1="116.9121" y2="116.9121"/><text fill="#000000" font-family="sans-serif" font-size="13" font-weight="bold" lengthAdjust="spacing" textLength="7" x="92" y="111.6494">1</text><text fill="#000000" font-family="sans-serif" font-size="13" lengthAdjust="spacing" textLength="168" x="103" y="111.6494">requests to list green spaces</text><polygon fill="#181818" points="459,144.2031,469,148.2031,459,152.2031,463,148.2031" style="stroke:#181818;stroke-width:1.0;"/><line style="stroke:#181818;stroke-width:1.0;" x1="307" x2="465" y1="148.2031" y2="148.2031"/><text fill="#000000" font-family="sans-serif" font-size="13" font-weight="bold" lengthAdjust="spacing" textLength="7" x="314" y="142.9404">2</text><text fill="#000000" font-family="sans-serif" font-size="13" lengthAdjust="spacing" textLength="36" x="325" y="142.9404">create</text><polygon fill="#181818" points="612,175.4941,622,179.4941,612,183.4941,616,179.4941" style="stroke:#181818;stroke-width:1.0;"/><line style="stroke:#181818;stroke-width:1.0;" x1="481" x2="618" y1="179.4941" y2="179.4941"/><text fill="#000000" font-family="sans-serif" font-size="13" font-weight="bold" lengthAdjust="spacing" textLength="7" x="488" y="174.2314">3</text><text fill="#000000" font-family="sans-serif" font-size="13" lengthAdjust="spacing" textLength="75" x="499" y="174.2314">getInstance()</text><polygon fill="#181818" points="492,206.7852,482,210.7852,492,214.7852,488,210.7852" style="stroke:#181818;stroke-width:1.0;"/><line style="stroke:#181818;stroke-width:1.0;stroke-dasharray:2.0,2.0;" x1="486" x2="628" y1="210.7852" y2="210.7852"/><text fill="#000000" font-family="sans-serif" font-size="13" font-weight="bold" lengthAdjust="spacing" textLength="7" x="498" y="205.5225">4</text><text fill="#000000" font-family="sans-serif" font-size="13" lengthAdjust="spacing" textLength="67" x="509" y="205.5225">repositories</text><polygon fill="#181818" points="753.5,238.0762,763.5,242.0762,753.5,246.0762,757.5,242.0762" style="stroke:#181818;stroke-width:1.0;"/><line style="stroke:#181818;stroke-width:1.0;" x1="481" x2="759.5" y1="242.0762" y2="242.0762"/><text fill="#000000" font-family="sans-serif" font-size="13" font-weight="bold" lengthAdjust="spacing" textLength="7" x="488" y="236.8135">5</text><text fill="#000000" font-family="sans-serif" font-size="13" lengthAdjust="spacing" textLength="160" x="499" y="236.8135">getGreenSpaceRepository()</text><polygon fill="#181818" points="492,269.3672,482,273.3672,492,277.3672,488,273.3672" style="stroke:#181818;stroke-width:1.0;"/><line style="stroke:#181818;stroke-width:1.0;stroke-dasharray:2.0,2.0;" x1="486" x2="769.5" y1="273.3672" y2="273.3672"/><text fill="#000000" font-family="sans-serif" font-size="13" font-weight="bold" lengthAdjust="spacing" textLength="7" x="498" y="268.1045">6</text><text fill="#000000" font-family="sans-serif" font-size="13" lengthAdjust="spacing" textLength="131" x="509" y="268.1045">greenSpaceRepository</text><polygon fill="#181818" points="941.5,300.6582,951.5,304.6582,941.5,308.6582,945.5,304.6582" style="stroke:#181818;stroke-width:1.0;"/><line style="stroke:#181818;stroke-width:1.0;" x1="481" x2="947.5" y1="304.6582" y2="304.6582"/><text fill="#000000" font-family="sans-serif" font-size="13" font-weight="bold" lengthAdjust="spacing" textLength="7" x="488" y="299.3955">7</text><text fill="#000000" font-family="sans-serif" font-size="13" lengthAdjust="spacing" textLength="184" x="499" y="299.3955">getSortingAlgorithmRepository()</text><polygon fill="#181818" points="492,331.9492,482,335.9492,492,339.9492,488,335.9492" style="stroke:#181818;stroke-width:1.0;"/><line style="stroke:#181818;stroke-width:1.0;stroke-dasharray:2.0,2.0;" x1="486" x2="957.5" y1="335.9492" y2="335.9492"/><text fill="#000000" font-family="sans-serif" font-size="13" font-weight="bold" lengthAdjust="spacing" textLength="7" x="498" y="330.6865">8</text><text fill="#000000" font-family="sans-serif" font-size="13" lengthAdjust="spacing" textLength="156" x="509" y="330.6865">sortingAlgorithmRepository</text><polygon fill="#181818" points="753.5,363.2402,763.5,367.2402,753.5,371.2402,757.5,367.2402" style="stroke:#181818;stroke-width:1.0;"/><line style="stroke:#181818;stroke-width:1.0;" x1="481" x2="759.5" y1="367.2402" y2="367.2402"/><text fill="#000000" font-family="sans-serif" font-size="13" font-weight="bold" lengthAdjust="spacing" textLength="7" x="488" y="361.9775">9</text><text fill="#000000" font-family="sans-serif" font-size="13" lengthAdjust="spacing" textLength="105" x="499" y="361.9775">getGreenSpaces()</text><polygon fill="#181818" points="492,394.5313,482,398.5313,492,402.5313,488,398.5313" style="stroke:#181818;stroke-width:1.0;"/><line style="stroke:#181818;stroke-width:1.0;stroke-dasharray:2.0,2.0;" x1="486" x2="769.5" y1="398.5313" y2="398.5313"/><text fill="#000000" font-family="sans-serif" font-size="13" font-weight="bold" lengthAdjust="spacing" textLength="14" x="498" y="393.2686">10</text><text fill="#000000" font-family="sans-serif" font-size="13" lengthAdjust="spacing" textLength="113" x="516" y="393.2686">list of green spaces</text><polygon fill="#181818" points="941.5,425.8223,951.5,429.8223,941.5,433.8223,945.5,429.8223" style="stroke:#181818;stroke-width:1.0;"/><line style="stroke:#181818;stroke-width:1.0;" x1="481" x2="947.5" y1="429.8223" y2="429.8223"/><text fill="#000000" font-family="sans-serif" font-size="13" font-weight="bold" lengthAdjust="spacing" textLength="14" x="488" y="424.5596">11</text><text fill="#000000" font-family="sans-serif" font-size="13" lengthAdjust="spacing" textLength="129" x="506" y="424.5596">getSortingAlgorithms()</text><polygon fill="#181818" points="492,457.1133,482,461.1133,492,465.1133,488,461.1133" style="stroke:#181818;stroke-width:1.0;"/><line style="stroke:#181818;stroke-width:1.0;stroke-dasharray:2.0,2.0;" x1="486" x2="957.5" y1="461.1133" y2="461.1133"/><text fill="#000000" font-family="sans-serif" font-size="13" font-weight="bold" lengthAdjust="spacing" textLength="14" x="498" y="455.8506">12</text><text fill="#000000" font-family="sans-serif" font-size="13" lengthAdjust="spacing" textLength="103" x="516" y="455.8506">sorting algorithms</text><polygon fill="#181818" points="318,488.4043,308,492.4043,318,496.4043,314,492.4043" style="stroke:#181818;stroke-width:1.0;"/><line style="stroke:#181818;stroke-width:1.0;stroke-dasharray:2.0,2.0;" x1="312" x2="475" y1="492.4043" y2="492.4043"/><text fill="#000000" font-family="sans-serif" font-size="13" font-weight="bold" lengthAdjust="spacing" textLength="14" x="324" y="487.1416">13</text><text fill="#000000" font-family="sans-serif" font-size="13" lengthAdjust="spacing" textLength="97" x="342" y="487.1416">greenSpacesList</text><polygon fill="#181818" points="96,519.6953,86,523.6953,96,527.6953,92,523.6953" style="stroke:#181818;stroke-width:1.0;"/><line style="stroke:#181818;stroke-width:1.0;stroke-dasharray:2.0,2.0;" x1="90" x2="301" y1="523.6953" y2="523.6953"/><text fill="#000000" font-family="sans-serif" font-size="13" font-weight="bold" lengthAdjust="spacing" textLength="14" x="102" y="518.4326">14</text><text fill="#000000" font-family="sans-serif" font-size="13" lengthAdjust="spacing" textLength="157" x="120" y="518.4326">requests sorting preference</text><polygon fill="#181818" points="285,550.9863,295,554.9863,285,558.9863,289,554.9863" style="stroke:#181818;stroke-width:1.0;"/><line style="stroke:#181818;stroke-width:1.0;" x1="85" x2="291" y1="554.9863" y2="554.9863"/><text fill="#000000" font-family="sans-serif" font-size="13" font-weight="bold" lengthAdjust="spacing" textLength="14" x="92" y="549.7236">15</text><text fill="#000000" font-family="sans-serif" font-size="13" lengthAdjust="spacing" textLength="142" x="110" y="549.7236">selects sorting algorithm</text><polygon fill="#181818" points="459,582.2773,469,586.2773,459,590.2773,463,586.2773" style="stroke:#181818;stroke-width:1.0;"/><line style="stroke:#181818;stroke-width:1.0;stroke-dasharray:2.0,2.0;" x1="307" x2="465" y1="586.2773" y2="586.2773"/><text fill="#000000" font-family="sans-serif" font-size="13" font-weight="bold" lengthAdjust="spacing" textLength="14" x="314" y="581.0146">16</text><text fill="#000000" font-family="sans-serif" font-size="13" lengthAdjust="spacing" textLength="104" x="332" y="581.0146">sort green spaces</text><polygon fill="#181818" points="941.5,613.5684,951.5,617.5684,941.5,621.5684,945.5,617.5684" style="stroke:#181818;stroke-width:1.0;"/><line style="stroke:#181818;stroke-width:1.0;" x1="481" x2="947.5" y1="617.5684" y2="617.5684"/><text fill="#000000" font-family="sans-serif" font-size="13" font-weight="bold" lengthAdjust="spacing" textLength="14" x="488" y="612.3057">17</text><text fill="#000000" font-family="sans-serif" font-size="13" lengthAdjust="spacing" textLength="174" x="506" y="612.3057">use selected sorting algorithm</text><polygon fill="#181818" points="492,644.8594,482,648.8594,492,652.8594,488,648.8594" style="stroke:#181818;stroke-width:1.0;"/><line style="stroke:#181818;stroke-width:1.0;stroke-dasharray:2.0,2.0;" x1="486" x2="957.5" y1="648.8594" y2="648.8594"/><text fill="#000000" font-family="sans-serif" font-size="13" font-weight="bold" lengthAdjust="spacing" textLength="14" x="498" y="643.5967">18</text><text fill="#000000" font-family="sans-serif" font-size="13" lengthAdjust="spacing" textLength="118" x="516" y="643.5967">sorted green spaces</text><polygon fill="#181818" points="318,676.1504,308,680.1504,318,684.1504,314,680.1504" style="stroke:#181818;stroke-width:1.0;"/><line style="stroke:#181818;stroke-width:1.0;stroke-dasharray:2.0,2.0;" x1="312" x2="475" y1="680.1504" y2="680.1504"/><text fill="#000000" font-family="sans-serif" font-size="13" font-weight="bold" lengthAdjust="spacing" textLength="14" x="324" y="674.8877">19</text><text fill="#000000" font-family="sans-serif" font-size="13" lengthAdjust="spacing" textLength="118" x="342" y="674.8877">sorted green spaces</text><polygon fill="#181818" points="91,707.4414,81,711.4414,91,715.4414,87,711.4414" style="stroke:#181818;stroke-width:1.0;"/><line style="stroke:#181818;stroke-width:1.0;stroke-dasharray:2.0,2.0;" x1="85" x2="301" y1="711.4414" y2="711.4414"/><text fill="#000000" font-family="sans-serif" font-size="13" font-weight="bold" lengthAdjust="spacing" textLength="14" x="97" y="706.1787">20</text><text fill="#000000" font-family="sans-serif" font-size="13" lengthAdjust="spacing" textLength="170" x="115" y="706.1787">displays sorted green spaces</text><!--SRC=[jLLDJyCm3BttLrWxmM5_O0San05DsYuKRbn2vtNHqgJ4AMZ_7YTRFrAQgK8ZfpQsd_tyN9UEKjV2YWegeqrniAP2SBR1Z3fBBOgZA35t9uLWiN12bsheG0UnCzzIbx0NYZ3BHEECRgeFjFnSE6DXyMmHDUICXR0Lcl7i0WJ1SxxD6CN9GjP2ErYiDf9Sy0xEzBOEVc_hwsvFHZjhbBh0Fhs-R4O1BrWRaboCH0e-tSKfbvuHrno7zF2zw-fTJrsVkKI662it_ABBHrLo0UvGHOXfOy2zc0EexwVy4Wv3vpBWmm-mVE0EmOhb-MoG784peBX3K8Q-K-ZHsRq3u9Q62tyuc25yrnYaiCZspjO5XAPsr_w400wSQ2NZbEZMcdXS2hoxZ-8wo2aD8az_fj2Nbt8zvLxNA7I7yzEqH689pnocz4xn6Ot0BoeZ_9v5EP4anUPQafR8O6REBD8pbk8IZTsOo12_Pq7992akoIJp5A6R2n6-6hEFFvp_589kttyG7VWV-zxkatuioI_SR08ftWf-aNZLU2SDjb5RLsrnZnPv8MGZb7OP3PSPeUA_3VrcTNsFzOlC1quBEMEdnS8rX9TwS9Sew5O2Se8vmpTJmMk8yrJSIQgLE54IQYJZy0FXVzGF]--></g></svg>