<?xml version="1.0" encoding="us-ascii" standalone="no"?><svg xmlns="http://www.w3.org/2000/svg" xmlns:xlink="http://www.w3.org/1999/xlink" contentStyleType="text/css" height="1567px" preserveAspectRatio="none" style="width:1661px;height:1567px;background:#FFFFFF;" version="1.1" viewBox="0 0 1661 1567" width="1661px" zoomAndPan="magnify"><defs/><g><rect fill="#FFFFFF" height="1372.6309" style="stroke:#181818;stroke-width:1.0;" width="10" x="91" y="93.6211"/><rect fill="#FFFFFF" height="231.3672" style="stroke:#181818;stroke-width:1.0;" width="10" x="324" y="116.9121"/><rect fill="#FFFFFF" height="31.291" style="stroke:#181818;stroke-width:1.0;" width="10" x="324" y="379.5703"/><rect fill="#FFFFFF" height="1024.0996" style="stroke:#181818;stroke-width:1.0;" width="10" x="324" y="442.1523"/><rect fill="#FFFFFF" height="1283.4277" style="stroke:#181818;stroke-width:1.0;" width="10" x="484" y="191.8242"/><rect fill="#FFFFFF" height="1001.8086" style="stroke:#181818;stroke-width:1.0;" width="10" x="489" y="473.4434"/><rect fill="#FFFFFF" height="922.2266" style="stroke:#181818;stroke-width:1.0;" width="10" x="494" y="512.7344"/><rect fill="#FFFFFF" height="419.7832" style="stroke:#181818;stroke-width:1.0;" width="10" x="499" y="738.4805"/><rect fill="#FFFFFF" height="31.291" style="stroke:#181818;stroke-width:1.0;" width="10" x="751" y="223.1152"/><rect fill="#FFFFFF" height="31.291" style="stroke:#181818;stroke-width:1.0;" width="10" x="751" y="549.0254"/><rect fill="#FFFFFF" height="31.291" style="stroke:#181818;stroke-width:1.0;" width="10" x="858" y="285.6973"/><rect fill="#FFFFFF" height="31.291" style="stroke:#181818;stroke-width:1.0;" width="10" x="858" y="611.6074"/><rect fill="#FFFFFF" height="31.291" style="stroke:#181818;stroke-width:1.0;" width="10" x="858" y="868.6445"/><rect fill="#FFFFFF" height="801.0625" style="stroke:#181818;stroke-width:1.0;" width="10" x="971" y="674.1895"/><rect fill="#FFFFFF" height="127.1641" style="stroke:#181818;stroke-width:1.0;" width="10" x="1117" y="931.2266"/><rect fill="#FFFFFF" height="31.291" style="stroke:#181818;stroke-width:1.0;" width="10" x="1338" y="988.8086"/><rect fill="#FFFFFF" height="31.291" style="stroke:#181818;stroke-width:1.0;" width="10" x="1338" y="1089.6816"/><rect fill="#FFFFFF" height="253.6973" style="stroke:#181818;stroke-width:1.0;" width="10" x="1338" y="1221.5547"/><rect fill="#FFFFFF" height="80.582" style="stroke:#181818;stroke-width:1.0;" width="10" x="1343" y="1323.0879"/><rect fill="#FFFFFF" height="700.4805" style="stroke:#181818;stroke-width:1.0;" width="10" x="1545.5" y="774.7715"/><rect fill="#FFFFFF" height="31.291" style="stroke:#181818;stroke-width:1.0;" width="10" x="1615" y="806.0625"/><rect fill="none" height="81.873" style="stroke:#000000;stroke-width:1.5;" width="371.5" x="1030.5" y="946.2266"/><line style="stroke:#181818;stroke-width:0.5;stroke-dasharray:5.0,5.0;" x1="96" x2="96" y1="83.6211" y2="1484.252"/><line style="stroke:#181818;stroke-width:0.5;stroke-dasharray:5.0,5.0;" x1="328.5" x2="328.5" y1="83.6211" y2="1484.252"/><line style="stroke:#181818;stroke-width:0.5;stroke-dasharray:5.0,5.0;" x1="488.5" x2="488.5" y1="156.7227" y2="1484.252"/><line style="stroke:#181818;stroke-width:0.5;stroke-dasharray:5.0,5.0;" x1="755.5" x2="755.5" y1="83.6211" y2="1484.252"/><line style="stroke:#181818;stroke-width:0.5;stroke-dasharray:5.0,5.0;" x1="862.5" x2="862.5" y1="83.6211" y2="1484.252"/><line style="stroke:#181818;stroke-width:0.5;stroke-dasharray:5.0,5.0;" x1="975.5" x2="975.5" y1="83.6211" y2="1484.252"/><line style="stroke:#181818;stroke-width:0.5;stroke-dasharray:5.0,5.0;" x1="1121.5" x2="1121.5" y1="83.6211" y2="1484.252"/><line style="stroke:#181818;stroke-width:0.5;stroke-dasharray:5.0,5.0;" x1="1343" x2="1343" y1="83.6211" y2="1484.252"/><line style="stroke:#181818;stroke-width:0.5;stroke-dasharray:5.0,5.0;" x1="1494" x2="1494" y1="1270.6758" y2="1484.252"/><line style="stroke:#181818;stroke-width:0.5;stroke-dasharray:5.0,5.0;" x1="1550" x2="1550" y1="83.6211" y2="1484.252"/><line style="stroke:#181818;stroke-width:0.5;stroke-dasharray:5.0,5.0;" x1="1620" x2="1620" y1="83.6211" y2="1484.252"/><text fill="#000000" font-family="sans-serif" font-size="14" lengthAdjust="spacing" textLength="176" x="5" y="80.1074">Human Resources Manager</text><ellipse cx="96" cy="13.5" fill="#E3E3E3" rx="8" ry="8" style="stroke:#181818;stroke-width:0.5;"/><path d="M96,21.5 L96,48.5 M83,29.5 L109,29.5 M96,48.5 L83,63.5 M96,48.5 L109,63.5 " fill="none" style="stroke:#181818;stroke-width:0.5;"/><text fill="#000000" font-family="sans-serif" font-size="14" lengthAdjust="spacing" textLength="176" x="5" y="1498.3594">Human Resources Manager</text><ellipse cx="96" cy="1510.373" fill="#E3E3E3" rx="8" ry="8" style="stroke:#181818;stroke-width:0.5;"/><path d="M96,1518.373 L96,1545.373 M83,1526.373 L109,1526.373 M96,1545.373 L83,1560.373 M96,1545.373 L109,1560.373 " fill="none" style="stroke:#181818;stroke-width:0.5;"/><rect fill="#E3E3E3" height="32.6211" rx="2.5" ry="2.5" style="stroke:#181818;stroke-width:0.5;" width="115" x="271.5" y="50"/><text fill="#000000" font-family="sans-serif" font-size="14" lengthAdjust="spacing" textLength="101" x="278.5" y="72.1074">:RegisterSkillsUI</text><rect fill="#E3E3E3" height="32.6211" rx="2.5" ry="2.5" style="stroke:#181818;stroke-width:0.5;" width="115" x="271.5" y="1483.252"/><text fill="#000000" font-family="sans-serif" font-size="14" lengthAdjust="spacing" textLength="101" x="278.5" y="1505.3594">:RegisterSkillsUI</text><rect fill="#E3E3E3" height="32.6211" rx="2.5" ry="2.5" style="stroke:#181818;stroke-width:0.5;" width="165" x="406.5" y="1483.252"/><text fill="#000000" font-family="sans-serif" font-size="14" lengthAdjust="spacing" textLength="151" x="413.5" y="1505.3594">:RegisterSkillsController</text><rect fill="#E3E3E3" height="32.6211" rx="2.5" ry="2.5" style="stroke:#181818;stroke-width:0.5;" width="97" x="707.5" y="50"/><text fill="#000000" font-family="sans-serif" font-size="14" lengthAdjust="spacing" textLength="83" x="714.5" y="72.1074">:Repositories</text><rect fill="#E3E3E3" height="32.6211" rx="2.5" ry="2.5" style="stroke:#181818;stroke-width:0.5;" width="97" x="707.5" y="1483.252"/><text fill="#000000" font-family="sans-serif" font-size="14" lengthAdjust="spacing" textLength="83" x="714.5" y="1505.3594">:Repositories</text><rect fill="#E3E3E3" height="51.2422" rx="2.5" ry="2.5" style="stroke:#181818;stroke-width:0.5;" width="97" x="814.5" y="31.3789"/><text fill="#000000" font-family="sans-serif" font-size="14" lengthAdjust="spacing" textLength="74" x="826" y="53.4863">repositories</text><text fill="#000000" font-family="sans-serif" font-size="14" lengthAdjust="spacing" textLength="83" x="821.5" y="72.1074">:Repositories</text><rect fill="#E3E3E3" height="51.2422" rx="2.5" ry="2.5" style="stroke:#181818;stroke-width:0.5;" width="97" x="814.5" y="1483.252"/><text fill="#000000" font-family="sans-serif" font-size="14" lengthAdjust="spacing" textLength="74" x="826" y="1505.3594">repositories</text><text fill="#000000" font-family="sans-serif" font-size="14" lengthAdjust="spacing" textLength="83" x="821.5" y="1523.9805">:Repositories</text><rect fill="#E3E3E3" height="51.2422" rx="2.5" ry="2.5" style="stroke:#181818;stroke-width:0.5;" width="109" x="921.5" y="31.3789"/><text fill="#000000" font-family="sans-serif" font-size="14" lengthAdjust="spacing" textLength="95" x="928.5" y="53.4863">skillRepository:</text><text fill="#000000" font-family="sans-serif" font-size="14" lengthAdjust="spacing" textLength="93" x="929.5" y="72.1074">SkillRepository</text><rect fill="#E3E3E3" height="51.2422" rx="2.5" ry="2.5" style="stroke:#181818;stroke-width:0.5;" width="109" x="921.5" y="1483.252"/><text fill="#000000" font-family="sans-serif" font-size="14" lengthAdjust="spacing" textLength="95" x="928.5" y="1505.3594">skillRepository:</text><text fill="#000000" font-family="sans-serif" font-size="14" lengthAdjust="spacing" textLength="93" x="929.5" y="1523.9805">SkillRepository</text><rect fill="#E3E3E3" height="51.2422" rx="2.5" ry="2.5" style="stroke:#181818;stroke-width:0.5;" width="163" x="1040.5" y="31.3789"/><text fill="#000000" font-family="sans-serif" font-size="14" lengthAdjust="spacing" textLength="149" x="1047.5" y="53.4863">organizationRepository:</text><text fill="#000000" font-family="sans-serif" font-size="14" lengthAdjust="spacing" textLength="148" x="1048" y="72.1074">OrganizationRepository</text><rect fill="#E3E3E3" height="51.2422" rx="2.5" ry="2.5" style="stroke:#181818;stroke-width:0.5;" width="163" x="1040.5" y="1483.252"/><text fill="#000000" font-family="sans-serif" font-size="14" lengthAdjust="spacing" textLength="149" x="1047.5" y="1505.3594">organizationRepository:</text><text fill="#000000" font-family="sans-serif" font-size="14" lengthAdjust="spacing" textLength="148" x="1048" y="1523.9805">OrganizationRepository</text><rect fill="#E3E3E3" height="51.2422" rx="2.5" ry="2.5" style="stroke:#181818;stroke-width:0.5;" width="98" x="1294" y="31.3789"/><text fill="#000000" font-family="sans-serif" font-size="14" lengthAdjust="spacing" textLength="77" x="1304.5" y="53.4863">organization</text><text fill="#000000" font-family="sans-serif" font-size="14" lengthAdjust="spacing" textLength="84" x="1301" y="72.1074">:Organization</text><rect fill="#E3E3E3" height="51.2422" rx="2.5" ry="2.5" style="stroke:#181818;stroke-width:0.5;" width="98" x="1294" y="1483.252"/><text fill="#000000" font-family="sans-serif" font-size="14" lengthAdjust="spacing" textLength="77" x="1304.5" y="1505.3594">organization</text><text fill="#000000" font-family="sans-serif" font-size="14" lengthAdjust="spacing" textLength="84" x="1301" y="1523.9805">:Organization</text><rect fill="#E3E3E3" height="51.2422" rx="2.5" ry="2.5" style="stroke:#181818;stroke-width:0.5;" width="43" x="1473" y="1483.252"/><text fill="#000000" font-family="sans-serif" font-size="14" lengthAdjust="spacing" textLength="23" x="1483" y="1505.3594">skill</text><text fill="#000000" font-family="sans-serif" font-size="14" lengthAdjust="spacing" textLength="29" x="1480" y="1523.9805">:Skill</text><rect fill="#E3E3E3" height="32.6211" rx="2.5" ry="2.5" style="stroke:#181818;stroke-width:0.5;" width="49" x="1526" y="50"/><text fill="#000000" font-family="sans-serif" font-size="14" lengthAdjust="spacing" textLength="35" x="1533" y="72.1074">_APP</text><rect fill="#E3E3E3" height="32.6211" rx="2.5" ry="2.5" style="stroke:#181818;stroke-width:0.5;" width="49" x="1526" y="1483.252"/><text fill="#000000" font-family="sans-serif" font-size="14" lengthAdjust="spacing" textLength="35" x="1533" y="1505.3594">_APP</text><rect fill="#E3E3E3" height="32.6211" rx="2.5" ry="2.5" style="stroke:#181818;stroke-width:0.5;" width="70" x="1585" y="50"/><text fill="#000000" font-family="sans-serif" font-size="14" lengthAdjust="spacing" textLength="56" x="1592" y="72.1074">SESSAO</text><rect fill="#E3E3E3" height="32.6211" rx="2.5" ry="2.5" style="stroke:#181818;stroke-width:0.5;" width="70" x="1585" y="1483.252"/><text fill="#000000" font-family="sans-serif" font-size="14" lengthAdjust="spacing" textLength="56" x="1592" y="1505.3594">SESSAO</text><rect fill="#FFFFFF" height="1372.6309" style="stroke:#181818;stroke-width:1.0;" width="10" x="91" y="93.6211"/><rect fill="#FFFFFF" height="231.3672" style="stroke:#181818;stroke-width:1.0;" width="10" x="324" y="116.9121"/><rect fill="#FFFFFF" height="31.291" style="stroke:#181818;stroke-width:1.0;" width="10" x="324" y="379.5703"/><rect fill="#FFFFFF" height="1024.0996" style="stroke:#181818;stroke-width:1.0;" width="10" x="324" y="442.1523"/><rect fill="#FFFFFF" height="1283.4277" style="stroke:#181818;stroke-width:1.0;" width="10" x="484" y="191.8242"/><rect fill="#FFFFFF" height="1001.8086" style="stroke:#181818;stroke-width:1.0;" width="10" x="489" y="473.4434"/><rect fill="#FFFFFF" height="922.2266" style="stroke:#181818;stroke-width:1.0;" width="10" x="494" y="512.7344"/><rect fill="#FFFFFF" height="419.7832" style="stroke:#181818;stroke-width:1.0;" width="10" x="499" y="738.4805"/><rect fill="#FFFFFF" height="31.291" style="stroke:#181818;stroke-width:1.0;" width="10" x="751" y="223.1152"/><rect fill="#FFFFFF" height="31.291" style="stroke:#181818;stroke-width:1.0;" width="10" x="751" y="549.0254"/><rect fill="#FFFFFF" height="31.291" style="stroke:#181818;stroke-width:1.0;" width="10" x="858" y="285.6973"/><rect fill="#FFFFFF" height="31.291" style="stroke:#181818;stroke-width:1.0;" width="10" x="858" y="611.6074"/><rect fill="#FFFFFF" height="31.291" style="stroke:#181818;stroke-width:1.0;" width="10" x="858" y="868.6445"/><rect fill="#FFFFFF" height="801.0625" style="stroke:#181818;stroke-width:1.0;" width="10" x="971" y="674.1895"/><rect fill="#FFFFFF" height="127.1641" style="stroke:#181818;stroke-width:1.0;" width="10" x="1117" y="931.2266"/><rect fill="#FFFFFF" height="31.291" style="stroke:#181818;stroke-width:1.0;" width="10" x="1338" y="988.8086"/><rect fill="#FFFFFF" height="31.291" style="stroke:#181818;stroke-width:1.0;" width="10" x="1338" y="1089.6816"/><rect fill="#FFFFFF" height="253.6973" style="stroke:#181818;stroke-width:1.0;" width="10" x="1338" y="1221.5547"/><rect fill="#FFFFFF" height="80.582" style="stroke:#181818;stroke-width:1.0;" width="10" x="1343" y="1323.0879"/><rect fill="#FFFFFF" height="700.4805" style="stroke:#181818;stroke-width:1.0;" width="10" x="1545.5" y="774.7715"/><rect fill="#FFFFFF" height="31.291" style="stroke:#181818;stroke-width:1.0;" width="10" x="1615" y="806.0625"/><polygon fill="#181818" points="312,112.9121,322,116.9121,312,120.9121,316,116.9121" style="stroke:#181818;stroke-width:1.0;"/><line style="stroke:#181818;stroke-width:1.0;" x1="101" x2="318" y1="116.9121" y2="116.9121"/><text fill="#000000" font-family="sans-serif" font-size="13" font-weight="bold" lengthAdjust="spacing" textLength="7" x="108" y="111.6494">1</text><text fill="#000000" font-family="sans-serif" font-size="13" lengthAdjust="spacing" textLength="124" x="119" y="111.6494">asks to register skills</text><polygon fill="#181818" points="394.5,144.2031,404.5,148.2031,394.5,152.2031,398.5,148.2031" style="stroke:#181818;stroke-width:1.0;"/><line style="stroke:#181818;stroke-width:1.0;" x1="334" x2="400.5" y1="148.2031" y2="148.2031"/><text fill="#000000" font-family="sans-serif" font-size="13" font-weight="bold" lengthAdjust="spacing" textLength="7" x="341" y="142.9404">2</text><text fill="#000000" font-family="sans-serif" font-size="13" lengthAdjust="spacing" textLength="36" x="352" y="142.9404">create</text><rect fill="#E3E3E3" height="32.6211" rx="2.5" ry="2.5" style="stroke:#181818;stroke-width:0.5;" width="165" x="406.5" y="124.9121"/><text fill="#000000" font-family="sans-serif" font-size="14" lengthAdjust="spacing" textLength="151" x="413.5" y="147.0195">:RegisterSkillsController</text><polygon fill="#181818" points="472,187.8242,482,191.8242,472,195.8242,476,191.8242" style="stroke:#181818;stroke-width:1.0;"/><line style="stroke:#181818;stroke-width:1.0;" x1="334" x2="478" y1="191.8242" y2="191.8242"/><text fill="#000000" font-family="sans-serif" font-size="13" font-weight="bold" lengthAdjust="spacing" textLength="7" x="341" y="186.5615">3</text><text fill="#000000" font-family="sans-serif" font-size="13" lengthAdjust="spacing" textLength="51" x="352" y="186.5615">getSkill()</text><polygon fill="#181818" points="739,219.1152,749,223.1152,739,227.1152,743,223.1152" style="stroke:#181818;stroke-width:1.0;"/><line style="stroke:#181818;stroke-width:1.0;" x1="494" x2="745" y1="223.1152" y2="223.1152"/><text fill="#000000" font-family="sans-serif" font-size="13" font-weight="bold" lengthAdjust="spacing" textLength="7" x="501" y="217.8525">4</text><text fill="#000000" font-family="sans-serif" font-size="13" lengthAdjust="spacing" textLength="75" x="512" y="217.8525">getInstance()</text><polygon fill="#181818" points="505,250.4063,495,254.4063,505,258.4063,501,254.4063" style="stroke:#181818;stroke-width:1.0;"/><line style="stroke:#181818;stroke-width:1.0;stroke-dasharray:2.0,2.0;" x1="499" x2="755" y1="254.4063" y2="254.4063"/><text fill="#000000" font-family="sans-serif" font-size="13" font-weight="bold" lengthAdjust="spacing" textLength="7" x="511" y="249.1436">5</text><text fill="#000000" font-family="sans-serif" font-size="13" lengthAdjust="spacing" textLength="67" x="522" y="249.1436">repositories</text><polygon fill="#181818" points="846,281.6973,856,285.6973,846,289.6973,850,285.6973" style="stroke:#181818;stroke-width:1.0;"/><line style="stroke:#181818;stroke-width:1.0;" x1="494" x2="852" y1="285.6973" y2="285.6973"/><text fill="#000000" font-family="sans-serif" font-size="13" font-weight="bold" lengthAdjust="spacing" textLength="7" x="501" y="280.4346">6</text><text fill="#000000" font-family="sans-serif" font-size="13" lengthAdjust="spacing" textLength="113" x="512" y="280.4346">getSkillRepository()</text><polygon fill="#181818" points="505,312.9883,495,316.9883,505,320.9883,501,316.9883" style="stroke:#181818;stroke-width:1.0;"/><line style="stroke:#181818;stroke-width:1.0;stroke-dasharray:2.0,2.0;" x1="499" x2="862" y1="316.9883" y2="316.9883"/><text fill="#000000" font-family="sans-serif" font-size="13" font-weight="bold" lengthAdjust="spacing" textLength="7" x="511" y="311.7256">7</text><text fill="#000000" font-family="sans-serif" font-size="13" lengthAdjust="spacing" textLength="85" x="522" y="311.7256">skillRepository</text><polygon fill="#181818" points="112,344.2793,102,348.2793,112,352.2793,108,348.2793" style="stroke:#181818;stroke-width:1.0;"/><line style="stroke:#181818;stroke-width:1.0;stroke-dasharray:2.0,2.0;" x1="106" x2="328" y1="348.2793" y2="348.2793"/><text fill="#000000" font-family="sans-serif" font-size="13" font-weight="bold" lengthAdjust="spacing" textLength="7" x="118" y="343.0166">8</text><text fill="#000000" font-family="sans-serif" font-size="13" lengthAdjust="spacing" textLength="79" x="129" y="343.0166">requests data</text><polygon fill="#181818" points="312,375.5703,322,379.5703,312,383.5703,316,379.5703" style="stroke:#181818;stroke-width:1.0;"/><line style="stroke:#181818;stroke-width:1.0;" x1="101" x2="318" y1="379.5703" y2="379.5703"/><text fill="#000000" font-family="sans-serif" font-size="13" font-weight="bold" lengthAdjust="spacing" textLength="7" x="108" y="374.3076">9</text><text fill="#000000" font-family="sans-serif" font-size="13" lengthAdjust="spacing" textLength="193" x="119" y="374.3076">types requested data (skill name)</text><polygon fill="#181818" points="112,406.8613,102,410.8613,112,414.8613,108,410.8613" style="stroke:#181818;stroke-width:1.0;"/><line style="stroke:#181818;stroke-width:1.0;stroke-dasharray:2.0,2.0;" x1="106" x2="328" y1="410.8613" y2="410.8613"/><text fill="#000000" font-family="sans-serif" font-size="13" font-weight="bold" lengthAdjust="spacing" textLength="14" x="118" y="405.5986">10</text><text fill="#000000" font-family="sans-serif" font-size="13" lengthAdjust="spacing" textLength="127" x="136" y="405.5986">shows requested data</text><polygon fill="#181818" points="312,438.1523,322,442.1523,312,446.1523,316,442.1523" style="stroke:#181818;stroke-width:1.0;"/><line style="stroke:#181818;stroke-width:1.0;" x1="101" x2="318" y1="442.1523" y2="442.1523"/><text fill="#000000" font-family="sans-serif" font-size="13" font-weight="bold" lengthAdjust="spacing" textLength="14" x="108" y="436.8896">11</text><text fill="#000000" font-family="sans-serif" font-size="13" lengthAdjust="spacing" textLength="75" x="126" y="436.8896">submits data</text><polygon fill="#181818" points="477,469.4434,487,473.4434,477,477.4434,481,473.4434" style="stroke:#181818;stroke-width:1.0;"/><line style="stroke:#181818;stroke-width:1.0;" x1="334" x2="483" y1="473.4434" y2="473.4434"/><text fill="#000000" font-family="sans-serif" font-size="13" font-weight="bold" lengthAdjust="spacing" textLength="14" x="341" y="468.1807">12</text><text fill="#000000" font-family="sans-serif" font-size="13" lengthAdjust="spacing" textLength="108" x="359" y="468.1807">registerSkill(name)</text><line style="stroke:#181818;stroke-width:1.0;" x1="499" x2="546" y1="499.7344" y2="499.7344"/><line style="stroke:#181818;stroke-width:1.0;" x1="546" x2="546" y1="499.7344" y2="512.7344"/><line style="stroke:#181818;stroke-width:1.0;" x1="505" x2="546" y1="512.7344" y2="512.7344"/><polygon fill="#181818" points="515,508.7344,505,512.7344,515,516.7344,511,512.7344" style="stroke:#181818;stroke-width:1.0;"/><text fill="#000000" font-family="sans-serif" font-size="13" font-weight="bold" lengthAdjust="spacing" textLength="14" x="511" y="494.4717">13</text><text fill="#000000" font-family="sans-serif" font-size="13" lengthAdjust="spacing" textLength="220" x="529" y="494.4717">getSkillByDescription(skillDescription)</text><polygon fill="#181818" points="739,545.0254,749,549.0254,739,553.0254,743,549.0254" style="stroke:#181818;stroke-width:1.0;"/><line style="stroke:#181818;stroke-width:1.0;" x1="504" x2="745" y1="549.0254" y2="549.0254"/><text fill="#000000" font-family="sans-serif" font-size="13" font-weight="bold" lengthAdjust="spacing" textLength="14" x="511" y="543.7627">14</text><text fill="#000000" font-family="sans-serif" font-size="13" lengthAdjust="spacing" textLength="75" x="529" y="543.7627">getInstance()</text><polygon fill="#181818" points="515,576.3164,505,580.3164,515,584.3164,511,580.3164" style="stroke:#181818;stroke-width:1.0;"/><line style="stroke:#181818;stroke-width:1.0;stroke-dasharray:2.0,2.0;" x1="509" x2="755" y1="580.3164" y2="580.3164"/><text fill="#000000" font-family="sans-serif" font-size="13" font-weight="bold" lengthAdjust="spacing" textLength="14" x="521" y="575.0537">15</text><text fill="#000000" font-family="sans-serif" font-size="13" lengthAdjust="spacing" textLength="67" x="539" y="575.0537">repositories</text><polygon fill="#181818" points="846,607.6074,856,611.6074,846,615.6074,850,611.6074" style="stroke:#181818;stroke-width:1.0;"/><line style="stroke:#181818;stroke-width:1.0;" x1="504" x2="852" y1="611.6074" y2="611.6074"/><text fill="#000000" font-family="sans-serif" font-size="13" font-weight="bold" lengthAdjust="spacing" textLength="14" x="511" y="606.3447">16</text><text fill="#000000" font-family="sans-serif" font-size="13" lengthAdjust="spacing" textLength="113" x="529" y="606.3447">getSkillRepository()</text><polygon fill="#181818" points="515,638.8984,505,642.8984,515,646.8984,511,642.8984" style="stroke:#181818;stroke-width:1.0;"/><line style="stroke:#181818;stroke-width:1.0;" x1="509" x2="862" y1="642.8984" y2="642.8984"/><text fill="#000000" font-family="sans-serif" font-size="13" font-weight="bold" lengthAdjust="spacing" textLength="14" x="521" y="637.6357">17</text><text fill="#000000" font-family="sans-serif" font-size="13" lengthAdjust="spacing" textLength="85" x="539" y="637.6357">skillRepository</text><polygon fill="#181818" points="959,670.1895,969,674.1895,959,678.1895,963,674.1895" style="stroke:#181818;stroke-width:1.0;"/><line style="stroke:#181818;stroke-width:1.0;" x1="504" x2="965" y1="674.1895" y2="674.1895"/><text fill="#000000" font-family="sans-serif" font-size="13" font-weight="bold" lengthAdjust="spacing" textLength="14" x="511" y="668.9268">18</text><text fill="#000000" font-family="sans-serif" font-size="13" lengthAdjust="spacing" textLength="220" x="529" y="668.9268">getSkillByDescription(skillDescription)</text><line style="stroke:#181818;stroke-width:1.0;" x1="504" x2="551" y1="725.4805" y2="725.4805"/><line style="stroke:#181818;stroke-width:1.0;" x1="551" x2="551" y1="725.4805" y2="738.4805"/><line style="stroke:#181818;stroke-width:1.0;" x1="510" x2="551" y1="738.4805" y2="738.4805"/><polygon fill="#181818" points="520,734.4805,510,738.4805,520,742.4805,516,738.4805" style="stroke:#181818;stroke-width:1.0;"/><text fill="#000000" font-family="sans-serif" font-size="13" font-weight="bold" lengthAdjust="spacing" textLength="14" x="516" y="720.2178">19</text><text fill="#000000" font-family="sans-serif" font-size="13" lengthAdjust="spacing" textLength="161" x="534" y="720.2178">getEmployeeFromSession()</text><polygon fill="#181818" points="1533.5,770.7715,1543.5,774.7715,1533.5,778.7715,1537.5,774.7715" style="stroke:#181818;stroke-width:1.0;"/><line style="stroke:#181818;stroke-width:1.0;" x1="509" x2="1539.5" y1="774.7715" y2="774.7715"/><text fill="#000000" font-family="sans-serif" font-size="13" font-weight="bold" lengthAdjust="spacing" textLength="14" x="516" y="769.5088">20</text><text fill="#000000" font-family="sans-serif" font-size="13" lengthAdjust="spacing" textLength="75" x="534" y="769.5088">getInstance()</text><polygon fill="#181818" points="1603,802.0625,1613,806.0625,1603,810.0625,1607,806.0625" style="stroke:#181818;stroke-width:1.0;"/><line style="stroke:#181818;stroke-width:1.0;" x1="509" x2="1609" y1="806.0625" y2="806.0625"/><text fill="#000000" font-family="sans-serif" font-size="13" font-weight="bold" lengthAdjust="spacing" textLength="14" x="516" y="800.7998">21</text><text fill="#000000" font-family="sans-serif" font-size="13" lengthAdjust="spacing" textLength="133" x="534" y="800.7998">email = getUserEmail()</text><polygon fill="#181818" points="520,833.3535,510,837.3535,520,841.3535,516,837.3535" style="stroke:#181818;stroke-width:1.0;"/><line style="stroke:#181818;stroke-width:1.0;stroke-dasharray:2.0,2.0;" x1="514" x2="1619" y1="837.3535" y2="837.3535"/><text fill="#000000" font-family="sans-serif" font-size="13" font-weight="bold" lengthAdjust="spacing" textLength="14" x="526" y="832.0908">22</text><text fill="#000000" font-family="sans-serif" font-size="13" lengthAdjust="spacing" textLength="31" x="544" y="832.0908">email</text><polygon fill="#181818" points="846,864.6445,856,868.6445,846,872.6445,850,868.6445" style="stroke:#181818;stroke-width:1.0;"/><line style="stroke:#181818;stroke-width:1.0;" x1="509" x2="852" y1="868.6445" y2="868.6445"/><text fill="#000000" font-family="sans-serif" font-size="13" font-weight="bold" lengthAdjust="spacing" textLength="14" x="516" y="863.3818">23</text><text fill="#000000" font-family="sans-serif" font-size="13" lengthAdjust="spacing" textLength="192" x="534" y="863.3818">getOrganizationRepository(email)</text><polygon fill="#181818" points="520,895.9355,510,899.9355,520,903.9355,516,899.9355" style="stroke:#181818;stroke-width:1.0;"/><line style="stroke:#181818;stroke-width:1.0;stroke-dasharray:2.0,2.0;" x1="514" x2="862" y1="899.9355" y2="899.9355"/><text fill="#000000" font-family="sans-serif" font-size="13" font-weight="bold" lengthAdjust="spacing" textLength="14" x="526" y="894.6729">24</text><text fill="#000000" font-family="sans-serif" font-size="13" lengthAdjust="spacing" textLength="132" x="544" y="894.6729">organizationRepository</text><polygon fill="#181818" points="1105,927.2266,1115,931.2266,1105,935.2266,1109,931.2266" style="stroke:#181818;stroke-width:1.0;"/><line style="stroke:#181818;stroke-width:1.0;" x1="509" x2="1111" y1="931.2266" y2="931.2266"/><text fill="#000000" font-family="sans-serif" font-size="13" font-weight="bold" lengthAdjust="spacing" textLength="14" x="516" y="925.9639">25</text><text fill="#000000" font-family="sans-serif" font-size="13" lengthAdjust="spacing" textLength="237" x="534" y="925.9639">getOrganizationByEmployeeEmail(email)</text><path d="M1030.5,946.2266 L1103.5,946.2266 L1103.5,955.5176 L1093.5,965.5176 L1030.5,965.5176 L1030.5,946.2266 " fill="#EEEEEE" style="stroke:#000000;stroke-width:1.5;"/><rect fill="none" height="81.873" style="stroke:#000000;stroke-width:1.5;" width="371.5" x="1030.5" y="946.2266"/><text fill="#000000" font-family="sans-serif" font-size="13" font-weight="bold" lengthAdjust="spacing" textLength="28" x="1045.5" y="961.2549">loop</text><text fill="#000000" font-family="sans-serif" font-size="11" font-weight="bold" lengthAdjust="spacing" textLength="128" x="1118.5" y="960.0967">[[for each organization]</text><polygon fill="#181818" points="1326,984.8086,1336,988.8086,1326,992.8086,1330,988.8086" style="stroke:#181818;stroke-width:1.0;"/><line style="stroke:#181818;stroke-width:1.0;" x1="1127" x2="1332" y1="988.8086" y2="988.8086"/><text fill="#000000" font-family="sans-serif" font-size="13" font-weight="bold" lengthAdjust="spacing" textLength="14" x="1134" y="983.5459">26</text><text fill="#000000" font-family="sans-serif" font-size="13" lengthAdjust="spacing" textLength="174" x="1152" y="983.5459">anyEmployeeHasEmail(email)</text><polygon fill="#181818" points="1138,1016.0996,1128,1020.0996,1138,1024.0996,1134,1020.0996" style="stroke:#181818;stroke-width:1.0;"/><line style="stroke:#181818;stroke-width:1.0;stroke-dasharray:2.0,2.0;" x1="1132" x2="1342" y1="1020.0996" y2="1020.0996"/><text fill="#000000" font-family="sans-serif" font-size="13" font-weight="bold" lengthAdjust="spacing" textLength="14" x="1144" y="1014.8369">27</text><text fill="#000000" font-family="sans-serif" font-size="13" lengthAdjust="spacing" textLength="53" x="1162" y="1014.8369">true/false</text><polygon fill="#181818" points="520,1054.3906,510,1058.3906,520,1062.3906,516,1058.3906" style="stroke:#181818;stroke-width:1.0;"/><line style="stroke:#181818;stroke-width:1.0;stroke-dasharray:2.0,2.0;" x1="514" x2="1121" y1="1058.3906" y2="1058.3906"/><text fill="#000000" font-family="sans-serif" font-size="13" font-weight="bold" lengthAdjust="spacing" textLength="14" x="526" y="1053.1279">28</text><text fill="#000000" font-family="sans-serif" font-size="13" lengthAdjust="spacing" textLength="70" x="544" y="1053.1279">organization</text><polygon fill="#181818" points="1326,1085.6816,1336,1089.6816,1326,1093.6816,1330,1089.6816" style="stroke:#181818;stroke-width:1.0;"/><line style="stroke:#181818;stroke-width:1.0;" x1="509" x2="1332" y1="1089.6816" y2="1089.6816"/><text fill="#000000" font-family="sans-serif" font-size="13" font-weight="bold" lengthAdjust="spacing" textLength="14" x="516" y="1084.4189">29</text><text fill="#000000" font-family="sans-serif" font-size="13" lengthAdjust="spacing" textLength="164" x="534" y="1084.4189">getEmployeeByEmail(email)</text><polygon fill="#181818" points="520,1116.9727,510,1120.9727,520,1124.9727,516,1120.9727" style="stroke:#181818;stroke-width:1.0;"/><line style="stroke:#181818;stroke-width:1.0;stroke-dasharray:2.0,2.0;" x1="514" x2="1342" y1="1120.9727" y2="1120.9727"/><text fill="#000000" font-family="sans-serif" font-size="13" font-weight="bold" lengthAdjust="spacing" textLength="14" x="526" y="1115.71">30</text><text fill="#000000" font-family="sans-serif" font-size="13" lengthAdjust="spacing" textLength="56" x="544" y="1115.71">employee</text><line style="stroke:#181818;stroke-width:1.0;stroke-dasharray:2.0,2.0;" x1="509" x2="551" y1="1157.2637" y2="1157.2637"/><line style="stroke:#181818;stroke-width:1.0;stroke-dasharray:2.0,2.0;" x1="551" x2="551" y1="1157.2637" y2="1170.2637"/><line style="stroke:#181818;stroke-width:1.0;stroke-dasharray:2.0,2.0;" x1="504" x2="551" y1="1170.2637" y2="1170.2637"/><polygon fill="#181818" points="514,1166.2637,504,1170.2637,514,1174.2637,510,1170.2637" style="stroke:#181818;stroke-width:1.0;"/><text fill="#000000" font-family="sans-serif" font-size="13" font-weight="bold" lengthAdjust="spacing" textLength="14" x="516" y="1152.001">31</text><text fill="#000000" font-family="sans-serif" font-size="13" lengthAdjust="spacing" textLength="56" x="534" y="1152.001">employee</text><polygon fill="#181818" points="1326,1217.5547,1336,1221.5547,1326,1225.5547,1330,1221.5547" style="stroke:#181818;stroke-width:1.0;"/><line style="stroke:#181818;stroke-width:1.0;" x1="504" x2="1332" y1="1221.5547" y2="1221.5547"/><text fill="#000000" font-family="sans-serif" font-size="13" font-weight="bold" lengthAdjust="spacing" textLength="14" x="511" y="1216.292">32</text><text fill="#000000" font-family="sans-serif" font-size="13" lengthAdjust="spacing" textLength="115" x="529" y="1216.292">registerSkills(name)</text><polygon fill="#181818" points="1461,1248.8457,1471,1252.8457,1461,1256.8457,1465,1252.8457" style="stroke:#181818;stroke-width:1.0;"/><line style="stroke:#181818;stroke-width:1.0;" x1="1348" x2="1467" y1="1252.8457" y2="1252.8457"/><text fill="#000000" font-family="sans-serif" font-size="13" font-weight="bold" lengthAdjust="spacing" textLength="14" x="1355" y="1247.583">33</text><text fill="#000000" font-family="sans-serif" font-size="13" lengthAdjust="spacing" textLength="83" x="1373" y="1247.583">register(name)</text><rect fill="#E3E3E3" height="51.2422" rx="2.5" ry="2.5" style="stroke:#181818;stroke-width:0.5;" width="43" x="1473" y="1229.5547"/><text fill="#000000" font-family="sans-serif" font-size="14" lengthAdjust="spacing" textLength="23" x="1483" y="1251.6621">skill</text><text fill="#000000" font-family="sans-serif" font-size="14" lengthAdjust="spacing" textLength="29" x="1480" y="1270.2832">:Skill</text><line style="stroke:#181818;stroke-width:1.0;" x1="1348" x2="1395" y1="1310.0879" y2="1310.0879"/><line style="stroke:#181818;stroke-width:1.0;" x1="1395" x2="1395" y1="1310.0879" y2="1323.0879"/><line style="stroke:#181818;stroke-width:1.0;" x1="1354" x2="1395" y1="1323.0879" y2="1323.0879"/><polygon fill="#181818" points="1364,1319.0879,1354,1323.0879,1364,1327.0879,1360,1323.0879" style="stroke:#181818;stroke-width:1.0;"/><text fill="#000000" font-family="sans-serif" font-size="13" font-weight="bold" lengthAdjust="spacing" textLength="14" x="1360" y="1304.8252">34</text><text fill="#000000" font-family="sans-serif" font-size="13" lengthAdjust="spacing" textLength="81" x="1378" y="1304.8252">addSkill (skill)</text><line style="stroke:#181818;stroke-width:1.0;" x1="1353" x2="1395" y1="1359.3789" y2="1359.3789"/><line style="stroke:#181818;stroke-width:1.0;" x1="1395" x2="1395" y1="1359.3789" y2="1372.3789"/><line style="stroke:#181818;stroke-width:1.0;" x1="1354" x2="1395" y1="1372.3789" y2="1372.3789"/><polygon fill="#181818" points="1364,1368.3789,1354,1372.3789,1364,1376.3789,1360,1372.3789" style="stroke:#181818;stroke-width:1.0;"/><text fill="#000000" font-family="sans-serif" font-size="13" font-weight="bold" lengthAdjust="spacing" textLength="14" x="1360" y="1354.1162">35</text><text fill="#000000" font-family="sans-serif" font-size="13" lengthAdjust="spacing" textLength="99" x="1378" y="1354.1162">validateSkill(skill)</text><polygon fill="#181818" points="515,1399.6699,505,1403.6699,515,1407.6699,511,1403.6699" style="stroke:#181818;stroke-width:1.0;"/><line style="stroke:#181818;stroke-width:1.0;stroke-dasharray:2.0,2.0;" x1="509" x2="1337" y1="1403.6699" y2="1403.6699"/><text fill="#000000" font-family="sans-serif" font-size="13" font-weight="bold" lengthAdjust="spacing" textLength="14" x="521" y="1398.4072">36</text><text fill="#000000" font-family="sans-serif" font-size="13" lengthAdjust="spacing" textLength="23" x="539" y="1398.4072">skill</text><polygon fill="#181818" points="345,1430.9609,335,1434.9609,345,1438.9609,341,1434.9609" style="stroke:#181818;stroke-width:1.0;"/><line style="stroke:#181818;stroke-width:1.0;stroke-dasharray:2.0,2.0;" x1="339" x2="488" y1="1434.9609" y2="1434.9609"/><text fill="#000000" font-family="sans-serif" font-size="13" font-weight="bold" lengthAdjust="spacing" textLength="14" x="351" y="1429.6982">37</text><text fill="#000000" font-family="sans-serif" font-size="13" lengthAdjust="spacing" textLength="23" x="369" y="1429.6982">skill</text><polygon fill="#181818" points="107,1462.252,97,1466.252,107,1470.252,103,1466.252" style="stroke:#181818;stroke-width:1.0;"/><line style="stroke:#181818;stroke-width:1.0;stroke-dasharray:2.0,2.0;" x1="101" x2="328" y1="1466.252" y2="1466.252"/><text fill="#000000" font-family="sans-serif" font-size="13" font-weight="bold" lengthAdjust="spacing" textLength="14" x="113" y="1460.9893">38</text><text fill="#000000" font-family="sans-serif" font-size="13" lengthAdjust="spacing" textLength="158" x="131" y="1460.9893">displays operation success</text><!--SRC=[xLTBRzim3BxhLmYzf2kMxXvW1RAsQukbM96ifnKOL5jDXDgI9odRClJ7ZvBya6pPJlQuJPSW5ldn8qLIb7fcl22Iv3WNN2GRANAAjTnIfEgTWYJFP4rNUfTHB6cY2Lzdle3Qa5HyPtoDdqYcA49agmNVvezK8ZJPi9JY9o7qe_Y1IAA5n4VNsvnmlAHAR6L25Rub72p88qmKdb_S8i3LB645uHeVpPPqpPIcSlNCiapTtrYn-vj1gNF1jHHPLeAUVrekElA5K0peCAgiJFrXjsB6G_0XL96UnWFl0jmjvfz23MMuDBYp1xuAlrYzrZSq2OdEYo9Z2T5Cy1LL2dwirfVvtLrBb1H5AG7qUjIwMibMIifretcl88gUokfojPf_33qJSaqu-sdX0mS_HZSiJdoh7nUe-2eEOtaL2J58sY0wkXzk5WjaKerz8vhQX4AuNF07JyyWU_0CP9yLrW9oscKEjbYg4QuX8DdgZsPDG7yAC0Pj1lfVjrHfXLEY2Jvcf_JKGM5ESleQfrGbaXN6XrSXJ2AfWRVPwMyO-3Fx-UG433Wnr2C20ckghV_78NxDtne8jioooW0IINo7USCL57j2Mx01TAngEj9cnQnCInTC39jYwgYdz31pbMEc8BteDBf33jagZdfWuHhAhU8UOkqm9tqyM-p20vtqCktqZQwiMMtqQPCtreLpm5h3nWAAe8lWUR67FUTHLM0Zy1wqJT0MNb1ZQYE-gxAgaX8HPm3vm37XQLtBYcPmGs71QGFcsO52BgtuZS0fAKnQ1fnaj0lqDm3KDOdQ1lMkW5klLADfsJYQdk7ISzomYqg8iuzzjNtCcS-trrITAjA_NeyRaYDzfahnLgDwjxjecg9p_AAlI_xlOl-WYuKju90kTdWJE-Im1nlSd_MtmtfRp5BTtSRXsxqjSFBbvMMaI2xp8XCxIj_3G5wEOhztjvifSUygi2DbnslZbzd1TPetSsP7Uk8vRk6wr2OLjuhQUJ20TWbE6eOM4SSeMe8rmt2c7MGPXQoJsew-CqnpmZByrh0rq_6b-JiKoN9aZXQWs_F8Ml2XmglG1bk43MLyn3ws5lx6p1CV-yURHY_pEE6EB-zsLKMuq8yvrFFKYBgO2L7Wpq_mBWNMcy35gBnPSNphqFBAF2ruJVYQg47ENUxmnEcLSjR1nhGtU6Q-W1Vy6_SOxyFmZiWOZ8bGdg93d6yws60CVSjx7bETBSkhe3sQjDWh7Vf2MaMov4rBN3GIBJHsCqI1VkjEi2u7mvTgJL_Zdbelpzp3-EIaWOi0UUBMCabJQxISJbz5IdaqZtoyRoHZC7LIDqPMc2F7OiKGslT0l4T8fJjq3F4tnmodJ1KPsIai2YfjYiBSd2HmfSH6RFz6kRX5lm00]--></g></svg>