<?xml version="1.0" encoding="us-ascii" standalone="no"?><svg xmlns="http://www.w3.org/2000/svg" xmlns:xlink="http://www.w3.org/1999/xlink" contentStyleType="text/css" height="1028px" preserveAspectRatio="none" style="width:1119px;height:1028px;background:#FFFFFF;" version="1.1" viewBox="0 0 1119 1028" width="1119px" zoomAndPan="magnify"><defs/><g><!--class HRM--><g id="elem_HRM"><rect codeLine="22" fill="#F1F1F1" height="141.1055" id="HRM" rx="2.5" ry="2.5" style="stroke:#181818;stroke-width:0.5;" width="66" x="701.5" y="880.7627"/><ellipse cx="718.3" cy="896.7627" fill="#ADD1B2" rx="11" ry="11" style="stroke:#181818;stroke-width:1.0;"/><path d="M721.0656,892.6377 Q721.2219,892.4189 721.4094,892.3096 Q721.5969,892.2002 721.8156,892.2002 Q722.1906,892.2002 722.425,892.4658 Q722.6594,892.7158 722.6594,893.3252 L722.6594,894.7783 Q722.6594,895.3877 722.425,895.6533 Q722.1906,895.9189 721.8156,895.9189 Q721.4719,895.9189 721.2688,895.7158 Q721.0656,895.5283 720.9563,895.0127 Q720.9094,894.6533 720.7219,894.4658 Q720.3938,894.0908 719.7844,893.8721 Q719.175,893.6533 718.55,893.6533 Q717.7844,893.6533 717.1438,893.9814 Q716.5188,894.3096 716.0188,895.0596 Q715.5344,895.8096 715.5344,896.8408 L715.5344,897.9346 Q715.5344,899.1689 716.425,899.9971 Q717.3156,900.8096 718.9094,900.8096 Q719.8469,900.8096 720.5031,900.5596 Q720.8938,900.4033 721.3156,899.9658 Q721.5813,899.7002 721.7219,899.6221 Q721.8781,899.5439 722.0813,899.5439 Q722.4094,899.5439 722.6594,899.8096 Q722.925,900.0596 722.925,900.4033 Q722.925,900.7471 722.5813,901.1533 Q722.0813,901.7314 721.2844,902.0596 Q720.2063,902.5127 718.9094,902.5127 Q717.3938,902.5127 716.1906,901.8877 Q715.2063,901.3877 714.5188,900.3252 Q713.8313,899.2471 713.8313,897.9658 L713.8313,896.8096 Q713.8313,895.4814 714.4406,894.3408 Q715.0656,893.1846 716.1594,892.5752 Q717.2531,891.9502 718.4875,891.9502 Q719.2219,891.9502 719.8625,892.1221 Q720.5188,892.2783 721.0656,892.6377 Z " fill="#000000"/><text fill="#000000" font-family="sans-serif" font-size="14" lengthAdjust="spacing" textLength="30" x="732.7" y="902.5596">HRM</text><line style="stroke:#181818;stroke-width:0.5;" x1="702.5" x2="766.5" y1="912.7627" y2="912.7627"/><text fill="#000000" font-family="sans-serif" font-size="14" lengthAdjust="spacing" textLength="40" x="707.5" y="931.8701">-name</text><text fill="#000000" font-family="sans-serif" font-size="14" lengthAdjust="spacing" textLength="38" x="707.5" y="950.4912">-email</text><text fill="#000000" font-family="sans-serif" font-size="14" lengthAdjust="spacing" textLength="54" x="707.5" y="969.1123">-position</text><text fill="#000000" font-family="sans-serif" font-size="14" lengthAdjust="spacing" textLength="45" x="707.5" y="987.7334">-phone</text><text fill="#000000" font-family="sans-serif" font-size="14" lengthAdjust="spacing" textLength="18" x="707.5" y="1006.3545">-ID</text><line style="stroke:#181818;stroke-width:0.5;" x1="702.5" x2="766.5" y1="1013.8682" y2="1013.8682"/></g><!--class Skill--><g id="elem_Skill"><rect codeLine="30" fill="#F1F1F1" height="85.2422" id="Skill" rx="2.5" ry="2.5" style="stroke:#181818;stroke-width:0.5;" width="117" x="562" y="716.7627"/><ellipse cx="604" cy="732.7627" fill="#ADD1B2" rx="11" ry="11" style="stroke:#181818;stroke-width:1.0;"/><path d="M606.7656,728.6377 Q606.9219,728.4189 607.1094,728.3096 Q607.2969,728.2002 607.5156,728.2002 Q607.8906,728.2002 608.125,728.4658 Q608.3594,728.7158 608.3594,729.3252 L608.3594,730.7783 Q608.3594,731.3877 608.125,731.6533 Q607.8906,731.9189 607.5156,731.9189 Q607.1719,731.9189 606.9688,731.7158 Q606.7656,731.5283 606.6563,731.0127 Q606.6094,730.6533 606.4219,730.4658 Q606.0938,730.0908 605.4844,729.8721 Q604.875,729.6533 604.25,729.6533 Q603.4844,729.6533 602.8438,729.9814 Q602.2188,730.3096 601.7188,731.0596 Q601.2344,731.8096 601.2344,732.8408 L601.2344,733.9346 Q601.2344,735.1689 602.125,735.9971 Q603.0156,736.8096 604.6094,736.8096 Q605.5469,736.8096 606.2031,736.5596 Q606.5938,736.4033 607.0156,735.9658 Q607.2813,735.7002 607.4219,735.6221 Q607.5781,735.5439 607.7813,735.5439 Q608.1094,735.5439 608.3594,735.8096 Q608.625,736.0596 608.625,736.4033 Q608.625,736.7471 608.2813,737.1533 Q607.7813,737.7314 606.9844,738.0596 Q605.9063,738.5127 604.6094,738.5127 Q603.0938,738.5127 601.8906,737.8877 Q600.9063,737.3877 600.2188,736.3252 Q599.5313,735.2471 599.5313,733.9658 L599.5313,732.8096 Q599.5313,731.4814 600.1406,730.3408 Q600.7656,729.1846 601.8594,728.5752 Q602.9531,727.9502 604.1875,727.9502 Q604.9219,727.9502 605.5625,728.1221 Q606.2188,728.2783 606.7656,728.6377 Z " fill="#000000"/><text fill="#000000" font-family="sans-serif" font-size="14" lengthAdjust="spacing" textLength="25" x="624" y="738.5596">Skill</text><line style="stroke:#181818;stroke-width:0.5;" x1="563" x2="678" y1="748.7627" y2="748.7627"/><text fill="#000000" font-family="sans-serif" font-size="14" lengthAdjust="spacing" textLength="81" x="568" y="767.8701">-String name</text><line style="stroke:#181818;stroke-width:0.5;" x1="563" x2="678" y1="775.3838" y2="775.3838"/><text fill="#000000" font-family="sans-serif" font-size="14" lengthAdjust="spacing" textLength="105" x="568" y="794.4912">+Skill(skill name)</text></g><!--class Organization--><g id="elem_Organization"><rect codeLine="37" fill="#F1F1F1" height="252.832" id="Organization" rx="2.5" ry="2.5" style="stroke:#181818;stroke-width:0.5;" width="529" x="583" y="384.7627"/><ellipse cx="803.25" cy="400.7627" fill="#ADD1B2" rx="11" ry="11" style="stroke:#181818;stroke-width:1.0;"/><path d="M806.0156,396.6377 Q806.1719,396.4189 806.3594,396.3096 Q806.5469,396.2002 806.7656,396.2002 Q807.1406,396.2002 807.375,396.4658 Q807.6094,396.7158 807.6094,397.3252 L807.6094,398.7783 Q807.6094,399.3877 807.375,399.6533 Q807.1406,399.9189 806.7656,399.9189 Q806.4219,399.9189 806.2188,399.7158 Q806.0156,399.5283 805.9063,399.0127 Q805.8594,398.6533 805.6719,398.4658 Q805.3438,398.0908 804.7344,397.8721 Q804.125,397.6533 803.5,397.6533 Q802.7344,397.6533 802.0938,397.9814 Q801.4688,398.3096 800.9688,399.0596 Q800.4844,399.8096 800.4844,400.8408 L800.4844,401.9346 Q800.4844,403.1689 801.375,403.9971 Q802.2656,404.8096 803.8594,404.8096 Q804.7969,404.8096 805.4531,404.5596 Q805.8438,404.4033 806.2656,403.9658 Q806.5313,403.7002 806.6719,403.6221 Q806.8281,403.5439 807.0313,403.5439 Q807.3594,403.5439 807.6094,403.8096 Q807.875,404.0596 807.875,404.4033 Q807.875,404.7471 807.5313,405.1533 Q807.0313,405.7314 806.2344,406.0596 Q805.1563,406.5127 803.8594,406.5127 Q802.3438,406.5127 801.1406,405.8877 Q800.1563,405.3877 799.4688,404.3252 Q798.7813,403.2471 798.7813,401.9658 L798.7813,400.8096 Q798.7813,399.4814 799.3906,398.3408 Q800.0156,397.1846 801.1094,396.5752 Q802.2031,395.9502 803.4375,395.9502 Q804.1719,395.9502 804.8125,396.1221 Q805.4688,396.2783 806.0156,396.6377 Z " fill="#000000"/><text fill="#000000" font-family="sans-serif" font-size="14" lengthAdjust="spacing" textLength="80" x="823.75" y="406.5596">Organization</text><line style="stroke:#181818;stroke-width:0.5;" x1="584" x2="1111" y1="416.7627" y2="416.7627"/><text fill="#000000" font-family="sans-serif" font-size="14" lengthAdjust="spacing" textLength="81" x="589" y="435.8701">-String name</text><text fill="#000000" font-family="sans-serif" font-size="14" lengthAdjust="spacing" textLength="114" x="589" y="454.4912">-String vatNumber</text><text fill="#000000" font-family="sans-serif" font-size="14" lengthAdjust="spacing" textLength="93" x="589" y="473.1123">-String website</text><text fill="#000000" font-family="sans-serif" font-size="14" lengthAdjust="spacing" textLength="86" x="589" y="491.7334">-String phone</text><text fill="#000000" font-family="sans-serif" font-size="14" lengthAdjust="spacing" textLength="79" x="589" y="510.3545">-String email</text><line style="stroke:#181818;stroke-width:0.5;" x1="584" x2="1111" y1="517.8682" y2="517.8682"/><text fill="#000000" font-family="sans-serif" font-size="14" lengthAdjust="spacing" textLength="87" x="589" y="536.9756">-addSkill(skill)</text><text fill="#000000" font-family="sans-serif" font-size="14" lengthAdjust="spacing" textLength="112" x="589" y="555.5967">-validateSkill(skill)</text><text fill="#000000" font-family="sans-serif" font-size="14" lengthAdjust="spacing" textLength="194" x="589" y="574.2178">+anyEmployeeHasEmail(email)</text><text fill="#000000" font-family="sans-serif" font-size="14" lengthAdjust="spacing" textLength="517" x="589" y="592.8389">+Organization(name, vatNumber, webSite, phone, email, postalAddress, manager)</text><text fill="#000000" font-family="sans-serif" font-size="14" lengthAdjust="spacing" textLength="126" x="589" y="611.46">+registerSkill(name)</text><text fill="#000000" font-family="sans-serif" font-size="14" lengthAdjust="spacing" textLength="180" x="589" y="630.0811">-getEmployeeByEmail(email)</text></g><!--class SkillRepository--><g id="elem_SkillRepository"><rect codeLine="54" fill="#F1F1F1" height="66.6211" id="SkillRepository" rx="2.5" ry="2.5" style="stroke:#181818;stroke-width:0.5;" width="231" x="315" y="256.7627"/><ellipse cx="379.75" cy="272.7627" fill="#ADD1B2" rx="11" ry="11" style="stroke:#181818;stroke-width:1.0;"/><path d="M382.5156,268.6377 Q382.6719,268.4189 382.8594,268.3096 Q383.0469,268.2002 383.2656,268.2002 Q383.6406,268.2002 383.875,268.4658 Q384.1094,268.7158 384.1094,269.3252 L384.1094,270.7783 Q384.1094,271.3877 383.875,271.6533 Q383.6406,271.9189 383.2656,271.9189 Q382.9219,271.9189 382.7188,271.7158 Q382.5156,271.5283 382.4063,271.0127 Q382.3594,270.6533 382.1719,270.4658 Q381.8438,270.0908 381.2344,269.8721 Q380.625,269.6533 380,269.6533 Q379.2344,269.6533 378.5938,269.9814 Q377.9688,270.3096 377.4688,271.0596 Q376.9844,271.8096 376.9844,272.8408 L376.9844,273.9346 Q376.9844,275.1689 377.875,275.9971 Q378.7656,276.8096 380.3594,276.8096 Q381.2969,276.8096 381.9531,276.5596 Q382.3438,276.4033 382.7656,275.9658 Q383.0313,275.7002 383.1719,275.6221 Q383.3281,275.5439 383.5313,275.5439 Q383.8594,275.5439 384.1094,275.8096 Q384.375,276.0596 384.375,276.4033 Q384.375,276.7471 384.0313,277.1533 Q383.5313,277.7314 382.7344,278.0596 Q381.6563,278.5127 380.3594,278.5127 Q378.8438,278.5127 377.6406,277.8877 Q376.6563,277.3877 375.9688,276.3252 Q375.2813,275.2471 375.2813,273.9658 L375.2813,272.8096 Q375.2813,271.4814 375.8906,270.3408 Q376.5156,269.1846 377.6094,268.5752 Q378.7031,267.9502 379.9375,267.9502 Q380.6719,267.9502 381.3125,268.1221 Q381.9688,268.2783 382.5156,268.6377 Z " fill="#000000"/><text fill="#000000" font-family="sans-serif" font-size="14" lengthAdjust="spacing" textLength="93" x="400.25" y="278.5596">SkillRepository</text><line style="stroke:#181818;stroke-width:0.5;" x1="316" x2="545" y1="288.7627" y2="288.7627"/><line style="stroke:#181818;stroke-width:0.5;" x1="316" x2="545" y1="296.7627" y2="296.7627"/><text fill="#000000" font-family="sans-serif" font-size="14" lengthAdjust="spacing" textLength="219" x="321" y="315.8701">+getSkillByDescription(description)</text></g><!--class OrganizationRepository--><g id="elem_OrganizationRepository"><rect codeLine="58" fill="#F1F1F1" height="66.6211" id="OrganizationRepository" rx="2.5" ry="2.5" style="stroke:#181818;stroke-width:0.5;" width="275" x="724" y="256.7627"/><ellipse cx="783.25" cy="272.7627" fill="#ADD1B2" rx="11" ry="11" style="stroke:#181818;stroke-width:1.0;"/><path d="M786.0156,268.6377 Q786.1719,268.4189 786.3594,268.3096 Q786.5469,268.2002 786.7656,268.2002 Q787.1406,268.2002 787.375,268.4658 Q787.6094,268.7158 787.6094,269.3252 L787.6094,270.7783 Q787.6094,271.3877 787.375,271.6533 Q787.1406,271.9189 786.7656,271.9189 Q786.4219,271.9189 786.2188,271.7158 Q786.0156,271.5283 785.9063,271.0127 Q785.8594,270.6533 785.6719,270.4658 Q785.3438,270.0908 784.7344,269.8721 Q784.125,269.6533 783.5,269.6533 Q782.7344,269.6533 782.0938,269.9814 Q781.4688,270.3096 780.9688,271.0596 Q780.4844,271.8096 780.4844,272.8408 L780.4844,273.9346 Q780.4844,275.1689 781.375,275.9971 Q782.2656,276.8096 783.8594,276.8096 Q784.7969,276.8096 785.4531,276.5596 Q785.8438,276.4033 786.2656,275.9658 Q786.5313,275.7002 786.6719,275.6221 Q786.8281,275.5439 787.0313,275.5439 Q787.3594,275.5439 787.6094,275.8096 Q787.875,276.0596 787.875,276.4033 Q787.875,276.7471 787.5313,277.1533 Q787.0313,277.7314 786.2344,278.0596 Q785.1563,278.5127 783.8594,278.5127 Q782.3438,278.5127 781.1406,277.8877 Q780.1563,277.3877 779.4688,276.3252 Q778.7813,275.2471 778.7813,273.9658 L778.7813,272.8096 Q778.7813,271.4814 779.3906,270.3408 Q780.0156,269.1846 781.1094,268.5752 Q782.2031,267.9502 783.4375,267.9502 Q784.1719,267.9502 784.8125,268.1221 Q785.4688,268.2783 786.0156,268.6377 Z " fill="#000000"/><text fill="#000000" font-family="sans-serif" font-size="14" lengthAdjust="spacing" textLength="148" x="803.75" y="278.5596">OrganizationRepository</text><line style="stroke:#181818;stroke-width:0.5;" x1="725" x2="998" y1="288.7627" y2="288.7627"/><line style="stroke:#181818;stroke-width:0.5;" x1="725" x2="998" y1="296.7627" y2="296.7627"/><text fill="#000000" font-family="sans-serif" font-size="14" lengthAdjust="spacing" textLength="263" x="730" y="315.8701">+getOrganizationByEmployeeEmail(email)</text></g><!--class Repositories--><g id="elem_Repositories"><rect codeLine="62" fill="#F1F1F1" height="122.4844" id="Repositories" rx="2.5" ry="2.5" style="stroke:#181818;stroke-width:0.5;" width="198" x="816.5" y="55.7627"/><ellipse cx="871.75" cy="71.7627" fill="#ADD1B2" rx="11" ry="11" style="stroke:#181818;stroke-width:1.0;"/><path d="M874.5156,67.6377 Q874.6719,67.4189 874.8594,67.3096 Q875.0469,67.2002 875.2656,67.2002 Q875.6406,67.2002 875.875,67.4658 Q876.1094,67.7158 876.1094,68.3252 L876.1094,69.7783 Q876.1094,70.3877 875.875,70.6533 Q875.6406,70.9189 875.2656,70.9189 Q874.9219,70.9189 874.7188,70.7158 Q874.5156,70.5283 874.4063,70.0127 Q874.3594,69.6533 874.1719,69.4658 Q873.8438,69.0908 873.2344,68.8721 Q872.625,68.6533 872,68.6533 Q871.2344,68.6533 870.5938,68.9814 Q869.9688,69.3096 869.4688,70.0596 Q868.9844,70.8096 868.9844,71.8408 L868.9844,72.9346 Q868.9844,74.1689 869.875,74.9971 Q870.7656,75.8096 872.3594,75.8096 Q873.2969,75.8096 873.9531,75.5596 Q874.3438,75.4033 874.7656,74.9658 Q875.0313,74.7002 875.1719,74.6221 Q875.3281,74.5439 875.5313,74.5439 Q875.8594,74.5439 876.1094,74.8096 Q876.375,75.0596 876.375,75.4033 Q876.375,75.7471 876.0313,76.1533 Q875.5313,76.7314 874.7344,77.0596 Q873.6563,77.5127 872.3594,77.5127 Q870.8438,77.5127 869.6406,76.8877 Q868.6563,76.3877 867.9688,75.3252 Q867.2813,74.2471 867.2813,72.9658 L867.2813,71.8096 Q867.2813,70.4814 867.8906,69.3408 Q868.5156,68.1846 869.6094,67.5752 Q870.7031,66.9502 871.9375,66.9502 Q872.6719,66.9502 873.3125,67.1221 Q873.9688,67.2783 874.5156,67.6377 Z " fill="#000000"/><text fill="#000000" font-family="sans-serif" font-size="14" lengthAdjust="spacing" textLength="79" x="892.25" y="77.5596">Repositories</text><line style="stroke:#181818;stroke-width:0.5;" x1="817.5" x2="1013.5" y1="87.7627" y2="87.7627"/><line style="stroke:#181818;stroke-width:0.5;" x1="817.5" x2="1013.5" y1="95.7627" y2="95.7627"/><text fill="#000000" font-family="sans-serif" font-size="14" lengthAdjust="spacing" textLength="94" x="822.5" y="114.8701">-Repositories()</text><text fill="#000000" font-family="sans-serif" font-size="14" lengthAdjust="spacing" textLength="182" x="822.5" y="133.4912">+getInstance() : Repositories</text><text fill="#000000" font-family="sans-serif" font-size="14" lengthAdjust="spacing" textLength="131" x="822.5" y="152.1123">+getSkillRepository()</text><text fill="#000000" font-family="sans-serif" font-size="14" lengthAdjust="spacing" textLength="186" x="822.5" y="170.7334">+getOrganizationRepository()</text></g><!--class RegisterSkillsController--><g id="elem_RegisterSkillsController"><rect codeLine="69" fill="#F1F1F1" height="103.8633" id="RegisterSkillsController" rx="2.5" ry="2.5" style="stroke:#181818;stroke-width:0.5;" width="421" x="171" y="64.7627"/><ellipse cx="303.75" cy="80.7627" fill="#ADD1B2" rx="11" ry="11" style="stroke:#181818;stroke-width:1.0;"/><path d="M306.5156,76.6377 Q306.6719,76.4189 306.8594,76.3096 Q307.0469,76.2002 307.2656,76.2002 Q307.6406,76.2002 307.875,76.4658 Q308.1094,76.7158 308.1094,77.3252 L308.1094,78.7783 Q308.1094,79.3877 307.875,79.6533 Q307.6406,79.9189 307.2656,79.9189 Q306.9219,79.9189 306.7188,79.7158 Q306.5156,79.5283 306.4063,79.0127 Q306.3594,78.6533 306.1719,78.4658 Q305.8438,78.0908 305.2344,77.8721 Q304.625,77.6533 304,77.6533 Q303.2344,77.6533 302.5938,77.9814 Q301.9688,78.3096 301.4688,79.0596 Q300.9844,79.8096 300.9844,80.8408 L300.9844,81.9346 Q300.9844,83.1689 301.875,83.9971 Q302.7656,84.8096 304.3594,84.8096 Q305.2969,84.8096 305.9531,84.5596 Q306.3438,84.4033 306.7656,83.9658 Q307.0313,83.7002 307.1719,83.6221 Q307.3281,83.5439 307.5313,83.5439 Q307.8594,83.5439 308.1094,83.8096 Q308.375,84.0596 308.375,84.4033 Q308.375,84.7471 308.0313,85.1533 Q307.5313,85.7314 306.7344,86.0596 Q305.6563,86.5127 304.3594,86.5127 Q302.8438,86.5127 301.6406,85.8877 Q300.6563,85.3877 299.9688,84.3252 Q299.2813,83.2471 299.2813,81.9658 L299.2813,80.8096 Q299.2813,79.4814 299.8906,78.3408 Q300.5156,77.1846 301.6094,76.5752 Q302.7031,75.9502 303.9375,75.9502 Q304.6719,75.9502 305.3125,76.1221 Q305.9688,76.2783 306.5156,76.6377 Z " fill="#000000"/><text fill="#000000" font-family="sans-serif" font-size="14" lengthAdjust="spacing" textLength="147" x="324.25" y="86.5596">RegisterSkillsController</text><line style="stroke:#181818;stroke-width:0.5;" x1="172" x2="591" y1="96.7627" y2="96.7627"/><line style="stroke:#181818;stroke-width:0.5;" x1="172" x2="591" y1="104.7627" y2="104.7627"/><text fill="#000000" font-family="sans-serif" font-size="14" lengthAdjust="spacing" textLength="409" x="177" y="123.8701">+RegisterSkillsController(organizationRepository, skillRepository)</text><text fill="#000000" font-family="sans-serif" font-size="14" lengthAdjust="spacing" textLength="126" x="177" y="142.4912">+registerSkill(name)</text><text fill="#000000" font-family="sans-serif" font-size="14" lengthAdjust="spacing" textLength="180" x="177" y="161.1123">-getEmployeeFromSession()</text></g><g id="elem_GMN9"><path d="M627.5,94.2627 L627.5,138.8447 L781.5,138.8447 L781.5,104.2627 L771.5,94.2627 L627.5,94.2627 " fill="#FEFFDD" style="stroke:#181818;stroke-width:0.5;"/><path d="M771.5,94.2627 L771.5,104.2627 L781.5,104.2627 L771.5,94.2627 " fill="#FEFFDD" style="stroke:#181818;stroke-width:1.0;"/><text fill="#000000" font-family="sans-serif" font-size="13" lengthAdjust="spacing" textLength="133" x="633.5" y="113.291">- userEmail is obtained</text><text fill="#000000" font-family="sans-serif" font-size="13" lengthAdjust="spacing" textLength="125" x="633.5" y="130.582">from the user session</text></g><g id="elem_GMN12"><path d="M315,488.7627 L315,533.3447 A0,0 0 0 0 315,533.3447 L452,533.3447 A0,0 0 0 0 452,533.3447 L452,498.7627 L442,488.7627 L392.16,488.7627 L423.46,324.0527 L384.16,488.7627 L315,488.7627 A0,0 0 0 0 315,488.7627 " fill="#FEFFDD" style="stroke:#181818;stroke-width:0.5;"/><path d="M442,488.7627 L442,498.7627 L452,498.7627 L442,488.7627 " fill="#FEFFDD" style="stroke:#181818;stroke-width:0.5;"/><text fill="#000000" font-family="sans-serif" font-size="13" lengthAdjust="spacing" textLength="116" x="321" y="507.791">- used for displaying</text><text fill="#000000" font-family="sans-serif" font-size="13" lengthAdjust="spacing" textLength="73" x="321" y="525.082">the skills list</text></g><!--class RegisterSkillsUI--><g id="elem_RegisterSkillsUI"><rect codeLine="87" fill="#F1F1F1" height="48" id="RegisterSkillsUI" rx="2.5" ry="2.5" style="stroke:#181818;stroke-width:0.5;" width="129" x="7" y="92.7627"/><ellipse cx="22" cy="108.7627" fill="#ADD1B2" rx="11" ry="11" style="stroke:#181818;stroke-width:1.0;"/><path d="M24.7656,104.6377 Q24.9219,104.4189 25.1094,104.3096 Q25.2969,104.2002 25.5156,104.2002 Q25.8906,104.2002 26.125,104.4658 Q26.3594,104.7158 26.3594,105.3252 L26.3594,106.7783 Q26.3594,107.3877 26.125,107.6533 Q25.8906,107.9189 25.5156,107.9189 Q25.1719,107.9189 24.9688,107.7158 Q24.7656,107.5283 24.6563,107.0127 Q24.6094,106.6533 24.4219,106.4658 Q24.0938,106.0908 23.4844,105.8721 Q22.875,105.6533 22.25,105.6533 Q21.4844,105.6533 20.8438,105.9814 Q20.2188,106.3096 19.7188,107.0596 Q19.2344,107.8096 19.2344,108.8408 L19.2344,109.9346 Q19.2344,111.1689 20.125,111.9971 Q21.0156,112.8096 22.6094,112.8096 Q23.5469,112.8096 24.2031,112.5596 Q24.5938,112.4033 25.0156,111.9658 Q25.2813,111.7002 25.4219,111.6221 Q25.5781,111.5439 25.7813,111.5439 Q26.1094,111.5439 26.3594,111.8096 Q26.625,112.0596 26.625,112.4033 Q26.625,112.7471 26.2813,113.1533 Q25.7813,113.7314 24.9844,114.0596 Q23.9063,114.5127 22.6094,114.5127 Q21.0938,114.5127 19.8906,113.8877 Q18.9063,113.3877 18.2188,112.3252 Q17.5313,111.2471 17.5313,109.9658 L17.5313,108.8096 Q17.5313,107.4814 18.1406,106.3408 Q18.7656,105.1846 19.8594,104.5752 Q20.9531,103.9502 22.1875,103.9502 Q22.9219,103.9502 23.5625,104.1221 Q24.2188,104.2783 24.7656,104.6377 Z " fill="#000000"/><text fill="#000000" font-family="sans-serif" font-size="14" lengthAdjust="spacing" textLength="97" x="36" y="114.5596">RegisterSkillsUI</text><line style="stroke:#181818;stroke-width:0.5;" x1="8" x2="135" y1="124.7627" y2="124.7627"/><line style="stroke:#181818;stroke-width:0.5;" x1="8" x2="135" y1="132.7627" y2="132.7627"/></g><!--link RegisterSkillsController to GMN9--><g id="link_RegisterSkillsController_GMN9"><path d="M592.21,116.7627 C595.15,116.7627 596.83,116.7627 596.83,116.7627 C596.83,116.7627 610.14,116.7627 627.4,116.7627 " fill="none" id="RegisterSkillsController-GMN9" style="stroke:#181818;stroke-width:1.0;stroke-dasharray:7.0,7.0;"/></g><!--link Repositories to Repositories--><g id="link_Repositories_Repositories"><path codeLine="90" d="M1014.55,98.7027 C1034.9,100.6327 1049.5,106.6527 1049.5,116.7627 C1049.5,126.8727 1040.8732,132.3262 1020.5232,134.2562 " fill="none" id="Repositories-to-Repositories" style="stroke:#181818;stroke-width:1.0;"/><polygon fill="#181818" points="1014.55,134.8227,1023.8875,137.9551,1019.5277,134.3506,1023.1321,129.9908,1014.55,134.8227" style="stroke:#181818;stroke-width:1.0;"/><text fill="#000000" font-family="sans-serif" font-size="13" lengthAdjust="spacing" textLength="49" x="1055.5" y="122.291">instance</text></g><!--link RegisterSkillsUI to RegisterSkillsController--><g id="link_RegisterSkillsUI_RegisterSkillsController"><path codeLine="93" d="M136.06,116.7627 C151.07,116.7627 158.54,116.7627 164.92,116.7627 " fill="none" id="RegisterSkillsUI-to-RegisterSkillsController" style="stroke:#181818;stroke-width:1.0;stroke-dasharray:7.0,7.0;"/><polygon fill="#181818" points="170.92,116.7627,161.92,112.7627,165.92,116.7627,161.92,120.7627,170.92,116.7627" style="stroke:#181818;stroke-width:1.0;"/></g><!--link RegisterSkillsController to Repositories--><g id="link_RegisterSkillsController_Repositories"><path codeLine="95" d="M541.36,64.6727 C607.92,42.9927 670,22.7627 670,22.7627 C670,22.7627 739,22.7627 739,22.7627 C739,22.7627 770.8842,39.7424 811.1242,61.1724 " fill="none" id="RegisterSkillsController-to-Repositories" style="stroke:#181818;stroke-width:1.0;stroke-dasharray:7.0,7.0;"/><polygon fill="#181818" points="816.42,63.9927,810.3565,56.2317,812.0068,61.6424,806.596,63.2928,816.42,63.9927" style="stroke:#181818;stroke-width:1.0;"/><text fill="#000000" font-family="sans-serif" font-size="13" lengthAdjust="spacing" textLength="67" x="671" y="21.791">repositories</text></g><!--link Repositories to SkillRepository--><g id="link_Repositories_SkillRepository"><path codeLine="97" d="M869.08,178.0027 C849.65,203.2127 831.5,226.7627 831.5,226.7627 C831.5,226.7627 573.5,256.7627 573.5,256.7627 C573.5,256.7627 568.2012,257.9745 552.1212,261.6245 " fill="none" id="Repositories-to-SkillRepository" style="stroke:#181818;stroke-width:1.0;"/><polygon fill="#181818" points="546.27,262.9527,555.9322,264.8612,551.146,261.8459,554.1613,257.0597,546.27,262.9527" style="stroke:#181818;stroke-width:1.0;"/><text fill="#000000" font-family="sans-serif" font-size="13" lengthAdjust="spacing" textLength="7" x="553.9107" y="257.7084">1</text></g><!--link RegisterSkillsController to Skill--><g id="link_RegisterSkillsController_Skill"><path codeLine="99" d="M350.46,169.1227 C326.53,208.7227 297.5,256.7627 297.5,256.7627 C297.5,256.7627 297.5,637.7627 297.5,637.7627 C297.5,637.7627 462.8486,699.4452 556.0086,734.2052 " fill="none" id="RegisterSkillsController-to-Skill" style="stroke:#181818;stroke-width:1.0;stroke-dasharray:7.0,7.0;"/><polygon fill="#181818" points="561.63,736.3027,554.5962,729.4088,556.9455,734.5548,551.7995,736.9041,561.63,736.3027" style="stroke:#181818;stroke-width:1.0;"/></g><!--link RegisterSkillsController to OrganizationRepository--><g id="link_RegisterSkillsController_OrganizationRepository"><path codeLine="100" d="M529.54,168.8127 C588.45,189.1227 642.5,207.7627 642.5,207.7627 C642.5,207.7627 707.3767,231.9101 768.3767,254.6101 " fill="none" id="RegisterSkillsController-to-OrganizationRepository" style="stroke:#181818;stroke-width:1.0;stroke-dasharray:7.0,7.0;"/><polygon fill="#181818" points="774,256.7027,766.9602,249.815,769.3139,254.9589,764.17,257.3127,774,256.7027" style="stroke:#181818;stroke-width:1.0;"/><text fill="#000000" font-family="sans-serif" font-size="13" lengthAdjust="spacing" textLength="132" x="690.5" y="222.791">organizationRepository</text></g><!--link RegisterSkillsController to SkillRepository--><g id="link_RegisterSkillsController_SkillRepository"><path codeLine="101" d="M396.2,169.2227 C404.32,197.6327 412.5126,226.2933 419.5626,250.9833 " fill="none" id="RegisterSkillsController-to-SkillRepository" style="stroke:#181818;stroke-width:1.0;stroke-dasharray:7.0,7.0;"/><polygon fill="#181818" points="421.21,256.7527,422.5852,247.0003,419.8372,251.9449,414.8926,249.1969,421.21,256.7527" style="stroke:#181818;stroke-width:1.0;"/><text fill="#000000" font-family="sans-serif" font-size="13" lengthAdjust="spacing" textLength="87" x="412.5" y="222.791">SkillRepository</text></g><!--link Repositories to OrganizationRepository--><g id="link_Repositories_OrganizationRepository"><path codeLine="103" d="M901.68,178.0027 C895.9,203.2127 890.5,226.7627 890.5,226.7627 C890.5,226.7627 886.2253,235.98 879.2053,251.11 " fill="none" id="Repositories-to-OrganizationRepository" style="stroke:#181818;stroke-width:1.0;"/><polygon fill="#181818" points="876.68,256.5527,884.0964,250.0722,878.7844,252.0171,876.8395,246.7051,876.68,256.5527" style="stroke:#181818;stroke-width:1.0;"/><text fill="#000000" font-family="sans-serif" font-size="13" lengthAdjust="spacing" textLength="7" x="871.9065" y="245.5986">1</text></g><!--link OrganizationRepository to Organization--><g id="link_OrganizationRepository_Organization"><path codeLine="105" d="M859.4,324.0527 C858.34,340.7527 857.3419,356.2549 855.9119,378.6749 " fill="none" id="OrganizationRepository-to-Organization" style="stroke:#181818;stroke-width:1.0;"/><polygon fill="#181818" points="855.53,384.6627,860.0948,375.9356,855.8483,379.6728,852.111,375.4263,855.53,384.6627" style="stroke:#181818;stroke-width:1.0;"/><text fill="#000000" font-family="sans-serif" font-size="13" lengthAdjust="spacing" textLength="5" x="850.867" y="373.4723">*</text></g><!--link RegisterSkillsController to Organization--><g id="link_RegisterSkillsController_Organization"><path codeLine="108" d="M453.53,168.8127 C482.2,189.1227 508.5,207.7627 508.5,207.7627 C508.5,207.7627 563.5,256.7627 563.5,256.7627 C563.5,256.7627 634.5,323.7627 634.5,323.7627 C634.5,323.7627 661.0462,346.9998 699.4362,380.6198 " fill="none" id="RegisterSkillsController-to-Organization" style="stroke:#181818;stroke-width:1.0;stroke-dasharray:7.0,7.0;"/><polygon fill="#181818" points="703.95,384.5727,699.8146,375.6341,700.1885,381.2786,694.544,381.6525,703.95,384.5727" style="stroke:#181818;stroke-width:1.0;"/><text fill="#000000" font-family="sans-serif" font-size="13" lengthAdjust="spacing" textLength="70" x="635.5" y="295.791">organization</text><text fill="#000000" font-family="sans-serif" font-size="13" lengthAdjust="spacing" textLength="7" x="687.9891" y="373.3769">1</text></g><!--link SkillRepository to Skill--><g id="link_SkillRepository_Skill"><path codeLine="112" d="M444.14,323.9627 C455.39,350.9227 469.5,384.7627 469.5,384.7627 C469.5,384.7627 540.5,637.7627 540.5,637.7627 C540.5,637.7627 566.3218,676.6538 589.4218,711.4538 " fill="none" id="SkillRepository-to-Skill" style="stroke:#181818;stroke-width:1.0;"/><polygon fill="#181818" points="592.74,716.4527,591.0952,706.7421,589.9748,712.2869,584.43,711.1665,592.74,716.4527" style="stroke:#181818;stroke-width:1.0;"/><text fill="#000000" font-family="sans-serif" font-size="13" lengthAdjust="spacing" textLength="23" x="541.5" y="516.791">skill</text><text fill="#000000" font-family="sans-serif" font-size="13" lengthAdjust="spacing" textLength="7" x="438.8828" y="345.3017">1</text><text fill="#000000" font-family="sans-serif" font-size="13" lengthAdjust="spacing" textLength="5" x="583.1064" y="705.6279">*</text></g><!--link Organization to Skill--><g id="link_Organization_Skill"><path codeLine="113" d="M731.67,637.7827 C705.33,666.3327 683.2291,690.2933 662.8991,712.3233 " fill="none" id="Organization-to-Skill" style="stroke:#181818;stroke-width:1.0;"/><polygon fill="#181818" points="658.83,716.7327,667.8732,712.8314,662.2209,713.0582,661.9941,707.4059,658.83,716.7327" style="stroke:#181818;stroke-width:1.0;"/><text fill="#000000" font-family="sans-serif" font-size="13" lengthAdjust="spacing" textLength="30" x="700.5" y="682.791">skills</text><text fill="#000000" font-family="sans-serif" font-size="13" lengthAdjust="spacing" textLength="7" x="717.7712" y="659.6301">1</text><text fill="#000000" font-family="sans-serif" font-size="13" lengthAdjust="spacing" textLength="5" x="659.5404" y="705.632">*</text></g><!--link Skill to HRM--><g id="link_Skill_HRM"><path codeLine="114" d="M645.52,801.9627 C661.9,829.2727 680.413,860.1177 698.233,889.8177 " fill="none" id="Skill-to-HRM" style="stroke:#181818;stroke-width:1.0;"/><polygon fill="#181818" points="701.32,894.9627,700.1195,885.1873,698.7475,890.6752,693.2596,889.3032,701.32,894.9627" style="stroke:#181818;stroke-width:1.0;"/><text fill="#000000" font-family="sans-serif" font-size="13" lengthAdjust="spacing" textLength="73" x="674.5" y="846.791">registeredBy</text></g><!--link Organization to HRM--><g id="link_Organization_HRM"><path codeLine="116" d="M815.12,637.7727 C794.77,716.6427 770.7892,809.623 753.9792,874.763 " fill="none" id="Organization-to-HRM" style="stroke:#181818;stroke-width:1.0;"/><polygon fill="#181818" points="752.48,880.5727,758.602,872.8577,753.7294,875.7313,750.8557,870.8587,752.48,880.5727" style="stroke:#181818;stroke-width:1.0;"/><text fill="#000000" font-family="sans-serif" font-size="13" lengthAdjust="spacing" textLength="49" x="793.5" y="764.791">employs</text><text fill="#000000" font-family="sans-serif" font-size="13" lengthAdjust="spacing" textLength="5" x="749.0764" y="869.4441">*</text></g><!--SRC=[ZLRBRjim4BppAuXS93Toq5vzA10dAU93Mo1kFe2MrZ9XYXH8Ee4IzDzBKfH4wc7K1qFUdHtEFhXoeiwKrqII2bU2Y_maHGLOomkWmLEJ_4nAsEk60PQGQy9B5WBKYHJYdV8I7mbJeOTH3hgf0TU2DVO7IcQSGcg1WgYS4QNkjPRqSD6momNVqm_0Nn5A61mrrW9BMfuqBgYLGmKt7XU4x-kQqPnOsnwKigxa4oNOV6wnqiQHunBqZfjddaEwwdp6-72H4hZsSTRr5oKTyQi2EMKqKTRnL17AsW3KmfzVVk9FP45hp4a5_X4iq3_NGb6dtVyy2Tx1Te-ePzgVAMCzrzuKnTJPKQ9MWmEaoi6iVMLZVV1lMH9EFrmzPZaYonlHloxL0MHiVeU3KJh2XdAzgKtEsqXH1C9Mtlf662s8Xedh5XFUF5Kr4mt0Cr5jHHrZ1mXpIQtuR12SMP5x8p9hXMMjcCmMMHDsNnJIz2x35U5cacL7AQ6aIfl6EZbjyLgXfh6TccqJYR6jlrNa3VuGTKwr-LgDclK2hhL2DhxaRawSQziyWiebhLqInV0SS8HvpbE5Y6rVjKXbpzOpK53z18J6T3KG3zS2RoBGA8r1LXWzBpoDn0JrLW-2QoaO0zadjmH8nIntXbKifrMJE3csFmzcrieupQMU9-jHK1CtImUUnx1nau7vOPRei4HCybney1jB71Tpz4INRfzWgh0uQ6AsPE5yHyEBzGaS12k_Z80Ns1xWZpa8hGtCd3Fgr41VuAEGPdUgcf76N5pdiRokcChiPQK3shdMlUvCoqncqNIjlyVJji7KpnDAfdlPmcUiGH2Qd7dtVRbwQ76uxYQwP3ZQaoHkljrCYdU5tT0xutN8mgtUuFd9_e_p8fOPlM5IFgjv4GWjY7DXN-Am-LPw_k0bQJHTWbVczNp6saPbGSdLwBbt_jM0w5sExPLtQQx3tXi9xZgWSQqjeYjCZ8moM8Ifbj4vxR-4JR-HeDYEUj4pj41m2qQXVm00]--></g></svg>