<?xml version="1.0" encoding="us-ascii" standalone="no"?><svg xmlns="http://www.w3.org/2000/svg" xmlns:xlink="http://www.w3.org/1999/xlink" contentStyleType="text/css" height="875px" preserveAspectRatio="none" style="width:1224px;height:875px;background:#FFFFFF;" version="1.1" viewBox="0 0 1224 875" width="1224px" zoomAndPan="magnify"><defs/><g><rect fill="#FFFFFF" height="680.8105" style="stroke:#181818;stroke-width:1.0;" width="10" x="91" y="93.6211"/><rect fill="#FFFFFF" height="231.3672" style="stroke:#181818;stroke-width:1.0;" width="10" x="324" y="116.9121"/><rect fill="#FFFFFF" height="31.291" style="stroke:#181818;stroke-width:1.0;" width="10" x="324" y="379.5703"/><rect fill="#FFFFFF" height="332.2793" style="stroke:#181818;stroke-width:1.0;" width="10" x="324" y="442.1523"/><rect fill="#FFFFFF" height="591.6074" style="stroke:#181818;stroke-width:1.0;" width="10" x="484" y="191.8242"/><rect fill="#FFFFFF" height="269.6973" style="stroke:#181818;stroke-width:1.0;" width="10" x="489" y="473.4434"/><rect fill="#FFFFFF" height="31.291" style="stroke:#181818;stroke-width:1.0;" width="10" x="623" y="223.1152"/><rect fill="#FFFFFF" height="31.291" style="stroke:#181818;stroke-width:1.0;" width="10" x="728" y="285.6973"/><rect fill="#FFFFFF" height="253.6973" style="stroke:#181818;stroke-width:1.0;" width="10" x="1078.5" y="529.7344"/><rect fill="#FFFFFF" height="80.582" style="stroke:#181818;stroke-width:1.0;" width="10" x="1083.5" y="631.2676"/><line style="stroke:#181818;stroke-width:0.5;stroke-dasharray:5.0,5.0;" x1="96" x2="96" y1="83.6211" y2="792.4316"/><line style="stroke:#181818;stroke-width:0.5;stroke-dasharray:5.0,5.0;" x1="328.5" x2="328.5" y1="83.6211" y2="792.4316"/><line style="stroke:#181818;stroke-width:0.5;stroke-dasharray:5.0,5.0;" x1="488.5" x2="488.5" y1="156.7227" y2="792.4316"/><line style="stroke:#181818;stroke-width:0.5;stroke-dasharray:5.0,5.0;" x1="627.5" x2="627.5" y1="83.6211" y2="792.4316"/><line style="stroke:#181818;stroke-width:0.5;stroke-dasharray:5.0,5.0;" x1="732.5" x2="732.5" y1="83.6211" y2="792.4316"/><line style="stroke:#181818;stroke-width:0.5;stroke-dasharray:5.0,5.0;" x1="845.5" x2="845.5" y1="83.6211" y2="792.4316"/><line style="stroke:#181818;stroke-width:0.5;stroke-dasharray:5.0,5.0;" x1="931.5" x2="931.5" y1="578.8555" y2="792.4316"/><line style="stroke:#181818;stroke-width:0.5;stroke-dasharray:5.0,5.0;" x1="1083.5" x2="1083.5" y1="83.6211" y2="792.4316"/><text fill="#000000" font-family="sans-serif" font-size="14" lengthAdjust="spacing" textLength="176" x="5" y="80.1074">Human Resources Manager</text><ellipse cx="96" cy="13.5" fill="#E3E3E3" rx="8" ry="8" style="stroke:#181818;stroke-width:0.5;"/><path d="M96,21.5 L96,48.5 M83,29.5 L109,29.5 M96,48.5 L83,63.5 M96,48.5 L109,63.5 " fill="none" style="stroke:#181818;stroke-width:0.5;"/><text fill="#000000" font-family="sans-serif" font-size="14" lengthAdjust="spacing" textLength="176" x="5" y="806.5391">Human Resources Manager</text><ellipse cx="96" cy="818.5527" fill="#E3E3E3" rx="8" ry="8" style="stroke:#181818;stroke-width:0.5;"/><path d="M96,826.5527 L96,853.5527 M83,834.5527 L109,834.5527 M96,853.5527 L83,868.5527 M96,853.5527 L109,868.5527 " fill="none" style="stroke:#181818;stroke-width:0.5;"/><rect fill="#E3E3E3" height="32.6211" rx="2.5" ry="2.5" style="stroke:#181818;stroke-width:0.5;" width="115" x="271.5" y="50"/><text fill="#000000" font-family="sans-serif" font-size="14" lengthAdjust="spacing" textLength="101" x="278.5" y="72.1074">:RegisterSkillsUI</text><rect fill="#E3E3E3" height="32.6211" rx="2.5" ry="2.5" style="stroke:#181818;stroke-width:0.5;" width="115" x="271.5" y="791.4316"/><text fill="#000000" font-family="sans-serif" font-size="14" lengthAdjust="spacing" textLength="101" x="278.5" y="813.5391">:RegisterSkillsUI</text><rect fill="#E3E3E3" height="32.6211" rx="2.5" ry="2.5" style="stroke:#181818;stroke-width:0.5;" width="165" x="406.5" y="791.4316"/><text fill="#000000" font-family="sans-serif" font-size="14" lengthAdjust="spacing" textLength="151" x="413.5" y="813.5391">:RegisterSkillsController</text><rect fill="#E3E3E3" height="32.6211" rx="2.5" ry="2.5" style="stroke:#181818;stroke-width:0.5;" width="93" x="581.5" y="50"/><text fill="#000000" font-family="sans-serif" font-size="14" lengthAdjust="spacing" textLength="79" x="588.5" y="72.1074">Repositories</text><rect fill="#E3E3E3" height="32.6211" rx="2.5" ry="2.5" style="stroke:#181818;stroke-width:0.5;" width="93" x="581.5" y="791.4316"/><text fill="#000000" font-family="sans-serif" font-size="14" lengthAdjust="spacing" textLength="79" x="588.5" y="813.5391">Repositories</text><rect fill="#E3E3E3" height="51.2422" rx="2.5" ry="2.5" style="stroke:#181818;stroke-width:0.5;" width="97" x="684.5" y="31.3789"/><text fill="#000000" font-family="sans-serif" font-size="14" lengthAdjust="spacing" textLength="74" x="696" y="53.4863">repositories</text><text fill="#000000" font-family="sans-serif" font-size="14" lengthAdjust="spacing" textLength="83" x="691.5" y="72.1074">:Repositories</text><rect fill="#E3E3E3" height="51.2422" rx="2.5" ry="2.5" style="stroke:#181818;stroke-width:0.5;" width="97" x="684.5" y="791.4316"/><text fill="#000000" font-family="sans-serif" font-size="14" lengthAdjust="spacing" textLength="74" x="696" y="813.5391">repositories</text><text fill="#000000" font-family="sans-serif" font-size="14" lengthAdjust="spacing" textLength="83" x="691.5" y="832.1602">:Repositories</text><rect fill="#E3E3E3" height="51.2422" rx="2.5" ry="2.5" style="stroke:#181818;stroke-width:0.5;" width="109" x="791.5" y="31.3789"/><text fill="#000000" font-family="sans-serif" font-size="14" lengthAdjust="spacing" textLength="95" x="798.5" y="53.4863">skillRepository:</text><text fill="#000000" font-family="sans-serif" font-size="14" lengthAdjust="spacing" textLength="93" x="799.5" y="72.1074">SkillRepository</text><rect fill="#E3E3E3" height="51.2422" rx="2.5" ry="2.5" style="stroke:#181818;stroke-width:0.5;" width="109" x="791.5" y="791.4316"/><text fill="#000000" font-family="sans-serif" font-size="14" lengthAdjust="spacing" textLength="95" x="798.5" y="813.5391">skillRepository:</text><text fill="#000000" font-family="sans-serif" font-size="14" lengthAdjust="spacing" textLength="93" x="799.5" y="832.1602">SkillRepository</text><rect fill="#E3E3E3" height="51.2422" rx="2.5" ry="2.5" style="stroke:#181818;stroke-width:0.5;" width="43" x="910.5" y="791.4316"/><text fill="#000000" font-family="sans-serif" font-size="14" lengthAdjust="spacing" textLength="23" x="920.5" y="813.5391">skill</text><text fill="#000000" font-family="sans-serif" font-size="14" lengthAdjust="spacing" textLength="29" x="917.5" y="832.1602">:Skill</text><rect fill="#E3E3E3" height="51.2422" rx="2.5" ry="2.5" style="stroke:#181818;stroke-width:0.5;" width="98" x="1034.5" y="31.3789"/><text fill="#000000" font-family="sans-serif" font-size="14" lengthAdjust="spacing" textLength="77" x="1045" y="53.4863">organization</text><text fill="#000000" font-family="sans-serif" font-size="14" lengthAdjust="spacing" textLength="84" x="1041.5" y="72.1074">:Organization</text><rect fill="#E3E3E3" height="51.2422" rx="2.5" ry="2.5" style="stroke:#181818;stroke-width:0.5;" width="98" x="1034.5" y="791.4316"/><text fill="#000000" font-family="sans-serif" font-size="14" lengthAdjust="spacing" textLength="77" x="1045" y="813.5391">organization</text><text fill="#000000" font-family="sans-serif" font-size="14" lengthAdjust="spacing" textLength="84" x="1041.5" y="832.1602">:Organization</text><rect fill="#FFFFFF" height="680.8105" style="stroke:#181818;stroke-width:1.0;" width="10" x="91" y="93.6211"/><rect fill="#FFFFFF" height="231.3672" style="stroke:#181818;stroke-width:1.0;" width="10" x="324" y="116.9121"/><rect fill="#FFFFFF" height="31.291" style="stroke:#181818;stroke-width:1.0;" width="10" x="324" y="379.5703"/><rect fill="#FFFFFF" height="332.2793" style="stroke:#181818;stroke-width:1.0;" width="10" x="324" y="442.1523"/><rect fill="#FFFFFF" height="591.6074" style="stroke:#181818;stroke-width:1.0;" width="10" x="484" y="191.8242"/><rect fill="#FFFFFF" height="269.6973" style="stroke:#181818;stroke-width:1.0;" width="10" x="489" y="473.4434"/><rect fill="#FFFFFF" height="31.291" style="stroke:#181818;stroke-width:1.0;" width="10" x="623" y="223.1152"/><rect fill="#FFFFFF" height="31.291" style="stroke:#181818;stroke-width:1.0;" width="10" x="728" y="285.6973"/><rect fill="#FFFFFF" height="253.6973" style="stroke:#181818;stroke-width:1.0;" width="10" x="1078.5" y="529.7344"/><rect fill="#FFFFFF" height="80.582" style="stroke:#181818;stroke-width:1.0;" width="10" x="1083.5" y="631.2676"/><polygon fill="#181818" points="312,112.9121,322,116.9121,312,120.9121,316,116.9121" style="stroke:#181818;stroke-width:1.0;"/><line style="stroke:#181818;stroke-width:1.0;" x1="101" x2="318" y1="116.9121" y2="116.9121"/><text fill="#000000" font-family="sans-serif" font-size="13" font-weight="bold" lengthAdjust="spacing" textLength="7" x="108" y="111.6494">1</text><text fill="#000000" font-family="sans-serif" font-size="13" lengthAdjust="spacing" textLength="124" x="119" y="111.6494">asks to register skills</text><polygon fill="#181818" points="394.5,144.2031,404.5,148.2031,394.5,152.2031,398.5,148.2031" style="stroke:#181818;stroke-width:1.0;"/><line style="stroke:#181818;stroke-width:1.0;" x1="334" x2="400.5" y1="148.2031" y2="148.2031"/><text fill="#000000" font-family="sans-serif" font-size="13" font-weight="bold" lengthAdjust="spacing" textLength="7" x="341" y="142.9404">2</text><text fill="#000000" font-family="sans-serif" font-size="13" lengthAdjust="spacing" textLength="36" x="352" y="142.9404">create</text><rect fill="#E3E3E3" height="32.6211" rx="2.5" ry="2.5" style="stroke:#181818;stroke-width:0.5;" width="165" x="406.5" y="124.9121"/><text fill="#000000" font-family="sans-serif" font-size="14" lengthAdjust="spacing" textLength="151" x="413.5" y="147.0195">:RegisterSkillsController</text><polygon fill="#181818" points="472,187.8242,482,191.8242,472,195.8242,476,191.8242" style="stroke:#181818;stroke-width:1.0;"/><line style="stroke:#181818;stroke-width:1.0;" x1="334" x2="478" y1="191.8242" y2="191.8242"/><text fill="#000000" font-family="sans-serif" font-size="13" font-weight="bold" lengthAdjust="spacing" textLength="7" x="341" y="186.5615">3</text><text fill="#000000" font-family="sans-serif" font-size="13" lengthAdjust="spacing" textLength="51" x="352" y="186.5615">getSkill()</text><polygon fill="#181818" points="611,219.1152,621,223.1152,611,227.1152,615,223.1152" style="stroke:#181818;stroke-width:1.0;"/><line style="stroke:#181818;stroke-width:1.0;" x1="494" x2="617" y1="223.1152" y2="223.1152"/><text fill="#000000" font-family="sans-serif" font-size="13" font-weight="bold" lengthAdjust="spacing" textLength="7" x="501" y="217.8525">4</text><text fill="#000000" font-family="sans-serif" font-size="13" lengthAdjust="spacing" textLength="75" x="512" y="217.8525">getInstance()</text><polygon fill="#181818" points="505,250.4063,495,254.4063,505,258.4063,501,254.4063" style="stroke:#181818;stroke-width:1.0;"/><line style="stroke:#181818;stroke-width:1.0;stroke-dasharray:2.0,2.0;" x1="499" x2="627" y1="254.4063" y2="254.4063"/><text fill="#000000" font-family="sans-serif" font-size="13" font-weight="bold" lengthAdjust="spacing" textLength="7" x="511" y="249.1436">5</text><text fill="#000000" font-family="sans-serif" font-size="13" lengthAdjust="spacing" textLength="67" x="522" y="249.1436">repositories</text><polygon fill="#181818" points="716,281.6973,726,285.6973,716,289.6973,720,285.6973" style="stroke:#181818;stroke-width:1.0;"/><line style="stroke:#181818;stroke-width:1.0;" x1="494" x2="722" y1="285.6973" y2="285.6973"/><text fill="#000000" font-family="sans-serif" font-size="13" font-weight="bold" lengthAdjust="spacing" textLength="7" x="501" y="280.4346">6</text><text fill="#000000" font-family="sans-serif" font-size="13" lengthAdjust="spacing" textLength="113" x="512" y="280.4346">getSkillRepository()</text><polygon fill="#181818" points="505,312.9883,495,316.9883,505,320.9883,501,316.9883" style="stroke:#181818;stroke-width:1.0;"/><line style="stroke:#181818;stroke-width:1.0;stroke-dasharray:2.0,2.0;" x1="499" x2="732" y1="316.9883" y2="316.9883"/><text fill="#000000" font-family="sans-serif" font-size="13" font-weight="bold" lengthAdjust="spacing" textLength="7" x="511" y="311.7256">7</text><text fill="#000000" font-family="sans-serif" font-size="13" lengthAdjust="spacing" textLength="85" x="522" y="311.7256">skillRepository</text><polygon fill="#181818" points="112,344.2793,102,348.2793,112,352.2793,108,348.2793" style="stroke:#181818;stroke-width:1.0;"/><line style="stroke:#181818;stroke-width:1.0;stroke-dasharray:2.0,2.0;" x1="106" x2="328" y1="348.2793" y2="348.2793"/><text fill="#000000" font-family="sans-serif" font-size="13" font-weight="bold" lengthAdjust="spacing" textLength="7" x="118" y="343.0166">8</text><text fill="#000000" font-family="sans-serif" font-size="13" lengthAdjust="spacing" textLength="79" x="129" y="343.0166">requests data</text><polygon fill="#181818" points="312,375.5703,322,379.5703,312,383.5703,316,379.5703" style="stroke:#181818;stroke-width:1.0;"/><line style="stroke:#181818;stroke-width:1.0;" x1="101" x2="318" y1="379.5703" y2="379.5703"/><text fill="#000000" font-family="sans-serif" font-size="13" font-weight="bold" lengthAdjust="spacing" textLength="7" x="108" y="374.3076">9</text><text fill="#000000" font-family="sans-serif" font-size="13" lengthAdjust="spacing" textLength="193" x="119" y="374.3076">types requested data (skill name)</text><polygon fill="#181818" points="112,406.8613,102,410.8613,112,414.8613,108,410.8613" style="stroke:#181818;stroke-width:1.0;"/><line style="stroke:#181818;stroke-width:1.0;stroke-dasharray:2.0,2.0;" x1="106" x2="328" y1="410.8613" y2="410.8613"/><text fill="#000000" font-family="sans-serif" font-size="13" font-weight="bold" lengthAdjust="spacing" textLength="14" x="118" y="405.5986">10</text><text fill="#000000" font-family="sans-serif" font-size="13" lengthAdjust="spacing" textLength="127" x="136" y="405.5986">shows requested data</text><polygon fill="#181818" points="312,438.1523,322,442.1523,312,446.1523,316,442.1523" style="stroke:#181818;stroke-width:1.0;"/><line style="stroke:#181818;stroke-width:1.0;" x1="101" x2="318" y1="442.1523" y2="442.1523"/><text fill="#000000" font-family="sans-serif" font-size="13" font-weight="bold" lengthAdjust="spacing" textLength="14" x="108" y="436.8896">11</text><text fill="#000000" font-family="sans-serif" font-size="13" lengthAdjust="spacing" textLength="75" x="126" y="436.8896">submits data</text><polygon fill="#181818" points="477,469.4434,487,473.4434,477,477.4434,481,473.4434" style="stroke:#181818;stroke-width:1.0;"/><line style="stroke:#181818;stroke-width:1.0;" x1="334" x2="483" y1="473.4434" y2="473.4434"/><text fill="#000000" font-family="sans-serif" font-size="13" font-weight="bold" lengthAdjust="spacing" textLength="14" x="341" y="468.1807">12</text><text fill="#000000" font-family="sans-serif" font-size="13" lengthAdjust="spacing" textLength="108" x="359" y="468.1807">registerSkill(name)</text><polygon fill="#181818" points="1066.5,525.7344,1076.5,529.7344,1066.5,533.7344,1070.5,529.7344" style="stroke:#181818;stroke-width:1.0;"/><line style="stroke:#181818;stroke-width:1.0;" x1="499" x2="1072.5" y1="529.7344" y2="529.7344"/><text fill="#000000" font-family="sans-serif" font-size="13" font-weight="bold" lengthAdjust="spacing" textLength="14" x="506" y="524.4717">13</text><text fill="#000000" font-family="sans-serif" font-size="13" lengthAdjust="spacing" textLength="115" x="524" y="524.4717">registerSkills(name)</text><polygon fill="#181818" points="964.5,557.0254,954.5,561.0254,964.5,565.0254,960.5,561.0254" style="stroke:#181818;stroke-width:1.0;"/><line style="stroke:#181818;stroke-width:1.0;" x1="958.5" x2="1077.5" y1="561.0254" y2="561.0254"/><text fill="#000000" font-family="sans-serif" font-size="13" font-weight="bold" lengthAdjust="spacing" textLength="14" x="970.5" y="555.7627">14</text><text fill="#000000" font-family="sans-serif" font-size="13" lengthAdjust="spacing" textLength="83" x="988.5" y="555.7627">register(name)</text><rect fill="#E3E3E3" height="51.2422" rx="2.5" ry="2.5" style="stroke:#181818;stroke-width:0.5;" width="43" x="910.5" y="537.7344"/><text fill="#000000" font-family="sans-serif" font-size="14" lengthAdjust="spacing" textLength="23" x="920.5" y="559.8418">skill</text><text fill="#000000" font-family="sans-serif" font-size="14" lengthAdjust="spacing" textLength="29" x="917.5" y="578.4629">:Skill</text><line style="stroke:#181818;stroke-width:1.0;" x1="1088.5" x2="1135.5" y1="618.2676" y2="618.2676"/><line style="stroke:#181818;stroke-width:1.0;" x1="1135.5" x2="1135.5" y1="618.2676" y2="631.2676"/><line style="stroke:#181818;stroke-width:1.0;" x1="1094.5" x2="1135.5" y1="631.2676" y2="631.2676"/><polygon fill="#181818" points="1104.5,627.2676,1094.5,631.2676,1104.5,635.2676,1100.5,631.2676" style="stroke:#181818;stroke-width:1.0;"/><text fill="#000000" font-family="sans-serif" font-size="13" font-weight="bold" lengthAdjust="spacing" textLength="14" x="1100.5" y="613.0049">15</text><text fill="#000000" font-family="sans-serif" font-size="13" lengthAdjust="spacing" textLength="81" x="1118.5" y="613.0049">addSkill (skill)</text><line style="stroke:#181818;stroke-width:1.0;" x1="1093.5" x2="1135.5" y1="667.5586" y2="667.5586"/><line style="stroke:#181818;stroke-width:1.0;" x1="1135.5" x2="1135.5" y1="667.5586" y2="680.5586"/><line style="stroke:#181818;stroke-width:1.0;" x1="1094.5" x2="1135.5" y1="680.5586" y2="680.5586"/><polygon fill="#181818" points="1104.5,676.5586,1094.5,680.5586,1104.5,684.5586,1100.5,680.5586" style="stroke:#181818;stroke-width:1.0;"/><text fill="#000000" font-family="sans-serif" font-size="13" font-weight="bold" lengthAdjust="spacing" textLength="14" x="1100.5" y="662.2959">16</text><text fill="#000000" font-family="sans-serif" font-size="13" lengthAdjust="spacing" textLength="99" x="1118.5" y="662.2959">validateSkill(skill)</text><polygon fill="#181818" points="510,707.8496,500,711.8496,510,715.8496,506,711.8496" style="stroke:#181818;stroke-width:1.0;"/><line style="stroke:#181818;stroke-width:1.0;stroke-dasharray:2.0,2.0;" x1="504" x2="1077.5" y1="711.8496" y2="711.8496"/><text fill="#000000" font-family="sans-serif" font-size="13" font-weight="bold" lengthAdjust="spacing" textLength="14" x="516" y="706.5869">17</text><text fill="#000000" font-family="sans-serif" font-size="13" lengthAdjust="spacing" textLength="23" x="534" y="706.5869">skill</text><polygon fill="#181818" points="345,739.1406,335,743.1406,345,747.1406,341,743.1406" style="stroke:#181818;stroke-width:1.0;"/><line style="stroke:#181818;stroke-width:1.0;stroke-dasharray:2.0,2.0;" x1="339" x2="483" y1="743.1406" y2="743.1406"/><text fill="#000000" font-family="sans-serif" font-size="13" font-weight="bold" lengthAdjust="spacing" textLength="14" x="351" y="737.8779">18</text><text fill="#000000" font-family="sans-serif" font-size="13" lengthAdjust="spacing" textLength="23" x="369" y="737.8779">skill</text><polygon fill="#181818" points="107,770.4316,97,774.4316,107,778.4316,103,774.4316" style="stroke:#181818;stroke-width:1.0;"/><line style="stroke:#181818;stroke-width:1.0;stroke-dasharray:2.0,2.0;" x1="101" x2="328" y1="774.4316" y2="774.4316"/><text fill="#000000" font-family="sans-serif" font-size="13" font-weight="bold" lengthAdjust="spacing" textLength="14" x="113" y="769.1689">19</text><text fill="#000000" font-family="sans-serif" font-size="13" lengthAdjust="spacing" textLength="158" x="131" y="769.1689">displays operation success</text><!--SRC=[fLTDRziu4BtpLn2vA0qGz6vW2wH9cWQR887Td1gWOAI9JKGYjIJThXVvyHsIiaH9f6HtTPCqy-RD1nz9_SP5pHIhQ2M5p3TALa2DsWBHxP-QvMzi3IkpAu4go0qJwp8qq1jMo5zShEahApKGmhP6Yctr0egGRCCBeAzIcXVvBs6vaOgUVDrMJD0bQBbLEMXwpmH6K2UKQNfnTKyGr_2SrqmOUh9Omffh0shrnijIFzqwiwVRIQjBAOoIPTc0NdvRtlNjbr1BpP4D1-rCsW-x5RS9OWfz3nLuF8l52E3nxk9RtqDRAXtkubci-b-St-1R10AZEIDl_lVjtI0NgTPCyF-OuLAWxKFmwbmUbZV4bfx_P0PSWGbj7doXvv-mcdI1bc-Q6eazzfMaBhZkZ5i8B7xtrJxeZoYsocTdY9GhGBEK2HgimRYCJZ_qRDe0hb-zN_PnpWWIQPN7l1KQfpE70MmFEjRdaRLzOb7EcnGMD9o6aNi1nuNR9sP7AAXEvpkLa9kxQ0OEhgCy6CSfrXupI_4SiEitD4io7KvwDhQrpn3zl9iRby8bOgtnnnrEwHWXoEA0U3wZ_GgOWG-WtO0EyEo48v9TKWYraR-q1wHvWqXBX7mMb8cYNMmQIfHKAWLqO44SN6bDb72bUYTDsI20j-mjqoWv1VziGID0mGmZuv1a6D3iQfJfnWqAvqTFVN31Al3ZEH_OLwMFSqXylNsfUCWt6QeT5HNk1wSToOZEPB4P7oZLvzqLw5pnsgggpppuC9ZwAVnZXImxIiaII-e8BSkE5BCidTwKd6NJUfR8mojQNmx21JudQTcVQDfHhVy3mPlJk-CqBbQsLkLYCZgZSU7Fz_VtkSLoNTMbt05ymQFa2hIs9PjS7LYJP4z-N3m-pgw7hCMpvf42s2_s5sq7djLrmoq25rJ00yRQbkqfxXbURfK2OH8fEnRT2SoZqXXJnxCbclTGfyasgEa1lrwjBXuM52h6I_gN9VsaGLtRLyjteh3U5KqYLcw2tV-0jujn4EISVhZYXYVQG4LSbFyd9IrZ6GrnaAAa4uZp7gNqURTVDRuPitaz9CZ6CosbhEdtLxnu8VTDBzEuWttY8LnIonjxMH0jwQzCJ_CUyySBIPQsymGmp7coXlPCWjVKZ_x6cKGAkkLYncn05F4VgH9qUZTToZ3umGrhHsTvqzDJEoE7pKQwjlkIDkoXWPvc7eSRxYXnhE5cGeQRIJBptkbD3uvletn9DDDF_gvyTjR1HO02SnUP5OKBsXnlFn129ckTB7I3zvEL78-juC-XUyoPrlXzdqpqX2HkCNlVgJR4BoqBMd1TbsodgQn1kLd5WtUUu-OJEwE7My_LFVaD]--></g></svg>