<?xml version="1.0" encoding="us-ascii" standalone="no"?><svg xmlns="http://www.w3.org/2000/svg" xmlns:xlink="http://www.w3.org/1999/xlink" contentStyleType="text/css" height="1120px" preserveAspectRatio="none" style="width:1321px;height:1120px;background:#FFFFFF;" version="1.1" viewBox="0 0 1321 1120" width="1321px" zoomAndPan="magnify"><defs/><g><!--class ApplicationSession--><g id="elem_ApplicationSession"><rect codeLine="11" fill="#F1F1F1" height="85.2422" id="ApplicationSession" rx="2.5" ry="2.5" style="stroke:#181818;stroke-width:0.5;" width="151" x="83" y="312.7627"/><ellipse cx="98" cy="328.7627" fill="#ADD1B2" rx="11" ry="11" style="stroke:#181818;stroke-width:1.0;"/><path d="M100.7656,324.6377 Q100.9219,324.4189 101.1094,324.3096 Q101.2969,324.2002 101.5156,324.2002 Q101.8906,324.2002 102.125,324.4658 Q102.3594,324.7158 102.3594,325.3252 L102.3594,326.7783 Q102.3594,327.3877 102.125,327.6533 Q101.8906,327.9189 101.5156,327.9189 Q101.1719,327.9189 100.9688,327.7158 Q100.7656,327.5283 100.6563,327.0127 Q100.6094,326.6533 100.4219,326.4658 Q100.0938,326.0908 99.4844,325.8721 Q98.875,325.6533 98.25,325.6533 Q97.4844,325.6533 96.8438,325.9814 Q96.2188,326.3096 95.7188,327.0596 Q95.2344,327.8096 95.2344,328.8408 L95.2344,329.9346 Q95.2344,331.1689 96.125,331.9971 Q97.0156,332.8096 98.6094,332.8096 Q99.5469,332.8096 100.2031,332.5596 Q100.5938,332.4033 101.0156,331.9658 Q101.2813,331.7002 101.4219,331.6221 Q101.5781,331.5439 101.7813,331.5439 Q102.1094,331.5439 102.3594,331.8096 Q102.625,332.0596 102.625,332.4033 Q102.625,332.7471 102.2813,333.1533 Q101.7813,333.7314 100.9844,334.0596 Q99.9063,334.5127 98.6094,334.5127 Q97.0938,334.5127 95.8906,333.8877 Q94.9063,333.3877 94.2188,332.3252 Q93.5313,331.2471 93.5313,329.9658 L93.5313,328.8096 Q93.5313,327.4814 94.1406,326.3408 Q94.7656,325.1846 95.8594,324.5752 Q96.9531,323.9502 98.1875,323.9502 Q98.9219,323.9502 99.5625,324.1221 Q100.2188,324.2783 100.7656,324.6377 Z " fill="#000000"/><text fill="#000000" font-family="sans-serif" font-size="14" lengthAdjust="spacing" textLength="119" x="112" y="334.5596">ApplicationSession</text><line style="stroke:#181818;stroke-width:0.5;" x1="84" x2="233" y1="344.7627" y2="344.7627"/><line style="stroke:#181818;stroke-width:0.5;" x1="84" x2="233" y1="352.7627" y2="352.7627"/><text fill="#000000" font-family="sans-serif" font-size="14" lengthAdjust="spacing" textLength="128" x="89" y="371.8701">+static getInstance()</text><text fill="#000000" font-family="sans-serif" font-size="14" lengthAdjust="spacing" textLength="136" x="89" y="390.4912">+getCurrentSession()</text></g><!--class UserSession--><g id="elem_UserSession"><rect codeLine="17" fill="#F1F1F1" height="66.6211" id="UserSession" rx="2.5" ry="2.5" style="stroke:#181818;stroke-width:0.5;" width="113" x="20" y="569.7627"/><ellipse cx="35.9" cy="585.7627" fill="#ADD1B2" rx="11" ry="11" style="stroke:#181818;stroke-width:1.0;"/><path d="M38.6656,581.6377 Q38.8219,581.4189 39.0094,581.3096 Q39.1969,581.2002 39.4156,581.2002 Q39.7906,581.2002 40.025,581.4658 Q40.2594,581.7158 40.2594,582.3252 L40.2594,583.7783 Q40.2594,584.3877 40.025,584.6533 Q39.7906,584.9189 39.4156,584.9189 Q39.0719,584.9189 38.8688,584.7158 Q38.6656,584.5283 38.5563,584.0127 Q38.5094,583.6533 38.3219,583.4658 Q37.9938,583.0908 37.3844,582.8721 Q36.775,582.6533 36.15,582.6533 Q35.3844,582.6533 34.7438,582.9814 Q34.1188,583.3096 33.6188,584.0596 Q33.1344,584.8096 33.1344,585.8408 L33.1344,586.9346 Q33.1344,588.1689 34.025,588.9971 Q34.9156,589.8096 36.5094,589.8096 Q37.4469,589.8096 38.1031,589.5596 Q38.4938,589.4033 38.9156,588.9658 Q39.1813,588.7002 39.3219,588.6221 Q39.4781,588.5439 39.6813,588.5439 Q40.0094,588.5439 40.2594,588.8096 Q40.525,589.0596 40.525,589.4033 Q40.525,589.7471 40.1813,590.1533 Q39.6813,590.7314 38.8844,591.0596 Q37.8063,591.5127 36.5094,591.5127 Q34.9938,591.5127 33.7906,590.8877 Q32.8063,590.3877 32.1188,589.3252 Q31.4313,588.2471 31.4313,586.9658 L31.4313,585.8096 Q31.4313,584.4814 32.0406,583.3408 Q32.6656,582.1846 33.7594,581.5752 Q34.8531,580.9502 36.0875,580.9502 Q36.8219,580.9502 37.4625,581.1221 Q38.1188,581.2783 38.6656,581.6377 Z " fill="#000000"/><text fill="#000000" font-family="sans-serif" font-size="14" lengthAdjust="spacing" textLength="79" x="50.1" y="591.5596">UserSession</text><line style="stroke:#181818;stroke-width:0.5;" x1="21" x2="132" y1="601.7627" y2="601.7627"/><line style="stroke:#181818;stroke-width:0.5;" x1="21" x2="132" y1="609.7627" y2="609.7627"/><text fill="#000000" font-family="sans-serif" font-size="14" lengthAdjust="spacing" textLength="101" x="26" y="628.8701">+getUserEmail()</text></g><!--class HRM--><g id="elem_HRM"><rect codeLine="22" fill="#F1F1F1" height="141.1055" id="HRM" rx="2.5" ry="2.5" style="stroke:#181818;stroke-width:0.5;" width="66" x="765.5" y="972.7627"/><ellipse cx="782.3" cy="988.7627" fill="#ADD1B2" rx="11" ry="11" style="stroke:#181818;stroke-width:1.0;"/><path d="M785.0656,984.6377 Q785.2219,984.4189 785.4094,984.3096 Q785.5969,984.2002 785.8156,984.2002 Q786.1906,984.2002 786.425,984.4658 Q786.6594,984.7158 786.6594,985.3252 L786.6594,986.7783 Q786.6594,987.3877 786.425,987.6533 Q786.1906,987.9189 785.8156,987.9189 Q785.4719,987.9189 785.2688,987.7158 Q785.0656,987.5283 784.9563,987.0127 Q784.9094,986.6533 784.7219,986.4658 Q784.3938,986.0908 783.7844,985.8721 Q783.175,985.6533 782.55,985.6533 Q781.7844,985.6533 781.1438,985.9814 Q780.5188,986.3096 780.0188,987.0596 Q779.5344,987.8096 779.5344,988.8408 L779.5344,989.9346 Q779.5344,991.1689 780.425,991.9971 Q781.3156,992.8096 782.9094,992.8096 Q783.8469,992.8096 784.5031,992.5596 Q784.8938,992.4033 785.3156,991.9658 Q785.5813,991.7002 785.7219,991.6221 Q785.8781,991.5439 786.0813,991.5439 Q786.4094,991.5439 786.6594,991.8096 Q786.925,992.0596 786.925,992.4033 Q786.925,992.7471 786.5813,993.1533 Q786.0813,993.7314 785.2844,994.0596 Q784.2063,994.5127 782.9094,994.5127 Q781.3938,994.5127 780.1906,993.8877 Q779.2063,993.3877 778.5188,992.3252 Q777.8313,991.2471 777.8313,989.9658 L777.8313,988.8096 Q777.8313,987.4814 778.4406,986.3408 Q779.0656,985.1846 780.1594,984.5752 Q781.2531,983.9502 782.4875,983.9502 Q783.2219,983.9502 783.8625,984.1221 Q784.5188,984.2783 785.0656,984.6377 Z " fill="#000000"/><text fill="#000000" font-family="sans-serif" font-size="14" lengthAdjust="spacing" textLength="30" x="796.7" y="994.5596">HRM</text><line style="stroke:#181818;stroke-width:0.5;" x1="766.5" x2="830.5" y1="1004.7627" y2="1004.7627"/><text fill="#000000" font-family="sans-serif" font-size="14" lengthAdjust="spacing" textLength="40" x="771.5" y="1023.8701">-name</text><text fill="#000000" font-family="sans-serif" font-size="14" lengthAdjust="spacing" textLength="38" x="771.5" y="1042.4912">-email</text><text fill="#000000" font-family="sans-serif" font-size="14" lengthAdjust="spacing" textLength="54" x="771.5" y="1061.1123">-position</text><text fill="#000000" font-family="sans-serif" font-size="14" lengthAdjust="spacing" textLength="45" x="771.5" y="1079.7334">-phone</text><text fill="#000000" font-family="sans-serif" font-size="14" lengthAdjust="spacing" textLength="18" x="771.5" y="1098.3545">-ID</text><line style="stroke:#181818;stroke-width:0.5;" x1="766.5" x2="830.5" y1="1105.8682" y2="1105.8682"/></g><!--class Skill--><g id="elem_Skill"><rect codeLine="30" fill="#F1F1F1" height="85.2422" id="Skill" rx="2.5" ry="2.5" style="stroke:#181818;stroke-width:0.5;" width="117" x="488" y="808.7627"/><ellipse cx="530" cy="824.7627" fill="#ADD1B2" rx="11" ry="11" style="stroke:#181818;stroke-width:1.0;"/><path d="M532.7656,820.6377 Q532.9219,820.4189 533.1094,820.3096 Q533.2969,820.2002 533.5156,820.2002 Q533.8906,820.2002 534.125,820.4658 Q534.3594,820.7158 534.3594,821.3252 L534.3594,822.7783 Q534.3594,823.3877 534.125,823.6533 Q533.8906,823.9189 533.5156,823.9189 Q533.1719,823.9189 532.9688,823.7158 Q532.7656,823.5283 532.6563,823.0127 Q532.6094,822.6533 532.4219,822.4658 Q532.0938,822.0908 531.4844,821.8721 Q530.875,821.6533 530.25,821.6533 Q529.4844,821.6533 528.8438,821.9814 Q528.2188,822.3096 527.7188,823.0596 Q527.2344,823.8096 527.2344,824.8408 L527.2344,825.9346 Q527.2344,827.1689 528.125,827.9971 Q529.0156,828.8096 530.6094,828.8096 Q531.5469,828.8096 532.2031,828.5596 Q532.5938,828.4033 533.0156,827.9658 Q533.2813,827.7002 533.4219,827.6221 Q533.5781,827.5439 533.7813,827.5439 Q534.1094,827.5439 534.3594,827.8096 Q534.625,828.0596 534.625,828.4033 Q534.625,828.7471 534.2813,829.1533 Q533.7813,829.7314 532.9844,830.0596 Q531.9063,830.5127 530.6094,830.5127 Q529.0938,830.5127 527.8906,829.8877 Q526.9063,829.3877 526.2188,828.3252 Q525.5313,827.2471 525.5313,825.9658 L525.5313,824.8096 Q525.5313,823.4814 526.1406,822.3408 Q526.7656,821.1846 527.8594,820.5752 Q528.9531,819.9502 530.1875,819.9502 Q530.9219,819.9502 531.5625,820.1221 Q532.2188,820.2783 532.7656,820.6377 Z " fill="#000000"/><text fill="#000000" font-family="sans-serif" font-size="14" lengthAdjust="spacing" textLength="25" x="550" y="830.5596">Skill</text><line style="stroke:#181818;stroke-width:0.5;" x1="489" x2="604" y1="840.7627" y2="840.7627"/><text fill="#000000" font-family="sans-serif" font-size="14" lengthAdjust="spacing" textLength="81" x="494" y="859.8701">-String name</text><line style="stroke:#181818;stroke-width:0.5;" x1="489" x2="604" y1="867.3838" y2="867.3838"/><text fill="#000000" font-family="sans-serif" font-size="14" lengthAdjust="spacing" textLength="105" x="494" y="886.4912">+Skill(skill name)</text></g><!--class Organization--><g id="elem_Organization"><rect codeLine="37" fill="#F1F1F1" height="252.832" id="Organization" rx="2.5" ry="2.5" style="stroke:#181818;stroke-width:0.5;" width="529" x="785" y="476.7627"/><ellipse cx="1005.25" cy="492.7627" fill="#ADD1B2" rx="11" ry="11" style="stroke:#181818;stroke-width:1.0;"/><path d="M1008.0156,488.6377 Q1008.1719,488.4189 1008.3594,488.3096 Q1008.5469,488.2002 1008.7656,488.2002 Q1009.1406,488.2002 1009.375,488.4658 Q1009.6094,488.7158 1009.6094,489.3252 L1009.6094,490.7783 Q1009.6094,491.3877 1009.375,491.6533 Q1009.1406,491.9189 1008.7656,491.9189 Q1008.4219,491.9189 1008.2188,491.7158 Q1008.0156,491.5283 1007.9063,491.0127 Q1007.8594,490.6533 1007.6719,490.4658 Q1007.3438,490.0908 1006.7344,489.8721 Q1006.125,489.6533 1005.5,489.6533 Q1004.7344,489.6533 1004.0938,489.9814 Q1003.4688,490.3096 1002.9688,491.0596 Q1002.4844,491.8096 1002.4844,492.8408 L1002.4844,493.9346 Q1002.4844,495.1689 1003.375,495.9971 Q1004.2656,496.8096 1005.8594,496.8096 Q1006.7969,496.8096 1007.4531,496.5596 Q1007.8438,496.4033 1008.2656,495.9658 Q1008.5313,495.7002 1008.6719,495.6221 Q1008.8281,495.5439 1009.0313,495.5439 Q1009.3594,495.5439 1009.6094,495.8096 Q1009.875,496.0596 1009.875,496.4033 Q1009.875,496.7471 1009.5313,497.1533 Q1009.0313,497.7314 1008.2344,498.0596 Q1007.1563,498.5127 1005.8594,498.5127 Q1004.3438,498.5127 1003.1406,497.8877 Q1002.1563,497.3877 1001.4688,496.3252 Q1000.7813,495.2471 1000.7813,493.9658 L1000.7813,492.8096 Q1000.7813,491.4814 1001.3906,490.3408 Q1002.0156,489.1846 1003.1094,488.5752 Q1004.2031,487.9502 1005.4375,487.9502 Q1006.1719,487.9502 1006.8125,488.1221 Q1007.4688,488.2783 1008.0156,488.6377 Z " fill="#000000"/><text fill="#000000" font-family="sans-serif" font-size="14" lengthAdjust="spacing" textLength="80" x="1025.75" y="498.5596">Organization</text><line style="stroke:#181818;stroke-width:0.5;" x1="786" x2="1313" y1="508.7627" y2="508.7627"/><text fill="#000000" font-family="sans-serif" font-size="14" lengthAdjust="spacing" textLength="81" x="791" y="527.8701">-String name</text><text fill="#000000" font-family="sans-serif" font-size="14" lengthAdjust="spacing" textLength="114" x="791" y="546.4912">-String vatNumber</text><text fill="#000000" font-family="sans-serif" font-size="14" lengthAdjust="spacing" textLength="93" x="791" y="565.1123">-String website</text><text fill="#000000" font-family="sans-serif" font-size="14" lengthAdjust="spacing" textLength="86" x="791" y="583.7334">-String phone</text><text fill="#000000" font-family="sans-serif" font-size="14" lengthAdjust="spacing" textLength="79" x="791" y="602.3545">-String email</text><line style="stroke:#181818;stroke-width:0.5;" x1="786" x2="1313" y1="609.8682" y2="609.8682"/><text fill="#000000" font-family="sans-serif" font-size="14" lengthAdjust="spacing" textLength="87" x="791" y="628.9756">-addSkill(skill)</text><text fill="#000000" font-family="sans-serif" font-size="14" lengthAdjust="spacing" textLength="112" x="791" y="647.5967">-validateSkill(skill)</text><text fill="#000000" font-family="sans-serif" font-size="14" lengthAdjust="spacing" textLength="194" x="791" y="666.2178">+anyEmployeeHasEmail(email)</text><text fill="#000000" font-family="sans-serif" font-size="14" lengthAdjust="spacing" textLength="517" x="791" y="684.8389">+Organization(name, vatNumber, webSite, phone, email, postalAddress, manager)</text><text fill="#000000" font-family="sans-serif" font-size="14" lengthAdjust="spacing" textLength="126" x="791" y="703.46">+registerSkill(name)</text><text fill="#000000" font-family="sans-serif" font-size="14" lengthAdjust="spacing" textLength="180" x="791" y="722.0811">-getEmployeeByEmail(email)</text></g><!--class SkillRepository--><g id="elem_SkillRepository"><rect codeLine="54" fill="#F1F1F1" height="66.6211" id="SkillRepository" rx="2.5" ry="2.5" style="stroke:#181818;stroke-width:0.5;" width="295" x="420" y="321.7627"/><ellipse cx="516.75" cy="337.7627" fill="#ADD1B2" rx="11" ry="11" style="stroke:#181818;stroke-width:1.0;"/><path d="M519.5156,333.6377 Q519.6719,333.4189 519.8594,333.3096 Q520.0469,333.2002 520.2656,333.2002 Q520.6406,333.2002 520.875,333.4658 Q521.1094,333.7158 521.1094,334.3252 L521.1094,335.7783 Q521.1094,336.3877 520.875,336.6533 Q520.6406,336.9189 520.2656,336.9189 Q519.9219,336.9189 519.7188,336.7158 Q519.5156,336.5283 519.4063,336.0127 Q519.3594,335.6533 519.1719,335.4658 Q518.8438,335.0908 518.2344,334.8721 Q517.625,334.6533 517,334.6533 Q516.2344,334.6533 515.5938,334.9814 Q514.9688,335.3096 514.4688,336.0596 Q513.9844,336.8096 513.9844,337.8408 L513.9844,338.9346 Q513.9844,340.1689 514.875,340.9971 Q515.7656,341.8096 517.3594,341.8096 Q518.2969,341.8096 518.9531,341.5596 Q519.3438,341.4033 519.7656,340.9658 Q520.0313,340.7002 520.1719,340.6221 Q520.3281,340.5439 520.5313,340.5439 Q520.8594,340.5439 521.1094,340.8096 Q521.375,341.0596 521.375,341.4033 Q521.375,341.7471 521.0313,342.1533 Q520.5313,342.7314 519.7344,343.0596 Q518.6563,343.5127 517.3594,343.5127 Q515.8438,343.5127 514.6406,342.8877 Q513.6563,342.3877 512.9688,341.3252 Q512.2813,340.2471 512.2813,338.9658 L512.2813,337.8096 Q512.2813,336.4814 512.8906,335.3408 Q513.5156,334.1846 514.6094,333.5752 Q515.7031,332.9502 516.9375,332.9502 Q517.6719,332.9502 518.3125,333.1221 Q518.9688,333.2783 519.5156,333.6377 Z " fill="#000000"/><text fill="#000000" font-family="sans-serif" font-size="14" lengthAdjust="spacing" textLength="93" x="537.25" y="343.5596">SkillRepository</text><line style="stroke:#181818;stroke-width:0.5;" x1="421" x2="714" y1="353.7627" y2="353.7627"/><line style="stroke:#181818;stroke-width:0.5;" x1="421" x2="714" y1="361.7627" y2="361.7627"/><text fill="#000000" font-family="sans-serif" font-size="14" lengthAdjust="spacing" textLength="283" x="426" y="380.8701">+getTaskCategoryByDescription(description)</text></g><!--class OrganizationRepository--><g id="elem_OrganizationRepository"><rect codeLine="58" fill="#F1F1F1" height="66.6211" id="OrganizationRepository" rx="2.5" ry="2.5" style="stroke:#181818;stroke-width:0.5;" width="275" x="904" y="321.7627"/><ellipse cx="963.25" cy="337.7627" fill="#ADD1B2" rx="11" ry="11" style="stroke:#181818;stroke-width:1.0;"/><path d="M966.0156,333.6377 Q966.1719,333.4189 966.3594,333.3096 Q966.5469,333.2002 966.7656,333.2002 Q967.1406,333.2002 967.375,333.4658 Q967.6094,333.7158 967.6094,334.3252 L967.6094,335.7783 Q967.6094,336.3877 967.375,336.6533 Q967.1406,336.9189 966.7656,336.9189 Q966.4219,336.9189 966.2188,336.7158 Q966.0156,336.5283 965.9063,336.0127 Q965.8594,335.6533 965.6719,335.4658 Q965.3438,335.0908 964.7344,334.8721 Q964.125,334.6533 963.5,334.6533 Q962.7344,334.6533 962.0938,334.9814 Q961.4688,335.3096 960.9688,336.0596 Q960.4844,336.8096 960.4844,337.8408 L960.4844,338.9346 Q960.4844,340.1689 961.375,340.9971 Q962.2656,341.8096 963.8594,341.8096 Q964.7969,341.8096 965.4531,341.5596 Q965.8438,341.4033 966.2656,340.9658 Q966.5313,340.7002 966.6719,340.6221 Q966.8281,340.5439 967.0313,340.5439 Q967.3594,340.5439 967.6094,340.8096 Q967.875,341.0596 967.875,341.4033 Q967.875,341.7471 967.5313,342.1533 Q967.0313,342.7314 966.2344,343.0596 Q965.1563,343.5127 963.8594,343.5127 Q962.3438,343.5127 961.1406,342.8877 Q960.1563,342.3877 959.4688,341.3252 Q958.7813,340.2471 958.7813,338.9658 L958.7813,337.8096 Q958.7813,336.4814 959.3906,335.3408 Q960.0156,334.1846 961.1094,333.5752 Q962.2031,332.9502 963.4375,332.9502 Q964.1719,332.9502 964.8125,333.1221 Q965.4688,333.2783 966.0156,333.6377 Z " fill="#000000"/><text fill="#000000" font-family="sans-serif" font-size="14" lengthAdjust="spacing" textLength="148" x="983.75" y="343.5596">OrganizationRepository</text><line style="stroke:#181818;stroke-width:0.5;" x1="905" x2="1178" y1="353.7627" y2="353.7627"/><line style="stroke:#181818;stroke-width:0.5;" x1="905" x2="1178" y1="361.7627" y2="361.7627"/><text fill="#000000" font-family="sans-serif" font-size="14" lengthAdjust="spacing" textLength="263" x="910" y="380.8701">+getOrganizationByEmployeeEmail(email)</text></g><!--class Repositories--><g id="elem_Repositories"><rect codeLine="62" fill="#F1F1F1" height="122.4844" id="Repositories" rx="2.5" ry="2.5" style="stroke:#181818;stroke-width:0.5;" width="207" x="918" y="83.7627"/><ellipse cx="977.75" cy="99.7627" fill="#ADD1B2" rx="11" ry="11" style="stroke:#181818;stroke-width:1.0;"/><path d="M980.5156,95.6377 Q980.6719,95.4189 980.8594,95.3096 Q981.0469,95.2002 981.2656,95.2002 Q981.6406,95.2002 981.875,95.4658 Q982.1094,95.7158 982.1094,96.3252 L982.1094,97.7783 Q982.1094,98.3877 981.875,98.6533 Q981.6406,98.9189 981.2656,98.9189 Q980.9219,98.9189 980.7188,98.7158 Q980.5156,98.5283 980.4063,98.0127 Q980.3594,97.6533 980.1719,97.4658 Q979.8438,97.0908 979.2344,96.8721 Q978.625,96.6533 978,96.6533 Q977.2344,96.6533 976.5938,96.9814 Q975.9688,97.3096 975.4688,98.0596 Q974.9844,98.8096 974.9844,99.8408 L974.9844,100.9346 Q974.9844,102.1689 975.875,102.9971 Q976.7656,103.8096 978.3594,103.8096 Q979.2969,103.8096 979.9531,103.5596 Q980.3438,103.4033 980.7656,102.9658 Q981.0313,102.7002 981.1719,102.6221 Q981.3281,102.5439 981.5313,102.5439 Q981.8594,102.5439 982.1094,102.8096 Q982.375,103.0596 982.375,103.4033 Q982.375,103.7471 982.0313,104.1533 Q981.5313,104.7314 980.7344,105.0596 Q979.6563,105.5127 978.3594,105.5127 Q976.8438,105.5127 975.6406,104.8877 Q974.6563,104.3877 973.9688,103.3252 Q973.2813,102.2471 973.2813,100.9658 L973.2813,99.8096 Q973.2813,98.4814 973.8906,97.3408 Q974.5156,96.1846 975.6094,95.5752 Q976.7031,94.9502 977.9375,94.9502 Q978.6719,94.9502 979.3125,95.1221 Q979.9688,95.2783 980.5156,95.6377 Z " fill="#000000"/><text fill="#000000" font-family="sans-serif" font-size="14" lengthAdjust="spacing" textLength="79" x="998.25" y="105.5596">Repositories</text><line style="stroke:#181818;stroke-width:0.5;" x1="919" x2="1124" y1="115.7627" y2="115.7627"/><line style="stroke:#181818;stroke-width:0.5;" x1="919" x2="1124" y1="123.7627" y2="123.7627"/><text fill="#000000" font-family="sans-serif" font-size="14" lengthAdjust="spacing" textLength="94" x="924" y="142.8701">-Repositories()</text><text fill="#000000" font-family="sans-serif" font-size="14" lengthAdjust="spacing" textLength="182" x="924" y="161.4912">+getInstance() : Repositories</text><text fill="#000000" font-family="sans-serif" font-size="14" lengthAdjust="spacing" textLength="195" x="924" y="180.1123">+getTaskCategoryRepository()</text><text fill="#000000" font-family="sans-serif" font-size="14" lengthAdjust="spacing" textLength="186" x="924" y="198.7334">+getOrganizationRepository()</text></g><!--class RegisterSkillsController--><g id="elem_RegisterSkillsController"><rect codeLine="69" fill="#F1F1F1" height="178.3477" id="RegisterSkillsController" rx="2.5" ry="2.5" style="stroke:#181818;stroke-width:0.5;" width="482" x="171.5" y="55.7627"/><ellipse cx="334.75" cy="71.7627" fill="#ADD1B2" rx="11" ry="11" style="stroke:#181818;stroke-width:1.0;"/><path d="M337.5156,67.6377 Q337.6719,67.4189 337.8594,67.3096 Q338.0469,67.2002 338.2656,67.2002 Q338.6406,67.2002 338.875,67.4658 Q339.1094,67.7158 339.1094,68.3252 L339.1094,69.7783 Q339.1094,70.3877 338.875,70.6533 Q338.6406,70.9189 338.2656,70.9189 Q337.9219,70.9189 337.7188,70.7158 Q337.5156,70.5283 337.4063,70.0127 Q337.3594,69.6533 337.1719,69.4658 Q336.8438,69.0908 336.2344,68.8721 Q335.625,68.6533 335,68.6533 Q334.2344,68.6533 333.5938,68.9814 Q332.9688,69.3096 332.4688,70.0596 Q331.9844,70.8096 331.9844,71.8408 L331.9844,72.9346 Q331.9844,74.1689 332.875,74.9971 Q333.7656,75.8096 335.3594,75.8096 Q336.2969,75.8096 336.9531,75.5596 Q337.3438,75.4033 337.7656,74.9658 Q338.0313,74.7002 338.1719,74.6221 Q338.3281,74.5439 338.5313,74.5439 Q338.8594,74.5439 339.1094,74.8096 Q339.375,75.0596 339.375,75.4033 Q339.375,75.7471 339.0313,76.1533 Q338.5313,76.7314 337.7344,77.0596 Q336.6563,77.5127 335.3594,77.5127 Q333.8438,77.5127 332.6406,76.8877 Q331.6563,76.3877 330.9688,75.3252 Q330.2813,74.2471 330.2813,72.9658 L330.2813,71.8096 Q330.2813,70.4814 330.8906,69.3408 Q331.5156,68.1846 332.6094,67.5752 Q333.7031,66.9502 334.9375,66.9502 Q335.6719,66.9502 336.3125,67.1221 Q336.9688,67.2783 337.5156,67.6377 Z " fill="#000000"/><text fill="#000000" font-family="sans-serif" font-size="14" lengthAdjust="spacing" textLength="147" x="355.25" y="77.5596">RegisterSkillsController</text><line style="stroke:#181818;stroke-width:0.5;" x1="172.5" x2="652.5" y1="87.7627" y2="87.7627"/><line style="stroke:#181818;stroke-width:0.5;" x1="172.5" x2="652.5" y1="95.7627" y2="95.7627"/><text fill="#000000" font-family="sans-serif" font-size="14" lengthAdjust="spacing" textLength="470" x="177.5" y="114.8701">+RegisterSkillsController(organizationRepository, taskCategoryRepository)</text><text fill="#000000" font-family="sans-serif" font-size="14" lengthAdjust="spacing" textLength="138" x="177.5" y="133.4912">+getTaskCategories()</text><text fill="#000000" font-family="sans-serif" font-size="14" lengthAdjust="spacing" textLength="296" x="177.5" y="152.1123">+createTask(userEmail, reference, description,</text><text fill="#000000" font-family="sans-serif" font-size="14" lengthAdjust="spacing" textLength="260" x="177.5" y="170.7334">informalDescription, technicalDescription,</text><text fill="#000000" font-family="sans-serif" font-size="14" lengthAdjust="spacing" textLength="225" x="177.5" y="189.3545">duration, cost, categoryDescription)</text><text fill="#000000" font-family="sans-serif" font-size="14" lengthAdjust="spacing" textLength="366" x="177.5" y="207.9756">-getTaskCategoryByDescription(taskCategoryDescription)</text><text fill="#000000" font-family="sans-serif" font-size="14" lengthAdjust="spacing" textLength="180" x="177.5" y="226.5967">-getEmployeeFromSession()</text></g><g id="elem_GMN11"><path d="M688.5,105.2627 L688.5,184.4268 L882.5,184.4268 L882.5,115.2627 L872.5,105.2627 L688.5,105.2627 " fill="#FEFFDD" style="stroke:#181818;stroke-width:0.5;"/><path d="M872.5,105.2627 L872.5,115.2627 L882.5,115.2627 L872.5,105.2627 " fill="#FEFFDD" style="stroke:#181818;stroke-width:1.0;"/><text fill="#000000" font-family="sans-serif" font-size="13" lengthAdjust="spacing" textLength="133" x="694.5" y="124.291">- userEmail is obtained</text><text fill="#000000" font-family="sans-serif" font-size="13" lengthAdjust="spacing" textLength="125" x="694.5" y="141.582">from the user session</text><text fill="#000000" font-family="sans-serif" font-size="13" lengthAdjust="spacing" textLength="123" x="694.5" y="158.873">- categoryDescription</text><text fill="#000000" font-family="sans-serif" font-size="13" lengthAdjust="spacing" textLength="173" x="694.5" y="176.1641">is retrieved from selected data</text></g><g id="elem_GMN14"><path d="M613,580.7627 L613,625.3447 A0,0 0 0 0 613,625.3447 L750,625.3447 A0,0 0 0 0 750,625.3447 L750,590.7627 L740,580.7627 L675.51,580.7627 L582.64,388.9327 L667.51,580.7627 L613,580.7627 A0,0 0 0 0 613,580.7627 " fill="#FEFFDD" style="stroke:#181818;stroke-width:0.5;"/><path d="M740,580.7627 L740,590.7627 L750,590.7627 L740,580.7627 " fill="#FEFFDD" style="stroke:#181818;stroke-width:0.5;"/><text fill="#000000" font-family="sans-serif" font-size="13" lengthAdjust="spacing" textLength="116" x="619" y="599.791">- used for displaying</text><text fill="#000000" font-family="sans-serif" font-size="13" lengthAdjust="spacing" textLength="93" x="619" y="617.082">the category list</text></g><!--class RegisterSkillsUI--><g id="elem_RegisterSkillsUI"><rect codeLine="89" fill="#F1F1F1" height="48" id="RegisterSkillsUI" rx="2.5" ry="2.5" style="stroke:#181818;stroke-width:0.5;" width="129" x="7" y="120.7627"/><ellipse cx="22" cy="136.7627" fill="#ADD1B2" rx="11" ry="11" style="stroke:#181818;stroke-width:1.0;"/><path d="M24.7656,132.6377 Q24.9219,132.4189 25.1094,132.3096 Q25.2969,132.2002 25.5156,132.2002 Q25.8906,132.2002 26.125,132.4658 Q26.3594,132.7158 26.3594,133.3252 L26.3594,134.7783 Q26.3594,135.3877 26.125,135.6533 Q25.8906,135.9189 25.5156,135.9189 Q25.1719,135.9189 24.9688,135.7158 Q24.7656,135.5283 24.6563,135.0127 Q24.6094,134.6533 24.4219,134.4658 Q24.0938,134.0908 23.4844,133.8721 Q22.875,133.6533 22.25,133.6533 Q21.4844,133.6533 20.8438,133.9814 Q20.2188,134.3096 19.7188,135.0596 Q19.2344,135.8096 19.2344,136.8408 L19.2344,137.9346 Q19.2344,139.1689 20.125,139.9971 Q21.0156,140.8096 22.6094,140.8096 Q23.5469,140.8096 24.2031,140.5596 Q24.5938,140.4033 25.0156,139.9658 Q25.2813,139.7002 25.4219,139.6221 Q25.5781,139.5439 25.7813,139.5439 Q26.1094,139.5439 26.3594,139.8096 Q26.625,140.0596 26.625,140.4033 Q26.625,140.7471 26.2813,141.1533 Q25.7813,141.7314 24.9844,142.0596 Q23.9063,142.5127 22.6094,142.5127 Q21.0938,142.5127 19.8906,141.8877 Q18.9063,141.3877 18.2188,140.3252 Q17.5313,139.2471 17.5313,137.9658 L17.5313,136.8096 Q17.5313,135.4814 18.1406,134.3408 Q18.7656,133.1846 19.8594,132.5752 Q20.9531,131.9502 22.1875,131.9502 Q22.9219,131.9502 23.5625,132.1221 Q24.2188,132.2783 24.7656,132.6377 Z " fill="#000000"/><text fill="#000000" font-family="sans-serif" font-size="14" lengthAdjust="spacing" textLength="97" x="36" y="142.5596">RegisterSkillsUI</text><line style="stroke:#181818;stroke-width:0.5;" x1="8" x2="135" y1="152.7627" y2="152.7627"/><line style="stroke:#181818;stroke-width:0.5;" x1="8" x2="135" y1="160.7627" y2="160.7627"/></g><!--class Task--><g id="elem_Task"><rect fill="#F1F1F1" height="48" id="Task" rx="2.5" ry="2.5" style="stroke:#181818;stroke-width:0.5;" width="63" x="515" y="579.2627"/><ellipse cx="530" cy="595.2627" fill="#ADD1B2" rx="11" ry="11" style="stroke:#181818;stroke-width:1.0;"/><path d="M532.7656,591.1377 Q532.9219,590.9189 533.1094,590.8096 Q533.2969,590.7002 533.5156,590.7002 Q533.8906,590.7002 534.125,590.9658 Q534.3594,591.2158 534.3594,591.8252 L534.3594,593.2783 Q534.3594,593.8877 534.125,594.1533 Q533.8906,594.4189 533.5156,594.4189 Q533.1719,594.4189 532.9688,594.2158 Q532.7656,594.0283 532.6563,593.5127 Q532.6094,593.1533 532.4219,592.9658 Q532.0938,592.5908 531.4844,592.3721 Q530.875,592.1533 530.25,592.1533 Q529.4844,592.1533 528.8438,592.4814 Q528.2188,592.8096 527.7188,593.5596 Q527.2344,594.3096 527.2344,595.3408 L527.2344,596.4346 Q527.2344,597.6689 528.125,598.4971 Q529.0156,599.3096 530.6094,599.3096 Q531.5469,599.3096 532.2031,599.0596 Q532.5938,598.9033 533.0156,598.4658 Q533.2813,598.2002 533.4219,598.1221 Q533.5781,598.0439 533.7813,598.0439 Q534.1094,598.0439 534.3594,598.3096 Q534.625,598.5596 534.625,598.9033 Q534.625,599.2471 534.2813,599.6533 Q533.7813,600.2314 532.9844,600.5596 Q531.9063,601.0127 530.6094,601.0127 Q529.0938,601.0127 527.8906,600.3877 Q526.9063,599.8877 526.2188,598.8252 Q525.5313,597.7471 525.5313,596.4658 L525.5313,595.3096 Q525.5313,593.9814 526.1406,592.8408 Q526.7656,591.6846 527.8594,591.0752 Q528.9531,590.4502 530.1875,590.4502 Q530.9219,590.4502 531.5625,590.6221 Q532.2188,590.7783 532.7656,591.1377 Z " fill="#000000"/><text fill="#000000" font-family="sans-serif" font-size="14" lengthAdjust="spacing" textLength="31" x="544" y="601.0596">Task</text><line style="stroke:#181818;stroke-width:0.5;" x1="516" x2="577" y1="611.2627" y2="611.2627"/><line style="stroke:#181818;stroke-width:0.5;" x1="516" x2="577" y1="619.2627" y2="619.2627"/></g><!--link RegisterSkillsController to GMN11--><g id="link_RegisterSkillsController_GMN11"><path d="M653.76,144.7627 C658.43,144.7627 661.17,144.7627 661.17,144.7627 C661.17,144.7627 672.56,144.7627 688.45,144.7627 " fill="none" id="RegisterSkillsController-GMN11" style="stroke:#181818;stroke-width:1.0;stroke-dasharray:7.0,7.0;"/></g><!--link Repositories to Repositories--><g id="link_Repositories_Repositories"><path codeLine="92" d="M1125.09,121.7927 C1145.49,124.4227 1160,132.0727 1160,144.7627 C1160,157.4527 1151.4408,164.3355 1131.0408,166.9655 " fill="none" id="Repositories-to-Repositories" style="stroke:#181818;stroke-width:1.0;"/><polygon fill="#181818" points="1125.09,167.7327,1134.5276,170.5491,1130.049,167.0934,1133.5047,162.6148,1125.09,167.7327" style="stroke:#181818;stroke-width:1.0;"/><text fill="#000000" font-family="sans-serif" font-size="13" lengthAdjust="spacing" textLength="49" x="1166" y="150.291">instance</text></g><!--link ApplicationSession to ApplicationSession--><g id="link_ApplicationSession_ApplicationSession"><path codeLine="93" d="M234.16,340.0327 C254,340.9327 269,346.0127 269,355.2627 C269,364.5127 259.9938,369.3208 240.1538,370.2208 " fill="none" id="ApplicationSession-to-ApplicationSession" style="stroke:#181818;stroke-width:1.0;"/><polygon fill="#181818" points="234.16,370.4927,243.332,374.0807,239.1549,370.2661,242.9695,366.089,234.16,370.4927" style="stroke:#181818;stroke-width:1.0;"/><text fill="#000000" font-family="sans-serif" font-size="13" lengthAdjust="spacing" textLength="49" x="275" y="360.791">instance</text></g><!--link RegisterSkillsUI to RegisterSkillsController--><g id="link_RegisterSkillsUI_RegisterSkillsController"><path codeLine="95" d="M136.3,144.7627 C149.46,144.7627 156.04,144.7627 165.14,144.7627 " fill="none" id="RegisterSkillsUI-to-RegisterSkillsController" style="stroke:#181818;stroke-width:1.0;stroke-dasharray:7.0,7.0;"/><polygon fill="#181818" points="171.14,144.7627,162.14,140.7627,166.14,144.7627,162.14,148.7627,171.14,144.7627" style="stroke:#181818;stroke-width:1.0;"/></g><!--link RegisterSkillsController to Repositories--><g id="link_RegisterSkillsController_Repositories"><path codeLine="97" d="M653.55,61.4427 C708.46,42.4627 751,27.7627 751,27.7627 C751,27.7627 820,27.7627 820,27.7627 C820,27.7627 900.5,55.7627 900.5,55.7627 C900.5,55.7627 912.507,64.5972 933.617,80.1272 " fill="none" id="RegisterSkillsController-to-Repositories" style="stroke:#181818;stroke-width:1.0;stroke-dasharray:7.0,7.0;"/><polygon fill="#181818" points="938.45,83.6827,933.5708,75.1274,934.4225,80.7198,928.8301,81.5714,938.45,83.6827" style="stroke:#181818;stroke-width:1.0;"/><text fill="#000000" font-family="sans-serif" font-size="13" lengthAdjust="spacing" textLength="67" x="752" y="21.791">repositories</text></g><!--link Repositories to SkillRepository--><g id="link_Repositories_SkillRepository"><path codeLine="99" d="M1002.64,205.8527 C991.09,242.6627 978.5,282.7627 978.5,282.7627 C978.5,282.7627 742.5,312.7627 742.5,312.7627 C742.5,312.7627 732.7084,315.0897 710.7984,320.2797 " fill="none" id="Repositories-to-SkillRepository" style="stroke:#181818;stroke-width:1.0;"/><polygon fill="#181818" points="704.96,321.6627,714.6397,323.4805,709.8254,320.5102,712.7957,315.6959,704.96,321.6627" style="stroke:#181818;stroke-width:1.0;"/><text fill="#000000" font-family="sans-serif" font-size="13" lengthAdjust="spacing" textLength="7" x="722.6589" y="310.9906">1</text></g><!--link RegisterSkillsController to Skill--><g id="link_RegisterSkillsController_Skill"><path codeLine="101" d="M407.21,234.1527 C404.81,274.2127 402.5,312.7627 402.5,312.7627 C402.5,312.7627 402.5,397.7627 402.5,397.7627 C402.5,397.7627 464.5,729.7627 464.5,729.7627 C464.5,729.7627 484.5,778.7627 484.5,778.7627 C484.5,778.7627 492.8592,788.4096 506.4992,804.1396 " fill="none" id="RegisterSkillsController-to-Skill" style="stroke:#181818;stroke-width:1.0;stroke-dasharray:7.0,7.0;"/><polygon fill="#181818" points="510.43,808.6727,507.5559,799.2525,507.1543,804.8951,501.5118,804.4936,510.43,808.6727" style="stroke:#181818;stroke-width:1.0;"/></g><!--link RegisterSkillsController to OrganizationRepository--><g id="link_RegisterSkillsController_OrganizationRepository"><path codeLine="102" d="M653.7,227.7127 C664.86,231.5027 671.5,233.7627 671.5,233.7627 C671.5,233.7627 804.5,263.7627 804.5,263.7627 C804.5,263.7627 882.7249,293.6318 950.6649,319.5818 " fill="none" id="RegisterSkillsController-to-OrganizationRepository" style="stroke:#181818;stroke-width:1.0;stroke-dasharray:7.0,7.0;"/><polygon fill="#181818" points="956.27,321.7227,949.2897,314.7747,951.5991,319.9386,946.4352,322.2481,956.27,321.7227" style="stroke:#181818;stroke-width:1.0;"/><text fill="#000000" font-family="sans-serif" font-size="13" lengthAdjust="spacing" textLength="132" x="850.5" y="278.791">organizationRepository</text></g><!--link RegisterSkillsController to SkillRepository--><g id="link_RegisterSkillsController_SkillRepository"><path codeLine="103" d="M478.01,233.8827 C501.14,265.0027 522.1609,293.2671 539.7009,316.8671 " fill="none" id="RegisterSkillsController-to-SkillRepository" style="stroke:#181818;stroke-width:1.0;stroke-dasharray:7.0,7.0;"/><polygon fill="#181818" points="543.28,321.6827,541.1218,312.0732,540.2974,317.6697,534.701,316.8453,543.28,321.6827" style="stroke:#181818;stroke-width:1.0;"/><text fill="#000000" font-family="sans-serif" font-size="13" lengthAdjust="spacing" textLength="87" x="514.5" y="278.791">SkillRepository</text></g><!--link Repositories to OrganizationRepository--><g id="link_Repositories_OrganizationRepository"><path codeLine="105" d="M1027.26,205.7927 C1030.87,243.4427 1034.8182,284.58 1037.7782,315.5 " fill="none" id="Repositories-to-OrganizationRepository" style="stroke:#181818;stroke-width:1.0;"/><polygon fill="#181818" points="1038.35,321.4727,1041.4741,312.1325,1037.8735,316.4955,1033.5105,312.8948,1038.35,321.4727" style="stroke:#181818;stroke-width:1.0;"/><text fill="#000000" font-family="sans-serif" font-size="13" lengthAdjust="spacing" textLength="7" x="1030.0823" y="310.5033">1</text></g><!--link OrganizationRepository to Organization--><g id="link_OrganizationRepository_Organization"><path codeLine="107" d="M1042.56,388.9327 C1043.31,411.8627 1044.1645,438.1459 1045.2245,470.6659 " fill="none" id="OrganizationRepository-to-Organization" style="stroke:#181818;stroke-width:1.0;"/><polygon fill="#181818" points="1045.42,476.6627,1049.1247,467.5372,1045.2571,471.6653,1041.1289,467.7978,1045.42,476.6627" style="stroke:#181818;stroke-width:1.0;"/><text fill="#000000" font-family="sans-serif" font-size="13" lengthAdjust="spacing" textLength="5" x="1040.019" y="465.4723">*</text></g><!--link ApplicationSession to UserSession--><g id="link_ApplicationSession_UserSession"><path codeLine="108" d="M144.59,397.9927 C128.46,446.3827 104.1081,519.4509 89.3481,563.7109 " fill="none" id="ApplicationSession-to-UserSession" style="stroke:#181818;stroke-width:1.0;"/><polygon fill="#181818" points="87.45,569.4027,94.0918,562.1304,89.0318,564.6595,86.5026,559.5995,87.45,569.4027" style="stroke:#181818;stroke-width:1.0;"/><text fill="#000000" font-family="sans-serif" font-size="13" lengthAdjust="spacing" textLength="72" x="135.5" y="442.791">userSession</text><text fill="#000000" font-family="sans-serif" font-size="13" lengthAdjust="spacing" textLength="7" x="81.8702" y="558.42">1</text></g><!--link RegisterSkillsController to Organization--><g id="link_RegisterSkillsController_Organization"><path codeLine="110" d="M581.4,233.9127 C658.33,274.0527 732.5,312.7627 732.5,312.7627 C732.5,312.7627 814.5,397.7627 814.5,397.7627 C814.5,397.7627 851.9936,430.3942 900.4936,472.5942 " fill="none" id="RegisterSkillsController-to-Organization" style="stroke:#181818;stroke-width:1.0;stroke-dasharray:7.0,7.0;"/><polygon fill="#181818" points="905.02,476.5327,900.856,467.6074,901.248,473.2506,895.6047,473.6426,905.02,476.5327" style="stroke:#181818;stroke-width:1.0;"/><text fill="#000000" font-family="sans-serif" font-size="13" lengthAdjust="spacing" textLength="70" x="815.5" y="360.791">organization</text><text fill="#000000" font-family="sans-serif" font-size="13" lengthAdjust="spacing" textLength="7" x="889.0025" y="465.3344">1</text></g><!--link RegisterSkillsController to ApplicationSession--><g id="link_RegisterSkillsController_ApplicationSession"><path codeLine="111" d="M305.15,233.8827 C271.84,261.2227 241.3282,286.2765 213.7882,308.8765 " fill="none" id="RegisterSkillsController-to-ApplicationSession" style="stroke:#181818;stroke-width:1.0;stroke-dasharray:7.0,7.0;"/><polygon fill="#181818" points="209.15,312.6827,218.6448,310.0655,213.0152,309.5109,213.5698,303.8813,209.15,312.6827" style="stroke:#181818;stroke-width:1.0;"/></g><!--link RegisterSkillsController to UserSession--><g id="link_RegisterSkillsController_UserSession"><path codeLine="112" d="M229.6,233.7827 C146.09,273.9727 65.5,312.7627 65.5,312.7627 C65.5,312.7627 65.5,397.7627 65.5,397.7627 C65.5,397.7627 71.2976,505.6114 74.4076,563.4114 " fill="none" id="RegisterSkillsController-to-UserSession" style="stroke:#181818;stroke-width:1.0;stroke-dasharray:7.0,7.0;"/><polygon fill="#181818" points="74.73,569.4027,78.2407,560.2008,74.4614,564.4099,70.2522,560.6306,74.73,569.4027" style="stroke:#181818;stroke-width:1.0;"/></g><!--link Task to Skill--><g id="link_Task_Skill"><path codeLine="113" d="M546.5,627.4027 C546.5,668.9127 546.5,750.5227 546.5,802.6727 " fill="none" id="Task-to-Skill" style="stroke:#181818;stroke-width:1.0;"/><polygon fill="#181818" points="546.5,808.6727,550.5,799.6727,546.5,803.6727,542.5,799.6727,546.5,808.6727" style="stroke:#181818;stroke-width:1.0;"/><text fill="#000000" font-family="sans-serif" font-size="13" lengthAdjust="spacing" textLength="23" x="547.5" y="774.791">skill</text><text fill="#000000" font-family="sans-serif" font-size="13" lengthAdjust="spacing" textLength="5" x="540.8906" y="649.4225">*</text><text fill="#000000" font-family="sans-serif" font-size="13" lengthAdjust="spacing" textLength="7" x="538.9422" y="797.5624">1</text></g><!--link SkillRepository to Skill--><g id="link_SkillRepository_Skill"><path codeLine="114" d="M541.79,388.8727 C513.66,424.5627 472.5,476.7627 472.5,476.7627 C472.5,476.7627 472.5,729.7627 472.5,729.7627 C472.5,729.7627 496.3092,768.5404 517.6892,803.3404 " fill="none" id="SkillRepository-to-Skill" style="stroke:#181818;stroke-width:1.0;"/><polygon fill="#181818" points="520.83,808.4527,519.527,798.6904,518.2127,804.1925,512.7106,802.8782,520.83,808.4527" style="stroke:#181818;stroke-width:1.0;"/><text fill="#000000" font-family="sans-serif" font-size="13" lengthAdjust="spacing" textLength="23" x="473.5" y="608.791">skill</text><text fill="#000000" font-family="sans-serif" font-size="13" lengthAdjust="spacing" textLength="7" x="529.587" y="410.4615">1</text><text fill="#000000" font-family="sans-serif" font-size="13" lengthAdjust="spacing" textLength="5" x="511.5165" y="797.6279">*</text></g><!--link Organization to Skill--><g id="link_Organization_Skill"><path codeLine="115" d="M792.84,729.7827 C722.36,764.2527 657.8103,795.8274 610.5603,818.9274 " fill="none" id="Organization-to-Skill" style="stroke:#181818;stroke-width:1.0;"/><polygon fill="#181818" points="605.17,821.5627,615.0123,821.2033,609.6619,819.3666,611.4986,814.0163,605.17,821.5627" style="stroke:#181818;stroke-width:1.0;"/><text fill="#000000" font-family="sans-serif" font-size="13" lengthAdjust="spacing" textLength="30" x="724.5" y="774.791">skills</text><text fill="#000000" font-family="sans-serif" font-size="13" lengthAdjust="spacing" textLength="7" x="770.7995" y="751.6301">1</text><text fill="#000000" font-family="sans-serif" font-size="13" lengthAdjust="spacing" textLength="5" x="613.0074" y="813.6998">*</text></g><!--link Skill to HRM--><g id="link_Skill_HRM"><path codeLine="116" d="M601.8,893.9627 C651.79,931.6427 718.929,982.2707 760.539,1013.6407 " fill="none" id="Skill-to-HRM" style="stroke:#181818;stroke-width:1.0;"/><polygon fill="#181818" points="765.33,1017.2527,760.5515,1008.6407,761.3375,1014.2427,755.7355,1015.0288,765.33,1017.2527" style="stroke:#181818;stroke-width:1.0;"/><text fill="#000000" font-family="sans-serif" font-size="13" lengthAdjust="spacing" textLength="73" x="665.5" y="938.791">registeredBy</text></g><!--link Organization to HRM--><g id="link_Organization_HRM"><path codeLine="118" d="M977.57,729.7727 C929.48,813.7027 871.4434,914.977 834.4834,979.467 " fill="none" id="Organization-to-HRM" style="stroke:#181818;stroke-width:1.0;"/><polygon fill="#181818" points="831.5,984.6727,839.4456,978.8531,833.9862,980.3346,832.5047,974.8752,831.5,984.6727" style="stroke:#181818;stroke-width:1.0;"/><text fill="#000000" font-family="sans-serif" font-size="13" lengthAdjust="spacing" textLength="49" x="928.5" y="856.791">employs</text><text fill="#000000" font-family="sans-serif" font-size="13" lengthAdjust="spacing" textLength="5" x="839.7094" y="966.2079">*</text></g><!--SRC=[ZLOzRzim4DtvAuWijXibQDSC0U8aHJoq1U9coq9BPvamHGeaxK0f-jzxf2YPaYcZ7WpfxjtJkm-UD3DxBckcMKKh9LM-qwe2QlK1oCbJitpFIbZRHW3La5icIn43p8uLweFBacwPCB57S0csgO7MIZJkXimIJgMj8b5KBfWn3zPglZbOMELAhladqA-4p0HiBRMAQbxkB2suayEL9CJ7q8Uw5ZndphG6Ovpd3w7ukwR6eZcd9TYLn6kPmtmHN6XxF6WDqeOWzFpjADyCw34N1ZZpSyMuYB4lhpzeYxcXabKGBi7XmdMj3FUAm-rEoGwsUZenhVTSY9vhZQN0wdhA8C43viR3dDsh2C6_TCaa__HbI78CB4TcVnwg3UYX-GCsg7I4ZUK6KvjSiB6YY8GjWlN812-OXJFNDMMoUQvgeHg05sRQWdh63X3dCdVYivFWp8bSeyYi5PQrOZ9NPCl4Gr5eR5n6AoPnVdL7gQ7anc9NlPosUArGx6kdPjaCn90PHXfsXD_CxESM_nQZPhs2RwtI3Ot6nC4VCVKIxSlc2KokUUrpAKxN4LMSRfenHYpxuWt4zcmz0mVJ3q9iZ8_0wLZGkm4edSr9NKoIrZyVQ8ggRnwLj5e90RhFSGemLqdkZDgagaLITfnphW6Dlg67xZHdE1rRm5MGupH5BShU9PTRfIiceYRYio7VITmu0-kxB0wQjO0SHn7_WxodkEdzp4qFIPnQEhORWE-ukGVRIoeBOKsgxMHH0r6VF-M6gerbk9eBxziYBxKxy11gmY9ien9PUGzoQC3j04SeMW830XSrtk4QO0HaGPsy87AZh4KCgXmTf9Cuf54Qrxsf1MjmwtYFKzL9m9U9iH5nQjRULZXZM9d1gRYv7vwIEyh3EI3dBnE7JbYZ67BsoDlxwUAJoSDmUoPBnoVoB8UhRrTdrRl0ZlJUU1aoiOpkQFea_iVp1Ym9lN5I8Qkq248cnFcmByEmP2S3VVHwHqc7w6L_EPsnj55LBWSdFbCkukDl4BSiV8OtSTlnyVwzIiPbTeYk9aFaGFqapBICtka-R-xwroSKor4RUeOM27ur6V8F]--></g></svg>