<?xml version="1.0" encoding="us-ascii" standalone="no"?><svg xmlns="http://www.w3.org/2000/svg" xmlns:xlink="http://www.w3.org/1999/xlink" contentStyleType="text/css" height="454px" preserveAspectRatio="none" style="width:1186px;height:454px;background:#FFFFFF;" version="1.1" viewBox="0 0 1186 454" width="1186px" zoomAndPan="magnify"><defs/><g><text fill="#000000" font-family="sans-serif" font-size="14" font-weight="bold" lengthAdjust="spacing" textLength="363" x="410.75" y="28.5352">System Sequence Diagram (SSD) - Alternative One</text><rect fill="#FFFFFF" height="235.4844" style="stroke:#181818;stroke-width:1.0;" width="10" x="96.5" y="128.9766"/><rect fill="#FFFFFF" height="29.3105" style="stroke:#181818;stroke-width:1.0;" width="10" x="1142.5" y="150.2871"/><rect fill="#FFFFFF" height="29.3105" style="stroke:#181818;stroke-width:1.0;" width="10" x="1142.5" y="208.9082"/><rect fill="#FFFFFF" height="29.3105" style="stroke:#181818;stroke-width:1.0;" width="10" x="1142.5" y="267.5293"/><rect fill="#FFFFFF" height="29.3105" style="stroke:#181818;stroke-width:1.0;" width="10" x="1142.5" y="326.1504"/><line style="stroke:#181818;stroke-width:0.5;stroke-dasharray:5.0,5.0;" x1="101" x2="101" y1="118.9766" y2="373.4609"/><line style="stroke:#181818;stroke-width:0.5;stroke-dasharray:5.0,5.0;" x1="1147.5" x2="1147.5" y1="118.9766" y2="373.4609"/><text fill="#000000" font-family="sans-serif" font-size="14" lengthAdjust="spacing" textLength="187" x="5" y="116.0234">Human Resources Manager</text><ellipse cx="101.5" cy="50.9883" fill="#E3E3E3" rx="8" ry="8" style="stroke:#181818;stroke-width:0.5;"/><path d="M101.5,58.9883 L101.5,85.9883 M88.5,66.9883 L114.5,66.9883 M101.5,85.9883 L88.5,100.9883 M101.5,85.9883 L114.5,100.9883 " fill="none" style="stroke:#181818;stroke-width:0.5;"/><text fill="#000000" font-family="sans-serif" font-size="14" lengthAdjust="spacing" textLength="187" x="5" y="385.9961">Human Resources Manager</text><ellipse cx="101.5" cy="397.4492" fill="#E3E3E3" rx="8" ry="8" style="stroke:#181818;stroke-width:0.5;"/><path d="M101.5,405.4492 L101.5,432.4492 M88.5,413.4492 L114.5,413.4492 M101.5,432.4492 L88.5,447.4492 M101.5,432.4492 L114.5,447.4492 " fill="none" style="stroke:#181818;stroke-width:0.5;"/><rect fill="#E3E3E3" height="30.4883" rx="2.5" ry="2.5" style="stroke:#181818;stroke-width:0.5;" width="66" x="1114.5" y="87.4883"/><text fill="#000000" font-family="sans-serif" font-size="14" lengthAdjust="spacing" textLength="52" x="1121.5" y="108.0234">:System</text><rect fill="#E3E3E3" height="30.4883" rx="2.5" ry="2.5" style="stroke:#181818;stroke-width:0.5;" width="66" x="1114.5" y="372.4609"/><text fill="#000000" font-family="sans-serif" font-size="14" lengthAdjust="spacing" textLength="52" x="1121.5" y="392.9961">:System</text><rect fill="#FFFFFF" height="235.4844" style="stroke:#181818;stroke-width:1.0;" width="10" x="96.5" y="128.9766"/><rect fill="#FFFFFF" height="29.3105" style="stroke:#181818;stroke-width:1.0;" width="10" x="1142.5" y="150.2871"/><rect fill="#FFFFFF" height="29.3105" style="stroke:#181818;stroke-width:1.0;" width="10" x="1142.5" y="208.9082"/><rect fill="#FFFFFF" height="29.3105" style="stroke:#181818;stroke-width:1.0;" width="10" x="1142.5" y="267.5293"/><rect fill="#FFFFFF" height="29.3105" style="stroke:#181818;stroke-width:1.0;" width="10" x="1142.5" y="326.1504"/><polygon fill="#181818" points="1130.5,146.2871,1140.5,150.2871,1130.5,154.2871,1134.5,150.2871" style="stroke:#181818;stroke-width:1.0;"/><line style="stroke:#181818;stroke-width:1.0;" x1="106.5" x2="1136.5" y1="150.2871" y2="150.2871"/><text fill="#000000" font-family="sans-serif" font-size="13" font-weight="bold" lengthAdjust="spacing" textLength="9" x="113.5" y="145.5449">1</text><text fill="#000000" font-family="sans-serif" font-size="13" lengthAdjust="spacing" textLength="189" x="126.5" y="145.5449">asks to register a collaborator</text><polygon fill="#181818" points="117.5,175.5977,107.5,179.5977,117.5,183.5977,113.5,179.5977" style="stroke:#181818;stroke-width:1.0;"/><line style="stroke:#181818;stroke-width:1.0;stroke-dasharray:2.0,2.0;" x1="111.5" x2="1146.5" y1="179.5977" y2="179.5977"/><text fill="#000000" font-family="sans-serif" font-size="13" font-weight="bold" lengthAdjust="spacing" textLength="9" x="123.5" y="174.8555">2</text><text fill="#000000" font-family="sans-serif" font-size="13" lengthAdjust="spacing" textLength="129" x="136.5" y="174.8555">show the list of jobs</text><polygon fill="#181818" points="1130.5,204.9082,1140.5,208.9082,1130.5,212.9082,1134.5,208.9082" style="stroke:#181818;stroke-width:1.0;"/><line style="stroke:#181818;stroke-width:1.0;" x1="106.5" x2="1136.5" y1="208.9082" y2="208.9082"/><text fill="#000000" font-family="sans-serif" font-size="13" font-weight="bold" lengthAdjust="spacing" textLength="9" x="113.5" y="204.166">3</text><text fill="#000000" font-family="sans-serif" font-size="13" lengthAdjust="spacing" textLength="79" x="126.5" y="204.166">selects a job</text><polygon fill="#181818" points="117.5,234.2188,107.5,238.2188,117.5,242.2188,113.5,238.2188" style="stroke:#181818;stroke-width:1.0;"/><line style="stroke:#181818;stroke-width:1.0;stroke-dasharray:2.0,2.0;" x1="111.5" x2="1146.5" y1="238.2188" y2="238.2188"/><text fill="#000000" font-family="sans-serif" font-size="13" font-weight="bold" lengthAdjust="spacing" textLength="9" x="123.5" y="233.4766">4</text><text fill="#000000" font-family="sans-serif" font-size="13" lengthAdjust="spacing" textLength="999" x="136.5" y="233.4766">asks about fundamental characteristics (name, birth details, issuing details, address, contact (telephone and email), identification document and your number)</text><polygon fill="#181818" points="1130.5,263.5293,1140.5,267.5293,1130.5,271.5293,1134.5,267.5293" style="stroke:#181818;stroke-width:1.0;"/><line style="stroke:#181818;stroke-width:1.0;" x1="106.5" x2="1136.5" y1="267.5293" y2="267.5293"/><text fill="#000000" font-family="sans-serif" font-size="13" font-weight="bold" lengthAdjust="spacing" textLength="9" x="113.5" y="262.7871">5</text><text fill="#000000" font-family="sans-serif" font-size="13" lengthAdjust="spacing" textLength="67" x="126.5" y="262.7871">insert data</text><polygon fill="#181818" points="117.5,292.8398,107.5,296.8398,117.5,300.8398,113.5,296.8398" style="stroke:#181818;stroke-width:1.0;"/><line style="stroke:#181818;stroke-width:1.0;stroke-dasharray:2.0,2.0;" x1="111.5" x2="1146.5" y1="296.8398" y2="296.8398"/><text fill="#000000" font-family="sans-serif" font-size="13" font-weight="bold" lengthAdjust="spacing" textLength="9" x="123.5" y="292.0977">6</text><text fill="#000000" font-family="sans-serif" font-size="13" lengthAdjust="spacing" textLength="260" x="136.5" y="292.0977">shows all data and requests confirmation</text><polygon fill="#181818" points="1130.5,322.1504,1140.5,326.1504,1130.5,330.1504,1134.5,326.1504" style="stroke:#181818;stroke-width:1.0;"/><line style="stroke:#181818;stroke-width:1.0;" x1="106.5" x2="1136.5" y1="326.1504" y2="326.1504"/><text fill="#000000" font-family="sans-serif" font-size="13" font-weight="bold" lengthAdjust="spacing" textLength="9" x="113.5" y="321.4082">7</text><text fill="#000000" font-family="sans-serif" font-size="13" lengthAdjust="spacing" textLength="87" x="126.5" y="321.4082">confirms data</text><polygon fill="#181818" points="117.5,351.4609,107.5,355.4609,117.5,359.4609,113.5,355.4609" style="stroke:#181818;stroke-width:1.0;"/><line style="stroke:#181818;stroke-width:1.0;stroke-dasharray:2.0,2.0;" x1="111.5" x2="1146.5" y1="355.4609" y2="355.4609"/><text fill="#000000" font-family="sans-serif" font-size="13" font-weight="bold" lengthAdjust="spacing" textLength="9" x="123.5" y="350.7188">8</text><text fill="#000000" font-family="sans-serif" font-size="13" lengthAdjust="spacing" textLength="170" x="136.5" y="350.7188">displays operation success</text><!--SRC=[dP9BRXin38RtSmh2Ank8B-15WG0fq4rH87C2MkBCi9R4gKWbcDk77Z_QHRg8jTA3_y-FfFJ4PSQA6R8K2LELJ62rKQVtbnd32KVgRKa4bO9X6TE_0JfXb7Sk8moObBhEs3oqNzGeGqz_6fL0yC8udiEtVV-oWpqy9wDQqFYDu5Tn6JQJqlAHgk-3IONDZvQnm2kfj1f8uISMHwaRG8NlUKwo47LEOHnuncAmELpIhX6NxMh6RsZqLzA1hzi9zjzki0UNdHHClD2H_Qe2Gf2Ky2WL7MaLtlrk2U2whYvxDxoR7xm_yWus4IHt11dWjnnrrKJwrEfJCANalLVdSVaZ66jbNaSp65g9cAaO9WYJ3p5ufGx7GM5R_EK9ZbnjSa13Jle4hDhE4xvVO8oLr3T1t2OORCq1vqaA0PO8b3rkvyBeQNZWu8EM0b52EoTUOnQVAbmclljoFxWeLOE8XeyEnTkHqkgmujJpJrLliPSqSCqhyPUvhc9zc2oopWaN1PcfNhgcBVZl_z-V-G00]--></g></svg>