<?xml version="1.0" encoding="us-ascii" standalone="no"?><svg xmlns="http://www.w3.org/2000/svg" xmlns:xlink="http://www.w3.org/1999/xlink" contentStyleType="text/css" height="395px" preserveAspectRatio="none" style="width:1052px;height:395px;background:#FFFFFF;" version="1.1" viewBox="0 0 1052 395" width="1052px" zoomAndPan="magnify"><defs/><g><text fill="#000000" font-family="sans-serif" font-size="14" font-weight="bold" lengthAdjust="spacing" textLength="363" x="343.75" y="28.5352">System Sequence Diagram (SSD) - Alternative One</text><rect fill="#FFFFFF" height="176.8633" style="stroke:#181818;stroke-width:1.0;" width="10" x="51.5" y="128.9766"/><rect fill="#FFFFFF" height="29.3105" style="stroke:#181818;stroke-width:1.0;" width="10" x="1008.5" y="150.2871"/><rect fill="#FFFFFF" height="29.3105" style="stroke:#181818;stroke-width:1.0;" width="10" x="1008.5" y="208.9082"/><rect fill="#FFFFFF" height="29.3105" style="stroke:#181818;stroke-width:1.0;" width="10" x="1008.5" y="267.5293"/><line style="stroke:#181818;stroke-width:0.5;stroke-dasharray:5.0,5.0;" x1="56" x2="56" y1="118.9766" y2="314.8398"/><line style="stroke:#181818;stroke-width:0.5;stroke-dasharray:5.0,5.0;" x1="1013.5" x2="1013.5" y1="118.9766" y2="314.8398"/><text fill="#000000" font-family="sans-serif" font-size="14" lengthAdjust="spacing" textLength="97" x="5" y="116.0234">Fleet Manager</text><ellipse cx="56.5" cy="50.9883" fill="#E3E3E3" rx="8" ry="8" style="stroke:#181818;stroke-width:0.5;"/><path d="M56.5,58.9883 L56.5,85.9883 M43.5,66.9883 L69.5,66.9883 M56.5,85.9883 L43.5,100.9883 M56.5,85.9883 L69.5,100.9883 " fill="none" style="stroke:#181818;stroke-width:0.5;"/><text fill="#000000" font-family="sans-serif" font-size="14" lengthAdjust="spacing" textLength="97" x="5" y="327.375">Fleet Manager</text><ellipse cx="56.5" cy="338.8281" fill="#E3E3E3" rx="8" ry="8" style="stroke:#181818;stroke-width:0.5;"/><path d="M56.5,346.8281 L56.5,373.8281 M43.5,354.8281 L69.5,354.8281 M56.5,373.8281 L43.5,388.8281 M56.5,373.8281 L69.5,388.8281 " fill="none" style="stroke:#181818;stroke-width:0.5;"/><rect fill="#E3E3E3" height="30.4883" rx="2.5" ry="2.5" style="stroke:#181818;stroke-width:0.5;" width="66" x="980.5" y="87.4883"/><text fill="#000000" font-family="sans-serif" font-size="14" lengthAdjust="spacing" textLength="52" x="987.5" y="108.0234">:System</text><rect fill="#E3E3E3" height="30.4883" rx="2.5" ry="2.5" style="stroke:#181818;stroke-width:0.5;" width="66" x="980.5" y="313.8398"/><text fill="#000000" font-family="sans-serif" font-size="14" lengthAdjust="spacing" textLength="52" x="987.5" y="334.375">:System</text><rect fill="#FFFFFF" height="176.8633" style="stroke:#181818;stroke-width:1.0;" width="10" x="51.5" y="128.9766"/><rect fill="#FFFFFF" height="29.3105" style="stroke:#181818;stroke-width:1.0;" width="10" x="1008.5" y="150.2871"/><rect fill="#FFFFFF" height="29.3105" style="stroke:#181818;stroke-width:1.0;" width="10" x="1008.5" y="208.9082"/><rect fill="#FFFFFF" height="29.3105" style="stroke:#181818;stroke-width:1.0;" width="10" x="1008.5" y="267.5293"/><polygon fill="#181818" points="996.5,146.2871,1006.5,150.2871,996.5,154.2871,1000.5,150.2871" style="stroke:#181818;stroke-width:1.0;"/><line style="stroke:#181818;stroke-width:1.0;" x1="61.5" x2="1002.5" y1="150.2871" y2="150.2871"/><text fill="#000000" font-family="sans-serif" font-size="13" font-weight="bold" lengthAdjust="spacing" textLength="9" x="68.5" y="145.5449">1</text><text fill="#000000" font-family="sans-serif" font-size="13" lengthAdjust="spacing" textLength="157" x="81.5" y="145.5449">asks to register a vehicle</text><polygon fill="#181818" points="72.5,175.5977,62.5,179.5977,72.5,183.5977,68.5,179.5977" style="stroke:#181818;stroke-width:1.0;"/><line style="stroke:#181818;stroke-width:1.0;stroke-dasharray:2.0,2.0;" x1="66.5" x2="1012.5" y1="179.5977" y2="179.5977"/><text fill="#000000" font-family="sans-serif" font-size="13" font-weight="bold" lengthAdjust="spacing" textLength="9" x="78.5" y="174.8555">2</text><text fill="#000000" font-family="sans-serif" font-size="13" lengthAdjust="spacing" textLength="910" x="91.5" y="174.8555">requests data (Brand, Model, Type, Tare, Gross Weight, Current Km, Register Date, Acquisition Date, Maintenance/Check- up Frequency (in Kms))</text><polygon fill="#181818" points="996.5,204.9082,1006.5,208.9082,996.5,212.9082,1000.5,208.9082" style="stroke:#181818;stroke-width:1.0;"/><line style="stroke:#181818;stroke-width:1.0;" x1="61.5" x2="1002.5" y1="208.9082" y2="208.9082"/><text fill="#000000" font-family="sans-serif" font-size="13" font-weight="bold" lengthAdjust="spacing" textLength="9" x="68.5" y="204.166">3</text><text fill="#000000" font-family="sans-serif" font-size="13" lengthAdjust="spacing" textLength="131" x="81.5" y="204.166">types requested data</text><polygon fill="#181818" points="72.5,234.2188,62.5,238.2188,72.5,242.2188,68.5,238.2188" style="stroke:#181818;stroke-width:1.0;"/><line style="stroke:#181818;stroke-width:1.0;stroke-dasharray:2.0,2.0;" x1="66.5" x2="1012.5" y1="238.2188" y2="238.2188"/><text fill="#000000" font-family="sans-serif" font-size="13" font-weight="bold" lengthAdjust="spacing" textLength="9" x="78.5" y="233.4766">4</text><text fill="#000000" font-family="sans-serif" font-size="13" lengthAdjust="spacing" textLength="260" x="91.5" y="233.4766">shows all data and requests confirmation</text><polygon fill="#181818" points="996.5,263.5293,1006.5,267.5293,996.5,271.5293,1000.5,267.5293" style="stroke:#181818;stroke-width:1.0;"/><line style="stroke:#181818;stroke-width:1.0;" x1="61.5" x2="1002.5" y1="267.5293" y2="267.5293"/><text fill="#000000" font-family="sans-serif" font-size="13" font-weight="bold" lengthAdjust="spacing" textLength="9" x="68.5" y="262.7871">5</text><text fill="#000000" font-family="sans-serif" font-size="13" lengthAdjust="spacing" textLength="87" x="81.5" y="262.7871">confirms data</text><polygon fill="#181818" points="72.5,292.8398,62.5,296.8398,72.5,300.8398,68.5,296.8398" style="stroke:#181818;stroke-width:1.0;"/><line style="stroke:#181818;stroke-width:1.0;stroke-dasharray:2.0,2.0;" x1="66.5" x2="1012.5" y1="296.8398" y2="296.8398"/><text fill="#000000" font-family="sans-serif" font-size="13" font-weight="bold" lengthAdjust="spacing" textLength="9" x="78.5" y="292.0977">6</text><text fill="#000000" font-family="sans-serif" font-size="13" lengthAdjust="spacing" textLength="170" x="91.5" y="292.0977">displays operation success</text><!--SRC=[dL2nRjj03Dtr5OGd6v3HtKC19quo54Q0g41dviH8X4zt2adPqD-NbYsdGpea70wyExx7zvuUEFKes46NKmwjv8x0PA12RpyzXWCsLDaO2OI2OMhYlmFQOfrFd1fumwXK5CRcezMeHXrKz3vG2WGxnkOylgogtGhMi8r6aj3uIF2S78Q3vJHqhoJU1yi2YyT8PB37v09a0QZmqFKnZqI5xpOEt6CoM6mkowQ9IpjHy16DFY05UCqtMF-S9MuSTb2mxFOQzYS1X2Er7Dpd6NEZchdXMbU2jNFTU3VEufRL56eqXEMTOAfBsEUQOWc_nvxyHF7pIR8g_25kMYlXVX0XT_EhA-5b5hBpjILim_l0oiOvNL_soCaeeIVxuxwbS5Z3qCEZND8UOSd9YNIrchJMzAc5JxCm5wYp1wed4zz9GTjyKi0OBp5u1X_1X9pUM3ey6_gom2jOlwsiPkqZZWgv9vaqW0uXaEf_jFm5]--></g></svg>