<?xml version="1.0" encoding="us-ascii" standalone="no"?><svg xmlns="http://www.w3.org/2000/svg" xmlns:xlink="http://www.w3.org/1999/xlink" contentStyleType="text/css" height="448px" preserveAspectRatio="none" style="width:491px;height:448px;background:#FFFFFF;" version="1.1" viewBox="0 0 491 448" width="491px" zoomAndPan="magnify"><defs/><g><text fill="#000000" font-family="sans-serif" font-size="14" font-weight="bold" lengthAdjust="spacing" textLength="351" x="69" y="30.1074">System Sequence Diagram (SSD) - Alternative One</text><rect fill="#FFFFFF" height="223.3281" style="stroke:#181818;stroke-width:1.0;" width="10" x="74" y="133.2422"/><rect fill="#FFFFFF" height="65.873" style="stroke:#181818;stroke-width:1.0;" width="10" x="448" y="156.5332"/><rect fill="#FFFFFF" height="31.291" style="stroke:#181818;stroke-width:1.0;" width="10" x="448" y="253.6973"/><rect fill="#FFFFFF" height="31.291" style="stroke:#181818;stroke-width:1.0;" width="10" x="448" y="316.2793"/><line style="stroke:#181818;stroke-width:0.5;stroke-dasharray:5.0,5.0;" x1="79" x2="79" y1="123.2422" y2="365.5703"/><line style="stroke:#181818;stroke-width:0.5;stroke-dasharray:5.0,5.0;" x1="453" x2="453" y1="123.2422" y2="365.5703"/><text fill="#000000" font-family="sans-serif" font-size="14" lengthAdjust="spacing" textLength="142" x="5" y="119.7285">Vehicle Fleet Manager</text><ellipse cx="79" cy="53.1211" fill="#E3E3E3" rx="8" ry="8" style="stroke:#181818;stroke-width:0.5;"/><path d="M79,61.1211 L79,88.1211 M66,69.1211 L92,69.1211 M79,88.1211 L66,103.1211 M79,88.1211 L92,103.1211 " fill="none" style="stroke:#181818;stroke-width:0.5;"/><text fill="#000000" font-family="sans-serif" font-size="14" lengthAdjust="spacing" textLength="142" x="5" y="379.6777">Vehicle Fleet Manager</text><ellipse cx="79" cy="391.6914" fill="#E3E3E3" rx="8" ry="8" style="stroke:#181818;stroke-width:0.5;"/><path d="M79,399.6914 L79,426.6914 M66,407.6914 L92,407.6914 M79,426.6914 L66,441.6914 M79,426.6914 L92,441.6914 " fill="none" style="stroke:#181818;stroke-width:0.5;"/><rect fill="#E3E3E3" height="32.6211" rx="2.5" ry="2.5" style="stroke:#181818;stroke-width:0.5;" width="64" x="421" y="89.6211"/><text fill="#000000" font-family="sans-serif" font-size="14" lengthAdjust="spacing" textLength="50" x="428" y="111.7285">:System</text><rect fill="#E3E3E3" height="32.6211" rx="2.5" ry="2.5" style="stroke:#181818;stroke-width:0.5;" width="64" x="421" y="364.5703"/><text fill="#000000" font-family="sans-serif" font-size="14" lengthAdjust="spacing" textLength="50" x="428" y="386.6777">:System</text><rect fill="#FFFFFF" height="223.3281" style="stroke:#181818;stroke-width:1.0;" width="10" x="74" y="133.2422"/><rect fill="#FFFFFF" height="65.873" style="stroke:#181818;stroke-width:1.0;" width="10" x="448" y="156.5332"/><rect fill="#FFFFFF" height="31.291" style="stroke:#181818;stroke-width:1.0;" width="10" x="448" y="253.6973"/><rect fill="#FFFFFF" height="31.291" style="stroke:#181818;stroke-width:1.0;" width="10" x="448" y="316.2793"/><polygon fill="#181818" points="436,152.5332,446,156.5332,436,160.5332,440,156.5332" style="stroke:#181818;stroke-width:1.0;"/><line style="stroke:#181818;stroke-width:1.0;" x1="84" x2="442" y1="156.5332" y2="156.5332"/><text fill="#000000" font-family="sans-serif" font-size="13" font-weight="bold" lengthAdjust="spacing" textLength="7" x="91" y="151.2705">1</text><text fill="#000000" font-family="sans-serif" font-size="13" lengthAdjust="spacing" textLength="144" x="102" y="151.2705">asks to register a vehicle</text><polygon fill="#181818" points="95,218.4063,85,222.4063,95,226.4063,91,222.4063" style="stroke:#181818;stroke-width:1.0;"/><line style="stroke:#181818;stroke-width:1.0;stroke-dasharray:2.0,2.0;" x1="89" x2="452" y1="222.4063" y2="222.4063"/><text fill="#000000" font-family="sans-serif" font-size="13" font-weight="bold" lengthAdjust="spacing" textLength="7" x="101" y="199.8525">2</text><text fill="#000000" font-family="sans-serif" font-size="13" lengthAdjust="spacing" textLength="329" x="112" y="182.5615">requests data (Brand, Model, Type, Tare, Gross Weight ,</text><text fill="#000000" font-family="sans-serif" font-size="13" lengthAdjust="spacing" textLength="260" x="116" y="199.8525">Current Km, Register Date, Acquisition Date,</text><text fill="#000000" font-family="sans-serif" font-size="13" lengthAdjust="spacing" textLength="259" x="116" y="217.1436">Maintenance/Check- up Frequency (in Kms))</text><polygon fill="#181818" points="436,249.6973,446,253.6973,436,257.6973,440,253.6973" style="stroke:#181818;stroke-width:1.0;"/><line style="stroke:#181818;stroke-width:1.0;" x1="84" x2="442" y1="253.6973" y2="253.6973"/><text fill="#000000" font-family="sans-serif" font-size="13" font-weight="bold" lengthAdjust="spacing" textLength="7" x="91" y="248.4346">3</text><text fill="#000000" font-family="sans-serif" font-size="13" lengthAdjust="spacing" textLength="122" x="102" y="248.4346">types requested data</text><polygon fill="#181818" points="95,280.9883,85,284.9883,95,288.9883,91,284.9883" style="stroke:#181818;stroke-width:1.0;"/><line style="stroke:#181818;stroke-width:1.0;stroke-dasharray:2.0,2.0;" x1="89" x2="452" y1="284.9883" y2="284.9883"/><text fill="#000000" font-family="sans-serif" font-size="13" font-weight="bold" lengthAdjust="spacing" textLength="7" x="101" y="279.7256">4</text><text fill="#000000" font-family="sans-serif" font-size="13" lengthAdjust="spacing" textLength="236" x="112" y="279.7256">shows all data and requests confirmation</text><polygon fill="#181818" points="436,312.2793,446,316.2793,436,320.2793,440,316.2793" style="stroke:#181818;stroke-width:1.0;"/><line style="stroke:#181818;stroke-width:1.0;" x1="84" x2="442" y1="316.2793" y2="316.2793"/><text fill="#000000" font-family="sans-serif" font-size="13" font-weight="bold" lengthAdjust="spacing" textLength="7" x="91" y="311.0166">5</text><text fill="#000000" font-family="sans-serif" font-size="13" lengthAdjust="spacing" textLength="78" x="102" y="311.0166">confirms data</text><polygon fill="#181818" points="95,343.5703,85,347.5703,95,351.5703,91,347.5703" style="stroke:#181818;stroke-width:1.0;"/><line style="stroke:#181818;stroke-width:1.0;stroke-dasharray:2.0,2.0;" x1="89" x2="452" y1="347.5703" y2="347.5703"/><text fill="#000000" font-family="sans-serif" font-size="13" font-weight="bold" lengthAdjust="spacing" textLength="7" x="101" y="342.3076">6</text><text fill="#000000" font-family="sans-serif" font-size="13" lengthAdjust="spacing" textLength="158" x="112" y="342.3076">displays operation success</text><!--SRC=[dP0nRzj038Lt_Gh2amt8wEuXG1et6GeZG1IqInRcn4Y4JtSAIJdGloyZMKw7T6XkE9nEVE- -z_J8gKV13hgSScWbTmGc0nLw-TDZE693bOsHG2WOfYR-FQ0jrlcDKmCl69MAmjXyj1hLg8EANWTAWM3FsBoFhwjglu4jN4SZIMXy8hXFBiF1SXgwPn8_1yi2gr_KSd2lsqXaSC3a8B82LFZHzJ6FH8Kp60VkCHciTlEZqyHydApuX4OVaW9yBL-mlLfGTouxAbZsc0txbG32QKQOD1UhnHlEwsomTQ-BxyvTFBgQGes6iFukcEeI3hccMCBZs9FlABxVILQ5tyHDQr0-9RWPHCW3_UnAU5XOzlvo2TVXTM1buvpc6ny_82UZX5xpjvkMmd4BGm-tCbS_mfgJM-bcCm7Nz6cEJminfzGb2DLJagzKeMr-Ky0OvowyY8zsGaulB1s-H_flmBDOlqnMi_OHHuNSaqmCe4C8fFeFbZy0]--></g></svg>