<?xml version="1.0" encoding="us-ascii" standalone="no"?><svg xmlns="http://www.w3.org/2000/svg" xmlns:xlink="http://www.w3.org/1999/xlink" contentStyleType="text/css" height="827px" preserveAspectRatio="none" style="width:418px;height:827px;background:#FFFFFF;" version="1.1" viewBox="0 0 418 827" width="418px" zoomAndPan="magnify"><defs/><g><!--class VehicleRepository--><g id="elem_VehicleRepository"><rect codeLine="12" fill="#F1F1F1" height="80.9766" id="VehicleRepository" rx="2.5" ry="2.5" style="stroke:#181818;stroke-width:0.5;" width="167" x="21" y="482"/><ellipse cx="41.85" cy="498" fill="#ADD1B2" rx="11" ry="11" style="stroke:#181818;stroke-width:1.0;"/><path d="M44.8231,503.6431 Q44.2421,503.9419 43.6029,504.0913 Q42.9638,504.2407 42.2582,504.2407 Q39.7514,504.2407 38.4315,502.5889 Q37.1117,500.937 37.1117,497.8159 Q37.1117,494.6865 38.4315,493.0347 Q39.7514,491.3828 42.2582,491.3828 Q42.9638,491.3828 43.6112,491.5322 Q44.2587,491.6816 44.8231,491.9805 L44.8231,494.7031 Q44.1923,494.1221 43.5988,493.8523 Q43.0053,493.5825 42.3744,493.5825 Q41.0297,493.5825 40.3449,494.6492 Q39.6601,495.7158 39.6601,497.8159 Q39.6601,499.9077 40.3449,500.9744 Q41.0297,502.041 42.3744,502.041 Q43.0053,502.041 43.5988,501.7712 Q44.1923,501.5015 44.8231,500.9204 Z " fill="#000000"/><text fill="#000000" font-family="sans-serif" font-size="14" lengthAdjust="spacing" textLength="122" x="57.15" y="503.291">VehicleRepository</text><line style="stroke:#181818;stroke-width:0.5;" x1="22" x2="187" y1="514" y2="514"/><text fill="#000000" font-family="sans-serif" font-size="14" lengthAdjust="spacing" textLength="155" x="27" y="531.5352">+getVehicleRepository</text><text fill="#000000" font-family="sans-serif" font-size="14" lengthAdjust="spacing" textLength="86" x="27" y="548.0234">+addVehicle</text><line style="stroke:#181818;stroke-width:0.5;" x1="22" x2="187" y1="554.9766" y2="554.9766"/></g><!--class AgendaUI--><g id="elem_AgendaUI"><rect codeLine="17" fill="#F1F1F1" height="48" id="AgendaUI" rx="2.5" ry="2.5" style="stroke:#181818;stroke-width:0.5;" width="99" x="245" y="7"/><ellipse cx="260" cy="23" fill="#ADD1B2" rx="11" ry="11" style="stroke:#181818;stroke-width:1.0;"/><path d="M262.9731,28.6431 Q262.3921,28.9419 261.7529,29.0913 Q261.1138,29.2407 260.4082,29.2407 Q257.9014,29.2407 256.5815,27.5889 Q255.2617,25.937 255.2617,22.8159 Q255.2617,19.6865 256.5815,18.0347 Q257.9014,16.3828 260.4082,16.3828 Q261.1138,16.3828 261.7612,16.5322 Q262.4087,16.6816 262.9731,16.9805 L262.9731,19.7031 Q262.3423,19.1221 261.7488,18.8523 Q261.1553,18.5825 260.5244,18.5825 Q259.1797,18.5825 258.4949,19.6492 Q257.8101,20.7158 257.8101,22.8159 Q257.8101,24.9077 258.4949,25.9744 Q259.1797,27.041 260.5244,27.041 Q261.1553,27.041 261.7488,26.7712 Q262.3423,26.5015 262.9731,25.9204 Z " fill="#000000"/><text fill="#000000" font-family="sans-serif" font-size="14" lengthAdjust="spacing" textLength="67" x="274" y="28.291">AgendaUI</text><line style="stroke:#181818;stroke-width:0.5;" x1="246" x2="343" y1="39" y2="39"/><line style="stroke:#181818;stroke-width:0.5;" x1="246" x2="343" y1="47" y2="47"/></g><!--class AgendaRepository--><g id="elem_AgendaRepository"><rect codeLine="20" fill="#F1F1F1" height="64.4883" id="AgendaRepository" rx="2.5" ry="2.5" style="stroke:#181818;stroke-width:0.5;" width="171" x="223" y="490.5"/><ellipse cx="243.85" cy="506.5" fill="#ADD1B2" rx="11" ry="11" style="stroke:#181818;stroke-width:1.0;"/><path d="M246.8231,512.1431 Q246.2421,512.4419 245.6029,512.5913 Q244.9638,512.7407 244.2582,512.7407 Q241.7514,512.7407 240.4315,511.0889 Q239.1117,509.437 239.1117,506.3159 Q239.1117,503.1865 240.4315,501.5347 Q241.7514,499.8828 244.2582,499.8828 Q244.9638,499.8828 245.6112,500.0322 Q246.2587,500.1816 246.8231,500.4805 L246.8231,503.2031 Q246.1923,502.6221 245.5988,502.3523 Q245.0053,502.0825 244.3744,502.0825 Q243.0297,502.0825 242.3449,503.1492 Q241.6601,504.2158 241.6601,506.3159 Q241.6601,508.4077 242.3449,509.4744 Q243.0297,510.541 244.3744,510.541 Q245.0053,510.541 245.5988,510.2712 Q246.1923,510.0015 246.8231,509.4204 Z " fill="#000000"/><text fill="#000000" font-family="sans-serif" font-size="14" lengthAdjust="spacing" textLength="126" x="259.15" y="511.791">AgendaRepository</text><line style="stroke:#181818;stroke-width:0.5;" x1="224" x2="393" y1="522.5" y2="522.5"/><text fill="#000000" font-family="sans-serif" font-size="14" lengthAdjust="spacing" textLength="159" x="229" y="540.0352">+getAgendaRepository</text><line style="stroke:#181818;stroke-width:0.5;" x1="224" x2="393" y1="546.9883" y2="546.9883"/></g><!--class Repositories--><g id="elem_Repositories"><rect codeLine="24" fill="#F1F1F1" height="113.9531" id="Repositories" rx="2.5" ry="2.5" style="stroke:#181818;stroke-width:0.5;" width="209" x="185" y="307"/><ellipse cx="242.75" cy="323" fill="#ADD1B2" rx="11" ry="11" style="stroke:#181818;stroke-width:1.0;"/><path d="M245.7231,328.6431 Q245.1421,328.9419 244.5029,329.0913 Q243.8638,329.2407 243.1582,329.2407 Q240.6514,329.2407 239.3315,327.5889 Q238.0117,325.937 238.0117,322.8159 Q238.0117,319.6865 239.3315,318.0347 Q240.6514,316.3828 243.1582,316.3828 Q243.8638,316.3828 244.5112,316.5322 Q245.1587,316.6816 245.7231,316.9805 L245.7231,319.7031 Q245.0923,319.1221 244.4988,318.8523 Q243.9053,318.5825 243.2744,318.5825 Q241.9297,318.5825 241.2449,319.6492 Q240.5601,320.7158 240.5601,322.8159 Q240.5601,324.9077 241.2449,325.9744 Q241.9297,327.041 243.2744,327.041 Q243.9053,327.041 244.4988,326.7712 Q245.0923,326.5015 245.7231,325.9204 Z " fill="#000000"/><text fill="#000000" font-family="sans-serif" font-size="14" lengthAdjust="spacing" textLength="85" x="263.25" y="328.291">Repositories</text><line style="stroke:#181818;stroke-width:0.5;" x1="186" x2="393" y1="339" y2="339"/><text fill="#000000" font-family="sans-serif" font-size="14" lengthAdjust="spacing" textLength="159" x="191" y="356.5352">+getAgendaRepository</text><line style="stroke:#181818;stroke-width:0.5;" x1="186" x2="393" y1="363.4883" y2="363.4883"/><text fill="#000000" font-family="sans-serif" font-size="14" lengthAdjust="spacing" textLength="103" x="191" y="381.0234">-Repositories()</text><text fill="#000000" font-family="sans-serif" font-size="14" lengthAdjust="spacing" textLength="197" x="191" y="397.5117">+getInstance() : Repositories</text><text fill="#000000" font-family="sans-serif" font-size="14" lengthAdjust="spacing" textLength="165" x="191" y="414">+getVehicleRepository()</text></g><!--class AgendaController--><g id="elem_AgendaController"><rect codeLine="31" fill="#F1F1F1" height="64.4883" id="AgendaController" rx="2.5" ry="2.5" style="stroke:#181818;stroke-width:0.5;" width="155" x="217" y="141"/><ellipse cx="232" cy="157" fill="#ADD1B2" rx="11" ry="11" style="stroke:#181818;stroke-width:1.0;"/><path d="M234.9731,162.6431 Q234.3921,162.9419 233.7529,163.0913 Q233.1138,163.2407 232.4082,163.2407 Q229.9014,163.2407 228.5815,161.5889 Q227.2617,159.937 227.2617,156.8159 Q227.2617,153.6865 228.5815,152.0347 Q229.9014,150.3828 232.4082,150.3828 Q233.1138,150.3828 233.7612,150.5322 Q234.4087,150.6816 234.9731,150.9805 L234.9731,153.7031 Q234.3423,153.1221 233.7488,152.8523 Q233.1553,152.5825 232.5244,152.5825 Q231.1797,152.5825 230.4949,153.6492 Q229.8101,154.7158 229.8101,156.8159 Q229.8101,158.9077 230.4949,159.9744 Q231.1797,161.041 232.5244,161.041 Q233.1553,161.041 233.7488,160.7712 Q234.3423,160.5015 234.9731,159.9204 Z " fill="#000000"/><text fill="#000000" font-family="sans-serif" font-size="14" lengthAdjust="spacing" textLength="123" x="246" y="162.291">AgendaController</text><line style="stroke:#181818;stroke-width:0.5;" x1="218" x2="371" y1="173" y2="173"/><text fill="#000000" font-family="sans-serif" font-size="14" lengthAdjust="spacing" textLength="86" x="223" y="190.5352">+getAgenda</text><line style="stroke:#181818;stroke-width:0.5;" x1="218" x2="371" y1="197.4883" y2="197.4883"/></g><!--class GSM--><g id="elem_GSM"><rect codeLine="36" fill="#F1F1F1" height="113.9531" id="GSM" rx="2.5" ry="2.5" style="stroke:#181818;stroke-width:0.5;" width="175" x="7" y="116"/><ellipse cx="75.25" cy="132" fill="#ADD1B2" rx="11" ry="11" style="stroke:#181818;stroke-width:1.0;"/><path d="M78.2231,137.6431 Q77.6421,137.9419 77.0029,138.0913 Q76.3638,138.2407 75.6582,138.2407 Q73.1514,138.2407 71.8315,136.5889 Q70.5117,134.937 70.5117,131.8159 Q70.5117,128.6865 71.8315,127.0347 Q73.1514,125.3828 75.6582,125.3828 Q76.3638,125.3828 77.0112,125.5322 Q77.6587,125.6816 78.2231,125.9805 L78.2231,128.7031 Q77.5923,128.1221 76.9988,127.8523 Q76.4053,127.5825 75.7744,127.5825 Q74.4297,127.5825 73.7449,128.6492 Q73.0601,129.7158 73.0601,131.8159 Q73.0601,133.9077 73.7449,134.9744 Q74.4297,136.041 75.7744,136.041 Q76.4053,136.041 76.9988,135.7712 Q77.5923,135.5015 78.2231,134.9204 Z " fill="#000000"/><text fill="#000000" font-family="sans-serif" font-size="14" lengthAdjust="spacing" textLength="30" x="95.75" y="137.291">GSM</text><line style="stroke:#181818;stroke-width:0.5;" x1="8" x2="181" y1="148" y2="148"/><text fill="#000000" font-family="sans-serif" font-size="14" lengthAdjust="spacing" textLength="38" x="13" y="165.5352">name</text><text fill="#000000" font-family="sans-serif" font-size="14" lengthAdjust="spacing" textLength="37" x="13" y="182.0234">email</text><text fill="#000000" font-family="sans-serif" font-size="14" lengthAdjust="spacing" textLength="102" x="13" y="198.5117">phone number</text><text fill="#000000" font-family="sans-serif" font-size="14" lengthAdjust="spacing" textLength="163" x="13" y="215">identification document</text><line style="stroke:#181818;stroke-width:0.5;" x1="8" x2="181" y1="221.9531" y2="221.9531"/></g><!--class Vehicle--><g id="elem_Vehicle"><rect codeLine="44" fill="#F1F1F1" height="196.3945" id="Vehicle" rx="2.5" ry="2.5" style="stroke:#181818;stroke-width:0.5;" width="174" x="188.5" y="624"/><ellipse cx="246.75" cy="640" fill="#ADD1B2" rx="11" ry="11" style="stroke:#181818;stroke-width:1.0;"/><path d="M249.7231,645.6431 Q249.1421,645.9419 248.5029,646.0913 Q247.8638,646.2407 247.1582,646.2407 Q244.6514,646.2407 243.3315,644.5889 Q242.0117,642.937 242.0117,639.8159 Q242.0117,636.6865 243.3315,635.0347 Q244.6514,633.3828 247.1582,633.3828 Q247.8638,633.3828 248.5112,633.5322 Q249.1587,633.6816 249.7231,633.9805 L249.7231,636.7031 Q249.0923,636.1221 248.4988,635.8523 Q247.9053,635.5825 247.2744,635.5825 Q245.9297,635.5825 245.2449,636.6492 Q244.5601,637.7158 244.5601,639.8159 Q244.5601,641.9077 245.2449,642.9744 Q245.9297,644.041 247.2744,644.041 Q247.9053,644.041 248.4988,643.7712 Q249.0923,643.5015 249.7231,642.9204 Z " fill="#000000"/><text fill="#000000" font-family="sans-serif" font-size="14" lengthAdjust="spacing" textLength="49" x="267.25" y="645.291">Vehicle</text><line style="stroke:#181818;stroke-width:0.5;" x1="189.5" x2="361.5" y1="656" y2="656"/><text fill="#000000" font-family="sans-serif" font-size="14" lengthAdjust="spacing" textLength="40" x="194.5" y="673.5352">Brand</text><text fill="#000000" font-family="sans-serif" font-size="14" lengthAdjust="spacing" textLength="42" x="194.5" y="690.0234">Model</text><text fill="#000000" font-family="sans-serif" font-size="14" lengthAdjust="spacing" textLength="33" x="194.5" y="706.5117">Type</text><text fill="#000000" font-family="sans-serif" font-size="14" lengthAdjust="spacing" textLength="31" x="194.5" y="723">Tare</text><text fill="#000000" font-family="sans-serif" font-size="14" lengthAdjust="spacing" textLength="90" x="194.5" y="739.4883">Gross Weight</text><text fill="#000000" font-family="sans-serif" font-size="14" lengthAdjust="spacing" textLength="79" x="194.5" y="755.9766">Current Km</text><text fill="#000000" font-family="sans-serif" font-size="14" lengthAdjust="spacing" textLength="91" x="194.5" y="772.4648">Register Date</text><text fill="#000000" font-family="sans-serif" font-size="14" lengthAdjust="spacing" textLength="112" x="194.5" y="788.9531">Acquisition Date</text><text fill="#000000" font-family="sans-serif" font-size="14" lengthAdjust="spacing" textLength="162" x="194.5" y="805.4414">Maintenance/Check-up</text><line style="stroke:#181818;stroke-width:0.5;" x1="189.5" x2="361.5" y1="812.3945" y2="812.3945"/></g><!--class Agenda--><g id="elem_Agenda"><rect codeLine="55" fill="#F1F1F1" height="48" id="Agenda" rx="2.5" ry="2.5" style="stroke:#181818;stroke-width:0.5;" width="85" x="61" y="340"/><ellipse cx="76" cy="356" fill="#ADD1B2" rx="11" ry="11" style="stroke:#181818;stroke-width:1.0;"/><path d="M78.9731,361.6431 Q78.3921,361.9419 77.7529,362.0913 Q77.1138,362.2407 76.4082,362.2407 Q73.9014,362.2407 72.5815,360.5889 Q71.2617,358.937 71.2617,355.8159 Q71.2617,352.6865 72.5815,351.0347 Q73.9014,349.3828 76.4082,349.3828 Q77.1138,349.3828 77.7612,349.5322 Q78.4087,349.6816 78.9731,349.9805 L78.9731,352.7031 Q78.3423,352.1221 77.7488,351.8523 Q77.1553,351.5825 76.5244,351.5825 Q75.1797,351.5825 74.4949,352.6492 Q73.8101,353.7158 73.8101,355.8159 Q73.8101,357.9077 74.4949,358.9744 Q75.1797,360.041 76.5244,360.041 Q77.1553,360.041 77.7488,359.7712 Q78.3423,359.5015 78.9731,358.9204 Z " fill="#000000"/><text fill="#000000" font-family="sans-serif" font-size="14" lengthAdjust="spacing" textLength="53" x="90" y="361.291">Agenda</text><line style="stroke:#181818;stroke-width:0.5;" x1="62" x2="145" y1="372" y2="372"/><line style="stroke:#181818;stroke-width:0.5;" x1="62" x2="145" y1="380" y2="380"/></g><!--link AgendaUI to AgendaController--><g id="link_AgendaUI_AgendaController"><path codeLine="60" d="M294.5,55.43 C294.5,78.79 294.5,108.79 294.5,134.61 " fill="none" id="AgendaUI-to-AgendaController" style="stroke:#181818;stroke-width:1.0;"/><polygon fill="#181818" points="294.5,140.61,298.5,131.61,294.5,135.61,290.5,131.61,294.5,140.61" style="stroke:#181818;stroke-width:1.0;"/></g><!--link Repositories to VehicleRepository--><g id="link_Repositories_VehicleRepository"><path codeLine="61" d="M222.97,421.28 C199.35,441.26 177.8611,459.4453 156.2011,477.7653 " fill="none" id="Repositories-to-VehicleRepository" style="stroke:#181818;stroke-width:1.0;"/><polygon fill="#181818" points="151.62,481.64,161.0748,478.882,155.4376,478.4111,155.9085,472.7739,151.62,481.64" style="stroke:#181818;stroke-width:1.0;"/></g><!--link AgendaController to Repositories--><g id="link_AgendaController_Repositories"><path codeLine="62" d="M293.67,205.21 C292.95,232.68 292.0291,267.3521 291.1491,300.5321 " fill="none" id="AgendaController-to-Repositories" style="stroke:#181818;stroke-width:1.0;"/><polygon fill="#181818" points="290.99,306.53,295.2272,297.6392,291.1226,301.5318,287.23,297.4271,290.99,306.53" style="stroke:#181818;stroke-width:1.0;"/></g><!--link AgendaController to Agenda--><g id="link_AgendaController_Agenda"><path codeLine="63" d="M262.96,205.21 C224.82,242.95 165.745,301.4098 131.495,335.2998 " fill="none" id="AgendaController-to-Agenda" style="stroke:#181818;stroke-width:1.0;"/><polygon fill="#181818" points="127.23,339.52,136.4409,336.0331,130.7842,336.0032,130.814,330.3464,127.23,339.52" style="stroke:#181818;stroke-width:1.0;"/></g><!--link VehicleRepository to Vehicle--><g id="link_VehicleRepository_Vehicle"><path codeLine="64" d="M139.1,563.47 C154.23,580.94 168.7724,597.7341 187.1724,618.9841 " fill="none" id="VehicleRepository-to-Vehicle" style="stroke:#181818;stroke-width:1.0;"/><polygon fill="#181818" points="191.1,623.52,188.2326,614.0978,187.827,619.7401,182.1847,619.3345,191.1,623.52" style="stroke:#181818;stroke-width:1.0;"/></g><!--link AgendaController to Vehicle--><g id="link_AgendaController_Vehicle"><path codeLine="65" d="M321.93,205.18 C356.51,244.49 411.5,307 411.5,307 C411.5,307 411.5,563 411.5,563 C411.5,563 391.2033,586.5718 363.2233,619.0918 " fill="none" id="AgendaController-to-Vehicle" style="stroke:#181818;stroke-width:1.0;"/><polygon fill="#181818" points="359.31,623.64,368.212,619.4265,362.5711,619.8498,362.1477,614.2088,359.31,623.64" style="stroke:#181818;stroke-width:1.0;"/></g><!--link GSM to Agenda--><g id="link_GSM_Agenda"><path codeLine="66" d="M97.19,230.45 C98.93,267 101.1,312.66 102.39,339.74 " fill="none" id="GSM-Agenda" style="stroke:#181818;stroke-width:1.0;"/><polygon fill="#000000" points="104.7376,273.6496,107.2434,264.4751,101.3721,264.7544,104.7376,273.6496" style="stroke:#000000;stroke-width:1.0;"/><text fill="#000000" font-family="sans-serif" font-size="13" lengthAdjust="spacing" textLength="55" x="113.5" y="273.5684">registers</text><text fill="#000000" font-family="sans-serif" font-size="13" lengthAdjust="spacing" textLength="8" x="89.0385" y="250.5489">1</text><text fill="#000000" font-family="sans-serif" font-size="13" lengthAdjust="spacing" textLength="6" x="95.3368" y="329.2096">*</text></g><!--link Repositories to AgendaRepository--><g id="link_Repositories_AgendaRepository"><path codeLine="67" d="M296.31,421.06 C299.14,444.39 301.5977,464.6336 303.9977,484.4236 " fill="none" id="Repositories-to-AgendaRepository" style="stroke:#181818;stroke-width:1.0;"/><polygon fill="#181818" points="304.72,490.38,307.6074,480.9639,304.118,485.4164,299.6656,481.927,304.72,490.38" style="stroke:#181818;stroke-width:1.0;"/></g><!--SRC=[VLDDRzim3BthLp2vf5qHRBtsK23BW28OScdsSLObnYOYYwv4RyYA_VV9LbBRSJ2VwFV8voS-UH4Fv6iTT0KLUpPbu0f1GeEgPsfj3hh0dHmTGa0ZsXTks11BRVat-GBssiKXuyYZ76k4cjsnVL6BAoG7OJMOCax7k189zD88RWpx7Vr1-AJKmk5UG1W25QM0fTOEiKyC_CAIJ7BuZ3L74Wv7cCrczwfJWn-PxSat1UcvAr0cL6QqjIT6_LKdbLM1tkhlcpULi25qJVUIwMNUCS88UM0v0czkimeacOsFQUC6RsxXOTJKjqnES9x_hulChDbBOESmN3fNVUlJRfjPholi2gmqkQwgI_O8lgbUC7G0MVH2UpAwZGOicwPAIAis3YDBVWxQswxQiiMi-IrTYrpea8kdm6dm9xQvTy2w2I6fmjUgUtt6Wg9WW2zQyiJAl3QKpjnwU0UtchoWR_VvSLsYEIoR-YBA54ZhL9spXkNoSR8hDOgmxPZUeikPhcqKuDMEq_8dUiElN9yyaoajcD_F4mRp3_FpiHxIlvjt5E5nwdzoJvJw1m00]--></g></svg>