<?xml version="1.0" encoding="us-ascii" standalone="no"?><svg xmlns="http://www.w3.org/2000/svg" xmlns:xlink="http://www.w3.org/1999/xlink" contentStyleType="text/css" height="971px" preserveAspectRatio="none" style="width:2351px;height:971px;background:#FFFFFF;" version="1.1" viewBox="0 0 2351 971" width="2351px" zoomAndPan="magnify"><defs/><g><!--class Job--><g id="elem_Job"><rect codeLine="13" fill="#F1F1F1" height="163.418" id="Job" rx="2.5" ry="2.5" style="stroke:#181818;stroke-width:0.5;" width="912" x="103.5" y="676.0522"/><ellipse cx="544.25" cy="692.0522" fill="#ADD1B2" rx="11" ry="11" style="stroke:#181818;stroke-width:1.0;"/><path d="M547.2231,697.6953 Q546.6421,697.9941 546.0029,698.1435 Q545.3638,698.2929 544.6582,698.2929 Q542.1514,698.2929 540.8315,696.6411 Q539.5117,694.9892 539.5117,691.8681 Q539.5117,688.7387 540.8315,687.0869 Q542.1514,685.435 544.6582,685.435 Q545.3638,685.435 546.0112,685.5844 Q546.6587,685.7338 547.2231,686.0327 L547.2231,688.7553 Q546.5923,688.1743 545.9988,687.9045 Q545.4053,687.6347 544.7744,687.6347 Q543.4297,687.6347 542.7449,688.7014 Q542.0601,689.768 542.0601,691.8681 Q542.0601,693.9599 542.7449,695.0266 Q543.4297,696.0932 544.7744,696.0932 Q545.4053,696.0932 545.9988,695.8234 Q546.5923,695.5537 547.2231,694.9726 Z " fill="#000000"/><text fill="#000000" font-family="sans-serif" font-size="14" lengthAdjust="spacing" textLength="22" x="564.75" y="697.3432">Job</text><line style="stroke:#181818;stroke-width:0.5;" x1="104.5" x2="1014.5" y1="708.0522" y2="708.0522"/><rect fill="none" height="6" style="stroke:#C82930;stroke-width:1.0;" width="6" x="111.5" y="718.7963"/><text fill="#000000" font-family="sans-serif" font-size="14" lengthAdjust="spacing" textLength="114" x="123.5" y="725.5873">reference: String</text><rect fill="none" height="6" style="stroke:#C82930;stroke-width:1.0;" width="6" x="111.5" y="735.2846"/><text fill="#000000" font-family="sans-serif" font-size="14" lengthAdjust="spacing" textLength="126" x="123.5" y="742.0756">description: String</text><rect fill="none" height="6" style="stroke:#C82930;stroke-width:1.0;" width="6" x="111.5" y="751.7729"/><text fill="#000000" font-family="sans-serif" font-size="14" lengthAdjust="spacing" textLength="185" x="123.5" y="758.5639">informalDescription: String</text><rect fill="none" height="6" style="stroke:#C82930;stroke-width:1.0;" width="6" x="111.5" y="768.2612"/><text fill="#000000" font-family="sans-serif" font-size="14" lengthAdjust="spacing" textLength="188" x="123.5" y="775.0522">technicalDescription: String</text><rect fill="none" height="6" style="stroke:#C82930;stroke-width:1.0;" width="6" x="111.5" y="784.7495"/><text fill="#000000" font-family="sans-serif" font-size="14" lengthAdjust="spacing" textLength="116" x="123.5" y="791.5405">duration: Integer</text><rect fill="none" height="6" style="stroke:#C82930;stroke-width:1.0;" width="6" x="111.5" y="801.2377"/><text fill="#000000" font-family="sans-serif" font-size="14" lengthAdjust="spacing" textLength="85" x="123.5" y="808.0288">cost: Double</text><line style="stroke:#181818;stroke-width:0.5;" x1="104.5" x2="1014.5" y1="814.9819" y2="814.9819"/><ellipse cx="114.5" cy="828.726" fill="#84BE84" rx="3" ry="3" style="stroke:#038048;stroke-width:1.0;"/><text fill="#000000" font-family="sans-serif" font-size="14" lengthAdjust="spacing" textLength="886" x="123.5" y="832.517">Job(reference: String, description: String, informalDescription: String, technicalDescription: String, duration: Integer, cost: Double)</text></g><!--class Organization--><g id="elem_Organization"><rect codeLine="28" fill="#F1F1F1" height="212.8828" id="Organization" rx="2.5" ry="2.5" style="stroke:#181818;stroke-width:0.5;" width="649" x="441" y="386.1722"/><ellipse cx="716.25" cy="402.1722" fill="#ADD1B2" rx="11" ry="11" style="stroke:#181818;stroke-width:1.0;"/><path d="M719.2231,407.8153 Q718.6421,408.1141 718.0029,408.2635 Q717.3638,408.4129 716.6582,408.4129 Q714.1514,408.4129 712.8315,406.7611 Q711.5117,405.1092 711.5117,401.9881 Q711.5117,398.8587 712.8315,397.2069 Q714.1514,395.555 716.6582,395.555 Q717.3638,395.555 718.0112,395.7044 Q718.6587,395.8538 719.2231,396.1527 L719.2231,398.8753 Q718.5923,398.2943 717.9988,398.0245 Q717.4053,397.7547 716.7744,397.7547 Q715.4297,397.7547 714.7449,398.8214 Q714.0601,399.888 714.0601,401.9881 Q714.0601,404.0799 714.7449,405.1466 Q715.4297,406.2132 716.7744,406.2132 Q717.4053,406.2132 717.9988,405.9434 Q718.5923,405.6737 719.2231,405.0926 Z " fill="#000000"/><text fill="#000000" font-family="sans-serif" font-size="14" lengthAdjust="spacing" textLength="90" x="736.75" y="407.4632">Organization</text><line style="stroke:#181818;stroke-width:0.5;" x1="442" x2="1089" y1="418.1722" y2="418.1722"/><rect fill="none" height="6" style="stroke:#C82930;stroke-width:1.0;" width="6" x="449" y="428.9163"/><text fill="#000000" font-family="sans-serif" font-size="14" lengthAdjust="spacing" textLength="87" x="461" y="435.7073">name: String</text><rect fill="none" height="6" style="stroke:#C82930;stroke-width:1.0;" width="6" x="449" y="445.4046"/><text fill="#000000" font-family="sans-serif" font-size="14" lengthAdjust="spacing" textLength="124" x="461" y="452.1956">vatNumber: String</text><rect fill="none" height="6" style="stroke:#C82930;stroke-width:1.0;" width="6" x="449" y="461.8929"/><text fill="#000000" font-family="sans-serif" font-size="14" lengthAdjust="spacing" textLength="101" x="461" y="468.6839">website: String</text><rect fill="none" height="6" style="stroke:#C82930;stroke-width:1.0;" width="6" x="449" y="478.3812"/><text fill="#000000" font-family="sans-serif" font-size="14" lengthAdjust="spacing" textLength="93" x="461" y="485.1722">phone: String</text><rect fill="none" height="6" style="stroke:#C82930;stroke-width:1.0;" width="6" x="449" y="494.8695"/><text fill="#000000" font-family="sans-serif" font-size="14" lengthAdjust="spacing" textLength="86" x="461" y="501.6605">email: String</text><line style="stroke:#181818;stroke-width:0.5;" x1="442" x2="1089" y1="508.6136" y2="508.6136"/><ellipse cx="452" cy="522.3577" fill="#84BE84" rx="3" ry="3" style="stroke:#038048;stroke-width:1.0;"/><text fill="#000000" font-family="sans-serif" font-size="14" lengthAdjust="spacing" textLength="623" x="461" y="526.1488">Organization(name: String, vatNumber: String, website: String, phone: String, email: String)</text><rect fill="#F24D5C" height="6" style="stroke:#C82930;stroke-width:1.0;" width="6" x="449" y="535.846"/><text fill="#000000" font-family="sans-serif" font-size="14" lengthAdjust="spacing" textLength="110" x="461" y="542.637">addJob(Job: Job)</text><rect fill="#F24D5C" height="6" style="stroke:#C82930;stroke-width:1.0;" width="6" x="449" y="552.3343"/><text fill="#000000" font-family="sans-serif" font-size="14" lengthAdjust="spacing" textLength="137" x="461" y="559.1253">validateJob(Job: Job)</text><ellipse cx="452" cy="571.8226" fill="#84BE84" rx="3" ry="3" style="stroke:#038048;stroke-width:1.0;"/><text fill="#000000" font-family="sans-serif" font-size="14" lengthAdjust="spacing" textLength="248" x="461" y="575.6136">anyEmployeeHasEmail(email: String)</text><rect fill="#F24D5C" height="6" style="stroke:#C82930;stroke-width:1.0;" width="6" x="449" y="585.3109"/><text fill="#000000" font-family="sans-serif" font-size="14" lengthAdjust="spacing" textLength="236" x="461" y="592.1019">getEmployeeByEmail(email: String)</text></g><!--class JobRepository--><g id="elem_JobRepository"><rect codeLine="41" fill="#F1F1F1" height="48" id="JobRepository" rx="2.5" ry="2.5" style="stroke:#181818;stroke-width:0.5;" width="127" x="1381" y="268.9322"/><ellipse cx="1396" cy="284.9322" fill="#ADD1B2" rx="11" ry="11" style="stroke:#181818;stroke-width:1.0;"/><path d="M1398.9731,290.5753 Q1398.3921,290.8741 1397.7529,291.0235 Q1397.1138,291.1729 1396.4082,291.1729 Q1393.9014,291.1729 1392.5815,289.5211 Q1391.2617,287.8692 1391.2617,284.7481 Q1391.2617,281.6187 1392.5815,279.9669 Q1393.9014,278.315 1396.4082,278.315 Q1397.1138,278.315 1397.7612,278.4644 Q1398.4087,278.6138 1398.9731,278.9127 L1398.9731,281.6353 Q1398.3423,281.0543 1397.7488,280.7845 Q1397.1553,280.5147 1396.5244,280.5147 Q1395.1797,280.5147 1394.4949,281.5814 Q1393.8101,282.648 1393.8101,284.7481 Q1393.8101,286.8399 1394.4949,287.9066 Q1395.1797,288.9732 1396.5244,288.9732 Q1397.1553,288.9732 1397.7488,288.7034 Q1398.3423,288.4337 1398.9731,287.8526 Z " fill="#000000"/><text fill="#000000" font-family="sans-serif" font-size="14" lengthAdjust="spacing" textLength="95" x="1410" y="290.2232">JobRepository</text><line style="stroke:#181818;stroke-width:0.5;" x1="1382" x2="1507" y1="300.9322" y2="300.9322"/><line style="stroke:#181818;stroke-width:0.5;" x1="1382" x2="1507" y1="308.9322" y2="308.9322"/></g><!--class OrganizationRepository--><g id="elem_OrganizationRepository"><rect codeLine="45" fill="#F1F1F1" height="64.4883" id="OrganizationRepository" rx="2.5" ry="2.5" style="stroke:#181818;stroke-width:0.5;" width="352" x="818.5" y="260.6822"/><ellipse cx="908.75" cy="276.6822" fill="#ADD1B2" rx="11" ry="11" style="stroke:#181818;stroke-width:1.0;"/><path d="M911.7231,282.3253 Q911.1421,282.6241 910.5029,282.7735 Q909.8638,282.9229 909.1582,282.9229 Q906.6514,282.9229 905.3315,281.2711 Q904.0117,279.6192 904.0117,276.4981 Q904.0117,273.3687 905.3315,271.7169 Q906.6514,270.065 909.1582,270.065 Q909.8638,270.065 910.5112,270.2144 Q911.1587,270.3638 911.7231,270.6627 L911.7231,273.3853 Q911.0923,272.8043 910.4988,272.5345 Q909.9053,272.2647 909.2744,272.2647 Q907.9297,272.2647 907.2449,273.3314 Q906.5601,274.398 906.5601,276.4981 Q906.5601,278.5899 907.2449,279.6566 Q907.9297,280.7232 909.2744,280.7232 Q909.9053,280.7232 910.4988,280.4534 Q911.0923,280.1837 911.7231,279.6026 Z " fill="#000000"/><text fill="#000000" font-family="sans-serif" font-size="14" lengthAdjust="spacing" textLength="163" x="929.25" y="281.9732">OrganizationRepository</text><line style="stroke:#181818;stroke-width:0.5;" x1="819.5" x2="1169.5" y1="292.6822" y2="292.6822"/><line style="stroke:#181818;stroke-width:0.5;" x1="819.5" x2="1169.5" y1="300.6822" y2="300.6822"/><ellipse cx="829.5" cy="314.4263" fill="#84BE84" rx="3" ry="3" style="stroke:#038048;stroke-width:1.0;"/><text fill="#000000" font-family="sans-serif" font-size="14" lengthAdjust="spacing" textLength="326" x="838.5" y="318.2173">getOrganizationByEmployeeEmail(email: String)</text></g><!--class Repositories--><g id="elem_Repositories"><rect codeLine="49" fill="#F1F1F1" height="113.9531" id="Repositories" rx="2.5" ry="2.5" style="stroke:#181818;stroke-width:0.5;" width="392" x="1852.5" y="61.4822"/><ellipse cx="2001.75" cy="77.4822" fill="#ADD1B2" rx="11" ry="11" style="stroke:#181818;stroke-width:1.0;"/><path d="M2004.7231,83.1253 Q2004.1421,83.4241 2003.5029,83.5735 Q2002.8638,83.7229 2002.1582,83.7229 Q1999.6514,83.7229 1998.3315,82.0711 Q1997.0117,80.4192 1997.0117,77.2981 Q1997.0117,74.1687 1998.3315,72.5169 Q1999.6514,70.865 2002.1582,70.865 Q2002.8638,70.865 2003.5112,71.0144 Q2004.1587,71.1638 2004.7231,71.4627 L2004.7231,74.1853 Q2004.0923,73.6043 2003.4988,73.3345 Q2002.9053,73.0647 2002.2744,73.0647 Q2000.9297,73.0647 2000.2449,74.1314 Q1999.5601,75.198 1999.5601,77.2981 Q1999.5601,79.3899 2000.2449,80.4566 Q2000.9297,81.5232 2002.2744,81.5232 Q2002.9053,81.5232 2003.4988,81.2534 Q2004.0923,80.9837 2004.7231,80.4026 Z " fill="#000000"/><text fill="#000000" font-family="sans-serif" font-size="14" lengthAdjust="spacing" textLength="85" x="2022.25" y="82.7732">Repositories</text><line style="stroke:#181818;stroke-width:0.5;" x1="1853.5" x2="2243.5" y1="93.4822" y2="93.4822"/><line style="stroke:#181818;stroke-width:0.5;" x1="1853.5" x2="2243.5" y1="101.4822" y2="101.4822"/><rect fill="#F24D5C" height="6" style="stroke:#C82930;stroke-width:1.0;" width="6" x="1860.5" y="112.2263"/><text fill="#000000" font-family="sans-serif" font-size="14" lengthAdjust="spacing" textLength="95" x="1872.5" y="119.0173">Repositories()</text><ellipse cx="1863.5" cy="131.7146" fill="#84BE84" rx="3" ry="3" style="stroke:#038048;stroke-width:1.0;"/><text fill="#000000" font-family="sans-serif" font-size="14" lengthAdjust="spacing" textLength="182" x="1872.5" y="135.5056">getInstance(): Repositories</text><ellipse cx="1863.5" cy="148.2029" fill="#84BE84" rx="3" ry="3" style="stroke:#038048;stroke-width:1.0;"/><text fill="#000000" font-family="sans-serif" font-size="14" lengthAdjust="spacing" textLength="230" x="1872.5" y="151.9939">getJobRepository(): JobRepository</text><ellipse cx="1863.5" cy="164.6912" fill="#84BE84" rx="3" ry="3" style="stroke:#038048;stroke-width:1.0;"/><text fill="#000000" font-family="sans-serif" font-size="14" lengthAdjust="spacing" textLength="366" x="1872.5" y="168.4822">getOrganizationRepository(): OrganizationRepository</text></g><!--class CreateJobController--><g id="elem_CreateJobController"><rect codeLine="56" fill="#F1F1F1" height="130.4414" id="CreateJobController" rx="2.5" ry="2.5" style="stroke:#181818;stroke-width:0.5;" width="1272" x="154.5" y="53.2422"/><ellipse cx="717.75" cy="69.2422" fill="#ADD1B2" rx="11" ry="11" style="stroke:#181818;stroke-width:1.0;"/><path d="M720.7231,74.8853 Q720.1421,75.1841 719.5029,75.3335 Q718.8638,75.4829 718.1582,75.4829 Q715.6514,75.4829 714.3315,73.8311 Q713.0117,72.1792 713.0117,69.0581 Q713.0117,65.9287 714.3315,64.2769 Q715.6514,62.625 718.1582,62.625 Q718.8638,62.625 719.5112,62.7744 Q720.1587,62.9238 720.7231,63.2227 L720.7231,65.9453 Q720.0923,65.3643 719.4988,65.0945 Q718.9053,64.8247 718.2744,64.8247 Q716.9297,64.8247 716.2449,65.8914 Q715.5601,66.958 715.5601,69.0581 Q715.5601,71.1499 716.2449,72.2166 Q716.9297,73.2832 718.2744,73.2832 Q718.9053,73.2832 719.4988,73.0134 Q720.0923,72.7437 720.7231,72.1626 Z " fill="#000000"/><text fill="#000000" font-family="sans-serif" font-size="14" lengthAdjust="spacing" textLength="137" x="738.25" y="74.5332">CreateJobController</text><line style="stroke:#181818;stroke-width:0.5;" x1="155.5" x2="1425.5" y1="85.2422" y2="85.2422"/><line style="stroke:#181818;stroke-width:0.5;" x1="155.5" x2="1425.5" y1="93.2422" y2="93.2422"/><ellipse cx="165.5" cy="106.9863" fill="#84BE84" rx="3" ry="3" style="stroke:#038048;stroke-width:1.0;"/><text fill="#000000" font-family="sans-serif" font-size="14" lengthAdjust="spacing" textLength="685" x="174.5" y="110.7773">CreateJobController(organizationRepository: OrganizationRepository, JobRepository: JobRepository)</text><ellipse cx="165.5" cy="123.4746" fill="#84BE84" rx="3" ry="3" style="stroke:#038048;stroke-width:1.0;"/><text fill="#000000" font-family="sans-serif" font-size="14" lengthAdjust="spacing" textLength="128" x="174.5" y="127.2656">getJobCategories()</text><ellipse cx="165.5" cy="139.9629" fill="#84BE84" rx="3" ry="3" style="stroke:#038048;stroke-width:1.0;"/><text fill="#000000" font-family="sans-serif" font-size="14" lengthAdjust="spacing" textLength="1246" x="174.5" y="143.7539">createJob(userEmail: String, reference: String, description: String, informalDescription: String, technicalDescription: String, duration: Integer, cost: Double, categoryDescription: String)</text><rect fill="#F24D5C" height="6" style="stroke:#C82930;stroke-width:1.0;" width="6" x="162.5" y="153.4512"/><text fill="#000000" font-family="sans-serif" font-size="14" lengthAdjust="spacing" textLength="420" x="174.5" y="160.2422">getJobCategoryByDescription(JobCategoryDescription: String)</text><rect fill="#F24D5C" height="6" style="stroke:#C82930;stroke-width:1.0;" width="6" x="162.5" y="169.9395"/><text fill="#000000" font-family="sans-serif" font-size="14" lengthAdjust="spacing" textLength="186" x="174.5" y="176.7305">getEmployeeFromSession()</text></g><g id="elem_GMN8"><path d="M1462,98.1522 L1462,114.4622 L1426.9,118.4622 L1462,122.4622 L1462,138.7733 A0,0 0 0 0 1462,138.7733 L1817,138.7733 A0,0 0 0 0 1817,138.7733 L1817,108.1522 L1807,98.1522 L1462,98.1522 A0,0 0 0 0 1462,98.1522 " fill="#FEFFDD" style="stroke:#181818;stroke-width:0.5;"/><path d="M1807,98.1522 L1807,108.1522 L1817,108.1522 L1807,98.1522 " fill="#FEFFDD" style="stroke:#181818;stroke-width:0.5;"/><text fill="#000000" font-family="sans-serif" font-size="13" lengthAdjust="spacing" textLength="288" x="1468" y="115.7205">- userEmail is obtained from the user session</text><text fill="#000000" font-family="sans-serif" font-size="13" lengthAdjust="spacing" textLength="334" x="1468" y="131.0311">- categoryDescription is retrieved from selected data</text></g><g id="elem_GMN11"><path d="M1347,479.9622 L1347,505.2727 A0,0 0 0 0 1347,505.2727 L1660,505.2727 A0,0 0 0 0 1660,505.2727 L1660,489.9622 L1650,479.9622 L1503.9,479.9622 L1451.5,317.3822 L1495.9,479.9622 L1347,479.9622 A0,0 0 0 0 1347,479.9622 " fill="#FEFFDD" style="stroke:#181818;stroke-width:0.5;"/><path d="M1650,479.9622 L1650,489.9622 L1660,489.9622 L1650,479.9622 " fill="#FEFFDD" style="stroke:#181818;stroke-width:0.5;"/><text fill="#000000" font-family="sans-serif" font-size="13" lengthAdjust="spacing" textLength="292" x="1353" y="497.5305">- used for displaying the already existing jobs</text></g><!--class CreateJobUI--><g id="elem_CreateJobUI"><rect codeLine="73" fill="#F1F1F1" height="48" id="CreateJobUI" rx="2.5" ry="2.5" style="stroke:#181818;stroke-width:0.5;" width="113" x="7" y="94.4622"/><ellipse cx="22" cy="110.4622" fill="#ADD1B2" rx="11" ry="11" style="stroke:#181818;stroke-width:1.0;"/><path d="M24.9731,116.1053 Q24.3921,116.4041 23.7529,116.5535 Q23.1138,116.7029 22.4082,116.7029 Q19.9014,116.7029 18.5815,115.0511 Q17.2617,113.3992 17.2617,110.2781 Q17.2617,107.1487 18.5815,105.4969 Q19.9014,103.845 22.4082,103.845 Q23.1138,103.845 23.7612,103.9944 Q24.4087,104.1438 24.9731,104.4427 L24.9731,107.1653 Q24.3423,106.5843 23.7488,106.3145 Q23.1553,106.0447 22.5244,106.0447 Q21.1797,106.0447 20.4949,107.1114 Q19.8101,108.178 19.8101,110.2781 Q19.8101,112.3699 20.4949,113.4366 Q21.1797,114.5032 22.5244,114.5032 Q23.1553,114.5032 23.7488,114.2334 Q24.3423,113.9637 24.9731,113.3826 Z " fill="#000000"/><text fill="#000000" font-family="sans-serif" font-size="14" lengthAdjust="spacing" textLength="81" x="36" y="115.7532">CreateJobUI</text><line style="stroke:#181818;stroke-width:0.5;" x1="8" x2="119" y1="126.4622" y2="126.4622"/><line style="stroke:#181818;stroke-width:0.5;" x1="8" x2="119" y1="134.4622" y2="134.4622"/></g><!--class JobCategory--><g id="elem_JobCategory"><rect fill="#F1F1F1" height="48" id="JobCategory" rx="2.5" ry="2.5" style="stroke:#181818;stroke-width:0.5;" width="116" x="1165.5" y="916.4722"/><ellipse cx="1180.5" cy="932.4722" fill="#ADD1B2" rx="11" ry="11" style="stroke:#181818;stroke-width:1.0;"/><path d="M1183.4731,938.1153 Q1182.8921,938.4141 1182.2529,938.5635 Q1181.6138,938.7129 1180.9082,938.7129 Q1178.4014,938.7129 1177.0815,937.0611 Q1175.7617,935.4092 1175.7617,932.2881 Q1175.7617,929.1587 1177.0815,927.5069 Q1178.4014,925.855 1180.9082,925.855 Q1181.6138,925.855 1182.2612,926.0044 Q1182.9087,926.1538 1183.4731,926.4527 L1183.4731,929.1753 Q1182.8423,928.5943 1182.2488,928.3245 Q1181.6553,928.0547 1181.0244,928.0547 Q1179.6797,928.0547 1178.9949,929.1214 Q1178.3101,930.188 1178.3101,932.2881 Q1178.3101,934.3799 1178.9949,935.4466 Q1179.6797,936.5132 1181.0244,936.5132 Q1181.6553,936.5132 1182.2488,936.2434 Q1182.8423,935.9737 1183.4731,935.3926 Z " fill="#000000"/><text fill="#000000" font-family="sans-serif" font-size="14" lengthAdjust="spacing" textLength="84" x="1194.5" y="937.7632">JobCategory</text><line style="stroke:#181818;stroke-width:0.5;" x1="1166.5" x2="1280.5" y1="948.4722" y2="948.4722"/><line style="stroke:#181818;stroke-width:0.5;" x1="1166.5" x2="1280.5" y1="956.4722" y2="956.4722"/></g><!--class HRM--><g id="elem_HRM"><rect fill="#F1F1F1" height="48" id="HRM" rx="2.5" ry="2.5" style="stroke:#181818;stroke-width:0.5;" width="63" x="528" y="916.4722"/><ellipse cx="543" cy="932.4722" fill="#ADD1B2" rx="11" ry="11" style="stroke:#181818;stroke-width:1.0;"/><path d="M545.9731,938.1153 Q545.3921,938.4141 544.7529,938.5635 Q544.1138,938.7129 543.4082,938.7129 Q540.9014,938.7129 539.5815,937.0611 Q538.2617,935.4092 538.2617,932.2881 Q538.2617,929.1587 539.5815,927.5069 Q540.9014,925.855 543.4082,925.855 Q544.1138,925.855 544.7612,926.0044 Q545.4087,926.1538 545.9731,926.4527 L545.9731,929.1753 Q545.3423,928.5943 544.7488,928.3245 Q544.1553,928.0547 543.5244,928.0547 Q542.1797,928.0547 541.4949,929.1214 Q540.8101,930.188 540.8101,932.2881 Q540.8101,934.3799 541.4949,935.4466 Q542.1797,936.5132 543.5244,936.5132 Q544.1553,936.5132 544.7488,936.2434 Q545.3423,935.9737 545.9731,935.3926 Z " fill="#000000"/><text fill="#000000" font-family="sans-serif" font-size="14" lengthAdjust="spacing" textLength="31" x="557" y="937.7632">HRM</text><line style="stroke:#181818;stroke-width:0.5;" x1="529" x2="590" y1="948.4722" y2="948.4722"/><line style="stroke:#181818;stroke-width:0.5;" x1="529" x2="590" y1="956.4722" y2="956.4722"/></g><!--class Collaborator--><g id="elem_Collaborator"><rect fill="#F1F1F1" height="48" id="Collaborator" rx="2.5" ry="2.5" style="stroke:#181818;stroke-width:0.5;" width="119" x="1051" y="733.7622"/><ellipse cx="1066" cy="749.7622" fill="#ADD1B2" rx="11" ry="11" style="stroke:#181818;stroke-width:1.0;"/><path d="M1068.9731,755.4053 Q1068.3921,755.7041 1067.7529,755.8535 Q1067.1138,756.0029 1066.4082,756.0029 Q1063.9014,756.0029 1062.5815,754.3511 Q1061.2617,752.6992 1061.2617,749.5781 Q1061.2617,746.4487 1062.5815,744.7969 Q1063.9014,743.145 1066.4082,743.145 Q1067.1138,743.145 1067.7612,743.2944 Q1068.4087,743.4438 1068.9731,743.7427 L1068.9731,746.4653 Q1068.3423,745.8843 1067.7488,745.6145 Q1067.1553,745.3447 1066.5244,745.3447 Q1065.1797,745.3447 1064.4949,746.4114 Q1063.8101,747.478 1063.8101,749.5781 Q1063.8101,751.6699 1064.4949,752.7366 Q1065.1797,753.8032 1066.5244,753.8032 Q1067.1553,753.8032 1067.7488,753.5334 Q1068.3423,753.2637 1068.9731,752.6826 Z " fill="#000000"/><text fill="#000000" font-family="sans-serif" font-size="14" lengthAdjust="spacing" textLength="87" x="1080" y="755.0532">Collaborator</text><line style="stroke:#181818;stroke-width:0.5;" x1="1052" x2="1169" y1="765.7622" y2="765.7622"/><line style="stroke:#181818;stroke-width:0.5;" x1="1052" x2="1169" y1="773.7622" y2="773.7622"/></g><!--link Repositories to Repositories--><g id="link_Repositories_Repositories"><path codeLine="76" d="M2244.83,102.2222 C2265.93,105.3522 2279.5,110.7622 2279.5,118.4622 C2279.5,126.1622 2271.8651,130.6918 2250.7651,133.8218 " fill="none" id="Repositories-to-Repositories" style="stroke:#181818;stroke-width:1.0;"/><polygon fill="#181818" points="2244.83,134.7022,2254.3195,137.3383,2249.7759,133.9685,2253.1456,129.4249,2244.83,134.7022" style="stroke:#181818;stroke-width:1.0;"/><text fill="#000000" font-family="sans-serif" font-size="13" lengthAdjust="spacing" textLength="53" x="2285.5" y="123.5305">instance</text></g><!--link CreateJobUI to CreateJobController--><g id="link_CreateJobUI_CreateJobController"><path codeLine="77" d="M120.24,118.4622 C130.44,118.4622 135.79,118.4622 148.14,118.4622 " fill="none" id="CreateJobUI-to-CreateJobController" style="stroke:#181818;stroke-width:1.0;stroke-dasharray:7.0,7.0;"/><polygon fill="#181818" points="154.14,118.4622,145.14,114.4622,149.14,118.4622,145.14,122.4622,154.14,118.4622" style="stroke:#181818;stroke-width:1.0;"/></g><!--link CreateJobController to Repositories--><g id="link_CreateJobController_Repositories"><path codeLine="78" d="M1351.49,52.7522 C1490.7,36.4522 1601,23.5322 1601,23.5322 C1601,23.5322 1678,23.5322 1678,23.5322 C1678,23.5322 1834.5,53.2422 1834.5,53.2422 C1834.5,53.2422 1838.8216,54.5497 1854.5716,59.3597 " fill="none" id="CreateJobController-to-Repositories" style="stroke:#181818;stroke-width:1.0;stroke-dasharray:7.0,7.0;"/><polygon fill="#181818" points="1860.31,61.1122,1852.8708,54.6579,1855.528,59.6518,1850.5341,62.309,1860.31,61.1122" style="stroke:#181818;stroke-width:1.0;"/><text fill="#000000" font-family="sans-serif" font-size="13" lengthAdjust="spacing" textLength="75" x="1602" y="19.8105">repositories</text></g><!--link Repositories to JobRepository--><g id="link_Repositories_JobRepository"><path codeLine="79" d="M1860.31,175.9322 C1844.56,180.6622 1834.5,183.6822 1834.5,183.6822 C1834.5,183.6822 1624.8915,241.8576 1514.2415,272.5676 " fill="none" id="Repositories-to-JobRepository" style="stroke:#181818;stroke-width:1.0;"/><polygon fill="#181818" points="1508.46,274.1722,1518.2019,275.6196,1513.2779,272.835,1516.0625,267.911,1508.46,274.1722" style="stroke:#181818;stroke-width:1.0;"/><text fill="#000000" font-family="sans-serif" font-size="13" lengthAdjust="spacing" textLength="8" x="1515.8931" y="268.8853">1</text></g><!--link CreateJobController to JobCategory--><g id="link_CreateJobController_JobCategory"><path codeLine="80" d="M984.73,184.1322 C1034.12,200.5722 1073.5,213.6822 1073.5,213.6822 C1073.5,213.6822 1188.5,260.6822 1188.5,260.6822 C1188.5,260.6822 1223.5,291.9322 1223.5,291.9322 C1223.5,291.9322 1223.5,291.9322 1223.5,758.7622 C1223.5,758.7622 1223.5,861.4122 1223.5,910.2222 " fill="none" id="CreateJobController-to-JobCategory" style="stroke:#181818;stroke-width:1.0;stroke-dasharray:7.0,7.0;"/><polygon fill="#181818" points="1223.5,916.2222,1227.5,907.2222,1223.5,911.2222,1219.5,907.2222,1223.5,916.2222" style="stroke:#181818;stroke-width:1.0;"/></g><!--link CreateJobController to OrganizationRepository--><g id="link_CreateJobController_OrganizationRepository"><path codeLine="81" d="M867.04,184.1722 C897.79,210.1722 927.2581,235.0784 952.4281,256.3584 " fill="none" id="CreateJobController-to-OrganizationRepository" style="stroke:#181818;stroke-width:1.0;stroke-dasharray:7.0,7.0;"/><polygon fill="#181818" points="957.01,260.2322,952.7197,251.3669,953.1917,257.004,947.5546,257.4761,957.01,260.2322" style="stroke:#181818;stroke-width:1.0;"/><text fill="#000000" font-family="sans-serif" font-size="13" lengthAdjust="spacing" textLength="146" x="918.5" y="227.2505">organizationRepository</text></g><!--link CreateJobController to JobRepository--><g id="link_CreateJobController_JobRepository"><path codeLine="82" d="M1105.53,184.1322 C1185.62,200.5722 1249.5,213.6822 1249.5,213.6822 C1249.5,213.6822 1322.9918,243.1673 1380.4218,266.2173 " fill="none" id="CreateJobController-to-JobRepository" style="stroke:#181818;stroke-width:1.0;stroke-dasharray:7.0,7.0;"/><polygon fill="#181818" points="1385.99,268.4522,1379.1275,261.3877,1381.3498,266.5898,1376.1477,268.8121,1385.99,268.4522" style="stroke:#181818;stroke-width:1.0;"/><text fill="#000000" font-family="sans-serif" font-size="13" lengthAdjust="spacing" textLength="87" x="1292.5" y="227.2505">JobRepository</text></g><!--link Repositories to OrganizationRepository--><g id="link_Repositories_OrganizationRepository"><path codeLine="83" d="M1860.31,175.9322 C1844.56,180.6622 1834.5,183.6822 1834.5,183.6822 C1834.5,183.6822 1423.1508,236.6955 1176.8008,268.4355 " fill="none" id="Repositories-to-OrganizationRepository" style="stroke:#181818;stroke-width:1.0;"/><polygon fill="#181818" points="1170.85,269.2022,1180.2874,272.0193,1175.809,268.5633,1179.2651,264.0849,1170.85,269.2022" style="stroke:#181818;stroke-width:1.0;"/><text fill="#000000" font-family="sans-serif" font-size="13" lengthAdjust="spacing" textLength="8" x="1178.4585" y="265.4598">1</text></g><!--link OrganizationRepository to Organization--><g id="link_OrganizationRepository_Organization"><path codeLine="84" d="M957.96,325.4722 C938.64,342.1522 918.2212,359.7707 892.7212,381.7907 " fill="none" id="OrganizationRepository-to-Organization" style="stroke:#181818;stroke-width:1.0;"/><polygon fill="#181818" points="888.18,385.7122,897.6061,382.8575,891.9643,382.4443,892.3775,376.8026,888.18,385.7122" style="stroke:#181818;stroke-width:1.0;"/><text fill="#000000" font-family="sans-serif" font-size="13" lengthAdjust="spacing" textLength="6" x="890.221" y="375.6046">*</text></g><!--link CreateJobController to Organization--><g id="link_CreateJobController_Organization"><path codeLine="85" d="M758.12,183.8722 C739.39,221.1222 719.5,260.6822 719.5,260.6822 C719.5,260.6822 719.5,325.1722 719.5,325.1722 C719.5,325.1722 725.5606,347.1193 734.6406,379.9493 " fill="none" id="CreateJobController-to-Organization" style="stroke:#181818;stroke-width:1.0;"/><polygon fill="#181818" points="736.24,385.7322,737.6961,375.9916,734.9072,380.9131,729.9856,378.1241,736.24,385.7322" style="stroke:#181818;stroke-width:1.0;"/><text fill="#000000" font-family="sans-serif" font-size="13" lengthAdjust="spacing" textLength="79" x="720.5" y="298.0005">organization</text><text fill="#000000" font-family="sans-serif" font-size="13" lengthAdjust="spacing" textLength="8" x="725.9014" y="375.269">1</text></g><!--link Job to JobCategory--><g id="link_Job_JobCategory"><path codeLine="86" d="M857.51,839.8722 C973.7,871.4922 1089.7007,903.0563 1159.3907,922.0263 " fill="none" id="Job-to-JobCategory" style="stroke:#181818;stroke-width:1.0;"/><polygon fill="#181818" points="1165.18,923.6022,1157.5466,917.3788,1160.3555,922.2889,1155.4454,925.0979,1165.18,923.6022" style="stroke:#181818;stroke-width:1.0;"/><text fill="#000000" font-family="sans-serif" font-size="13" lengthAdjust="spacing" textLength="76" x="1027.5" y="883.0405">JobCategory</text><text fill="#000000" font-family="sans-serif" font-size="13" lengthAdjust="spacing" textLength="6" x="876.8624" y="860.1548">*</text><text fill="#000000" font-family="sans-serif" font-size="13" lengthAdjust="spacing" textLength="8" x="1149.5848" y="918.2194">1</text></g><!--link JobRepository to JobCategory--><g id="link_JobRepository_JobCategory"><path codeLine="87" d="M1415.48,317.2022 C1381.41,344.5322 1329.5,386.1722 1329.5,386.1722 C1329.5,386.1722 1249.5,886.4722 1249.5,886.4722 C1249.5,886.4722 1244.5807,896.4845 1237.6207,910.6845 " fill="none" id="JobRepository-to-JobCategory" style="stroke:#181818;stroke-width:1.0;"/><polygon fill="#181818" points="1234.98,916.0722,1242.5328,909.7512,1237.1806,911.5825,1235.3493,906.2303,1234.98,916.0722" style="stroke:#181818;stroke-width:1.0;"/><text fill="#000000" font-family="sans-serif" font-size="13" lengthAdjust="spacing" textLength="76" x="1290.5" y="642.6205">JobCategory</text><text fill="#000000" font-family="sans-serif" font-size="13" lengthAdjust="spacing" textLength="8" x="1399.4314" y="337.5523">1</text><text fill="#000000" font-family="sans-serif" font-size="13" lengthAdjust="spacing" textLength="6" x="1231.047" y="905.9028">*</text></g><!--link Organization to Job--><g id="link_Organization_Job"><path codeLine="88" d="M682.6,599.5122 C662.7,624.9322 645.4575,646.9569 626.6075,671.0469 " fill="none" id="Organization-to-Job" style="stroke:#181818;stroke-width:1.0;"/><polygon fill="#181818" points="622.91,675.7722,631.6064,671.1492,625.9912,671.8344,625.306,666.2192,622.91,675.7722" style="stroke:#181818;stroke-width:1.0;"/><text fill="#000000" font-family="sans-serif" font-size="13" lengthAdjust="spacing" textLength="27" x="657.5" y="642.6205">Jobs</text><text fill="#000000" font-family="sans-serif" font-size="13" lengthAdjust="spacing" textLength="8" x="668.7614" y="619.7771">1</text><text fill="#000000" font-family="sans-serif" font-size="13" lengthAdjust="spacing" textLength="6" x="622.2903" y="665.3843">*</text></g><!--link Job to HRM--><g id="link_Job_HRM"><path codeLine="89" d="M559.5,839.8722 C559.5,867.6422 559.5,890.5922 559.5,910.0722 " fill="none" id="Job-to-HRM" style="stroke:#181818;stroke-width:1.0;"/><polygon fill="#181818" points="559.5,916.0722,563.5,907.0722,559.5,911.0722,555.5,907.0722,559.5,916.0722" style="stroke:#181818;stroke-width:1.0;"/><text fill="#000000" font-family="sans-serif" font-size="13" lengthAdjust="spacing" textLength="60" x="560.5" y="883.0405">createdBy</text></g><!--link Organization to Collaborator--><g id="link_Organization_Collaborator"><path codeLine="90" d="M921.01,599.4722 C980.12,639.7122 1033.5,676.0522 1033.5,676.0522 C1033.5,676.0522 1061.3487,705.2406 1084.0887,729.0806 " fill="none" id="Organization-to-Collaborator" style="stroke:#181818;stroke-width:1.0;"/><polygon fill="#181818" points="1088.23,733.4222,1084.9125,724.1489,1084.7789,729.8042,1079.1236,729.6706,1088.23,733.4222" style="stroke:#181818;stroke-width:1.0;"/><text fill="#000000" font-family="sans-serif" font-size="13" lengthAdjust="spacing" textLength="53" x="989.5" y="642.6205">employs</text><text fill="#000000" font-family="sans-serif" font-size="13" lengthAdjust="spacing" textLength="6" x="1075.7546" y="722.8713">*</text></g><!--SRC=[nLPDRvmm4BtpAwnS5XeIgLSEEUmcLLAfhPIeFy30BEl6sCZs9gLL_dl7VDfWzjf8EJ1-y-RDbxqx_Sf4GnMjIIs5B4vAra2CEaCqdpIqUAKLl9YM0r5G62egxWBqYPRodOcA72dNxWbd0apR06aaR-r75EqAJhKc3tN3PGj0_aOxWdytHD0QCl9Y51ADDgWfuqjZ8pKpJ8gL_II5m_0HHNsehpB7A3r6mH4KY6B6zVOITA5Ouz7s9qmSfQeflzz462XEWXMN8ELPqTxy90nKe0Px8RN9oBqyvrXGQxgsQkELoZGaCBsaBRqeArqhIZqnIVGnjGeL7IXYf6hdReKAjfio6F5n09OuhVcXAYhOdqx9r2Dl47hJ6pNVptKEQc5_XnndOOds1o4qIRrGDthiHatN0TDbhDGFa_eHaY4iBKlRKFpFR5sIAH_EIgpH-koQKD6Eo_58zODbZOFS5PWHk6-3E7S5dg7Rcxw9KR037gGNWp5Sn7wITZdUnCH0JtrrZN4o1tWI6g-K0k8ayp0pmfDlOPuXBDLt29_CWWyA-dOSf31ASWvgga7WB9P1lgqugIzueJ_n4XrMnwrHCGg8pnhKWrlpbFp_kmA_XdM_3stxDApElR1teR5pS9bX7Bul-4ozWDRMkPiw8Gq-JQmw6IAFeOOD75Fz2DD4veRYarII8z8HSuBkcEYUUBoXryAihmBK1c-ZimQExo9-uLBJ24H9hA91LowDGGmAMuzj9mb9f28bqmsdhNr6hHRACOko9V2RQMEDlsIk7Uh5tFvymdd5IdYRTtFdRsA6Kz3lMkGwtju5InRQYTiLet8tTXdzwlFL8kaWAR8wCx29sRYhCXBUnaknF7TVeP_3aCJ6_R6XgFFwv7i5rOJe5_b4zkUB9RkPwpaznvbNDpylYns5RFjuaHSkFLHt2gpvyVaRclhRgDmlV4U_0sP6Suat1ivqXg-YNLdz3m00]--></g></svg>