<?xml version="1.0" encoding="us-ascii" standalone="no"?><svg xmlns="http://www.w3.org/2000/svg" xmlns:xlink="http://www.w3.org/1999/xlink" contentStyleType="text/css" height="1323px" preserveAspectRatio="none" style="width:1991px;height:1323px;background:#FFFFFF;" version="1.1" viewBox="0 0 1991 1323" width="1991px" zoomAndPan="magnify"><defs/><g><rect fill="#FFFFFF" height="1133.4023" style="stroke:#181818;stroke-width:1.0;" width="10" x="96.5" y="91.4883"/><rect fill="#FFFFFF" height="217.3516" style="stroke:#181818;stroke-width:1.0;" width="10" x="470.5" y="112.7988"/><rect fill="#FFFFFF" height="29.3105" style="stroke:#181818;stroke-width:1.0;" width="10" x="470.5" y="359.4609"/><rect fill="#FFFFFF" height="806.8086" style="stroke:#181818;stroke-width:1.0;" width="10" x="470.5" y="418.082"/><rect fill="#FFFFFF" height="1050.293" style="stroke:#181818;stroke-width:1.0;" width="10" x="781.5" y="183.5977"/><rect fill="#FFFFFF" height="748.1875" style="stroke:#181818;stroke-width:1.0;" width="10" x="786.5" y="447.3926"/><rect fill="#FFFFFF" height="423.3477" style="stroke:#181818;stroke-width:1.0;" width="10" x="791.5" y="509.7031"/><rect fill="#FFFFFF" height="29.3105" style="stroke:#181818;stroke-width:1.0;" width="10" x="1000.5" y="212.9082"/><rect fill="#FFFFFF" height="29.3105" style="stroke:#181818;stroke-width:1.0;" width="10" x="1111.5" y="271.5293"/><rect fill="#FFFFFF" height="29.3105" style="stroke:#181818;stroke-width:1.0;" width="10" x="1111.5" y="661.2559"/><rect fill="#FFFFFF" height="29.3105" style="stroke:#181818;stroke-width:1.0;" width="10" x="1350" y="773.498"/><rect fill="#FFFFFF" height="29.3105" style="stroke:#181818;stroke-width:1.0;" width="10" x="1350" y="868.4297"/><rect fill="#FFFFFF" height="239.5293" style="stroke:#181818;stroke-width:1.0;" width="10" x="1350" y="994.3613"/><rect fill="#FFFFFF" height="76.6211" style="stroke:#181818;stroke-width:1.0;" width="10" x="1355" y="1089.6484"/><rect fill="#FFFFFF" height="29.3105" style="stroke:#181818;stroke-width:1.0;" width="10" x="1709.5" y="544.0137"/><rect fill="#FFFFFF" height="29.3105" style="stroke:#181818;stroke-width:1.0;" width="10" x="1763" y="602.6348"/><rect fill="#FFFFFF" height="119.2422" style="stroke:#181818;stroke-width:1.0;" width="10" x="1881.5" y="719.877"/><rect fill="none" height="75.9316" style="stroke:#000000;stroke-width:1.5;" width="694" x="1291" y="734.877"/><line style="stroke:#181818;stroke-width:0.5;stroke-dasharray:5.0,5.0;" x1="101" x2="101" y1="81.4883" y2="1242.8906"/><line style="stroke:#181818;stroke-width:0.5;stroke-dasharray:5.0,5.0;" x1="475" x2="475" y1="81.4883" y2="1242.8906"/><line style="stroke:#181818;stroke-width:0.5;stroke-dasharray:5.0,5.0;" x1="786" x2="786" y1="151.543" y2="1242.8906"/><line style="stroke:#181818;stroke-width:0.5;stroke-dasharray:5.0,5.0;" x1="1005" x2="1005" y1="81.4883" y2="1242.8906"/><line style="stroke:#181818;stroke-width:0.5;stroke-dasharray:5.0,5.0;" x1="1116" x2="1116" y1="81.4883" y2="1242.8906"/><line style="stroke:#181818;stroke-width:0.5;stroke-dasharray:5.0,5.0;" x1="1234" x2="1234" y1="81.4883" y2="1242.8906"/><line style="stroke:#181818;stroke-width:0.5;stroke-dasharray:5.0,5.0;" x1="1355" x2="1355" y1="81.4883" y2="1242.8906"/><line style="stroke:#181818;stroke-width:0.5;stroke-dasharray:5.0,5.0;" x1="1661" x2="1661" y1="1041.3496" y2="1242.8906"/><line style="stroke:#181818;stroke-width:0.5;stroke-dasharray:5.0,5.0;" x1="1714" x2="1714" y1="81.4883" y2="1242.8906"/><line style="stroke:#181818;stroke-width:0.5;stroke-dasharray:5.0,5.0;" x1="1768" x2="1768" y1="81.4883" y2="1242.8906"/><line style="stroke:#181818;stroke-width:0.5;stroke-dasharray:5.0,5.0;" x1="1886" x2="1886" y1="81.4883" y2="1242.8906"/><text fill="#000000" font-family="sans-serif" font-size="14" lengthAdjust="spacing" textLength="187" x="5" y="78.5352">Human Resources Manager</text><ellipse cx="101.5" cy="13.5" fill="#E3E3E3" rx="8" ry="8" style="stroke:#181818;stroke-width:0.5;"/><path d="M101.5,21.5 L101.5,48.5 M88.5,29.5 L114.5,29.5 M101.5,48.5 L88.5,63.5 M101.5,48.5 L114.5,63.5 " fill="none" style="stroke:#181818;stroke-width:0.5;"/><text fill="#000000" font-family="sans-serif" font-size="14" lengthAdjust="spacing" textLength="187" x="5" y="1255.4258">Human Resources Manager</text><ellipse cx="101.5" cy="1266.8789" fill="#E3E3E3" rx="8" ry="8" style="stroke:#181818;stroke-width:0.5;"/><path d="M101.5,1274.8789 L101.5,1301.8789 M88.5,1282.8789 L114.5,1282.8789 M101.5,1301.8789 L88.5,1316.8789 M101.5,1301.8789 L114.5,1316.8789 " fill="none" style="stroke:#181818;stroke-width:0.5;"/><rect fill="#E3E3E3" height="30.4883" rx="2.5" ry="2.5" style="stroke:#181818;stroke-width:0.5;" width="99" x="426" y="50"/><text fill="#000000" font-family="sans-serif" font-size="14" lengthAdjust="spacing" textLength="85" x="433" y="70.5352">:CreateJobUI</text><rect fill="#E3E3E3" height="30.4883" rx="2.5" ry="2.5" style="stroke:#181818;stroke-width:0.5;" width="99" x="426" y="1241.8906"/><text fill="#000000" font-family="sans-serif" font-size="14" lengthAdjust="spacing" textLength="85" x="433" y="1262.4258">:CreateJobUI</text><rect fill="#E3E3E3" height="30.4883" rx="2.5" ry="2.5" style="stroke:#181818;stroke-width:0.5;" width="155" x="709" y="1241.8906"/><text fill="#000000" font-family="sans-serif" font-size="14" lengthAdjust="spacing" textLength="141" x="716" y="1262.4258">:CreateJobController</text><rect fill="#E3E3E3" height="30.4883" rx="2.5" ry="2.5" style="stroke:#181818;stroke-width:0.5;" width="99" x="956" y="50"/><text fill="#000000" font-family="sans-serif" font-size="14" lengthAdjust="spacing" textLength="85" x="963" y="70.5352">Repositories</text><rect fill="#E3E3E3" height="30.4883" rx="2.5" ry="2.5" style="stroke:#181818;stroke-width:0.5;" width="99" x="956" y="1241.8906"/><text fill="#000000" font-family="sans-serif" font-size="14" lengthAdjust="spacing" textLength="85" x="963" y="1262.4258">Repositories</text><rect fill="#E3E3E3" height="46.9766" rx="2.5" ry="2.5" style="stroke:#181818;stroke-width:0.5;" width="103" x="1065" y="33.5117"/><text fill="#000000" font-family="sans-serif" font-size="14" lengthAdjust="spacing" textLength="82" x="1075.5" y="54.0469">repositories</text><text fill="#000000" font-family="sans-serif" font-size="14" lengthAdjust="spacing" textLength="89" x="1072" y="70.5352">:Repositories</text><rect fill="#E3E3E3" height="46.9766" rx="2.5" ry="2.5" style="stroke:#181818;stroke-width:0.5;" width="103" x="1065" y="1241.8906"/><text fill="#000000" font-family="sans-serif" font-size="14" lengthAdjust="spacing" textLength="82" x="1075.5" y="1262.4258">repositories</text><text fill="#000000" font-family="sans-serif" font-size="14" lengthAdjust="spacing" textLength="89" x="1072" y="1278.9141">:Repositories</text><rect fill="#E3E3E3" height="46.9766" rx="2.5" ry="2.5" style="stroke:#181818;stroke-width:0.5;" width="113" x="1178" y="33.5117"/><text fill="#000000" font-family="sans-serif" font-size="14" lengthAdjust="spacing" textLength="99" x="1185" y="54.0469">jobRepository:</text><text fill="#000000" font-family="sans-serif" font-size="14" lengthAdjust="spacing" textLength="95" x="1187" y="70.5352">JobRepository</text><rect fill="#E3E3E3" height="46.9766" rx="2.5" ry="2.5" style="stroke:#181818;stroke-width:0.5;" width="113" x="1178" y="1241.8906"/><text fill="#000000" font-family="sans-serif" font-size="14" lengthAdjust="spacing" textLength="99" x="1185" y="1262.4258">jobRepository:</text><text fill="#000000" font-family="sans-serif" font-size="14" lengthAdjust="spacing" textLength="95" x="1187" y="1278.9141">JobRepository</text><rect fill="#E3E3E3" height="46.9766" rx="2.5" ry="2.5" style="stroke:#181818;stroke-width:0.5;" width="108" x="1301" y="33.5117"/><text fill="#000000" font-family="sans-serif" font-size="14" lengthAdjust="spacing" textLength="88" x="1311" y="54.0469">organization</text><text fill="#000000" font-family="sans-serif" font-size="14" lengthAdjust="spacing" textLength="94" x="1308" y="70.5352">:Organization</text><rect fill="#E3E3E3" height="46.9766" rx="2.5" ry="2.5" style="stroke:#181818;stroke-width:0.5;" width="108" x="1301" y="1241.8906"/><text fill="#000000" font-family="sans-serif" font-size="14" lengthAdjust="spacing" textLength="88" x="1311" y="1262.4258">organization</text><text fill="#000000" font-family="sans-serif" font-size="14" lengthAdjust="spacing" textLength="94" x="1308" y="1278.9141">:Organization</text><rect fill="#E3E3E3" height="46.9766" rx="2.5" ry="2.5" style="stroke:#181818;stroke-width:0.5;" width="40" x="1641" y="1241.8906"/><text fill="#000000" font-family="sans-serif" font-size="14" lengthAdjust="spacing" textLength="22" x="1650" y="1262.4258">job</text><text fill="#000000" font-family="sans-serif" font-size="14" lengthAdjust="spacing" textLength="26" x="1648" y="1278.9141">:Job</text><rect fill="#E3E3E3" height="30.4883" rx="2.5" ry="2.5" style="stroke:#181818;stroke-width:0.5;" width="47" x="1691" y="50"/><text fill="#000000" font-family="sans-serif" font-size="14" lengthAdjust="spacing" textLength="33" x="1698" y="70.5352">_APP</text><rect fill="#E3E3E3" height="30.4883" rx="2.5" ry="2.5" style="stroke:#181818;stroke-width:0.5;" width="47" x="1691" y="1241.8906"/><text fill="#000000" font-family="sans-serif" font-size="14" lengthAdjust="spacing" textLength="33" x="1698" y="1262.4258">_APP</text><rect fill="#E3E3E3" height="30.4883" rx="2.5" ry="2.5" style="stroke:#181818;stroke-width:0.5;" width="40" x="1748" y="50"/><text fill="#000000" font-family="sans-serif" font-size="14" lengthAdjust="spacing" textLength="26" x="1755" y="70.5352">APP</text><rect fill="#E3E3E3" height="30.4883" rx="2.5" ry="2.5" style="stroke:#181818;stroke-width:0.5;" width="40" x="1748" y="1241.8906"/><text fill="#000000" font-family="sans-serif" font-size="14" lengthAdjust="spacing" textLength="26" x="1755" y="1262.4258">APP</text><rect fill="#E3E3E3" height="30.4883" rx="2.5" ry="2.5" style="stroke:#181818;stroke-width:0.5;" width="177" x="1798" y="50"/><text fill="#000000" font-family="sans-serif" font-size="14" lengthAdjust="spacing" textLength="163" x="1805" y="70.5352">OrganizationRepository</text><rect fill="#E3E3E3" height="30.4883" rx="2.5" ry="2.5" style="stroke:#181818;stroke-width:0.5;" width="177" x="1798" y="1241.8906"/><text fill="#000000" font-family="sans-serif" font-size="14" lengthAdjust="spacing" textLength="163" x="1805" y="1262.4258">OrganizationRepository</text><rect fill="#FFFFFF" height="1133.4023" style="stroke:#181818;stroke-width:1.0;" width="10" x="96.5" y="91.4883"/><rect fill="#FFFFFF" height="217.3516" style="stroke:#181818;stroke-width:1.0;" width="10" x="470.5" y="112.7988"/><rect fill="#FFFFFF" height="29.3105" style="stroke:#181818;stroke-width:1.0;" width="10" x="470.5" y="359.4609"/><rect fill="#FFFFFF" height="806.8086" style="stroke:#181818;stroke-width:1.0;" width="10" x="470.5" y="418.082"/><rect fill="#FFFFFF" height="1050.293" style="stroke:#181818;stroke-width:1.0;" width="10" x="781.5" y="183.5977"/><rect fill="#FFFFFF" height="748.1875" style="stroke:#181818;stroke-width:1.0;" width="10" x="786.5" y="447.3926"/><rect fill="#FFFFFF" height="423.3477" style="stroke:#181818;stroke-width:1.0;" width="10" x="791.5" y="509.7031"/><rect fill="#FFFFFF" height="29.3105" style="stroke:#181818;stroke-width:1.0;" width="10" x="1000.5" y="212.9082"/><rect fill="#FFFFFF" height="29.3105" style="stroke:#181818;stroke-width:1.0;" width="10" x="1111.5" y="271.5293"/><rect fill="#FFFFFF" height="29.3105" style="stroke:#181818;stroke-width:1.0;" width="10" x="1111.5" y="661.2559"/><rect fill="#FFFFFF" height="29.3105" style="stroke:#181818;stroke-width:1.0;" width="10" x="1350" y="773.498"/><rect fill="#FFFFFF" height="29.3105" style="stroke:#181818;stroke-width:1.0;" width="10" x="1350" y="868.4297"/><rect fill="#FFFFFF" height="239.5293" style="stroke:#181818;stroke-width:1.0;" width="10" x="1350" y="994.3613"/><rect fill="#FFFFFF" height="76.6211" style="stroke:#181818;stroke-width:1.0;" width="10" x="1355" y="1089.6484"/><rect fill="#FFFFFF" height="29.3105" style="stroke:#181818;stroke-width:1.0;" width="10" x="1709.5" y="544.0137"/><rect fill="#FFFFFF" height="29.3105" style="stroke:#181818;stroke-width:1.0;" width="10" x="1763" y="602.6348"/><rect fill="#FFFFFF" height="119.2422" style="stroke:#181818;stroke-width:1.0;" width="10" x="1881.5" y="719.877"/><polygon fill="#181818" points="458.5,108.7988,468.5,112.7988,458.5,116.7988,462.5,112.7988" style="stroke:#181818;stroke-width:1.0;"/><line style="stroke:#181818;stroke-width:1.0;" x1="106.5" x2="464.5" y1="112.7988" y2="112.7988"/><text fill="#000000" font-family="sans-serif" font-size="13" font-weight="bold" lengthAdjust="spacing" textLength="9" x="113.5" y="108.0566">1</text><text fill="#000000" font-family="sans-serif" font-size="13" lengthAdjust="spacing" textLength="162" x="126.5" y="108.0566">asks to register a new job</text><polygon fill="#181818" points="697,138.1094,707,142.1094,697,146.1094,701,142.1094" style="stroke:#181818;stroke-width:1.0;"/><line style="stroke:#181818;stroke-width:1.0;" x1="480.5" x2="703" y1="142.1094" y2="142.1094"/><text fill="#000000" font-family="sans-serif" font-size="13" font-weight="bold" lengthAdjust="spacing" textLength="9" x="487.5" y="137.3672">2</text><text fill="#000000" font-family="sans-serif" font-size="13" lengthAdjust="spacing" textLength="38" x="500.5" y="137.3672">create</text><rect fill="#E3E3E3" height="30.4883" rx="2.5" ry="2.5" style="stroke:#181818;stroke-width:0.5;" width="155" x="709" y="120.7988"/><text fill="#000000" font-family="sans-serif" font-size="14" lengthAdjust="spacing" textLength="141" x="716" y="141.334">:CreateJobController</text><polygon fill="#181818" points="769.5,179.5977,779.5,183.5977,769.5,187.5977,773.5,183.5977" style="stroke:#181818;stroke-width:1.0;"/><line style="stroke:#181818;stroke-width:1.0;" x1="480.5" x2="775.5" y1="183.5977" y2="183.5977"/><text fill="#000000" font-family="sans-serif" font-size="13" font-weight="bold" lengthAdjust="spacing" textLength="9" x="487.5" y="178.8555">3</text><text fill="#000000" font-family="sans-serif" font-size="13" lengthAdjust="spacing" textLength="48" x="500.5" y="178.8555">getJob()</text><polygon fill="#181818" points="988.5,208.9082,998.5,212.9082,988.5,216.9082,992.5,212.9082" style="stroke:#181818;stroke-width:1.0;"/><line style="stroke:#181818;stroke-width:1.0;" x1="791.5" x2="994.5" y1="212.9082" y2="212.9082"/><text fill="#000000" font-family="sans-serif" font-size="13" font-weight="bold" lengthAdjust="spacing" textLength="9" x="798.5" y="208.166">4</text><text fill="#000000" font-family="sans-serif" font-size="13" lengthAdjust="spacing" textLength="81" x="811.5" y="208.166">getInstance()</text><polygon fill="#181818" points="802.5,238.2188,792.5,242.2188,802.5,246.2188,798.5,242.2188" style="stroke:#181818;stroke-width:1.0;"/><line style="stroke:#181818;stroke-width:1.0;stroke-dasharray:2.0,2.0;" x1="796.5" x2="1004.5" y1="242.2188" y2="242.2188"/><text fill="#000000" font-family="sans-serif" font-size="13" font-weight="bold" lengthAdjust="spacing" textLength="9" x="808.5" y="237.4766">5</text><text fill="#000000" font-family="sans-serif" font-size="13" lengthAdjust="spacing" textLength="75" x="821.5" y="237.4766">repositories</text><polygon fill="#181818" points="1099.5,267.5293,1109.5,271.5293,1099.5,275.5293,1103.5,271.5293" style="stroke:#181818;stroke-width:1.0;"/><line style="stroke:#181818;stroke-width:1.0;" x1="791.5" x2="1105.5" y1="271.5293" y2="271.5293"/><text fill="#000000" font-family="sans-serif" font-size="13" font-weight="bold" lengthAdjust="spacing" textLength="9" x="798.5" y="266.7871">6</text><text fill="#000000" font-family="sans-serif" font-size="13" lengthAdjust="spacing" textLength="115" x="811.5" y="266.7871">getJobRepository()</text><polygon fill="#181818" points="802.5,296.8398,792.5,300.8398,802.5,304.8398,798.5,300.8398" style="stroke:#181818;stroke-width:1.0;"/><line style="stroke:#181818;stroke-width:1.0;stroke-dasharray:2.0,2.0;" x1="796.5" x2="1115.5" y1="300.8398" y2="300.8398"/><text fill="#000000" font-family="sans-serif" font-size="13" font-weight="bold" lengthAdjust="spacing" textLength="9" x="808.5" y="296.0977">7</text><text fill="#000000" font-family="sans-serif" font-size="13" lengthAdjust="spacing" textLength="87" x="821.5" y="296.0977">jobRepository</text><polygon fill="#181818" points="117.5,326.1504,107.5,330.1504,117.5,334.1504,113.5,330.1504" style="stroke:#181818;stroke-width:1.0;"/><line style="stroke:#181818;stroke-width:1.0;stroke-dasharray:2.0,2.0;" x1="111.5" x2="474.5" y1="330.1504" y2="330.1504"/><text fill="#000000" font-family="sans-serif" font-size="13" font-weight="bold" lengthAdjust="spacing" textLength="9" x="123.5" y="325.4082">8</text><text fill="#000000" font-family="sans-serif" font-size="13" lengthAdjust="spacing" textLength="85" x="136.5" y="325.4082">requests data</text><polygon fill="#181818" points="458.5,355.4609,468.5,359.4609,458.5,363.4609,462.5,359.4609" style="stroke:#181818;stroke-width:1.0;"/><line style="stroke:#181818;stroke-width:1.0;" x1="106.5" x2="464.5" y1="359.4609" y2="359.4609"/><text fill="#000000" font-family="sans-serif" font-size="13" font-weight="bold" lengthAdjust="spacing" textLength="9" x="113.5" y="354.7188">9</text><text fill="#000000" font-family="sans-serif" font-size="13" lengthAdjust="spacing" textLength="332" x="126.5" y="354.7188">types requested data (Job name, set of skills needed)</text><polygon fill="#181818" points="117.5,384.7715,107.5,388.7715,117.5,392.7715,113.5,388.7715" style="stroke:#181818;stroke-width:1.0;"/><line style="stroke:#181818;stroke-width:1.0;stroke-dasharray:2.0,2.0;" x1="111.5" x2="474.5" y1="388.7715" y2="388.7715"/><text fill="#000000" font-family="sans-serif" font-size="13" font-weight="bold" lengthAdjust="spacing" textLength="18" x="123.5" y="384.0293">10</text><text fill="#000000" font-family="sans-serif" font-size="13" lengthAdjust="spacing" textLength="137" x="145.5" y="384.0293">shows requested data</text><polygon fill="#181818" points="458.5,414.082,468.5,418.082,458.5,422.082,462.5,418.082" style="stroke:#181818;stroke-width:1.0;"/><line style="stroke:#181818;stroke-width:1.0;" x1="106.5" x2="464.5" y1="418.082" y2="418.082"/><text fill="#000000" font-family="sans-serif" font-size="13" font-weight="bold" lengthAdjust="spacing" textLength="18" x="113.5" y="413.3398">11</text><text fill="#000000" font-family="sans-serif" font-size="13" lengthAdjust="spacing" textLength="82" x="135.5" y="413.3398">submits data</text><polygon fill="#181818" points="774.5,443.3926,784.5,447.3926,774.5,451.3926,778.5,447.3926" style="stroke:#181818;stroke-width:1.0;"/><line style="stroke:#181818;stroke-width:1.0;" x1="480.5" x2="780.5" y1="447.3926" y2="447.3926"/><text fill="#000000" font-family="sans-serif" font-size="13" font-weight="bold" lengthAdjust="spacing" textLength="18" x="487.5" y="442.6504">12</text><text fill="#000000" font-family="sans-serif" font-size="13" lengthAdjust="spacing" textLength="255" x="509.5" y="442.6504">createJob(Job name, set of skills needed)</text><line style="stroke:#181818;stroke-width:1.0;" x1="796.5" x2="843.5" y1="496.7031" y2="496.7031"/><line style="stroke:#181818;stroke-width:1.0;" x1="843.5" x2="843.5" y1="496.7031" y2="509.7031"/><line style="stroke:#181818;stroke-width:1.0;" x1="802.5" x2="843.5" y1="509.7031" y2="509.7031"/><polygon fill="#181818" points="812.5,505.7031,802.5,509.7031,812.5,513.7031,808.5,509.7031" style="stroke:#181818;stroke-width:1.0;"/><text fill="#000000" font-family="sans-serif" font-size="13" font-weight="bold" lengthAdjust="spacing" textLength="18" x="808.5" y="491.9609">13</text><text fill="#000000" font-family="sans-serif" font-size="13" lengthAdjust="spacing" textLength="168" x="830.5" y="491.9609">getEmployeeFromSession()</text><polygon fill="#181818" points="1697.5,540.0137,1707.5,544.0137,1697.5,548.0137,1701.5,544.0137" style="stroke:#181818;stroke-width:1.0;"/><line style="stroke:#181818;stroke-width:1.0;" x1="801.5" x2="1703.5" y1="544.0137" y2="544.0137"/><text fill="#000000" font-family="sans-serif" font-size="13" font-weight="bold" lengthAdjust="spacing" textLength="18" x="808.5" y="539.2715">14</text><text fill="#000000" font-family="sans-serif" font-size="13" lengthAdjust="spacing" textLength="81" x="830.5" y="539.2715">getInstance()</text><polygon fill="#181818" points="812.5,569.3242,802.5,573.3242,812.5,577.3242,808.5,573.3242" style="stroke:#181818;stroke-width:1.0;"/><line style="stroke:#181818;stroke-width:1.0;" x1="806.5" x2="1713.5" y1="573.3242" y2="573.3242"/><text fill="#000000" font-family="sans-serif" font-size="13" font-weight="bold" lengthAdjust="spacing" textLength="18" x="818.5" y="568.582">15</text><text fill="#000000" font-family="sans-serif" font-size="13" lengthAdjust="spacing" textLength="71" x="840.5" y="568.582">appSession</text><polygon fill="#181818" points="1751,598.6348,1761,602.6348,1751,606.6348,1755,602.6348" style="stroke:#181818;stroke-width:1.0;"/><line style="stroke:#181818;stroke-width:1.0;" x1="801.5" x2="1757" y1="602.6348" y2="602.6348"/><text fill="#000000" font-family="sans-serif" font-size="13" font-weight="bold" lengthAdjust="spacing" textLength="18" x="808.5" y="597.8926">16</text><text fill="#000000" font-family="sans-serif" font-size="13" lengthAdjust="spacing" textLength="123" x="830.5" y="597.8926">getCurrentSession()</text><polygon fill="#181818" points="812.5,627.9453,802.5,631.9453,812.5,635.9453,808.5,631.9453" style="stroke:#181818;stroke-width:1.0;"/><line style="stroke:#181818;stroke-width:1.0;stroke-dasharray:2.0,2.0;" x1="806.5" x2="1767" y1="631.9453" y2="631.9453"/><text fill="#000000" font-family="sans-serif" font-size="13" font-weight="bold" lengthAdjust="spacing" textLength="18" x="818.5" y="627.2031">17</text><text fill="#000000" font-family="sans-serif" font-size="13" lengthAdjust="spacing" textLength="93" x="840.5" y="627.2031">currentSession</text><polygon fill="#181818" points="1099.5,657.2559,1109.5,661.2559,1099.5,665.2559,1103.5,661.2559" style="stroke:#181818;stroke-width:1.0;"/><line style="stroke:#181818;stroke-width:1.0;" x1="801.5" x2="1105.5" y1="661.2559" y2="661.2559"/><text fill="#000000" font-family="sans-serif" font-size="13" font-weight="bold" lengthAdjust="spacing" textLength="18" x="808.5" y="656.5137">18</text><text fill="#000000" font-family="sans-serif" font-size="13" lengthAdjust="spacing" textLength="210" x="830.5" y="656.5137">getOrganizationRepository(email)</text><polygon fill="#181818" points="812.5,686.5664,802.5,690.5664,812.5,694.5664,808.5,690.5664" style="stroke:#181818;stroke-width:1.0;"/><line style="stroke:#181818;stroke-width:1.0;stroke-dasharray:2.0,2.0;" x1="806.5" x2="1115.5" y1="690.5664" y2="690.5664"/><text fill="#000000" font-family="sans-serif" font-size="13" font-weight="bold" lengthAdjust="spacing" textLength="18" x="818.5" y="685.8242">19</text><text fill="#000000" font-family="sans-serif" font-size="13" lengthAdjust="spacing" textLength="146" x="840.5" y="685.8242">organizationRepository</text><polygon fill="#181818" points="1869.5,715.877,1879.5,719.877,1869.5,723.877,1873.5,719.877" style="stroke:#181818;stroke-width:1.0;"/><line style="stroke:#181818;stroke-width:1.0;" x1="801.5" x2="1875.5" y1="719.877" y2="719.877"/><text fill="#000000" font-family="sans-serif" font-size="13" font-weight="bold" lengthAdjust="spacing" textLength="18" x="808.5" y="715.1348">20</text><text fill="#000000" font-family="sans-serif" font-size="13" lengthAdjust="spacing" textLength="251" x="830.5" y="715.1348">getOrganizationByEmployeeEmail(email)</text><path d="M1291,734.877 L1365,734.877 L1365,742.1875 L1355,752.1875 L1291,752.1875 L1291,734.877 " fill="#EEEEEE" style="stroke:#000000;stroke-width:1.5;"/><rect fill="none" height="75.9316" style="stroke:#000000;stroke-width:1.5;" width="694" x="1291" y="734.877"/><text fill="#000000" font-family="sans-serif" font-size="13" font-weight="bold" lengthAdjust="spacing" textLength="29" x="1306" y="748.4453">loop</text><text fill="#000000" font-family="sans-serif" font-size="11" font-weight="bold" lengthAdjust="spacing" textLength="132" x="1380" y="747.5117">[[for each organization]</text><polygon fill="#181818" points="1371,769.498,1361,773.498,1371,777.498,1367,773.498" style="stroke:#181818;stroke-width:1.0;"/><line style="stroke:#181818;stroke-width:1.0;" x1="1365" x2="1880.5" y1="773.498" y2="773.498"/><text fill="#000000" font-family="sans-serif" font-size="13" font-weight="bold" lengthAdjust="spacing" textLength="18" x="1377" y="768.7559">21</text><text fill="#000000" font-family="sans-serif" font-size="13" lengthAdjust="spacing" textLength="182" x="1399" y="768.7559">anyEmployeeHasEmail(email)</text><polygon fill="#181818" points="1869.5,798.8086,1879.5,802.8086,1869.5,806.8086,1873.5,802.8086" style="stroke:#181818;stroke-width:1.0;"/><line style="stroke:#181818;stroke-width:1.0;stroke-dasharray:2.0,2.0;" x1="1355" x2="1875.5" y1="802.8086" y2="802.8086"/><text fill="#000000" font-family="sans-serif" font-size="13" font-weight="bold" lengthAdjust="spacing" textLength="18" x="1362" y="798.0664">22</text><text fill="#000000" font-family="sans-serif" font-size="13" lengthAdjust="spacing" textLength="62" x="1384" y="798.0664">true/false</text><polygon fill="#181818" points="812.5,835.1191,802.5,839.1191,812.5,843.1191,808.5,839.1191" style="stroke:#181818;stroke-width:1.0;"/><line style="stroke:#181818;stroke-width:1.0;stroke-dasharray:2.0,2.0;" x1="806.5" x2="1885.5" y1="839.1191" y2="839.1191"/><text fill="#000000" font-family="sans-serif" font-size="13" font-weight="bold" lengthAdjust="spacing" textLength="18" x="818.5" y="834.377">23</text><text fill="#000000" font-family="sans-serif" font-size="13" lengthAdjust="spacing" textLength="79" x="840.5" y="834.377">organization</text><polygon fill="#181818" points="1338,864.4297,1348,868.4297,1338,872.4297,1342,868.4297" style="stroke:#181818;stroke-width:1.0;"/><line style="stroke:#181818;stroke-width:1.0;" x1="801.5" x2="1344" y1="868.4297" y2="868.4297"/><text fill="#000000" font-family="sans-serif" font-size="13" font-weight="bold" lengthAdjust="spacing" textLength="18" x="808.5" y="863.6875">24</text><text fill="#000000" font-family="sans-serif" font-size="13" lengthAdjust="spacing" textLength="170" x="830.5" y="863.6875">getEmployeeByEmail(email)</text><polygon fill="#181818" points="812.5,893.7402,802.5,897.7402,812.5,901.7402,808.5,897.7402" style="stroke:#181818;stroke-width:1.0;"/><line style="stroke:#181818;stroke-width:1.0;stroke-dasharray:2.0,2.0;" x1="806.5" x2="1354" y1="897.7402" y2="897.7402"/><text fill="#000000" font-family="sans-serif" font-size="13" font-weight="bold" lengthAdjust="spacing" textLength="18" x="818.5" y="892.998">25</text><text fill="#000000" font-family="sans-serif" font-size="13" lengthAdjust="spacing" textLength="60" x="840.5" y="892.998">employee</text><line style="stroke:#181818;stroke-width:1.0;stroke-dasharray:2.0,2.0;" x1="801.5" x2="843.5" y1="932.0508" y2="932.0508"/><line style="stroke:#181818;stroke-width:1.0;stroke-dasharray:2.0,2.0;" x1="843.5" x2="843.5" y1="932.0508" y2="945.0508"/><line style="stroke:#181818;stroke-width:1.0;stroke-dasharray:2.0,2.0;" x1="796.5" x2="843.5" y1="945.0508" y2="945.0508"/><polygon fill="#181818" points="806.5,941.0508,796.5,945.0508,806.5,949.0508,802.5,945.0508" style="stroke:#181818;stroke-width:1.0;"/><text fill="#000000" font-family="sans-serif" font-size="13" font-weight="bold" lengthAdjust="spacing" textLength="18" x="808.5" y="927.3086">26</text><text fill="#000000" font-family="sans-serif" font-size="13" lengthAdjust="spacing" textLength="60" x="830.5" y="927.3086">employee</text><polygon fill="#181818" points="1338,990.3613,1348,994.3613,1338,998.3613,1342,994.3613" style="stroke:#181818;stroke-width:1.0;"/><line style="stroke:#181818;stroke-width:1.0;" x1="796.5" x2="1344" y1="994.3613" y2="994.3613"/><text fill="#000000" font-family="sans-serif" font-size="13" font-weight="bold" lengthAdjust="spacing" textLength="18" x="803.5" y="989.6191">27</text><text fill="#000000" font-family="sans-serif" font-size="13" lengthAdjust="spacing" textLength="255" x="825.5" y="989.6191">createJob(Job name, set of skills needed)</text><polygon fill="#181818" points="1629,1019.6719,1639,1023.6719,1629,1027.6719,1633,1023.6719" style="stroke:#181818;stroke-width:1.0;"/><line style="stroke:#181818;stroke-width:1.0;" x1="1360" x2="1635" y1="1023.6719" y2="1023.6719"/><text fill="#000000" font-family="sans-serif" font-size="13" font-weight="bold" lengthAdjust="spacing" textLength="18" x="1367" y="1018.9297">28</text><text fill="#000000" font-family="sans-serif" font-size="13" lengthAdjust="spacing" textLength="235" x="1389" y="1018.9297">create(Job name, set of skills needed)</text><rect fill="#E3E3E3" height="46.9766" rx="2.5" ry="2.5" style="stroke:#181818;stroke-width:0.5;" width="40" x="1641" y="1002.3613"/><text fill="#000000" font-family="sans-serif" font-size="14" lengthAdjust="spacing" textLength="22" x="1650" y="1022.8965">job</text><text fill="#000000" font-family="sans-serif" font-size="14" lengthAdjust="spacing" textLength="26" x="1648" y="1039.3848">:Job</text><line style="stroke:#181818;stroke-width:1.0;" x1="1360" x2="1407" y1="1076.6484" y2="1076.6484"/><line style="stroke:#181818;stroke-width:1.0;" x1="1407" x2="1407" y1="1076.6484" y2="1089.6484"/><line style="stroke:#181818;stroke-width:1.0;" x1="1366" x2="1407" y1="1089.6484" y2="1089.6484"/><polygon fill="#181818" points="1376,1085.6484,1366,1089.6484,1376,1093.6484,1372,1089.6484" style="stroke:#181818;stroke-width:1.0;"/><text fill="#000000" font-family="sans-serif" font-size="13" font-weight="bold" lengthAdjust="spacing" textLength="18" x="1372" y="1071.9063">29</text><text fill="#000000" font-family="sans-serif" font-size="13" lengthAdjust="spacing" textLength="75" x="1394" y="1071.9063">addJob (job)</text><line style="stroke:#181818;stroke-width:1.0;" x1="1365" x2="1407" y1="1123.959" y2="1123.959"/><line style="stroke:#181818;stroke-width:1.0;" x1="1407" x2="1407" y1="1123.959" y2="1136.959"/><line style="stroke:#181818;stroke-width:1.0;" x1="1366" x2="1407" y1="1136.959" y2="1136.959"/><polygon fill="#181818" points="1376,1132.959,1366,1136.959,1376,1140.959,1372,1136.959" style="stroke:#181818;stroke-width:1.0;"/><text fill="#000000" font-family="sans-serif" font-size="13" font-weight="bold" lengthAdjust="spacing" textLength="18" x="1372" y="1119.2168">30</text><text fill="#000000" font-family="sans-serif" font-size="13" lengthAdjust="spacing" textLength="97" x="1394" y="1119.2168">validateJob(job)</text><polygon fill="#181818" points="807.5,1162.2695,797.5,1166.2695,807.5,1170.2695,803.5,1166.2695" style="stroke:#181818;stroke-width:1.0;"/><line style="stroke:#181818;stroke-width:1.0;stroke-dasharray:2.0,2.0;" x1="801.5" x2="1349" y1="1166.2695" y2="1166.2695"/><text fill="#000000" font-family="sans-serif" font-size="13" font-weight="bold" lengthAdjust="spacing" textLength="18" x="813.5" y="1161.5273">31</text><text fill="#000000" font-family="sans-serif" font-size="13" lengthAdjust="spacing" textLength="20" x="835.5" y="1161.5273">job</text><polygon fill="#181818" points="491.5,1191.5801,481.5,1195.5801,491.5,1199.5801,487.5,1195.5801" style="stroke:#181818;stroke-width:1.0;"/><line style="stroke:#181818;stroke-width:1.0;stroke-dasharray:2.0,2.0;" x1="485.5" x2="780.5" y1="1195.5801" y2="1195.5801"/><text fill="#000000" font-family="sans-serif" font-size="13" font-weight="bold" lengthAdjust="spacing" textLength="18" x="497.5" y="1190.8379">32</text><text fill="#000000" font-family="sans-serif" font-size="13" lengthAdjust="spacing" textLength="20" x="519.5" y="1190.8379">job</text><polygon fill="#181818" points="112.5,1220.8906,102.5,1224.8906,112.5,1228.8906,108.5,1224.8906" style="stroke:#181818;stroke-width:1.0;"/><line style="stroke:#181818;stroke-width:1.0;stroke-dasharray:2.0,2.0;" x1="106.5" x2="474.5" y1="1224.8906" y2="1224.8906"/><text fill="#000000" font-family="sans-serif" font-size="13" font-weight="bold" lengthAdjust="spacing" textLength="18" x="118.5" y="1220.1484">33</text><text fill="#000000" font-family="sans-serif" font-size="13" lengthAdjust="spacing" textLength="170" x="140.5" y="1220.1484">displays operation success</text><!--SRC=[hLXHR-Cs37xNhn3wuhQuOEy1LY2NzdezjBWYIP-kmA3OJEBLbZn9lYv3V_nesR6bMBAJs_pIsY8_VgH8YefwItd19CjfBhY8TrBaGBKiWQXsfM3n6zl2Kkype19YpVWsimNKZYNYFULRkc6P0a9OgGKlypL8Gg9TcW3T2A7Nuc_2OYqalVXQvepJ1IXHoXWKVM8SBSWBoXITtJuHnDLfd1QCQtendKjW6hw9zSk3aNXv20dC1TTIP5a3DLyj7btH1HH2fSWX1ML4sW_xPLgvXSHT3MbflF9f3-3vSRPoDVuKwmvr-ig_sUz6n_b28jUPML5aQSnqAlWIbC8_HkUFsVFpaIWhYaO2YGNK-bfnAILmtMc-A92sol9kkPnzFz8ISiju-e_1TxpxxbqmGFub4iH5BhPAZR6uxqKNvJ22PdarMznzcP4ghzAVc0CcUmXj7doXanlC5pf5uJT5jS04tgPAWwICSdYd2DV9joYOOIIYreCG4qIg0AS8yLS9IYkQCCtefOGDO4HZ-4GJKB5CYuhz9qfJlX4oPnbzvUwAXdZ7SRCoztDIIbR_5mkbhuXD88fDZjSfVSpindo-laPkjHW9YA305ZG6xz95RnqtyCvIzHXLXF0KIutum1LsXHYEO1reNwNrfAl7PsNIE505lol0dde2vvaxE5OLSHkRJdF87LFtNlu6h2Fij8CXnXx4oEAumWoUezmMOJh0q8uQtHRQRJZ79EfC3-1FkjH1JnwnTde-H9OJGvOwRmv5gIsRFMWRjixBS4cgdNXN1ex63HxD410hZ_6aBNwL0PvVL73ei2mhMFPHlM1t3WKPAYbi60v-BUYqZF5kGVeMoR4zlI_mI6pK86cw30QMSfPZar607cmedhzPfh29GG99lVdZPEeukTYdS5BbEazj7uAcsco93uVoITGzNIZoLMhNnUny_Ro_xHhffPrLrlSh5t78shbDBpghwqLz-JFxNdHcuul2xdMjpzy01hqpBIlWJjq6sntJNlH1JqBeftJ4_veTZfkh07U_u-EDrAOm687LYK6ZTcSTDTBhg_RYnyS76Iwykxp8n1xW2ruMchdnryQ9QgGzUNmmyw_Fxsg1jcNIpSH3Hwq12nCxy9exe_8GEuFdOsV8jUpSsNk8eHSmEX2iH_GfXPob6VszubfDyNVLguTcrC8sitsVQfKWzQ95ry0F7lS7lC79oiJIVncuD2R-Zp7BVq4PdxU2pFs4UxvytX_geOx-c4E1Iv7NnKo8Wlx0ImH5rZl7HQzyzVZnZKEB- -eUn5l2NvaQvDpdZfUne5Hj7MrCWi6hkf8iuRVwPu8GXhL5bK6V2F24dEDyrxy6OsXRFd6RscnPt3lDiKgBaz8X5D9391lUqE2IaMYHiMF12_HB9u9n-VmfRznzu_fDSxU_lZuOESk2XMDuiYIfr2_n3dFbAVhHZBEnVh8iJHgl3LuqMZNHQC64X8xsDp1p3CACfSXHgZa_YOpfM_UvMdCehVpNjobDKbLaRA-eAA3-2GGl776CfwJlRcAVahTFv5y0]--></g></svg>