<?xml version="1.0" encoding="us-ascii" standalone="no"?><svg xmlns="http://www.w3.org/2000/svg" xmlns:xlink="http://www.w3.org/1999/xlink" contentStyleType="text/css" height="650px" preserveAspectRatio="none" style="width:925px;height:650px;background:#FFFFFF;" version="1.1" viewBox="0 0 925 650" width="925px" zoomAndPan="magnify"><defs/><g><!--class Repositories--><g id="elem_Repositories"><rect codeLine="12" fill="#F1F1F1" height="122.4844" id="Repositories" rx="2.5" ry="2.5" style="stroke:#181818;stroke-width:0.5;" width="198" x="104.5" y="208"/><ellipse cx="159.75" cy="224" fill="#ADD1B2" rx="11" ry="11" style="stroke:#181818;stroke-width:1.0;"/><path d="M162.5156,219.875 Q162.6719,219.6563 162.8594,219.5469 Q163.0469,219.4375 163.2656,219.4375 Q163.6406,219.4375 163.875,219.7031 Q164.1094,219.9531 164.1094,220.5625 L164.1094,222.0156 Q164.1094,222.625 163.875,222.8906 Q163.6406,223.1563 163.2656,223.1563 Q162.9219,223.1563 162.7188,222.9531 Q162.5156,222.7656 162.4063,222.25 Q162.3594,221.8906 162.1719,221.7031 Q161.8438,221.3281 161.2344,221.1094 Q160.625,220.8906 160,220.8906 Q159.2344,220.8906 158.5938,221.2188 Q157.9688,221.5469 157.4688,222.2969 Q156.9844,223.0469 156.9844,224.0781 L156.9844,225.1719 Q156.9844,226.4063 157.875,227.2344 Q158.7656,228.0469 160.3594,228.0469 Q161.2969,228.0469 161.9531,227.7969 Q162.3438,227.6406 162.7656,227.2031 Q163.0313,226.9375 163.1719,226.8594 Q163.3281,226.7813 163.5313,226.7813 Q163.8594,226.7813 164.1094,227.0469 Q164.375,227.2969 164.375,227.6406 Q164.375,227.9844 164.0313,228.3906 Q163.5313,228.9688 162.7344,229.2969 Q161.6563,229.75 160.3594,229.75 Q158.8438,229.75 157.6406,229.125 Q156.6563,228.625 155.9688,227.5625 Q155.2813,226.4844 155.2813,225.2031 L155.2813,224.0469 Q155.2813,222.7188 155.8906,221.5781 Q156.5156,220.4219 157.6094,219.8125 Q158.7031,219.1875 159.9375,219.1875 Q160.6719,219.1875 161.3125,219.3594 Q161.9688,219.5156 162.5156,219.875 Z " fill="#000000"/><text fill="#000000" font-family="sans-serif" font-size="14" lengthAdjust="spacing" textLength="79" x="180.25" y="229.7969">Repositories</text><line style="stroke:#181818;stroke-width:0.5;" x1="105.5" x2="301.5" y1="240" y2="240"/><line style="stroke:#181818;stroke-width:0.5;" x1="105.5" x2="301.5" y1="248" y2="248"/><text fill="#000000" font-family="sans-serif" font-size="14" lengthAdjust="spacing" textLength="94" x="110.5" y="267.1074">-Repositories()</text><text fill="#000000" font-family="sans-serif" font-size="14" lengthAdjust="spacing" textLength="182" x="110.5" y="285.7285">+getInstance() : Repositories</text><text fill="#000000" font-family="sans-serif" font-size="14" lengthAdjust="spacing" textLength="186" x="110.5" y="304.3496">+getGreenSpaceRepository()</text><text fill="#000000" font-family="sans-serif" font-size="14" lengthAdjust="spacing" textLength="174" x="110.5" y="322.9707">+getToDoEntryRepository()</text></g><!--class AddToDoEntryController--><g id="elem_AddToDoEntryController"><rect codeLine="19" fill="#F1F1F1" height="122.4844" id="AddToDoEntryController" rx="2.5" ry="2.5" style="stroke:#181818;stroke-width:0.5;" width="393" x="351" y="7"/><ellipse cx="465.75" cy="23" fill="#ADD1B2" rx="11" ry="11" style="stroke:#181818;stroke-width:1.0;"/><path d="M468.5156,18.875 Q468.6719,18.6563 468.8594,18.5469 Q469.0469,18.4375 469.2656,18.4375 Q469.6406,18.4375 469.875,18.7031 Q470.1094,18.9531 470.1094,19.5625 L470.1094,21.0156 Q470.1094,21.625 469.875,21.8906 Q469.6406,22.1563 469.2656,22.1563 Q468.9219,22.1563 468.7188,21.9531 Q468.5156,21.7656 468.4063,21.25 Q468.3594,20.8906 468.1719,20.7031 Q467.8438,20.3281 467.2344,20.1094 Q466.625,19.8906 466,19.8906 Q465.2344,19.8906 464.5938,20.2188 Q463.9688,20.5469 463.4688,21.2969 Q462.9844,22.0469 462.9844,23.0781 L462.9844,24.1719 Q462.9844,25.4063 463.875,26.2344 Q464.7656,27.0469 466.3594,27.0469 Q467.2969,27.0469 467.9531,26.7969 Q468.3438,26.6406 468.7656,26.2031 Q469.0313,25.9375 469.1719,25.8594 Q469.3281,25.7813 469.5313,25.7813 Q469.8594,25.7813 470.1094,26.0469 Q470.375,26.2969 470.375,26.6406 Q470.375,26.9844 470.0313,27.3906 Q469.5313,27.9688 468.7344,28.2969 Q467.6563,28.75 466.3594,28.75 Q464.8438,28.75 463.6406,28.125 Q462.6563,27.625 461.9688,26.5625 Q461.2813,25.4844 461.2813,24.2031 L461.2813,23.0469 Q461.2813,21.7188 461.8906,20.5781 Q462.5156,19.4219 463.6094,18.8125 Q464.7031,18.1875 465.9375,18.1875 Q466.6719,18.1875 467.3125,18.3594 Q467.9688,18.5156 468.5156,18.875 Z " fill="#000000"/><text fill="#000000" font-family="sans-serif" font-size="14" lengthAdjust="spacing" textLength="155" x="486.25" y="28.7969">AddToDoEntryController</text><line style="stroke:#181818;stroke-width:0.5;" x1="352" x2="743" y1="39" y2="39"/><line style="stroke:#181818;stroke-width:0.5;" x1="352" x2="743" y1="47" y2="47"/><text fill="#000000" font-family="sans-serif" font-size="14" lengthAdjust="spacing" textLength="173" x="357" y="66.1074">+AddToDoEntryController()</text><text fill="#000000" font-family="sans-serif" font-size="14" lengthAdjust="spacing" textLength="183" x="357" y="84.7285">-getGreenSpaceRepository()</text><text fill="#000000" font-family="sans-serif" font-size="14" lengthAdjust="spacing" textLength="171" x="357" y="103.3496">-getToDoEntryRepository()</text><text fill="#000000" font-family="sans-serif" font-size="14" lengthAdjust="spacing" textLength="381" x="357" y="121.9707">+addEntry(title, description, urgency, duration, GreenSpace)</text></g><!--class AddToDoEntryUI--><g id="elem_AddToDoEntryUI"><rect codeLine="28" fill="#F1F1F1" height="48" id="AddToDoEntryUI" rx="2.5" ry="2.5" style="stroke:#181818;stroke-width:0.5;" width="137" x="179" y="44"/><ellipse cx="194" cy="60" fill="#ADD1B2" rx="11" ry="11" style="stroke:#181818;stroke-width:1.0;"/><path d="M196.7656,55.875 Q196.9219,55.6563 197.1094,55.5469 Q197.2969,55.4375 197.5156,55.4375 Q197.8906,55.4375 198.125,55.7031 Q198.3594,55.9531 198.3594,56.5625 L198.3594,58.0156 Q198.3594,58.625 198.125,58.8906 Q197.8906,59.1563 197.5156,59.1563 Q197.1719,59.1563 196.9688,58.9531 Q196.7656,58.7656 196.6563,58.25 Q196.6094,57.8906 196.4219,57.7031 Q196.0938,57.3281 195.4844,57.1094 Q194.875,56.8906 194.25,56.8906 Q193.4844,56.8906 192.8438,57.2188 Q192.2188,57.5469 191.7188,58.2969 Q191.2344,59.0469 191.2344,60.0781 L191.2344,61.1719 Q191.2344,62.4063 192.125,63.2344 Q193.0156,64.0469 194.6094,64.0469 Q195.5469,64.0469 196.2031,63.7969 Q196.5938,63.6406 197.0156,63.2031 Q197.2813,62.9375 197.4219,62.8594 Q197.5781,62.7813 197.7813,62.7813 Q198.1094,62.7813 198.3594,63.0469 Q198.625,63.2969 198.625,63.6406 Q198.625,63.9844 198.2813,64.3906 Q197.7813,64.9688 196.9844,65.2969 Q195.9063,65.75 194.6094,65.75 Q193.0938,65.75 191.8906,65.125 Q190.9063,64.625 190.2188,63.5625 Q189.5313,62.4844 189.5313,61.2031 L189.5313,60.0469 Q189.5313,58.7188 190.1406,57.5781 Q190.7656,56.4219 191.8594,55.8125 Q192.9531,55.1875 194.1875,55.1875 Q194.9219,55.1875 195.5625,55.3594 Q196.2188,55.5156 196.7656,55.875 Z " fill="#000000"/><text fill="#000000" font-family="sans-serif" font-size="14" lengthAdjust="spacing" textLength="105" x="208" y="65.7969">AddToDoEntryUI</text><line style="stroke:#181818;stroke-width:0.5;" x1="180" x2="315" y1="76" y2="76"/><line style="stroke:#181818;stroke-width:0.5;" x1="180" x2="315" y1="84" y2="84"/></g><!--class TodoEntryRepository--><g id="elem_TodoEntryRepository"><rect codeLine="33" fill="#F1F1F1" height="159.7266" id="TodoEntryRepository" rx="2.5" ry="2.5" style="stroke:#181818;stroke-width:0.5;" width="393" x="7" y="446"/><ellipse cx="132.25" cy="462" fill="#ADD1B2" rx="11" ry="11" style="stroke:#181818;stroke-width:1.0;"/><path d="M135.0156,457.875 Q135.1719,457.6563 135.3594,457.5469 Q135.5469,457.4375 135.7656,457.4375 Q136.1406,457.4375 136.375,457.7031 Q136.6094,457.9531 136.6094,458.5625 L136.6094,460.0156 Q136.6094,460.625 136.375,460.8906 Q136.1406,461.1563 135.7656,461.1563 Q135.4219,461.1563 135.2188,460.9531 Q135.0156,460.7656 134.9063,460.25 Q134.8594,459.8906 134.6719,459.7031 Q134.3438,459.3281 133.7344,459.1094 Q133.125,458.8906 132.5,458.8906 Q131.7344,458.8906 131.0938,459.2188 Q130.4688,459.5469 129.9688,460.2969 Q129.4844,461.0469 129.4844,462.0781 L129.4844,463.1719 Q129.4844,464.4063 130.375,465.2344 Q131.2656,466.0469 132.8594,466.0469 Q133.7969,466.0469 134.4531,465.7969 Q134.8438,465.6406 135.2656,465.2031 Q135.5313,464.9375 135.6719,464.8594 Q135.8281,464.7813 136.0313,464.7813 Q136.3594,464.7813 136.6094,465.0469 Q136.875,465.2969 136.875,465.6406 Q136.875,465.9844 136.5313,466.3906 Q136.0313,466.9688 135.2344,467.2969 Q134.1563,467.75 132.8594,467.75 Q131.3438,467.75 130.1406,467.125 Q129.1563,466.625 128.4688,465.5625 Q127.7813,464.4844 127.7813,463.2031 L127.7813,462.0469 Q127.7813,460.7188 128.3906,459.5781 Q129.0156,458.4219 130.1094,457.8125 Q131.2031,457.1875 132.4375,457.1875 Q133.1719,457.1875 133.8125,457.3594 Q134.4688,457.5156 135.0156,457.875 Z " fill="#000000"/><text fill="#000000" font-family="sans-serif" font-size="14" lengthAdjust="spacing" textLength="134" x="152.75" y="467.7969">TodoEntryRepository</text><line style="stroke:#181818;stroke-width:0.5;" x1="8" x2="399" y1="478" y2="478"/><text fill="#000000" font-family="sans-serif" font-size="14" lengthAdjust="spacing" textLength="196" x="13" y="497.1074">-List&lt;ToDoEntry&gt;toDoEntryList</text><line style="stroke:#181818;stroke-width:0.5;" x1="8" x2="399" y1="504.6211" y2="504.6211"/><text fill="#000000" font-family="sans-serif" font-size="14" lengthAdjust="spacing" textLength="105" x="13" y="523.7285">+add(toDoEntry)</text><text fill="#000000" font-family="sans-serif" font-size="14" lengthAdjust="spacing" textLength="158" x="13" y="542.3496">+getEntryByName(name)</text><text fill="#000000" font-family="sans-serif" font-size="14" lengthAdjust="spacing" textLength="163" x="13" y="560.9707">+validateEntry(toDoEntry)</text><text fill="#000000" font-family="sans-serif" font-size="14" lengthAdjust="spacing" textLength="93" x="13" y="579.5918">+getEntryList()</text><text fill="#000000" font-family="sans-serif" font-size="14" lengthAdjust="spacing" textLength="381" x="13" y="598.2129">+addEntry(title, description, urgency, duration, GreenSpace)</text></g><!--class GreenSpaceRepository--><g id="elem_GreenSpaceRepository"><rect codeLine="42" fill="#F1F1F1" height="66.6211" id="GreenSpaceRepository" rx="2.5" ry="2.5" style="stroke:#181818;stroke-width:0.5;" width="180" x="738.5" y="235.5"/><ellipse cx="753.5" cy="251.5" fill="#ADD1B2" rx="11" ry="11" style="stroke:#181818;stroke-width:1.0;"/><path d="M756.2656,247.375 Q756.4219,247.1563 756.6094,247.0469 Q756.7969,246.9375 757.0156,246.9375 Q757.3906,246.9375 757.625,247.2031 Q757.8594,247.4531 757.8594,248.0625 L757.8594,249.5156 Q757.8594,250.125 757.625,250.3906 Q757.3906,250.6563 757.0156,250.6563 Q756.6719,250.6563 756.4688,250.4531 Q756.2656,250.2656 756.1563,249.75 Q756.1094,249.3906 755.9219,249.2031 Q755.5938,248.8281 754.9844,248.6094 Q754.375,248.3906 753.75,248.3906 Q752.9844,248.3906 752.3438,248.7188 Q751.7188,249.0469 751.2188,249.7969 Q750.7344,250.5469 750.7344,251.5781 L750.7344,252.6719 Q750.7344,253.9063 751.625,254.7344 Q752.5156,255.5469 754.1094,255.5469 Q755.0469,255.5469 755.7031,255.2969 Q756.0938,255.1406 756.5156,254.7031 Q756.7813,254.4375 756.9219,254.3594 Q757.0781,254.2813 757.2813,254.2813 Q757.6094,254.2813 757.8594,254.5469 Q758.125,254.7969 758.125,255.1406 Q758.125,255.4844 757.7813,255.8906 Q757.2813,256.4688 756.4844,256.7969 Q755.4063,257.25 754.1094,257.25 Q752.5938,257.25 751.3906,256.625 Q750.4063,256.125 749.7188,255.0625 Q749.0313,253.9844 749.0313,252.7031 L749.0313,251.5469 Q749.0313,250.2188 749.6406,249.0781 Q750.2656,247.9219 751.3594,247.3125 Q752.4531,246.6875 753.6875,246.6875 Q754.4219,246.6875 755.0625,246.8594 Q755.7188,247.0156 756.2656,247.375 Z " fill="#000000"/><text fill="#000000" font-family="sans-serif" font-size="14" lengthAdjust="spacing" textLength="148" x="767.5" y="257.2969">GreenSpaceRepository</text><line style="stroke:#181818;stroke-width:0.5;" x1="739.5" x2="917.5" y1="267.5" y2="267.5"/><line style="stroke:#181818;stroke-width:0.5;" x1="739.5" x2="917.5" y1="275.5" y2="275.5"/><text fill="#000000" font-family="sans-serif" font-size="14" lengthAdjust="spacing" textLength="125" x="744.5" y="294.6074">+getGreenSpaces()</text></g><!--class ToDoEntry--><g id="elem_ToDoEntry"><rect codeLine="46" fill="#F1F1F1" height="234.2109" id="ToDoEntry" rx="2.5" ry="2.5" style="stroke:#181818;stroke-width:0.5;" width="401" x="495" y="409"/><ellipse cx="657.25" cy="425" fill="#ADD1B2" rx="11" ry="11" style="stroke:#181818;stroke-width:1.0;"/><path d="M660.0156,420.875 Q660.1719,420.6563 660.3594,420.5469 Q660.5469,420.4375 660.7656,420.4375 Q661.1406,420.4375 661.375,420.7031 Q661.6094,420.9531 661.6094,421.5625 L661.6094,423.0156 Q661.6094,423.625 661.375,423.8906 Q661.1406,424.1563 660.7656,424.1563 Q660.4219,424.1563 660.2188,423.9531 Q660.0156,423.7656 659.9063,423.25 Q659.8594,422.8906 659.6719,422.7031 Q659.3438,422.3281 658.7344,422.1094 Q658.125,421.8906 657.5,421.8906 Q656.7344,421.8906 656.0938,422.2188 Q655.4688,422.5469 654.9688,423.2969 Q654.4844,424.0469 654.4844,425.0781 L654.4844,426.1719 Q654.4844,427.4063 655.375,428.2344 Q656.2656,429.0469 657.8594,429.0469 Q658.7969,429.0469 659.4531,428.7969 Q659.8438,428.6406 660.2656,428.2031 Q660.5313,427.9375 660.6719,427.8594 Q660.8281,427.7813 661.0313,427.7813 Q661.3594,427.7813 661.6094,428.0469 Q661.875,428.2969 661.875,428.6406 Q661.875,428.9844 661.5313,429.3906 Q661.0313,429.9688 660.2344,430.2969 Q659.1563,430.75 657.8594,430.75 Q656.3438,430.75 655.1406,430.125 Q654.1563,429.625 653.4688,428.5625 Q652.7813,427.4844 652.7813,426.2031 L652.7813,425.0469 Q652.7813,423.7188 653.3906,422.5781 Q654.0156,421.4219 655.1094,420.8125 Q656.2031,420.1875 657.4375,420.1875 Q658.1719,420.1875 658.8125,420.3594 Q659.4688,420.5156 660.0156,420.875 Z " fill="#000000"/><text fill="#000000" font-family="sans-serif" font-size="14" lengthAdjust="spacing" textLength="68" x="677.75" y="430.7969">ToDoEntry</text><line style="stroke:#181818;stroke-width:0.5;" x1="496" x2="895" y1="441" y2="441"/><text fill="#000000" font-family="sans-serif" font-size="14" lengthAdjust="spacing" textLength="68" x="501" y="460.1074">-String title</text><text fill="#000000" font-family="sans-serif" font-size="14" lengthAdjust="spacing" textLength="115" x="501" y="478.7285">-String description</text><text fill="#000000" font-family="sans-serif" font-size="14" lengthAdjust="spacing" textLength="97" x="501" y="497.3496">-String urgency</text><text fill="#000000" font-family="sans-serif" font-size="14" lengthAdjust="spacing" textLength="98" x="501" y="515.9707">-String duration</text><text fill="#000000" font-family="sans-serif" font-size="14" lengthAdjust="spacing" textLength="166" x="501" y="534.5918">-GreenSpace greenSpace</text><line style="stroke:#181818;stroke-width:0.5;" x1="496" x2="895" y1="542.1055" y2="542.1055"/><text fill="#000000" font-family="sans-serif" font-size="14" lengthAdjust="spacing" textLength="389" x="501" y="561.2129">+ToDoEntry(title, description, urgency, duration, greenSpace)</text><text fill="#000000" font-family="sans-serif" font-size="14" lengthAdjust="spacing" textLength="149" x="501" y="579.834">+validateEntryTitle(title)</text><text fill="#000000" font-family="sans-serif" font-size="14" lengthAdjust="spacing" textLength="240" x="501" y="598.4551">+validateEntryDescription(description)</text><text fill="#000000" font-family="sans-serif" font-size="14" lengthAdjust="spacing" textLength="206" x="501" y="617.0762">+validateEntryDuration(duration)</text><text fill="#000000" font-family="sans-serif" font-size="14" lengthAdjust="spacing" textLength="203" x="501" y="635.6973">+validateEntryUrgency(urgency)</text></g><!--link AddToDoEntryUI to AddToDoEntryController--><g id="link_AddToDoEntryUI_AddToDoEntryController"><path codeLine="60" d="M316.13,68 C333.58,68 347.5,68 347.5,68 C347.5,68 342.7,68 344.83,68 " fill="none" id="AddToDoEntryUI-to-AddToDoEntryController" style="stroke:#181818;stroke-width:1.0;stroke-dasharray:7.0,7.0;"/><polygon fill="#181818" points="350.83,68,341.83,64,345.83,68,341.83,72,350.83,68" style="stroke:#181818;stroke-width:1.0;"/></g><!--link Repositories to Repositories--><g id="link_Repositories_Repositories"><path codeLine="62" d="M302.55,250.94 C322.9,252.87 337.5,258.89 337.5,269 C337.5,279.11 328.8732,284.5635 308.5232,286.4935 " fill="none" id="Repositories-to-Repositories" style="stroke:#181818;stroke-width:1.0;"/><polygon fill="#181818" points="302.55,287.06,311.8875,290.1924,307.5277,286.5879,311.1321,282.2281,302.55,287.06" style="stroke:#181818;stroke-width:1.0;"/><text fill="#000000" font-family="sans-serif" font-size="13" lengthAdjust="spacing" textLength="49" x="343.5" y="274.5283">instance</text></g><!--link TodoEntryRepository to ToDoEntry--><g id="link_TodoEntryRepository_ToDoEntry"><path codeLine="64" d="M400.07,526 C431.25,526 457.54,526 488.82,526 " fill="none" id="TodoEntryRepository-to-ToDoEntry" style="stroke:#181818;stroke-width:1.0;"/><polygon fill="#181818" points="494.82,526,485.82,522,489.82,526,485.82,530,494.82,526" style="stroke:#181818;stroke-width:1.0;"/><text fill="#000000" font-family="sans-serif" font-size="13" lengthAdjust="spacing" textLength="58" x="418.5" y="519.0283">toDoEntry</text><text fill="#000000" font-family="sans-serif" font-size="13" lengthAdjust="spacing" textLength="7" x="407.8852" y="522.7073">1</text><text fill="#000000" font-family="sans-serif" font-size="13" lengthAdjust="spacing" textLength="5" x="481.8833" y="522.6979">*</text></g><!--link Repositories to TodoEntryRepository--><g id="link_Repositories_TodoEntryRepository"><path codeLine="66" d="M203.5,330.11 C203.5,364.71 203.5,402.61 203.5,439.97 " fill="none" id="Repositories-to-TodoEntryRepository" style="stroke:#181818;stroke-width:1.0;"/><polygon fill="#181818" points="203.5,445.97,207.5,436.97,203.5,440.97,199.5,436.97,203.5,445.97" style="stroke:#181818;stroke-width:1.0;"/><text fill="#000000" font-family="sans-serif" font-size="13" lengthAdjust="spacing" textLength="120" x="204.5" y="375.0283">toDoEntryRepository</text><text fill="#000000" font-family="sans-serif" font-size="13" lengthAdjust="spacing" textLength="7" x="196.1773" y="434.863">1</text></g><!--link AddToDoEntryController to ToDoEntry--><g id="link_AddToDoEntryController_ToDoEntry"><path codeLine="68" d="M596.86,129.03 C610.43,145.54 621.5,159 621.5,159 C621.5,159 649.1705,295.8691 670.8505,403.0591 " fill="none" id="AddToDoEntryController-to-ToDoEntry" style="stroke:#181818;stroke-width:1.0;stroke-dasharray:7.0,7.0;"/><polygon fill="#181818" points="672.04,408.94,674.1764,399.3257,671.0488,404.0392,666.3352,400.9116,672.04,408.94" style="stroke:#181818;stroke-width:1.0;"/><text fill="#000000" font-family="sans-serif" font-size="13" lengthAdjust="spacing" textLength="58" x="657.5" y="274.5283">toDoEntry</text></g><!--link AddToDoEntryController to Repositories--><g id="link_AddToDoEntryController_Repositories"><path codeLine="70" d="M420.1,129.03 C385.06,145.54 356.5,159 356.5,159 C356.5,159 328.3264,179.0682 292.9464,204.2782 " fill="none" id="AddToDoEntryController-to-Repositories" style="stroke:#181818;stroke-width:1.0;stroke-dasharray:7.0,7.0;"/><polygon fill="#181818" points="288.06,207.76,297.7108,205.7949,292.132,204.8585,293.0684,199.2797,288.06,207.76" style="stroke:#181818;stroke-width:1.0;"/><text fill="#000000" font-family="sans-serif" font-size="13" lengthAdjust="spacing" textLength="67" x="357.5" y="174.0283">repositories</text></g><!--link AddToDoEntryController to GreenSpaceRepository--><g id="link_AddToDoEntryController_GreenSpaceRepository"><path codeLine="72" d="M632.57,129.25 C681.84,164.14 737.0435,203.2324 777.5835,231.9424 " fill="none" id="AddToDoEntryController-to-GreenSpaceRepository" style="stroke:#181818;stroke-width:1.0;stroke-dasharray:7.0,7.0;"/><polygon fill="#181818" points="782.48,235.41,777.447,226.9442,778.3996,232.5203,772.8235,233.4729,782.48,235.41" style="stroke:#181818;stroke-width:1.0;"/><text fill="#000000" font-family="sans-serif" font-size="13" lengthAdjust="spacing" textLength="131" x="697.5" y="174.0283">greenSpaceRepository</text></g><!--link AddToDoEntryController to TodoEntryRepository--><g id="link_AddToDoEntryController_TodoEntryRepository"><path codeLine="74" d="M498.14,129.03 C484.57,145.54 473.5,159 473.5,159 C473.5,159 398.5,330 398.5,330 C398.5,330 340.8326,387.6674 286.7726,441.7274 " fill="none" id="AddToDoEntryController-to-TodoEntryRepository" style="stroke:#181818;stroke-width:1.0;stroke-dasharray:7.0,7.0;"/><polygon fill="#181818" points="282.53,445.97,291.7224,442.4345,286.0655,442.4345,286.0655,436.7776,282.53,445.97" style="stroke:#181818;stroke-width:1.0;"/><text fill="#000000" font-family="sans-serif" font-size="13" lengthAdjust="spacing" textLength="120" x="453.5" y="274.5283">toDoEntryRepository</text></g><!--link Repositories to GreenSpaceRepository--><g id="link_Repositories_GreenSpaceRepository"><path codeLine="76" d="M302.51,235.46 C382.2,208.47 481,175 481,175 C481,175 614,175 614,175 C614,175 711.5,208 711.5,208 C711.5,208 731.67,218.5155 758.86,232.6955 " fill="none" id="Repositories-to-GreenSpaceRepository" style="stroke:#181818;stroke-width:1.0;"/><polygon fill="#181818" points="764.18,235.47,758.0496,227.7616,759.7467,233.158,754.3504,234.855,764.18,235.47" style="stroke:#181818;stroke-width:1.0;"/><text fill="#000000" font-family="sans-serif" font-size="13" lengthAdjust="spacing" textLength="131" x="482" y="174.0283">greenSpaceRepository</text><text fill="#000000" font-family="sans-serif" font-size="13" lengthAdjust="spacing" textLength="7" x="743.8279" y="224.2896">1</text></g><!--SRC=[hLJ1ZjCm4BtxAqQzD8NjYhrMgDB28bG9SQ3T3p39R6gjQqVs51HM_3jEuZfsS5P58eSeUJFptfl9n4lxB5J33J_1IIjT7eq-8P0v8niZ3I-VUOrxQYM2mPAugcMSO8-yqZ-5gk69Inj7f518ROFGQDbsBsoP2Mf3caLLfUJMtXCPyVrCk2krsejV2EyOMqfy8Y0DHjH7WafqTeHMZB6-2BvXewqWRGHQU67WhdK25giUV0irqavPrqk9nGesITAOyjaWghsR08Pu6rCSz8F-fCYqIVZtnSvzLOMCZzhTjPHedB618H_s_ElNvTUpwZqrhwe-Kf0WYJTGeIsDQBfXtS3PrAZArg5dmmTeLEhjP_m_xZhVOsy7NKt5_S2_24llGzsMBayT7jmL0VQENJ_zwuVsApzXeTpDHtvmAIfEw1kQgUlO_qVt7K5eClS1NeBk6BtiLJGTxzBFPE-ssVqWlPy4YQmbk7UPvdh30pYgGnqU1sz1_Te1r9C1f3C_T2G3LIxyC98NaL0srIiM5-bSqkFWh_0-L_tIJLRnTZlpSp6Md07hRNecR43ulvwnp0R3ucxXIXPl5e7QbOILcv9tgNUB74zKDA9f5z61uBgPqPihkFshBnCVOAy8vLPw4ot0jNQlxddwFTp4_iK3-mC0]--></g></svg>