<?xml version="1.0" encoding="us-ascii" standalone="no"?><svg xmlns="http://www.w3.org/2000/svg" xmlns:xlink="http://www.w3.org/1999/xlink" contentStyleType="text/css" height="1321px" preserveAspectRatio="none" style="width:1997px;height:1321px;background:#FFFFFF;" version="1.1" viewBox="0 0 1997 1321" width="1997px" zoomAndPan="magnify"><defs/><g><rect fill="#FFFFFF" height="1127.1758" style="stroke:#181818;stroke-width:1.0;" width="10" x="92.5" y="93.6211"/><rect fill="#FFFFFF" height="118.4941" style="stroke:#181818;stroke-width:1.0;" width="10" x="574.5" y="116.9121"/><rect fill="#FFFFFF" height="281.6191" style="stroke:#181818;stroke-width:1.0;" width="10" x="574.5" y="266.6973"/><rect fill="#FFFFFF" height="31.291" style="stroke:#181818;stroke-width:1.0;" width="10" x="574.5" y="579.6074"/><rect fill="#FFFFFF" height="578.6074" style="stroke:#181818;stroke-width:1.0;" width="10" x="574.5" y="642.1895"/><rect fill="#FFFFFF" height="219.0371" style="stroke:#181818;stroke-width:1.0;" width="10" x="961.5" y="297.9883"/><rect fill="#FFFFFF" height="465.4434" style="stroke:#181818;stroke-width:1.0;" width="10" x="961.5" y="706.7715"/><rect fill="#FFFFFF" height="31.291" style="stroke:#181818;stroke-width:1.0;" width="10" x="1090" y="329.2793"/><rect fill="#FFFFFF" height="31.291" style="stroke:#181818;stroke-width:1.0;" width="10" x="1090" y="738.0625"/><rect fill="#FFFFFF" height="31.291" style="stroke:#181818;stroke-width:1.0;" width="10" x="1197" y="391.8613"/><rect fill="#FFFFFF" height="31.291" style="stroke:#181818;stroke-width:1.0;" width="10" x="1197" y="800.6445"/><rect fill="#FFFFFF" height="31.291" style="stroke:#181818;stroke-width:1.0;" width="10" x="1337" y="454.4434"/><rect fill="#FFFFFF" height="270.6973" style="stroke:#181818;stroke-width:1.0;" width="10" x="1503.5" y="863.2266"/><rect fill="#FFFFFF" height="130.873" style="stroke:#181818;stroke-width:1.0;" width="10" x="1508.5" y="964.7598"/><rect fill="#FFFFFF" height="42.291" style="stroke:#181818;stroke-width:1.0;" width="10" x="1513.5" y="1009.0508"/><rect fill="none" height="474.6563" style="stroke:#000000;stroke-width:1.5;" width="1423.5" x="10" y="175.5332"/><rect fill="none" height="477.7344" style="stroke:#000000;stroke-width:1.5;" width="1483.5" x="508" y="664.1895"/><line style="stroke:#181818;stroke-width:0.5;stroke-dasharray:5.0,5.0;" x1="97" x2="97" y1="83.6211" y2="1238.7969"/><line style="stroke:#181818;stroke-width:0.5;stroke-dasharray:5.0,5.0;" x1="579" x2="579" y1="83.6211" y2="1238.7969"/><line style="stroke:#181818;stroke-width:0.5;stroke-dasharray:5.0,5.0;" x1="966.5" x2="966.5" y1="156.7227" y2="1238.7969"/><line style="stroke:#181818;stroke-width:0.5;stroke-dasharray:5.0,5.0;" x1="1094.5" x2="1094.5" y1="83.6211" y2="1238.7969"/><line style="stroke:#181818;stroke-width:0.5;stroke-dasharray:5.0,5.0;" x1="1201.5" x2="1201.5" y1="83.6211" y2="1238.7969"/><line style="stroke:#181818;stroke-width:0.5;stroke-dasharray:5.0,5.0;" x1="1341.5" x2="1341.5" y1="83.6211" y2="1238.7969"/><line style="stroke:#181818;stroke-width:0.5;stroke-dasharray:5.0,5.0;" x1="1508.5" x2="1508.5" y1="83.6211" y2="1238.7969"/><line style="stroke:#181818;stroke-width:0.5;stroke-dasharray:5.0,5.0;" x1="1938.5" x2="1938.5" y1="912.3477" y2="1238.7969"/><text fill="#000000" font-family="sans-serif" font-size="14" lengthAdjust="spacing" textLength="149" x="20" y="80.1074">Green spaces manager</text><ellipse cx="97.5" cy="13.5" fill="#E3E3E3" rx="8" ry="8" style="stroke:#181818;stroke-width:0.5;"/><path d="M97.5,21.5 L97.5,48.5 M84.5,29.5 L110.5,29.5 M97.5,48.5 L84.5,63.5 M97.5,48.5 L110.5,63.5 " fill="none" style="stroke:#181818;stroke-width:0.5;"/><text fill="#000000" font-family="sans-serif" font-size="14" lengthAdjust="spacing" textLength="149" x="20" y="1252.9043">Green spaces manager</text><ellipse cx="97.5" cy="1264.918" fill="#E3E3E3" rx="8" ry="8" style="stroke:#181818;stroke-width:0.5;"/><path d="M97.5,1272.918 L97.5,1299.918 M84.5,1280.918 L110.5,1280.918 M97.5,1299.918 L84.5,1314.918 M97.5,1299.918 L110.5,1314.918 " fill="none" style="stroke:#181818;stroke-width:0.5;"/><rect fill="#E3E3E3" height="32.6211" rx="2.5" ry="2.5" style="stroke:#181818;stroke-width:0.5;" width="123" x="518" y="50"/><text fill="#000000" font-family="sans-serif" font-size="14" lengthAdjust="spacing" textLength="109" x="525" y="72.1074">:AddToDoEntryUI</text><rect fill="#E3E3E3" height="32.6211" rx="2.5" ry="2.5" style="stroke:#181818;stroke-width:0.5;" width="123" x="518" y="1237.7969"/><text fill="#000000" font-family="sans-serif" font-size="14" lengthAdjust="spacing" textLength="109" x="525" y="1259.9043">:AddToDoEntryUI</text><rect fill="#E3E3E3" height="32.6211" rx="2.5" ry="2.5" style="stroke:#181818;stroke-width:0.5;" width="140" x="896.5" y="1237.7969"/><text fill="#000000" font-family="sans-serif" font-size="14" lengthAdjust="spacing" textLength="126" x="903.5" y="1259.9043">:AddToDoController</text><rect fill="#E3E3E3" height="32.6211" rx="2.5" ry="2.5" style="stroke:#181818;stroke-width:0.5;" width="97" x="1046.5" y="50"/><text fill="#000000" font-family="sans-serif" font-size="14" lengthAdjust="spacing" textLength="83" x="1053.5" y="72.1074">:Repositories</text><rect fill="#E3E3E3" height="32.6211" rx="2.5" ry="2.5" style="stroke:#181818;stroke-width:0.5;" width="97" x="1046.5" y="1237.7969"/><text fill="#000000" font-family="sans-serif" font-size="14" lengthAdjust="spacing" textLength="83" x="1053.5" y="1259.9043">:Repositories</text><rect fill="#E3E3E3" height="51.2422" rx="2.5" ry="2.5" style="stroke:#181818;stroke-width:0.5;" width="97" x="1153.5" y="31.3789"/><text fill="#000000" font-family="sans-serif" font-size="14" lengthAdjust="spacing" textLength="74" x="1165" y="53.4863">repositories</text><text fill="#000000" font-family="sans-serif" font-size="14" lengthAdjust="spacing" textLength="83" x="1160.5" y="72.1074">:Repositories</text><rect fill="#E3E3E3" height="51.2422" rx="2.5" ry="2.5" style="stroke:#181818;stroke-width:0.5;" width="97" x="1153.5" y="1237.7969"/><text fill="#000000" font-family="sans-serif" font-size="14" lengthAdjust="spacing" textLength="74" x="1165" y="1259.9043">repositories</text><text fill="#000000" font-family="sans-serif" font-size="14" lengthAdjust="spacing" textLength="83" x="1160.5" y="1278.5254">:Repositories</text><rect fill="#E3E3E3" height="51.2422" rx="2.5" ry="2.5" style="stroke:#181818;stroke-width:0.5;" width="163" x="1260.5" y="31.3789"/><text fill="#000000" font-family="sans-serif" font-size="14" lengthAdjust="spacing" textLength="149" x="1267.5" y="53.4863">greenSpaceRepository:</text><text fill="#000000" font-family="sans-serif" font-size="14" lengthAdjust="spacing" textLength="148" x="1268" y="72.1074">GreenSpaceRepository</text><rect fill="#E3E3E3" height="51.2422" rx="2.5" ry="2.5" style="stroke:#181818;stroke-width:0.5;" width="163" x="1260.5" y="1237.7969"/><text fill="#000000" font-family="sans-serif" font-size="14" lengthAdjust="spacing" textLength="149" x="1267.5" y="1259.9043">greenSpaceRepository:</text><text fill="#000000" font-family="sans-serif" font-size="14" lengthAdjust="spacing" textLength="148" x="1268" y="1278.5254">GreenSpaceRepository</text><rect fill="#E3E3E3" height="51.2422" rx="2.5" ry="2.5" style="stroke:#181818;stroke-width:0.5;" width="150" x="1433.5" y="31.3789"/><text fill="#000000" font-family="sans-serif" font-size="14" lengthAdjust="spacing" textLength="135" x="1441" y="53.4863">toDoEntryRepository:</text><text fill="#000000" font-family="sans-serif" font-size="14" lengthAdjust="spacing" textLength="136" x="1440.5" y="72.1074">ToDoEntryRepository</text><rect fill="#E3E3E3" height="51.2422" rx="2.5" ry="2.5" style="stroke:#181818;stroke-width:0.5;" width="150" x="1433.5" y="1237.7969"/><text fill="#000000" font-family="sans-serif" font-size="14" lengthAdjust="spacing" textLength="135" x="1441" y="1259.9043">toDoEntryRepository:</text><text fill="#000000" font-family="sans-serif" font-size="14" lengthAdjust="spacing" textLength="136" x="1440.5" y="1278.5254">ToDoEntryRepository</text><rect fill="#E3E3E3" height="51.2422" rx="2.5" ry="2.5" style="stroke:#181818;stroke-width:0.5;" width="86" x="1895.5" y="1237.7969"/><text fill="#000000" font-family="sans-serif" font-size="14" lengthAdjust="spacing" textLength="63" x="1907" y="1259.9043">toDoEntry</text><text fill="#000000" font-family="sans-serif" font-size="14" lengthAdjust="spacing" textLength="72" x="1902.5" y="1278.5254">:ToDoEntry</text><rect fill="#FFFFFF" height="1127.1758" style="stroke:#181818;stroke-width:1.0;" width="10" x="92.5" y="93.6211"/><rect fill="#FFFFFF" height="118.4941" style="stroke:#181818;stroke-width:1.0;" width="10" x="574.5" y="116.9121"/><rect fill="#FFFFFF" height="281.6191" style="stroke:#181818;stroke-width:1.0;" width="10" x="574.5" y="266.6973"/><rect fill="#FFFFFF" height="31.291" style="stroke:#181818;stroke-width:1.0;" width="10" x="574.5" y="579.6074"/><rect fill="#FFFFFF" height="578.6074" style="stroke:#181818;stroke-width:1.0;" width="10" x="574.5" y="642.1895"/><rect fill="#FFFFFF" height="219.0371" style="stroke:#181818;stroke-width:1.0;" width="10" x="961.5" y="297.9883"/><rect fill="#FFFFFF" height="465.4434" style="stroke:#181818;stroke-width:1.0;" width="10" x="961.5" y="706.7715"/><rect fill="#FFFFFF" height="31.291" style="stroke:#181818;stroke-width:1.0;" width="10" x="1090" y="329.2793"/><rect fill="#FFFFFF" height="31.291" style="stroke:#181818;stroke-width:1.0;" width="10" x="1090" y="738.0625"/><rect fill="#FFFFFF" height="31.291" style="stroke:#181818;stroke-width:1.0;" width="10" x="1197" y="391.8613"/><rect fill="#FFFFFF" height="31.291" style="stroke:#181818;stroke-width:1.0;" width="10" x="1197" y="800.6445"/><rect fill="#FFFFFF" height="31.291" style="stroke:#181818;stroke-width:1.0;" width="10" x="1337" y="454.4434"/><rect fill="#FFFFFF" height="270.6973" style="stroke:#181818;stroke-width:1.0;" width="10" x="1503.5" y="863.2266"/><rect fill="#FFFFFF" height="130.873" style="stroke:#181818;stroke-width:1.0;" width="10" x="1508.5" y="964.7598"/><rect fill="#FFFFFF" height="42.291" style="stroke:#181818;stroke-width:1.0;" width="10" x="1513.5" y="1009.0508"/><polygon fill="#181818" points="562.5,112.9121,572.5,116.9121,562.5,120.9121,566.5,116.9121" style="stroke:#181818;stroke-width:1.0;"/><line style="stroke:#181818;stroke-width:1.0;" x1="102.5" x2="568.5" y1="116.9121" y2="116.9121"/><text fill="#000000" font-family="sans-serif" font-size="13" font-weight="bold" lengthAdjust="spacing" textLength="7" x="109.5" y="111.6494">1</text><text fill="#000000" font-family="sans-serif" font-size="13" lengthAdjust="spacing" textLength="239" x="120.5" y="111.6494">asks to add a new entry to the To-Do List</text><polygon fill="#181818" points="884.5,144.2031,894.5,148.2031,884.5,152.2031,888.5,148.2031" style="stroke:#181818;stroke-width:1.0;"/><line style="stroke:#181818;stroke-width:1.0;" x1="584.5" x2="890.5" y1="148.2031" y2="148.2031"/><text fill="#000000" font-family="sans-serif" font-size="13" font-weight="bold" lengthAdjust="spacing" textLength="7" x="591.5" y="142.9404">2</text><text fill="#000000" font-family="sans-serif" font-size="13" lengthAdjust="spacing" textLength="36" x="602.5" y="142.9404">create</text><rect fill="#E3E3E3" height="32.6211" rx="2.5" ry="2.5" style="stroke:#181818;stroke-width:0.5;" width="140" x="896.5" y="124.9121"/><text fill="#000000" font-family="sans-serif" font-size="14" lengthAdjust="spacing" textLength="126" x="903.5" y="147.0195">:AddToDoController</text><path d="M10,175.5332 L83,175.5332 L83,184.8242 L73,194.8242 L10,194.8242 L10,175.5332 " fill="#EEEEEE" style="stroke:#000000;stroke-width:1.5;"/><rect fill="none" height="474.6563" style="stroke:#000000;stroke-width:1.5;" width="1423.5" x="10" y="175.5332"/><text fill="#000000" font-family="sans-serif" font-size="13" font-weight="bold" lengthAdjust="spacing" textLength="28" x="25" y="190.5615">loop</text><text fill="#000000" font-family="sans-serif" font-size="11" font-weight="bold" lengthAdjust="spacing" textLength="96" x="98" y="189.4033">[while flag==true]</text><polygon fill="#181818" points="113.5,231.4063,103.5,235.4063,113.5,239.4063,109.5,235.4063" style="stroke:#181818;stroke-width:1.0;"/><line style="stroke:#181818;stroke-width:1.0;stroke-dasharray:2.0,2.0;" x1="107.5" x2="578.5" y1="235.4063" y2="235.4063"/><text fill="#000000" font-family="sans-serif" font-size="13" font-weight="bold" lengthAdjust="spacing" textLength="7" x="119.5" y="221.498">3</text><text fill="#000000" font-family="sans-serif" font-size="13" lengthAdjust="spacing" textLength="258" x="130.5" y="212.8525">requests the title and description of the task,</text><text fill="#000000" font-family="sans-serif" font-size="13" lengthAdjust="spacing" textLength="358" x="134.5" y="230.1436">the degree of urgency, and the approximate expected duration</text><polygon fill="#181818" points="562.5,262.6973,572.5,266.6973,562.5,270.6973,566.5,266.6973" style="stroke:#181818;stroke-width:1.0;"/><line style="stroke:#181818;stroke-width:1.0;" x1="102.5" x2="568.5" y1="266.6973" y2="266.6973"/><text fill="#000000" font-family="sans-serif" font-size="13" font-weight="bold" lengthAdjust="spacing" textLength="7" x="109.5" y="261.4346">4</text><text fill="#000000" font-family="sans-serif" font-size="13" lengthAdjust="spacing" textLength="171" x="120.5" y="261.4346">types the required information</text><polygon fill="#181818" points="949.5,293.9883,959.5,297.9883,949.5,301.9883,953.5,297.9883" style="stroke:#181818;stroke-width:1.0;"/><line style="stroke:#181818;stroke-width:1.0;" x1="584.5" x2="955.5" y1="297.9883" y2="297.9883"/><text fill="#000000" font-family="sans-serif" font-size="13" font-weight="bold" lengthAdjust="spacing" textLength="7" x="591.5" y="292.7256">5</text><text fill="#000000" font-family="sans-serif" font-size="13" lengthAdjust="spacing" textLength="105" x="602.5" y="292.7256">getGreenSpaces()</text><polygon fill="#181818" points="1078,325.2793,1088,329.2793,1078,333.2793,1082,329.2793" style="stroke:#181818;stroke-width:1.0;"/><line style="stroke:#181818;stroke-width:1.0;" x1="971.5" x2="1084" y1="329.2793" y2="329.2793"/><text fill="#000000" font-family="sans-serif" font-size="13" font-weight="bold" lengthAdjust="spacing" textLength="7" x="978.5" y="324.0166">6</text><text fill="#000000" font-family="sans-serif" font-size="13" lengthAdjust="spacing" textLength="75" x="989.5" y="324.0166">getInstance()</text><polygon fill="#181818" points="982.5,356.5703,972.5,360.5703,982.5,364.5703,978.5,360.5703" style="stroke:#181818;stroke-width:1.0;"/><line style="stroke:#181818;stroke-width:1.0;" x1="976.5" x2="1094" y1="360.5703" y2="360.5703"/><text fill="#000000" font-family="sans-serif" font-size="13" font-weight="bold" lengthAdjust="spacing" textLength="7" x="988.5" y="355.3076">7</text><text fill="#000000" font-family="sans-serif" font-size="13" lengthAdjust="spacing" textLength="67" x="999.5" y="355.3076">repositories</text><polygon fill="#181818" points="1185,387.8613,1195,391.8613,1185,395.8613,1189,391.8613" style="stroke:#181818;stroke-width:1.0;"/><line style="stroke:#181818;stroke-width:1.0;" x1="971.5" x2="1191" y1="391.8613" y2="391.8613"/><text fill="#000000" font-family="sans-serif" font-size="13" font-weight="bold" lengthAdjust="spacing" textLength="7" x="978.5" y="386.5986">8</text><text fill="#000000" font-family="sans-serif" font-size="13" lengthAdjust="spacing" textLength="160" x="989.5" y="386.5986">getGreenSpaceRepository()</text><polygon fill="#181818" points="982.5,419.1523,972.5,423.1523,982.5,427.1523,978.5,423.1523" style="stroke:#181818;stroke-width:1.0;"/><line style="stroke:#181818;stroke-width:1.0;stroke-dasharray:2.0,2.0;" x1="976.5" x2="1201" y1="423.1523" y2="423.1523"/><text fill="#000000" font-family="sans-serif" font-size="13" font-weight="bold" lengthAdjust="spacing" textLength="7" x="988.5" y="417.8896">9</text><text fill="#000000" font-family="sans-serif" font-size="13" lengthAdjust="spacing" textLength="134" x="999.5" y="417.8896">GreenSpaceRepository</text><polygon fill="#181818" points="1325,450.4434,1335,454.4434,1325,458.4434,1329,454.4434" style="stroke:#181818;stroke-width:1.0;"/><line style="stroke:#181818;stroke-width:1.0;" x1="971.5" x2="1331" y1="454.4434" y2="454.4434"/><text fill="#000000" font-family="sans-serif" font-size="13" font-weight="bold" lengthAdjust="spacing" textLength="14" x="978.5" y="449.1807">10</text><text fill="#000000" font-family="sans-serif" font-size="13" lengthAdjust="spacing" textLength="105" x="996.5" y="449.1807">getGreenSpaces()</text><polygon fill="#181818" points="982.5,481.7344,972.5,485.7344,982.5,489.7344,978.5,485.7344" style="stroke:#181818;stroke-width:1.0;"/><line style="stroke:#181818;stroke-width:1.0;stroke-dasharray:2.0,2.0;" x1="976.5" x2="1341" y1="485.7344" y2="485.7344"/><text fill="#000000" font-family="sans-serif" font-size="13" font-weight="bold" lengthAdjust="spacing" textLength="14" x="988.5" y="480.4717">11</text><text fill="#000000" font-family="sans-serif" font-size="13" lengthAdjust="spacing" textLength="76" x="1006.5" y="480.4717">greenSpaces</text><polygon fill="#181818" points="595.5,513.0254,585.5,517.0254,595.5,521.0254,591.5,517.0254" style="stroke:#181818;stroke-width:1.0;"/><line style="stroke:#181818;stroke-width:1.0;stroke-dasharray:2.0,2.0;" x1="589.5" x2="965.5" y1="517.0254" y2="517.0254"/><text fill="#000000" font-family="sans-serif" font-size="13" font-weight="bold" lengthAdjust="spacing" textLength="14" x="601.5" y="511.7627">12</text><text fill="#000000" font-family="sans-serif" font-size="13" lengthAdjust="spacing" textLength="76" x="619.5" y="511.7627">greenSpaces</text><polygon fill="#181818" points="113.5,544.3164,103.5,548.3164,113.5,552.3164,109.5,548.3164" style="stroke:#181818;stroke-width:1.0;"/><line style="stroke:#181818;stroke-width:1.0;stroke-dasharray:2.0,2.0;" x1="107.5" x2="578.5" y1="548.3164" y2="548.3164"/><text fill="#000000" font-family="sans-serif" font-size="13" font-weight="bold" lengthAdjust="spacing" textLength="14" x="119.5" y="543.0537">13</text><text fill="#000000" font-family="sans-serif" font-size="13" lengthAdjust="spacing" textLength="430" x="137.5" y="543.0537">shows the list of green spaces and asks to select the desired green space</text><polygon fill="#181818" points="562.5,575.6074,572.5,579.6074,562.5,583.6074,566.5,579.6074" style="stroke:#181818;stroke-width:1.0;"/><line style="stroke:#181818;stroke-width:1.0;" x1="102.5" x2="568.5" y1="579.6074" y2="579.6074"/><text fill="#000000" font-family="sans-serif" font-size="13" font-weight="bold" lengthAdjust="spacing" textLength="14" x="109.5" y="574.3447">14</text><text fill="#000000" font-family="sans-serif" font-size="13" lengthAdjust="spacing" textLength="181" x="127.5" y="574.3447">selects the required information</text><polygon fill="#181818" points="113.5,606.8984,103.5,610.8984,113.5,614.8984,109.5,610.8984" style="stroke:#181818;stroke-width:1.0;"/><line style="stroke:#181818;stroke-width:1.0;stroke-dasharray:2.0,2.0;" x1="107.5" x2="578.5" y1="610.8984" y2="610.8984"/><text fill="#000000" font-family="sans-serif" font-size="13" font-weight="bold" lengthAdjust="spacing" textLength="14" x="119.5" y="605.6357">15</text><text fill="#000000" font-family="sans-serif" font-size="13" lengthAdjust="spacing" textLength="253" x="137.5" y="605.6357">asks to continue adding more green spaces</text><polygon fill="#181818" points="562.5,638.1895,572.5,642.1895,562.5,646.1895,566.5,642.1895" style="stroke:#181818;stroke-width:1.0;"/><line style="stroke:#181818;stroke-width:1.0;" x1="102.5" x2="568.5" y1="642.1895" y2="642.1895"/><text fill="#000000" font-family="sans-serif" font-size="13" font-weight="bold" lengthAdjust="spacing" textLength="14" x="109.5" y="636.9268">16</text><text fill="#000000" font-family="sans-serif" font-size="13" lengthAdjust="spacing" textLength="127" x="127.5" y="636.9268">selects desired option</text><path d="M508,664.1895 L581,664.1895 L581,673.4805 L571,683.4805 L508,683.4805 L508,664.1895 " fill="#EEEEEE" style="stroke:#000000;stroke-width:1.5;"/><rect fill="none" height="477.7344" style="stroke:#000000;stroke-width:1.5;" width="1483.5" x="508" y="664.1895"/><text fill="#000000" font-family="sans-serif" font-size="13" font-weight="bold" lengthAdjust="spacing" textLength="28" x="523" y="679.2178">loop</text><text fill="#000000" font-family="sans-serif" font-size="11" font-weight="bold" lengthAdjust="spacing" textLength="197" x="596" y="678.0596">[for each greenSpace : greeSpaces]</text><polygon fill="#181818" points="949.5,702.7715,959.5,706.7715,949.5,710.7715,953.5,706.7715" style="stroke:#181818;stroke-width:1.0;"/><line style="stroke:#181818;stroke-width:1.0;" x1="584.5" x2="955.5" y1="706.7715" y2="706.7715"/><text fill="#000000" font-family="sans-serif" font-size="13" font-weight="bold" lengthAdjust="spacing" textLength="14" x="591.5" y="701.5088">17</text><text fill="#000000" font-family="sans-serif" font-size="13" lengthAdjust="spacing" textLength="340" x="609.5" y="701.5088">addEntry(title, description, urgency, duration, GreenSpace)</text><polygon fill="#181818" points="1078,734.0625,1088,738.0625,1078,742.0625,1082,738.0625" style="stroke:#181818;stroke-width:1.0;"/><line style="stroke:#181818;stroke-width:1.0;" x1="971.5" x2="1084" y1="738.0625" y2="738.0625"/><text fill="#000000" font-family="sans-serif" font-size="13" font-weight="bold" lengthAdjust="spacing" textLength="14" x="978.5" y="732.7998">18</text><text fill="#000000" font-family="sans-serif" font-size="13" lengthAdjust="spacing" textLength="75" x="996.5" y="732.7998">getInstance()</text><polygon fill="#181818" points="982.5,765.3535,972.5,769.3535,982.5,773.3535,978.5,769.3535" style="stroke:#181818;stroke-width:1.0;"/><line style="stroke:#181818;stroke-width:1.0;" x1="976.5" x2="1094" y1="769.3535" y2="769.3535"/><text fill="#000000" font-family="sans-serif" font-size="13" font-weight="bold" lengthAdjust="spacing" textLength="14" x="988.5" y="764.0908">19</text><text fill="#000000" font-family="sans-serif" font-size="13" lengthAdjust="spacing" textLength="67" x="1006.5" y="764.0908">repositories</text><polygon fill="#181818" points="1185,796.6445,1195,800.6445,1185,804.6445,1189,800.6445" style="stroke:#181818;stroke-width:1.0;"/><line style="stroke:#181818;stroke-width:1.0;" x1="971.5" x2="1191" y1="800.6445" y2="800.6445"/><text fill="#000000" font-family="sans-serif" font-size="13" font-weight="bold" lengthAdjust="spacing" textLength="14" x="978.5" y="795.3818">20</text><text fill="#000000" font-family="sans-serif" font-size="13" lengthAdjust="spacing" textLength="149" x="996.5" y="795.3818">getToDoEntryRepository()</text><polygon fill="#181818" points="982.5,827.9355,972.5,831.9355,982.5,835.9355,978.5,831.9355" style="stroke:#181818;stroke-width:1.0;"/><line style="stroke:#181818;stroke-width:1.0;stroke-dasharray:2.0,2.0;" x1="976.5" x2="1201" y1="831.9355" y2="831.9355"/><text fill="#000000" font-family="sans-serif" font-size="13" font-weight="bold" lengthAdjust="spacing" textLength="14" x="988.5" y="826.6729">21</text><text fill="#000000" font-family="sans-serif" font-size="13" lengthAdjust="spacing" textLength="123" x="1006.5" y="826.6729">ToDoEntryRepository</text><polygon fill="#181818" points="1491.5,859.2266,1501.5,863.2266,1491.5,867.2266,1495.5,863.2266" style="stroke:#181818;stroke-width:1.0;"/><line style="stroke:#181818;stroke-width:1.0;" x1="971.5" x2="1497.5" y1="863.2266" y2="863.2266"/><text fill="#000000" font-family="sans-serif" font-size="13" font-weight="bold" lengthAdjust="spacing" textLength="14" x="978.5" y="857.9639">22</text><text fill="#000000" font-family="sans-serif" font-size="13" lengthAdjust="spacing" textLength="340" x="996.5" y="857.9639">addEntry(title, description, urgency, duration, GreenSpace)</text><polygon fill="#181818" points="1883.5,890.5176,1893.5,894.5176,1883.5,898.5176,1887.5,894.5176" style="stroke:#181818;stroke-width:1.0;"/><line style="stroke:#181818;stroke-width:1.0;" x1="1513.5" x2="1889.5" y1="894.5176" y2="894.5176"/><text fill="#000000" font-family="sans-serif" font-size="13" font-weight="bold" lengthAdjust="spacing" textLength="14" x="1520.5" y="889.2549">23</text><text fill="#000000" font-family="sans-serif" font-size="13" lengthAdjust="spacing" textLength="340" x="1538.5" y="889.2549">addEntry(title, description, urgency, duration, GreenSpace)</text><rect fill="#E3E3E3" height="51.2422" rx="2.5" ry="2.5" style="stroke:#181818;stroke-width:0.5;" width="86" x="1895.5" y="871.2266"/><text fill="#000000" font-family="sans-serif" font-size="14" lengthAdjust="spacing" textLength="63" x="1907" y="893.334">toDoEntry</text><text fill="#000000" font-family="sans-serif" font-size="14" lengthAdjust="spacing" textLength="72" x="1902.5" y="911.9551">:ToDoEntry</text><line style="stroke:#181818;stroke-width:1.0;" x1="1513.5" x2="1560.5" y1="951.7598" y2="951.7598"/><line style="stroke:#181818;stroke-width:1.0;" x1="1560.5" x2="1560.5" y1="951.7598" y2="964.7598"/><line style="stroke:#181818;stroke-width:1.0;" x1="1519.5" x2="1560.5" y1="964.7598" y2="964.7598"/><polygon fill="#181818" points="1529.5,960.7598,1519.5,964.7598,1529.5,968.7598,1525.5,964.7598" style="stroke:#181818;stroke-width:1.0;"/><text fill="#000000" font-family="sans-serif" font-size="13" font-weight="bold" lengthAdjust="spacing" textLength="14" x="1525.5" y="946.4971">24</text><text fill="#000000" font-family="sans-serif" font-size="13" lengthAdjust="spacing" textLength="90" x="1543.5" y="946.4971">add(ToDoEntry)</text><line style="stroke:#181818;stroke-width:1.0;" x1="1518.5" x2="1565.5" y1="996.0508" y2="996.0508"/><line style="stroke:#181818;stroke-width:1.0;" x1="1565.5" x2="1565.5" y1="996.0508" y2="1009.0508"/><line style="stroke:#181818;stroke-width:1.0;" x1="1524.5" x2="1565.5" y1="1009.0508" y2="1009.0508"/><polygon fill="#181818" points="1534.5,1005.0508,1524.5,1009.0508,1534.5,1013.0508,1530.5,1009.0508" style="stroke:#181818;stroke-width:1.0;"/><text fill="#000000" font-family="sans-serif" font-size="13" font-weight="bold" lengthAdjust="spacing" textLength="14" x="1530.5" y="990.7881">25</text><text fill="#000000" font-family="sans-serif" font-size="13" lengthAdjust="spacing" textLength="143" x="1548.5" y="990.7881">validateEntry(ToDoEntry)</text><line style="stroke:#181818;stroke-width:1.0;stroke-dasharray:2.0,2.0;" x1="1523.5" x2="1565.5" y1="1050.3418" y2="1050.3418"/><line style="stroke:#181818;stroke-width:1.0;stroke-dasharray:2.0,2.0;" x1="1565.5" x2="1565.5" y1="1050.3418" y2="1063.3418"/><line style="stroke:#181818;stroke-width:1.0;stroke-dasharray:2.0,2.0;" x1="1518.5" x2="1565.5" y1="1063.3418" y2="1063.3418"/><polygon fill="#181818" points="1528.5,1059.3418,1518.5,1063.3418,1528.5,1067.3418,1524.5,1063.3418" style="stroke:#181818;stroke-width:1.0;"/><text fill="#000000" font-family="sans-serif" font-size="13" font-weight="bold" lengthAdjust="spacing" textLength="14" x="1530.5" y="1045.0791">26</text><text fill="#000000" font-family="sans-serif" font-size="13" lengthAdjust="spacing" textLength="4" x="1548.5" y="1045.0791">&#160;</text><line style="stroke:#181818;stroke-width:1.0;stroke-dasharray:2.0,2.0;" x1="1518.5" x2="1560.5" y1="1094.6328" y2="1094.6328"/><line style="stroke:#181818;stroke-width:1.0;stroke-dasharray:2.0,2.0;" x1="1560.5" x2="1560.5" y1="1094.6328" y2="1107.6328"/><line style="stroke:#181818;stroke-width:1.0;stroke-dasharray:2.0,2.0;" x1="1513.5" x2="1560.5" y1="1107.6328" y2="1107.6328"/><polygon fill="#181818" points="1523.5,1103.6328,1513.5,1107.6328,1523.5,1111.6328,1519.5,1107.6328" style="stroke:#181818;stroke-width:1.0;"/><text fill="#000000" font-family="sans-serif" font-size="13" font-weight="bold" lengthAdjust="spacing" textLength="14" x="1525.5" y="1089.3701">27</text><text fill="#000000" font-family="sans-serif" font-size="13" lengthAdjust="spacing" textLength="4" x="1543.5" y="1089.3701">&#160;</text><polygon fill="#181818" points="982.5,1129.9238,972.5,1133.9238,982.5,1137.9238,978.5,1133.9238" style="stroke:#181818;stroke-width:1.0;"/><line style="stroke:#181818;stroke-width:1.0;stroke-dasharray:2.0,2.0;" x1="976.5" x2="1507.5" y1="1133.9238" y2="1133.9238"/><text fill="#000000" font-family="sans-serif" font-size="13" font-weight="bold" lengthAdjust="spacing" textLength="14" x="988.5" y="1128.6611">28</text><text fill="#000000" font-family="sans-serif" font-size="13" lengthAdjust="spacing" textLength="4" x="1006.5" y="1128.6611">&#160;</text><polygon fill="#181818" points="595.5,1168.2148,585.5,1172.2148,595.5,1176.2148,591.5,1172.2148" style="stroke:#181818;stroke-width:1.0;"/><line style="stroke:#181818;stroke-width:1.0;stroke-dasharray:2.0,2.0;" x1="589.5" x2="965.5" y1="1172.2148" y2="1172.2148"/><text fill="#000000" font-family="sans-serif" font-size="13" font-weight="bold" lengthAdjust="spacing" textLength="14" x="601.5" y="1166.9521">29</text><text fill="#000000" font-family="sans-serif" font-size="13" lengthAdjust="spacing" textLength="79" x="619.5" y="1166.9521">toDoEntryList</text><polygon fill="#181818" points="108.5,1216.7969,98.5,1220.7969,108.5,1224.7969,104.5,1220.7969" style="stroke:#181818;stroke-width:1.0;"/><line style="stroke:#181818;stroke-width:1.0;stroke-dasharray:2.0,2.0;" x1="102.5" x2="578.5" y1="1220.7969" y2="1220.7969"/><text fill="#000000" font-family="sans-serif" font-size="13" font-weight="bold" lengthAdjust="spacing" textLength="14" x="114.5" y="1206.8887">30</text><text fill="#000000" font-family="sans-serif" font-size="13" lengthAdjust="spacing" textLength="229" x="132.5" y="1198.2432">shows operation success message and</text><text fill="#000000" font-family="sans-serif" font-size="13" lengthAdjust="spacing" textLength="213" x="136.5" y="1215.5342">displays the registered green spaces</text><!--SRC=[rLVRJkCm47ttLrYyRAdQ7wW44g88LMB5YhPll9XacbWaTjPsAFtx7JjDugGklT2LTlE0gECvS-RYCuv-vw9WYkKqbq96gP8vKADA8BfvKx3edIKmDviCg8B8C95a_WQTibYkkKZeYcKQ266baQBCtq0HyYFbCT2LbEPDVX8M6QderQC245GZCcYQCu7mweeoJU-cFmc26XxnWWb3hoPtSRoGK_aWZDeiPsxJSXRUSoznayooBTRzukMfj_452gavKk2WtPvcOJFdDYhatJLHdiMhs0NuzNItw5eaDhQv3Qq5dxoAny2oGmYzw2AQEluEu69trU45rlV0OJpDvihqUVfCY2qI_s06N3K8nGV_eUDRJ3oTuBvtJOsaB8ufemBM52o0NJ8feFlnLD8dharbQfy642lNB28OGjeY3OS86od07OHaKXPqdNBijLN6afiRrus-4LfPFXFinTybQAETNyCDcZ0HqnXqf7XXk1HKhggNI7hqAjp_CTWAsJUbIa14cv6pigzOKIZvoNDB5JuBR7L0k58nYzKoZs4d83z1PbD0nSaIv0enk5X9bVTWV91EKcnE9WcOjZFqu7hNpFLtlUf-MGg1ZaPEY3OJ6azk11xKlgTn4JeU1wr33BQLTaLhJz11A2_JPr6fas9FQPM5q6ax9IFkl1_SxloDsw23P_o4u9tNOu95bo5VlT3rAH6VnJrar2G4sRHKJad3MLIg7XZVBcTd-tKdBQn1EfNhwh1dA7bMLH9_jbbbgGLJGuQAijKWxNJ1sqk-yE_BPltuYbCXVw4vUulR5-GchffqX3ELYnAitDi9dqi5dH2FbiMQP1sxB7Qe-VOWukQTcmaO3KKFgLT4MbKqKD3bR2kZbhSRS0Ct84R-T1Yr4w0M-P7NOzTXRjrcsASutv7XypJl0h9xhjpkocpW4d9Cm5-hQrzLGpUTOyMK79eP0V3BDTF1H8H2EmeXO6WhOszsm-7V3o3iFfHBP39erY-GdSkoenyiup7wghBrJn0DCZqApcl-_uFHToXrhyNVuD20-AEelarih_grNVTxvzJhWooWEd1Kbn6EClmcnZ_uKMpl3_ZP4dDTP6nJ3_W4dK7l-h2TmxqPxFsqtt9_0000]--></g></svg>