<?xml version="1.0" encoding="us-ascii" standalone="no"?><svg xmlns="http://www.w3.org/2000/svg" xmlns:xlink="http://www.w3.org/1999/xlink" contentStyleType="text/css" height="395px" preserveAspectRatio="none" style="width:482px;height:395px;background:#FFFFFF;" version="1.1" viewBox="0 0 482 395" width="482px" zoomAndPan="magnify"><defs/><g><text fill="#000000" font-family="sans-serif" font-size="14" font-weight="bold" lengthAdjust="spacing" textLength="363" x="58.75" y="28.5352">System Sequence Diagram (SSD) - Alternative One</text><rect fill="#FFFFFF" height="176.8633" style="stroke:#181818;stroke-width:1.0;" width="10" x="77.5" y="128.9766"/><rect fill="#FFFFFF" height="29.3105" style="stroke:#181818;stroke-width:1.0;" width="10" x="438.5" y="150.2871"/><rect fill="#FFFFFF" height="29.3105" style="stroke:#181818;stroke-width:1.0;" width="10" x="438.5" y="208.9082"/><rect fill="#FFFFFF" height="29.3105" style="stroke:#181818;stroke-width:1.0;" width="10" x="438.5" y="267.5293"/><line style="stroke:#181818;stroke-width:0.5;stroke-dasharray:5.0,5.0;" x1="82" x2="82" y1="118.9766" y2="314.8398"/><line style="stroke:#181818;stroke-width:0.5;stroke-dasharray:5.0,5.0;" x1="443.5" x2="443.5" y1="118.9766" y2="314.8398"/><text fill="#000000" font-family="sans-serif" font-size="14" lengthAdjust="spacing" textLength="149" x="5" y="116.0234">Green Space Manager</text><ellipse cx="82.5" cy="50.9883" fill="#E3E3E3" rx="8" ry="8" style="stroke:#181818;stroke-width:0.5;"/><path d="M82.5,58.9883 L82.5,85.9883 M69.5,66.9883 L95.5,66.9883 M82.5,85.9883 L69.5,100.9883 M82.5,85.9883 L95.5,100.9883 " fill="none" style="stroke:#181818;stroke-width:0.5;"/><text fill="#000000" font-family="sans-serif" font-size="14" lengthAdjust="spacing" textLength="149" x="5" y="327.375">Green Space Manager</text><ellipse cx="82.5" cy="338.8281" fill="#E3E3E3" rx="8" ry="8" style="stroke:#181818;stroke-width:0.5;"/><path d="M82.5,346.8281 L82.5,373.8281 M69.5,354.8281 L95.5,354.8281 M82.5,373.8281 L69.5,388.8281 M82.5,373.8281 L95.5,388.8281 " fill="none" style="stroke:#181818;stroke-width:0.5;"/><rect fill="#E3E3E3" height="30.4883" rx="2.5" ry="2.5" style="stroke:#181818;stroke-width:0.5;" width="66" x="410.5" y="87.4883"/><text fill="#000000" font-family="sans-serif" font-size="14" lengthAdjust="spacing" textLength="52" x="417.5" y="108.0234">:System</text><rect fill="#E3E3E3" height="30.4883" rx="2.5" ry="2.5" style="stroke:#181818;stroke-width:0.5;" width="66" x="410.5" y="313.8398"/><text fill="#000000" font-family="sans-serif" font-size="14" lengthAdjust="spacing" textLength="52" x="417.5" y="334.375">:System</text><rect fill="#FFFFFF" height="176.8633" style="stroke:#181818;stroke-width:1.0;" width="10" x="77.5" y="128.9766"/><rect fill="#FFFFFF" height="29.3105" style="stroke:#181818;stroke-width:1.0;" width="10" x="438.5" y="150.2871"/><rect fill="#FFFFFF" height="29.3105" style="stroke:#181818;stroke-width:1.0;" width="10" x="438.5" y="208.9082"/><rect fill="#FFFFFF" height="29.3105" style="stroke:#181818;stroke-width:1.0;" width="10" x="438.5" y="267.5293"/><polygon fill="#181818" points="426.5,146.2871,436.5,150.2871,426.5,154.2871,430.5,150.2871" style="stroke:#181818;stroke-width:1.0;"/><line style="stroke:#181818;stroke-width:1.0;" x1="87.5" x2="432.5" y1="150.2871" y2="150.2871"/><text fill="#000000" font-family="sans-serif" font-size="13" font-weight="bold" lengthAdjust="spacing" textLength="9" x="94.5" y="145.5449">1</text><text fill="#000000" font-family="sans-serif" font-size="13" lengthAdjust="spacing" textLength="100" x="107.5" y="145.5449">asks for agenda</text><polygon fill="#181818" points="98.5,175.5977,88.5,179.5977,98.5,183.5977,94.5,179.5977" style="stroke:#181818;stroke-width:1.0;"/><line style="stroke:#181818;stroke-width:1.0;stroke-dasharray:2.0,2.0;" x1="92.5" x2="442.5" y1="179.5977" y2="179.5977"/><text fill="#000000" font-family="sans-serif" font-size="13" font-weight="bold" lengthAdjust="spacing" textLength="9" x="104.5" y="174.8555">2</text><text fill="#000000" font-family="sans-serif" font-size="13" lengthAdjust="spacing" textLength="89" x="117.5" y="174.8555">shows agenda</text><polygon fill="#181818" points="426.5,204.9082,436.5,208.9082,426.5,212.9082,430.5,208.9082" style="stroke:#181818;stroke-width:1.0;"/><line style="stroke:#181818;stroke-width:1.0;" x1="87.5" x2="432.5" y1="208.9082" y2="208.9082"/><text fill="#000000" font-family="sans-serif" font-size="13" font-weight="bold" lengthAdjust="spacing" textLength="9" x="94.5" y="204.166">3</text><text fill="#000000" font-family="sans-serif" font-size="13" lengthAdjust="spacing" textLength="164" x="107.5" y="204.166">asks to postpone an entry</text><polygon fill="#181818" points="98.5,234.2188,88.5,238.2188,98.5,242.2188,94.5,238.2188" style="stroke:#181818;stroke-width:1.0;"/><line style="stroke:#181818;stroke-width:1.0;stroke-dasharray:2.0,2.0;" x1="92.5" x2="442.5" y1="238.2188" y2="238.2188"/><text fill="#000000" font-family="sans-serif" font-size="13" font-weight="bold" lengthAdjust="spacing" textLength="9" x="104.5" y="233.4766">4</text><text fill="#000000" font-family="sans-serif" font-size="13" lengthAdjust="spacing" textLength="314" x="117.5" y="233.4766">shows the calendar and asks what the new date is</text><polygon fill="#181818" points="426.5,263.5293,436.5,267.5293,426.5,271.5293,430.5,267.5293" style="stroke:#181818;stroke-width:1.0;"/><line style="stroke:#181818;stroke-width:1.0;" x1="87.5" x2="432.5" y1="267.5293" y2="267.5293"/><text fill="#000000" font-family="sans-serif" font-size="13" font-weight="bold" lengthAdjust="spacing" textLength="9" x="94.5" y="262.7871">5</text><text fill="#000000" font-family="sans-serif" font-size="13" lengthAdjust="spacing" textLength="100" x="107.5" y="262.7871">choose the date</text><polygon fill="#181818" points="98.5,292.8398,88.5,296.8398,98.5,300.8398,94.5,296.8398" style="stroke:#181818;stroke-width:1.0;"/><line style="stroke:#181818;stroke-width:1.0;stroke-dasharray:2.0,2.0;" x1="92.5" x2="442.5" y1="296.8398" y2="296.8398"/><text fill="#000000" font-family="sans-serif" font-size="13" font-weight="bold" lengthAdjust="spacing" textLength="9" x="104.5" y="292.0977">6</text><text fill="#000000" font-family="sans-serif" font-size="13" lengthAdjust="spacing" textLength="310" x="117.5" y="292.0977">confirm availability and display success message</text><!--SRC=[dP0xRiCm38PtduB8r0wvG8O01L9qAZhu18pCs4GaoXNf6BvzQUVH3CtGQ10ay7zyaXvPUYoO86N9eIiv4LWPgDBRfCTmn9Pgco91eM0eRRmNQ8TD7bbQE61KgYfZSsazgL62chu7aa2mOsnd-KjTxrvX3M_Hg0WQdmY-n6quM9OXxQduELWkiFeeH0Ar8n1yeZX6MG4glAS-veceSWBZm3sAmMfphbmKv-CIn2Sq-hLKuEjwW_Ns2hfnsr7XuBtU8mqkmfl_6WYNTN6jFU0Mjl6_oAFU-nlwC-5nlsNeirgVXG05IAnCpvDOHn0mpZZ-B6dE7ME7jeo4HcZcJDP_quOkPwKbPevuXZ5aEN19W2VaY7kERDD2sR3s4IVG8GHIXUIRV-e3nXy0]--></g></svg>