<?xml version="1.0" encoding="us-ascii" standalone="no"?><svg xmlns="http://www.w3.org/2000/svg" xmlns:xlink="http://www.w3.org/1999/xlink" contentStyleType="text/css" height="380px" preserveAspectRatio="none" style="width:366px;height:380px;background:#FFFFFF;" version="1.1" viewBox="0 0 366 380" width="366px" zoomAndPan="magnify"><defs/><g><rect fill="#FFFFFF" height="224.4063" style="stroke:#181818;stroke-width:1.0;" width="10" x="145" y="90.5332"/><rect fill="#FFFFFF" height="87.582" style="stroke:#181818;stroke-width:1.0;" width="10" x="150" y="218.3574"/><rect fill="none" height="170.1152" style="stroke:#000000;stroke-width:1.5;" width="269" x="91" y="105.5332"/><line style="stroke:#181818;stroke-width:0.5;stroke-dasharray:5.0,5.0;" x1="150" x2="150" y1="57.2422" y2="323.9395"/><line style="stroke:#181818;stroke-width:0.5;stroke-dasharray:5.0,5.0;" x1="328" x2="328" y1="165.9453" y2="323.9395"/><rect fill="#E3E3E3" height="51.2422" rx="2.5" ry="2.5" style="stroke:#181818;stroke-width:0.5;" width="98" x="101" y="5"/><text fill="#000000" font-family="sans-serif" font-size="14" lengthAdjust="spacing" textLength="77" x="111.5" y="27.1074">organization</text><text fill="#000000" font-family="sans-serif" font-size="14" lengthAdjust="spacing" textLength="84" x="108" y="45.7285">:Organization</text><rect fill="#E3E3E3" height="51.2422" rx="2.5" ry="2.5" style="stroke:#181818;stroke-width:0.5;" width="98" x="101" y="322.9395"/><text fill="#000000" font-family="sans-serif" font-size="14" lengthAdjust="spacing" textLength="77" x="111.5" y="345.0469">organization</text><text fill="#000000" font-family="sans-serif" font-size="14" lengthAdjust="spacing" textLength="84" x="108" y="363.668">:Organization</text><rect fill="#E3E3E3" height="51.2422" rx="2.5" ry="2.5" style="stroke:#181818;stroke-width:0.5;" width="43" x="307" y="322.9395"/><text fill="#000000" font-family="sans-serif" font-size="14" lengthAdjust="spacing" textLength="23" x="317" y="345.0469">skill</text><text fill="#000000" font-family="sans-serif" font-size="14" lengthAdjust="spacing" textLength="29" x="314" y="363.668">:Skill</text><rect fill="#FFFFFF" height="224.4063" style="stroke:#181818;stroke-width:1.0;" width="10" x="145" y="90.5332"/><rect fill="#FFFFFF" height="87.582" style="stroke:#181818;stroke-width:1.0;" width="10" x="150" y="218.3574"/><polygon fill="#181818" points="133,86.5332,143,90.5332,133,94.5332,137,90.5332" style="stroke:#181818;stroke-width:1.0;"/><line style="stroke:#181818;stroke-width:1.0;" x1="0" x2="139" y1="90.5332" y2="90.5332"/><text fill="#000000" font-family="sans-serif" font-size="13" font-weight="bold" lengthAdjust="spacing" textLength="14" x="7" y="85.2705">32</text><text fill="#000000" font-family="sans-serif" font-size="13" lengthAdjust="spacing" textLength="108" x="25" y="85.2705">registerSkill(name)</text><path d="M91,105.5332 L220,105.5332 L220,114.8242 L210,124.8242 L91,124.8242 L91,105.5332 " fill="#EEEEEE" style="stroke:#000000;stroke-width:1.5;"/><rect fill="none" height="170.1152" style="stroke:#000000;stroke-width:1.5;" width="269" x="91" y="105.5332"/><text fill="#000000" font-family="sans-serif" font-size="13" font-weight="bold" lengthAdjust="spacing" textLength="84" x="106" y="120.5615">Register Skill</text><polygon fill="#181818" points="295,144.1152,305,148.1152,295,152.1152,299,148.1152" style="stroke:#181818;stroke-width:1.0;"/><line style="stroke:#181818;stroke-width:1.0;" x1="155" x2="301" y1="148.1152" y2="148.1152"/><text fill="#000000" font-family="sans-serif" font-size="13" font-weight="bold" lengthAdjust="spacing" textLength="14" x="162" y="142.8525">33</text><text fill="#000000" font-family="sans-serif" font-size="13" lengthAdjust="spacing" textLength="110" x="180" y="142.8525">register(skill name)</text><rect fill="#E3E3E3" height="51.2422" rx="2.5" ry="2.5" style="stroke:#181818;stroke-width:0.5;" width="43" x="307" y="124.8242"/><text fill="#000000" font-family="sans-serif" font-size="14" lengthAdjust="spacing" textLength="23" x="317" y="146.9316">skill</text><text fill="#000000" font-family="sans-serif" font-size="14" lengthAdjust="spacing" textLength="29" x="314" y="165.5527">:Skill</text><line style="stroke:#181818;stroke-width:1.0;" x1="155" x2="202" y1="205.3574" y2="205.3574"/><line style="stroke:#181818;stroke-width:1.0;" x1="202" x2="202" y1="205.3574" y2="218.3574"/><line style="stroke:#181818;stroke-width:1.0;" x1="161" x2="202" y1="218.3574" y2="218.3574"/><polygon fill="#181818" points="171,214.3574,161,218.3574,171,222.3574,167,218.3574" style="stroke:#181818;stroke-width:1.0;"/><text fill="#000000" font-family="sans-serif" font-size="13" font-weight="bold" lengthAdjust="spacing" textLength="14" x="167" y="200.0947">34</text><text fill="#000000" font-family="sans-serif" font-size="13" lengthAdjust="spacing" textLength="81" x="185" y="200.0947">addSkill (skill)</text><line style="stroke:#181818;stroke-width:1.0;" x1="160" x2="202" y1="254.6484" y2="254.6484"/><line style="stroke:#181818;stroke-width:1.0;" x1="202" x2="202" y1="254.6484" y2="267.6484"/><line style="stroke:#181818;stroke-width:1.0;" x1="161" x2="202" y1="267.6484" y2="267.6484"/><polygon fill="#181818" points="171,263.6484,161,267.6484,171,271.6484,167,267.6484" style="stroke:#181818;stroke-width:1.0;"/><text fill="#000000" font-family="sans-serif" font-size="13" font-weight="bold" lengthAdjust="spacing" textLength="14" x="167" y="249.3857">35</text><text fill="#000000" font-family="sans-serif" font-size="13" lengthAdjust="spacing" textLength="99" x="185" y="249.3857">validateSkill(skill)</text><polygon fill="#181818" points="11,301.9395,1,305.9395,11,309.9395,7,305.9395" style="stroke:#181818;stroke-width:1.0;"/><line style="stroke:#181818;stroke-width:1.0;stroke-dasharray:2.0,2.0;" x1="5" x2="144" y1="305.9395" y2="305.9395"/><text fill="#000000" font-family="sans-serif" font-size="13" font-weight="bold" lengthAdjust="spacing" textLength="14" x="17" y="300.6768">36</text><text fill="#000000" font-family="sans-serif" font-size="13" lengthAdjust="spacing" textLength="23" x="35" y="300.6768">skill</text><!--SRC=[ROynJmCn38Nt_0ghKrlf5Yend11I1s2iT6LaCHUJHasSKv8hWbzFpa7q3iYInFxUUtOwMnumeWSVEFId63n1ZYEfzDCPi3-ZeMF-S0IH-enit1n89zJXtRA1DtI9b2hbR7ix86TOXMYGxITc6_Y5syFikm9CSEYUbe9Yx5mXZzCjoFE-UtZSAuLZ3ZpwLugmkr7D_QHjoqZ6fanH-3MZfyqItIdiixrW9Wc3SamCum3Tjn94ggGpdK91SQ-ns-qrOYspGStuHSiigBLuGIKtLyy_8_mdlw2pka1rbRa5iQwF-MAtKhbh6Z5fGGHAqo9BVG40]--></g></svg>