<?xml version="1.0" encoding="us-ascii" standalone="no"?><svg xmlns="http://www.w3.org/2000/svg" xmlns:xlink="http://www.w3.org/1999/xlink" contentStyleType="text/css" height="1039px" preserveAspectRatio="none" style="width:804px;height:1039px;background:#FFFFFF;" version="1.1" viewBox="0 0 804 1039" width="804px" zoomAndPan="magnify"><defs/><g><rect fill="#FFFFFF" height="845.1289" style="stroke:#181818;stroke-width:1.0;" width="10" x="91" y="93.6211"/><rect fill="#FFFFFF" height="201.707" style="stroke:#181818;stroke-width:1.0;" width="10" x="324" y="116.9121"/><rect fill="#FFFFFF" height="31.291" style="stroke:#181818;stroke-width:1.0;" width="10" x="324" y="349.9102"/><rect fill="#FFFFFF" height="526.2578" style="stroke:#181818;stroke-width:1.0;" width="10" x="324" y="412.4922"/><rect fill="#FFFFFF" height="95.5039" style="stroke:#181818;stroke-width:1.0;" width="10" x="479" y="191.8242"/><rect fill="#FFFFFF" height="463.6758" style="stroke:#181818;stroke-width:1.0;" width="10" x="479" y="443.7832"/><rect fill="#FFFFFF" height="106.5039" style="stroke:#181818;stroke-width:1.0;" width="10" x="484" y="483.0742"/><rect fill="#FFFFFF" height="106.5039" style="stroke:#181818;stroke-width:1.0;" width="10" x="484" y="635.8691"/><rect fill="#FFFFFF" height="95.5039" style="stroke:#181818;stroke-width:1.0;" width="10" x="741" y="780.6641"/><line style="stroke:#181818;stroke-width:0.5;stroke-dasharray:5.0,5.0;" x1="96" x2="96" y1="83.6211" y2="956.75"/><line style="stroke:#181818;stroke-width:0.5;stroke-dasharray:5.0,5.0;" x1="329" x2="329" y1="83.6211" y2="956.75"/><line style="stroke:#181818;stroke-width:0.5;stroke-dasharray:5.0,5.0;" x1="484" x2="484" y1="156.7227" y2="956.75"/><line style="stroke:#181818;stroke-width:0.5;stroke-dasharray:5.0,5.0;" x1="746" x2="746" y1="83.6211" y2="956.75"/><text fill="#000000" font-family="sans-serif" font-size="14" lengthAdjust="spacing" textLength="176" x="5" y="80.1074">Human Resources Manager</text><ellipse cx="96" cy="13.5" fill="#E3E3E3" rx="8" ry="8" style="stroke:#181818;stroke-width:0.5;"/><path d="M96,21.5 L96,48.5 M83,29.5 L109,29.5 M96,48.5 L83,63.5 M96,48.5 L109,63.5 " fill="none" style="stroke:#181818;stroke-width:0.5;"/><text fill="#000000" font-family="sans-serif" font-size="14" lengthAdjust="spacing" textLength="176" x="5" y="970.8574">Human Resources Manager</text><ellipse cx="96" cy="982.8711" fill="#E3E3E3" rx="8" ry="8" style="stroke:#181818;stroke-width:0.5;"/><path d="M96,990.8711 L96,1017.8711 M83,998.8711 L109,998.8711 M96,1017.8711 L83,1032.8711 M96,1017.8711 L109,1032.8711 " fill="none" style="stroke:#181818;stroke-width:0.5;"/><rect fill="#E3E3E3" height="32.6211" rx="2.5" ry="2.5" style="stroke:#181818;stroke-width:0.5;" width="108" x="275" y="50"/><text fill="#000000" font-family="sans-serif" font-size="14" lengthAdjust="spacing" textLength="94" x="282" y="72.1074">:RegisterSkillUI</text><rect fill="#E3E3E3" height="32.6211" rx="2.5" ry="2.5" style="stroke:#181818;stroke-width:0.5;" width="108" x="275" y="955.75"/><text fill="#000000" font-family="sans-serif" font-size="14" lengthAdjust="spacing" textLength="94" x="282" y="977.8574">:RegisterSkillUI</text><rect fill="#E3E3E3" height="32.6211" rx="2.5" ry="2.5" style="stroke:#181818;stroke-width:0.5;" width="158" x="405" y="955.75"/><text fill="#000000" font-family="sans-serif" font-size="14" lengthAdjust="spacing" textLength="144" x="412" y="977.8574">:RegisterSkillController</text><rect fill="#E3E3E3" height="51.2422" rx="2.5" ry="2.5" style="stroke:#181818;stroke-width:0.5;" width="98" x="697" y="31.3789"/><text fill="#000000" font-family="sans-serif" font-size="14" lengthAdjust="spacing" textLength="77" x="707.5" y="53.4863">organization</text><text fill="#000000" font-family="sans-serif" font-size="14" lengthAdjust="spacing" textLength="84" x="704" y="72.1074">:Organization</text><rect fill="#E3E3E3" height="51.2422" rx="2.5" ry="2.5" style="stroke:#181818;stroke-width:0.5;" width="98" x="697" y="955.75"/><text fill="#000000" font-family="sans-serif" font-size="14" lengthAdjust="spacing" textLength="77" x="707.5" y="977.8574">organization</text><text fill="#000000" font-family="sans-serif" font-size="14" lengthAdjust="spacing" textLength="84" x="704" y="996.4785">:Organization</text><rect fill="#FFFFFF" height="845.1289" style="stroke:#181818;stroke-width:1.0;" width="10" x="91" y="93.6211"/><rect fill="#FFFFFF" height="201.707" style="stroke:#181818;stroke-width:1.0;" width="10" x="324" y="116.9121"/><rect fill="#FFFFFF" height="31.291" style="stroke:#181818;stroke-width:1.0;" width="10" x="324" y="349.9102"/><rect fill="#FFFFFF" height="526.2578" style="stroke:#181818;stroke-width:1.0;" width="10" x="324" y="412.4922"/><rect fill="#FFFFFF" height="95.5039" style="stroke:#181818;stroke-width:1.0;" width="10" x="479" y="191.8242"/><rect fill="#FFFFFF" height="463.6758" style="stroke:#181818;stroke-width:1.0;" width="10" x="479" y="443.7832"/><rect fill="#FFFFFF" height="106.5039" style="stroke:#181818;stroke-width:1.0;" width="10" x="484" y="483.0742"/><rect fill="#FFFFFF" height="106.5039" style="stroke:#181818;stroke-width:1.0;" width="10" x="484" y="635.8691"/><rect fill="#FFFFFF" height="95.5039" style="stroke:#181818;stroke-width:1.0;" width="10" x="741" y="780.6641"/><polygon fill="#181818" points="312,112.9121,322,116.9121,312,120.9121,316,116.9121" style="stroke:#181818;stroke-width:1.0;"/><line style="stroke:#181818;stroke-width:1.0;" x1="101" x2="318" y1="116.9121" y2="116.9121"/><text fill="#000000" font-family="sans-serif" font-size="13" font-weight="bold" lengthAdjust="spacing" textLength="7" x="108" y="111.6494">1</text><text fill="#000000" font-family="sans-serif" font-size="13" lengthAdjust="spacing" textLength="124" x="119" y="111.6494">asks to register skills</text><polygon fill="#181818" points="393,144.2031,403,148.2031,393,152.2031,397,148.2031" style="stroke:#181818;stroke-width:1.0;"/><line style="stroke:#181818;stroke-width:1.0;" x1="334" x2="399" y1="148.2031" y2="148.2031"/><text fill="#000000" font-family="sans-serif" font-size="13" font-weight="bold" lengthAdjust="spacing" textLength="7" x="341" y="142.9404">2</text><text fill="#000000" font-family="sans-serif" font-size="13" lengthAdjust="spacing" textLength="36" x="352" y="142.9404">create</text><rect fill="#E3E3E3" height="32.6211" rx="2.5" ry="2.5" style="stroke:#181818;stroke-width:0.5;" width="158" x="405" y="124.9121"/><text fill="#000000" font-family="sans-serif" font-size="14" lengthAdjust="spacing" textLength="144" x="412" y="147.0195">:RegisterSkillController</text><polygon fill="#181818" points="467,187.8242,477,191.8242,467,195.8242,471,191.8242" style="stroke:#181818;stroke-width:1.0;"/><line style="stroke:#181818;stroke-width:1.0;" x1="334" x2="473" y1="191.8242" y2="191.8242"/><text fill="#000000" font-family="sans-serif" font-size="13" font-weight="bold" lengthAdjust="spacing" textLength="7" x="341" y="186.5615">3</text><text fill="#000000" font-family="sans-serif" font-size="13" lengthAdjust="spacing" textLength="51" x="352" y="186.5615">getSkill()</text><rect fill="none" height="59.2129" style="stroke:#000000;stroke-width:1.5;" width="164" x="402" y="199.8242"/><path d="M402,199.8242 L464,199.8242 L464,208.8242 L454,218.8242 L402,218.8242 L402,199.8242 " fill="#EEEEEE" style="stroke:#000000;stroke-width:2.0;"/><text fill="#000000" font-family="sans-serif" font-size="13" font-weight="bold" lengthAdjust="spacing" textLength="17" x="415" y="215.8525">ref</text><text fill="#000000" font-family="sans-serif" font-size="12" lengthAdjust="spacing" textLength="68" x="450" y="235.7734">Get Skill List</text><text fill="#000000" font-family="sans-serif" font-size="12" lengthAdjust="spacing" textLength="3" x="482.5" y="251.7344">&#160;</text><polygon fill="#181818" points="345,283.3281,335,287.3281,345,291.3281,341,287.3281" style="stroke:#181818;stroke-width:1.0;"/><line style="stroke:#181818;stroke-width:1.0;stroke-dasharray:2.0,2.0;" x1="339" x2="483" y1="287.3281" y2="287.3281"/><text fill="#000000" font-family="sans-serif" font-size="13" font-weight="bold" lengthAdjust="spacing" textLength="7" x="351" y="282.0654">4</text><text fill="#000000" font-family="sans-serif" font-size="13" lengthAdjust="spacing" textLength="44" x="362" y="282.0654">skillList</text><polygon fill="#181818" points="112,314.6191,102,318.6191,112,322.6191,108,318.6191" style="stroke:#181818;stroke-width:1.0;"/><line style="stroke:#181818;stroke-width:1.0;stroke-dasharray:2.0,2.0;" x1="106" x2="328" y1="318.6191" y2="318.6191"/><text fill="#000000" font-family="sans-serif" font-size="13" font-weight="bold" lengthAdjust="spacing" textLength="7" x="118" y="313.3564">5</text><text fill="#000000" font-family="sans-serif" font-size="13" lengthAdjust="spacing" textLength="79" x="129" y="313.3564">requests data</text><polygon fill="#181818" points="312,345.9102,322,349.9102,312,353.9102,316,349.9102" style="stroke:#181818;stroke-width:1.0;"/><line style="stroke:#181818;stroke-width:1.0;" x1="101" x2="318" y1="349.9102" y2="349.9102"/><text fill="#000000" font-family="sans-serif" font-size="13" font-weight="bold" lengthAdjust="spacing" textLength="7" x="108" y="344.6475">6</text><text fill="#000000" font-family="sans-serif" font-size="13" lengthAdjust="spacing" textLength="193" x="119" y="344.6475">types requested data (skill name)</text><polygon fill="#181818" points="112,377.2012,102,381.2012,112,385.2012,108,381.2012" style="stroke:#181818;stroke-width:1.0;"/><line style="stroke:#181818;stroke-width:1.0;stroke-dasharray:2.0,2.0;" x1="106" x2="328" y1="381.2012" y2="381.2012"/><text fill="#000000" font-family="sans-serif" font-size="13" font-weight="bold" lengthAdjust="spacing" textLength="7" x="118" y="375.9385">7</text><text fill="#000000" font-family="sans-serif" font-size="13" lengthAdjust="spacing" textLength="127" x="129" y="375.9385">shows requested data</text><polygon fill="#181818" points="312,408.4922,322,412.4922,312,416.4922,316,412.4922" style="stroke:#181818;stroke-width:1.0;"/><line style="stroke:#181818;stroke-width:1.0;" x1="101" x2="318" y1="412.4922" y2="412.4922"/><text fill="#000000" font-family="sans-serif" font-size="13" font-weight="bold" lengthAdjust="spacing" textLength="7" x="108" y="407.2295">8</text><text fill="#000000" font-family="sans-serif" font-size="13" lengthAdjust="spacing" textLength="75" x="119" y="407.2295">submits data</text><polygon fill="#181818" points="467,439.7832,477,443.7832,467,447.7832,471,443.7832" style="stroke:#181818;stroke-width:1.0;"/><line style="stroke:#181818;stroke-width:1.0;" x1="334" x2="473" y1="443.7832" y2="443.7832"/><text fill="#000000" font-family="sans-serif" font-size="13" font-weight="bold" lengthAdjust="spacing" textLength="7" x="341" y="438.5205">9</text><text fill="#000000" font-family="sans-serif" font-size="13" lengthAdjust="spacing" textLength="108" x="352" y="438.5205">registerSkill(name)</text><line style="stroke:#181818;stroke-width:1.0;" x1="489" x2="536" y1="470.0742" y2="470.0742"/><line style="stroke:#181818;stroke-width:1.0;" x1="536" x2="536" y1="470.0742" y2="483.0742"/><line style="stroke:#181818;stroke-width:1.0;" x1="495" x2="536" y1="483.0742" y2="483.0742"/><polygon fill="#181818" points="505,479.0742,495,483.0742,505,487.0742,501,483.0742" style="stroke:#181818;stroke-width:1.0;"/><text fill="#000000" font-family="sans-serif" font-size="13" font-weight="bold" lengthAdjust="spacing" textLength="14" x="501" y="464.8115">10</text><text fill="#000000" font-family="sans-serif" font-size="13" lengthAdjust="spacing" textLength="220" x="519" y="464.8115">getSkillByDescription(skillDescription)</text><rect fill="none" height="59.2129" style="stroke:#000000;stroke-width:1.5;" width="164" x="402" y="496.0742"/><path d="M402,496.0742 L464,496.0742 L464,505.0742 L454,515.0742 L402,515.0742 L402,496.0742 " fill="#EEEEEE" style="stroke:#000000;stroke-width:2.0;"/><text fill="#000000" font-family="sans-serif" font-size="13" font-weight="bold" lengthAdjust="spacing" textLength="17" x="415" y="512.1025">ref</text><text fill="#000000" font-family="sans-serif" font-size="12" lengthAdjust="spacing" textLength="83" x="442.5" y="532.0234">Get Skill Object</text><text fill="#000000" font-family="sans-serif" font-size="12" lengthAdjust="spacing" textLength="3" x="482.5" y="547.9844">&#160;</text><line style="stroke:#181818;stroke-width:1.0;stroke-dasharray:2.0,2.0;" x1="494" x2="536" y1="588.5781" y2="588.5781"/><line style="stroke:#181818;stroke-width:1.0;stroke-dasharray:2.0,2.0;" x1="536" x2="536" y1="588.5781" y2="601.5781"/><line style="stroke:#181818;stroke-width:1.0;stroke-dasharray:2.0,2.0;" x1="489" x2="536" y1="601.5781" y2="601.5781"/><polygon fill="#181818" points="499,597.5781,489,601.5781,499,605.5781,495,601.5781" style="stroke:#181818;stroke-width:1.0;"/><text fill="#000000" font-family="sans-serif" font-size="13" font-weight="bold" lengthAdjust="spacing" textLength="14" x="501" y="583.3154">11</text><text fill="#000000" font-family="sans-serif" font-size="13" lengthAdjust="spacing" textLength="23" x="519" y="583.3154">skill</text><line style="stroke:#181818;stroke-width:1.0;" x1="489" x2="536" y1="622.8691" y2="622.8691"/><line style="stroke:#181818;stroke-width:1.0;" x1="536" x2="536" y1="622.8691" y2="635.8691"/><line style="stroke:#181818;stroke-width:1.0;" x1="495" x2="536" y1="635.8691" y2="635.8691"/><polygon fill="#181818" points="505,631.8691,495,635.8691,505,639.8691,501,635.8691" style="stroke:#181818;stroke-width:1.0;"/><text fill="#000000" font-family="sans-serif" font-size="13" font-weight="bold" lengthAdjust="spacing" textLength="14" x="501" y="617.6064">12</text><text fill="#000000" font-family="sans-serif" font-size="13" lengthAdjust="spacing" textLength="161" x="519" y="617.6064">getEmployeeFromSession()</text><rect fill="none" height="59.2129" style="stroke:#000000;stroke-width:1.5;" width="164" x="402" y="648.8691"/><path d="M402,648.8691 L464,648.8691 L464,657.8691 L454,667.8691 L402,667.8691 L402,648.8691 " fill="#EEEEEE" style="stroke:#000000;stroke-width:2.0;"/><text fill="#000000" font-family="sans-serif" font-size="13" font-weight="bold" lengthAdjust="spacing" textLength="17" x="415" y="664.8975">ref</text><text fill="#000000" font-family="sans-serif" font-size="12" lengthAdjust="spacing" textLength="77" x="445.5" y="684.8184">Get Employee</text><text fill="#000000" font-family="sans-serif" font-size="12" lengthAdjust="spacing" textLength="3" x="482.5" y="700.7793">&#160;</text><line style="stroke:#181818;stroke-width:1.0;" x1="494" x2="536" y1="741.373" y2="741.373"/><line style="stroke:#181818;stroke-width:1.0;" x1="536" x2="536" y1="741.373" y2="754.373"/><line style="stroke:#181818;stroke-width:1.0;" x1="489" x2="536" y1="754.373" y2="754.373"/><polygon fill="#181818" points="499,750.373,489,754.373,499,758.373,495,754.373" style="stroke:#181818;stroke-width:1.0;"/><text fill="#000000" font-family="sans-serif" font-size="13" font-weight="bold" lengthAdjust="spacing" textLength="14" x="501" y="736.1104">13</text><text fill="#000000" font-family="sans-serif" font-size="13" lengthAdjust="spacing" textLength="56" x="519" y="736.1104">employee</text><polygon fill="#181818" points="729,776.6641,739,780.6641,729,784.6641,733,780.6641" style="stroke:#181818;stroke-width:1.0;"/><line style="stroke:#181818;stroke-width:1.0;" x1="489" x2="735" y1="780.6641" y2="780.6641"/><text fill="#000000" font-family="sans-serif" font-size="13" font-weight="bold" lengthAdjust="spacing" textLength="14" x="496" y="775.4014">14</text><text fill="#000000" font-family="sans-serif" font-size="13" lengthAdjust="spacing" textLength="108" x="514" y="775.4014">registerSkill(name)</text><rect fill="none" height="59.2129" style="stroke:#000000;stroke-width:1.5;" width="104" x="694" y="788.6641"/><path d="M694,788.6641 L756,788.6641 L756,797.6641 L746,807.6641 L694,807.6641 L694,788.6641 " fill="#EEEEEE" style="stroke:#000000;stroke-width:2.0;"/><text fill="#000000" font-family="sans-serif" font-size="13" font-weight="bold" lengthAdjust="spacing" textLength="17" x="707" y="804.6924">ref</text><text fill="#000000" font-family="sans-serif" font-size="12" lengthAdjust="spacing" textLength="73" x="709.5" y="824.6133">Register Skill</text><text fill="#000000" font-family="sans-serif" font-size="12" lengthAdjust="spacing" textLength="3" x="744.5" y="840.5742">&#160;</text><polygon fill="#181818" points="500,872.168,490,876.168,500,880.168,496,876.168" style="stroke:#181818;stroke-width:1.0;"/><line style="stroke:#181818;stroke-width:1.0;stroke-dasharray:2.0,2.0;" x1="494" x2="745" y1="876.168" y2="876.168"/><text fill="#000000" font-family="sans-serif" font-size="13" font-weight="bold" lengthAdjust="spacing" textLength="14" x="506" y="870.9053">15</text><text fill="#000000" font-family="sans-serif" font-size="13" lengthAdjust="spacing" textLength="23" x="524" y="870.9053">skill</text><polygon fill="#181818" points="345,903.459,335,907.459,345,911.459,341,907.459" style="stroke:#181818;stroke-width:1.0;"/><line style="stroke:#181818;stroke-width:1.0;stroke-dasharray:2.0,2.0;" x1="339" x2="483" y1="907.459" y2="907.459"/><text fill="#000000" font-family="sans-serif" font-size="13" font-weight="bold" lengthAdjust="spacing" textLength="14" x="351" y="902.1963">16</text><text fill="#000000" font-family="sans-serif" font-size="13" lengthAdjust="spacing" textLength="23" x="369" y="902.1963">skill</text><polygon fill="#181818" points="107,934.75,97,938.75,107,942.75,103,938.75" style="stroke:#181818;stroke-width:1.0;"/><line style="stroke:#181818;stroke-width:1.0;stroke-dasharray:2.0,2.0;" x1="101" x2="328" y1="938.75" y2="938.75"/><text fill="#000000" font-family="sans-serif" font-size="13" font-weight="bold" lengthAdjust="spacing" textLength="14" x="113" y="933.4873">17</text><text fill="#000000" font-family="sans-serif" font-size="13" lengthAdjust="spacing" textLength="158" x="131" y="933.4873">displays operation success</text><!--SRC=[jLN1Rjim3BtxAuXSaXJe3-GmO6ktha2B0CbwsuMn6KUBB7cYtCxx-j5oxCXracM7-MIBvEDxr9FCUsLAT5X0OOrDTyuM1DvLb70VAJ7TOqvhNsi2Hwb7a-iuWNUOsJTbSjYYPaeIhBmrLR4XboJJdSe8jjRwZVsLOEgjWydNga03As9RkPGOdj581pS1PFXu_vm8hbUfAj5uc2nMb2lsvDPxfVNBOyXwURoKT6UDTrRh0-JTjzNJCDsw78twZLvPyzqibj5dg5Yk7fA6h7f5Ju5I0lB82zn-aEQmaAmzWxSoaROnSDEPsyI-L7Y6XUQHCYbkoDpS243gI39EH2MMamz2PlC-xcWBzbNw13KGFG_a8MJ3ap0vzYEJDLN7XPvLW1XWXBwtdROW9O1ryOpU5KzZtbBNZ4OAT_PDfYApWLHoS-jgq883A5owYR4cSH5OGorAX2tZchQByQYPj1Gmu12vJJmxwfwKevyLiTHdw34PTnnjhQzBCUMXZB9G1xCm531Oq3ovhd4xZI7EDVsvsXGgvliNEmMDaVrdHv9NRVl8Tf_gU-BKgR8v4AtmQ64-WBY0VjcsO_ikDpzadySO8oEFN7lW7vWEiaQ-lQp-Sr5gMnDzaOjmJSoD_FyWjsjpNkfffJrLwW3-MQlSR9VTCX0Pxi6p6fleAOdTNTnkwqcHuqK1ktehHxIYw-iQ5yInuubTGAQur5Wps99S-1l8MKpb3yMdZctqsVmX_W00]--></g></svg>