<?xml version="1.0" encoding="us-ascii" standalone="no"?><svg xmlns="http://www.w3.org/2000/svg" xmlns:xlink="http://www.w3.org/1999/xlink" contentStyleType="text/css" height="644px" preserveAspectRatio="none" style="width:1234px;height:644px;background:#FFFFFF;" version="1.1" viewBox="0 0 1234 644" width="1234px" zoomAndPan="magnify"><defs/><g><!--class Employee--><g id="elem_Employee"><rect codeLine="22" fill="#F1F1F1" height="113.9531" id="Employee" rx="2.5" ry="2.5" style="stroke:#181818;stroke-width:0.5;" width="98" x="1129.5" y="7"/><ellipse cx="1144.5" cy="23" fill="#ADD1B2" rx="11" ry="11" style="stroke:#181818;stroke-width:1.0;"/><path d="M1147.4731,28.6431 Q1146.8921,28.9419 1146.2529,29.0913 Q1145.6138,29.2407 1144.9082,29.2407 Q1142.4014,29.2407 1141.0815,27.5889 Q1139.7617,25.937 1139.7617,22.8159 Q1139.7617,19.6865 1141.0815,18.0347 Q1142.4014,16.3828 1144.9082,16.3828 Q1145.6138,16.3828 1146.2612,16.5322 Q1146.9087,16.6816 1147.4731,16.9805 L1147.4731,19.7031 Q1146.8423,19.1221 1146.2488,18.8523 Q1145.6553,18.5825 1145.0244,18.5825 Q1143.6797,18.5825 1142.9949,19.6492 Q1142.3101,20.7158 1142.3101,22.8159 Q1142.3101,24.9077 1142.9949,25.9744 Q1143.6797,27.041 1145.0244,27.041 Q1145.6553,27.041 1146.2488,26.7712 Q1146.8423,26.5015 1147.4731,25.9204 Z " fill="#000000"/><text fill="#000000" font-family="sans-serif" font-size="14" lengthAdjust="spacing" textLength="66" x="1158.5" y="28.291">Employee</text><line style="stroke:#181818;stroke-width:0.5;" x1="1130.5" x2="1226.5" y1="39" y2="39"/><text fill="#000000" font-family="sans-serif" font-size="14" lengthAdjust="spacing" textLength="46" x="1135.5" y="56.5352">-name</text><text fill="#000000" font-family="sans-serif" font-size="14" lengthAdjust="spacing" textLength="45" x="1135.5" y="73.0234">-email</text><text fill="#000000" font-family="sans-serif" font-size="14" lengthAdjust="spacing" textLength="64" x="1135.5" y="89.5117">-position</text><text fill="#000000" font-family="sans-serif" font-size="14" lengthAdjust="spacing" textLength="52" x="1135.5" y="106">-phone</text><line style="stroke:#181818;stroke-width:0.5;" x1="1130.5" x2="1226.5" y1="112.9531" y2="112.9531"/></g><!--class Organization--><g id="elem_Organization"><rect codeLine="46" fill="#F1F1F1" height="80.9766" id="Organization" rx="2.5" ry="2.5" style="stroke:#181818;stroke-width:0.5;" width="265" x="323" y="306.95"/><ellipse cx="406.25" cy="322.95" fill="#ADD1B2" rx="11" ry="11" style="stroke:#181818;stroke-width:1.0;"/><path d="M409.2231,328.5931 Q408.6421,328.8919 408.0029,329.0413 Q407.3638,329.1907 406.6582,329.1907 Q404.1514,329.1907 402.8315,327.5389 Q401.5117,325.887 401.5117,322.7659 Q401.5117,319.6365 402.8315,317.9847 Q404.1514,316.3328 406.6582,316.3328 Q407.3638,316.3328 408.0112,316.4822 Q408.6587,316.6316 409.2231,316.9305 L409.2231,319.6531 Q408.5923,319.0721 407.9988,318.8023 Q407.4053,318.5325 406.7744,318.5325 Q405.4297,318.5325 404.7449,319.5992 Q404.0601,320.6658 404.0601,322.7659 Q404.0601,324.8577 404.7449,325.9244 Q405.4297,326.991 406.7744,326.991 Q407.4053,326.991 407.9988,326.7212 Q408.5923,326.4515 409.2231,325.8704 Z " fill="#000000"/><text fill="#000000" font-family="sans-serif" font-size="14" lengthAdjust="spacing" textLength="90" x="426.75" y="328.241">Organization</text><line style="stroke:#181818;stroke-width:0.5;" x1="324" x2="587" y1="338.95" y2="338.95"/><text fill="#000000" font-family="sans-serif" font-size="14" lengthAdjust="spacing" textLength="253" x="329" y="356.4852">-Max number of workers in the team</text><text fill="#000000" font-family="sans-serif" font-size="14" lengthAdjust="spacing" textLength="251" x="329" y="372.9734">-Skills needed to be part of the team</text><line style="stroke:#181818;stroke-width:0.5;" x1="324" x2="587" y1="379.9266" y2="379.9266"/></g><!--class CreateTeamRepository--><g id="elem_CreateTeamRepository"><rect codeLine="60" fill="#F1F1F1" height="48" id="CreateTeamRepository" rx="2.5" ry="2.5" style="stroke:#181818;stroke-width:0.5;" width="188" x="789.5" y="197.95"/><ellipse cx="804.5" cy="213.95" fill="#ADD1B2" rx="11" ry="11" style="stroke:#181818;stroke-width:1.0;"/><path d="M807.4731,219.5931 Q806.8921,219.8919 806.2529,220.0413 Q805.6138,220.1907 804.9082,220.1907 Q802.4014,220.1907 801.0815,218.5389 Q799.7617,216.887 799.7617,213.7659 Q799.7617,210.6365 801.0815,208.9847 Q802.4014,207.3328 804.9082,207.3328 Q805.6138,207.3328 806.2612,207.4822 Q806.9087,207.6316 807.4731,207.9305 L807.4731,210.6531 Q806.8423,210.0721 806.2488,209.8023 Q805.6553,209.5325 805.0244,209.5325 Q803.6797,209.5325 802.9949,210.5992 Q802.3101,211.6658 802.3101,213.7659 Q802.3101,215.8577 802.9949,216.9244 Q803.6797,217.991 805.0244,217.991 Q805.6553,217.991 806.2488,217.7212 Q806.8423,217.4515 807.4731,216.8704 Z " fill="#000000"/><text fill="#000000" font-family="sans-serif" font-size="14" lengthAdjust="spacing" textLength="156" x="818.5" y="219.241">CreateTeamRepository</text><line style="stroke:#181818;stroke-width:0.5;" x1="790.5" x2="976.5" y1="229.95" y2="229.95"/><line style="stroke:#181818;stroke-width:0.5;" x1="790.5" x2="976.5" y1="237.95" y2="237.95"/></g><!--class Repositories--><g id="elem_Repositories"><rect codeLine="67" fill="#F1F1F1" height="113.9531" id="Repositories" rx="2.5" ry="2.5" style="stroke:#181818;stroke-width:0.5;" width="218" x="793.5" y="7"/><ellipse cx="855.75" cy="23" fill="#ADD1B2" rx="11" ry="11" style="stroke:#181818;stroke-width:1.0;"/><path d="M858.7231,28.6431 Q858.1421,28.9419 857.5029,29.0913 Q856.8638,29.2407 856.1582,29.2407 Q853.6514,29.2407 852.3315,27.5889 Q851.0117,25.937 851.0117,22.8159 Q851.0117,19.6865 852.3315,18.0347 Q853.6514,16.3828 856.1582,16.3828 Q856.8638,16.3828 857.5112,16.5322 Q858.1587,16.6816 858.7231,16.9805 L858.7231,19.7031 Q858.0923,19.1221 857.4988,18.8523 Q856.9053,18.5825 856.2744,18.5825 Q854.9297,18.5825 854.2449,19.6492 Q853.5601,20.7158 853.5601,22.8159 Q853.5601,24.9077 854.2449,25.9744 Q854.9297,27.041 856.2744,27.041 Q856.9053,27.041 857.4988,26.7712 Q858.0923,26.5015 858.7231,25.9204 Z " fill="#000000"/><text fill="#000000" font-family="sans-serif" font-size="14" lengthAdjust="spacing" textLength="85" x="876.25" y="28.291">Repositories</text><line style="stroke:#181818;stroke-width:0.5;" x1="794.5" x2="1010.5" y1="39" y2="39"/><line style="stroke:#181818;stroke-width:0.5;" x1="794.5" x2="1010.5" y1="47" y2="47"/><text fill="#000000" font-family="sans-serif" font-size="14" lengthAdjust="spacing" textLength="103" x="799.5" y="64.5352">-Repositories()</text><text fill="#000000" font-family="sans-serif" font-size="14" lengthAdjust="spacing" textLength="197" x="799.5" y="81.0234">+getInstance() : Repositories</text><text fill="#000000" font-family="sans-serif" font-size="14" lengthAdjust="spacing" textLength="199" x="799.5" y="97.5117">+getCreateTeamRepository()</text><text fill="#000000" font-family="sans-serif" font-size="14" lengthAdjust="spacing" textLength="206" x="799.5" y="114">+getOrganizationRepository()</text></g><!--class CreateTeamController--><g id="elem_CreateTeamController"><rect codeLine="74" fill="#F1F1F1" height="64.4883" id="CreateTeamController" rx="2.5" ry="2.5" style="stroke:#181818;stroke-width:0.5;" width="511" x="171" y="31.73"/><ellipse cx="345.75" cy="47.73" fill="#ADD1B2" rx="11" ry="11" style="stroke:#181818;stroke-width:1.0;"/><path d="M348.7231,53.3731 Q348.1421,53.6719 347.5029,53.8213 Q346.8638,53.9707 346.1582,53.9707 Q343.6514,53.9707 342.3315,52.3189 Q341.0117,50.667 341.0117,47.5459 Q341.0117,44.4165 342.3315,42.7647 Q343.6514,41.1128 346.1582,41.1128 Q346.8638,41.1128 347.5112,41.2622 Q348.1587,41.4116 348.7231,41.7105 L348.7231,44.4331 Q348.0923,43.8521 347.4988,43.5823 Q346.9053,43.3125 346.2744,43.3125 Q344.9297,43.3125 344.2449,44.3792 Q343.5601,45.4458 343.5601,47.5459 Q343.5601,49.6377 344.2449,50.7044 Q344.9297,51.771 346.2744,51.771 Q346.9053,51.771 347.4988,51.5012 Q348.0923,51.2315 348.7231,50.6504 Z " fill="#000000"/><text fill="#000000" font-family="sans-serif" font-size="14" lengthAdjust="spacing" textLength="153" x="366.25" y="53.021">CreateTeamController</text><line style="stroke:#181818;stroke-width:0.5;" x1="172" x2="681" y1="63.73" y2="63.73"/><line style="stroke:#181818;stroke-width:0.5;" x1="172" x2="681" y1="71.73" y2="71.73"/><text fill="#000000" font-family="sans-serif" font-size="14" lengthAdjust="spacing" textLength="499" x="177" y="89.2652">+CreateTeamController(organizationRepository, CreateTeamRepository)</text></g><!--class CreateTeamUI--><g id="elem_CreateTeamUI"><rect codeLine="90" fill="#F1F1F1" height="48" id="CreateTeamUI" rx="2.5" ry="2.5" style="stroke:#181818;stroke-width:0.5;" width="129" x="7" y="39.98"/><ellipse cx="22" cy="55.98" fill="#ADD1B2" rx="11" ry="11" style="stroke:#181818;stroke-width:1.0;"/><path d="M24.9731,61.6231 Q24.3921,61.9219 23.7529,62.0713 Q23.1138,62.2207 22.4082,62.2207 Q19.9014,62.2207 18.5815,60.5689 Q17.2617,58.917 17.2617,55.7959 Q17.2617,52.6665 18.5815,51.0147 Q19.9014,49.3628 22.4082,49.3628 Q23.1138,49.3628 23.7612,49.5122 Q24.4087,49.6616 24.9731,49.9605 L24.9731,52.6831 Q24.3423,52.1021 23.7488,51.8323 Q23.1553,51.5625 22.5244,51.5625 Q21.1797,51.5625 20.4949,52.6292 Q19.8101,53.6958 19.8101,55.7959 Q19.8101,57.8877 20.4949,58.9544 Q21.1797,60.021 22.5244,60.021 Q23.1553,60.021 23.7488,59.7512 Q24.3423,59.4815 24.9731,58.9004 Z " fill="#000000"/><text fill="#000000" font-family="sans-serif" font-size="14" lengthAdjust="spacing" textLength="97" x="36" y="61.271">CreateTeamUI</text><line style="stroke:#181818;stroke-width:0.5;" x1="8" x2="135" y1="71.98" y2="71.98"/><line style="stroke:#181818;stroke-width:0.5;" x1="8" x2="135" y1="79.98" y2="79.98"/></g><!--class OrganizationRepository--><g id="elem_OrganizationRepository"><rect fill="#F1F1F1" height="48" id="OrganizationRepository" rx="2.5" ry="2.5" style="stroke:#181818;stroke-width:0.5;" width="195" x="542" y="197.95"/><ellipse cx="557" cy="213.95" fill="#ADD1B2" rx="11" ry="11" style="stroke:#181818;stroke-width:1.0;"/><path d="M559.9731,219.5931 Q559.3921,219.8919 558.7529,220.0413 Q558.1138,220.1907 557.4082,220.1907 Q554.9014,220.1907 553.5815,218.5389 Q552.2617,216.887 552.2617,213.7659 Q552.2617,210.6365 553.5815,208.9847 Q554.9014,207.3328 557.4082,207.3328 Q558.1138,207.3328 558.7612,207.4822 Q559.4087,207.6316 559.9731,207.9305 L559.9731,210.6531 Q559.3423,210.0721 558.7488,209.8023 Q558.1553,209.5325 557.5244,209.5325 Q556.1797,209.5325 555.4949,210.5992 Q554.8101,211.6658 554.8101,213.7659 Q554.8101,215.8577 555.4949,216.9244 Q556.1797,217.991 557.5244,217.991 Q558.1553,217.991 558.7488,217.7212 Q559.3423,217.4515 559.9731,216.8704 Z " fill="#000000"/><text fill="#000000" font-family="sans-serif" font-size="14" lengthAdjust="spacing" textLength="163" x="571" y="219.241">OrganizationRepository</text><line style="stroke:#181818;stroke-width:0.5;" x1="543" x2="736" y1="229.95" y2="229.95"/><line style="stroke:#181818;stroke-width:0.5;" x1="543" x2="736" y1="237.95" y2="237.95"/></g><!--class Team--><g id="elem_Team"><rect fill="#F1F1F1" height="48" id="Team" rx="2.5" ry="2.5" style="stroke:#181818;stroke-width:0.5;" width="70" x="420.5" y="464.93"/><ellipse cx="435.5" cy="480.93" fill="#ADD1B2" rx="11" ry="11" style="stroke:#181818;stroke-width:1.0;"/><path d="M438.4731,486.5731 Q437.8921,486.8719 437.2529,487.0213 Q436.6138,487.1707 435.9082,487.1707 Q433.4014,487.1707 432.0815,485.5189 Q430.7617,483.867 430.7617,480.7459 Q430.7617,477.6165 432.0815,475.9647 Q433.4014,474.3128 435.9082,474.3128 Q436.6138,474.3128 437.2612,474.4622 Q437.9087,474.6116 438.4731,474.9105 L438.4731,477.6331 Q437.8423,477.0521 437.2488,476.7823 Q436.6553,476.5125 436.0244,476.5125 Q434.6797,476.5125 433.9949,477.5792 Q433.3101,478.6458 433.3101,480.7459 Q433.3101,482.8377 433.9949,483.9044 Q434.6797,484.971 436.0244,484.971 Q436.6553,484.971 437.2488,484.7012 Q437.8423,484.4315 438.4731,483.8504 Z " fill="#000000"/><text fill="#000000" font-family="sans-serif" font-size="14" lengthAdjust="spacing" textLength="38" x="449.5" y="486.221">Team</text><line style="stroke:#181818;stroke-width:0.5;" x1="421.5" x2="489.5" y1="496.93" y2="496.93"/><line style="stroke:#181818;stroke-width:0.5;" x1="421.5" x2="489.5" y1="504.93" y2="504.93"/></g><!--class HRM--><g id="elem_HRM"><rect fill="#F1F1F1" height="48" id="HRM" rx="2.5" ry="2.5" style="stroke:#181818;stroke-width:0.5;" width="63" x="424" y="589.93"/><ellipse cx="439" cy="605.93" fill="#ADD1B2" rx="11" ry="11" style="stroke:#181818;stroke-width:1.0;"/><path d="M441.9731,611.5731 Q441.3921,611.8719 440.7529,612.0213 Q440.1138,612.1707 439.4082,612.1707 Q436.9014,612.1707 435.5815,610.5189 Q434.2617,608.867 434.2617,605.7459 Q434.2617,602.6165 435.5815,600.9647 Q436.9014,599.3128 439.4082,599.3128 Q440.1138,599.3128 440.7612,599.4622 Q441.4087,599.6116 441.9731,599.9105 L441.9731,602.6331 Q441.3423,602.0521 440.7488,601.7823 Q440.1553,601.5125 439.5244,601.5125 Q438.1797,601.5125 437.4949,602.5792 Q436.8101,603.6458 436.8101,605.7459 Q436.8101,607.8377 437.4949,608.9044 Q438.1797,609.971 439.5244,609.971 Q440.1553,609.971 440.7488,609.7012 Q441.3423,609.4315 441.9731,608.8504 Z " fill="#000000"/><text fill="#000000" font-family="sans-serif" font-size="14" lengthAdjust="spacing" textLength="31" x="453" y="611.221">HRM</text><line style="stroke:#181818;stroke-width:0.5;" x1="425" x2="486" y1="621.93" y2="621.93"/><line style="stroke:#181818;stroke-width:0.5;" x1="425" x2="486" y1="629.93" y2="629.93"/></g><!--link Repositories to Repositories--><g id="link_Repositories_Repositories"><path codeLine="93" d="M1011.76,46.99 C1032.14,49.09 1046.5,54.75 1046.5,63.98 C1046.5,73.21 1038.1087,78.2579 1017.7287,80.3479 " fill="none" id="Repositories-to-Repositories" style="stroke:#181818;stroke-width:1.0;"/><polygon fill="#181818" points="1011.76,80.96,1021.1211,84.021,1016.7339,80.4499,1020.305,76.0627,1011.76,80.96" style="stroke:#181818;stroke-width:1.0;"/><text fill="#000000" font-family="sans-serif" font-size="13" lengthAdjust="spacing" textLength="53" x="1052.5" y="69.0484">instance</text></g><!--link CreateTeamUI to CreateTeamController--><g id="link_CreateTeamUI_CreateTeamController"><path codeLine="96" d="M136.2,63.98 C146.9,63.98 152.53,63.98 164.79,63.98 " fill="none" id="CreateTeamUI-to-CreateTeamController" style="stroke:#181818;stroke-width:1.0;stroke-dasharray:7.0,7.0;"/><polygon fill="#181818" points="170.79,63.98,161.79,59.98,165.79,63.98,161.79,67.98,170.79,63.98" style="stroke:#181818;stroke-width:1.0;"/></g><!--link CreateTeamController to Repositories--><g id="link_CreateTeamController_Repositories"><path codeLine="98" d="M682.27,63.98 C721.26,63.98 753.61,63.98 787.11,63.98 " fill="none" id="CreateTeamController-to-Repositories" style="stroke:#181818;stroke-width:1.0;stroke-dasharray:7.0,7.0;"/><polygon fill="#181818" points="793.11,63.98,784.11,59.98,788.11,63.98,784.11,67.98,793.11,63.98" style="stroke:#181818;stroke-width:1.0;"/><text fill="#000000" font-family="sans-serif" font-size="13" lengthAdjust="spacing" textLength="75" x="700.25" y="57.5484">repositories</text></g><!--link Repositories to CreateTeamRepository--><g id="link_Repositories_CreateTeamRepository"><path codeLine="100" d="M895.64,121.29 C892.43,147.64 889.5049,171.624 887.0549,191.754 " fill="none" id="Repositories-to-CreateTeamRepository" style="stroke:#181818;stroke-width:1.0;"/><polygon fill="#181818" points="886.33,197.71,891.3881,189.2592,886.9341,192.7466,883.4467,188.2927,886.33,197.71" style="stroke:#181818;stroke-width:1.0;"/><text fill="#000000" font-family="sans-serif" font-size="13" lengthAdjust="spacing" textLength="8" x="878.0302" y="187.1848">1</text></g><!--link CreateTeamController to OrganizationRepository--><g id="link_CreateTeamController_OrganizationRepository"><path codeLine="103" d="M444.99,96.71 C462.62,126.97 486.5,167.95 486.5,167.95 C486.5,167.95 525.2906,181.386 566.2806,195.586 " fill="none" id="CreateTeamController-to-OrganizationRepository" style="stroke:#181818;stroke-width:1.0;stroke-dasharray:7.0,7.0;"/><polygon fill="#181818" points="571.95,197.55,564.7552,190.8243,567.2255,195.9133,562.1365,198.3836,571.95,197.55" style="stroke:#181818;stroke-width:1.0;"/><text fill="#000000" font-family="sans-serif" font-size="13" lengthAdjust="spacing" textLength="146" x="487.5" y="164.5184">organizationRepository</text></g><!--link CreateTeamController to CreateTeamRepository--><g id="link_CreateTeamController_CreateTeamRepository"><path codeLine="104" d="M504.54,96.63 C564.99,121.14 638.5,150.95 638.5,150.95 C638.5,150.95 671.5,167.95 671.5,167.95 C671.5,167.95 727.0592,181.8445 783.7692,196.0245 " fill="none" id="CreateTeamController-to-CreateTeamRepository" style="stroke:#181818;stroke-width:1.0;stroke-dasharray:7.0,7.0;"/><polygon fill="#181818" points="789.59,197.48,781.8291,191.4163,784.7393,196.2671,779.8885,199.1773,789.59,197.48" style="stroke:#181818;stroke-width:1.0;"/><text fill="#000000" font-family="sans-serif" font-size="13" lengthAdjust="spacing" textLength="141" x="672.5" y="164.5184">CreateTeamRepository</text></g><!--link Repositories to OrganizationRepository--><g id="link_Repositories_OrganizationRepository"><path codeLine="106" d="M858.75,121.29 C840.08,145.33 822.5,167.95 822.5,167.95 C822.5,167.95 775.273,181.6302 726.333,195.8102 " fill="none" id="Repositories-to-OrganizationRepository" style="stroke:#181818;stroke-width:1.0;"/><polygon fill="#181818" points="720.57,197.48,730.3276,198.8173,725.3725,196.0885,728.1013,191.1334,720.57,197.48" style="stroke:#181818;stroke-width:1.0;"/><text fill="#000000" font-family="sans-serif" font-size="13" lengthAdjust="spacing" textLength="8" x="731.3558" y="187.2935">1</text></g><!--link OrganizationRepository to Organization--><g id="link_OrganizationRepository_Organization"><path codeLine="108" d="M604.89,246.18 C579.59,263.16 549.6414,283.2556 519.9114,303.2156 " fill="none" id="OrganizationRepository-to-Organization" style="stroke:#181818;stroke-width:1.0;"/><polygon fill="#181818" points="514.93,306.56,524.6318,304.8643,519.0812,303.773,520.1726,298.2224,514.93,306.56" style="stroke:#181818;stroke-width:1.0;"/><text fill="#000000" font-family="sans-serif" font-size="13" lengthAdjust="spacing" textLength="6" x="518.2762" y="296.1414">*</text></g><!--link CreateTeamController to Organization--><g id="link_CreateTeamController_Organization"><path codeLine="111" d="M429.46,96.5 C434.33,148.35 443.5,245.95 443.5,245.95 C443.5,245.95 446.6874,272.6825 450.0474,300.7725 " fill="none" id="CreateTeamController-to-Organization" style="stroke:#181818;stroke-width:1.0;stroke-dasharray:7.0,7.0;"/><polygon fill="#181818" points="450.76,306.73,453.6628,297.3186,450.1662,301.7654,445.7194,298.2688,450.76,306.73" style="stroke:#181818;stroke-width:1.0;"/><text fill="#000000" font-family="sans-serif" font-size="13" lengthAdjust="spacing" textLength="79" x="444.5" y="227.0184">organization</text><text fill="#000000" font-family="sans-serif" font-size="13" lengthAdjust="spacing" textLength="8" x="441.3124" y="296.3396">1</text></g><!--link Organization to Team--><g id="link_Organization_Team"><path codeLine="116" d="M455.5,388.41 C455.5,413.05 455.5,437.78 455.5,458.53 " fill="none" id="Organization-to-Team" style="stroke:#181818;stroke-width:1.0;"/><polygon fill="#181818" points="455.5,464.53,459.5,455.53,455.5,459.53,451.5,455.53,455.5,464.53" style="stroke:#181818;stroke-width:1.0;"/><text fill="#000000" font-family="sans-serif" font-size="13" lengthAdjust="spacing" textLength="38" x="456.5" y="431.4984">teams</text><text fill="#000000" font-family="sans-serif" font-size="13" lengthAdjust="spacing" textLength="8" x="446.8875" y="408.4244">1</text><text fill="#000000" font-family="sans-serif" font-size="13" lengthAdjust="spacing" textLength="6" x="448.7688" y="454.3606">*</text></g><!--link Team to HRM--><g id="link_Team_HRM"><path codeLine="117" d="M455.5,513.35 C455.5,535.24 455.5,561.73 455.5,583.59 " fill="none" id="Team-to-HRM" style="stroke:#181818;stroke-width:1.0;"/><polygon fill="#181818" points="455.5,589.59,459.5,580.59,455.5,584.59,451.5,580.59,455.5,589.59" style="stroke:#181818;stroke-width:1.0;"/><text fill="#000000" font-family="sans-serif" font-size="13" lengthAdjust="spacing" textLength="60" x="456.5" y="556.4984">createdBy</text></g><!--SRC=[VLPDR-CW4BtpAz1Ud6xTQlUQGwKshTGSkYirxMqln9uuA1WimEswrVxt7V178C7j8JNC1uytRu3C7BXic6OrhPLKnLwh6gZLBP2ZfM75WLMmiPq0gg6mJ5OYT31xLgftBYkwOyA45i4bsAu1sYZHkG794aQbhI91L26OCRVMQhvjBQmB9JVy0-WFGZ81EqkjeffNUqjBxk1m9T7YW-XjqmXUC3Ut0MESAVia6SM_Isei6WfQWLrB_9O5B2v66qwkMgr1sY7EcVvDULyDwFE46EGC3pNZOl3ltH_gHgWEW7uIvtb59QjX-0JdFNmtod2FVnZk5L9qNFM5cGCTLhkY6oG4ETQm0yHPmCby2QRGlF7fOWkNEwLh9kvdFImKUucyfLpMqa85cfQjPk7ylMgtA8X26KkoaH67U34Xp4DG-H-P098drqRVSRdShu2_6fY5ygx325naXODAwIwgqajWEECjuYV4EqOi0e-mcBzrnIJ_y6YcWZwnlrIszHQ9KJlwhlG1j46cgTrZ0m6h1x_DWGjXg0GeeNJAtM8pC6rTrEGw8cLbwGbq6xmO9z-Ou2L2FBLSKYQxKMYFpFGgzEgQF4Be2wV17DFPNnvtJjzXk-4MvxpkybwPkHEbPUAsB3KAFgSrazZzUihP5-AhGaU22qgQh3GzBNHOtVke8ZqVs7JZhk-wQDFEuzAmjv2ggOgh7ZRI_Go-xNgD7CKJSXMv79izTBcRk8-9dnQSSd0masp2IJmnfip70uak8wUZIse3OOeq_aMIWfMILYiXKBsVGuQKSQ6IEVCacNwXJ2eBm-cC2ayb7UlOZYSdvOQghMLu7PIzSOVNaEyEvqFDUExsSSMvDdeJfj60lGvls6a-XG61zmEEi7yOoK2MrE4ROMwLjUWLuJpk9y29wHGUWDmqWdLublGc1t04WvUPEmQFAvmo_hhknHQfukecLiaIEwVN0SdERpBddfWDWaYqtlLDcd-IrC7r6HOTol0C-BUVtzAqaIoT7nS8JriowpNJY4kQLkDyecJBBsTGn_iRDfY6GiWCH1_sFGvBLtB87pmh45WRF3BcTtMAwuIOB-XFFOvcdQCNZt-8k9sDmAERTXcTsM7EW1iNDVBpLNIqjIW8ypbd_6U87pZBu_CJJawF0rHVb60CdXvaIxpbtASX_m40]--></g></svg>