<?xml version="1.0" encoding="us-ascii" standalone="no"?><svg xmlns="http://www.w3.org/2000/svg" xmlns:xlink="http://www.w3.org/1999/xlink" contentStyleType="text/css" height="737px" preserveAspectRatio="none" style="width:983px;height:737px;background:#FFFFFF;" version="1.1" viewBox="0 0 983 737" width="983px" zoomAndPan="magnify"><defs/><g><rect fill="#FFFFFF" height="547.0781" style="stroke:#181818;stroke-width:1.0;" width="10" x="77.5" y="91.4883"/><rect fill="#FFFFFF" height="291.2832" style="stroke:#181818;stroke-width:1.0;" width="10" x="443.5" y="112.7988"/><rect fill="#FFFFFF" height="205.1738" style="stroke:#181818;stroke-width:1.0;" width="10" x="443.5" y="433.3926"/><rect fill="#FFFFFF" height="146.5527" style="stroke:#181818;stroke-width:1.0;" width="10" x="616.5" y="228.2188"/><rect fill="#FFFFFF" height="87.9316" style="stroke:#181818;stroke-width:1.0;" width="10" x="616.5" y="521.3242"/><rect fill="#FFFFFF" height="29.3105" style="stroke:#181818;stroke-width:1.0;" width="10" x="771" y="257.5293"/><rect fill="#FFFFFF" height="29.3105" style="stroke:#181818;stroke-width:1.0;" width="10" x="902.5" y="316.1504"/><rect fill="#FFFFFF" height="29.3105" style="stroke:#181818;stroke-width:1.0;" width="10" x="902.5" y="550.6348"/><line style="stroke:#181818;stroke-width:0.5;stroke-dasharray:5.0,5.0;" x1="82" x2="82" y1="81.4883" y2="656.5664"/><line style="stroke:#181818;stroke-width:0.5;stroke-dasharray:5.0,5.0;" x1="448" x2="448" y1="81.4883" y2="656.5664"/><line style="stroke:#181818;stroke-width:0.5;stroke-dasharray:5.0,5.0;" x1="621.5" x2="621.5" y1="196.1641" y2="656.5664"/><line style="stroke:#181818;stroke-width:0.5;stroke-dasharray:5.0,5.0;" x1="775.5" x2="775.5" y1="81.4883" y2="656.5664"/><line style="stroke:#181818;stroke-width:0.5;stroke-dasharray:5.0,5.0;" x1="907.5" x2="907.5" y1="81.4883" y2="656.5664"/><text fill="#000000" font-family="sans-serif" font-size="14" lengthAdjust="spacing" textLength="149" x="5" y="78.5352">Green Space Manager</text><ellipse cx="82.5" cy="13.5" fill="#E3E3E3" rx="8" ry="8" style="stroke:#181818;stroke-width:0.5;"/><path d="M82.5,21.5 L82.5,48.5 M69.5,29.5 L95.5,29.5 M82.5,48.5 L69.5,63.5 M82.5,48.5 L95.5,63.5 " fill="none" style="stroke:#181818;stroke-width:0.5;"/><text fill="#000000" font-family="sans-serif" font-size="14" lengthAdjust="spacing" textLength="149" x="5" y="669.1016">Green Space Manager</text><ellipse cx="82.5" cy="680.5547" fill="#E3E3E3" rx="8" ry="8" style="stroke:#181818;stroke-width:0.5;"/><path d="M82.5,688.5547 L82.5,715.5547 M69.5,696.5547 L95.5,696.5547 M82.5,715.5547 L69.5,730.5547 M82.5,715.5547 L95.5,730.5547 " fill="none" style="stroke:#181818;stroke-width:0.5;"/><rect fill="#E3E3E3" height="30.4883" rx="2.5" ry="2.5" style="stroke:#181818;stroke-width:0.5;" width="85" x="406" y="50"/><text fill="#000000" font-family="sans-serif" font-size="14" lengthAdjust="spacing" textLength="71" x="413" y="70.5352">:AgendaUI</text><rect fill="#E3E3E3" height="30.4883" rx="2.5" ry="2.5" style="stroke:#181818;stroke-width:0.5;" width="85" x="406" y="655.5664"/><text fill="#000000" font-family="sans-serif" font-size="14" lengthAdjust="spacing" textLength="71" x="413" y="676.1016">:AgendaUI</text><rect fill="#E3E3E3" height="30.4883" rx="2.5" ry="2.5" style="stroke:#181818;stroke-width:0.5;" width="186" x="528.5" y="655.5664"/><text fill="#000000" font-family="sans-serif" font-size="14" lengthAdjust="spacing" textLength="172" x="535.5" y="676.1016">:CreateAgendaController</text><rect fill="#E3E3E3" height="30.4883" rx="2.5" ry="2.5" style="stroke:#181818;stroke-width:0.5;" width="103" x="724.5" y="50"/><text fill="#000000" font-family="sans-serif" font-size="14" lengthAdjust="spacing" textLength="89" x="731.5" y="70.5352">:Repositories</text><rect fill="#E3E3E3" height="30.4883" rx="2.5" ry="2.5" style="stroke:#181818;stroke-width:0.5;" width="103" x="724.5" y="655.5664"/><text fill="#000000" font-family="sans-serif" font-size="14" lengthAdjust="spacing" textLength="89" x="731.5" y="676.1016">:Repositories</text><rect fill="#E3E3E3" height="30.4883" rx="2.5" ry="2.5" style="stroke:#181818;stroke-width:0.5;" width="140" x="837.5" y="50"/><text fill="#000000" font-family="sans-serif" font-size="14" lengthAdjust="spacing" textLength="126" x="844.5" y="70.5352">AgendaRepository</text><rect fill="#E3E3E3" height="30.4883" rx="2.5" ry="2.5" style="stroke:#181818;stroke-width:0.5;" width="140" x="837.5" y="655.5664"/><text fill="#000000" font-family="sans-serif" font-size="14" lengthAdjust="spacing" textLength="126" x="844.5" y="676.1016">AgendaRepository</text><rect fill="#FFFFFF" height="547.0781" style="stroke:#181818;stroke-width:1.0;" width="10" x="77.5" y="91.4883"/><rect fill="#FFFFFF" height="291.2832" style="stroke:#181818;stroke-width:1.0;" width="10" x="443.5" y="112.7988"/><rect fill="#FFFFFF" height="205.1738" style="stroke:#181818;stroke-width:1.0;" width="10" x="443.5" y="433.3926"/><rect fill="#FFFFFF" height="146.5527" style="stroke:#181818;stroke-width:1.0;" width="10" x="616.5" y="228.2188"/><rect fill="#FFFFFF" height="87.9316" style="stroke:#181818;stroke-width:1.0;" width="10" x="616.5" y="521.3242"/><rect fill="#FFFFFF" height="29.3105" style="stroke:#181818;stroke-width:1.0;" width="10" x="771" y="257.5293"/><rect fill="#FFFFFF" height="29.3105" style="stroke:#181818;stroke-width:1.0;" width="10" x="902.5" y="316.1504"/><rect fill="#FFFFFF" height="29.3105" style="stroke:#181818;stroke-width:1.0;" width="10" x="902.5" y="550.6348"/><polygon fill="#181818" points="431.5,108.7988,441.5,112.7988,431.5,116.7988,435.5,112.7988" style="stroke:#181818;stroke-width:1.0;"/><line style="stroke:#181818;stroke-width:1.0;" x1="87.5" x2="437.5" y1="112.7988" y2="112.7988"/><text fill="#000000" font-family="sans-serif" font-size="13" font-weight="bold" lengthAdjust="spacing" textLength="9" x="94.5" y="108.0566">1</text><text fill="#000000" font-family="sans-serif" font-size="13" lengthAdjust="spacing" textLength="100" x="107.5" y="108.0566">asks for agenda</text><polygon fill="#181818" points="98.5,153.4199,88.5,157.4199,98.5,161.4199,94.5,157.4199" style="stroke:#181818;stroke-width:1.0;"/><line style="stroke:#181818;stroke-width:1.0;stroke-dasharray:2.0,2.0;" x1="92.5" x2="442.5" y1="157.4199" y2="157.4199"/><text fill="#000000" font-family="sans-serif" font-size="13" font-weight="bold" lengthAdjust="spacing" textLength="9" x="104.5" y="145.0225">2</text><text fill="#000000" font-family="sans-serif" font-size="13" lengthAdjust="spacing" textLength="295" x="117.5" y="137.3672">requests data (reference, description,  informal</text><text fill="#000000" font-family="sans-serif" font-size="13" lengthAdjust="spacing" textLength="311" x="121.5" y="152.6777">description, technical description, duration, cost)</text><polygon fill="#181818" points="516.5,182.7305,526.5,186.7305,516.5,190.7305,520.5,186.7305" style="stroke:#181818;stroke-width:1.0;"/><line style="stroke:#181818;stroke-width:1.0;" x1="453.5" x2="522.5" y1="186.7305" y2="186.7305"/><text fill="#000000" font-family="sans-serif" font-size="13" font-weight="bold" lengthAdjust="spacing" textLength="9" x="460.5" y="181.9883">3</text><text fill="#000000" font-family="sans-serif" font-size="13" lengthAdjust="spacing" textLength="38" x="473.5" y="181.9883">create</text><rect fill="#E3E3E3" height="30.4883" rx="2.5" ry="2.5" style="stroke:#181818;stroke-width:0.5;" width="186" x="528.5" y="165.4199"/><text fill="#000000" font-family="sans-serif" font-size="14" lengthAdjust="spacing" textLength="172" x="535.5" y="185.9551">:CreateAgendaController</text><polygon fill="#181818" points="604.5,224.2188,614.5,228.2188,604.5,232.2188,608.5,228.2188" style="stroke:#181818;stroke-width:1.0;"/><line style="stroke:#181818;stroke-width:1.0;" x1="453.5" x2="610.5" y1="228.2188" y2="228.2188"/><text fill="#000000" font-family="sans-serif" font-size="13" font-weight="bold" lengthAdjust="spacing" textLength="9" x="460.5" y="223.4766">4</text><text fill="#000000" font-family="sans-serif" font-size="13" lengthAdjust="spacing" textLength="67" x="473.5" y="223.4766">getAgenda</text><polygon fill="#181818" points="759,253.5293,769,257.5293,759,261.5293,763,257.5293" style="stroke:#181818;stroke-width:1.0;"/><line style="stroke:#181818;stroke-width:1.0;" x1="626.5" x2="765" y1="257.5293" y2="257.5293"/><text fill="#000000" font-family="sans-serif" font-size="13" font-weight="bold" lengthAdjust="spacing" textLength="9" x="633.5" y="252.7871">5</text><text fill="#000000" font-family="sans-serif" font-size="13" lengthAdjust="spacing" textLength="81" x="646.5" y="252.7871">getInstance()</text><polygon fill="#181818" points="637.5,282.8398,627.5,286.8398,637.5,290.8398,633.5,286.8398" style="stroke:#181818;stroke-width:1.0;"/><line style="stroke:#181818;stroke-width:1.0;stroke-dasharray:2.0,2.0;" x1="631.5" x2="775" y1="286.8398" y2="286.8398"/><text fill="#000000" font-family="sans-serif" font-size="13" font-weight="bold" lengthAdjust="spacing" textLength="9" x="643.5" y="282.0977">6</text><text fill="#000000" font-family="sans-serif" font-size="13" lengthAdjust="spacing" textLength="75" x="656.5" y="282.0977">repositories</text><polygon fill="#181818" points="890.5,312.1504,900.5,316.1504,890.5,320.1504,894.5,316.1504" style="stroke:#181818;stroke-width:1.0;"/><line style="stroke:#181818;stroke-width:1.0;" x1="626.5" x2="896.5" y1="316.1504" y2="316.1504"/><text fill="#000000" font-family="sans-serif" font-size="13" font-weight="bold" lengthAdjust="spacing" textLength="9" x="633.5" y="311.4082">7</text><text fill="#000000" font-family="sans-serif" font-size="13" lengthAdjust="spacing" textLength="142" x="646.5" y="311.4082">getAgendaRepository()</text><polygon fill="#181818" points="637.5,341.4609,627.5,345.4609,637.5,349.4609,633.5,345.4609" style="stroke:#181818;stroke-width:1.0;"/><line style="stroke:#181818;stroke-width:1.0;stroke-dasharray:2.0,2.0;" x1="631.5" x2="906.5" y1="345.4609" y2="345.4609"/><text fill="#000000" font-family="sans-serif" font-size="13" font-weight="bold" lengthAdjust="spacing" textLength="9" x="643.5" y="340.7188">8</text><text fill="#000000" font-family="sans-serif" font-size="13" lengthAdjust="spacing" textLength="112" x="656.5" y="340.7188">agendaRepository</text><polygon fill="#181818" points="464.5,370.7715,454.5,374.7715,464.5,378.7715,460.5,374.7715" style="stroke:#181818;stroke-width:1.0;"/><line style="stroke:#181818;stroke-width:1.0;stroke-dasharray:2.0,2.0;" x1="458.5" x2="620.5" y1="374.7715" y2="374.7715"/><text fill="#000000" font-family="sans-serif" font-size="13" font-weight="bold" lengthAdjust="spacing" textLength="9" x="470.5" y="370.0293">9</text><text fill="#000000" font-family="sans-serif" font-size="13" lengthAdjust="spacing" textLength="47" x="483.5" y="370.0293">Agenda</text><polygon fill="#181818" points="98.5,400.082,88.5,404.082,98.5,408.082,94.5,404.082" style="stroke:#181818;stroke-width:1.0;"/><line style="stroke:#181818;stroke-width:1.0;stroke-dasharray:2.0,2.0;" x1="92.5" x2="447.5" y1="404.082" y2="404.082"/><text fill="#000000" font-family="sans-serif" font-size="13" font-weight="bold" lengthAdjust="spacing" textLength="18" x="104.5" y="399.3398">10</text><text fill="#000000" font-family="sans-serif" font-size="13" lengthAdjust="spacing" textLength="89" x="126.5" y="399.3398">shows agenda</text><polygon fill="#181818" points="431.5,429.3926,441.5,433.3926,431.5,437.3926,435.5,433.3926" style="stroke:#181818;stroke-width:1.0;"/><line style="stroke:#181818;stroke-width:1.0;" x1="87.5" x2="437.5" y1="433.3926" y2="433.3926"/><text fill="#000000" font-family="sans-serif" font-size="13" font-weight="bold" lengthAdjust="spacing" textLength="18" x="94.5" y="428.6504">11</text><text fill="#000000" font-family="sans-serif" font-size="13" lengthAdjust="spacing" textLength="164" x="116.5" y="428.6504">asks to postpone an entry</text><polygon fill="#181818" points="98.5,458.7031,88.5,462.7031,98.5,466.7031,94.5,462.7031" style="stroke:#181818;stroke-width:1.0;"/><line style="stroke:#181818;stroke-width:1.0;stroke-dasharray:2.0,2.0;" x1="92.5" x2="442.5" y1="462.7031" y2="462.7031"/><text fill="#000000" font-family="sans-serif" font-size="13" font-weight="bold" lengthAdjust="spacing" textLength="18" x="104.5" y="457.9609">12</text><text fill="#000000" font-family="sans-serif" font-size="13" lengthAdjust="spacing" textLength="162" x="126.5" y="457.9609">asks what the new date is</text><polygon fill="#181818" points="431.5,488.0137,441.5,492.0137,431.5,496.0137,435.5,492.0137" style="stroke:#181818;stroke-width:1.0;"/><line style="stroke:#181818;stroke-width:1.0;" x1="87.5" x2="437.5" y1="492.0137" y2="492.0137"/><text fill="#000000" font-family="sans-serif" font-size="13" font-weight="bold" lengthAdjust="spacing" textLength="18" x="94.5" y="487.2715">13</text><text fill="#000000" font-family="sans-serif" font-size="13" lengthAdjust="spacing" textLength="100" x="116.5" y="487.2715">choose the date</text><polygon fill="#181818" points="604.5,517.3242,614.5,521.3242,604.5,525.3242,608.5,521.3242" style="stroke:#181818;stroke-width:1.0;"/><line style="stroke:#181818;stroke-width:1.0;stroke-dasharray:2.0,2.0;" x1="453.5" x2="610.5" y1="521.3242" y2="521.3242"/><text fill="#000000" font-family="sans-serif" font-size="13" font-weight="bold" lengthAdjust="spacing" textLength="18" x="460.5" y="516.582">14</text><text fill="#000000" font-family="sans-serif" font-size="13" lengthAdjust="spacing" textLength="54" x="482.5" y="516.582">newDate</text><polygon fill="#181818" points="890.5,546.6348,900.5,550.6348,890.5,554.6348,894.5,550.6348" style="stroke:#181818;stroke-width:1.0;"/><line style="stroke:#181818;stroke-width:1.0;stroke-dasharray:2.0,2.0;" x1="626.5" x2="896.5" y1="550.6348" y2="550.6348"/><text fill="#000000" font-family="sans-serif" font-size="13" font-weight="bold" lengthAdjust="spacing" textLength="18" x="633.5" y="545.8926">15</text><text fill="#000000" font-family="sans-serif" font-size="13" lengthAdjust="spacing" textLength="123" x="655.5" y="545.8926">getDateInformation</text><polygon fill="#181818" points="637.5,575.9453,627.5,579.9453,637.5,583.9453,633.5,579.9453" style="stroke:#181818;stroke-width:1.0;"/><line style="stroke:#181818;stroke-width:1.0;stroke-dasharray:2.0,2.0;" x1="631.5" x2="906.5" y1="579.9453" y2="579.9453"/><text fill="#000000" font-family="sans-serif" font-size="13" font-weight="bold" lengthAdjust="spacing" textLength="18" x="643.5" y="575.2031">16</text><text fill="#000000" font-family="sans-serif" font-size="13" lengthAdjust="spacing" textLength="110" x="665.5" y="575.2031">dateConfirmation</text><polygon fill="#181818" points="464.5,605.2559,454.5,609.2559,464.5,613.2559,460.5,609.2559" style="stroke:#181818;stroke-width:1.0;"/><line style="stroke:#181818;stroke-width:1.0;stroke-dasharray:2.0,2.0;" x1="458.5" x2="620.5" y1="609.2559" y2="609.2559"/><text fill="#000000" font-family="sans-serif" font-size="13" font-weight="bold" lengthAdjust="spacing" textLength="18" x="470.5" y="604.5137">17</text><text fill="#000000" font-family="sans-serif" font-size="13" lengthAdjust="spacing" textLength="110" x="492.5" y="604.5137">dateConfirmation</text><polygon fill="#181818" points="93.5,634.5664,83.5,638.5664,93.5,642.5664,89.5,638.5664" style="stroke:#181818;stroke-width:1.0;"/><line style="stroke:#181818;stroke-width:1.0;stroke-dasharray:2.0,2.0;" x1="87.5" x2="447.5" y1="638.5664" y2="638.5664"/><text fill="#000000" font-family="sans-serif" font-size="13" font-weight="bold" lengthAdjust="spacing" textLength="18" x="99.5" y="633.8242">18</text><text fill="#000000" font-family="sans-serif" font-size="13" lengthAdjust="spacing" textLength="310" x="121.5" y="633.8242">confirm availability and display success message</text><!--SRC=[dLHDR-8m4BtxLuouz4Fb3t2eXAYqGjfUolQsby4P4el4pjfEMVxzJkma926XQ7r0n7xpvisdEofTeiK22gEDpAmf2BojIBZkfKHvn9Hs_fmJM98UTPht0Ix3n9oKJk60kICXiF96LyMUh10FcKe83iRulVahK7fZOV734cdOCJF1Esfcjmj01-ktTy6SNabLelQmMArJqWb-RiFpvtRqkh64dY9cOxIt9iyRgislZvyZz0ULnYaMeCW5J7Tntgaw9bOjXZQH-eABAiEbg8DHN-m_o1RG7Fw0vIjhXHM3ZuvZju2DIGlgJ3caxd9uc639F3NTYjF-foBd7IJe4Huj7SYIblG22JbfLUcLqIy0IhEt0dFuhOSldcIcbUINmNLIMOp_f77-QKOAFCYGw9ZK6KmG_1eWpyyiEPg8E-0CJiatMPs3TnaB6cPXzGcSp3rHtkXggnqtiQJ7fviydSl9Fe5lpfJtPHDnNT1BBzwaIkZ_PRI9YAdjf_b2TMyErgCEdZkDhqkaE79uRxIjmtj2REVjHW_rcAyxQ31hBZCdrqxiX7axibU3xWrmaBuqcW0r4E-Z6Etaj0zy1ljJXXvyHg3fL0ywWNBYsfVCZ74KW4atOGrRCqvCy5O_VJCyRVBw_L7RRUCMgHV3nCeQTyAeuanJo-9rV51N91FrdQxaFCLKCQThoQcA381Vg7BSgrpvCvScWKIvCiSpk4fASWuA_k6AHo-ZMlSrywB_1m00]--></g></svg>