<?xml version="1.0" encoding="us-ascii" standalone="no"?><svg xmlns="http://www.w3.org/2000/svg" xmlns:xlink="http://www.w3.org/1999/xlink" contentStyleType="text/css" height="645px" preserveAspectRatio="none" style="width:505px;height:645px;background:#FFFFFF;" version="1.1" viewBox="0 0 505 645" width="505px" zoomAndPan="magnify"><defs/><g><!--class AgendaRepository--><g id="elem_AgendaRepository"><rect codeLine="12" fill="#F1F1F1" height="80.9766" id="AgendaRepository" rx="2.5" ry="2.5" style="stroke:#181818;stroke-width:0.5;" width="181" x="32" y="415.5"/><ellipse cx="57.35" cy="431.5" fill="#ADD1B2" rx="11" ry="11" style="stroke:#181818;stroke-width:1.0;"/><path d="M60.3231,437.1431 Q59.7421,437.4419 59.1029,437.5913 Q58.4638,437.7407 57.7582,437.7407 Q55.2514,437.7407 53.9315,436.0889 Q52.6117,434.437 52.6117,431.3159 Q52.6117,428.1865 53.9315,426.5347 Q55.2514,424.8828 57.7582,424.8828 Q58.4638,424.8828 59.1112,425.0322 Q59.7587,425.1816 60.3231,425.4805 L60.3231,428.2031 Q59.6923,427.6221 59.0988,427.3523 Q58.5053,427.0825 57.8744,427.0825 Q56.5297,427.0825 55.8449,428.1492 Q55.1601,429.2158 55.1601,431.3159 Q55.1601,433.4077 55.8449,434.4744 Q56.5297,435.541 57.8744,435.541 Q58.5053,435.541 59.0988,435.2712 Q59.6923,435.0015 60.3231,434.4204 Z " fill="#000000"/><text fill="#000000" font-family="sans-serif" font-size="14" lengthAdjust="spacing" textLength="126" x="73.65" y="436.791">AgendaRepository</text><line style="stroke:#181818;stroke-width:0.5;" x1="33" x2="212" y1="447.5" y2="447.5"/><text fill="#000000" font-family="sans-serif" font-size="14" lengthAdjust="spacing" textLength="145" x="38" y="465.0352">+getDateInformation</text><line style="stroke:#181818;stroke-width:0.5;" x1="33" x2="212" y1="471.9883" y2="471.9883"/><text fill="#000000" font-family="sans-serif" font-size="14" lengthAdjust="spacing" textLength="169" x="38" y="489.5234">+getAgendaRepository()</text></g><!--class AgendaUI--><g id="elem_AgendaUI"><rect codeLine="17" fill="#F1F1F1" height="48" id="AgendaUI" rx="2.5" ry="2.5" style="stroke:#181818;stroke-width:0.5;" width="99" x="141" y="7"/><ellipse cx="156" cy="23" fill="#ADD1B2" rx="11" ry="11" style="stroke:#181818;stroke-width:1.0;"/><path d="M158.9731,28.6431 Q158.3921,28.9419 157.7529,29.0913 Q157.1138,29.2407 156.4082,29.2407 Q153.9014,29.2407 152.5815,27.5889 Q151.2617,25.937 151.2617,22.8159 Q151.2617,19.6865 152.5815,18.0347 Q153.9014,16.3828 156.4082,16.3828 Q157.1138,16.3828 157.7612,16.5322 Q158.4087,16.6816 158.9731,16.9805 L158.9731,19.7031 Q158.3423,19.1221 157.7488,18.8523 Q157.1553,18.5825 156.5244,18.5825 Q155.1797,18.5825 154.4949,19.6492 Q153.8101,20.7158 153.8101,22.8159 Q153.8101,24.9077 154.4949,25.9744 Q155.1797,27.041 156.5244,27.041 Q157.1553,27.041 157.7488,26.7712 Q158.3423,26.5015 158.9731,25.9204 Z " fill="#000000"/><text fill="#000000" font-family="sans-serif" font-size="14" lengthAdjust="spacing" textLength="67" x="170" y="28.291">AgendaUI</text><line style="stroke:#181818;stroke-width:0.5;" x1="142" x2="239" y1="39" y2="39"/><line style="stroke:#181818;stroke-width:0.5;" x1="142" x2="239" y1="47" y2="47"/></g><!--class Repositories--><g id="elem_Repositories"><rect codeLine="21" fill="#F1F1F1" height="97.4648" id="Repositories" rx="2.5" ry="2.5" style="stroke:#181818;stroke-width:0.5;" width="209" x="7" y="241"/><ellipse cx="64.75" cy="257" fill="#ADD1B2" rx="11" ry="11" style="stroke:#181818;stroke-width:1.0;"/><path d="M67.7231,262.6431 Q67.1421,262.9419 66.5029,263.0913 Q65.8638,263.2407 65.1582,263.2407 Q62.6514,263.2407 61.3315,261.5889 Q60.0117,259.937 60.0117,256.8159 Q60.0117,253.6865 61.3315,252.0347 Q62.6514,250.3828 65.1582,250.3828 Q65.8638,250.3828 66.5112,250.5322 Q67.1587,250.6816 67.7231,250.9805 L67.7231,253.7031 Q67.0923,253.1221 66.4988,252.8523 Q65.9053,252.5825 65.2744,252.5825 Q63.9297,252.5825 63.2449,253.6492 Q62.5601,254.7158 62.5601,256.8159 Q62.5601,258.9077 63.2449,259.9744 Q63.9297,261.041 65.2744,261.041 Q65.9053,261.041 66.4988,260.7712 Q67.0923,260.5015 67.7231,259.9204 Z " fill="#000000"/><text fill="#000000" font-family="sans-serif" font-size="14" lengthAdjust="spacing" textLength="85" x="85.25" y="262.291">Repositories</text><line style="stroke:#181818;stroke-width:0.5;" x1="8" x2="215" y1="273" y2="273"/><line style="stroke:#181818;stroke-width:0.5;" x1="8" x2="215" y1="281" y2="281"/><text fill="#000000" font-family="sans-serif" font-size="14" lengthAdjust="spacing" textLength="103" x="13" y="298.5352">-Repositories()</text><text fill="#000000" font-family="sans-serif" font-size="14" lengthAdjust="spacing" textLength="197" x="13" y="315.0234">+getInstance() : Repositories</text><text fill="#000000" font-family="sans-serif" font-size="14" lengthAdjust="spacing" textLength="169" x="13" y="331.5117">+getAgendaRepository()</text></g><!--class CreateAgendaController--><g id="elem_CreateAgendaController"><rect codeLine="27" fill="#F1F1F1" height="64.4883" id="CreateAgendaController" rx="2.5" ry="2.5" style="stroke:#181818;stroke-width:0.5;" width="200" x="90.5" y="116"/><ellipse cx="105.5" cy="132" fill="#ADD1B2" rx="11" ry="11" style="stroke:#181818;stroke-width:1.0;"/><path d="M108.4731,137.6431 Q107.8921,137.9419 107.2529,138.0913 Q106.6138,138.2407 105.9082,138.2407 Q103.4014,138.2407 102.0815,136.5889 Q100.7617,134.937 100.7617,131.8159 Q100.7617,128.6865 102.0815,127.0347 Q103.4014,125.3828 105.9082,125.3828 Q106.6138,125.3828 107.2612,125.5322 Q107.9087,125.6816 108.4731,125.9805 L108.4731,128.7031 Q107.8423,128.1221 107.2488,127.8523 Q106.6553,127.5825 106.0244,127.5825 Q104.6797,127.5825 103.9949,128.6492 Q103.3101,129.7158 103.3101,131.8159 Q103.3101,133.9077 103.9949,134.9744 Q104.6797,136.041 106.0244,136.041 Q106.6553,136.041 107.2488,135.7712 Q107.8423,135.5015 108.4731,134.9204 Z " fill="#000000"/><text fill="#000000" font-family="sans-serif" font-size="14" lengthAdjust="spacing" textLength="168" x="119.5" y="137.291">CreateAgendaController</text><line style="stroke:#181818;stroke-width:0.5;" x1="91.5" x2="289.5" y1="148" y2="148"/><text fill="#000000" font-family="sans-serif" font-size="14" lengthAdjust="spacing" textLength="86" x="96.5" y="165.5352">+getAgenda</text><line style="stroke:#181818;stroke-width:0.5;" x1="91.5" x2="289.5" y1="172.4883" y2="172.4883"/></g><!--class GSM--><g id="elem_GSM"><rect codeLine="32" fill="#F1F1F1" height="113.9531" id="GSM" rx="2.5" ry="2.5" style="stroke:#181818;stroke-width:0.5;" width="175" x="323" y="399"/><ellipse cx="391.25" cy="415" fill="#ADD1B2" rx="11" ry="11" style="stroke:#181818;stroke-width:1.0;"/><path d="M394.2231,420.6431 Q393.6421,420.9419 393.0029,421.0913 Q392.3638,421.2407 391.6582,421.2407 Q389.1514,421.2407 387.8315,419.5889 Q386.5117,417.937 386.5117,414.8159 Q386.5117,411.6865 387.8315,410.0347 Q389.1514,408.3828 391.6582,408.3828 Q392.3638,408.3828 393.0112,408.5322 Q393.6587,408.6816 394.2231,408.9805 L394.2231,411.7031 Q393.5923,411.1221 392.9988,410.8523 Q392.4053,410.5825 391.7744,410.5825 Q390.4297,410.5825 389.7449,411.6492 Q389.0601,412.7158 389.0601,414.8159 Q389.0601,416.9077 389.7449,417.9744 Q390.4297,419.041 391.7744,419.041 Q392.4053,419.041 392.9988,418.7712 Q393.5923,418.5015 394.2231,417.9204 Z " fill="#000000"/><text fill="#000000" font-family="sans-serif" font-size="14" lengthAdjust="spacing" textLength="30" x="411.75" y="420.291">GSM</text><line style="stroke:#181818;stroke-width:0.5;" x1="324" x2="497" y1="431" y2="431"/><text fill="#000000" font-family="sans-serif" font-size="14" lengthAdjust="spacing" textLength="38" x="329" y="448.5352">name</text><text fill="#000000" font-family="sans-serif" font-size="14" lengthAdjust="spacing" textLength="37" x="329" y="465.0234">email</text><text fill="#000000" font-family="sans-serif" font-size="14" lengthAdjust="spacing" textLength="102" x="329" y="481.5117">phone number</text><text fill="#000000" font-family="sans-serif" font-size="14" lengthAdjust="spacing" textLength="163" x="329" y="498">identification document</text><line style="stroke:#181818;stroke-width:0.5;" x1="324" x2="497" y1="504.9531" y2="504.9531"/></g><!--class Agenda--><g id="elem_Agenda"><rect codeLine="40" fill="#F1F1F1" height="48" id="Agenda" rx="2.5" ry="2.5" style="stroke:#181818;stroke-width:0.5;" width="85" x="227" y="590"/><ellipse cx="242" cy="606" fill="#ADD1B2" rx="11" ry="11" style="stroke:#181818;stroke-width:1.0;"/><path d="M244.9731,611.6431 Q244.3921,611.9419 243.7529,612.0913 Q243.1138,612.2407 242.4082,612.2407 Q239.9014,612.2407 238.5815,610.5889 Q237.2617,608.937 237.2617,605.8159 Q237.2617,602.6865 238.5815,601.0347 Q239.9014,599.3828 242.4082,599.3828 Q243.1138,599.3828 243.7612,599.5322 Q244.4087,599.6816 244.9731,599.9805 L244.9731,602.7031 Q244.3423,602.1221 243.7488,601.8523 Q243.1553,601.5825 242.5244,601.5825 Q241.1797,601.5825 240.4949,602.6492 Q239.8101,603.7158 239.8101,605.8159 Q239.8101,607.9077 240.4949,608.9744 Q241.1797,610.041 242.5244,610.041 Q243.1553,610.041 243.7488,609.7712 Q244.3423,609.5015 244.9731,608.9204 Z " fill="#000000"/><text fill="#000000" font-family="sans-serif" font-size="14" lengthAdjust="spacing" textLength="53" x="256" y="611.291">Agenda</text><line style="stroke:#181818;stroke-width:0.5;" x1="228" x2="311" y1="622" y2="622"/><line style="stroke:#181818;stroke-width:0.5;" x1="228" x2="311" y1="630" y2="630"/></g><!--link AgendaUI to CreateAgendaController--><g id="link_AgendaUI_CreateAgendaController"><path codeLine="46" d="M190.5,55.27 C190.5,72.73 190.5,90.81 190.5,109.91 " fill="none" id="AgendaUI-to-CreateAgendaController" style="stroke:#181818;stroke-width:1.0;"/><polygon fill="#181818" points="190.5,115.91,194.5,106.91,190.5,110.91,186.5,106.91,190.5,115.91" style="stroke:#181818;stroke-width:1.0;"/></g><!--link Repositories to AgendaRepository--><g id="link_Repositories_AgendaRepository"><path codeLine="47" d="M114.68,338.08 C116.31,362.47 117.88,385.8433 119.43,409.0433 " fill="none" id="Repositories-to-AgendaRepository" style="stroke:#181818;stroke-width:1.0;"/><polygon fill="#181818" points="119.83,415.03,123.2211,405.7834,119.4967,410.0411,115.2389,406.3167,119.83,415.03" style="stroke:#181818;stroke-width:1.0;"/></g><!--link CreateAgendaController to Repositories--><g id="link_CreateAgendaController_Repositories"><path codeLine="48" d="M172.77,180.31 C162.72,198.06 152.8862,215.4188 141.5962,235.3588 " fill="none" id="CreateAgendaController-to-Repositories" style="stroke:#181818;stroke-width:1.0;"/><polygon fill="#181818" points="138.64,240.58,146.5551,234.719,141.1035,236.229,139.5936,230.7774,138.64,240.58" style="stroke:#181818;stroke-width:1.0;"/></g><!--link AgendaRepository to Agenda--><g id="link_AgendaRepository_Agenda"><path codeLine="49" d="M159.97,496.77 C187.71,526.2 220.4158,560.9027 243.5058,585.4127 " fill="none" id="AgendaRepository-to-Agenda" style="stroke:#181818;stroke-width:1.0;"/><polygon fill="#181818" points="247.62,589.78,244.3601,580.4863,244.1915,586.1406,238.5371,585.9719,247.62,589.78" style="stroke:#181818;stroke-width:1.0;"/></g><!--link CreateAgendaController to Agenda--><g id="link_CreateAgendaController_Agenda"><path codeLine="50" d="M205.18,180.4 C217.63,207.06 233.5,241 233.5,241 C233.5,241 258.7921,502.3179 266.6721,583.7579 " fill="none" id="CreateAgendaController-to-Agenda" style="stroke:#181818;stroke-width:1.0;"/><polygon fill="#181818" points="267.25,589.73,270.3646,580.3866,266.7685,584.7532,262.4018,581.1571,267.25,589.73" style="stroke:#181818;stroke-width:1.0;"/></g><!--link GSM to Agenda--><g id="link_GSM_Agenda"><path codeLine="51" d="M359.6,513.32 C335.77,539.68 308.71,569.62 290.51,589.75 " fill="none" id="GSM-Agenda" style="stroke:#181818;stroke-width:1.0;"/><polygon fill="#000000" points="333.1471,555.3644,341.3928,550.6253,337.0324,546.6837,333.1471,555.3644" style="stroke:#000000;stroke-width:1.0;"/><text fill="#000000" font-family="sans-serif" font-size="13" lengthAdjust="spacing" textLength="55" x="345.5" y="556.5684">registers</text><text fill="#000000" font-family="sans-serif" font-size="13" lengthAdjust="spacing" textLength="8" x="345.2522" y="533.4038">1</text><text fill="#000000" font-family="sans-serif" font-size="13" lengthAdjust="spacing" textLength="6" x="289.1251" y="579.2222">*</text></g><!--SRC=[VL7BRi8m4BpxAvPSW5P8vTe34g9InQ6Nedw0SJR92jiRsKwh5FNVwoJGF4J9oPcP7S-Ev_v4jfHE6Z1iMHME3K9m5OgUAQKwoHmFeTO83bMGDjT3WIzaobzaSyYazaD6ayLGbmWbwxhv4VCR9Bl0OZ2bjFH-6uAZOnLmhzWUw1lXIOYvnYn0O72K5m5IQk8GsyZ09nQaOi9tBDbJO5V3R3PRYzODjZdQLFRSMK3y7dCCBpBUOJDsHhPMLtmwiLYA7p5o-zYVHO_zAGazTFQh4HWDMc-8vdlhOuqA5qju7ebwoRtxTmvZwawnOniSQutkFCa-2FTwUEjOAmss1pIIT7ig2xO8jZ97T2r0ATf06Qcs44XPLIOYZTje_svx8Qvjm6gr-IUQ6BNJwARhYTk3hNPKq7Hmu7RFuwA8HK2oJY84oKDoGUCRECp91tGUDirAlm00]--></g></svg>