<?xml version="1.0" encoding="us-ascii" standalone="no"?><svg xmlns="http://www.w3.org/2000/svg" xmlns:xlink="http://www.w3.org/1999/xlink" contentStyleType="text/css" height="677px" preserveAspectRatio="none" style="width:505px;height:677px;background:#FFFFFF;" version="1.1" viewBox="0 0 505 677" width="505px" zoomAndPan="magnify"><defs/><g><!--class GreenSpaceRepository--><g id="elem_GreenSpaceRepository"><rect codeLine="12" fill="#F1F1F1" height="80.9766" id="GreenSpaceRepository" rx="2.5" ry="2.5" style="stroke:#181818;stroke-width:0.5;" width="186" x="27.5" y="415.5"/><ellipse cx="42.5" cy="431.5" fill="#ADD1B2" rx="11" ry="11" style="stroke:#181818;stroke-width:1.0;"/><path d="M45.4731,437.1431 Q44.8921,437.4419 44.2529,437.5913 Q43.6138,437.7407 42.9082,437.7407 Q40.4014,437.7407 39.0815,436.0889 Q37.7617,434.437 37.7617,431.3159 Q37.7617,428.1865 39.0815,426.5347 Q40.4014,424.8828 42.9082,424.8828 Q43.6138,424.8828 44.2612,425.0322 Q44.9087,425.1816 45.4731,425.4805 L45.4731,428.2031 Q44.8423,427.6221 44.2488,427.3523 Q43.6553,427.0825 43.0244,427.0825 Q41.6797,427.0825 40.9949,428.1492 Q40.3101,429.2158 40.3101,431.3159 Q40.3101,433.4077 40.9949,434.4744 Q41.6797,435.541 43.0244,435.541 Q43.6553,435.541 44.2488,435.2712 Q44.8423,435.0015 45.4731,434.4204 Z " fill="#000000"/><text fill="#000000" font-family="sans-serif" font-size="14" lengthAdjust="spacing" textLength="154" x="56.5" y="436.791">GreenSpaceRepository</text><line style="stroke:#181818;stroke-width:0.5;" x1="28.5" x2="212.5" y1="447.5" y2="447.5"/><text fill="#000000" font-family="sans-serif" font-size="14" lengthAdjust="spacing" textLength="155" x="33.5" y="465.0352">+getVehicleRepository</text><text fill="#000000" font-family="sans-serif" font-size="14" lengthAdjust="spacing" textLength="113" x="33.5" y="481.5234">+registerVehicle</text><line style="stroke:#181818;stroke-width:0.5;" x1="28.5" x2="212.5" y1="488.4766" y2="488.4766"/></g><!--class CreateGreenSpaceUI--><g id="elem_CreateGreenSpaceUI"><rect codeLine="17" fill="#F1F1F1" height="48" id="CreateGreenSpaceUI" rx="2.5" ry="2.5" style="stroke:#181818;stroke-width:0.5;" width="172" x="104.5" y="7"/><ellipse cx="119.5" cy="23" fill="#ADD1B2" rx="11" ry="11" style="stroke:#181818;stroke-width:1.0;"/><path d="M122.4731,28.6431 Q121.8921,28.9419 121.2529,29.0913 Q120.6138,29.2407 119.9082,29.2407 Q117.4014,29.2407 116.0815,27.5889 Q114.7617,25.937 114.7617,22.8159 Q114.7617,19.6865 116.0815,18.0347 Q117.4014,16.3828 119.9082,16.3828 Q120.6138,16.3828 121.2612,16.5322 Q121.9087,16.6816 122.4731,16.9805 L122.4731,19.7031 Q121.8423,19.1221 121.2488,18.8523 Q120.6553,18.5825 120.0244,18.5825 Q118.6797,18.5825 117.9949,19.6492 Q117.3101,20.7158 117.3101,22.8159 Q117.3101,24.9077 117.9949,25.9744 Q118.6797,27.041 120.0244,27.041 Q120.6553,27.041 121.2488,26.7712 Q121.8423,26.5015 122.4731,25.9204 Z " fill="#000000"/><text fill="#000000" font-family="sans-serif" font-size="14" lengthAdjust="spacing" textLength="140" x="133.5" y="28.291">CreateGreenSpaceUI</text><line style="stroke:#181818;stroke-width:0.5;" x1="105.5" x2="275.5" y1="39" y2="39"/><line style="stroke:#181818;stroke-width:0.5;" x1="105.5" x2="275.5" y1="47" y2="47"/></g><!--class Repositories--><g id="elem_Repositories"><rect codeLine="21" fill="#F1F1F1" height="97.4648" id="Repositories" rx="2.5" ry="2.5" style="stroke:#181818;stroke-width:0.5;" width="209" x="7" y="241"/><ellipse cx="64.75" cy="257" fill="#ADD1B2" rx="11" ry="11" style="stroke:#181818;stroke-width:1.0;"/><path d="M67.7231,262.6431 Q67.1421,262.9419 66.5029,263.0913 Q65.8638,263.2407 65.1582,263.2407 Q62.6514,263.2407 61.3315,261.5889 Q60.0117,259.937 60.0117,256.8159 Q60.0117,253.6865 61.3315,252.0347 Q62.6514,250.3828 65.1582,250.3828 Q65.8638,250.3828 66.5112,250.5322 Q67.1587,250.6816 67.7231,250.9805 L67.7231,253.7031 Q67.0923,253.1221 66.4988,252.8523 Q65.9053,252.5825 65.2744,252.5825 Q63.9297,252.5825 63.2449,253.6492 Q62.5601,254.7158 62.5601,256.8159 Q62.5601,258.9077 63.2449,259.9744 Q63.9297,261.041 65.2744,261.041 Q65.9053,261.041 66.4988,260.7712 Q67.0923,260.5015 67.7231,259.9204 Z " fill="#000000"/><text fill="#000000" font-family="sans-serif" font-size="14" lengthAdjust="spacing" textLength="85" x="85.25" y="262.291">Repositories</text><line style="stroke:#181818;stroke-width:0.5;" x1="8" x2="215" y1="273" y2="273"/><line style="stroke:#181818;stroke-width:0.5;" x1="8" x2="215" y1="281" y2="281"/><text fill="#000000" font-family="sans-serif" font-size="14" lengthAdjust="spacing" textLength="103" x="13" y="298.5352">-Repositories()</text><text fill="#000000" font-family="sans-serif" font-size="14" lengthAdjust="spacing" textLength="197" x="13" y="315.0234">+getInstance() : Repositories</text><text fill="#000000" font-family="sans-serif" font-size="14" lengthAdjust="spacing" textLength="165" x="13" y="331.5117">+getVehicleRepository()</text></g><!--class CreateGreenSpaceController--><g id="elem_CreateGreenSpaceController"><rect codeLine="27" fill="#F1F1F1" height="64.4883" id="CreateGreenSpaceController" rx="2.5" ry="2.5" style="stroke:#181818;stroke-width:0.5;" width="228" x="76.5" y="116"/><ellipse cx="91.5" cy="132" fill="#ADD1B2" rx="11" ry="11" style="stroke:#181818;stroke-width:1.0;"/><path d="M94.4731,137.6431 Q93.8921,137.9419 93.2529,138.0913 Q92.6138,138.2407 91.9082,138.2407 Q89.4014,138.2407 88.0815,136.5889 Q86.7617,134.937 86.7617,131.8159 Q86.7617,128.6865 88.0815,127.0347 Q89.4014,125.3828 91.9082,125.3828 Q92.6138,125.3828 93.2612,125.5322 Q93.9087,125.6816 94.4731,125.9805 L94.4731,128.7031 Q93.8423,128.1221 93.2488,127.8523 Q92.6553,127.5825 92.0244,127.5825 Q90.6797,127.5825 89.9949,128.6492 Q89.3101,129.7158 89.3101,131.8159 Q89.3101,133.9077 89.9949,134.9744 Q90.6797,136.041 92.0244,136.041 Q92.6553,136.041 93.2488,135.7712 Q93.8423,135.5015 94.4731,134.9204 Z " fill="#000000"/><text fill="#000000" font-family="sans-serif" font-size="14" lengthAdjust="spacing" textLength="196" x="105.5" y="137.291">CreateGreenSpaceController</text><line style="stroke:#181818;stroke-width:0.5;" x1="77.5" x2="303.5" y1="148" y2="148"/><text fill="#000000" font-family="sans-serif" font-size="14" lengthAdjust="spacing" textLength="82" x="82.5" y="165.5352">+getVehicle</text><line style="stroke:#181818;stroke-width:0.5;" x1="77.5" x2="303.5" y1="172.4883" y2="172.4883"/></g><!--class GSM--><g id="elem_GSM"><rect codeLine="32" fill="#F1F1F1" height="113.9531" id="GSM" rx="2.5" ry="2.5" style="stroke:#181818;stroke-width:0.5;" width="175" x="323" y="399"/><ellipse cx="391.25" cy="415" fill="#ADD1B2" rx="11" ry="11" style="stroke:#181818;stroke-width:1.0;"/><path d="M394.2231,420.6431 Q393.6421,420.9419 393.0029,421.0913 Q392.3638,421.2407 391.6582,421.2407 Q389.1514,421.2407 387.8315,419.5889 Q386.5117,417.937 386.5117,414.8159 Q386.5117,411.6865 387.8315,410.0347 Q389.1514,408.3828 391.6582,408.3828 Q392.3638,408.3828 393.0112,408.5322 Q393.6587,408.6816 394.2231,408.9805 L394.2231,411.7031 Q393.5923,411.1221 392.9988,410.8523 Q392.4053,410.5825 391.7744,410.5825 Q390.4297,410.5825 389.7449,411.6492 Q389.0601,412.7158 389.0601,414.8159 Q389.0601,416.9077 389.7449,417.9744 Q390.4297,419.041 391.7744,419.041 Q392.4053,419.041 392.9988,418.7712 Q393.5923,418.5015 394.2231,417.9204 Z " fill="#000000"/><text fill="#000000" font-family="sans-serif" font-size="14" lengthAdjust="spacing" textLength="30" x="411.75" y="420.291">GSM</text><line style="stroke:#181818;stroke-width:0.5;" x1="324" x2="497" y1="431" y2="431"/><text fill="#000000" font-family="sans-serif" font-size="14" lengthAdjust="spacing" textLength="38" x="329" y="448.5352">name</text><text fill="#000000" font-family="sans-serif" font-size="14" lengthAdjust="spacing" textLength="37" x="329" y="465.0234">email</text><text fill="#000000" font-family="sans-serif" font-size="14" lengthAdjust="spacing" textLength="102" x="329" y="481.5117">phone number</text><text fill="#000000" font-family="sans-serif" font-size="14" lengthAdjust="spacing" textLength="163" x="329" y="498">identification document</text><line style="stroke:#181818;stroke-width:0.5;" x1="324" x2="497" y1="504.9531" y2="504.9531"/></g><!--class GreenSpace--><g id="elem_GreenSpace"><rect codeLine="40" fill="#F1F1F1" height="80.9766" id="GreenSpace" rx="2.5" ry="2.5" style="stroke:#181818;stroke-width:0.5;" width="113" x="213" y="590"/><ellipse cx="228" cy="606" fill="#ADD1B2" rx="11" ry="11" style="stroke:#181818;stroke-width:1.0;"/><path d="M230.9731,611.6431 Q230.3921,611.9419 229.7529,612.0913 Q229.1138,612.2407 228.4082,612.2407 Q225.9014,612.2407 224.5815,610.5889 Q223.2617,608.937 223.2617,605.8159 Q223.2617,602.6865 224.5815,601.0347 Q225.9014,599.3828 228.4082,599.3828 Q229.1138,599.3828 229.7612,599.5322 Q230.4087,599.6816 230.9731,599.9805 L230.9731,602.7031 Q230.3423,602.1221 229.7488,601.8523 Q229.1553,601.5825 228.5244,601.5825 Q227.1797,601.5825 226.4949,602.6492 Q225.8101,603.7158 225.8101,605.8159 Q225.8101,607.9077 226.4949,608.9744 Q227.1797,610.041 228.5244,610.041 Q229.1553,610.041 229.7488,609.7712 Q230.3423,609.5015 230.9731,608.9204 Z " fill="#000000"/><text fill="#000000" font-family="sans-serif" font-size="14" lengthAdjust="spacing" textLength="81" x="242" y="611.291">GreenSpace</text><line style="stroke:#181818;stroke-width:0.5;" x1="214" x2="325" y1="622" y2="622"/><text fill="#000000" font-family="sans-serif" font-size="14" lengthAdjust="spacing" textLength="30" x="219" y="639.5352">area</text><text fill="#000000" font-family="sans-serif" font-size="14" lengthAdjust="spacing" textLength="29" x="219" y="656.0234">type</text><line style="stroke:#181818;stroke-width:0.5;" x1="214" x2="325" y1="662.9766" y2="662.9766"/></g><!--link CreateGreenSpaceUI to CreateGreenSpaceController--><g id="link_CreateGreenSpaceUI_CreateGreenSpaceController"><path codeLine="47" d="M190.5,55.27 C190.5,72.73 190.5,90.81 190.5,109.91 " fill="none" id="CreateGreenSpaceUI-to-CreateGreenSpaceController" style="stroke:#181818;stroke-width:1.0;"/><polygon fill="#181818" points="190.5,115.91,194.5,106.91,190.5,110.91,186.5,106.91,190.5,115.91" style="stroke:#181818;stroke-width:1.0;"/></g><!--link Repositories to GreenSpaceRepository--><g id="link_Repositories_GreenSpaceRepository"><path codeLine="48" d="M114.1,338.08 C115.44,362.47 116.712,385.839 117.982,409.039 " fill="none" id="Repositories-to-GreenSpaceRepository" style="stroke:#181818;stroke-width:1.0;"/><polygon fill="#181818" points="118.31,415.03,121.8121,405.8248,118.0367,410.0375,113.824,406.2621,118.31,415.03" style="stroke:#181818;stroke-width:1.0;"/></g><!--link CreateGreenSpaceController to Repositories--><g id="link_CreateGreenSpaceController_Repositories"><path codeLine="49" d="M172.77,180.31 C162.72,198.06 152.8862,215.4188 141.5962,235.3588 " fill="none" id="CreateGreenSpaceController-to-Repositories" style="stroke:#181818;stroke-width:1.0;"/><polygon fill="#181818" points="138.64,240.58,146.5551,234.719,141.1035,236.229,139.5936,230.7774,138.64,240.58" style="stroke:#181818;stroke-width:1.0;"/></g><!--link GreenSpaceRepository to GreenSpace--><g id="link_GreenSpaceRepository_GreenSpace"><path codeLine="50" d="M154.68,496.57 C178.74,524.43 206.8974,557.0299 231.0374,584.9699 " fill="none" id="GreenSpaceRepository-to-GreenSpace" style="stroke:#181818;stroke-width:1.0;"/><polygon fill="#181818" points="234.96,589.51,232.1028,580.0847,231.6911,585.7266,226.0493,585.3149,234.96,589.51" style="stroke:#181818;stroke-width:1.0;"/></g><!--link CreateGreenSpaceController to GreenSpace--><g id="link_CreateGreenSpaceController_GreenSpace"><path codeLine="51" d="M205.18,180.4 C217.63,207.06 233.5,241 233.5,241 C233.5,241 256.0861,484.7556 265.2661,583.7756 " fill="none" id="CreateGreenSpaceController-to-GreenSpace" style="stroke:#181818;stroke-width:1.0;"/><polygon fill="#181818" points="265.82,589.75,268.9721,580.4192,265.3584,584.7713,261.0063,581.1577,265.82,589.75" style="stroke:#181818;stroke-width:1.0;"/></g><!--link GSM to GreenSpace--><g id="link_GSM_GreenSpace"><path codeLine="52" d="M364.33,513.48 C344.01,538.34 320.62,566.96 302.15,589.56 " fill="none" id="GSM-GreenSpace" style="stroke:#181818;stroke-width:1.0;"/><polygon fill="#000000" points="341.3359,555.5267,349.3354,550.383,344.7843,546.6634,341.3359,555.5267" style="stroke:#000000;stroke-width:1.0;"/><text fill="#000000" font-family="sans-serif" font-size="13" lengthAdjust="spacing" textLength="55" x="353.5" y="556.5684">registers</text><text fill="#000000" font-family="sans-serif" font-size="13" lengthAdjust="spacing" textLength="8" x="350.5291" y="533.5823">1</text><text fill="#000000" font-family="sans-serif" font-size="13" lengthAdjust="spacing" textLength="6" x="301.0608" y="579.1331">*</text></g><!--SRC=[XLAnJiCm4Dtz5TSiRK6LwCfG2NMeEh0GmUwwr-HKnnVP5r2e-7USf9245iXqkVVk-VcTf-58hjHU5r2mOvDxBX34LwXwfDJcg3DCfRO87erebzaX8UHwps_aCZXe6uQ89OTIbmWbsxhvKTCh87jXDPWoLeVm8E9fLmbk3RkKtX7kb9fQF0W8WwSi5zXJOuVOHGHUCISJ7JvXoO64VGsJoMIfMZNOU4INngjWZvyKnEysGtdfPdkeGpnc50Jz6LOVwgoszgW5UytdxKdrwBSCOO3kaCMeEPjt-X2FtheG0pKucyFzYDHJBjp5-L-jhDc9PslHNrnlO76JFdQmqmMs1HQQR5kLEJi4LnKxz6s3zkY43cHqapNisLH5x3Hg5-bsgZgQQejclorFNKO6YyNg3_jg56F3lRP3zRj0EpDAz9h03-N_z0RCc24aooIs8Rb91aXSvDVB2R1IwXC0]--></g></svg>