<?xml version="1.0" encoding="us-ascii" standalone="no"?><svg xmlns="http://www.w3.org/2000/svg" xmlns:xlink="http://www.w3.org/1999/xlink" contentStyleType="text/css" height="692px" preserveAspectRatio="none" style="width:1066px;height:692px;background:#FFFFFF;" version="1.1" viewBox="0 0 1066 692" width="1066px" zoomAndPan="magnify"><defs/><g><rect fill="#FFFFFF" height="502.457" style="stroke:#181818;stroke-width:1.0;" width="10" x="79.5" y="91.4883"/><rect fill="#FFFFFF" height="246.6621" style="stroke:#181818;stroke-width:1.0;" width="10" x="457.5" y="112.7988"/><rect fill="#FFFFFF" height="29.3105" style="stroke:#181818;stroke-width:1.0;" width="10" x="457.5" y="388.7715"/><rect fill="#FFFFFF" height="29.3105" style="stroke:#181818;stroke-width:1.0;" width="10" x="457.5" y="447.3926"/><rect fill="#FFFFFF" height="87.9316" style="stroke:#181818;stroke-width:1.0;" width="10" x="457.5" y="506.0137"/><rect fill="#FFFFFF" height="146.5527" style="stroke:#181818;stroke-width:1.0;" width="10" x="653.5" y="183.5977"/><rect fill="#FFFFFF" height="29.3105" style="stroke:#181818;stroke-width:1.0;" width="10" x="822" y="212.9082"/><rect fill="#FFFFFF" height="29.3105" style="stroke:#181818;stroke-width:1.0;" width="10" x="969.5" y="271.5293"/><rect fill="#FFFFFF" height="29.3105" style="stroke:#181818;stroke-width:1.0;" width="10" x="969.5" y="535.3242"/><line style="stroke:#181818;stroke-width:0.5;stroke-dasharray:5.0,5.0;" x1="84" x2="84" y1="81.4883" y2="611.9453"/><line style="stroke:#181818;stroke-width:0.5;stroke-dasharray:5.0,5.0;" x1="462.5" x2="462.5" y1="81.4883" y2="611.9453"/><line style="stroke:#181818;stroke-width:0.5;stroke-dasharray:5.0,5.0;" x1="658.5" x2="658.5" y1="151.543" y2="611.9453"/><line style="stroke:#181818;stroke-width:0.5;stroke-dasharray:5.0,5.0;" x1="826.5" x2="826.5" y1="81.4883" y2="611.9453"/><line style="stroke:#181818;stroke-width:0.5;stroke-dasharray:5.0,5.0;" x1="974.5" x2="974.5" y1="81.4883" y2="611.9453"/><text fill="#000000" font-family="sans-serif" font-size="14" lengthAdjust="spacing" textLength="149" x="5" y="78.5352">Green Space Manager</text><ellipse cx="84.5" cy="13.5" fill="#E3E3E3" rx="8" ry="8" style="stroke:#181818;stroke-width:0.5;"/><path d="M84.5,21.5 L84.5,48.5 M71.5,29.5 L97.5,29.5 M84.5,48.5 L71.5,63.5 M84.5,48.5 L97.5,63.5 " fill="none" style="stroke:#181818;stroke-width:0.5;"/><text fill="#000000" font-family="sans-serif" font-size="14" lengthAdjust="spacing" textLength="149" x="5" y="624.4805">Green Space Manager</text><ellipse cx="84.5" cy="635.9336" fill="#E3E3E3" rx="8" ry="8" style="stroke:#181818;stroke-width:0.5;"/><path d="M84.5,643.9336 L84.5,670.9336 M71.5,651.9336 L97.5,651.9336 M84.5,670.9336 L71.5,685.9336 M84.5,670.9336 L97.5,685.9336 " fill="none" style="stroke:#181818;stroke-width:0.5;"/><rect fill="#E3E3E3" height="30.4883" rx="2.5" ry="2.5" style="stroke:#181818;stroke-width:0.5;" width="158" x="383.5" y="50"/><text fill="#000000" font-family="sans-serif" font-size="14" lengthAdjust="spacing" textLength="144" x="390.5" y="70.5352">:CreateGreenSpaceUI</text><rect fill="#E3E3E3" height="30.4883" rx="2.5" ry="2.5" style="stroke:#181818;stroke-width:0.5;" width="158" x="383.5" y="610.9453"/><text fill="#000000" font-family="sans-serif" font-size="14" lengthAdjust="spacing" textLength="144" x="390.5" y="631.4805">:CreateGreenSpaceUI</text><rect fill="#E3E3E3" height="30.4883" rx="2.5" ry="2.5" style="stroke:#181818;stroke-width:0.5;" width="214" x="551.5" y="610.9453"/><text fill="#000000" font-family="sans-serif" font-size="14" lengthAdjust="spacing" textLength="200" x="558.5" y="631.4805">:CreateGreenSpaceController</text><rect fill="#E3E3E3" height="30.4883" rx="2.5" ry="2.5" style="stroke:#181818;stroke-width:0.5;" width="103" x="775.5" y="50"/><text fill="#000000" font-family="sans-serif" font-size="14" lengthAdjust="spacing" textLength="89" x="782.5" y="70.5352">:Repositories</text><rect fill="#E3E3E3" height="30.4883" rx="2.5" ry="2.5" style="stroke:#181818;stroke-width:0.5;" width="103" x="775.5" y="610.9453"/><text fill="#000000" font-family="sans-serif" font-size="14" lengthAdjust="spacing" textLength="89" x="782.5" y="631.4805">:Repositories</text><rect fill="#E3E3E3" height="46.9766" rx="2.5" ry="2.5" style="stroke:#181818;stroke-width:0.5;" width="172" x="888.5" y="33.5117"/><text fill="#000000" font-family="sans-serif" font-size="14" lengthAdjust="spacing" textLength="158" x="895.5" y="54.0469">GreenSpaceRepository:</text><text fill="#000000" font-family="sans-serif" font-size="14" lengthAdjust="spacing" textLength="154" x="897.5" y="70.5352">GreenSpaceRepository</text><rect fill="#E3E3E3" height="46.9766" rx="2.5" ry="2.5" style="stroke:#181818;stroke-width:0.5;" width="172" x="888.5" y="610.9453"/><text fill="#000000" font-family="sans-serif" font-size="14" lengthAdjust="spacing" textLength="158" x="895.5" y="631.4805">GreenSpaceRepository:</text><text fill="#000000" font-family="sans-serif" font-size="14" lengthAdjust="spacing" textLength="154" x="897.5" y="647.9688">GreenSpaceRepository</text><rect fill="#FFFFFF" height="502.457" style="stroke:#181818;stroke-width:1.0;" width="10" x="79.5" y="91.4883"/><rect fill="#FFFFFF" height="246.6621" style="stroke:#181818;stroke-width:1.0;" width="10" x="457.5" y="112.7988"/><rect fill="#FFFFFF" height="29.3105" style="stroke:#181818;stroke-width:1.0;" width="10" x="457.5" y="388.7715"/><rect fill="#FFFFFF" height="29.3105" style="stroke:#181818;stroke-width:1.0;" width="10" x="457.5" y="447.3926"/><rect fill="#FFFFFF" height="87.9316" style="stroke:#181818;stroke-width:1.0;" width="10" x="457.5" y="506.0137"/><rect fill="#FFFFFF" height="146.5527" style="stroke:#181818;stroke-width:1.0;" width="10" x="653.5" y="183.5977"/><rect fill="#FFFFFF" height="29.3105" style="stroke:#181818;stroke-width:1.0;" width="10" x="822" y="212.9082"/><rect fill="#FFFFFF" height="29.3105" style="stroke:#181818;stroke-width:1.0;" width="10" x="969.5" y="271.5293"/><rect fill="#FFFFFF" height="29.3105" style="stroke:#181818;stroke-width:1.0;" width="10" x="969.5" y="535.3242"/><polygon fill="#181818" points="445.5,108.7988,455.5,112.7988,445.5,116.7988,449.5,112.7988" style="stroke:#181818;stroke-width:1.0;"/><line style="stroke:#181818;stroke-width:1.0;" x1="89.5" x2="451.5" y1="112.7988" y2="112.7988"/><text fill="#000000" font-family="sans-serif" font-size="13" font-weight="bold" lengthAdjust="spacing" textLength="9" x="96.5" y="108.0566">1</text><text fill="#000000" font-family="sans-serif" font-size="13" lengthAdjust="spacing" textLength="189" x="109.5" y="108.0566">asks to register a Green Space</text><polygon fill="#181818" points="539.5,138.1094,549.5,142.1094,539.5,146.1094,543.5,142.1094" style="stroke:#181818;stroke-width:1.0;"/><line style="stroke:#181818;stroke-width:1.0;" x1="467.5" x2="545.5" y1="142.1094" y2="142.1094"/><text fill="#000000" font-family="sans-serif" font-size="13" font-weight="bold" lengthAdjust="spacing" textLength="9" x="474.5" y="137.3672">2</text><text fill="#000000" font-family="sans-serif" font-size="13" lengthAdjust="spacing" textLength="38" x="487.5" y="137.3672">create</text><rect fill="#E3E3E3" height="30.4883" rx="2.5" ry="2.5" style="stroke:#181818;stroke-width:0.5;" width="214" x="551.5" y="120.7988"/><text fill="#000000" font-family="sans-serif" font-size="14" lengthAdjust="spacing" textLength="200" x="558.5" y="141.334">:CreateGreenSpaceController</text><polygon fill="#181818" points="641.5,179.5977,651.5,183.5977,641.5,187.5977,645.5,183.5977" style="stroke:#181818;stroke-width:1.0;"/><line style="stroke:#181818;stroke-width:1.0;" x1="467.5" x2="647.5" y1="183.5977" y2="183.5977"/><text fill="#000000" font-family="sans-serif" font-size="13" font-weight="bold" lengthAdjust="spacing" textLength="9" x="474.5" y="178.8555">3</text><text fill="#000000" font-family="sans-serif" font-size="13" lengthAdjust="spacing" textLength="92" x="487.5" y="178.8555">getGreenSpace</text><polygon fill="#181818" points="810,208.9082,820,212.9082,810,216.9082,814,212.9082" style="stroke:#181818;stroke-width:1.0;"/><line style="stroke:#181818;stroke-width:1.0;" x1="663.5" x2="816" y1="212.9082" y2="212.9082"/><text fill="#000000" font-family="sans-serif" font-size="13" font-weight="bold" lengthAdjust="spacing" textLength="9" x="670.5" y="208.166">4</text><text fill="#000000" font-family="sans-serif" font-size="13" lengthAdjust="spacing" textLength="81" x="683.5" y="208.166">getInstance()</text><polygon fill="#181818" points="674.5,238.2188,664.5,242.2188,674.5,246.2188,670.5,242.2188" style="stroke:#181818;stroke-width:1.0;"/><line style="stroke:#181818;stroke-width:1.0;stroke-dasharray:2.0,2.0;" x1="668.5" x2="826" y1="242.2188" y2="242.2188"/><text fill="#000000" font-family="sans-serif" font-size="13" font-weight="bold" lengthAdjust="spacing" textLength="9" x="680.5" y="237.4766">5</text><text fill="#000000" font-family="sans-serif" font-size="13" lengthAdjust="spacing" textLength="75" x="693.5" y="237.4766">repositories</text><polygon fill="#181818" points="957.5,267.5293,967.5,271.5293,957.5,275.5293,961.5,271.5293" style="stroke:#181818;stroke-width:1.0;"/><line style="stroke:#181818;stroke-width:1.0;" x1="663.5" x2="963.5" y1="271.5293" y2="271.5293"/><text fill="#000000" font-family="sans-serif" font-size="13" font-weight="bold" lengthAdjust="spacing" textLength="9" x="670.5" y="266.7871">6</text><text fill="#000000" font-family="sans-serif" font-size="13" lengthAdjust="spacing" textLength="167" x="683.5" y="266.7871">getGreenSpaceRepository()</text><polygon fill="#181818" points="674.5,296.8398,664.5,300.8398,674.5,304.8398,670.5,300.8398" style="stroke:#181818;stroke-width:1.0;"/><line style="stroke:#181818;stroke-width:1.0;stroke-dasharray:2.0,2.0;" x1="668.5" x2="973.5" y1="300.8398" y2="300.8398"/><text fill="#000000" font-family="sans-serif" font-size="13" font-weight="bold" lengthAdjust="spacing" textLength="9" x="680.5" y="296.0977">7</text><text fill="#000000" font-family="sans-serif" font-size="13" lengthAdjust="spacing" textLength="138" x="693.5" y="296.0977">greenSpaceRepository</text><polygon fill="#181818" points="478.5,326.1504,468.5,330.1504,478.5,334.1504,474.5,330.1504" style="stroke:#181818;stroke-width:1.0;"/><line style="stroke:#181818;stroke-width:1.0;stroke-dasharray:2.0,2.0;" x1="472.5" x2="657.5" y1="330.1504" y2="330.1504"/><text fill="#000000" font-family="sans-serif" font-size="13" font-weight="bold" lengthAdjust="spacing" textLength="9" x="484.5" y="325.4082">8</text><text fill="#000000" font-family="sans-serif" font-size="13" lengthAdjust="spacing" textLength="123" x="497.5" y="325.4082">GreenSpaceRegister</text><polygon fill="#181818" points="100.5,355.4609,90.5,359.4609,100.5,363.4609,96.5,359.4609" style="stroke:#181818;stroke-width:1.0;"/><line style="stroke:#181818;stroke-width:1.0;stroke-dasharray:2.0,2.0;" x1="94.5" x2="461.5" y1="359.4609" y2="359.4609"/><text fill="#000000" font-family="sans-serif" font-size="13" font-weight="bold" lengthAdjust="spacing" textLength="9" x="106.5" y="354.7188">9</text><text fill="#000000" font-family="sans-serif" font-size="13" lengthAdjust="spacing" textLength="294" x="119.5" y="354.7188">requests for the respective area of green space</text><polygon fill="#181818" points="445.5,384.7715,455.5,388.7715,445.5,392.7715,449.5,388.7715" style="stroke:#181818;stroke-width:1.0;"/><line style="stroke:#181818;stroke-width:1.0;" x1="89.5" x2="451.5" y1="388.7715" y2="388.7715"/><text fill="#000000" font-family="sans-serif" font-size="13" font-weight="bold" lengthAdjust="spacing" textLength="18" x="96.5" y="384.0293">10</text><text fill="#000000" font-family="sans-serif" font-size="13" lengthAdjust="spacing" textLength="130" x="118.5" y="384.0293">types requested area</text><polygon fill="#181818" points="100.5,414.082,90.5,418.082,100.5,422.082,96.5,418.082" style="stroke:#181818;stroke-width:1.0;"/><line style="stroke:#181818;stroke-width:1.0;stroke-dasharray:2.0,2.0;" x1="94.5" x2="461.5" y1="418.082" y2="418.082"/><text fill="#000000" font-family="sans-serif" font-size="13" font-weight="bold" lengthAdjust="spacing" textLength="18" x="106.5" y="413.3398">11</text><text fill="#000000" font-family="sans-serif" font-size="13" lengthAdjust="spacing" textLength="181" x="128.5" y="413.3398">asks about the type of space</text><polygon fill="#181818" points="445.5,443.3926,455.5,447.3926,445.5,451.3926,449.5,447.3926" style="stroke:#181818;stroke-width:1.0;"/><line style="stroke:#181818;stroke-width:1.0;" x1="89.5" x2="451.5" y1="447.3926" y2="447.3926"/><text fill="#000000" font-family="sans-serif" font-size="13" font-weight="bold" lengthAdjust="spacing" textLength="18" x="96.5" y="442.6504">12</text><text fill="#000000" font-family="sans-serif" font-size="13" lengthAdjust="spacing" textLength="92" x="118.5" y="442.6504">select the type</text><polygon fill="#181818" points="100.5,472.7031,90.5,476.7031,100.5,480.7031,96.5,476.7031" style="stroke:#181818;stroke-width:1.0;"/><line style="stroke:#181818;stroke-width:1.0;" x1="94.5" x2="461.5" y1="476.7031" y2="476.7031"/><text fill="#000000" font-family="sans-serif" font-size="13" font-weight="bold" lengthAdjust="spacing" textLength="18" x="106.5" y="471.9609">13</text><text fill="#000000" font-family="sans-serif" font-size="13" lengthAdjust="spacing" textLength="322" x="128.5" y="471.9609">shows the area and type and requests confirmation</text><polygon fill="#181818" points="445.5,502.0137,455.5,506.0137,445.5,510.0137,449.5,506.0137" style="stroke:#181818;stroke-width:1.0;"/><line style="stroke:#181818;stroke-width:1.0;" x1="89.5" x2="451.5" y1="506.0137" y2="506.0137"/><text fill="#000000" font-family="sans-serif" font-size="13" font-weight="bold" lengthAdjust="spacing" textLength="18" x="96.5" y="501.2715">14</text><text fill="#000000" font-family="sans-serif" font-size="13" lengthAdjust="spacing" textLength="168" x="118.5" y="501.2715">confirms the area and type</text><polygon fill="#181818" points="957.5,531.3242,967.5,535.3242,957.5,539.3242,961.5,535.3242" style="stroke:#181818;stroke-width:1.0;"/><line style="stroke:#181818;stroke-width:1.0;" x1="467.5" x2="963.5" y1="535.3242" y2="535.3242"/><text fill="#000000" font-family="sans-serif" font-size="13" font-weight="bold" lengthAdjust="spacing" textLength="18" x="474.5" y="530.582">15</text><text fill="#000000" font-family="sans-serif" font-size="13" lengthAdjust="spacing" textLength="120" x="496.5" y="530.582">registerGreenSpace</text><polygon fill="#181818" points="478.5,560.6348,468.5,564.6348,478.5,568.6348,474.5,564.6348" style="stroke:#181818;stroke-width:1.0;"/><line style="stroke:#181818;stroke-width:1.0;stroke-dasharray:2.0,2.0;" x1="472.5" x2="973.5" y1="564.6348" y2="564.6348"/><text fill="#000000" font-family="sans-serif" font-size="13" font-weight="bold" lengthAdjust="spacing" textLength="18" x="484.5" y="559.8926">16</text><text fill="#000000" font-family="sans-serif" font-size="13" lengthAdjust="spacing" textLength="72" x="506.5" y="559.8926">GreenSpace</text><polygon fill="#181818" points="95.5,589.9453,85.5,593.9453,95.5,597.9453,91.5,593.9453" style="stroke:#181818;stroke-width:1.0;"/><line style="stroke:#181818;stroke-width:1.0;stroke-dasharray:2.0,2.0;" x1="89.5" x2="461.5" y1="593.9453" y2="593.9453"/><text fill="#000000" font-family="sans-serif" font-size="13" font-weight="bold" lengthAdjust="spacing" textLength="18" x="101.5" y="589.2031">17</text><text fill="#000000" font-family="sans-serif" font-size="13" lengthAdjust="spacing" textLength="170" x="123.5" y="589.2031">displays operation success</text><!--SRC=[bLLDRzim3BthLn2zf2sQFv13WI43XW3hfMbllIWoRGjn94-Ks-RVZv8JVqLEDfriaNpaenzfscjJIoSFSB36gjBP0u9t3GhgBBLKUrdWrXyh18VAIrDKGmSgPMQ_j2aWbnMX4BBnrZI77JeX5gNE479h_Sv-2wcyTN3too4Qs38omeiqZCwN80b-_7mH3EgrqhKq7kvMQuVIOmo8_k-RwFY-kU6tjiOxMrNeel_wxVNt9E8LQqkQwz58qQUxE6vreCWanY4zUk-w-Z2fwmZu9cc_vgeAlkXDGeGsw4ysHBu2JeTVOFdCr635qNi2RxdVXIRFxP4mQ5eVqo5nGyG21eTXbemMG5SCywT1yWIPz1Bk7UReq2XyWWn9ELrxRSqJW3QvTGTPmOSPMpogqcZ5bj5rrZZPFYbB_a4C2rYe-4dQrayhUuxNZuzSM-icPbpOeK3VjtZarh6FEKQcS68yuoG-R0kxCSHgLdZ_S17RGQTKSU4TJYhByiGYV85URHVX6VvVkZEnjC2cBUijrtZEYJL5TIPlpxP89B_6UdPIPgYVnsH8iXqKCPFXKY7f0M7zWo_3egCQGp22P862pLjIG2CL3ZA42PoEiJ_MI6Tmp2AKk9ZRP4Ln0yYTRNoi9o258lhqDr8JLbn_5vlEsivPJ4Yb_QBe7lbAaxKvmqFN7MLDhdb1X9bF5J6e8XPnya_WNgjdLjRdRJXO1oAn2sz9-Ofy9weQe0-O_jEiJBMNbjuACarr9Oy4jiPscG8rIY5Hgi63r_3l-0i0]--></g></svg>