<?xml version="1.0" encoding="us-ascii" standalone="no"?><svg xmlns="http://www.w3.org/2000/svg" xmlns:xlink="http://www.w3.org/1999/xlink" contentStyleType="text/css" height="660px" preserveAspectRatio="none" style="width:533px;height:660px;background:#FFFFFF;" version="1.1" viewBox="0 0 533 660" width="533px" zoomAndPan="magnify"><defs/><g><!--class agendaRepository--><g id="elem_agendaRepository"><rect codeLine="12" fill="#F1F1F1" height="80.9766" id="agendaRepository" rx="2.5" ry="2.5" style="stroke:#181818;stroke-width:0.5;" width="167" x="45" y="431.45"/><ellipse cx="64.95" cy="447.45" fill="#ADD1B2" rx="11" ry="11" style="stroke:#181818;stroke-width:1.0;"/><path d="M67.9231,453.0931 Q67.3421,453.3919 66.7029,453.5413 Q66.0638,453.6907 65.3582,453.6907 Q62.8514,453.6907 61.5315,452.0389 Q60.2117,450.387 60.2117,447.2659 Q60.2117,444.1365 61.5315,442.4847 Q62.8514,440.8328 65.3582,440.8328 Q66.0638,440.8328 66.7112,440.9822 Q67.3587,441.1316 67.9231,441.4305 L67.9231,444.1531 Q67.2923,443.5721 66.6988,443.3023 Q66.1053,443.0325 65.4744,443.0325 Q64.1297,443.0325 63.4449,444.0992 Q62.7601,445.1658 62.7601,447.2659 Q62.7601,449.3577 63.4449,450.4244 Q64.1297,451.491 65.4744,451.491 Q66.1053,451.491 66.6988,451.2212 Q67.2923,450.9515 67.9231,450.3704 Z " fill="#000000"/><text fill="#000000" font-family="sans-serif" font-size="14" lengthAdjust="spacing" textLength="124" x="80.05" y="452.741">agendaRepository</text><line style="stroke:#181818;stroke-width:0.5;" x1="46" x2="211" y1="463.45" y2="463.45"/><text fill="#000000" font-family="sans-serif" font-size="14" lengthAdjust="spacing" textLength="155" x="51" y="480.9852">+getVehicleRepository</text><text fill="#000000" font-family="sans-serif" font-size="14" lengthAdjust="spacing" textLength="113" x="51" y="497.4734">+registerVehicle</text><line style="stroke:#181818;stroke-width:0.5;" x1="46" x2="211" y1="504.4266" y2="504.4266"/></g><!--class AssignTeamToEntryUI--><g id="elem_AssignTeamToEntryUI"><rect codeLine="17" fill="#F1F1F1" height="48" id="AssignTeamToEntryUI" rx="2.5" ry="2.5" style="stroke:#181818;stroke-width:0.5;" width="183" x="99" y="7"/><ellipse cx="114" cy="23" fill="#ADD1B2" rx="11" ry="11" style="stroke:#181818;stroke-width:1.0;"/><path d="M116.9731,28.6431 Q116.3921,28.9419 115.7529,29.0913 Q115.1138,29.2407 114.4082,29.2407 Q111.9014,29.2407 110.5815,27.5889 Q109.2617,25.937 109.2617,22.8159 Q109.2617,19.6865 110.5815,18.0347 Q111.9014,16.3828 114.4082,16.3828 Q115.1138,16.3828 115.7612,16.5322 Q116.4087,16.6816 116.9731,16.9805 L116.9731,19.7031 Q116.3423,19.1221 115.7488,18.8523 Q115.1553,18.5825 114.5244,18.5825 Q113.1797,18.5825 112.4949,19.6492 Q111.8101,20.7158 111.8101,22.8159 Q111.8101,24.9077 112.4949,25.9744 Q113.1797,27.041 114.5244,27.041 Q115.1553,27.041 115.7488,26.7712 Q116.3423,26.5015 116.9731,25.9204 Z " fill="#000000"/><text fill="#000000" font-family="sans-serif" font-size="14" lengthAdjust="spacing" textLength="151" x="128" y="28.291">AssignTeamToEntryUI</text><line style="stroke:#181818;stroke-width:0.5;" x1="100" x2="281" y1="39" y2="39"/><line style="stroke:#181818;stroke-width:0.5;" x1="100" x2="281" y1="47" y2="47"/></g><!--class Repositories--><g id="elem_Repositories"><rect codeLine="21" fill="#F1F1F1" height="97.4648" id="Repositories" rx="2.5" ry="2.5" style="stroke:#181818;stroke-width:0.5;" width="209" x="7" y="232.25"/><ellipse cx="64.75" cy="248.25" fill="#ADD1B2" rx="11" ry="11" style="stroke:#181818;stroke-width:1.0;"/><path d="M67.7231,253.8931 Q67.1421,254.1919 66.5029,254.3413 Q65.8638,254.4907 65.1582,254.4907 Q62.6514,254.4907 61.3315,252.8389 Q60.0117,251.187 60.0117,248.0659 Q60.0117,244.9365 61.3315,243.2847 Q62.6514,241.6328 65.1582,241.6328 Q65.8638,241.6328 66.5112,241.7822 Q67.1587,241.9316 67.7231,242.2305 L67.7231,244.9531 Q67.0923,244.3721 66.4988,244.1023 Q65.9053,243.8325 65.2744,243.8325 Q63.9297,243.8325 63.2449,244.8992 Q62.5601,245.9658 62.5601,248.0659 Q62.5601,250.1577 63.2449,251.2244 Q63.9297,252.291 65.2744,252.291 Q65.9053,252.291 66.4988,252.0212 Q67.0923,251.7515 67.7231,251.1704 Z " fill="#000000"/><text fill="#000000" font-family="sans-serif" font-size="14" lengthAdjust="spacing" textLength="85" x="85.25" y="253.541">Repositories</text><line style="stroke:#181818;stroke-width:0.5;" x1="8" x2="215" y1="264.25" y2="264.25"/><line style="stroke:#181818;stroke-width:0.5;" x1="8" x2="215" y1="272.25" y2="272.25"/><text fill="#000000" font-family="sans-serif" font-size="14" lengthAdjust="spacing" textLength="103" x="13" y="289.7852">-Repositories()</text><text fill="#000000" font-family="sans-serif" font-size="14" lengthAdjust="spacing" textLength="197" x="13" y="306.2734">+getInstance() : Repositories</text><text fill="#000000" font-family="sans-serif" font-size="14" lengthAdjust="spacing" textLength="145" x="13" y="322.7617">+agendaRepository()</text></g><!--class AgendaController--><g id="elem_AgendaController"><rect codeLine="27" fill="#F1F1F1" height="48" id="AgendaController" rx="2.5" ry="2.5" style="stroke:#181818;stroke-width:0.5;" width="155" x="113" y="115"/><ellipse cx="128" cy="131" fill="#ADD1B2" rx="11" ry="11" style="stroke:#181818;stroke-width:1.0;"/><path d="M130.9731,136.6431 Q130.3921,136.9419 129.7529,137.0913 Q129.1138,137.2407 128.4082,137.2407 Q125.9014,137.2407 124.5815,135.5889 Q123.2617,133.937 123.2617,130.8159 Q123.2617,127.6865 124.5815,126.0347 Q125.9014,124.3828 128.4082,124.3828 Q129.1138,124.3828 129.7612,124.5322 Q130.4087,124.6816 130.9731,124.9805 L130.9731,127.7031 Q130.3423,127.1221 129.7488,126.8523 Q129.1553,126.5825 128.5244,126.5825 Q127.1797,126.5825 126.4949,127.6492 Q125.8101,128.7158 125.8101,130.8159 Q125.8101,132.9077 126.4949,133.9744 Q127.1797,135.041 128.5244,135.041 Q129.1553,135.041 129.7488,134.7712 Q130.3423,134.5015 130.9731,133.9204 Z " fill="#000000"/><text fill="#000000" font-family="sans-serif" font-size="14" lengthAdjust="spacing" textLength="123" x="142" y="136.291">AgendaController</text><line style="stroke:#181818;stroke-width:0.5;" x1="114" x2="267" y1="147" y2="147"/><line style="stroke:#181818;stroke-width:0.5;" x1="114" x2="267" y1="155" y2="155"/></g><!--class GSM--><g id="elem_GSM"><rect codeLine="32" fill="#F1F1F1" height="113.9531" id="GSM" rx="2.5" ry="2.5" style="stroke:#181818;stroke-width:0.5;" width="175" x="351" y="224"/><ellipse cx="419.25" cy="240" fill="#ADD1B2" rx="11" ry="11" style="stroke:#181818;stroke-width:1.0;"/><path d="M422.2231,245.6431 Q421.6421,245.9419 421.0029,246.0913 Q420.3638,246.2407 419.6582,246.2407 Q417.1514,246.2407 415.8315,244.5889 Q414.5117,242.937 414.5117,239.8159 Q414.5117,236.6865 415.8315,235.0347 Q417.1514,233.3828 419.6582,233.3828 Q420.3638,233.3828 421.0112,233.5322 Q421.6587,233.6816 422.2231,233.9805 L422.2231,236.7031 Q421.5923,236.1221 420.9988,235.8523 Q420.4053,235.5825 419.7744,235.5825 Q418.4297,235.5825 417.7449,236.6492 Q417.0601,237.7158 417.0601,239.8159 Q417.0601,241.9077 417.7449,242.9744 Q418.4297,244.041 419.7744,244.041 Q420.4053,244.041 420.9988,243.7712 Q421.5923,243.5015 422.2231,242.9204 Z " fill="#000000"/><text fill="#000000" font-family="sans-serif" font-size="14" lengthAdjust="spacing" textLength="30" x="439.75" y="245.291">GSM</text><line style="stroke:#181818;stroke-width:0.5;" x1="352" x2="525" y1="256" y2="256"/><text fill="#000000" font-family="sans-serif" font-size="14" lengthAdjust="spacing" textLength="38" x="357" y="273.5352">name</text><text fill="#000000" font-family="sans-serif" font-size="14" lengthAdjust="spacing" textLength="37" x="357" y="290.0234">email</text><text fill="#000000" font-family="sans-serif" font-size="14" lengthAdjust="spacing" textLength="102" x="357" y="306.5117">phone number</text><text fill="#000000" font-family="sans-serif" font-size="14" lengthAdjust="spacing" textLength="163" x="357" y="323">identification document</text><line style="stroke:#181818;stroke-width:0.5;" x1="352" x2="525" y1="329.9531" y2="329.9531"/></g><!--class Entry--><g id="elem_Entry"><rect codeLine="40" fill="#F1F1F1" height="113.9531" id="Entry" rx="2.5" ry="2.5" style="stroke:#181818;stroke-width:0.5;" width="69" x="322" y="414.96"/><ellipse cx="337.9" cy="430.96" fill="#ADD1B2" rx="11" ry="11" style="stroke:#181818;stroke-width:1.0;"/><path d="M340.8731,436.6031 Q340.2921,436.9019 339.6529,437.0513 Q339.0138,437.2007 338.3082,437.2007 Q335.8014,437.2007 334.4815,435.5489 Q333.1617,433.897 333.1617,430.7759 Q333.1617,427.6465 334.4815,425.9947 Q335.8014,424.3428 338.3082,424.3428 Q339.0138,424.3428 339.6612,424.4922 Q340.3087,424.6416 340.8731,424.9405 L340.8731,427.6631 Q340.2423,427.0821 339.6488,426.8123 Q339.0553,426.5425 338.4244,426.5425 Q337.0797,426.5425 336.3949,427.6092 Q335.7101,428.6758 335.7101,430.7759 Q335.7101,432.8677 336.3949,433.9344 Q337.0797,435.001 338.4244,435.001 Q339.0553,435.001 339.6488,434.7312 Q340.2423,434.4615 340.8731,433.8804 Z " fill="#000000"/><text fill="#000000" font-family="sans-serif" font-size="14" lengthAdjust="spacing" textLength="35" x="352.1" y="436.251">Entry</text><line style="stroke:#181818;stroke-width:0.5;" x1="323" x2="390" y1="446.96" y2="446.96"/><text fill="#000000" font-family="sans-serif" font-size="14" lengthAdjust="spacing" textLength="49" x="328" y="464.4952">entryID</text><text fill="#000000" font-family="sans-serif" font-size="14" lengthAdjust="spacing" textLength="28" x="328" y="480.9834">task</text><text fill="#000000" font-family="sans-serif" font-size="14" lengthAdjust="spacing" textLength="57" x="328" y="497.4717">dueDate</text><text fill="#000000" font-family="sans-serif" font-size="14" lengthAdjust="spacing" textLength="41" x="328" y="513.96">status</text><line style="stroke:#181818;stroke-width:0.5;" x1="323" x2="390" y1="520.9131" y2="520.9131"/></g><!--class Agenda--><g id="elem_Agenda"><rect fill="#F1F1F1" height="48" id="Agenda" rx="2.5" ry="2.5" style="stroke:#181818;stroke-width:0.5;" width="85" x="263" y="605.91"/><ellipse cx="278" cy="621.91" fill="#ADD1B2" rx="11" ry="11" style="stroke:#181818;stroke-width:1.0;"/><path d="M280.9731,627.5531 Q280.3921,627.8519 279.7529,628.0013 Q279.1138,628.1507 278.4082,628.1507 Q275.9014,628.1507 274.5815,626.4989 Q273.2617,624.847 273.2617,621.7259 Q273.2617,618.5965 274.5815,616.9447 Q275.9014,615.2928 278.4082,615.2928 Q279.1138,615.2928 279.7612,615.4422 Q280.4087,615.5916 280.9731,615.8905 L280.9731,618.6131 Q280.3423,618.0321 279.7488,617.7623 Q279.1553,617.4925 278.5244,617.4925 Q277.1797,617.4925 276.4949,618.5592 Q275.8101,619.6258 275.8101,621.7259 Q275.8101,623.8177 276.4949,624.8844 Q277.1797,625.951 278.5244,625.951 Q279.1553,625.951 279.7488,625.6812 Q280.3423,625.4115 280.9731,624.8304 Z " fill="#000000"/><text fill="#000000" font-family="sans-serif" font-size="14" lengthAdjust="spacing" textLength="53" x="292" y="627.201">Agenda</text><line style="stroke:#181818;stroke-width:0.5;" x1="264" x2="347" y1="637.91" y2="637.91"/><line style="stroke:#181818;stroke-width:0.5;" x1="264" x2="347" y1="645.91" y2="645.91"/></g><!--class Team--><g id="elem_Team"><rect fill="#F1F1F1" height="48" id="Team" rx="2.5" ry="2.5" style="stroke:#181818;stroke-width:0.5;" width="70" x="428.5" y="447.93"/><ellipse cx="443.5" cy="463.93" fill="#ADD1B2" rx="11" ry="11" style="stroke:#181818;stroke-width:1.0;"/><path d="M446.4731,469.5731 Q445.8921,469.8719 445.2529,470.0213 Q444.6138,470.1707 443.9082,470.1707 Q441.4014,470.1707 440.0815,468.5189 Q438.7617,466.867 438.7617,463.7459 Q438.7617,460.6165 440.0815,458.9647 Q441.4014,457.3128 443.9082,457.3128 Q444.6138,457.3128 445.2612,457.4622 Q445.9087,457.6116 446.4731,457.9105 L446.4731,460.6331 Q445.8423,460.0521 445.2488,459.7823 Q444.6553,459.5125 444.0244,459.5125 Q442.6797,459.5125 441.9949,460.5792 Q441.3101,461.6458 441.3101,463.7459 Q441.3101,465.8377 441.9949,466.9044 Q442.6797,467.971 444.0244,467.971 Q444.6553,467.971 445.2488,467.7012 Q445.8423,467.4315 446.4731,466.8504 Z " fill="#000000"/><text fill="#000000" font-family="sans-serif" font-size="14" lengthAdjust="spacing" textLength="38" x="457.5" y="469.221">Team</text><line style="stroke:#181818;stroke-width:0.5;" x1="429.5" x2="497.5" y1="479.93" y2="479.93"/><line style="stroke:#181818;stroke-width:0.5;" x1="429.5" x2="497.5" y1="487.93" y2="487.93"/></g><!--link AssignTeamToEntryUI to AgendaController--><g id="link_AssignTeamToEntryUI_AgendaController"><path codeLine="49" d="M190.5,55.27 C190.5,72.94 190.5,91.14 190.5,108.8 " fill="none" id="AssignTeamToEntryUI-to-AgendaController" style="stroke:#181818;stroke-width:1.0;"/><polygon fill="#181818" points="190.5,114.8,194.5,105.8,190.5,109.8,186.5,105.8,190.5,114.8" style="stroke:#181818;stroke-width:1.0;"/></g><!--link Repositories to agendaRepository--><g id="link_Repositories_agendaRepository"><path codeLine="50" d="M115.83,330.15 C118.65,361.42 121.7325,395.7041 124.3825,425.1641 " fill="none" id="Repositories-to-agendaRepository" style="stroke:#181818;stroke-width:1.0;"/><polygon fill="#181818" points="124.92,431.14,128.0976,421.8178,124.472,426.1601,120.1298,422.5346,124.92,431.14" style="stroke:#181818;stroke-width:1.0;"/></g><!--link AgendaController to Repositories--><g id="link_AgendaController_Repositories"><path codeLine="51" d="M177.28,163.43 C166.78,182.03 154.6976,203.4339 141.6576,226.5539 " fill="none" id="AgendaController-to-Repositories" style="stroke:#181818;stroke-width:1.0;"/><polygon fill="#181818" points="138.71,231.78,146.6154,225.9059,141.1663,227.4249,139.6473,221.9758,138.71,231.78" style="stroke:#181818;stroke-width:1.0;"/></g><!--link agendaRepository to Agenda--><g id="link_agendaRepository_Agenda"><path codeLine="52" d="M172.96,512.75 C205.32,541.72 243.5,575.91 243.5,575.91 C243.5,575.91 256.9594,587.4111 273.5694,601.6111 " fill="none" id="agendaRepository-to-Agenda" style="stroke:#181818;stroke-width:1.0;"/><polygon fill="#181818" points="278.13,605.51,273.8884,596.6213,274.3295,602.2609,268.6899,602.7021,278.13,605.51" style="stroke:#181818;stroke-width:1.0;"/></g><!--link AgendaController to Agenda--><g id="link_AgendaController_Agenda"><path codeLine="53" d="M202.48,163.4 C215.2,188.26 233.5,224 233.5,224 C233.5,224 285.0195,513.7427 300.3195,599.7827 " fill="none" id="AgendaController-to-Agenda" style="stroke:#181818;stroke-width:1.0;"/><polygon fill="#181818" points="301.37,605.69,303.7325,596.1287,300.4946,600.7672,295.8561,597.5293,301.37,605.69" style="stroke:#181818;stroke-width:1.0;"/></g><!--link Entry to Agenda--><g id="link_Entry_Agenda"><path codeLine="54" d="M338.09,529.24 C329.47,555.6 319.68,585.54 313.1,605.66 " fill="none" id="Entry-Agenda" style="stroke:#181818;stroke-width:1.0;"/><polygon fill="#000000" points="330.9459,572.3176,336.5506,564.634,330.9639,562.8071,330.9459,572.3176" style="stroke:#000000;stroke-width:1.0;"/><text fill="#000000" font-family="sans-serif" font-size="13" lengthAdjust="spacing" textLength="52" x="341.5" y="572.4784">saved in</text><text fill="#000000" font-family="sans-serif" font-size="13" lengthAdjust="spacing" textLength="8" x="327.4988" y="549.3192">1</text><text fill="#000000" font-family="sans-serif" font-size="13" lengthAdjust="spacing" textLength="6" x="308.2788" y="595.1322">*</text></g><!--link Team to Agenda--><g id="link_Team_Agenda"><path codeLine="55" d="M449.66,496.3 C431.66,526.68 402.5,575.91 402.5,575.91 C402.5,575.91 374.31,591.31 348.33,605.51 " fill="none" id="Team-Agenda" style="stroke:#181818;stroke-width:1.0;"/><polygon fill="#000000" points="412.0992,571.2306,420.4057,566.5989,416.0969,562.601,412.0992,571.2306" style="stroke:#000000;stroke-width:1.0;"/><text fill="#000000" font-family="sans-serif" font-size="13" lengthAdjust="spacing" textLength="52" x="424.5" y="572.4784">saved in</text><text fill="#000000" font-family="sans-serif" font-size="13" lengthAdjust="spacing" textLength="8" x="437.3115" y="516.6745">1</text><text fill="#000000" font-family="sans-serif" font-size="13" lengthAdjust="spacing" textLength="6" x="352.0386" y="595.3406">*</text></g><!--link GSM to Entry--><g id="link_GSM_Entry"><path codeLine="56" d="M394.56,338.37 C381.93,354.57 371.5,367.96 371.5,367.96 C371.5,367.96 368.2,390.58 364.7,414.62 " fill="none" id="GSM-Entry" style="stroke:#181818;stroke-width:1.0;"/><polygon fill="#000000" points="374.6768,381.271,380.7116,373.9204,375.2384,371.777,374.6768,381.271" style="stroke:#000000;stroke-width:1.0;"/><text fill="#000000" font-family="sans-serif" font-size="13" lengthAdjust="spacing" textLength="55" x="385.5" y="381.5284">registers</text><text fill="#000000" font-family="sans-serif" font-size="13" lengthAdjust="spacing" textLength="8" x="381.0169" y="358.4596">1</text><text fill="#000000" font-family="sans-serif" font-size="13" lengthAdjust="spacing" textLength="6" x="359.3338" y="404.3078">*</text></g><!--link GSM to Team--><g id="link_GSM_Team"><path codeLine="57" d="M445.97,338.42 C450.8,374.96 456.84,420.61 460.42,447.68 " fill="none" id="GSM-Team" style="stroke:#181818;stroke-width:1.0;"/><polygon fill="#000000" points="457.1556,381.5721,458.8832,372.2198,453.0561,372.9904,457.1556,381.5721" style="stroke:#000000;stroke-width:1.0;"/><text fill="#000000" font-family="sans-serif" font-size="13" lengthAdjust="spacing" textLength="48" x="465.5" y="381.5284">assigns</text><text fill="#000000" font-family="sans-serif" font-size="13" lengthAdjust="spacing" textLength="8" x="438.3712" y="358.5154">1</text><text fill="#000000" font-family="sans-serif" font-size="13" lengthAdjust="spacing" textLength="6" x="452.862" y="437.1522">*</text></g><!--SRC=[XL91J-im3BxdLtYz3DxJ9BXoG4BmzBG35mRSG-grrjAuIbnGGVntahIitPX4Jew_pvy_Erc67RbMUzr0muvDxRb14D-Xcf1McvskS2EzHV1eHBlApWcXrYM_aQjWgssO8vOSIjyYj6pxT57B4o1xOJMhCbQ7S2FYwQKJN1js6tf7k51gQN4h80oUgbgWf6I7s4K4Nh4c4nq-OCk1X7qFYyNYKcKrY0EuKa_OXu9u_bOepqFT10s8nug2e1zXzQb6fPiGg7AFg9j7_kV4zq_h3pN1Unt204ENrK7ox7ne0B7tseMuJODdvt1rG1efnwvZxUGZOxSSBR2rwAE92Vo_kHzwEzrW3h3HP7FKrkmGNDUyeCy9Aj49RSdej4iesNHDp2IrKIxFEGXY2jTtEKv7TDZjBsM7TrfmVu_JIHUoa3gnDrYjhd_CeGusc1Z7Mr379PbriBxZabcdqzKZber1SLd491H_YZ4VNoVeLoo175ohDCDldFW0SygWUmNVlohyf1H9jeWSdHUL64fz0G00]--></g></svg>