<?xml version="1.0" encoding="us-ascii" standalone="no"?><svg xmlns="http://www.w3.org/2000/svg" xmlns:xlink="http://www.w3.org/1999/xlink" contentStyleType="text/css" height="870px" preserveAspectRatio="none" style="width:2084px;height:870px;background:#FFFFFF;" version="1.1" viewBox="0 0 2084 870" width="2084px" zoomAndPan="magnify"><defs/><g><rect fill="#FFFFFF" height="679.6309" style="stroke:#181818;stroke-width:1.0;" width="10" x="96.5" y="91.4883"/><rect fill="#FFFFFF" height="305.2832" style="stroke:#181818;stroke-width:1.0;" width="10" x="1151.5" y="112.7988"/><rect fill="#FFFFFF" height="29.3105" style="stroke:#181818;stroke-width:1.0;" width="10" x="1151.5" y="447.3926"/><rect fill="#FFFFFF" height="29.3105" style="stroke:#181818;stroke-width:1.0;" width="10" x="1151.5" y="506.0137"/><rect fill="#FFFFFF" height="206.4844" style="stroke:#181818;stroke-width:1.0;" width="10" x="1151.5" y="564.6348"/><rect fill="#FFFFFF" height="205.1738" style="stroke:#181818;stroke-width:1.0;" width="10" x="1353.5" y="183.5977"/><rect fill="#FFFFFF" height="29.3105" style="stroke:#181818;stroke-width:1.0;" width="10" x="1547.5" y="212.9082"/><rect fill="#FFFFFF" height="29.3105" style="stroke:#181818;stroke-width:1.0;" width="10" x="1547.5" y="271.5293"/><rect fill="#FFFFFF" height="87.9316" style="stroke:#181818;stroke-width:1.0;" width="10" x="1547.5" y="624.5664"/><rect fill="#FFFFFF" height="29.3105" style="stroke:#181818;stroke-width:1.0;" width="10" x="1665.5" y="330.1504"/><rect fill="#FFFFFF" height="29.3105" style="stroke:#181818;stroke-width:1.0;" width="10" x="1819" y="653.877"/><rect fill="#FFFFFF" height="29.3105" style="stroke:#181818;stroke-width:1.0;" width="10" x="1994.5" y="712.498"/><line style="stroke:#181818;stroke-width:0.5;stroke-dasharray:5.0,5.0;" x1="101" x2="101" y1="81.4883" y2="789.1191"/><line style="stroke:#181818;stroke-width:0.5;stroke-dasharray:5.0,5.0;" x1="1156.5" x2="1156.5" y1="81.4883" y2="789.1191"/><line style="stroke:#181818;stroke-width:0.5;stroke-dasharray:5.0,5.0;" x1="1358.5" x2="1358.5" y1="151.543" y2="789.1191"/><line style="stroke:#181818;stroke-width:0.5;stroke-dasharray:5.0,5.0;" x1="1552" x2="1552" y1="81.4883" y2="789.1191"/><line style="stroke:#181818;stroke-width:0.5;stroke-dasharray:5.0,5.0;" x1="1670" x2="1670" y1="81.4883" y2="789.1191"/><line style="stroke:#181818;stroke-width:0.5;stroke-dasharray:5.0,5.0;" x1="1824" x2="1824" y1="81.4883" y2="789.1191"/><line style="stroke:#181818;stroke-width:0.5;stroke-dasharray:5.0,5.0;" x1="1999" x2="1999" y1="81.4883" y2="789.1191"/><text fill="#000000" font-family="sans-serif" font-size="14" lengthAdjust="spacing" textLength="187" x="5" y="78.5352">Human Resources Manager</text><ellipse cx="101.5" cy="13.5" fill="#E3E3E3" rx="8" ry="8" style="stroke:#181818;stroke-width:0.5;"/><path d="M101.5,21.5 L101.5,48.5 M88.5,29.5 L114.5,29.5 M101.5,48.5 L88.5,63.5 M101.5,48.5 L114.5,63.5 " fill="none" style="stroke:#181818;stroke-width:0.5;"/><text fill="#000000" font-family="sans-serif" font-size="14" lengthAdjust="spacing" textLength="187" x="5" y="801.6543">Human Resources Manager</text><ellipse cx="101.5" cy="813.1074" fill="#E3E3E3" rx="8" ry="8" style="stroke:#181818;stroke-width:0.5;"/><path d="M101.5,821.1074 L101.5,848.1074 M88.5,829.1074 L114.5,829.1074 M101.5,848.1074 L88.5,863.1074 M101.5,848.1074 L114.5,863.1074 " fill="none" style="stroke:#181818;stroke-width:0.5;"/><rect fill="#E3E3E3" height="30.4883" rx="2.5" ry="2.5" style="stroke:#181818;stroke-width:0.5;" width="164" x="1074.5" y="50"/><text fill="#000000" font-family="sans-serif" font-size="14" lengthAdjust="spacing" textLength="150" x="1081.5" y="70.5352">:CreateCollaboratorUI</text><rect fill="#E3E3E3" height="30.4883" rx="2.5" ry="2.5" style="stroke:#181818;stroke-width:0.5;" width="164" x="1074.5" y="788.1191"/><text fill="#000000" font-family="sans-serif" font-size="14" lengthAdjust="spacing" textLength="150" x="1081.5" y="808.6543">:CreateCollaboratorUI</text><rect fill="#E3E3E3" height="30.4883" rx="2.5" ry="2.5" style="stroke:#181818;stroke-width:0.5;" width="220" x="1248.5" y="788.1191"/><text fill="#000000" font-family="sans-serif" font-size="14" lengthAdjust="spacing" textLength="206" x="1255.5" y="808.6543">:CreateCollaboratorController</text><rect fill="#E3E3E3" height="30.4883" rx="2.5" ry="2.5" style="stroke:#181818;stroke-width:0.5;" width="103" x="1501" y="50"/><text fill="#000000" font-family="sans-serif" font-size="14" lengthAdjust="spacing" textLength="89" x="1508" y="70.5352">:Repositories</text><rect fill="#E3E3E3" height="30.4883" rx="2.5" ry="2.5" style="stroke:#181818;stroke-width:0.5;" width="103" x="1501" y="788.1191"/><text fill="#000000" font-family="sans-serif" font-size="14" lengthAdjust="spacing" textLength="89" x="1508" y="808.6543">:Repositories</text><rect fill="#E3E3E3" height="46.9766" rx="2.5" ry="2.5" style="stroke:#181818;stroke-width:0.5;" width="113" x="1614" y="33.5117"/><text fill="#000000" font-family="sans-serif" font-size="14" lengthAdjust="spacing" textLength="99" x="1621" y="54.0469">jobRepository:</text><text fill="#000000" font-family="sans-serif" font-size="14" lengthAdjust="spacing" textLength="95" x="1623" y="70.5352">jobRepository</text><rect fill="#E3E3E3" height="46.9766" rx="2.5" ry="2.5" style="stroke:#181818;stroke-width:0.5;" width="113" x="1614" y="788.1191"/><text fill="#000000" font-family="sans-serif" font-size="14" lengthAdjust="spacing" textLength="99" x="1621" y="808.6543">jobRepository:</text><text fill="#000000" font-family="sans-serif" font-size="14" lengthAdjust="spacing" textLength="95" x="1623" y="825.1426">jobRepository</text><rect fill="#E3E3E3" height="30.4883" rx="2.5" ry="2.5" style="stroke:#181818;stroke-width:0.5;" width="174" x="1737" y="50"/><text fill="#000000" font-family="sans-serif" font-size="14" lengthAdjust="spacing" textLength="160" x="1744" y="70.5352">CollaboratorRepository</text><rect fill="#E3E3E3" height="30.4883" rx="2.5" ry="2.5" style="stroke:#181818;stroke-width:0.5;" width="174" x="1737" y="788.1191"/><text fill="#000000" font-family="sans-serif" font-size="14" lengthAdjust="spacing" textLength="160" x="1744" y="808.6543">CollaboratorRepository</text><rect fill="#E3E3E3" height="30.4883" rx="2.5" ry="2.5" style="stroke:#181818;stroke-width:0.5;" width="157" x="1921" y="50"/><text fill="#000000" font-family="sans-serif" font-size="14" lengthAdjust="spacing" textLength="143" x="1928" y="70.5352">RegisterCollaborator</text><rect fill="#E3E3E3" height="30.4883" rx="2.5" ry="2.5" style="stroke:#181818;stroke-width:0.5;" width="157" x="1921" y="788.1191"/><text fill="#000000" font-family="sans-serif" font-size="14" lengthAdjust="spacing" textLength="143" x="1928" y="808.6543">RegisterCollaborator</text><rect fill="#FFFFFF" height="679.6309" style="stroke:#181818;stroke-width:1.0;" width="10" x="96.5" y="91.4883"/><rect fill="#FFFFFF" height="305.2832" style="stroke:#181818;stroke-width:1.0;" width="10" x="1151.5" y="112.7988"/><rect fill="#FFFFFF" height="29.3105" style="stroke:#181818;stroke-width:1.0;" width="10" x="1151.5" y="447.3926"/><rect fill="#FFFFFF" height="29.3105" style="stroke:#181818;stroke-width:1.0;" width="10" x="1151.5" y="506.0137"/><rect fill="#FFFFFF" height="206.4844" style="stroke:#181818;stroke-width:1.0;" width="10" x="1151.5" y="564.6348"/><rect fill="#FFFFFF" height="205.1738" style="stroke:#181818;stroke-width:1.0;" width="10" x="1353.5" y="183.5977"/><rect fill="#FFFFFF" height="29.3105" style="stroke:#181818;stroke-width:1.0;" width="10" x="1547.5" y="212.9082"/><rect fill="#FFFFFF" height="29.3105" style="stroke:#181818;stroke-width:1.0;" width="10" x="1547.5" y="271.5293"/><rect fill="#FFFFFF" height="87.9316" style="stroke:#181818;stroke-width:1.0;" width="10" x="1547.5" y="624.5664"/><rect fill="#FFFFFF" height="29.3105" style="stroke:#181818;stroke-width:1.0;" width="10" x="1665.5" y="330.1504"/><rect fill="#FFFFFF" height="29.3105" style="stroke:#181818;stroke-width:1.0;" width="10" x="1819" y="653.877"/><rect fill="#FFFFFF" height="29.3105" style="stroke:#181818;stroke-width:1.0;" width="10" x="1994.5" y="712.498"/><polygon fill="#181818" points="1139.5,108.7988,1149.5,112.7988,1139.5,116.7988,1143.5,112.7988" style="stroke:#181818;stroke-width:1.0;"/><line style="stroke:#181818;stroke-width:1.0;" x1="106.5" x2="1145.5" y1="112.7988" y2="112.7988"/><text fill="#000000" font-family="sans-serif" font-size="13" font-weight="bold" lengthAdjust="spacing" textLength="9" x="113.5" y="108.0566">1</text><text fill="#000000" font-family="sans-serif" font-size="13" lengthAdjust="spacing" textLength="189" x="126.5" y="108.0566">asks to register a collaborator</text><polygon fill="#181818" points="1236.5,138.1094,1246.5,142.1094,1236.5,146.1094,1240.5,142.1094" style="stroke:#181818;stroke-width:1.0;"/><line style="stroke:#181818;stroke-width:1.0;" x1="1161.5" x2="1242.5" y1="142.1094" y2="142.1094"/><text fill="#000000" font-family="sans-serif" font-size="13" font-weight="bold" lengthAdjust="spacing" textLength="9" x="1168.5" y="137.3672">2</text><text fill="#000000" font-family="sans-serif" font-size="13" lengthAdjust="spacing" textLength="38" x="1181.5" y="137.3672">create</text><rect fill="#E3E3E3" height="30.4883" rx="2.5" ry="2.5" style="stroke:#181818;stroke-width:0.5;" width="220" x="1248.5" y="120.7988"/><text fill="#000000" font-family="sans-serif" font-size="14" lengthAdjust="spacing" textLength="206" x="1255.5" y="141.334">:CreateCollaboratorController</text><polygon fill="#181818" points="1341.5,179.5977,1351.5,183.5977,1341.5,187.5977,1345.5,183.5977" style="stroke:#181818;stroke-width:1.0;"/><line style="stroke:#181818;stroke-width:1.0;" x1="1161.5" x2="1347.5" y1="183.5977" y2="183.5977"/><text fill="#000000" font-family="sans-serif" font-size="13" font-weight="bold" lengthAdjust="spacing" textLength="9" x="1168.5" y="178.8555">3</text><text fill="#000000" font-family="sans-serif" font-size="13" lengthAdjust="spacing" textLength="63" x="1181.5" y="178.8555">getJobList</text><polygon fill="#181818" points="1535.5,208.9082,1545.5,212.9082,1535.5,216.9082,1539.5,212.9082" style="stroke:#181818;stroke-width:1.0;"/><line style="stroke:#181818;stroke-width:1.0;" x1="1363.5" x2="1541.5" y1="212.9082" y2="212.9082"/><text fill="#000000" font-family="sans-serif" font-size="13" font-weight="bold" lengthAdjust="spacing" textLength="9" x="1370.5" y="208.166">4</text><text fill="#000000" font-family="sans-serif" font-size="13" lengthAdjust="spacing" textLength="81" x="1383.5" y="208.166">getInstance()</text><polygon fill="#181818" points="1374.5,238.2188,1364.5,242.2188,1374.5,246.2188,1370.5,242.2188" style="stroke:#181818;stroke-width:1.0;"/><line style="stroke:#181818;stroke-width:1.0;stroke-dasharray:2.0,2.0;" x1="1368.5" x2="1551.5" y1="242.2188" y2="242.2188"/><text fill="#000000" font-family="sans-serif" font-size="13" font-weight="bold" lengthAdjust="spacing" textLength="9" x="1380.5" y="237.4766">5</text><text fill="#000000" font-family="sans-serif" font-size="13" lengthAdjust="spacing" textLength="75" x="1393.5" y="237.4766">repositories</text><polygon fill="#181818" points="1535.5,267.5293,1545.5,271.5293,1535.5,275.5293,1539.5,271.5293" style="stroke:#181818;stroke-width:1.0;"/><line style="stroke:#181818;stroke-width:1.0;" x1="1363.5" x2="1541.5" y1="271.5293" y2="271.5293"/><text fill="#000000" font-family="sans-serif" font-size="13" font-weight="bold" lengthAdjust="spacing" textLength="9" x="1370.5" y="266.7871">6</text><text fill="#000000" font-family="sans-serif" font-size="13" lengthAdjust="spacing" textLength="115" x="1383.5" y="266.7871">getJobRepository()</text><polygon fill="#181818" points="1374.5,296.8398,1364.5,300.8398,1374.5,304.8398,1370.5,300.8398" style="stroke:#181818;stroke-width:1.0;"/><line style="stroke:#181818;stroke-width:1.0;stroke-dasharray:2.0,2.0;" x1="1368.5" x2="1551.5" y1="300.8398" y2="300.8398"/><text fill="#000000" font-family="sans-serif" font-size="13" font-weight="bold" lengthAdjust="spacing" textLength="9" x="1380.5" y="296.0977">7</text><text fill="#000000" font-family="sans-serif" font-size="13" lengthAdjust="spacing" textLength="87" x="1393.5" y="296.0977">jobRepository</text><polygon fill="#181818" points="1653.5,326.1504,1663.5,330.1504,1653.5,334.1504,1657.5,330.1504" style="stroke:#181818;stroke-width:1.0;"/><line style="stroke:#181818;stroke-width:1.0;" x1="1363.5" x2="1659.5" y1="330.1504" y2="330.1504"/><text fill="#000000" font-family="sans-serif" font-size="13" font-weight="bold" lengthAdjust="spacing" textLength="9" x="1370.5" y="325.4082">8</text><text fill="#000000" font-family="sans-serif" font-size="13" lengthAdjust="spacing" textLength="115" x="1383.5" y="325.4082">getJobCategories()</text><polygon fill="#181818" points="1374.5,355.4609,1364.5,359.4609,1374.5,363.4609,1370.5,359.4609" style="stroke:#181818;stroke-width:1.0;"/><line style="stroke:#181818;stroke-width:1.0;stroke-dasharray:2.0,2.0;" x1="1368.5" x2="1669.5" y1="359.4609" y2="359.4609"/><text fill="#000000" font-family="sans-serif" font-size="13" font-weight="bold" lengthAdjust="spacing" textLength="9" x="1380.5" y="354.7188">9</text><text fill="#000000" font-family="sans-serif" font-size="13" lengthAdjust="spacing" textLength="43" x="1393.5" y="354.7188">jobList</text><polygon fill="#181818" points="1172.5,384.7715,1162.5,388.7715,1172.5,392.7715,1168.5,388.7715" style="stroke:#181818;stroke-width:1.0;"/><line style="stroke:#181818;stroke-width:1.0;stroke-dasharray:2.0,2.0;" x1="1166.5" x2="1357.5" y1="388.7715" y2="388.7715"/><text fill="#000000" font-family="sans-serif" font-size="13" font-weight="bold" lengthAdjust="spacing" textLength="18" x="1178.5" y="384.0293">10</text><text fill="#000000" font-family="sans-serif" font-size="13" lengthAdjust="spacing" textLength="43" x="1200.5" y="384.0293">jobList</text><polygon fill="#181818" points="117.5,414.082,107.5,418.082,117.5,422.082,113.5,418.082" style="stroke:#181818;stroke-width:1.0;"/><line style="stroke:#181818;stroke-width:1.0;stroke-dasharray:2.0,2.0;" x1="111.5" x2="1155.5" y1="418.082" y2="418.082"/><text fill="#000000" font-family="sans-serif" font-size="13" font-weight="bold" lengthAdjust="spacing" textLength="18" x="123.5" y="413.3398">11</text><text fill="#000000" font-family="sans-serif" font-size="13" lengthAdjust="spacing" textLength="129" x="145.5" y="413.3398">show the list of jobs</text><polygon fill="#181818" points="1139.5,443.3926,1149.5,447.3926,1139.5,451.3926,1143.5,447.3926" style="stroke:#181818;stroke-width:1.0;"/><line style="stroke:#181818;stroke-width:1.0;" x1="106.5" x2="1145.5" y1="447.3926" y2="447.3926"/><text fill="#000000" font-family="sans-serif" font-size="13" font-weight="bold" lengthAdjust="spacing" textLength="18" x="113.5" y="442.6504">12</text><text fill="#000000" font-family="sans-serif" font-size="13" lengthAdjust="spacing" textLength="79" x="135.5" y="442.6504">selects a job</text><polygon fill="#181818" points="117.5,472.7031,107.5,476.7031,117.5,480.7031,113.5,476.7031" style="stroke:#181818;stroke-width:1.0;"/><line style="stroke:#181818;stroke-width:1.0;stroke-dasharray:2.0,2.0;" x1="111.5" x2="1155.5" y1="476.7031" y2="476.7031"/><text fill="#000000" font-family="sans-serif" font-size="13" font-weight="bold" lengthAdjust="spacing" textLength="18" x="123.5" y="471.9609">13</text><text fill="#000000" font-family="sans-serif" font-size="13" lengthAdjust="spacing" textLength="999" x="145.5" y="471.9609">asks about fundamental characteristics (name, birth details, issuing details, address, contact (telephone and email), identification document and your number)</text><polygon fill="#181818" points="1139.5,502.0137,1149.5,506.0137,1139.5,510.0137,1143.5,506.0137" style="stroke:#181818;stroke-width:1.0;"/><line style="stroke:#181818;stroke-width:1.0;" x1="106.5" x2="1145.5" y1="506.0137" y2="506.0137"/><text fill="#000000" font-family="sans-serif" font-size="13" font-weight="bold" lengthAdjust="spacing" textLength="18" x="113.5" y="501.2715">14</text><text fill="#000000" font-family="sans-serif" font-size="13" lengthAdjust="spacing" textLength="67" x="135.5" y="501.2715">insert data</text><polygon fill="#181818" points="117.5,531.3242,107.5,535.3242,117.5,539.3242,113.5,535.3242" style="stroke:#181818;stroke-width:1.0;"/><line style="stroke:#181818;stroke-width:1.0;stroke-dasharray:2.0,2.0;" x1="111.5" x2="1155.5" y1="535.3242" y2="535.3242"/><text fill="#000000" font-family="sans-serif" font-size="13" font-weight="bold" lengthAdjust="spacing" textLength="18" x="123.5" y="530.582">15</text><text fill="#000000" font-family="sans-serif" font-size="13" lengthAdjust="spacing" textLength="260" x="145.5" y="530.582">shows all data and requests confirmation</text><polygon fill="#181818" points="1139.5,560.6348,1149.5,564.6348,1139.5,568.6348,1143.5,564.6348" style="stroke:#181818;stroke-width:1.0;"/><line style="stroke:#181818;stroke-width:1.0;" x1="106.5" x2="1145.5" y1="564.6348" y2="564.6348"/><text fill="#000000" font-family="sans-serif" font-size="13" font-weight="bold" lengthAdjust="spacing" textLength="18" x="113.5" y="559.8926">16</text><text fill="#000000" font-family="sans-serif" font-size="13" lengthAdjust="spacing" textLength="87" x="135.5" y="559.8926">confirms data</text><polygon fill="#181818" points="1535.5,620.5664,1545.5,624.5664,1535.5,628.5664,1539.5,624.5664" style="stroke:#181818;stroke-width:1.0;"/><line style="stroke:#181818;stroke-width:1.0;" x1="1161.5" x2="1541.5" y1="624.5664" y2="624.5664"/><text fill="#000000" font-family="sans-serif" font-size="13" font-weight="bold" lengthAdjust="spacing" textLength="18" x="1168.5" y="604.5137">17</text><text fill="#000000" font-family="sans-serif" font-size="13" lengthAdjust="spacing" textLength="341" x="1190.5" y="589.2031">registerCollaborator(name, birth date, admission date,</text><text fill="#000000" font-family="sans-serif" font-size="13" lengthAdjust="spacing" textLength="257" x="1194.5" y="604.5137">address, contact info (mobile and email),</text><text fill="#000000" font-family="sans-serif" font-size="13" lengthAdjust="spacing" textLength="341" x="1194.5" y="619.8242">taxpayer number, ID doc type, and respective number)</text><polygon fill="#181818" points="1807,649.877,1817,653.877,1807,657.877,1811,653.877" style="stroke:#181818;stroke-width:1.0;"/><line style="stroke:#181818;stroke-width:1.0;" x1="1557.5" x2="1813" y1="653.877" y2="653.877"/><text fill="#000000" font-family="sans-serif" font-size="13" font-weight="bold" lengthAdjust="spacing" textLength="18" x="1564.5" y="649.1348">18</text><text fill="#000000" font-family="sans-serif" font-size="13" lengthAdjust="spacing" textLength="134" x="1586.5" y="649.1348">registerCollaborator()</text><polygon fill="#181818" points="1568.5,679.1875,1558.5,683.1875,1568.5,687.1875,1564.5,683.1875" style="stroke:#181818;stroke-width:1.0;"/><line style="stroke:#181818;stroke-width:1.0;" x1="1562.5" x2="1823" y1="683.1875" y2="683.1875"/><text fill="#000000" font-family="sans-serif" font-size="13" font-weight="bold" lengthAdjust="spacing" textLength="18" x="1574.5" y="678.4453">19</text><text fill="#000000" font-family="sans-serif" font-size="13" lengthAdjust="spacing" textLength="78" x="1596.5" y="678.4453">Collaborator</text><polygon fill="#181818" points="1982.5,708.498,1992.5,712.498,1982.5,716.498,1986.5,712.498" style="stroke:#181818;stroke-width:1.0;"/><line style="stroke:#181818;stroke-width:1.0;" x1="1552.5" x2="1988.5" y1="712.498" y2="712.498"/><text fill="#000000" font-family="sans-serif" font-size="13" font-weight="bold" lengthAdjust="spacing" textLength="18" x="1559.5" y="707.7559">20</text><text fill="#000000" font-family="sans-serif" font-size="13" lengthAdjust="spacing" textLength="48" x="1581.5" y="707.7559">getJob()</text><polygon fill="#181818" points="1172.5,737.8086,1162.5,741.8086,1172.5,745.8086,1168.5,741.8086" style="stroke:#181818;stroke-width:1.0;"/><line style="stroke:#181818;stroke-width:1.0;stroke-dasharray:2.0,2.0;" x1="1166.5" x2="1998.5" y1="741.8086" y2="741.8086"/><text fill="#000000" font-family="sans-serif" font-size="13" font-weight="bold" lengthAdjust="spacing" textLength="18" x="1178.5" y="737.0664">21</text><text fill="#000000" font-family="sans-serif" font-size="13" lengthAdjust="spacing" textLength="162" x="1200.5" y="737.0664">registerJobToCollaborator</text><polygon fill="#181818" points="112.5,767.1191,102.5,771.1191,112.5,775.1191,108.5,771.1191" style="stroke:#181818;stroke-width:1.0;"/><line style="stroke:#181818;stroke-width:1.0;stroke-dasharray:2.0,2.0;" x1="106.5" x2="1155.5" y1="771.1191" y2="771.1191"/><text fill="#000000" font-family="sans-serif" font-size="13" font-weight="bold" lengthAdjust="spacing" textLength="18" x="118.5" y="766.377">22</text><text fill="#000000" font-family="sans-serif" font-size="13" lengthAdjust="spacing" textLength="170" x="140.5" y="766.377">displays operation success</text><!--SRC=[lLR1Rjim3BthAuXUcXJ93-HGO4WFIz5YHThUUb5aEbPZIvuehytVZv9Jnuxj9GE6wHH9v2FvGZsQTjgKqia22ckiofmj4BohK51pKqgrarjyzliSmQ7oqcppjW5bCh4VscmXbJcX4BBorbJ51fqGrvbE459h_SP-2gcyTN3rlIgaWJMIhPn2WaTfE8Ax0admxUvHCAxNIfVIUBXQB1rAZqkRvt9ZdMI4rrKqVLsTjLnQuntl3-3Bb_N3YSyQIqkQJJLIj6aEziywLCgrT5tUxUPeitWpdNs4U96qMt8cMpuuNdLHsbcUk3-lNhksQzngykZQFj7owSUJ485L_Ol3HUu471PlO7xB9C62JNS4tlBVLmE11DN2EZerKCojk8RMOfmvmmNK1UFyh90yGIAzX8d351qQXJD8a9JJfTVMp02qIQqhP0vlfdlZKML6Axxf72SLvnD_AKj-Aje9NAluxzR_uMbcj_7uvePpgyt4Y0aRRD7Vsyq34z6nQKgF0JfNOKLd1XbeZnfpPOYVXiB9jEVRG0_rLiywhA4eyqC9WVvZp_RS4_oxS6SBks_tzt-ehlEU_bbvms-ogV1mnOJ-gSAHXprOv4Z0-R4HtmUwyAJ4ImFMLNuzzo7W5cY_mJkFcpBx0Jv3o1a3R1hWZctMmWaQSQeqX3cF26A1OI_HavJ1W56TM8ig3sbb4bcWyQmCAkFnebYjE0sj22Q6RsQmqSvdd8QNEgSPQA8gp9xcG2Q9Gw8W8GoZF4myvrHcrY18am0MR3TbnuJ3w9H5A2WE95PL8N2qsVDWWdg4rTrmfcfj29sFQdXXpO5aBZhFQmaDGHjHvSHJpR8Pyhea-i6UBeW_zipTm8JfyireWTk2-OvqnJtBUe_keFamAUn6vrt2sTZBprBkyOlR6Qpk0l7WzsL0ZoHGYI5xxF1_NcV2kaXdRiDy7IjvEZmImaJkeGUOKKBRg6Fli8SwaYzF-KQdJZ8yeuOmgcJrbyEGReLeZP9yaSIHN-neJGFPrFZYSWawlHoMfmKacifSxWbiYVN70b2b-2kIXfvAQni-Zdu3]--></g></svg>