<?xml version="1.0" encoding="us-ascii" standalone="no"?><svg xmlns="http://www.w3.org/2000/svg" xmlns:xlink="http://www.w3.org/1999/xlink" contentStyleType="text/css" height="1636px" preserveAspectRatio="none" style="width:621px;height:1636px;background:#FFFFFF;" version="1.1" viewBox="0 0 621 1636" width="621px" zoomAndPan="magnify"><defs/><g><!--cluster actors--><g id="cluster_actors"><rect fill="none" height="475" rx="2.5" ry="2.5" style="stroke:#FFFFFF;stroke-width:1.0;" width="208" x="7" y="485"/><text fill="#000000" font-family="sans-serif" font-size="14" font-weight="bold" lengthAdjust="spacing" textLength="4" x="109" y="502.1074">&#160;</text></g><!--cluster usecases--><g id="cluster_usecases"><rect fill="none" height="1623" rx="2.5" ry="2.5" style="stroke:#FFFFFF;stroke-width:1.0;" width="372" x="243" y="7"/><text fill="#000000" font-family="sans-serif" font-size="14" font-weight="bold" lengthAdjust="spacing" textLength="4" x="427" y="24.1074">&#160;</text></g><!--entity Freelancer--><g id="elem_Freelancer"><ellipse cx="111" cy="531" fill="#F1F1F1" rx="8" ry="8" style="stroke:#181818;stroke-width:0.5;"/><path d="M111,539 L111,566 M98,547 L124,547 M111,566 L98,581 M111,566 L124,581 " fill="none" style="stroke:#181818;stroke-width:0.5;"/><text fill="#000000" font-family="sans-serif" font-size="14" lengthAdjust="spacing" textLength="176" x="23" y="597.6074">Human Resources Manager</text></g><!--entity Employee--><g id="elem_Employee"><ellipse cx="111" cy="645" fill="#F1F1F1" rx="8" ry="8" style="stroke:#181818;stroke-width:0.5;"/><path d="M111,653 L111,680 M98,661 L124,661 M111,680 L98,695 M111,680 L124,695 " fill="none" style="stroke:#181818;stroke-width:0.5;"/><text fill="#000000" font-family="sans-serif" font-size="14" lengthAdjust="spacing" textLength="92" x="65" y="711.6074">Fleet Manager</text></g><!--entity act--><g id="elem_act"><ellipse cx="111" cy="759" fill="#F1F1F1" rx="8" ry="8" style="stroke:#181818;stroke-width:0.5;"/><path d="M111,767 L111,794 M98,775 L124,775 M111,794 L98,809 M111,794 L124,809 " fill="none" style="stroke:#181818;stroke-width:0.5;"/><text fill="#000000" font-family="sans-serif" font-size="14" lengthAdjust="spacing" textLength="144" x="39" y="825.6074">Green Space Manager</text></g><!--entity actore--><g id="elem_actore"><ellipse cx="111" cy="873" fill="#F1F1F1" rx="8" ry="8" style="stroke:#181818;stroke-width:0.5;"/><path d="M111,881 L111,908 M98,889 L124,889 M111,908 L98,923 M111,908 L124,923 " fill="none" style="stroke:#181818;stroke-width:0.5;"/><text fill="#000000" font-family="sans-serif" font-size="14" lengthAdjust="spacing" textLength="78" x="72" y="939.6074">Collaborator</text></g><g id="elem_UC1"><ellipse cx="429.1633" cy="63.8327" fill="#F1F1F1" rx="87.1633" ry="19.8327" style="stroke:#181818;stroke-width:0.5;"/><text fill="#000000" font-family="sans-serif" font-size="14" lengthAdjust="spacing" textLength="127" x="362.6633" y="68.6364">UC1 - Register skills</text></g><g id="elem_UC2"><ellipse cx="429.0589" cy="138.9118" fill="#F1F1F1" rx="87.5589" ry="19.9118" style="stroke:#181818;stroke-width:0.5;"/><text fill="#000000" font-family="sans-serif" font-size="14" lengthAdjust="spacing" textLength="128" x="362.0589" y="143.7155">UC2 - Register a job</text></g><g id="elem_UC3"><ellipse cx="428.995" cy="219.199" fill="#F1F1F1" rx="111.495" ry="24.699" style="stroke:#181818;stroke-width:0.5;"/><text fill="#000000" font-family="sans-serif" font-size="14" lengthAdjust="spacing" textLength="184" x="336.995" y="222.9959">UC3 - Register a collaborator</text></g><g id="elem_UC4"><ellipse cx="428.8887" cy="297.9777" fill="#F1F1F1" rx="82.8887" ry="18.9777" style="stroke:#181818;stroke-width:0.5;"/><text fill="#000000" font-family="sans-serif" font-size="14" lengthAdjust="spacing" textLength="116" x="367.8887" y="302.7815">UC4 - Assign skills</text></g><g id="elem_UC5"><ellipse cx="429.0317" cy="378.1063" fill="#F1F1F1" rx="116.0317" ry="25.6063" style="stroke:#181818;stroke-width:0.5;"/><text fill="#000000" font-family="sans-serif" font-size="14" lengthAdjust="spacing" textLength="194" x="332.0317" y="381.9032">UC5 - Generate team proposal</text></g><g id="elem_UC6"><ellipse cx="428.7971" cy="460.9594" fill="#F1F1F1" rx="97.7971" ry="21.9594" style="stroke:#181818;stroke-width:0.5;"/><text fill="#000000" font-family="sans-serif" font-size="14" lengthAdjust="spacing" textLength="153" x="350.519" y="465.3865">UC6 - Register a vehicle</text></g><g id="elem_UC7"><ellipse cx="428.8162" cy="546.9632" fill="#F1F1F1" rx="130.3162" ry="28.4632" style="stroke:#181818;stroke-width:0.5;"/><text fill="#000000" font-family="sans-serif" font-size="14" lengthAdjust="spacing" textLength="225" x="316.3162" y="550.7601">UC7 - Register a vehicle&#8217;s check-up</text></g><g id="elem_UC8"><ellipse cx="429.1668" cy="643.0334" fill="#F1F1F1" rx="148.1668" ry="32.0334" style="stroke:#181818;stroke-width:0.5;"/><text fill="#000000" font-family="sans-serif" font-size="14" lengthAdjust="spacing" textLength="263" x="297.6668" y="646.8302">UC8 - List vehicles in need for a check-up</text></g><g id="elem_UC20"><ellipse cx="429.1665" cy="735.8333" fill="#F1F1F1" rx="114.6665" ry="25.3333" style="stroke:#181818;stroke-width:0.5;"/><text fill="#000000" font-family="sans-serif" font-size="14" lengthAdjust="spacing" textLength="191" x="333.6665" y="739.6302">UC20 - Register green spaces</text></g><g id="elem_UC21"><ellipse cx="428.8991" cy="821.8798" fill="#F1F1F1" rx="112.3991" ry="24.8798" style="stroke:#181818;stroke-width:0.5;"/><text fill="#000000" font-family="sans-serif" font-size="14" lengthAdjust="spacing" textLength="186" x="335.8991" y="825.6767">UC21 - Add entry to ToDoList</text></g><g id="elem_UC22"><ellipse cx="428.793" cy="906.1586" fill="#F1F1F1" rx="108.793" ry="24.1586" style="stroke:#181818;stroke-width:0.5;"/><text fill="#000000" font-family="sans-serif" font-size="14" lengthAdjust="spacing" textLength="178" x="339.793" y="909.9555">UC22 - Add entry to Agenda</text></g><g id="elem_UC23"><ellipse cx="429.0354" cy="1000.0071" fill="#F1F1F1" rx="160.5354" ry="34.5071" style="stroke:#181818;stroke-width:0.5;"/><text fill="#000000" font-family="sans-serif" font-size="14" lengthAdjust="spacing" textLength="289" x="284.5354" y="1003.804">UC23 - Assign team to an entry in the Agenda</text></g><g id="elem_UC24"><ellipse cx="428.8561" cy="1100.8712" fill="#F1F1F1" rx="144.8561" ry="31.3712" style="stroke:#181818;stroke-width:0.5;"/><text fill="#000000" font-family="sans-serif" font-size="14" lengthAdjust="spacing" textLength="256" x="300.8561" y="1104.6681">UC24 - Postpone an entry in the Agenda</text></g><g id="elem_UC25"><ellipse cx="428.8248" cy="1197.865" fill="#F1F1F1" rx="137.3248" ry="29.865" style="stroke:#181818;stroke-width:0.5;"/><text fill="#000000" font-family="sans-serif" font-size="14" lengthAdjust="spacing" textLength="240" x="308.8248" y="1201.6618">UC25 - Cancel an entry in the Agenda</text></g><g id="elem_UC26"><ellipse cx="429.115" cy="1299.923" fill="#F1F1F1" rx="170.115" ry="36.423" style="stroke:#181818;stroke-width:0.5;"/><text fill="#000000" font-family="sans-serif" font-size="14" lengthAdjust="spacing" textLength="309" x="274.615" y="1303.7199">UC26 - Assign vehicles to an entry in the Agenda</text></g><g id="elem_UC27"><ellipse cx="428.772" cy="1398.1544" fill="#F1F1F1" rx="118.772" ry="26.1544" style="stroke:#181818;stroke-width:0.5;"/><text fill="#000000" font-family="sans-serif" font-size="14" lengthAdjust="spacing" textLength="200" x="328.772" y="1401.9513">UC27 - List all my green spaces</text></g><g id="elem_UC28"><ellipse cx="429.0473" cy="1488.2095" fill="#F1F1F1" rx="134.0473" ry="29.2095" style="stroke:#181818;stroke-width:0.5;"/><text fill="#000000" font-family="sans-serif" font-size="14" lengthAdjust="spacing" textLength="233" x="312.5473" y="1492.0063">UC28 - Consult tasks assigned to me</text></g><g id="elem_UC29"><ellipse cx="429.0839" cy="1583.1168" fill="#F1F1F1" rx="141.0839" ry="30.6168" style="stroke:#181818;stroke-width:0.5;"/><text fill="#000000" font-family="sans-serif" font-size="14" lengthAdjust="spacing" textLength="248" x="305.0839" y="1586.9137">UC29 - Record the completion of a task</text></g><!--link Freelancer to UC1--><g id="link_Freelancer_UC1"><path d="M117.15,522.4 C131.06,421.58 172.63,159.07 235,101 C263.71,74.26 299.6005,64.5756 337.0005,61.4756 " fill="none" id="Freelancer-to-UC1" style="stroke:#181818;stroke-width:1.0;"/><polygon fill="#181818" points="342.98,60.98,333.6803,57.7371,337.9971,61.393,334.3412,65.7098,342.98,60.98" style="stroke:#181818;stroke-width:1.0;"/></g><!--link Freelancer to UC2--><g id="link_Freelancer_UC2"><path d="M112.22,522.35 C114.96,443.77 132.86,268.04 235,177 C263.81,151.32 298.8188,141.4975 335.6088,137.8775 " fill="none" id="Freelancer-to-UC2" style="stroke:#181818;stroke-width:1.0;"/><polygon fill="#181818" points="341.58,137.29,332.2316,134.1905,336.604,137.7796,333.0149,142.1521,341.58,137.29" style="stroke:#181818;stroke-width:1.0;"/></g><!--link Freelancer to UC3--><g id="link_Freelancer_UC3"><path d="M116.45,522.46 C125.94,457.52 154.38,328.71 235,261 C258.63,241.15 283.6169,231.2486 313.7169,225.2186 " fill="none" id="Freelancer-to-UC3" style="stroke:#181818;stroke-width:1.0;"/><polygon fill="#181818" points="319.6,224.04,309.9896,221.8858,314.6974,225.0221,311.5611,229.7299,319.6,224.04" style="stroke:#181818;stroke-width:1.0;"/></g><!--link Freelancer to UC4--><g id="link_Freelancer_UC4"><path d="M122.14,522.12 C137.47,470.39 171.7,381.33 235,335 C266.66,311.83 302.8515,302.624 339.6915,298.834 " fill="none" id="Freelancer-to-UC4" style="stroke:#181818;stroke-width:1.0;"/><polygon fill="#181818" points="345.66,298.22,336.2979,295.162,340.6863,298.7317,337.1166,303.12,345.66,298.22" style="stroke:#181818;stroke-width:1.0;"/></g><!--link Freelancer to UC5--><g id="link_Freelancer_UC5"><path d="M136.26,522.3 C158.09,490.03 193.12,445.9 235,421 C261.7,405.12 287.7781,396.3332 317.9181,390.0032 " fill="none" id="Freelancer-to-UC5" style="stroke:#181818;stroke-width:1.0;"/><polygon fill="#181818" points="323.79,388.77,314.16,386.7052,318.8968,389.7977,315.8043,394.5344,323.79,388.77" style="stroke:#181818;stroke-width:1.0;"/></g><!--link Employee to UC6--><g id="link_Employee_UC6"><path d="M157.18,664.17 C180.7,655.59 207.67,641.46 223,619 C237.86,597.23 217.35,520.57 235,501 C259.24,474.13 290.4229,463.3463 325.6829,459.1063 " fill="none" id="Employee-to-UC6" style="stroke:#181818;stroke-width:1.0;"/><polygon fill="#181818" points="331.64,458.39,322.2268,455.4931,326.6758,458.9869,323.1819,463.4359,331.64,458.39" style="stroke:#181818;stroke-width:1.0;"/></g><!--link Employee to UC7--><g id="link_Employee_UC7"><path d="M157.19,660.83 C179.28,651.57 204.93,637.84 223,619 C231.81,609.81 225.15,601.06 235,593 C255.92,575.87 276.3588,566.4518 302.6788,559.5018 " fill="none" id="Employee-to-UC7" style="stroke:#181818;stroke-width:1.0;"/><polygon fill="#181818" points="308.48,557.97,298.757,556.4003,303.6457,559.2465,300.7995,564.1352,308.48,557.97" style="stroke:#181818;stroke-width:1.0;"/></g><!--link Employee to UC8--><g id="link_Employee_UC8"><path d="M157.28,671.27 C193.45,667.49 240.1225,662.6239 289.3825,657.4739 " fill="none" id="Employee-to-UC8" style="stroke:#181818;stroke-width:1.0;"/><polygon fill="#181818" points="295.35,656.85,285.9829,653.8075,290.3771,657.3699,286.8147,661.7641,295.35,656.85" style="stroke:#181818;stroke-width:1.0;"/></g><!--link act to UC20--><g id="link_act_UC20"><path d="M183.31,777.81 C229,770.01 282.7857,760.8105 331.7757,752.4405 " fill="none" id="act-to-UC20" style="stroke:#181818;stroke-width:1.0;"/><polygon fill="#181818" points="337.69,751.43,328.1449,749.0028,332.7614,752.2721,329.4922,756.8886,337.69,751.43" style="stroke:#181818;stroke-width:1.0;"/></g><!--link act to UC21--><g id="link_act_UC21"><path d="M183.31,797.22 C225.54,801.5 273.7705,806.386 320.4205,811.106 " fill="none" id="act-to-UC21" style="stroke:#181818;stroke-width:1.0;"/><polygon fill="#181818" points="326.39,811.71,317.8384,806.8243,321.4154,811.2067,317.0331,814.7837,326.39,811.71" style="stroke:#181818;stroke-width:1.0;"/></g><!--link act to UC22--><g id="link_act_UC22"><path d="M183.06,820 C197.1,827.66 211.14,836.7 223,847 C229.98,853.07 227.29,858.89 235,864 C261.73,881.71 288.79,890.9465 319.85,896.9765 " fill="none" id="act-to-UC22" style="stroke:#181818;stroke-width:1.0;"/><polygon fill="#181818" points="325.74,898.12,317.6673,892.4781,320.8316,897.1671,316.1426,900.3314,325.74,898.12" style="stroke:#181818;stroke-width:1.0;"/></g><!--link act to UC23--><g id="link_act_UC23"><path d="M183.22,813.61 C198.55,821.87 213.1,832.77 223,847 C248.57,883.74 205.78,913.09 235,947 C249.17,963.45 262.3597,972.8002 282.6197,980.9102 " fill="none" id="act-to-UC23" style="stroke:#181818;stroke-width:1.0;"/><polygon fill="#181818" points="288.19,983.14,281.3211,976.0818,283.5481,981.2819,278.3481,983.5089,288.19,983.14" style="stroke:#181818;stroke-width:1.0;"/></g><!--link act to UC24--><g id="link_act_UC24"><path d="M183.27,812.88 C198.79,821.19 213.42,832.3 223,847 C247.91,885.23 205.94,1016.81 235,1052 C249.97,1070.13 264.9365,1080.0988 287.1765,1087.8788 " fill="none" id="act-to-UC24" style="stroke:#181818;stroke-width:1.0;"/><polygon fill="#181818" points="292.84,1089.86,285.6656,1083.1126,288.1204,1088.209,283.024,1090.6639,292.84,1089.86" style="stroke:#181818;stroke-width:1.0;"/></g><!--link act to UC25--><g id="link_act_UC25"><path d="M183.17,812.6 C198.8,820.93 213.5,832.12 223,847 C241.12,875.4 213.73,1123.87 235,1150 C250.8,1169.41 267.423,1179.8589 291.313,1187.4689 " fill="none" id="act-to-UC25" style="stroke:#181818;stroke-width:1.0;"/><polygon fill="#181818" points="297.03,1189.29,289.6686,1182.747,292.2659,1187.7724,287.2405,1190.3697,297.03,1189.29" style="stroke:#181818;stroke-width:1.0;"/></g><!--link act to UC26--><g id="link_act_UC26"><path d="M183.27,812.54 C198.9,820.87 213.57,832.07 223,847 C246.62,884.41 207.82,1210.09 235,1245 C247.52,1261.08 258.9257,1270.2241 277.5157,1278.5641 " fill="none" id="act-to-UC26" style="stroke:#181818;stroke-width:1.0;"/><polygon fill="#181818" points="282.99,1281.02,276.4158,1273.6865,278.4281,1278.9734,273.1412,1280.9856,282.99,1281.02" style="stroke:#181818;stroke-width:1.0;"/></g><!--link act to UC27--><g id="link_act_UC27"><path d="M183.05,812.34 C198.78,820.69 213.56,831.95 223,847 C237.97,870.87 217.17,1332.18 235,1354 C253.65,1376.82 275.6074,1387.9684 304.3474,1394.4584 " fill="none" id="act-to-UC27" style="stroke:#181818;stroke-width:1.0;"/><polygon fill="#181818" points="310.2,1395.78,302.3021,1389.8958,305.3228,1394.6786,300.54,1397.6993,310.2,1395.78" style="stroke:#181818;stroke-width:1.0;"/></g><!--link actore to UC28--><g id="link_actore_UC28"><path d="M115.74,943.66 C127.07,1055.45 164.64,1369.67 235,1441 C253.16,1459.41 271.4896,1469.3912 296.4696,1476.6712 " fill="none" id="actore-to-UC28" style="stroke:#181818;stroke-width:1.0;"/><polygon fill="#181818" points="302.23,1478.35,294.7086,1471.9916,297.4297,1476.951,292.4703,1479.6721,302.23,1478.35" style="stroke:#181818;stroke-width:1.0;"/></g><!--link actore to UC29--><g id="link_actore_UC29"><path d="M114.31,943.62 C122.38,1068.01 153.36,1447.67 235,1534 C251.98,1551.96 268.8277,1561.8743 292.5077,1569.4843 " fill="none" id="actore-to-UC29" style="stroke:#181818;stroke-width:1.0;"/><polygon fill="#181818" points="298.22,1571.32,290.8754,1564.7582,293.4598,1569.7902,288.4278,1572.3746,298.22,1571.32" style="stroke:#181818;stroke-width:1.0;"/></g><!--SRC=[XLHBRjim4Dth50Dll3BWqDzi0hZEfuiMA9hc00mrbbHJf43IJOsYGA_Hw_Ka7SgIBPDoB0C6-FJUQ3XlPePsMwYA6rv2gPKMkT4bWZCxJ4vlAYwsFCDdjvS81eNZAfEO34yCc_DKlnKgWmsN5fEE-CZ_bG0z7xH9qQorr0RUyi9XyZj9Xgvm5Fh58gmv_TqNFFFQXv-yhEXBYSID0wV155dk82ryq4Ah93b6Xm7zk0Kkd3OM3X-h3p3uk2kvWgzezSu8jF2PAxgEgVcF1b5o9T1q5OyIqPtn7YWHlKViifv8g-2PoeDdN7hTfT5b9N_LXjFfb6DzyIZzdKL15R27_9iJ35xMDp2Y6sI5TMY0gYkbhGNq9gIoBfN3T_tQC5d8d9mpHPWeCKB9b2GhQujCdMSn3Oap8ZwXGef63OM-ZOokjEMoKSn2nVn2w7b8N5mWBaBYyW9n6PLitAr4LljglQ-jWeqZYNTabQQ0ofczRyvl-bv_eWYj93Q6XP9LXYhbhI3oXqrE5wXBI1Bgv8Ey82p784Ja5_E6VT7MLLhX5N7a8VCchlrqo2lIo4pMSVC7veMGD7XNqu-iPjvhNrJWKaAvx_KcyfrvuzTQsPsajS7jbcQkJWLJdqE9hJ9kXDkw4GHjgJezeVq2yhi6z8P6n0ThnRT9hJvj41YDxeu36S6i7vxqmzD-k7TeEYFSbFgzoOdP__xyjI1o5DlHhdflbceZZcwIWmgfeXjTBuzp_Q6oxTPiif_tWOi-SDakqBPuun2u2G4M0fCGc8R0B0Jc8R0uBV8sDRRimQWNckS_]--></g></svg>