<?xml version="1.0" encoding="us-ascii" standalone="no"?><svg xmlns="http://www.w3.org/2000/svg" xmlns:xlink="http://www.w3.org/1999/xlink" contentStyleType="text/css" height="697px" preserveAspectRatio="none" style="width:577px;height:697px;background:#FFFFFF;" version="1.1" viewBox="0 0 577 697" width="577px" zoomAndPan="magnify"><defs/><g><!--cluster actors--><g id="cluster_actors"><rect fill="none" height="247" rx="2.5" ry="2.5" style="stroke:#FFFFFF;stroke-width:1.0;" width="208" x="7" y="246"/><text fill="#000000" font-family="sans-serif" font-size="14" font-weight="bold" lengthAdjust="spacing" textLength="4" x="109" y="263.1074">&#160;</text></g><!--cluster usecases--><g id="cluster_usecases"><rect fill="none" height="684" rx="2.5" ry="2.5" style="stroke:#FFFFFF;stroke-width:1.0;" width="328" x="243" y="7"/><text fill="#000000" font-family="sans-serif" font-size="14" font-weight="bold" lengthAdjust="spacing" textLength="4" x="405" y="24.1074">&#160;</text></g><!--entity Freelancer--><g id="elem_Freelancer"><ellipse cx="111" cy="292" fill="#F1F1F1" rx="8" ry="8" style="stroke:#181818;stroke-width:0.5;"/><path d="M111,300 L111,327 M98,308 L124,308 M111,327 L98,342 M111,327 L124,342 " fill="none" style="stroke:#181818;stroke-width:0.5;"/><text fill="#000000" font-family="sans-serif" font-size="14" lengthAdjust="spacing" textLength="176" x="23" y="358.6074">Human Resources Manager</text></g><!--entity Employee--><g id="elem_Employee"><ellipse cx="111" cy="406" fill="#F1F1F1" rx="8" ry="8" style="stroke:#181818;stroke-width:0.5;"/><path d="M111,414 L111,441 M98,422 L124,422 M111,441 L98,456 M111,441 L124,456 " fill="none" style="stroke:#181818;stroke-width:0.5;"/><text fill="#000000" font-family="sans-serif" font-size="14" lengthAdjust="spacing" textLength="92" x="65" y="472.6074">Fleet Manager</text></g><g id="elem_UC1"><ellipse cx="407.1633" cy="63.8327" fill="#F1F1F1" rx="87.1633" ry="19.8327" style="stroke:#181818;stroke-width:0.5;"/><text fill="#000000" font-family="sans-serif" font-size="14" lengthAdjust="spacing" textLength="127" x="340.6633" y="68.6364">UC1 - Register skills</text></g><g id="elem_UC2"><ellipse cx="407.0589" cy="138.9118" fill="#F1F1F1" rx="87.5589" ry="19.9118" style="stroke:#181818;stroke-width:0.5;"/><text fill="#000000" font-family="sans-serif" font-size="14" lengthAdjust="spacing" textLength="128" x="340.0589" y="143.7155">UC2 - Register a job</text></g><g id="elem_UC3"><ellipse cx="406.995" cy="219.199" fill="#F1F1F1" rx="111.495" ry="24.699" style="stroke:#181818;stroke-width:0.5;"/><text fill="#000000" font-family="sans-serif" font-size="14" lengthAdjust="spacing" textLength="184" x="314.995" y="222.9959">UC3 - Register a collaborator</text></g><g id="elem_UC4"><ellipse cx="406.8887" cy="297.9777" fill="#F1F1F1" rx="82.8887" ry="18.9777" style="stroke:#181818;stroke-width:0.5;"/><text fill="#000000" font-family="sans-serif" font-size="14" lengthAdjust="spacing" textLength="116" x="345.8887" y="302.7815">UC4 - Assign skills</text></g><g id="elem_UC5"><ellipse cx="407.0317" cy="378.1063" fill="#F1F1F1" rx="116.0317" ry="25.6063" style="stroke:#181818;stroke-width:0.5;"/><text fill="#000000" font-family="sans-serif" font-size="14" lengthAdjust="spacing" textLength="194" x="310.0317" y="381.9032">UC5 - Generate team proposal</text></g><g id="elem_UC6"><ellipse cx="406.7971" cy="460.9594" fill="#F1F1F1" rx="97.7971" ry="21.9594" style="stroke:#181818;stroke-width:0.5;"/><text fill="#000000" font-family="sans-serif" font-size="14" lengthAdjust="spacing" textLength="153" x="328.519" y="465.3865">UC6 - Register a vehicle</text></g><g id="elem_UC7"><ellipse cx="406.8162" cy="546.9632" fill="#F1F1F1" rx="130.3162" ry="28.4632" style="stroke:#181818;stroke-width:0.5;"/><text fill="#000000" font-family="sans-serif" font-size="14" lengthAdjust="spacing" textLength="225" x="294.3162" y="550.7601">UC7 - Register a vehicle&#8217;s check-up</text></g><g id="elem_UC8"><ellipse cx="407.1668" cy="643.0334" fill="#F1F1F1" rx="148.1668" ry="32.0334" style="stroke:#181818;stroke-width:0.5;"/><text fill="#000000" font-family="sans-serif" font-size="14" lengthAdjust="spacing" textLength="263" x="275.6668" y="646.8302">UC8 - List vehicles in need for a check-up</text></g><!--link Freelancer to UC1--><g id="link_Freelancer_UC1"><path d="M122.83,283.33 C138.75,232.85 173.46,146.72 235,101 C259.75,82.61 285.8311,73.9732 315.4511,69.0532 " fill="none" id="Freelancer-to-UC1" style="stroke:#181818;stroke-width:1.0;"/><polygon fill="#181818" points="321.37,68.07,311.8362,65.5988,316.4376,68.8893,313.1471,73.4907,321.37,68.07" style="stroke:#181818;stroke-width:1.0;"/></g><!--link Freelancer to UC2--><g id="link_Freelancer_UC2"><path d="M135.07,283.21 C156.63,249.68 191.91,203.1 235,177 C261.92,160.69 289.1232,152.4136 319.0032,147.0836 " fill="none" id="Freelancer-to-UC2" style="stroke:#181818;stroke-width:1.0;"/><polygon fill="#181818" points="324.91,146.03,315.3474,143.6726,319.9877,146.908,316.7523,151.5483,324.91,146.03" style="stroke:#181818;stroke-width:1.0;"/></g><!--link Freelancer to UC3--><g id="link_Freelancer_UC3"><path d="M183.63,283.49 C200.19,275.32 217.95,267.3 235,261 C263.25,250.57 289.2277,243.3067 317.6977,236.6467 " fill="none" id="Freelancer-to-UC3" style="stroke:#181818;stroke-width:1.0;"/><polygon fill="#181818" points="323.54,235.28,313.8655,233.4352,318.6714,236.4189,315.6877,241.2249,323.54,235.28" style="stroke:#181818;stroke-width:1.0;"/></g><!--link Freelancer to UC4--><g id="link_Freelancer_UC4"><path d="M199.02,315.6 C240.16,312.1 282.9016,308.469 322.7216,305.079 " fill="none" id="Freelancer-to-UC4" style="stroke:#181818;stroke-width:1.0;"/><polygon fill="#181818" points="328.7,304.57,319.3931,301.3479,323.718,304.9941,320.0717,309.319,328.7,304.57" style="stroke:#181818;stroke-width:1.0;"/></g><!--link Freelancer to UC5--><g id="link_Freelancer_UC5"><path d="M199.02,339.28 C236.61,346.31 274.6123,353.4165 312.2923,360.4665 " fill="none" id="Freelancer-to-UC5" style="stroke:#181818;stroke-width:1.0;"/><polygon fill="#181818" points="318.19,361.57,310.0792,355.983,313.2753,360.6504,308.6079,363.8466,318.19,361.57" style="stroke:#181818;stroke-width:1.0;"/></g><!--link Employee to UC6--><g id="link_Employee_UC6"><path d="M157.29,440.7 C199.09,444.11 256.4299,448.7916 308.7099,453.0616 " fill="none" id="Employee-to-UC6" style="stroke:#181818;stroke-width:1.0;"/><polygon fill="#181818" points="314.69,453.55,306.0455,448.8306,309.7066,453.143,305.3943,456.8041,314.69,453.55" style="stroke:#181818;stroke-width:1.0;"/></g><!--link Employee to UC7--><g id="link_Employee_UC7"><path d="M157.11,462.93 C179.94,475.31 208.39,489.65 235,500 C261.11,510.15 284.4776,517.4654 311.2076,524.6854 " fill="none" id="Employee-to-UC7" style="stroke:#181818;stroke-width:1.0;"/><polygon fill="#181818" points="317,526.25,309.3544,520.0415,312.173,524.9462,307.2683,527.7647,317,526.25" style="stroke:#181818;stroke-width:1.0;"/></g><!--link Employee to UC8--><g id="link_Employee_UC8"><path d="M133.64,476.72 C154.95,512.21 190.69,563.09 235,593 C253.2,605.29 268.7668,612.7059 289.9868,619.7659 " fill="none" id="Employee-to-UC8" style="stroke:#181818;stroke-width:1.0;"/><polygon fill="#181818" points="295.68,621.66,288.403,615.0233,290.9357,620.0815,285.8775,622.6142,295.68,621.66" style="stroke:#181818;stroke-width:1.0;"/></g><!--SRC=[RP9DRjim48NtFCN06w-ygFzN1Lh7JXR9fa4ECA774ckA8t2ef44G8DVezNgIZcNvHueaG00VtpVpEE9GzYwK6B60WWFRF791a695vh9JejrZHe_fpHD4iWb3viaCBmx9SSklBcImGozahk2p_zs0FZyvRYcks7E4rzmbCX_639DBMlf925Qednk7sO5T_y6Yr4x6qov1OeWkonDitQ6eus3CkJeCz4K1j8cZmB5PlO31NLLWW5yaN4LB0WyOz3YnzcyYaSTWALuJ6q-KMhwr1k4tgkD-QLe9MSqjnwxD2WPFgsymqhwPaqGHT2RUImteJjSwlhOY_ERdnZdkEYTjfsNlyPaZQl86cNIHgI8_H5mMsYccNUDCZRSKIAlfDQ33puzSig1lY5bDNAO6ez7tyt6-oED-UT8lJ_lbMJVal3s05ygTzTG4d7VTYrxtly-_0ZOdknzLPOCkkkXIqNi5Jv202n28jh3ZUlHjVbdpfvlIf9_tYOi-SMdCVm00]--></g></svg>