<?xml version="1.0" encoding="us-ascii" standalone="no"?><svg xmlns="http://www.w3.org/2000/svg" xmlns:xlink="http://www.w3.org/1999/xlink" contentStyleType="text/css" height="978px" preserveAspectRatio="none" style="width:781px;height:978px;background:#FFFFFF;" version="1.1" viewBox="0 0 781 978" width="781px" zoomAndPan="magnify"><defs/><g><!--class HRM--><g id="elem_HRM"><rect codeLine="16" fill="#F1F1F1" height="111.1055" id="HRM" rx="2.5" ry="2.5" style="stroke:#181818;stroke-width:0.5;" width="157" x="132.01" y="7"/><text fill="#000000" font-family="sans-serif" font-size="14" lengthAdjust="spacing" textLength="30" x="195.51" y="27.1074">HRM</text><line style="stroke:#181818;stroke-width:0.5;" x1="133.01" x2="288.01" y1="35.6211" y2="35.6211"/><text fill="#000000" font-family="sans-serif" font-size="14" lengthAdjust="spacing" textLength="35" x="138.01" y="54.7285">name</text><text fill="#000000" font-family="sans-serif" font-size="14" lengthAdjust="spacing" textLength="33" x="138.01" y="73.3496">email</text><text fill="#000000" font-family="sans-serif" font-size="14" lengthAdjust="spacing" textLength="92" x="138.01" y="91.9707">phone number</text><text fill="#000000" font-family="sans-serif" font-size="14" lengthAdjust="spacing" textLength="145" x="138.01" y="110.5918">identification document</text></g><!--class FM--><g id="elem_FM"><rect codeLine="23" fill="#F1F1F1" height="111.1055" id="FM" rx="2.5" ry="2.5" style="stroke:#181818;stroke-width:0.5;" width="157" x="409.01" y="443"/><text fill="#000000" font-family="sans-serif" font-size="14" lengthAdjust="spacing" textLength="20" x="477.51" y="463.1074">FM</text><line style="stroke:#181818;stroke-width:0.5;" x1="410.01" x2="565.01" y1="471.6211" y2="471.6211"/><text fill="#000000" font-family="sans-serif" font-size="14" lengthAdjust="spacing" textLength="35" x="415.01" y="490.7285">name</text><text fill="#000000" font-family="sans-serif" font-size="14" lengthAdjust="spacing" textLength="33" x="415.01" y="509.3496">email</text><text fill="#000000" font-family="sans-serif" font-size="14" lengthAdjust="spacing" textLength="92" x="415.01" y="527.9707">phone number</text><text fill="#000000" font-family="sans-serif" font-size="14" lengthAdjust="spacing" textLength="145" x="415.01" y="546.5918">identification document</text></g><!--class Skill--><g id="elem_Skill"><rect codeLine="30" fill="#F1F1F1" height="55.2422" id="Skill" rx="2.5" ry="2.5" style="stroke:#181818;stroke-width:0.5;" width="47" x="35.01" y="471"/><text fill="#000000" font-family="sans-serif" font-size="14" lengthAdjust="spacing" textLength="25" x="46.01" y="491.1074">Skill</text><line style="stroke:#181818;stroke-width:0.5;" x1="36.01" x2="81.01" y1="499.6211" y2="499.6211"/><text fill="#000000" font-family="sans-serif" font-size="14" lengthAdjust="spacing" textLength="35" x="41.01" y="518.7285">name</text></g><!--class Job--><g id="elem_Job"><rect codeLine="34" fill="#F1F1F1" height="55.2422" id="Job" rx="2.5" ry="2.5" style="stroke:#181818;stroke-width:0.5;" width="47" x="308.01" y="471"/><text fill="#000000" font-family="sans-serif" font-size="14" lengthAdjust="spacing" textLength="22" x="320.51" y="491.1074">Job</text><line style="stroke:#181818;stroke-width:0.5;" x1="309.01" x2="354.01" y1="499.6211" y2="499.6211"/><text fill="#000000" font-family="sans-serif" font-size="14" lengthAdjust="spacing" textLength="35" x="314.01" y="518.7285">name</text></g><!--class Collaborator--><g id="elem_Collaborator"><rect codeLine="38" fill="#F1F1F1" height="166.9688" id="Collaborator" rx="2.5" ry="2.5" style="stroke:#181818;stroke-width:0.5;" width="157" x="132.01" y="197"/><text fill="#000000" font-family="sans-serif" font-size="14" lengthAdjust="spacing" textLength="78" x="171.51" y="217.1074">Collaborator</text><line style="stroke:#181818;stroke-width:0.5;" x1="133.01" x2="288.01" y1="225.6211" y2="225.6211"/><text fill="#000000" font-family="sans-serif" font-size="14" lengthAdjust="spacing" textLength="35" x="138.01" y="244.7285">name</text><text fill="#000000" font-family="sans-serif" font-size="14" lengthAdjust="spacing" textLength="73" x="138.01" y="263.3496">birth details</text><text fill="#000000" font-family="sans-serif" font-size="14" lengthAdjust="spacing" textLength="89" x="138.01" y="281.9707">issuing details</text><text fill="#000000" font-family="sans-serif" font-size="14" lengthAdjust="spacing" textLength="51" x="138.01" y="300.5918">address</text><text fill="#000000" font-family="sans-serif" font-size="14" lengthAdjust="spacing" textLength="92" x="138.01" y="319.2129">phone number</text><text fill="#000000" font-family="sans-serif" font-size="14" lengthAdjust="spacing" textLength="33" x="138.01" y="337.834">email</text><text fill="#000000" font-family="sans-serif" font-size="14" lengthAdjust="spacing" textLength="145" x="138.01" y="356.4551">identification document</text></g><!--class Team--><g id="elem_Team"><rect codeLine="48" fill="#F1F1F1" height="36.6211" id="Team" rx="2.5" ry="2.5" style="stroke:#181818;stroke-width:0.5;" width="42" x="189.51" y="480"/><text fill="#000000" font-family="sans-serif" font-size="14" lengthAdjust="spacing" textLength="36" x="192.51" y="500.1074">Team</text><line style="stroke:#181818;stroke-width:0.5;" x1="190.51" x2="230.51" y1="508.6211" y2="508.6211"/></g><!--class Task--><g id="elem_Task"><rect codeLine="50" fill="#F1F1F1" height="55.2422" id="Task" rx="2.5" ry="2.5" style="stroke:#181818;stroke-width:0.5;" width="47" x="182.01" y="707.5"/><text fill="#000000" font-family="sans-serif" font-size="14" lengthAdjust="spacing" textLength="31" x="190.01" y="727.6074">Task</text><line style="stroke:#181818;stroke-width:0.5;" x1="183.01" x2="228.01" y1="736.1211" y2="736.1211"/><text fill="#000000" font-family="sans-serif" font-size="14" lengthAdjust="spacing" textLength="35" x="188.01" y="755.2285">name</text></g><!--class Vehicle--><g id="elem_Vehicle"><rect codeLine="54" fill="#F1F1F1" height="204.2109" id="Vehicle" rx="2.5" ry="2.5" style="stroke:#181818;stroke-width:0.5;" width="158" x="264.51" y="633"/><text fill="#000000" font-family="sans-serif" font-size="14" lengthAdjust="spacing" textLength="46" x="320.51" y="653.1074">Vehicle</text><line style="stroke:#181818;stroke-width:0.5;" x1="265.51" x2="421.51" y1="661.6211" y2="661.6211"/><text fill="#000000" font-family="sans-serif" font-size="14" lengthAdjust="spacing" textLength="38" x="270.51" y="680.7285">Brand</text><text fill="#000000" font-family="sans-serif" font-size="14" lengthAdjust="spacing" textLength="38" x="270.51" y="699.3496">Model</text><text fill="#000000" font-family="sans-serif" font-size="14" lengthAdjust="spacing" textLength="32" x="270.51" y="717.9707">Type</text><text fill="#000000" font-family="sans-serif" font-size="14" lengthAdjust="spacing" textLength="30" x="270.51" y="736.5918">Tare</text><text fill="#000000" font-family="sans-serif" font-size="14" lengthAdjust="spacing" textLength="86" x="270.51" y="755.2129">Gross Weight</text><text fill="#000000" font-family="sans-serif" font-size="14" lengthAdjust="spacing" textLength="72" x="270.51" y="773.834">Current Km</text><text fill="#000000" font-family="sans-serif" font-size="14" lengthAdjust="spacing" textLength="87" x="270.51" y="792.4551">Register Date</text><text fill="#000000" font-family="sans-serif" font-size="14" lengthAdjust="spacing" textLength="102" x="270.51" y="811.0762">Acquisition Date</text><text fill="#000000" font-family="sans-serif" font-size="14" lengthAdjust="spacing" textLength="146" x="270.51" y="829.6973">Maintenance/Check-up</text></g><!--class Check-up--><g id="elem_Check-up"><rect codeLine="66" fill="#F1F1F1" height="55.2422" id="Check-up" rx="2.5" ry="2.5" style="stroke:#181818;stroke-width:0.5;" width="97" x="444.01" y="916"/><text fill="#000000" font-family="sans-serif" font-size="14" lengthAdjust="spacing" textLength="61" x="462.01" y="936.1074">Check-up</text><line style="stroke:#181818;stroke-width:0.5;" x1="445.01" x2="540.01" y1="944.6211" y2="944.6211"/><text fill="#000000" font-family="sans-serif" font-size="14" lengthAdjust="spacing" textLength="85" x="450.01" y="963.7285">distance "km"</text></g><!--class Check-upList--><g id="elem_Check-upList"><rect codeLine="70" fill="#F1F1F1" height="55.2422" id="Check-upList" rx="2.5" ry="2.5" style="stroke:#181818;stroke-width:0.5;" width="182" x="592.51" y="707.5"/><text fill="#000000" font-family="sans-serif" font-size="14" lengthAdjust="spacing" textLength="83" x="642.01" y="727.6074">Check-upList</text><line style="stroke:#181818;stroke-width:0.5;" x1="593.51" x2="773.51" y1="736.1211" y2="736.1211"/><text fill="#000000" font-family="sans-serif" font-size="14" lengthAdjust="spacing" textLength="170" x="598.51" y="755.2285">Vehicles needing check-up</text></g><!--link HRM to Skill--><g id="link_HRM_Skill"><path codeLine="74" d="M131.83,107.46 C100.08,129.77 66.88,160.03 49.51,197 C6,289.59 34.39,416.55 50.09,470.97 " fill="none" id="HRM-Skill" style="stroke:#181818;stroke-width:1.0;"/><polygon fill="#000000" points="53.4131,285.5237,58.2648,277.3437,52.5301,276.0542,53.4131,285.5237" style="stroke:#000000;stroke-width:1.0;"/><text fill="#000000" font-family="sans-serif" font-size="13" lengthAdjust="spacing" textLength="50" x="63.51" y="286.0283">registers</text><text fill="#000000" font-family="sans-serif" font-size="13" lengthAdjust="spacing" textLength="7" x="116.9972" y="107.9723">1</text><text fill="#000000" font-family="sans-serif" font-size="13" lengthAdjust="spacing" textLength="5" x="42.5648" y="459.672">*</text></g><!--link HRM to Job--><g id="link_HRM_Job"><path codeLine="75" d="M261.46,118.16 C269.31,127.76 276.96,137.92 283.51,148 C296.61,168.18 299.51,173.98 306.51,197 C334.69,289.73 339.37,316.12 336.51,413 C335.94,432.39 334.62,454.25 333.49,470.88 " fill="none" id="HRM-Job" style="stroke:#181818;stroke-width:1.0;"/><polygon fill="#000000" points="343.5104,285.5444,344.5801,276.0942,338.8211,277.2702,343.5104,285.5444" style="stroke:#000000;stroke-width:1.0;"/><text fill="#000000" font-family="sans-serif" font-size="13" lengthAdjust="spacing" textLength="50" x="351.51" y="286.0283">registers</text><text fill="#000000" font-family="sans-serif" font-size="13" lengthAdjust="spacing" textLength="7" x="260.243" y="140.0191">1</text><text fill="#000000" font-family="sans-serif" font-size="13" lengthAdjust="spacing" textLength="5" x="328.3698" y="459.5612">*</text></g><!--link HRM to Collaborator--><g id="link_HRM_Collaborator"><path codeLine="76" d="M210.51,118.01 C210.51,141.88 210.51,170.41 210.51,196.81 " fill="none" id="HRM-Collaborator" style="stroke:#181818;stroke-width:1.0;"/><polygon fill="#000000" points="215.51,162.6455,218.4489,153.6004,212.5711,153.6004,215.51,162.6455" style="stroke:#000000;stroke-width:1.0;"/><text fill="#000000" font-family="sans-serif" font-size="13" lengthAdjust="spacing" textLength="50" x="224.51" y="163.0283">registers</text><text fill="#000000" font-family="sans-serif" font-size="13" lengthAdjust="spacing" textLength="7" x="203.0616" y="140.2515">1</text><text fill="#000000" font-family="sans-serif" font-size="13" lengthAdjust="spacing" textLength="5" x="205.2873" y="185.642">*</text></g><!--link Collaborator to Skill--><g id="link_Collaborator_Skill"><path codeLine="77" d="M138.67,364.01 C130.92,373.91 123.37,384.05 116.51,394 C99.33,418.93 82.75,449.36 71.75,470.75 " fill="none" id="Collaborator-Skill" style="stroke:#181818;stroke-width:1.0;"/><polygon fill="#000000" points="118.8541,407.8818,126.1487,401.7794,121.1687,398.6572,118.8541,407.8818" style="stroke:#000000;stroke-width:1.0;"/><text fill="#000000" font-family="sans-serif" font-size="13" lengthAdjust="spacing" textLength="68" x="130.51" y="409.0283">has a set of</text><text fill="#000000" font-family="sans-serif" font-size="13" lengthAdjust="spacing" textLength="7" x="125.1955" y="385.9593">1</text><text fill="#000000" font-family="sans-serif" font-size="13" lengthAdjust="spacing" textLength="5" x="69.0994" y="459.854">*</text></g><!--link Collaborator to Job--><g id="link_Collaborator_Job"><path codeLine="78" d="M266.06,364.25 C272.16,374.15 278.1,384.22 283.51,394 C297.5,419.31 311.14,449.41 320.29,470.61 " fill="none" id="Collaborator-Job" style="stroke:#181818;stroke-width:1.0;"/><polygon fill="#000000" points="299.7812,408.0999,298.2908,398.7069,293.0543,401.3768,299.7812,408.0999" style="stroke:#000000;stroke-width:1.0;"/><text fill="#000000" font-family="sans-serif" font-size="13" lengthAdjust="spacing" textLength="21" x="306.51" y="409.0283">has</text><text fill="#000000" font-family="sans-serif" font-size="13" lengthAdjust="spacing" textLength="7" x="263.3704" y="385.9311">1</text><text fill="#000000" font-family="sans-serif" font-size="13" lengthAdjust="spacing" textLength="7" x="310.07" y="459.6833">1</text></g><!--link Collaborator to Team--><g id="link_Collaborator_Team"><path codeLine="79" d="M207.6,364.27 C207.32,380.43 207.23,397.25 207.51,413 C207.92,436.04 208.95,462.6 209.69,479.7 " fill="none" id="Collaborator-Team" style="stroke:#181818;stroke-width:1.0;"/><polygon fill="#000000" points="212.6005,408.6447,215.3752,399.5479,209.4983,399.6543,212.6005,408.6447" style="stroke:#000000;stroke-width:1.0;"/><text fill="#000000" font-family="sans-serif" font-size="13" lengthAdjust="spacing" textLength="57" x="221.51" y="409.0283">generates</text><text fill="#000000" font-family="sans-serif" font-size="13" lengthAdjust="spacing" textLength="5" x="202.152" y="385.9528">*</text><text fill="#000000" font-family="sans-serif" font-size="13" lengthAdjust="spacing" textLength="7" x="201.421" y="468.8073">1</text></g><!--link Team to Task--><g id="link_Team_Task"><path codeLine="80" d="M210.13,517.13 C209.26,557.92 207.11,659.04 206.08,707.4 " fill="none" id="Team-Task" style="stroke:#181818;stroke-width:1.0;"/><polygon fill="#000000" points="214.4036,598.6444,217.5343,589.6639,211.6578,589.5388,214.4036,598.6444" style="stroke:#000000;stroke-width:1.0;"/><text fill="#000000" font-family="sans-serif" font-size="13" lengthAdjust="spacing" textLength="21" x="223.51" y="599.0283">has</text><text fill="#000000" font-family="sans-serif" font-size="13" lengthAdjust="spacing" textLength="7" x="202.0872" y="538.5395">1</text><text fill="#000000" font-family="sans-serif" font-size="13" lengthAdjust="spacing" textLength="5" x="200.6337" y="696.0858">*</text></g><!--link FM to Vehicle--><g id="link_FM_Vehicle"><path codeLine="81" d="M425.16,554.27 C416.52,563.63 408.29,573.68 401.51,584 C391.69,598.93 383.16,615.77 375.88,632.63 " fill="none" id="FM-Vehicle" style="stroke:#181818;stroke-width:1.0;"/><polygon fill="#000000" points="403.8482,597.8781,411.1513,591.7859,406.1756,588.6567,403.8482,597.8781" style="stroke:#000000;stroke-width:1.0;"/><text fill="#000000" font-family="sans-serif" font-size="13" lengthAdjust="spacing" textLength="50" x="415.51" y="599.0283">registers</text><text fill="#000000" font-family="sans-serif" font-size="13" lengthAdjust="spacing" textLength="7" x="410.1345" y="576.1425">1</text><text fill="#000000" font-family="sans-serif" font-size="13" lengthAdjust="spacing" textLength="5" x="372.9802" y="621.8656">*</text></g><!--link FM to Check-up--><g id="link_FM_Check-up"><path codeLine="82" d="M488.13,554.26 C489.21,650.1 491.41,844.79 492.21,915.81 " fill="none" id="FM-Check-up" style="stroke:#181818;stroke-width:1.0;"/><polygon fill="#000000" points="496.5664,740.1452,499.4031,731.0675,493.5256,731.1338,496.5664,740.1452" style="stroke:#000000;stroke-width:1.0;"/><text fill="#000000" font-family="sans-serif" font-size="13" lengthAdjust="spacing" textLength="50" x="505.51" y="740.5283">registers</text><text fill="#000000" font-family="sans-serif" font-size="13" lengthAdjust="spacing" textLength="7" x="480.779" y="576.1313">1</text><text fill="#000000" font-family="sans-serif" font-size="13" lengthAdjust="spacing" textLength="5" x="486.5975" y="904.9271">*</text></g><!--link Vehicle to Check-up--><g id="link_Vehicle_Check-up"><path codeLine="83" d="M384.5,837.31 C393.71,854.45 404.4,871.4 416.51,886 C425.74,897.14 437.61,907.29 449.21,915.83 " fill="none" id="Vehicle-Check-up" style="stroke:#181818;stroke-width:1.0;"/><polygon fill="#000000" points="424.6899,880.504,421.2054,871.6548,416.6694,875.393,424.6899,880.504" style="stroke:#000000;stroke-width:1.0;"/><text fill="#000000" font-family="sans-serif" font-size="13" lengthAdjust="spacing" textLength="35" x="430.51" y="882.0283">needs</text><text fill="#000000" font-family="sans-serif" font-size="13" lengthAdjust="spacing" textLength="7" x="380.136" y="859.1325">1</text><text fill="#000000" font-family="sans-serif" font-size="13" lengthAdjust="spacing" textLength="7" x="431.9725" y="904.9515">1</text></g><!--link Team to Vehicle--><g id="link_Team_Vehicle"><path codeLine="84" d="M220.51,517.13 C234.55,541.89 261.2,588.88 286.12,632.81 " fill="none" id="Team-Vehicle" style="stroke:#181818;stroke-width:1.0;"/><polygon fill="#000000" points="276.9767,597.9947,275.0708,588.6771,269.958,591.5768,276.9767,597.9947" style="stroke:#000000;stroke-width:1.0;"/><text fill="#000000" font-family="sans-serif" font-size="13" lengthAdjust="spacing" textLength="35" x="283.51" y="599.0283">needs</text><text fill="#000000" font-family="sans-serif" font-size="13" lengthAdjust="spacing" textLength="7" x="215.2569" y="538.5395">1</text><text fill="#000000" font-family="sans-serif" font-size="13" lengthAdjust="spacing" textLength="20" x="261.171" y="621.7125">0..*</text></g><!--link Check-upList to Check-up--><g id="link_Check-upList_Check-up"><path codeLine="85" d="M658.93,762.57 C622.36,802.12 553.99,876.03 517.3,915.7 " fill="none" id="Check-upList-Check-up" style="stroke:#181818;stroke-width:1.0;"/><polygon fill="#000000" points="567.905,872.9748,559.6058,877.6196,563.9209,881.6107,567.905,872.9748" style="stroke:#000000;stroke-width:1.0;"/><text fill="#000000" font-family="sans-serif" font-size="13" lengthAdjust="spacing" textLength="43" x="573.51" y="882.0283">creates</text><text fill="#000000" font-family="sans-serif" font-size="13" lengthAdjust="spacing" textLength="7" x="645.4365" y="784.9452">1</text><text fill="#000000" font-family="sans-serif" font-size="13" lengthAdjust="spacing" textLength="5" x="517.1759" y="904.793">*</text></g><!--SRC=[hLLDRzim3BtxLn2-U2kMhhq6mu0iNVTPh6YwxSp8Z2r4bZn9Nf4M- - -ZfDXnqhIxh2UMV7plYPGSjvQwHOiDD4ORKLlJ47ZRKUQ6IejYZHKj_4OHM18UTQN605TZQUwahc25ob5Mx4fAQlARbi1ONvkiKBJou0rOMTKUIXdefD4ZCg7GkPdtLYuxJv-4qGjvJt2MrR8a4D8ArevnGqnPkYmhlFHixS8qA3LScP8K9oCHN2lqAsCRUCWAW4b9JbZPHitYJvObqCURguSC-4zZGp4Wfb8nQckZ2NJNBCd614jhBrTIO621qeYkuKmsi5t-JxB5MYeruXiAdytoM7fkbCAbiUYDFR2nbBm3ACcp6vVKdUl2siOvB4jBpXstkpl9FutV4ZP3Z6vzpEmFgYMlCvNUMTHbZD86GtJBLoS5Q5FmmHfk_4dX_iJ4lBEMXU5B4_-zeKewJnOkqAUEcVZLIIUZpI5vnJV5aqOjwFMy9h6UTEreYDjCCbOoOG12lcxonw2lN4x0xN4SQA8op5MCcFcEGNwUmsG2-KcUzWfJVa_9huEtXn3UyFE0yQuFa7kb8x8rEa1mvC6ideAVznO2-11pCc32eXbKaIQkKO36r4Wrx7_WkTmxmtPc1_RtCNa_wlm0rZUF7EzXmnuU-JaxFTtJxK7vUA7va_eWBCLZlidu8_FDLgZbVNe4iQKNUD-qoco8XdC_WmtpcOAvqn5Nn76D9jnJJRVQ9Imt0JX8F1vrRpBGxM2ijflKTqTs2YWytuG8tCd6-fm9AcCtJ8OUbQbOTmiaKMj- -IhTfbtBZ3_clwNVp5WzRWfjV0UekIqhUiQ-8zZTf-BnXZv-i3QPVz7tl3g0leHJkEGpTfPk5qSN4NzgGdHj-FsgMVgkCRyo8WvnvbdXBm00]--></g></svg>