<?xml version="1.0" encoding="us-ascii" standalone="no"?><svg xmlns="http://www.w3.org/2000/svg" xmlns:xlink="http://www.w3.org/1999/xlink" contentStyleType="text/css" height="501px" preserveAspectRatio="none" style="width:254px;height:501px;background:#FFFFFF;" version="1.1" viewBox="0 0 254 501" width="254px" zoomAndPan="magnify"><defs/><g><!--class Collaborator--><g id="elem_Collaborator"><rect codeLine="13" fill="#F1F1F1" height="85.2422" id="Collaborator" rx="2.5" ry="2.5" style="stroke:#181818;stroke-width:0.5;" width="110" x="98.5" y="7"/><ellipse cx="113.5" cy="23" fill="#ADD1B2" rx="11" ry="11" style="stroke:#181818;stroke-width:1.0;"/><path d="M116.2656,18.875 Q116.4219,18.6563 116.6094,18.5469 Q116.7969,18.4375 117.0156,18.4375 Q117.3906,18.4375 117.625,18.7031 Q117.8594,18.9531 117.8594,19.5625 L117.8594,21.0156 Q117.8594,21.625 117.625,21.8906 Q117.3906,22.1563 117.0156,22.1563 Q116.6719,22.1563 116.4688,21.9531 Q116.2656,21.7656 116.1563,21.25 Q116.1094,20.8906 115.9219,20.7031 Q115.5938,20.3281 114.9844,20.1094 Q114.375,19.8906 113.75,19.8906 Q112.9844,19.8906 112.3438,20.2188 Q111.7188,20.5469 111.2188,21.2969 Q110.7344,22.0469 110.7344,23.0781 L110.7344,24.1719 Q110.7344,25.4063 111.625,26.2344 Q112.5156,27.0469 114.1094,27.0469 Q115.0469,27.0469 115.7031,26.7969 Q116.0938,26.6406 116.5156,26.2031 Q116.7813,25.9375 116.9219,25.8594 Q117.0781,25.7813 117.2813,25.7813 Q117.6094,25.7813 117.8594,26.0469 Q118.125,26.2969 118.125,26.6406 Q118.125,26.9844 117.7813,27.3906 Q117.2813,27.9688 116.4844,28.2969 Q115.4063,28.75 114.1094,28.75 Q112.5938,28.75 111.3906,28.125 Q110.4063,27.625 109.7188,26.5625 Q109.0313,25.4844 109.0313,24.2031 L109.0313,23.0469 Q109.0313,21.7188 109.6406,20.5781 Q110.2656,19.4219 111.3594,18.8125 Q112.4531,18.1875 113.6875,18.1875 Q114.4219,18.1875 115.0625,18.3594 Q115.7188,18.5156 116.2656,18.875 Z " fill="#000000"/><text fill="#000000" font-family="sans-serif" font-size="14" lengthAdjust="spacing" textLength="78" x="127.5" y="28.7969">Collaborator</text><line style="stroke:#181818;stroke-width:0.5;" x1="99.5" x2="207.5" y1="39" y2="39"/><text fill="#000000" font-family="sans-serif" font-size="14" lengthAdjust="spacing" textLength="35" x="104.5" y="58.1074">name</text><text fill="#000000" font-family="sans-serif" font-size="14" lengthAdjust="spacing" textLength="33" x="104.5" y="76.7285">email</text><line style="stroke:#181818;stroke-width:0.5;" x1="99.5" x2="207.5" y1="84.2422" y2="84.2422"/></g><!--class Task--><g id="elem_Task"><rect codeLine="18" fill="#F1F1F1" height="141.1055" id="Task" rx="2.5" ry="2.5" style="stroke:#181818;stroke-width:0.5;" width="149" x="7" y="171"/><ellipse cx="61.75" cy="187" fill="#ADD1B2" rx="11" ry="11" style="stroke:#181818;stroke-width:1.0;"/><path d="M64.5156,182.875 Q64.6719,182.6563 64.8594,182.5469 Q65.0469,182.4375 65.2656,182.4375 Q65.6406,182.4375 65.875,182.7031 Q66.1094,182.9531 66.1094,183.5625 L66.1094,185.0156 Q66.1094,185.625 65.875,185.8906 Q65.6406,186.1563 65.2656,186.1563 Q64.9219,186.1563 64.7188,185.9531 Q64.5156,185.7656 64.4063,185.25 Q64.3594,184.8906 64.1719,184.7031 Q63.8438,184.3281 63.2344,184.1094 Q62.625,183.8906 62,183.8906 Q61.2344,183.8906 60.5938,184.2188 Q59.9688,184.5469 59.4688,185.2969 Q58.9844,186.0469 58.9844,187.0781 L58.9844,188.1719 Q58.9844,189.4063 59.875,190.2344 Q60.7656,191.0469 62.3594,191.0469 Q63.2969,191.0469 63.9531,190.7969 Q64.3438,190.6406 64.7656,190.2031 Q65.0313,189.9375 65.1719,189.8594 Q65.3281,189.7813 65.5313,189.7813 Q65.8594,189.7813 66.1094,190.0469 Q66.375,190.2969 66.375,190.6406 Q66.375,190.9844 66.0313,191.3906 Q65.5313,191.9688 64.7344,192.2969 Q63.6563,192.75 62.3594,192.75 Q60.8438,192.75 59.6406,192.125 Q58.6563,191.625 57.9688,190.5625 Q57.2813,189.4844 57.2813,188.2031 L57.2813,187.0469 Q57.2813,185.7188 57.8906,184.5781 Q58.5156,183.4219 59.6094,182.8125 Q60.7031,182.1875 61.9375,182.1875 Q62.6719,182.1875 63.3125,182.3594 Q63.9688,182.5156 64.5156,182.875 Z " fill="#000000"/><text fill="#000000" font-family="sans-serif" font-size="14" lengthAdjust="spacing" textLength="31" x="82.25" y="192.7969">Task</text><line style="stroke:#181818;stroke-width:0.5;" x1="8" x2="155" y1="203" y2="203"/><text fill="#000000" font-family="sans-serif" font-size="14" lengthAdjust="spacing" textLength="39" x="13" y="222.1074">taskID</text><text fill="#000000" font-family="sans-serif" font-size="14" lengthAdjust="spacing" textLength="62" x="13" y="240.7285">taskName</text><text fill="#000000" font-family="sans-serif" font-size="14" lengthAdjust="spacing" textLength="69" x="13" y="259.3496">description</text><text fill="#000000" font-family="sans-serif" font-size="14" lengthAdjust="spacing" textLength="38" x="13" y="277.9707">status</text><text fill="#000000" font-family="sans-serif" font-size="14" lengthAdjust="spacing" textLength="137" x="13" y="296.5918">completionTimestamp</text><line style="stroke:#181818;stroke-width:0.5;" x1="8" x2="155" y1="304.1055" y2="304.1055"/></g><!--class TaskCompletion--><g id="elem_TaskCompletion"><rect codeLine="26" fill="#F1F1F1" height="103.8633" id="TaskCompletion" rx="2.5" ry="2.5" style="stroke:#181818;stroke-width:0.5;" width="134" x="86.5" y="391"/><ellipse cx="101.5" cy="407" fill="#ADD1B2" rx="11" ry="11" style="stroke:#181818;stroke-width:1.0;"/><path d="M104.2656,402.875 Q104.4219,402.6563 104.6094,402.5469 Q104.7969,402.4375 105.0156,402.4375 Q105.3906,402.4375 105.625,402.7031 Q105.8594,402.9531 105.8594,403.5625 L105.8594,405.0156 Q105.8594,405.625 105.625,405.8906 Q105.3906,406.1563 105.0156,406.1563 Q104.6719,406.1563 104.4688,405.9531 Q104.2656,405.7656 104.1563,405.25 Q104.1094,404.8906 103.9219,404.7031 Q103.5938,404.3281 102.9844,404.1094 Q102.375,403.8906 101.75,403.8906 Q100.9844,403.8906 100.3438,404.2188 Q99.7188,404.5469 99.2188,405.2969 Q98.7344,406.0469 98.7344,407.0781 L98.7344,408.1719 Q98.7344,409.4063 99.625,410.2344 Q100.5156,411.0469 102.1094,411.0469 Q103.0469,411.0469 103.7031,410.7969 Q104.0938,410.6406 104.5156,410.2031 Q104.7813,409.9375 104.9219,409.8594 Q105.0781,409.7813 105.2813,409.7813 Q105.6094,409.7813 105.8594,410.0469 Q106.125,410.2969 106.125,410.6406 Q106.125,410.9844 105.7813,411.3906 Q105.2813,411.9688 104.4844,412.2969 Q103.4063,412.75 102.1094,412.75 Q100.5938,412.75 99.3906,412.125 Q98.4063,411.625 97.7188,410.5625 Q97.0313,409.4844 97.0313,408.2031 L97.0313,407.0469 Q97.0313,405.7188 97.6406,404.5781 Q98.2656,403.4219 99.3594,402.8125 Q100.4531,402.1875 101.6875,402.1875 Q102.4219,402.1875 103.0625,402.3594 Q103.7188,402.5156 104.2656,402.875 Z " fill="#000000"/><text fill="#000000" font-family="sans-serif" font-size="14" lengthAdjust="spacing" textLength="102" x="115.5" y="412.7969">TaskCompletion</text><line style="stroke:#181818;stroke-width:0.5;" x1="87.5" x2="219.5" y1="423" y2="423"/><text fill="#000000" font-family="sans-serif" font-size="14" lengthAdjust="spacing" textLength="81" x="92.5" y="442.1074">completionID</text><text fill="#000000" font-family="sans-serif" font-size="14" lengthAdjust="spacing" textLength="104" x="92.5" y="460.7285">completionNotes</text><text fill="#000000" font-family="sans-serif" font-size="14" lengthAdjust="spacing" textLength="64" x="92.5" y="479.3496">timestamp</text><line style="stroke:#181818;stroke-width:0.5;" x1="87.5" x2="219.5" y1="486.8633" y2="486.8633"/></g><!--link Collaborator to Task--><g id="link_Collaborator_Task"><path codeLine="32" d="M137.7,92.2 C128.96,115.25 117.88,144.48 107.88,170.9 " fill="none" id="Collaborator-Task" style="stroke:#181818;stroke-width:1.0;"/><polygon fill="#000000" points="129.7284,136.3211,135.6815,128.9042,130.185,126.8215,129.7284,136.3211" style="stroke:#000000;stroke-width:1.0;"/><text fill="#000000" font-family="sans-serif" font-size="13" lengthAdjust="spacing" textLength="43" x="140.5" y="137.0283">creates</text><text fill="#000000" font-family="sans-serif" font-size="13" lengthAdjust="spacing" textLength="7" x="127.6241" y="114.3922">1</text><text fill="#000000" font-family="sans-serif" font-size="13" lengthAdjust="spacing" textLength="5" x="105.3426" y="159.7807">*</text></g><!--link Task to TaskCompletion--><g id="link_Task_TaskCompletion"><path codeLine="33" d="M106.68,312.28 C116.01,338.12 126.4,366.92 135.03,390.81 " fill="none" id="Task-TaskCompletion" style="stroke:#181818;stroke-width:1.0;"/><polygon fill="#000000" points="131.1978,356.3484,130.8908,346.8428,125.3621,348.8387,131.1978,356.3484" style="stroke:#000000;stroke-width:1.0;"/><text fill="#000000" font-family="sans-serif" font-size="13" lengthAdjust="spacing" textLength="21" x="138.5" y="357.0283">has</text><text fill="#000000" font-family="sans-serif" font-size="13" lengthAdjust="spacing" textLength="7" x="101.8141" y="334.1216">1</text><text fill="#000000" font-family="sans-serif" font-size="13" lengthAdjust="spacing" textLength="22" x="109.07" y="379.7118">0..1</text></g><!--link Collaborator to TaskCompletion--><g id="link_Collaborator_TaskCompletion"><path codeLine="34" d="M176.19,92.09 C184.77,107.82 192.5,122 192.5,122 C192.5,122 192.5,141 192.5,141 C192.5,141 168.5,361 168.5,361 C168.5,361 165.98,374.63 163,390.7 " fill="none" id="Collaborator-TaskCompletion" style="stroke:#181818;stroke-width:1.0;"/><polygon fill="#000000" points="194.2794,246.6406,197.6146,237.7341,191.7424,237.4747,194.2794,246.6406" style="stroke:#000000;stroke-width:1.0;"/><text fill="#000000" font-family="sans-serif" font-size="13" lengthAdjust="spacing" textLength="43" x="203.5" y="247.0283">records</text><text fill="#000000" font-family="sans-serif" font-size="13" lengthAdjust="spacing" textLength="7" x="172.2484" y="114.2647">1</text><text fill="#000000" font-family="sans-serif" font-size="13" lengthAdjust="spacing" textLength="5" x="158.9406" y="379.5871">*</text></g><!--SRC=[VL6zRi8m4Dxz5ASiI9L0i39Kgih200kymE4SYONji-oBAbhrtUiaX2HLLK_d-tujBzBD-80H7JZshEl8Za1YGsf40keRLdIIkoM8f0LzPQU4L6F97yPNS4MRfeWrdkGU20BRUtjHYpz0Zi9gej8MKteJYURI2Eqr-vFv95WhjR1q5H26QAfQe3Hj7SC-8o16ShyTEpGU3boIXIj7E6EwmJkxOAbdTkvvOorUEA9apfU2V3mwwWRA5bPz3zJEeQT87lUxvtWS52Kb7Kte0jfx4fGcTQD-Hf-DemouCBSUkpr2HiKZQbmSMQYtbQdPx375fe3b4egNec- -1Hq9imvULRSO2ElLQbFyhh256blcVvOpUlu1ZcKh-G40]--></g></svg>