<?xml version="1.0" encoding="us-ascii" standalone="no"?><svg xmlns="http://www.w3.org/2000/svg" xmlns:xlink="http://www.w3.org/1999/xlink" contentStyleType="text/css" height="412px" preserveAspectRatio="none" style="width:302px;height:412px;background:#FFFFFF;" version="1.1" viewBox="0 0 302 412" width="302px" zoomAndPan="magnify"><defs/><g><!--class Task--><g id="elem_Task"><rect codeLine="9" fill="#F1F1F1" height="111.1055" id="Task" rx="2.5" ry="2.5" style="stroke:#181818;stroke-width:0.5;" width="81" x="84.2" y="7"/><text fill="#000000" font-family="sans-serif" font-size="14" lengthAdjust="spacing" textLength="31" x="109.2" y="27.1074">Task</text><line style="stroke:#181818;stroke-width:0.5;" x1="85.2" x2="164.2" y1="35.6211" y2="35.6211"/><text fill="#000000" font-family="sans-serif" font-size="14" lengthAdjust="spacing" textLength="35" x="90.2" y="54.7285">name</text><text fill="#000000" font-family="sans-serif" font-size="14" lengthAdjust="spacing" textLength="69" x="90.2" y="73.3496">description</text><text fill="#000000" font-family="sans-serif" font-size="14" lengthAdjust="spacing" textLength="51" x="90.2" y="91.9707">urgency</text><text fill="#000000" font-family="sans-serif" font-size="14" lengthAdjust="spacing" textLength="52" x="90.2" y="110.5918">duration</text></g><!--class ToDoList--><g id="elem_ToDoList"><rect codeLine="15" fill="#F1F1F1" height="55.2422" id="ToDoList" rx="2.5" ry="2.5" style="stroke:#181818;stroke-width:0.5;" width="63" x="29.2" y="206.5"/><text fill="#000000" font-family="sans-serif" font-size="14" lengthAdjust="spacing" textLength="57" x="32.2" y="226.6074">ToDoList</text><line style="stroke:#181818;stroke-width:0.5;" x1="30.2" x2="91.2" y1="235.1211" y2="235.1211"/><text fill="#000000" font-family="sans-serif" font-size="14" lengthAdjust="spacing" textLength="33" x="35.2" y="254.2285">tasks</text></g><!--class Agenda--><g id="elem_Agenda"><rect codeLine="20" fill="#F1F1F1" height="55.2422" id="Agenda" rx="2.5" ry="2.5" style="stroke:#181818;stroke-width:0.5;" width="115" x="158.2" y="350"/><text fill="#000000" font-family="sans-serif" font-size="14" lengthAdjust="spacing" textLength="49" x="191.2" y="370.1074">Agenda</text><line style="stroke:#181818;stroke-width:0.5;" x1="159.2" x2="272.2" y1="378.6211" y2="378.6211"/><text fill="#000000" font-family="sans-serif" font-size="14" lengthAdjust="spacing" textLength="103" x="164.2" y="397.7285">agendaEntryList</text></g><!--class AgendaEntry--><g id="elem_AgendaEntry"><rect codeLine="24" fill="#F1F1F1" height="73.8633" id="AgendaEntry" rx="2.5" ry="2.5" style="stroke:#181818;stroke-width:0.5;" width="91" x="170.2" y="197"/><text fill="#000000" font-family="sans-serif" font-size="14" lengthAdjust="spacing" textLength="82" x="174.7" y="217.1074">AgendaEntry</text><line style="stroke:#181818;stroke-width:0.5;" x1="171.2" x2="260.2" y1="225.6211" y2="225.6211"/><text fill="#000000" font-family="sans-serif" font-size="14" lengthAdjust="spacing" textLength="79" x="176.2" y="244.7285">starting date</text><text fill="#000000" font-family="sans-serif" font-size="14" lengthAdjust="spacing" textLength="26" x="176.2" y="263.3496">task</text></g><!--link Task to AgendaEntry--><g id="link_Task_AgendaEntry"><path codeLine="30" d="M153.99,118.06 C167.86,143.9 181.212,168.7636 193.522,191.6936 " fill="none" id="Task-to-AgendaEntry" style="stroke:#181818;stroke-width:1.0;"/><polygon fill="#181818" points="196.36,196.98,195.6273,187.1584,193.995,192.5747,188.5788,190.9424,196.36,196.98" style="stroke:#181818;stroke-width:1.0;"/><text fill="#000000" font-family="sans-serif" font-size="13" lengthAdjust="spacing" textLength="73" x="178.7" y="163.0283">scheduled in</text><text fill="#000000" font-family="sans-serif" font-size="13" lengthAdjust="spacing" textLength="7" x="150.2943" y="140.3079">1</text><text fill="#000000" font-family="sans-serif" font-size="13" lengthAdjust="spacing" textLength="5" x="187.3333" y="185.655">*</text></g><!--link AgendaEntry to Agenda--><g id="link_AgendaEntry_Agenda"><path codeLine="31" d="M215.7,271.07 C215.7,295.64 215.7,321.61 215.7,343.88 " fill="none" id="AgendaEntry-to-Agenda" style="stroke:#181818;stroke-width:1.0;"/><polygon fill="#181818" points="215.7,349.88,219.7,340.88,215.7,344.88,211.7,340.88,215.7,349.88" style="stroke:#181818;stroke-width:1.0;"/><text fill="#000000" font-family="sans-serif" font-size="13" lengthAdjust="spacing" textLength="78" x="216.7" y="316.0283">is recorded in</text><text fill="#000000" font-family="sans-serif" font-size="13" lengthAdjust="spacing" textLength="5" x="210.2703" y="292.9674">*</text><text fill="#000000" font-family="sans-serif" font-size="13" lengthAdjust="spacing" textLength="7" x="207.8906" y="338.5612">1</text></g><!--link Task to ToDoList--><g id="link_Task_ToDoList"><path codeLine="32" d="M84.2,82.83 C59.46,97.06 29.92,118.97 15.7,148 C6,167.79 14.3729,185.1994 28.5329,201.8494 " fill="none" id="Task-to-ToDoList" style="stroke:#181818;stroke-width:1.0;"/><polygon fill="#181818" points="32.42,206.42,29.6365,196.9727,29.1808,202.6112,23.5423,202.1555,32.42,206.42" style="stroke:#181818;stroke-width:1.0;"/><text fill="#000000" font-family="sans-serif" font-size="13" lengthAdjust="spacing" textLength="64" x="16.7" y="163.0283">captured in</text><text fill="#000000" font-family="sans-serif" font-size="13" lengthAdjust="spacing" textLength="5" x="71.2719" y="82.0566">*</text><text fill="#000000" font-family="sans-serif" font-size="13" lengthAdjust="spacing" textLength="7" x="18.0709" y="195.1105">1</text></g><!--link ToDoList to Task--><g id="link_ToDoList_Task"><path codeLine="33" d="M70.8,206.35 C75.36,194.33 80.8,179.95 85.7,167 C91.7,151.1 96.1055,139.445 102.0555,123.645 " fill="none" id="ToDoList-to-Task" style="stroke:#181818;stroke-width:1.0;"/><polygon fill="#181818" points="104.17,118.03,97.2548,125.0429,102.4079,122.7092,104.7416,127.8623,104.17,118.03" style="stroke:#181818;stroke-width:1.0;"/><text fill="#000000" font-family="sans-serif" font-size="13" lengthAdjust="spacing" textLength="49" x="93.7" y="163.0283">contains</text><text fill="#000000" font-family="sans-serif" font-size="13" lengthAdjust="spacing" textLength="7" x="65.3262" y="195.0243">1</text><text fill="#000000" font-family="sans-serif" font-size="13" lengthAdjust="spacing" textLength="5" x="96.2193" y="140.2741">*</text></g><!--SRC=[NP31QiCm38RlVWhXuw2mNdSO5BR3OBVk1JHRIqmIEqWo8ojzzzdkKinyalc__qEsJ26koBZ0ac9o8wU5G3cJaNkoefjmeBDkCm6JKup3t0Coea_V8GxmXRFqYPjHvAJAuJChlRaKp-67uD6OCNW25zWLKviNqZ5vCQPru0DbWek1SY8kr0PFuZYi6b9izym3HRVTiipOWkikI2_fFOWMYHPN4LztzwdKF9O0s_0QbRUA_YTQS36Yo5fVvr6foIfeseRsQE5mU0RxOFiIF84LDvBFCta8qPe-h70h7VTIvOFKpqti_netVuVUNrHWXwjctiazwBTfzKgcg1YYMFCB]--></g></svg>