<?xml version="1.0" encoding="us-ascii" standalone="no"?><svg xmlns="http://www.w3.org/2000/svg" xmlns:xlink="http://www.w3.org/1999/xlink" contentStyleType="text/css" height="1149px" preserveAspectRatio="none" style="width:1138px;height:1149px;background:#FFFFFF;" version="1.1" viewBox="0 0 1138 1149" width="1138px" zoomAndPan="magnify"><defs/><g><!--class Organization--><g id="elem_Organization"><rect codeLine="15" fill="#F1F1F1" height="55.2422" id="Organization" rx="2.5" ry="2.5" style="stroke:#181818;stroke-width:0.5;" width="86" x="555.47" y="7"/><text fill="#000000" font-family="sans-serif" font-size="14" lengthAdjust="spacing" textLength="80" x="558.47" y="27.1074">Organization</text><line style="stroke:#181818;stroke-width:0.5;" x1="556.47" x2="640.47" y1="35.6211" y2="35.6211"/><text fill="#000000" font-family="sans-serif" font-size="14" lengthAdjust="spacing" textLength="35" x="561.47" y="54.7285">name</text></g><!--class HRM--><g id="elem_HRM"><rect codeLine="19" fill="#F1F1F1" height="111.1055" id="HRM" rx="2.5" ry="2.5" style="stroke:#181818;stroke-width:0.5;" width="157" x="251.97" y="141"/><text fill="#000000" font-family="sans-serif" font-size="14" lengthAdjust="spacing" textLength="30" x="315.47" y="161.1074">HRM</text><line style="stroke:#181818;stroke-width:0.5;" x1="252.97" x2="407.97" y1="169.6211" y2="169.6211"/><text fill="#000000" font-family="sans-serif" font-size="14" lengthAdjust="spacing" textLength="35" x="257.97" y="188.7285">name</text><text fill="#000000" font-family="sans-serif" font-size="14" lengthAdjust="spacing" textLength="33" x="257.97" y="207.3496">email</text><text fill="#000000" font-family="sans-serif" font-size="14" lengthAdjust="spacing" textLength="92" x="257.97" y="225.9707">phone number</text><text fill="#000000" font-family="sans-serif" font-size="14" lengthAdjust="spacing" textLength="145" x="257.97" y="244.5918">identification document</text></g><!--class VFM--><g id="elem_VFM"><rect codeLine="26" fill="#F1F1F1" height="111.1055" id="VFM" rx="2.5" ry="2.5" style="stroke:#181818;stroke-width:0.5;" width="157" x="357.97" y="614"/><text fill="#000000" font-family="sans-serif" font-size="14" lengthAdjust="spacing" textLength="29" x="421.97" y="634.1074">VFM</text><line style="stroke:#181818;stroke-width:0.5;" x1="358.97" x2="513.97" y1="642.6211" y2="642.6211"/><text fill="#000000" font-family="sans-serif" font-size="14" lengthAdjust="spacing" textLength="35" x="363.97" y="661.7285">name</text><text fill="#000000" font-family="sans-serif" font-size="14" lengthAdjust="spacing" textLength="33" x="363.97" y="680.3496">email</text><text fill="#000000" font-family="sans-serif" font-size="14" lengthAdjust="spacing" textLength="92" x="363.97" y="698.9707">phone number</text><text fill="#000000" font-family="sans-serif" font-size="14" lengthAdjust="spacing" textLength="145" x="363.97" y="717.5918">identification document</text></g><!--class GSM--><g id="elem_GSM"><rect codeLine="33" fill="#F1F1F1" height="111.1055" id="GSM" rx="2.5" ry="2.5" style="stroke:#181818;stroke-width:0.5;" width="157" x="810.97" y="141"/><text fill="#000000" font-family="sans-serif" font-size="14" lengthAdjust="spacing" textLength="31" x="873.97" y="161.1074">GSM</text><line style="stroke:#181818;stroke-width:0.5;" x1="811.97" x2="966.97" y1="169.6211" y2="169.6211"/><text fill="#000000" font-family="sans-serif" font-size="14" lengthAdjust="spacing" textLength="35" x="816.97" y="188.7285">name</text><text fill="#000000" font-family="sans-serif" font-size="14" lengthAdjust="spacing" textLength="33" x="816.97" y="207.3496">email</text><text fill="#000000" font-family="sans-serif" font-size="14" lengthAdjust="spacing" textLength="92" x="816.97" y="225.9707">phone number</text><text fill="#000000" font-family="sans-serif" font-size="14" lengthAdjust="spacing" textLength="145" x="816.97" y="244.5918">identification document</text></g><!--class GSU--><g id="elem_GSU"><rect codeLine="40" fill="#F1F1F1" height="55.2422" id="GSU" rx="2.5" ry="2.5" style="stroke:#181818;stroke-width:0.5;" width="47" x="651.97" y="169"/><text fill="#000000" font-family="sans-serif" font-size="14" lengthAdjust="spacing" textLength="29" x="660.97" y="189.1074">GSU</text><line style="stroke:#181818;stroke-width:0.5;" x1="652.97" x2="697.97" y1="197.6211" y2="197.6211"/><text fill="#000000" font-family="sans-serif" font-size="14" lengthAdjust="spacing" textLength="35" x="657.97" y="216.7285">name</text></g><!--class Skill--><g id="elem_Skill"><rect codeLine="45" fill="#F1F1F1" height="55.2422" id="Skill" rx="2.5" ry="2.5" style="stroke:#181818;stroke-width:0.5;" width="47" x="252.97" y="642"/><text fill="#000000" font-family="sans-serif" font-size="14" lengthAdjust="spacing" textLength="25" x="263.97" y="662.1074">Skill</text><line style="stroke:#181818;stroke-width:0.5;" x1="253.97" x2="298.97" y1="670.6211" y2="670.6211"/><text fill="#000000" font-family="sans-serif" font-size="14" lengthAdjust="spacing" textLength="35" x="258.97" y="689.7285">name</text></g><!--class Job--><g id="elem_Job"><rect codeLine="49" fill="#F1F1F1" height="73.8633" id="Job" rx="2.5" ry="2.5" style="stroke:#181818;stroke-width:0.5;" width="111" x="72.97" y="632.5"/><text fill="#000000" font-family="sans-serif" font-size="14" lengthAdjust="spacing" textLength="22" x="117.47" y="652.6074">Job</text><line style="stroke:#181818;stroke-width:0.5;" x1="73.97" x2="182.97" y1="661.1211" y2="661.1211"/><text fill="#000000" font-family="sans-serif" font-size="14" lengthAdjust="spacing" textLength="35" x="78.97" y="680.2285">name</text><text fill="#000000" font-family="sans-serif" font-size="14" lengthAdjust="spacing" textLength="99" x="78.97" y="698.8496">necessary skills</text></g><!--class Collaborator--><g id="elem_Collaborator"><rect codeLine="54" fill="#F1F1F1" height="204.2109" id="Collaborator" rx="2.5" ry="2.5" style="stroke:#181818;stroke-width:0.5;" width="163" x="147.97" y="331"/><text fill="#000000" font-family="sans-serif" font-size="14" lengthAdjust="spacing" textLength="78" x="190.47" y="351.1074">Collaborator</text><line style="stroke:#181818;stroke-width:0.5;" x1="148.97" x2="309.97" y1="359.6211" y2="359.6211"/><text fill="#000000" font-family="sans-serif" font-size="14" lengthAdjust="spacing" textLength="39" x="153.97" y="378.7285">name,</text><text fill="#000000" font-family="sans-serif" font-size="14" lengthAdjust="spacing" textLength="79" x="153.97" y="397.3496">birth Details,</text><text fill="#000000" font-family="sans-serif" font-size="14" lengthAdjust="spacing" textLength="99" x="153.97" y="415.9707">admisison date,</text><text fill="#000000" font-family="sans-serif" font-size="14" lengthAdjust="spacing" textLength="55" x="153.97" y="434.5918">address,</text><text fill="#000000" font-family="sans-serif" font-size="14" lengthAdjust="spacing" textLength="93" x="153.97" y="453.2129">phoneNumber,</text><text fill="#000000" font-family="sans-serif" font-size="14" lengthAdjust="spacing" textLength="37" x="153.97" y="471.834">email,</text><text fill="#000000" font-family="sans-serif" font-size="14" lengthAdjust="spacing" textLength="127" x="153.97" y="490.4551">taxPayer Document,</text><text fill="#000000" font-family="sans-serif" font-size="14" lengthAdjust="spacing" textLength="151" x="153.97" y="509.0762">identification Document,</text><text fill="#000000" font-family="sans-serif" font-size="14" lengthAdjust="spacing" textLength="19" x="153.97" y="527.6973">job</text></g><!--class Team--><g id="elem_Team"><rect codeLine="66" fill="#F1F1F1" height="73.8633" id="Team" rx="2.5" ry="2.5" style="stroke:#181818;stroke-width:0.5;" width="94" x="681.47" y="632.5"/><text fill="#000000" font-family="sans-serif" font-size="14" lengthAdjust="spacing" textLength="36" x="710.47" y="652.6074">Team</text><line style="stroke:#181818;stroke-width:0.5;" x1="682.47" x2="774.47" y1="661.1211" y2="661.1211"/><text fill="#000000" font-family="sans-serif" font-size="14" lengthAdjust="spacing" textLength="82" x="687.47" y="680.2285">collaborators</text><text fill="#000000" font-family="sans-serif" font-size="14" lengthAdjust="spacing" textLength="82" x="687.47" y="698.8496">skills needed</text></g><!--class GreenSpaces--><g id="elem_GreenSpaces"><rect codeLine="71" fill="#F1F1F1" height="129.7266" id="GreenSpaces" rx="2.5" ry="2.5" style="stroke:#181818;stroke-width:0.5;" width="93" x="877.97" y="368"/><text fill="#000000" font-family="sans-serif" font-size="14" lengthAdjust="spacing" textLength="87" x="880.97" y="388.1074">GreenSpaces</text><line style="stroke:#181818;stroke-width:0.5;" x1="878.97" x2="969.97" y1="396.6211" y2="396.6211"/><text fill="#000000" font-family="sans-serif" font-size="14" lengthAdjust="spacing" textLength="27" x="883.97" y="415.7285">type</text><text fill="#000000" font-family="sans-serif" font-size="14" lengthAdjust="spacing" textLength="29" x="883.97" y="434.3496">area</text><text fill="#000000" font-family="sans-serif" font-size="14" lengthAdjust="spacing" textLength="51" x="883.97" y="452.9707">address</text><text fill="#000000" font-family="sans-serif" font-size="14" lengthAdjust="spacing" textLength="35" x="883.97" y="471.5918">name</text><text fill="#000000" font-family="sans-serif" font-size="14" lengthAdjust="spacing" textLength="68" x="883.97" y="490.2129">GSM email</text></g><!--class Task--><g id="elem_Task"><rect codeLine="79" fill="#F1F1F1" height="111.1055" id="Task" rx="2.5" ry="2.5" style="stroke:#181818;stroke-width:0.5;" width="125" x="984.97" y="614"/><text fill="#000000" font-family="sans-serif" font-size="14" lengthAdjust="spacing" textLength="31" x="1031.97" y="634.1074">Task</text><line style="stroke:#181818;stroke-width:0.5;" x1="985.97" x2="1108.97" y1="642.6211" y2="642.6211"/><text fill="#000000" font-family="sans-serif" font-size="14" lengthAdjust="spacing" textLength="35" x="990.97" y="661.7285">name</text><text fill="#000000" font-family="sans-serif" font-size="14" lengthAdjust="spacing" textLength="51" x="990.97" y="680.3496">urgency</text><text fill="#000000" font-family="sans-serif" font-size="14" lengthAdjust="spacing" textLength="113" x="990.97" y="698.9707">expected duration</text><text fill="#000000" font-family="sans-serif" font-size="14" lengthAdjust="spacing" textLength="38" x="990.97" y="717.5918">status</text></g><!--class Vehicle--><g id="elem_Vehicle"><rect codeLine="86" fill="#F1F1F1" height="204.2109" id="Vehicle" rx="2.5" ry="2.5" style="stroke:#181818;stroke-width:0.5;" width="230" x="483.47" y="804"/><text fill="#000000" font-family="sans-serif" font-size="14" lengthAdjust="spacing" textLength="46" x="575.47" y="824.1074">Vehicle</text><line style="stroke:#181818;stroke-width:0.5;" x1="484.47" x2="712.47" y1="832.6211" y2="832.6211"/><text fill="#000000" font-family="sans-serif" font-size="14" lengthAdjust="spacing" textLength="38" x="489.47" y="851.7285">Brand</text><text fill="#000000" font-family="sans-serif" font-size="14" lengthAdjust="spacing" textLength="38" x="489.47" y="870.3496">Model</text><text fill="#000000" font-family="sans-serif" font-size="14" lengthAdjust="spacing" textLength="32" x="489.47" y="888.9707">Type</text><text fill="#000000" font-family="sans-serif" font-size="14" lengthAdjust="spacing" textLength="78" x="489.47" y="907.5918">Tare Weight</text><text fill="#000000" font-family="sans-serif" font-size="14" lengthAdjust="spacing" textLength="86" x="489.47" y="926.2129">Gross Weight</text><text fill="#000000" font-family="sans-serif" font-size="14" lengthAdjust="spacing" textLength="72" x="489.47" y="944.834">Current Km</text><text fill="#000000" font-family="sans-serif" font-size="14" lengthAdjust="spacing" textLength="87" x="489.47" y="963.4551">Register Date</text><text fill="#000000" font-family="sans-serif" font-size="14" lengthAdjust="spacing" textLength="102" x="489.47" y="982.0762">Acquisition Date</text><text fill="#000000" font-family="sans-serif" font-size="14" lengthAdjust="spacing" textLength="218" x="489.47" y="1000.6973">Maintenance/Check-up Frequency</text></g><!--class VehiclesMaintenance--><g id="elem_VehiclesMaintenance"><rect codeLine="98" fill="#F1F1F1" height="55.2422" id="VehiclesMaintenance" rx="2.5" ry="2.5" style="stroke:#181818;stroke-width:0.5;" width="140" x="223.47" y="1087"/><text fill="#000000" font-family="sans-serif" font-size="14" lengthAdjust="spacing" textLength="134" x="226.47" y="1107.1074">VehiclesMaintenance</text><line style="stroke:#181818;stroke-width:0.5;" x1="224.47" x2="362.47" y1="1115.6211" y2="1115.6211"/><text fill="#000000" font-family="sans-serif" font-size="14" lengthAdjust="spacing" textLength="85" x="229.47" y="1134.7285">distance "km"</text></g><!--class ToDoList--><g id="elem_ToDoList"><rect codeLine="103" fill="#F1F1F1" height="92.4844" id="ToDoList" rx="2.5" ry="2.5" style="stroke:#181818;stroke-width:0.5;" width="125" x="1006.97" y="387"/><text fill="#000000" font-family="sans-serif" font-size="14" lengthAdjust="spacing" textLength="57" x="1040.97" y="407.1074">ToDoList</text><line style="stroke:#181818;stroke-width:0.5;" x1="1007.97" x2="1130.97" y1="415.6211" y2="415.6211"/><text fill="#000000" font-family="sans-serif" font-size="14" lengthAdjust="spacing" textLength="99" x="1012.97" y="434.7285">task description</text><text fill="#000000" font-family="sans-serif" font-size="14" lengthAdjust="spacing" textLength="51" x="1012.97" y="453.3496">urgency</text><text fill="#000000" font-family="sans-serif" font-size="14" lengthAdjust="spacing" textLength="113" x="1012.97" y="471.9707">expected duration</text></g><!--class Agenda--><g id="elem_Agenda"><rect codeLine="109" fill="#F1F1F1" height="129.7266" id="Agenda" rx="2.5" ry="2.5" style="stroke:#181818;stroke-width:0.5;" width="133" x="706.97" y="368"/><text fill="#000000" font-family="sans-serif" font-size="14" lengthAdjust="spacing" textLength="49" x="748.97" y="388.1074">Agenda</text><line style="stroke:#181818;stroke-width:0.5;" x1="707.97" x2="838.97" y1="396.6211" y2="396.6211"/><text fill="#000000" font-family="sans-serif" font-size="14" lengthAdjust="spacing" textLength="43" x="712.97" y="415.7285">entries</text><text fill="#000000" font-family="sans-serif" font-size="14" lengthAdjust="spacing" textLength="31" x="712.97" y="434.3496">team</text><text fill="#000000" font-family="sans-serif" font-size="14" lengthAdjust="spacing" textLength="121" x="712.97" y="452.9707">vehicles/equipment</text><text fill="#000000" font-family="sans-serif" font-size="14" lengthAdjust="spacing" textLength="113" x="712.97" y="471.5918">expected duration</text><text fill="#000000" font-family="sans-serif" font-size="14" lengthAdjust="spacing" textLength="38" x="712.97" y="490.2129">status</text></g><!--class Entry--><g id="elem_Entry"><rect codeLine="117" fill="#F1F1F1" height="129.7266" id="Entry" rx="2.5" ry="2.5" style="stroke:#181818;stroke-width:0.5;" width="81" x="834.97" y="841"/><text fill="#000000" font-family="sans-serif" font-size="14" lengthAdjust="spacing" textLength="33" x="858.97" y="861.1074">Entry</text><line style="stroke:#181818;stroke-width:0.5;" x1="835.97" x2="914.97" y1="869.6211" y2="869.6211"/><text fill="#000000" font-family="sans-serif" font-size="14" lengthAdjust="spacing" textLength="26" x="840.97" y="888.7285">task</text><text fill="#000000" font-family="sans-serif" font-size="14" lengthAdjust="spacing" textLength="28" x="840.97" y="907.3496">date</text><text fill="#000000" font-family="sans-serif" font-size="14" lengthAdjust="spacing" textLength="26" x="840.97" y="925.9707">time</text><text fill="#000000" font-family="sans-serif" font-size="14" lengthAdjust="spacing" textLength="69" x="840.97" y="944.5918">description</text><text fill="#000000" font-family="sans-serif" font-size="14" lengthAdjust="spacing" textLength="31" x="840.97" y="963.2129">state</text></g><!--class CheckupList--><g id="elem_CheckupList"><rect fill="#F1F1F1" height="36.6211" id="CheckupList" rx="2.5" ry="2.5" style="stroke:#181818;stroke-width:0.5;" width="84" x="364.47" y="887.5"/><text fill="#000000" font-family="sans-serif" font-size="14" lengthAdjust="spacing" textLength="78" x="367.47" y="907.6074">CheckupList</text><line style="stroke:#181818;stroke-width:0.5;" x1="365.47" x2="447.47" y1="916.1211" y2="916.1211"/></g><!--link Organization to HRM--><g id="link_Organization_HRM"><path codeLine="125" d="M555.38,38.76 C511.84,43.95 444.45,57.37 397.47,92 C380.33,104.64 366.39,123.09 355.75,140.92 " fill="none" id="Organization-HRM" style="stroke:#181818;stroke-width:1.0;"/><polygon fill="#000000" points="406.921,99.3677,397.5302,100.872,400.2079,106.1045,406.921,99.3677" style="stroke:#000000;stroke-width:1.0;"/><text fill="#000000" font-family="sans-serif" font-size="13" lengthAdjust="spacing" textLength="61" x="411.47" y="107.0283">is a part of</text><text fill="#000000" font-family="sans-serif" font-size="13" lengthAdjust="spacing" textLength="5" x="353.6687" y="129.75">*</text></g><!--link Organization to VFM--><g id="link_Organization_VFM"><path codeLine="126" d="M584.87,62.08 C562.76,106.44 519.22,198.91 496.47,282 C487.88,313.4 458.5,514.6 444.29,613.62 " fill="none" id="Organization-VFM" style="stroke:#181818;stroke-width:1.0;"/><polygon fill="#000000" points="502.7049,286.8004,497.623,294.8394,503.3188,296.2912,502.7049,286.8004" style="stroke:#000000;stroke-width:1.0;"/><text fill="#000000" font-family="sans-serif" font-size="13" lengthAdjust="spacing" textLength="61" x="510.47" y="297.0283">is a part of</text><text fill="#000000" font-family="sans-serif" font-size="13" lengthAdjust="spacing" textLength="5" x="439.9384" y="602.8133">*</text></g><!--link Organization to GSM--><g id="link_Organization_GSM"><path codeLine="127" d="M641.49,54.44 C664.6,64.94 693.41,78.56 718.47,92 C749.21,108.48 782.17,127.97 810.86,145.57 " fill="none" id="Organization-GSM" style="stroke:#181818;stroke-width:1.0;"/><polygon fill="#000000" points="752.0669,99.2764,758.6397,106.1502,761.4247,100.9741,752.0669,99.2764" style="stroke:#000000;stroke-width:1.0;"/><text fill="#000000" font-family="sans-serif" font-size="13" lengthAdjust="spacing" textLength="61" x="765.47" y="107.0283">is a part of</text><text fill="#000000" font-family="sans-serif" font-size="13" lengthAdjust="spacing" textLength="5" x="797.8757" y="136.7573">*</text></g><!--link Organization to GSU--><g id="link_Organization_GSU"><path codeLine="128" d="M611.36,62.28 C625.62,91.9 648.45,139.35 662.67,168.9 " fill="none" id="Organization-GSU" style="stroke:#181818;stroke-width:1.0;"/><polygon fill="#000000" points="637.3018,97.1401,638.5759,106.5649,643.8723,104.016,637.3018,97.1401" style="stroke:#000000;stroke-width:1.0;"/><text fill="#000000" font-family="sans-serif" font-size="13" lengthAdjust="spacing" textLength="61" x="648.47" y="107.0283">is a part of</text><text fill="#000000" font-family="sans-serif" font-size="13" lengthAdjust="spacing" textLength="5" x="654.1319" y="157.5858">*</text></g><!--link Organization to Vehicle--><g id="link_Organization_Vehicle"><path codeLine="129" d="M598.47,62.11 C598.47,93.86 598.47,148.56 598.47,195.5 C598.47,195.5 598.47,195.5 598.47,670.5 C598.47,714.16 598.47,762.4 598.47,803.71 " fill="none" id="Organization-Vehicle" style="stroke:#181818;stroke-width:1.0;"/><polygon fill="#000000" points="603.47,438.1455,606.4089,429.1004,600.5311,429.1004,603.47,438.1455" style="stroke:#000000;stroke-width:1.0;"/><text fill="#000000" font-family="sans-serif" font-size="13" lengthAdjust="spacing" textLength="30" x="612.47" y="438.5283">owns</text></g><!--link HRM to Skill--><g id="link_HRM_Skill"><path codeLine="130" d="M352.18,252.27 C355.21,262.03 357.84,272.21 359.47,282 C381.57,414.45 399.72,459.08 350.47,584 C340.1,610.31 317.74,633.92 300.3,649.45 " fill="none" id="HRM-Skill" style="stroke:#181818;stroke-width:1.0;"/><polygon fill="#000000" points="386.8224,438.1034,390.9081,429.5151,385.0798,428.7538,386.8224,438.1034" style="stroke:#000000;stroke-width:1.0;"/><text fill="#000000" font-family="sans-serif" font-size="13" lengthAdjust="spacing" textLength="50" x="396.47" y="438.5283">registers</text><text fill="#000000" font-family="sans-serif" font-size="13" lengthAdjust="spacing" textLength="7" x="347.3993" y="274.1425">1</text><text fill="#000000" font-family="sans-serif" font-size="13" lengthAdjust="spacing" textLength="5" x="308.0344" y="638.0989">*</text></g><!--link HRM to Job--><g id="link_HRM_Job"><path codeLine="131" d="M251.7,213.63 C189.17,231.03 105.8,265.54 65.47,331 C6,427.55 69.72,567 106.37,632.25 " fill="none" id="HRM-Job" style="stroke:#181818;stroke-width:1.0;"/><polygon fill="#000000" points="68.8302,437.869,74.573,430.288,69.0203,428.3603,68.8302,437.869" style="stroke:#000000;stroke-width:1.0;"/><text fill="#000000" font-family="sans-serif" font-size="13" lengthAdjust="spacing" textLength="50" x="79.47" y="438.5283">registers</text><text fill="#000000" font-family="sans-serif" font-size="13" lengthAdjust="spacing" textLength="7" x="236.8586" y="211.4897">1</text><text fill="#000000" font-family="sans-serif" font-size="13" lengthAdjust="spacing" textLength="5" x="96.9881" y="621.1672">*</text></g><!--link HRM to Collaborator--><g id="link_HRM_Collaborator"><path codeLine="132" d="M303.99,252.3 C299.39,262.14 294.72,272.34 290.47,282 C283.57,297.7 276.5,314.43 269.72,330.82 " fill="none" id="HRM-Collaborator" style="stroke:#181818;stroke-width:1.0;"/><polygon fill="#000000" points="293.4699,296.2281,299.7816,289.1137,294.3945,286.7625,293.4699,296.2281" style="stroke:#000000;stroke-width:1.0;"/><text fill="#000000" font-family="sans-serif" font-size="13" lengthAdjust="spacing" textLength="50" x="304.47" y="297.0283">registers</text><text fill="#000000" font-family="sans-serif" font-size="13" lengthAdjust="spacing" textLength="7" x="293.3362" y="274.1762">1</text><text fill="#000000" font-family="sans-serif" font-size="13" lengthAdjust="spacing" textLength="5" x="267.4923" y="319.7232">*</text></g><!--link Collaborator to Skill--><g id="link_Collaborator_Skill"><path codeLine="133" d="M249.75,535.15 C257.55,574.07 265.83,615.41 271.07,641.56 " fill="none" id="Collaborator-Skill" style="stroke:#181818;stroke-width:1.0;"/><polygon fill="#000000" points="265.4523,579.5481,266.557,570.1019,260.7937,571.2566,265.4523,579.5481" style="stroke:#000000;stroke-width:1.0;"/><text fill="#000000" font-family="sans-serif" font-size="13" lengthAdjust="spacing" textLength="68" x="273.47" y="580.0283">has a set of</text><text fill="#000000" font-family="sans-serif" font-size="13" lengthAdjust="spacing" textLength="7" x="243.9823" y="557.3071">1</text><text fill="#000000" font-family="sans-serif" font-size="13" lengthAdjust="spacing" textLength="5" x="264.3419" y="630.6224">*</text></g><!--link Collaborator to Job--><g id="link_Collaborator_Job"><path codeLine="134" d="M185.91,535.15 C171.01,569.74 155.29,606.22 144.08,632.27 " fill="none" id="Collaborator-Job" style="stroke:#181818;stroke-width:1.0;"/><polygon fill="#000000" points="176.4921,579.2377,182.7693,572.0929,177.3709,569.7678,176.4921,579.2377" style="stroke:#000000;stroke-width:1.0;"/><text fill="#000000" font-family="sans-serif" font-size="13" lengthAdjust="spacing" textLength="21" x="187.47" y="580.0283">has</text><text fill="#000000" font-family="sans-serif" font-size="13" lengthAdjust="spacing" textLength="7" x="175.454" y="557.3071">1</text><text fill="#000000" font-family="sans-serif" font-size="13" lengthAdjust="spacing" textLength="7" x="139.2371" y="621.1908">1</text></g><!--link Collaborator to Team--><g id="link_Collaborator_Team"><path codeLine="135" d="M311.13,516.09 C319.99,522.99 329.17,529.44 338.47,535 C398.06,570.6 591.31,628.91 681.41,655.07 " fill="none" id="Collaborator-Team" style="stroke:#181818;stroke-width:1.0;"/><polygon fill="#000000" points="457.1511,576.4025,449.7156,570.4726,447.6501,575.9756,457.1511,576.4025" style="stroke:#000000;stroke-width:1.0;"/><text fill="#000000" font-family="sans-serif" font-size="13" lengthAdjust="spacing" textLength="60" x="461.47" y="580.0283">belongs to</text><text fill="#000000" font-family="sans-serif" font-size="13" lengthAdjust="spacing" textLength="7" x="318.9807" y="519.9983">1</text><text fill="#000000" font-family="sans-serif" font-size="13" lengthAdjust="spacing" textLength="7" x="666.352" y="648.4779">1</text></g><!--link GreenSpaces to Task--><g id="link_GreenSpaces_Task"><path codeLine="136" d="M926.63,498.12 C929.86,525.96 936.85,558.07 951.47,584 C959.87,598.89 971.9,612.47 984.62,624.18 " fill="none" id="GreenSpaces-Task" style="stroke:#181818;stroke-width:1.0;"/><polygon fill="#000000" points="954.3804,570.1031,955.4906,579.5486,960.8305,577.0922,954.3804,570.1031" style="stroke:#000000;stroke-width:1.0;"/><text fill="#000000" font-family="sans-serif" font-size="13" lengthAdjust="spacing" textLength="81" x="965.47" y="580.0283">is assigned to</text><text fill="#000000" font-family="sans-serif" font-size="13" lengthAdjust="spacing" textLength="22" x="903.7184" y="519.7695">0..1</text><text fill="#000000" font-family="sans-serif" font-size="13" lengthAdjust="spacing" textLength="7" x="969.9483" y="614.9961">1</text></g><!--link Task to Entry--><g id="link_Task_Entry"><path codeLine="137" d="M1007.36,725.18 C979.97,762.54 943.78,811.87 916.24,849.42 " fill="none" id="Task-Entry" style="stroke:#181818;stroke-width:1.0;"/><polygon fill="#000000" points="983.513,768.6774,991.2322,763.1218,986.4924,759.6456,983.513,768.6774" style="stroke:#000000;stroke-width:1.0;"/><text fill="#000000" font-family="sans-serif" font-size="13" lengthAdjust="spacing" textLength="76" x="995.47" y="770.0283">is included in</text><text fill="#000000" font-family="sans-serif" font-size="13" lengthAdjust="spacing" textLength="7" x="995.045" y="747.0416">1</text><text fill="#000000" font-family="sans-serif" font-size="13" lengthAdjust="spacing" textLength="5" x="923.9475" y="834.9062">*</text></g><!--link Team to Entry--><g id="link_Team_Entry"><path codeLine="138" d="M734.33,706.56 C738.7,727.2 745.95,753.08 757.47,774 C777.47,810.33 809.36,844.91 834.95,869.4 " fill="none" id="Team-Entry" style="stroke:#181818;stroke-width:1.0;"/><polygon fill="#000000" points="765.0983,768.899,762.8438,759.6595,757.8435,762.7492,765.0983,768.899" style="stroke:#000000;stroke-width:1.0;"/><text fill="#000000" font-family="sans-serif" font-size="13" lengthAdjust="spacing" textLength="77" x="771.47" y="770.0283">is assigned a</text><text fill="#000000" font-family="sans-serif" font-size="13" lengthAdjust="spacing" textLength="7" x="727.7356" y="728.4557">1</text><text fill="#000000" font-family="sans-serif" font-size="13" lengthAdjust="spacing" textLength="5" x="822.0182" y="858.165">*</text></g><!--link VFM to Vehicle--><g id="link_VFM_Vehicle"><path codeLine="139" d="M473.81,725.06 C484.65,740.86 496.52,758.13 507.47,774 C514.16,783.69 521.13,793.77 528.11,803.84 " fill="none" id="VFM-Vehicle" style="stroke:#181818;stroke-width:1.0;"/><polygon fill="#000000" points="515.3076,768.7623,512.5942,759.647,507.7546,762.9828,515.3076,768.7623" style="stroke:#000000;stroke-width:1.0;"/><text fill="#000000" font-family="sans-serif" font-size="13" lengthAdjust="spacing" textLength="50" x="521.47" y="770.0283">registers</text><text fill="#000000" font-family="sans-serif" font-size="13" lengthAdjust="spacing" textLength="7" x="471.1458" y="747.3079">1</text><text fill="#000000" font-family="sans-serif" font-size="13" lengthAdjust="spacing" textLength="5" x="517.7593" y="792.7447">*</text></g><!--link VFM to VehiclesMaintenance--><g id="link_VFM_VehiclesMaintenance"><path codeLine="140" d="M357.8,717.19 C328.1,739.39 297.61,768.81 281.47,804 C237.43,900.05 268.07,1031 284.69,1086.68 " fill="none" id="VFM-VehiclesMaintenance" style="stroke:#181818;stroke-width:1.0;"/><polygon fill="#000000" points="285.4995,911.0504,290.1382,902.7478,284.3721,901.6069,285.4995,911.0504" style="stroke:#000000;stroke-width:1.0;"/><text fill="#000000" font-family="sans-serif" font-size="13" lengthAdjust="spacing" textLength="50" x="295.47" y="911.5283">registers</text><text fill="#000000" font-family="sans-serif" font-size="13" lengthAdjust="spacing" textLength="7" x="342.9682" y="717.9625">1</text><text fill="#000000" font-family="sans-serif" font-size="13" lengthAdjust="spacing" textLength="5" x="277.2225" y="1075.7687">*</text></g><!--link Vehicle to VehiclesMaintenance--><g id="link_Vehicle_VehiclesMaintenance"><path codeLine="141" d="M483.28,995.56 C477.3,999.82 471.34,1003.99 465.47,1008 C423.83,1036.48 374.62,1066.3 339.52,1086.94 " fill="none" id="Vehicle-VehiclesMaintenance" style="stroke:#181818;stroke-width:1.0;"/><polygon fill="#000000" points="420.2503,1050.3277,429.4604,1047.9558,426.3072,1042.9953,420.2503,1050.3277" style="stroke:#000000;stroke-width:1.0;"/><text fill="#000000" font-family="sans-serif" font-size="13" lengthAdjust="spacing" textLength="35" x="433.47" y="1053.0283">needs</text><text fill="#000000" font-family="sans-serif" font-size="13" lengthAdjust="spacing" textLength="7" x="468.3055" y="998.0372">1</text><text fill="#000000" font-family="sans-serif" font-size="13" lengthAdjust="spacing" textLength="22" x="325.6253" y="1075.6351">0..1</text></g><!--link VFM to CheckupList--><g id="link_VFM_CheckupList"><path codeLine="142" d="M411.03,725.03 C407.48,734.81 404.4,745.06 402.47,755 C393.36,802.06 399.41,858.96 403.54,887.25 " fill="none" id="VFM-CheckupList" style="stroke:#181818;stroke-width:1.0;"/><polygon fill="#000000" points="407.2394,769.6402,410.5924,760.7403,404.7208,760.4692,407.2394,769.6402" style="stroke:#000000;stroke-width:1.0;"/><text fill="#000000" font-family="sans-serif" font-size="13" lengthAdjust="spacing" textLength="50" x="416.47" y="770.0283">registers</text><text fill="#000000" font-family="sans-serif" font-size="13" lengthAdjust="spacing" textLength="7" x="400.3221" y="747.2741">1</text><text fill="#000000" font-family="sans-serif" font-size="13" lengthAdjust="spacing" textLength="7" x="394.6512" y="876.372">1</text></g><!--link Team to Vehicle--><g id="link_Team_Vehicle"><path codeLine="143" d="M699.28,706.8 C688.28,721.33 676.12,738.51 666.47,755 C657.45,770.42 648.78,787.26 640.83,803.89 " fill="none" id="Team-Vehicle" style="stroke:#181818;stroke-width:1.0;"/><polygon fill="#000000" points="668.8912,768.9292,676.0742,762.6958,671.0385,759.6642,668.8912,768.9292" style="stroke:#000000;stroke-width:1.0;"/><text fill="#000000" font-family="sans-serif" font-size="13" lengthAdjust="spacing" textLength="35" x="680.47" y="770.0283">needs</text><text fill="#000000" font-family="sans-serif" font-size="13" lengthAdjust="spacing" textLength="7" x="686.8657" y="728.4494">1</text><text fill="#000000" font-family="sans-serif" font-size="13" lengthAdjust="spacing" textLength="20" x="623.2064" y="792.7983">0..*</text></g><!--link GSM to ToDoList--><g id="link_GSM_ToDoList"><path codeLine="144" d="M968.09,230.39 C991.11,243.43 1014.4,260.53 1030.47,282 C1053.21,312.37 1062.73,354.79 1066.7,386.77 " fill="none" id="GSM-ToDoList" style="stroke:#181818;stroke-width:1.0;"/><polygon fill="#000000" points="1049.1369,295.8749,1046.7983,286.6563,1041.8264,289.7915,1049.1369,295.8749" style="stroke:#000000;stroke-width:1.0;"/><text fill="#000000" font-family="sans-serif" font-size="13" lengthAdjust="spacing" textLength="21" x="1055.47" y="297.0283">has</text><text fill="#000000" font-family="sans-serif" font-size="13" lengthAdjust="spacing" textLength="7" x="975.9171" y="229.8471">1</text><text fill="#000000" font-family="sans-serif" font-size="13" lengthAdjust="spacing" textLength="5" x="1060.926" y="375.7457">*</text></g><!--link GSM to GreenSpaces--><g id="link_GSM_GreenSpaces"><path codeLine="145" d="M887.25,252.04 C886.93,262 886.64,272.31 886.47,282 C886.32,290.44 885.28,292.64 886.47,301 C889.62,323.16 895.62,346.8 901.94,367.83 " fill="none" id="GSM-GreenSpaces" style="stroke:#181818;stroke-width:1.0;"/><polygon fill="#000000" points="892.0993,296.6057,893.8764,287.2627,888.0453,288.0025,892.0993,296.6057" style="stroke:#000000;stroke-width:1.0;"/><text fill="#000000" font-family="sans-serif" font-size="13" lengthAdjust="spacing" textLength="125" x="900.47" y="297.0283">creates and manages</text><text fill="#000000" font-family="sans-serif" font-size="13" lengthAdjust="spacing" textLength="7" x="879.5171" y="274.2853">1</text><text fill="#000000" font-family="sans-serif" font-size="13" lengthAdjust="spacing" textLength="5" x="894.2023" y="356.8315">*</text></g><!--link ToDoList to Task--><g id="link_ToDoList_Task"><path codeLine="146" d="M1065.23,479.21 C1061.62,517.68 1056.43,573.03 1052.59,613.95 " fill="none" id="ToDoList-Task" style="stroke:#181818;stroke-width:1.0;"/><polygon fill="#000000" points="1061.003,579.6237,1064.7739,570.8926,1058.9217,570.3436,1061.003,579.6237" style="stroke:#000000;stroke-width:1.0;"/><text fill="#000000" font-family="sans-serif" font-size="13" lengthAdjust="spacing" textLength="48" x="1070.47" y="580.0283">includes</text><text fill="#000000" font-family="sans-serif" font-size="13" lengthAdjust="spacing" textLength="7" x="1057.0448" y="501.601">1</text><text fill="#000000" font-family="sans-serif" font-size="13" lengthAdjust="spacing" textLength="5" x="1047.9257" y="602.7838">*</text></g><!--link Agenda to Entry--><g id="link_Agenda_Entry"><path codeLine="147" d="M809.65,498.27 C819.86,519 829.96,542.45 836.47,565 C863.48,658.47 871.89,771.47 874.45,840.78 " fill="none" id="Agenda-Entry" style="stroke:#181818;stroke-width:1.0;"/><polygon fill="#000000" points="871.3995,674.5584,872.6057,665.1246,866.8303,666.2173,871.3995,674.5584" style="stroke:#000000;stroke-width:1.0;"/><text fill="#000000" font-family="sans-serif" font-size="13" lengthAdjust="spacing" textLength="59" x="879.47" y="675.0283">schedules</text><text fill="#000000" font-family="sans-serif" font-size="13" lengthAdjust="spacing" textLength="7" x="806.0201" y="519.935">1</text><text fill="#000000" font-family="sans-serif" font-size="13" lengthAdjust="spacing" textLength="5" x="869.065" y="829.7761">*</text></g><!--link Agenda to Team--><g id="link_Agenda_Team"><path codeLine="148" d="M761.18,498.08 C752.9,541.2 742.29,596.5 735.44,632.21 " fill="none" id="Agenda-Team" style="stroke:#181818;stroke-width:1.0;"/><polygon fill="#000000" points="753.4123,569.7351,748.8214,578.0642,754.5939,579.172,753.4123,569.7351" style="stroke:#000000;stroke-width:1.0;"/><text fill="#000000" font-family="sans-serif" font-size="13" lengthAdjust="spacing" textLength="66" x="761.47" y="580.0283">is assigned</text><text fill="#000000" font-family="sans-serif" font-size="13" lengthAdjust="spacing" textLength="7" x="752.5517" y="519.7254">1</text><text fill="#000000" font-family="sans-serif" font-size="13" lengthAdjust="spacing" textLength="5" x="731.2362" y="621.1201">*</text></g><!--SRC=[hLPDJzmm4BtxLunoMQc20bU4a2WK-aLRTO6UlVPiucvY1zifR57_UyTsGhpHKZZ01MVy_ERD9xYLqYstl876Q2CgQne4Rpjaxl6cvMB5IvpxTOrWKNYkope7k8fBSwTq2KjUEsIpyQfM6lswHJ3MLuRDQbnwy0QiAYiFKWKwPNH69chkt8dtLYqwZn-5qNFr1s6VLKeY26K5-Oxd1ebIEiPcNdcITcOQhZHS6ear6ICHVA-vNnhRm0ER0UnATCAgDlgS_MK9yysMNAi_F5WV6D2FvWsolwo___3ZCZE70vAdEfxQocW4tJKBjD50ohHNIoKY7KWZkeOi8zlD-MkoNSnVb-rwCm6zVRvITRqjDP_COk9Ueq3dk5s32u_SY3qrTSqNnd9lxFXe9vuMYle3pj2JTfTCN3RAAHTqSe-3JLfYtnd3-ngZsnaZJqVFxx_pDLfgYXJZphO4R5x-CejHx1Nove69JB9ZAI2A42NAB6aMKSzfIj1HbuLkPzmYPxrObb93XUfBC_hWRZN9NcTBr6ATmhblQJfGWknir1kjpdFVPLczmKhHI2IUTvPh6Kzf2iBfAWYA1r85Fp5CNlo-i8RUPuRJpbhA1dnkukSFB9Np8OUK_sWv4RSTrIJbRZ1Uqj1vr5mBt3kjKAnsknREBTvsCPAfK9VXasX9Ni8N5Akco9hkofoPBtJtq5VKhI0Vt-VJzUZwX52I9nuAq2fqYPEA70-_Usrxf5grSIPUNe7tnBWUHQQOXknurLTsAZsmn47Ajm_ixaBnfWWR1mv1EU2qVQq7iuIZhK1Q9Yy3XlPx8V3wUM1VImAQE-tWc0N1nK4naCHzGRUsRw4j4DeS_mVawsA2tBZQuhRYGRx3gFu9-C4W8O2VneGzGA05raQNBlpfEcRvm1VxRzzcwD2aANlEgL9Jwz2B8nRjcT3OCWcejAWxsYTq8EheRZlmaP4JBjGzWutroDCq0HLR9h2OFkc9XcSfkgTUXaquTKI_uXResZ2x4_gDy8XxG_h05berapsiWSTIJUxpQXo2eCthwKHx41gkwV-Mw7VWo7dxMgNy1rHQ4zlIxqI5igkVGFKzajVeYFq3]--></g></svg>