<?xml version="1.0" encoding="us-ascii" standalone="no"?><svg xmlns="http://www.w3.org/2000/svg" xmlns:xlink="http://www.w3.org/1999/xlink" contentStyleType="text/css" height="1112px" preserveAspectRatio="none" style="width:1215px;height:1112px;background:#FFFFFF;" version="1.1" viewBox="0 0 1215 1112" width="1215px" zoomAndPan="magnify"><defs/><g><!--class Organization--><g id="elem_Organization"><rect codeLine="15" fill="#F1F1F1" height="55.2422" id="Organization" rx="2.5" ry="2.5" style="stroke:#181818;stroke-width:0.5;" width="86" x="636.72" y="7"/><text fill="#000000" font-family="sans-serif" font-size="14" lengthAdjust="spacing" textLength="80" x="639.72" y="27.1074">Organization</text><line style="stroke:#181818;stroke-width:0.5;" x1="637.72" x2="721.72" y1="35.6211" y2="35.6211"/><text fill="#000000" font-family="sans-serif" font-size="14" lengthAdjust="spacing" textLength="35" x="642.72" y="54.7285">name</text></g><!--class HRM--><g id="elem_HRM"><rect codeLine="19" fill="#F1F1F1" height="111.1055" id="HRM" rx="2.5" ry="2.5" style="stroke:#181818;stroke-width:0.5;" width="157" x="228.22" y="141"/><text fill="#000000" font-family="sans-serif" font-size="14" lengthAdjust="spacing" textLength="30" x="291.72" y="161.1074">HRM</text><line style="stroke:#181818;stroke-width:0.5;" x1="229.22" x2="384.22" y1="169.6211" y2="169.6211"/><text fill="#000000" font-family="sans-serif" font-size="14" lengthAdjust="spacing" textLength="35" x="234.22" y="188.7285">name</text><text fill="#000000" font-family="sans-serif" font-size="14" lengthAdjust="spacing" textLength="33" x="234.22" y="207.3496">email</text><text fill="#000000" font-family="sans-serif" font-size="14" lengthAdjust="spacing" textLength="92" x="234.22" y="225.9707">phone number</text><text fill="#000000" font-family="sans-serif" font-size="14" lengthAdjust="spacing" textLength="145" x="234.22" y="244.5918">identification document</text></g><!--class VFM--><g id="elem_VFM"><rect codeLine="26" fill="#F1F1F1" height="111.1055" id="VFM" rx="2.5" ry="2.5" style="stroke:#181818;stroke-width:0.5;" width="157" x="569.22" y="577"/><text fill="#000000" font-family="sans-serif" font-size="14" lengthAdjust="spacing" textLength="29" x="633.22" y="597.1074">VFM</text><line style="stroke:#181818;stroke-width:0.5;" x1="570.22" x2="725.22" y1="605.6211" y2="605.6211"/><text fill="#000000" font-family="sans-serif" font-size="14" lengthAdjust="spacing" textLength="35" x="575.22" y="624.7285">name</text><text fill="#000000" font-family="sans-serif" font-size="14" lengthAdjust="spacing" textLength="33" x="575.22" y="643.3496">email</text><text fill="#000000" font-family="sans-serif" font-size="14" lengthAdjust="spacing" textLength="92" x="575.22" y="661.9707">phone number</text><text fill="#000000" font-family="sans-serif" font-size="14" lengthAdjust="spacing" textLength="145" x="575.22" y="680.5918">identification document</text></g><!--class GSM--><g id="elem_GSM"><rect codeLine="33" fill="#F1F1F1" height="111.1055" id="GSM" rx="2.5" ry="2.5" style="stroke:#181818;stroke-width:0.5;" width="157" x="667.22" y="141"/><text fill="#000000" font-family="sans-serif" font-size="14" lengthAdjust="spacing" textLength="31" x="730.22" y="161.1074">GSM</text><line style="stroke:#181818;stroke-width:0.5;" x1="668.22" x2="823.22" y1="169.6211" y2="169.6211"/><text fill="#000000" font-family="sans-serif" font-size="14" lengthAdjust="spacing" textLength="35" x="673.22" y="188.7285">name</text><text fill="#000000" font-family="sans-serif" font-size="14" lengthAdjust="spacing" textLength="33" x="673.22" y="207.3496">email</text><text fill="#000000" font-family="sans-serif" font-size="14" lengthAdjust="spacing" textLength="92" x="673.22" y="225.9707">phone number</text><text fill="#000000" font-family="sans-serif" font-size="14" lengthAdjust="spacing" textLength="145" x="673.22" y="244.5918">identification document</text></g><!--class GSU--><g id="elem_GSU"><rect codeLine="40" fill="#F1F1F1" height="111.1055" id="GSU" rx="2.5" ry="2.5" style="stroke:#181818;stroke-width:0.5;" width="157" x="859.22" y="141"/><text fill="#000000" font-family="sans-serif" font-size="14" lengthAdjust="spacing" textLength="29" x="923.22" y="161.1074">GSU</text><line style="stroke:#181818;stroke-width:0.5;" x1="860.22" x2="1015.22" y1="169.6211" y2="169.6211"/><text fill="#000000" font-family="sans-serif" font-size="14" lengthAdjust="spacing" textLength="35" x="865.22" y="188.7285">name</text><text fill="#000000" font-family="sans-serif" font-size="14" lengthAdjust="spacing" textLength="33" x="865.22" y="207.3496">email</text><text fill="#000000" font-family="sans-serif" font-size="14" lengthAdjust="spacing" textLength="92" x="865.22" y="225.9707">phone number</text><text fill="#000000" font-family="sans-serif" font-size="14" lengthAdjust="spacing" textLength="145" x="865.22" y="244.5918">identification document</text></g><!--class QAM--><g id="elem_QAM"><rect codeLine="47" fill="#F1F1F1" height="111.1055" id="QAM" rx="2.5" ry="2.5" style="stroke:#181818;stroke-width:0.5;" width="157" x="1051.22" y="141"/><text fill="#000000" font-family="sans-serif" font-size="14" lengthAdjust="spacing" textLength="31" x="1114.22" y="161.1074">QAM</text><line style="stroke:#181818;stroke-width:0.5;" x1="1052.22" x2="1207.22" y1="169.6211" y2="169.6211"/><text fill="#000000" font-family="sans-serif" font-size="14" lengthAdjust="spacing" textLength="35" x="1057.22" y="188.7285">name</text><text fill="#000000" font-family="sans-serif" font-size="14" lengthAdjust="spacing" textLength="33" x="1057.22" y="207.3496">email</text><text fill="#000000" font-family="sans-serif" font-size="14" lengthAdjust="spacing" textLength="92" x="1057.22" y="225.9707">phone number</text><text fill="#000000" font-family="sans-serif" font-size="14" lengthAdjust="spacing" textLength="145" x="1057.22" y="244.5918">identification document</text></g><!--class Skill--><g id="elem_Skill"><rect codeLine="54" fill="#F1F1F1" height="55.2422" id="Skill" rx="2.5" ry="2.5" style="stroke:#181818;stroke-width:0.5;" width="47" x="324.22" y="605"/><text fill="#000000" font-family="sans-serif" font-size="14" lengthAdjust="spacing" textLength="25" x="335.22" y="625.1074">Skill</text><line style="stroke:#181818;stroke-width:0.5;" x1="325.22" x2="370.22" y1="633.6211" y2="633.6211"/><text fill="#000000" font-family="sans-serif" font-size="14" lengthAdjust="spacing" textLength="35" x="330.22" y="652.7285">name</text></g><!--class Job--><g id="elem_Job"><rect codeLine="58" fill="#F1F1F1" height="55.2422" id="Job" rx="2.5" ry="2.5" style="stroke:#181818;stroke-width:0.5;" width="47" x="34.22" y="605"/><text fill="#000000" font-family="sans-serif" font-size="14" lengthAdjust="spacing" textLength="22" x="46.72" y="625.1074">Job</text><line style="stroke:#181818;stroke-width:0.5;" x1="35.22" x2="80.22" y1="633.6211" y2="633.6211"/><text fill="#000000" font-family="sans-serif" font-size="14" lengthAdjust="spacing" textLength="35" x="40.22" y="652.7285">name</text></g><!--class Collaborator--><g id="elem_Collaborator"><rect codeLine="62" fill="#F1F1F1" height="166.9688" id="Collaborator" rx="2.5" ry="2.5" style="stroke:#181818;stroke-width:0.5;" width="157" x="141.22" y="331"/><text fill="#000000" font-family="sans-serif" font-size="14" lengthAdjust="spacing" textLength="78" x="180.72" y="351.1074">Collaborator</text><line style="stroke:#181818;stroke-width:0.5;" x1="142.22" x2="297.22" y1="359.6211" y2="359.6211"/><text fill="#000000" font-family="sans-serif" font-size="14" lengthAdjust="spacing" textLength="35" x="147.22" y="378.7285">name</text><text fill="#000000" font-family="sans-serif" font-size="14" lengthAdjust="spacing" textLength="73" x="147.22" y="397.3496">birth details</text><text fill="#000000" font-family="sans-serif" font-size="14" lengthAdjust="spacing" textLength="89" x="147.22" y="415.9707">issuing details</text><text fill="#000000" font-family="sans-serif" font-size="14" lengthAdjust="spacing" textLength="51" x="147.22" y="434.5918">address</text><text fill="#000000" font-family="sans-serif" font-size="14" lengthAdjust="spacing" textLength="92" x="147.22" y="453.2129">phone number</text><text fill="#000000" font-family="sans-serif" font-size="14" lengthAdjust="spacing" textLength="33" x="147.22" y="471.834">email</text><text fill="#000000" font-family="sans-serif" font-size="14" lengthAdjust="spacing" textLength="145" x="147.22" y="490.4551">identification document</text></g><!--class Team--><g id="elem_Team"><rect codeLine="72" fill="#F1F1F1" height="36.6211" id="Team" rx="2.5" ry="2.5" style="stroke:#181818;stroke-width:0.5;" width="42" x="179.72" y="614"/><text fill="#000000" font-family="sans-serif" font-size="14" lengthAdjust="spacing" textLength="36" x="182.72" y="634.1074">Team</text><line style="stroke:#181818;stroke-width:0.5;" x1="180.72" x2="220.72" y1="642.6211" y2="642.6211"/></g><!--class Task--><g id="elem_Task"><rect codeLine="74" fill="#F1F1F1" height="55.2422" id="Task" rx="2.5" ry="2.5" style="stroke:#181818;stroke-width:0.5;" width="47" x="177.22" y="841.5"/><text fill="#000000" font-family="sans-serif" font-size="14" lengthAdjust="spacing" textLength="31" x="185.22" y="861.6074">Task</text><line style="stroke:#181818;stroke-width:0.5;" x1="178.22" x2="223.22" y1="870.1211" y2="870.1211"/><text fill="#000000" font-family="sans-serif" font-size="14" lengthAdjust="spacing" textLength="35" x="183.22" y="889.2285">name</text></g><!--class Vehicle--><g id="elem_Vehicle"><rect codeLine="78" fill="#F1F1F1" height="204.2109" id="Vehicle" rx="2.5" ry="2.5" style="stroke:#181818;stroke-width:0.5;" width="158" x="435.72" y="767"/><text fill="#000000" font-family="sans-serif" font-size="14" lengthAdjust="spacing" textLength="46" x="491.72" y="787.1074">Vehicle</text><line style="stroke:#181818;stroke-width:0.5;" x1="436.72" x2="592.72" y1="795.6211" y2="795.6211"/><text fill="#000000" font-family="sans-serif" font-size="14" lengthAdjust="spacing" textLength="38" x="441.72" y="814.7285">Brand</text><text fill="#000000" font-family="sans-serif" font-size="14" lengthAdjust="spacing" textLength="38" x="441.72" y="833.3496">Model</text><text fill="#000000" font-family="sans-serif" font-size="14" lengthAdjust="spacing" textLength="32" x="441.72" y="851.9707">Type</text><text fill="#000000" font-family="sans-serif" font-size="14" lengthAdjust="spacing" textLength="30" x="441.72" y="870.5918">Tare</text><text fill="#000000" font-family="sans-serif" font-size="14" lengthAdjust="spacing" textLength="86" x="441.72" y="889.2129">Gross Weight</text><text fill="#000000" font-family="sans-serif" font-size="14" lengthAdjust="spacing" textLength="72" x="441.72" y="907.834">Current Km</text><text fill="#000000" font-family="sans-serif" font-size="14" lengthAdjust="spacing" textLength="87" x="441.72" y="926.4551">Register Date</text><text fill="#000000" font-family="sans-serif" font-size="14" lengthAdjust="spacing" textLength="102" x="441.72" y="945.0762">Acquisition Date</text><text fill="#000000" font-family="sans-serif" font-size="14" lengthAdjust="spacing" textLength="146" x="441.72" y="963.6973">Maintenance/Check-up</text></g><!--class Check-up--><g id="elem_Check-up"><rect codeLine="90" fill="#F1F1F1" height="55.2422" id="Check-up" rx="2.5" ry="2.5" style="stroke:#181818;stroke-width:0.5;" width="97" x="615.22" y="1050"/><text fill="#000000" font-family="sans-serif" font-size="14" lengthAdjust="spacing" textLength="61" x="633.22" y="1070.1074">Check-up</text><line style="stroke:#181818;stroke-width:0.5;" x1="616.22" x2="711.22" y1="1078.6211" y2="1078.6211"/><text fill="#000000" font-family="sans-serif" font-size="14" lengthAdjust="spacing" textLength="85" x="621.22" y="1097.7285">distance "km"</text></g><!--class Check-upList--><g id="elem_Check-upList"><rect codeLine="94" fill="#F1F1F1" height="55.2422" id="Check-upList" rx="2.5" ry="2.5" style="stroke:#181818;stroke-width:0.5;" width="182" x="763.72" y="841.5"/><text fill="#000000" font-family="sans-serif" font-size="14" lengthAdjust="spacing" textLength="83" x="813.22" y="861.6074">Check-upList</text><line style="stroke:#181818;stroke-width:0.5;" x1="764.72" x2="944.72" y1="870.1211" y2="870.1211"/><text fill="#000000" font-family="sans-serif" font-size="14" lengthAdjust="spacing" textLength="170" x="769.72" y="889.2285">Vehicles needing check-up</text></g><!--link Organization to HRM--><g id="link_Organization_HRM"><path codeLine="99" d="M636.71,37.37 C581.95,41.32 485.82,53.63 413.72,92 C390.79,104.2 369.37,122.77 351.82,140.84 " fill="none" id="Organization-HRM" style="stroke:#181818;stroke-width:1.0;"/><polygon fill="#000000" points="423.4196,99.9386,413.9146,100.264,415.9212,105.7888,423.4196,99.9386" style="stroke:#000000;stroke-width:1.0;"/><text fill="#000000" font-family="sans-serif" font-size="13" lengthAdjust="spacing" textLength="61" x="427.72" y="107.0283">is a part of</text><text fill="#000000" font-family="sans-serif" font-size="13" lengthAdjust="spacing" textLength="5" x="352.2781" y="129.6597">*</text></g><!--link Organization to VFM--><g id="link_Organization_VFM"><path codeLine="100" d="M669.87,62.38 C662.7,83.45 653.59,113.66 649.72,141 C627.53,297.83 636.53,485.7 643.11,576.71 " fill="none" id="Organization-VFM" style="stroke:#181818;stroke-width:1.0;"/><polygon fill="#000000" points="642.9798,286.6523,639.5749,295.5324,645.4448,295.8378,642.9798,286.6523" style="stroke:#000000;stroke-width:1.0;"/><text fill="#000000" font-family="sans-serif" font-size="13" lengthAdjust="spacing" textLength="61" x="651.72" y="297.0283">is a part of</text><text fill="#000000" font-family="sans-serif" font-size="13" lengthAdjust="spacing" textLength="5" x="637.2435" y="565.9143">*</text></g><!--link Organization to GSM--><g id="link_Organization_GSM"><path codeLine="101" d="M690.77,62.28 C699.57,83.63 712.2,114.24 723.13,140.73 " fill="none" id="Organization-GSM" style="stroke:#181818;stroke-width:1.0;"/><polygon fill="#000000" points="714.8134,97.0233,715.5456,106.5056,720.9794,104.2643,714.8134,97.0233" style="stroke:#000000;stroke-width:1.0;"/><text fill="#000000" font-family="sans-serif" font-size="13" lengthAdjust="spacing" textLength="61" x="725.72" y="107.0283">is a part of</text><text fill="#000000" font-family="sans-serif" font-size="13" lengthAdjust="spacing" textLength="5" x="715.0722" y="129.9367">*</text></g><!--link Organization to GSU--><g id="link_Organization_GSU"><path codeLine="102" d="M722.82,54.28 C745.08,64.53 772.4,77.97 795.72,92 C820.03,106.62 845.42,124.28 867.89,140.84 " fill="none" id="Organization-GSU" style="stroke:#181818;stroke-width:1.0;"/><polygon fill="#000000" points="825.4263,99.0835,831.6878,106.242,834.6996,101.1944,825.4263,99.0835" style="stroke:#000000;stroke-width:1.0;"/><text fill="#000000" font-family="sans-serif" font-size="13" lengthAdjust="spacing" textLength="61" x="838.72" y="107.0283">is a part of</text><text fill="#000000" font-family="sans-serif" font-size="13" lengthAdjust="spacing" textLength="5" x="853.6227" y="129.6597">*</text></g><!--link Organization to QAM--><g id="link_Organization_QAM"><path codeLine="103" d="M722.82,44.36 C769.2,54.3 844.91,71.72 908.72,92 C965.59,110.07 979.86,115.32 1033.72,141 C1039.43,143.72 1045.26,146.65 1051.09,149.68 " fill="none" id="Organization-QAM" style="stroke:#181818;stroke-width:1.0;"/><polygon fill="#000000" points="964.959,100.118,972.6739,105.6797,974.4695,100.0828,964.959,100.118" style="stroke:#000000;stroke-width:1.0;"/><text fill="#000000" font-family="sans-serif" font-size="13" lengthAdjust="spacing" textLength="61" x="978.72" y="107.0283">is a part of</text><text fill="#000000" font-family="sans-serif" font-size="13" lengthAdjust="spacing" textLength="5" x="1038.1038" y="141.2719">*</text></g><!--link Organization to Vehicle--><g id="link_Organization_Vehicle"><path codeLine="104" d="M636.63,54.64 C588.04,79.51 515.72,127.88 515.72,195.5 C515.72,195.5 515.72,195.5 515.72,633.5 C515.72,677.16 515.55,725.4 515.34,766.71 " fill="none" id="Organization-Vehicle" style="stroke:#181818;stroke-width:1.0;"/><polygon fill="#000000" points="519.8804,419.5745,524.2964,411.1513,518.502,410.1644,519.8804,419.5745" style="stroke:#000000;stroke-width:1.0;"/><text fill="#000000" font-family="sans-serif" font-size="13" lengthAdjust="spacing" textLength="30" x="529.72" y="420.0283">owns</text></g><!--link HRM to Skill--><g id="link_HRM_Skill"><path codeLine="105" d="M334.85,252.38 C338.79,262.04 342.31,272.16 344.72,282 C372.72,396.57 366.35,429.3 358.72,547 C357.46,566.49 354.57,588.34 352.07,604.95 " fill="none" id="HRM-Skill" style="stroke:#181818;stroke-width:1.0;"/><polygon fill="#000000" points="370.9639,419.6396,373.4581,410.4619,367.5872,410.7486,370.9639,419.6396" style="stroke:#000000;stroke-width:1.0;"/><text fill="#000000" font-family="sans-serif" font-size="13" lengthAdjust="spacing" textLength="50" x="379.72" y="420.0283">registers</text><text fill="#000000" font-family="sans-serif" font-size="13" lengthAdjust="spacing" textLength="7" x="330.8518" y="274.2659">1</text><text fill="#000000" font-family="sans-serif" font-size="13" lengthAdjust="spacing" textLength="5" x="347.4978" y="593.6474">*</text></g><!--link HRM to Job--><g id="link_HRM_Job"><path codeLine="106" d="M228.14,216.64 C170.16,235.32 95.25,270.09 58.72,331 C6,418.92 33.63,548.92 49.31,604.6 " fill="none" id="HRM-Job" style="stroke:#181818;stroke-width:1.0;"/><polygon fill="#000000" points="61.6269,419.1863,68.0824,412.2022,62.7443,409.7416,61.6269,419.1863" style="stroke:#000000;stroke-width:1.0;"/><text fill="#000000" font-family="sans-serif" font-size="13" lengthAdjust="spacing" textLength="50" x="72.72" y="420.0283">registers</text><text fill="#000000" font-family="sans-serif" font-size="13" lengthAdjust="spacing" textLength="7" x="213.3167" y="214.7866">1</text><text fill="#000000" font-family="sans-serif" font-size="13" lengthAdjust="spacing" textLength="5" x="41.9234" y="593.6712">*</text></g><!--link HRM to Collaborator--><g id="link_HRM_Collaborator"><path codeLine="107" d="M284.77,252.01 C275.15,275.88 263.66,304.41 253.03,330.81 " fill="none" id="HRM-Collaborator" style="stroke:#181818;stroke-width:1.0;"/><polygon fill="#000000" points="274.8519,296.2834,280.9574,288.9914,275.5052,286.7953,274.8519,296.2834" style="stroke:#000000;stroke-width:1.0;"/><text fill="#000000" font-family="sans-serif" font-size="13" lengthAdjust="spacing" textLength="50" x="285.72" y="297.0283">registers</text><text fill="#000000" font-family="sans-serif" font-size="13" lengthAdjust="spacing" textLength="7" x="274.5092" y="274.2515">1</text><text fill="#000000" font-family="sans-serif" font-size="13" lengthAdjust="spacing" textLength="5" x="250.774" y="319.642">*</text></g><!--link Collaborator to Skill--><g id="link_Collaborator_Skill"><path codeLine="108" d="M247.13,498.01 C254.11,514.76 262.35,531.87 271.72,547 C286.27,570.48 307.63,593.55 324.01,609.64 " fill="none" id="Collaborator-Skill" style="stroke:#181818;stroke-width:1.0;"/><polygon fill="#000000" points="279.556,541.7634,276.8461,532.6471,272.0052,535.981,279.556,541.7634" style="stroke:#000000;stroke-width:1.0;"/><text fill="#000000" font-family="sans-serif" font-size="13" lengthAdjust="spacing" textLength="68" x="285.72" y="543.0283">has a set of</text><text fill="#000000" font-family="sans-serif" font-size="13" lengthAdjust="spacing" textLength="7" x="242.1848" y="519.9593">1</text><text fill="#000000" font-family="sans-serif" font-size="13" lengthAdjust="spacing" textLength="5" x="311.3108" y="597.4635">*</text></g><!--link Collaborator to Job--><g id="link_Collaborator_Job"><path codeLine="109" d="M141.22,494.85 C131.87,505.65 122.8,516.86 114.72,528 C96.9,552.58 80.64,583.33 70.08,604.91 " fill="none" id="Collaborator-Job" style="stroke:#181818;stroke-width:1.0;"/><polygon fill="#000000" points="117.0058,541.8447,124.3841,535.8437,119.4477,532.6529,117.0058,541.8447" style="stroke:#000000;stroke-width:1.0;"/><text fill="#000000" font-family="sans-serif" font-size="13" lengthAdjust="spacing" textLength="21" x="128.72" y="543.0283">has</text><text fill="#000000" font-family="sans-serif" font-size="13" lengthAdjust="spacing" textLength="7" x="126.1481" y="498.9669">1</text><text fill="#000000" font-family="sans-serif" font-size="13" lengthAdjust="spacing" textLength="7" x="65.1289" y="593.5982">1</text></g><!--link Collaborator to Team--><g id="link_Collaborator_Team"><path codeLine="110" d="M169.96,498.15 C165.79,507.94 162.22,518.01 159.72,528 C151.94,559.13 171.49,593.4 186.2,613.66 " fill="none" id="Collaborator-Team" style="stroke:#181818;stroke-width:1.0;"/><polygon fill="#000000" points="165.4161,542.5968,167.0671,533.2306,161.2465,534.049,165.4161,542.5968" style="stroke:#000000;stroke-width:1.0;"/><text fill="#000000" font-family="sans-serif" font-size="13" lengthAdjust="spacing" textLength="57" x="173.72" y="543.0283">generates</text><text fill="#000000" font-family="sans-serif" font-size="13" lengthAdjust="spacing" textLength="5" x="160.4689" y="520.1113">*</text><text fill="#000000" font-family="sans-serif" font-size="13" lengthAdjust="spacing" textLength="7" x="173.9066" y="602.7556">1</text></g><!--link Team to Task--><g id="link_Team_Task"><path codeLine="111" d="M200.72,651.13 C200.72,691.92 200.72,793.04 200.72,841.4 " fill="none" id="Team-Task" style="stroke:#181818;stroke-width:1.0;"/><polygon fill="#000000" points="205.72,732.6455,208.6589,723.6004,202.7811,723.6004,205.72,732.6455" style="stroke:#000000;stroke-width:1.0;"/><text fill="#000000" font-family="sans-serif" font-size="13" lengthAdjust="spacing" textLength="77" x="214.72" y="733.0283">is assigned a</text><text fill="#000000" font-family="sans-serif" font-size="13" lengthAdjust="spacing" textLength="7" x="192.7794" y="672.5395">1</text><text fill="#000000" font-family="sans-serif" font-size="13" lengthAdjust="spacing" textLength="5" x="195.1419" y="830.0858">*</text></g><!--link VFM to Vehicle--><g id="link_VFM_Vehicle"><path codeLine="112" d="M594.31,688.11 C586.47,697.64 578.95,707.78 572.72,718 C563.49,733.14 555.27,750 548.13,766.79 " fill="none" id="VFM-Vehicle" style="stroke:#181818;stroke-width:1.0;"/><polygon fill="#000000" points="575.1891,731.9576,582.3022,725.6446,577.233,722.6693,575.1891,731.9576" style="stroke:#000000;stroke-width:1.0;"/><text fill="#000000" font-family="sans-serif" font-size="13" lengthAdjust="spacing" textLength="50" x="586.72" y="733.0283">registers</text><text fill="#000000" font-family="sans-serif" font-size="13" lengthAdjust="spacing" textLength="7" x="580.3741" y="709.963">1</text><text fill="#000000" font-family="sans-serif" font-size="13" lengthAdjust="spacing" textLength="5" x="545.4" y="755.691">*</text></g><!--link VFM to Check-up--><g id="link_VFM_Check-up"><path codeLine="113" d="M649.7,688.26 C653.16,784.1 660.19,978.79 662.76,1049.81 " fill="none" id="VFM-Check-up" style="stroke:#181818;stroke-width:1.0;"/><polygon fill="#000000" points="665.9005,874.1422,668.511,864.997,662.637,865.2092,665.9005,874.1422" style="stroke:#000000;stroke-width:1.0;"/><text fill="#000000" font-family="sans-serif" font-size="13" lengthAdjust="spacing" textLength="50" x="674.72" y="874.5283">registers</text><text fill="#000000" font-family="sans-serif" font-size="13" lengthAdjust="spacing" textLength="7" x="642.5148" y="710.1313">1</text><text fill="#000000" font-family="sans-serif" font-size="13" lengthAdjust="spacing" textLength="5" x="657.0031" y="1038.9271">*</text></g><!--link Vehicle to Check-up--><g id="link_Vehicle_Check-up"><path codeLine="114" d="M555.72,971.31 C564.92,988.45 575.61,1005.4 587.72,1020 C596.96,1031.14 608.82,1041.29 620.42,1049.83 " fill="none" id="Vehicle-Check-up" style="stroke:#181818;stroke-width:1.0;"/><polygon fill="#000000" points="595.8996,1014.5043,592.4158,1005.6548,587.8795,1009.3926,595.8996,1014.5043" style="stroke:#000000;stroke-width:1.0;"/><text fill="#000000" font-family="sans-serif" font-size="13" lengthAdjust="spacing" textLength="35" x="601.72" y="1016.0283">needs</text><text fill="#000000" font-family="sans-serif" font-size="13" lengthAdjust="spacing" textLength="7" x="551.3567" y="993.1325">1</text><text fill="#000000" font-family="sans-serif" font-size="13" lengthAdjust="spacing" textLength="22" x="586.5419" y="1038.9515">0..1</text></g><!--link Team to Vehicle--><g id="link_Team_Vehicle"><path codeLine="115" d="M221.81,649.25 C264.78,681.34 364.42,755.75 435.54,808.86 " fill="none" id="Team-Vehicle" style="stroke:#181818;stroke-width:1.0;"/><polygon fill="#000000" points="348.7262,730.6373,343.2374,722.8704,339.7204,727.5799,348.7262,730.6373" style="stroke:#000000;stroke-width:1.0;"/><text fill="#000000" font-family="sans-serif" font-size="13" lengthAdjust="spacing" textLength="35" x="353.72" y="733.0283">needs</text><text fill="#000000" font-family="sans-serif" font-size="13" lengthAdjust="spacing" textLength="7" x="229.6481" y="649.0148">1</text><text fill="#000000" font-family="sans-serif" font-size="13" lengthAdjust="spacing" textLength="20" x="407.5974" y="799.7786">0..*</text></g><!--link Check-upList to Check-up--><g id="link_Check-upList_Check-up"><path codeLine="116" d="M830.14,896.57 C793.57,936.12 725.2,1010.03 688.51,1049.7 " fill="none" id="Check-upList-Check-up" style="stroke:#181818;stroke-width:1.0;"/><polygon fill="#000000" points="740.115,1006.9748,731.8158,1011.6196,736.1309,1015.6107,740.115,1006.9748" style="stroke:#000000;stroke-width:1.0;"/><text fill="#000000" font-family="sans-serif" font-size="13" lengthAdjust="spacing" textLength="43" x="745.72" y="1016.0283">creates</text><text fill="#000000" font-family="sans-serif" font-size="13" lengthAdjust="spacing" textLength="7" x="816.6465" y="918.9452">1</text><text fill="#000000" font-family="sans-serif" font-size="13" lengthAdjust="spacing" textLength="5" x="688.3859" y="1038.793">*</text></g><!--SRC=[hLPDKzim4BthL-puuhRJKBWo33DfAFIBAIL0pugqiJMHfLIIomI6_zwLR2TEC1y7SjhildtxjBjIuXVABBdZ5LJMM54wMo44LoFpwyYIYmKlS1fM6i6X2DmKkW_m9PVsLfa2vbnxPFacf9N1i5eYM1TAotADym31WbD56K2gIAUiwP49pRqVX-3Kh0xuJLWpLNS8-wnK4a4e9wXsiYiaIkaPouCA9Et4LbmPEBSIDJaJ4Lne7kRMLN3FSe2HH2-SMgQQ-GDhCBzSmOswuz5xpu0-XbV87bWR_tfvtdD70wcIJjQoj0R1rDKCNNAGCXFKN8b41zAAkYBFXktcz2tPpgPlotRzXco_ns-fRRfGMW-DvxkT3RadLci-iuu7wtPap1Hj8qWCfCOtrRslumBtVLnAXzuFozsSv4NXLyYhjStzOaZi3PQA5hi9VNRSo6GrknojAxf4ZS5TOvmvIub_CDwav9ZKpb5X-56bhvTOA1_GmGaFJSPO_AsLLqdcsdbEToQWuKRWfqc9OZ6gbxqcjfv6c2J228HiKMMFGJyft03RutWmY3BsLVIOMV- -mMW4sOSitZ4uf340f_V61R1pE1e4qlLv7P1knck1rwy3qZw_36oFJa1xQpmSitYox23hID8QKzIrunc0q48_3-YlzWvoApHGjkHHliUa_WduGISXWdSn7zQOkDS4Aj0WnJ12awjNDQvxspBlLM5GKl5Z5cVOGsrQrZ_93YZhjYpRnRNP7NP_R-zW1nwty94ymctLxa1PVvsp9oM0S9XEVKGRdMzjGKhf2dofbjgk4DVjV0ORsxNUcpnFtUirlACwR6jBcAqYS5tYSUSxaP5k0sjQrB9UUtI7m4M8Guh0JTaKdn11OTsAo7ZWsXPnY0qGHMdetTFDScrInlIZ_a-5rPYgfs5nbru1RYYDvHrZbn7bRbDHUsCUFLUk4V-ko_cu0tqFUt1APwmTNaq71v7-SaJhmjBhfSVDgqxysehKn76W2ly1]--></g></svg>