<?xml version="1.0" encoding="us-ascii" standalone="no"?><svg xmlns="http://www.w3.org/2000/svg" xmlns:xlink="http://www.w3.org/1999/xlink" contentStyleType="text/css" height="618px" preserveAspectRatio="none" style="width:693px;height:618px;background:#FFFFFF;" version="1.1" viewBox="0 0 693 618" width="693px" zoomAndPan="magnify"><defs/><g><!--class HRM--><g id="elem_HRM"><rect codeLine="12" fill="#F1F1F1" height="113.9531" id="HRM" rx="2.5" ry="2.5" style="stroke:#181818;stroke-width:0.5;" width="183" x="7" y="116"/><ellipse cx="78.75" cy="132" fill="#ADD1B2" rx="11" ry="11" style="stroke:#181818;stroke-width:1.0;"/><path d="M81.7231,137.6431 Q81.1421,137.9419 80.5029,138.0913 Q79.8638,138.2407 79.1582,138.2407 Q76.6514,138.2407 75.3315,136.5889 Q74.0117,134.937 74.0117,131.8159 Q74.0117,128.6865 75.3315,127.0347 Q76.6514,125.3828 79.1582,125.3828 Q79.8638,125.3828 80.5112,125.5322 Q81.1587,125.6816 81.7231,125.9805 L81.7231,128.7031 Q81.0923,128.1221 80.4988,127.8523 Q79.9053,127.5825 79.2744,127.5825 Q77.9297,127.5825 77.2449,128.6492 Q76.5601,129.7158 76.5601,131.8159 Q76.5601,133.9077 77.2449,134.9744 Q77.9297,136.041 79.2744,136.041 Q79.9053,136.041 80.4988,135.7712 Q81.0923,135.5015 81.7231,134.9204 Z " fill="#000000"/><text fill="#000000" font-family="sans-serif" font-size="14" lengthAdjust="spacing" textLength="31" x="99.25" y="137.291">HRM</text><line style="stroke:#181818;stroke-width:0.5;" x1="8" x2="189" y1="148" y2="148"/><text fill="#000000" font-family="sans-serif" font-size="14" lengthAdjust="spacing" textLength="46" x="13" y="165.5352">-name</text><text fill="#000000" font-family="sans-serif" font-size="14" lengthAdjust="spacing" textLength="45" x="13" y="182.0234">-email</text><text fill="#000000" font-family="sans-serif" font-size="14" lengthAdjust="spacing" textLength="110" x="13" y="198.5117">-phone number</text><text fill="#000000" font-family="sans-serif" font-size="14" lengthAdjust="spacing" textLength="171" x="13" y="215">-identification document</text><line style="stroke:#181818;stroke-width:0.5;" x1="8" x2="189" y1="221.9531" y2="221.9531"/></g><!--class Job--><g id="elem_Job"><rect codeLine="20" fill="#F1F1F1" height="64.4883" id="Job" rx="2.5" ry="2.5" style="stroke:#181818;stroke-width:0.5;" width="58" x="147.5" y="547"/><ellipse cx="164.3" cy="563" fill="#ADD1B2" rx="11" ry="11" style="stroke:#181818;stroke-width:1.0;"/><path d="M167.2731,568.6431 Q166.6921,568.9419 166.0529,569.0913 Q165.4138,569.2407 164.7082,569.2407 Q162.2014,569.2407 160.8815,567.5889 Q159.5617,565.937 159.5617,562.8159 Q159.5617,559.6865 160.8815,558.0347 Q162.2014,556.3828 164.7082,556.3828 Q165.4138,556.3828 166.0612,556.5322 Q166.7087,556.6816 167.2731,556.9805 L167.2731,559.7031 Q166.6423,559.1221 166.0488,558.8523 Q165.4553,558.5825 164.8244,558.5825 Q163.4797,558.5825 162.7949,559.6492 Q162.1101,560.7158 162.1101,562.8159 Q162.1101,564.9077 162.7949,565.9744 Q163.4797,567.041 164.8244,567.041 Q165.4553,567.041 166.0488,566.7712 Q166.6423,566.5015 167.2731,565.9204 Z " fill="#000000"/><text fill="#000000" font-family="sans-serif" font-size="14" lengthAdjust="spacing" textLength="22" x="178.7" y="568.291">Job</text><line style="stroke:#181818;stroke-width:0.5;" x1="148.5" x2="204.5" y1="579" y2="579"/><text fill="#000000" font-family="sans-serif" font-size="14" lengthAdjust="spacing" textLength="46" x="153.5" y="596.5352">-name</text><line style="stroke:#181818;stroke-width:0.5;" x1="148.5" x2="204.5" y1="603.4883" y2="603.4883"/></g><!--class Collaborator--><g id="elem_Collaborator"><rect codeLine="24" fill="#F1F1F1" height="163.418" id="Collaborator" rx="2.5" ry="2.5" style="stroke:#181818;stroke-width:0.5;" width="183" x="243" y="307"/><ellipse cx="286.8" cy="323" fill="#ADD1B2" rx="11" ry="11" style="stroke:#181818;stroke-width:1.0;"/><path d="M289.7731,328.6431 Q289.1921,328.9419 288.5529,329.0913 Q287.9138,329.2407 287.2082,329.2407 Q284.7014,329.2407 283.3815,327.5889 Q282.0617,325.937 282.0617,322.8159 Q282.0617,319.6865 283.3815,318.0347 Q284.7014,316.3828 287.2082,316.3828 Q287.9138,316.3828 288.5612,316.5322 Q289.2087,316.6816 289.7731,316.9805 L289.7731,319.7031 Q289.1423,319.1221 288.5488,318.8523 Q287.9553,318.5825 287.3244,318.5825 Q285.9797,318.5825 285.2949,319.6492 Q284.6101,320.7158 284.6101,322.8159 Q284.6101,324.9077 285.2949,325.9744 Q285.9797,327.041 287.3244,327.041 Q287.9553,327.041 288.5488,326.7712 Q289.1423,326.5015 289.7731,325.9204 Z " fill="#000000"/><text fill="#000000" font-family="sans-serif" font-size="14" lengthAdjust="spacing" textLength="87" x="307.2" y="328.291">Collaborator</text><line style="stroke:#181818;stroke-width:0.5;" x1="244" x2="425" y1="339" y2="339"/><text fill="#000000" font-family="sans-serif" font-size="14" lengthAdjust="spacing" textLength="46" x="249" y="356.5352">-name</text><text fill="#000000" font-family="sans-serif" font-size="14" lengthAdjust="spacing" textLength="90" x="249" y="373.0234">-birth details</text><text fill="#000000" font-family="sans-serif" font-size="14" lengthAdjust="spacing" textLength="106" x="249" y="389.5117">-issuing details</text><text fill="#000000" font-family="sans-serif" font-size="14" lengthAdjust="spacing" textLength="62" x="249" y="406">-address</text><text fill="#000000" font-family="sans-serif" font-size="14" lengthAdjust="spacing" textLength="110" x="249" y="422.4883">-phone number</text><text fill="#000000" font-family="sans-serif" font-size="14" lengthAdjust="spacing" textLength="45" x="249" y="438.9766">-email</text><text fill="#000000" font-family="sans-serif" font-size="14" lengthAdjust="spacing" textLength="171" x="249" y="455.4648">-identification document</text><line style="stroke:#181818;stroke-width:0.5;" x1="244" x2="425" y1="462.418" y2="462.418"/></g><!--class RegisterCollaboratorController--><g id="elem_RegisterCollaboratorController"><rect codeLine="34" fill="#F1F1F1" height="64.4883" id="RegisterCollaboratorController" rx="2.5" ry="2.5" style="stroke:#181818;stroke-width:0.5;" width="245" x="225" y="141"/><ellipse cx="240" cy="157" fill="#ADD1B2" rx="11" ry="11" style="stroke:#181818;stroke-width:1.0;"/><path d="M242.9731,162.6431 Q242.3921,162.9419 241.7529,163.0913 Q241.1138,163.2407 240.4082,163.2407 Q237.9014,163.2407 236.5815,161.5889 Q235.2617,159.937 235.2617,156.8159 Q235.2617,153.6865 236.5815,152.0347 Q237.9014,150.3828 240.4082,150.3828 Q241.1138,150.3828 241.7612,150.5322 Q242.4087,150.6816 242.9731,150.9805 L242.9731,153.7031 Q242.3423,153.1221 241.7488,152.8523 Q241.1553,152.5825 240.5244,152.5825 Q239.1797,152.5825 238.4949,153.6492 Q237.8101,154.7158 237.8101,156.8159 Q237.8101,158.9077 238.4949,159.9744 Q239.1797,161.041 240.5244,161.041 Q241.1553,161.041 241.7488,160.7712 Q242.3423,160.5015 242.9731,159.9204 Z " fill="#000000"/><text fill="#000000" font-family="sans-serif" font-size="14" lengthAdjust="spacing" textLength="213" x="254" y="162.291">RegisterCollaboratorController</text><line style="stroke:#181818;stroke-width:0.5;" x1="226" x2="469" y1="173" y2="173"/><line style="stroke:#181818;stroke-width:0.5;" x1="226" x2="469" y1="181" y2="181"/><text fill="#000000" font-family="sans-serif" font-size="14" lengthAdjust="spacing" textLength="65" x="231" y="198.5352">+getJob()</text></g><!--class jobRepository--><g id="elem_jobRepository"><rect codeLine="39" fill="#F1F1F1" height="64.4883" id="jobRepository" rx="2.5" ry="2.5" style="stroke:#181818;stroke-width:0.5;" width="151" x="503" y="547"/><ellipse cx="528.8" cy="563" fill="#ADD1B2" rx="11" ry="11" style="stroke:#181818;stroke-width:1.0;"/><path d="M531.7731,568.6431 Q531.1921,568.9419 530.5529,569.0913 Q529.9138,569.2407 529.2082,569.2407 Q526.7014,569.2407 525.3815,567.5889 Q524.0617,565.937 524.0617,562.8159 Q524.0617,559.6865 525.3815,558.0347 Q526.7014,556.3828 529.2082,556.3828 Q529.9138,556.3828 530.5612,556.5322 Q531.2087,556.6816 531.7731,556.9805 L531.7731,559.7031 Q531.1423,559.1221 530.5488,558.8523 Q529.9553,558.5825 529.3244,558.5825 Q527.9797,558.5825 527.2949,559.6492 Q526.6101,560.7158 526.6101,562.8159 Q526.6101,564.9077 527.2949,565.9744 Q527.9797,567.041 529.3244,567.041 Q529.9553,567.041 530.5488,566.7712 Q531.1423,566.5015 531.7731,565.9204 Z " fill="#000000"/><text fill="#000000" font-family="sans-serif" font-size="14" lengthAdjust="spacing" textLength="95" x="545.2" y="568.291">jobRepository</text><line style="stroke:#181818;stroke-width:0.5;" x1="504" x2="653" y1="579" y2="579"/><line style="stroke:#181818;stroke-width:0.5;" x1="504" x2="653" y1="587" y2="587"/><text fill="#000000" font-family="sans-serif" font-size="14" lengthAdjust="spacing" textLength="139" x="509" y="604.5352">+getJobCategories()</text></g><!--class CollaboratorRepository--><g id="elem_CollaboratorRepository"><rect codeLine="43" fill="#F1F1F1" height="64.4883" id="CollaboratorRepository" rx="2.5" ry="2.5" style="stroke:#181818;stroke-width:0.5;" width="192" x="265.5" y="547"/><ellipse cx="280.5" cy="563" fill="#ADD1B2" rx="11" ry="11" style="stroke:#181818;stroke-width:1.0;"/><path d="M283.4731,568.6431 Q282.8921,568.9419 282.2529,569.0913 Q281.6138,569.2407 280.9082,569.2407 Q278.4014,569.2407 277.0815,567.5889 Q275.7617,565.937 275.7617,562.8159 Q275.7617,559.6865 277.0815,558.0347 Q278.4014,556.3828 280.9082,556.3828 Q281.6138,556.3828 282.2612,556.5322 Q282.9087,556.6816 283.4731,556.9805 L283.4731,559.7031 Q282.8423,559.1221 282.2488,558.8523 Q281.6553,558.5825 281.0244,558.5825 Q279.6797,558.5825 278.9949,559.6492 Q278.3101,560.7158 278.3101,562.8159 Q278.3101,564.9077 278.9949,565.9744 Q279.6797,567.041 281.0244,567.041 Q281.6553,567.041 282.2488,566.7712 Q282.8423,566.5015 283.4731,565.9204 Z " fill="#000000"/><text fill="#000000" font-family="sans-serif" font-size="14" lengthAdjust="spacing" textLength="160" x="294.5" y="568.291">CollaboratorRepository</text><line style="stroke:#181818;stroke-width:0.5;" x1="266.5" x2="456.5" y1="579" y2="579"/><text fill="#000000" font-family="sans-serif" font-size="14" lengthAdjust="spacing" textLength="151" x="271.5" y="596.5352">+registerCollaborator</text><line style="stroke:#181818;stroke-width:0.5;" x1="266.5" x2="456.5" y1="603.4883" y2="603.4883"/></g><!--class Repositories--><g id="elem_Repositories"><rect codeLine="49" fill="#F1F1F1" height="113.9531" id="Repositories" rx="2.5" ry="2.5" style="stroke:#181818;stroke-width:0.5;" width="215" x="471" y="331.5"/><ellipse cx="531.75" cy="347.5" fill="#ADD1B2" rx="11" ry="11" style="stroke:#181818;stroke-width:1.0;"/><path d="M534.7231,353.1431 Q534.1421,353.4419 533.5029,353.5913 Q532.8638,353.7407 532.1582,353.7407 Q529.6514,353.7407 528.3315,352.0889 Q527.0117,350.437 527.0117,347.3159 Q527.0117,344.1865 528.3315,342.5347 Q529.6514,340.8828 532.1582,340.8828 Q532.8638,340.8828 533.5112,341.0322 Q534.1587,341.1816 534.7231,341.4805 L534.7231,344.2031 Q534.0923,343.6221 533.4988,343.3523 Q532.9053,343.0825 532.2744,343.0825 Q530.9297,343.0825 530.2449,344.1492 Q529.5601,345.2158 529.5601,347.3159 Q529.5601,349.4077 530.2449,350.4744 Q530.9297,351.541 532.2744,351.541 Q532.9053,351.541 533.4988,351.2712 Q534.0923,351.0015 534.7231,350.4204 Z " fill="#000000"/><text fill="#000000" font-family="sans-serif" font-size="14" lengthAdjust="spacing" textLength="85" x="552.25" y="352.791">Repositories</text><line style="stroke:#181818;stroke-width:0.5;" x1="472" x2="685" y1="363.5" y2="363.5"/><line style="stroke:#181818;stroke-width:0.5;" x1="472" x2="685" y1="371.5" y2="371.5"/><text fill="#000000" font-family="sans-serif" font-size="14" lengthAdjust="spacing" textLength="103" x="477" y="389.0352">-Repositories()</text><text fill="#000000" font-family="sans-serif" font-size="14" lengthAdjust="spacing" textLength="197" x="477" y="405.5234">+getInstance() : Repositories</text><text fill="#000000" font-family="sans-serif" font-size="14" lengthAdjust="spacing" textLength="203" x="477" y="422.0117">+getCollaboratorRepository()</text><text fill="#000000" font-family="sans-serif" font-size="14" lengthAdjust="spacing" textLength="138" x="477" y="438.5">+getJobRepository()</text></g><!--class CreateJobController--><g id="elem_CreateJobController"><rect codeLine="56" fill="#F1F1F1" height="64.4883" id="CreateJobController" rx="2.5" ry="2.5" style="stroke:#181818;stroke-width:0.5;" width="169" x="505" y="141"/><ellipse cx="520" cy="157" fill="#ADD1B2" rx="11" ry="11" style="stroke:#181818;stroke-width:1.0;"/><path d="M522.9731,162.6431 Q522.3921,162.9419 521.7529,163.0913 Q521.1138,163.2407 520.4082,163.2407 Q517.9014,163.2407 516.5815,161.5889 Q515.2617,159.937 515.2617,156.8159 Q515.2617,153.6865 516.5815,152.0347 Q517.9014,150.3828 520.4082,150.3828 Q521.1138,150.3828 521.7612,150.5322 Q522.4087,150.6816 522.9731,150.9805 L522.9731,153.7031 Q522.3423,153.1221 521.7488,152.8523 Q521.1553,152.5825 520.5244,152.5825 Q519.1797,152.5825 518.4949,153.6492 Q517.8101,154.7158 517.8101,156.8159 Q517.8101,158.9077 518.4949,159.9744 Q519.1797,161.041 520.5244,161.041 Q521.1553,161.041 521.7488,160.7712 Q522.3423,160.5015 522.9731,159.9204 Z " fill="#000000"/><text fill="#000000" font-family="sans-serif" font-size="14" lengthAdjust="spacing" textLength="137" x="534" y="162.291">CreateJobController</text><line style="stroke:#181818;stroke-width:0.5;" x1="506" x2="673" y1="173" y2="173"/><line style="stroke:#181818;stroke-width:0.5;" x1="506" x2="673" y1="181" y2="181"/><text fill="#000000" font-family="sans-serif" font-size="14" lengthAdjust="spacing" textLength="88" x="511" y="198.5352">+getJobList()</text></g><!--class CreateCollaboratorUI--><g id="elem_CreateCollaboratorUI"><rect codeLine="62" fill="#F1F1F1" height="48" id="CreateCollaboratorUI" rx="2.5" ry="2.5" style="stroke:#181818;stroke-width:0.5;" width="178" x="378.5" y="7"/><ellipse cx="393.5" cy="23" fill="#ADD1B2" rx="11" ry="11" style="stroke:#181818;stroke-width:1.0;"/><path d="M396.4731,28.6431 Q395.8921,28.9419 395.2529,29.0913 Q394.6138,29.2407 393.9082,29.2407 Q391.4014,29.2407 390.0815,27.5889 Q388.7617,25.937 388.7617,22.8159 Q388.7617,19.6865 390.0815,18.0347 Q391.4014,16.3828 393.9082,16.3828 Q394.6138,16.3828 395.2612,16.5322 Q395.9087,16.6816 396.4731,16.9805 L396.4731,19.7031 Q395.8423,19.1221 395.2488,18.8523 Q394.6553,18.5825 394.0244,18.5825 Q392.6797,18.5825 391.9949,19.6492 Q391.3101,20.7158 391.3101,22.8159 Q391.3101,24.9077 391.9949,25.9744 Q392.6797,27.041 394.0244,27.041 Q394.6553,27.041 395.2488,26.7712 Q395.8423,26.5015 396.4731,25.9204 Z " fill="#000000"/><text fill="#000000" font-family="sans-serif" font-size="14" lengthAdjust="spacing" textLength="146" x="407.5" y="28.291">CreateCollaboratorUI</text><line style="stroke:#181818;stroke-width:0.5;" x1="379.5" x2="555.5" y1="39" y2="39"/><line style="stroke:#181818;stroke-width:0.5;" x1="379.5" x2="555.5" y1="47" y2="47"/></g><!--link CreateCollaboratorUI to CreateJobController--><g id="link_CreateCollaboratorUI_CreateJobController"><path codeLine="65" d="M487.92,55.43 C508.27,78.79 539.65,114.79 562.14,140.61 " fill="none" id="CreateCollaboratorUI-CreateJobController" style="stroke:#181818;stroke-width:1.0;"/></g><!--link CreateJobController to Repositories--><g id="link_CreateJobController_Repositories"><path codeLine="66" d="M587.9,205.04 C586.2,238.01 583.48,290.81 581.4,331.14 " fill="none" id="CreateJobController-Repositories" style="stroke:#181818;stroke-width:1.0;"/></g><!--link Repositories to jobRepository--><g id="link_Repositories_jobRepository"><path codeLine="67" d="M578.5,445.8 C578.5,478.78 578.5,519.2 578.5,546.6 " fill="none" id="Repositories-jobRepository" style="stroke:#181818;stroke-width:1.0;"/></g><!--link Repositories to CollaboratorRepository--><g id="link_Repositories_CollaboratorRepository"><path codeLine="68" d="M513.69,445.8 C475.72,478.78 429.19,519.2 397.65,546.6 " fill="none" id="Repositories-CollaboratorRepository" style="stroke:#181818;stroke-width:1.0;"/></g><!--link RegisterCollaboratorController to Collaborator--><g id="link_RegisterCollaboratorController_Collaborator"><path codeLine="69" d="M345.61,205.04 C343.99,231.64 341.58,271.17 339.42,306.63 " fill="none" id="RegisterCollaboratorController-Collaborator" style="stroke:#181818;stroke-width:1.0;"/></g><!--link Collaborator to CollaboratorRepository--><g id="link_Collaborator_CollaboratorRepository"><path codeLine="70" d="M346.07,470.26 C349.93,497.24 354.01,525.73 357.01,546.63 " fill="none" id="Collaborator-CollaboratorRepository" style="stroke:#181818;stroke-width:1.0;"/></g><!--link CreateCollaboratorUI to RegisterCollaboratorController--><g id="link_CreateCollaboratorUI_RegisterCollaboratorController"><path codeLine="71" d="M447.41,55.43 C427.4,78.79 396.54,114.79 374.41,140.61 " fill="none" id="CreateCollaboratorUI-RegisterCollaboratorController" style="stroke:#181818;stroke-width:1.0;"/></g><!--link HRM to Job--><g id="link_HRM_Job"><path codeLine="72" d="M109.36,230.37 C125.89,316.25 155.5,470 155.5,470 C155.5,470 164.22,514.87 170.43,546.76 " fill="none" id="HRM-Job" style="stroke:#181818;stroke-width:1.0;"/><polygon fill="#000000" points="161.4476,393.5647,162.619,384.1265,156.8477,385.2405,161.4476,393.5647" style="stroke:#000000;stroke-width:1.0;"/><text fill="#000000" font-family="sans-serif" font-size="13" lengthAdjust="spacing" textLength="55" x="169.5" y="393.5684">registers</text><text fill="#000000" font-family="sans-serif" font-size="13" lengthAdjust="spacing" textLength="8" x="102.1532" y="250.4596">1</text><text fill="#000000" font-family="sans-serif" font-size="13" lengthAdjust="spacing" textLength="6" x="162.5593" y="536.1137">*</text></g><!--link HRM to Collaborator--><g id="link_HRM_Collaborator"><path codeLine="73" d="M160.81,230.37 C186.63,253.72 217.05,281.25 245.16,306.68 " fill="none" id="HRM-Collaborator" style="stroke:#181818;stroke-width:1.0;"/><polygon fill="#000000" points="218.2078,272.0097,213.472,263.7621,209.5286,268.1209,218.2078,272.0097" style="stroke:#000000;stroke-width:1.0;"/><text fill="#000000" font-family="sans-serif" font-size="13" lengthAdjust="spacing" textLength="55" x="223.5" y="273.5684">registers</text><text fill="#000000" font-family="sans-serif" font-size="13" lengthAdjust="spacing" textLength="8" x="159.5521" y="250.4596">1</text><text fill="#000000" font-family="sans-serif" font-size="13" lengthAdjust="spacing" textLength="6" x="230.936" y="296.2885">*</text></g><!--link Collaborator to Job--><g id="link_Collaborator_Job"><path codeLine="74" d="M266.81,470.26 C244.19,497.24 220.32,525.73 202.8,546.63 " fill="none" id="Collaborator-Job" style="stroke:#181818;stroke-width:1.0;"/><polygon fill="#000000" points="243.2882,512.4873,251.3508,507.443,246.846,503.6673,243.2882,512.4873" style="stroke:#000000;stroke-width:1.0;"/><text fill="#000000" font-family="sans-serif" font-size="13" lengthAdjust="spacing" textLength="22" x="255.5" y="513.5684">has</text><text fill="#000000" font-family="sans-serif" font-size="13" lengthAdjust="spacing" textLength="8" x="252.2011" y="491.0521">1</text><text fill="#000000" font-family="sans-serif" font-size="13" lengthAdjust="spacing" textLength="8" x="199.1903" y="536.3315">1</text></g><!--SRC=[VLF1Rjim3BthAuXSqcu8q5vt69060vOWWmTdE-mesuojLXODYS6G3VttqN7SI9aRdqJoFRv7Ifw75-CwxNKBBJag6qyj0li3gakbq-MBhd77HulWiMJjQXi3GgCh-crS3NjjGronnY4VEuIExB4Fr7oYI9v9HQpIwX2MpDuK1yPrIMvd_Y0yA3Mtk6TW0c_gXg4olHr3JirNsNQxVChovOyiX_pBzsotbjCls6HFKQZKgJTypR_zLI3VmkaMXnEssjZXs3Na4DoXBT0F6LEXOxCtfUxbeABoq4f6lQgnvOQAkENhc5-HjReWhvdyVvg5yTn0XIpIuQmKmg5VPPBKLUKnXFVSHTPl61tyv5YRmEXZNojox2N6iyEFDRBCStUlBhndAdBiA1Z17nFOIZFMv0q68KpE7HC7ffzm4ItpZI1DuRor92bAfpuW5jOko9CiyUuUFYMW2sJQJDna4u-NpE5Hvkl7V5lIsT78syea0oFbnA8_rq8In6HbiPXIKLFAYtGDAbcK59DRkgvERq7TVX4dT_4jnS5rCUhwtgItrPJycJ1xdFN8sOTP_rV9fOwl9S3dQq3Y9aKcfP7oEFPiT8zH_m00]--></g></svg>