<?xml version="1.0" encoding="us-ascii" standalone="no"?><svg xmlns="http://www.w3.org/2000/svg" xmlns:xlink="http://www.w3.org/1999/xlink" contentStyleType="text/css" height="627px" preserveAspectRatio="none" style="width:605px;height:627px;background:#FFFFFF;" version="1.1" viewBox="0 0 605 627" width="605px" zoomAndPan="magnify"><defs/><g><!--class TaskRepository--><g id="elem_TaskRepository"><rect codeLine="10" fill="#F1F1F1" height="103.8633" id="TaskRepository" rx="2.5" ry="2.5" style="stroke:#181818;stroke-width:0.5;" width="452" x="7" y="152"/><ellipse cx="179.25" cy="168" fill="#ADD1B2" rx="11" ry="11" style="stroke:#181818;stroke-width:1.0;"/><path d="M182.0156,163.875 Q182.1719,163.6563 182.3594,163.5469 Q182.5469,163.4375 182.7656,163.4375 Q183.1406,163.4375 183.375,163.7031 Q183.6094,163.9531 183.6094,164.5625 L183.6094,166.0156 Q183.6094,166.625 183.375,166.8906 Q183.1406,167.1563 182.7656,167.1563 Q182.4219,167.1563 182.2188,166.9531 Q182.0156,166.7656 181.9063,166.25 Q181.8594,165.8906 181.6719,165.7031 Q181.3438,165.3281 180.7344,165.1094 Q180.125,164.8906 179.5,164.8906 Q178.7344,164.8906 178.0938,165.2188 Q177.4688,165.5469 176.9688,166.2969 Q176.4844,167.0469 176.4844,168.0781 L176.4844,169.1719 Q176.4844,170.4063 177.375,171.2344 Q178.2656,172.0469 179.8594,172.0469 Q180.7969,172.0469 181.4531,171.7969 Q181.8438,171.6406 182.2656,171.2031 Q182.5313,170.9375 182.6719,170.8594 Q182.8281,170.7813 183.0313,170.7813 Q183.3594,170.7813 183.6094,171.0469 Q183.875,171.2969 183.875,171.6406 Q183.875,171.9844 183.5313,172.3906 Q183.0313,172.9688 182.2344,173.2969 Q181.1563,173.75 179.8594,173.75 Q178.3438,173.75 177.1406,173.125 Q176.1563,172.625 175.4688,171.5625 Q174.7813,170.4844 174.7813,169.2031 L174.7813,168.0469 Q174.7813,166.7188 175.3906,165.5781 Q176.0156,164.4219 177.1094,163.8125 Q178.2031,163.1875 179.4375,163.1875 Q180.1719,163.1875 180.8125,163.3594 Q181.4688,163.5156 182.0156,163.875 Z " fill="#000000"/><text fill="#000000" font-family="sans-serif" font-size="14" lengthAdjust="spacing" textLength="99" x="199.75" y="173.7969">TaskRepository</text><line style="stroke:#181818;stroke-width:0.5;" x1="8" x2="458" y1="184" y2="184"/><line style="stroke:#181818;stroke-width:0.5;" x1="8" x2="458" y1="192" y2="192"/><text fill="#000000" font-family="sans-serif" font-size="14" lengthAdjust="spacing" textLength="137" x="13" y="211.1074">+getTaskRepository()</text><text fill="#000000" font-family="sans-serif" font-size="14" lengthAdjust="spacing" textLength="440" x="13" y="229.7285">+getTasksBetweenDates(startDate: Date, endDate: Date): List&lt;Task&gt;</text><text fill="#000000" font-family="sans-serif" font-size="14" lengthAdjust="spacing" textLength="326" x="13" y="248.3496">+getTasksByStatus(status: TaskStatus): List&lt;Task&gt;</text></g><!--class TaskController--><g id="elem_TaskController"><rect codeLine="16" fill="#F1F1F1" height="85.2422" id="TaskController" rx="2.5" ry="2.5" style="stroke:#181818;stroke-width:0.5;" width="452" x="146" y="7"/><ellipse cx="321.25" cy="23" fill="#ADD1B2" rx="11" ry="11" style="stroke:#181818;stroke-width:1.0;"/><path d="M324.0156,18.875 Q324.1719,18.6563 324.3594,18.5469 Q324.5469,18.4375 324.7656,18.4375 Q325.1406,18.4375 325.375,18.7031 Q325.6094,18.9531 325.6094,19.5625 L325.6094,21.0156 Q325.6094,21.625 325.375,21.8906 Q325.1406,22.1563 324.7656,22.1563 Q324.4219,22.1563 324.2188,21.9531 Q324.0156,21.7656 323.9063,21.25 Q323.8594,20.8906 323.6719,20.7031 Q323.3438,20.3281 322.7344,20.1094 Q322.125,19.8906 321.5,19.8906 Q320.7344,19.8906 320.0938,20.2188 Q319.4688,20.5469 318.9688,21.2969 Q318.4844,22.0469 318.4844,23.0781 L318.4844,24.1719 Q318.4844,25.4063 319.375,26.2344 Q320.2656,27.0469 321.8594,27.0469 Q322.7969,27.0469 323.4531,26.7969 Q323.8438,26.6406 324.2656,26.2031 Q324.5313,25.9375 324.6719,25.8594 Q324.8281,25.7813 325.0313,25.7813 Q325.3594,25.7813 325.6094,26.0469 Q325.875,26.2969 325.875,26.6406 Q325.875,26.9844 325.5313,27.3906 Q325.0313,27.9688 324.2344,28.2969 Q323.1563,28.75 321.8594,28.75 Q320.3438,28.75 319.1406,28.125 Q318.1563,27.625 317.4688,26.5625 Q316.7813,25.4844 316.7813,24.2031 L316.7813,23.0469 Q316.7813,21.7188 317.3906,20.5781 Q318.0156,19.4219 319.1094,18.8125 Q320.2031,18.1875 321.4375,18.1875 Q322.1719,18.1875 322.8125,18.3594 Q323.4688,18.5156 324.0156,18.875 Z " fill="#000000"/><text fill="#000000" font-family="sans-serif" font-size="14" lengthAdjust="spacing" textLength="93" x="341.75" y="28.7969">TaskController</text><line style="stroke:#181818;stroke-width:0.5;" x1="147" x2="597" y1="39" y2="39"/><line style="stroke:#181818;stroke-width:0.5;" x1="147" x2="597" y1="47" y2="47"/><text fill="#000000" font-family="sans-serif" font-size="14" lengthAdjust="spacing" textLength="440" x="152" y="66.1074">+getTasksBetweenDates(startDate: Date, endDate: Date): List&lt;Task&gt;</text><text fill="#000000" font-family="sans-serif" font-size="14" lengthAdjust="spacing" textLength="326" x="152" y="84.7285">+getTasksByStatus(status: TaskStatus): List&lt;Task&gt;</text></g><!--class Task--><g id="elem_Task"><rect codeLine="21" fill="#F1F1F1" height="141.1055" id="Task" rx="2.5" ry="2.5" style="stroke:#181818;stroke-width:0.5;" width="134" x="305" y="316"/><ellipse cx="352.25" cy="332" fill="#ADD1B2" rx="11" ry="11" style="stroke:#181818;stroke-width:1.0;"/><path d="M355.0156,327.875 Q355.1719,327.6563 355.3594,327.5469 Q355.5469,327.4375 355.7656,327.4375 Q356.1406,327.4375 356.375,327.7031 Q356.6094,327.9531 356.6094,328.5625 L356.6094,330.0156 Q356.6094,330.625 356.375,330.8906 Q356.1406,331.1563 355.7656,331.1563 Q355.4219,331.1563 355.2188,330.9531 Q355.0156,330.7656 354.9063,330.25 Q354.8594,329.8906 354.6719,329.7031 Q354.3438,329.3281 353.7344,329.1094 Q353.125,328.8906 352.5,328.8906 Q351.7344,328.8906 351.0938,329.2188 Q350.4688,329.5469 349.9688,330.2969 Q349.4844,331.0469 349.4844,332.0781 L349.4844,333.1719 Q349.4844,334.4063 350.375,335.2344 Q351.2656,336.0469 352.8594,336.0469 Q353.7969,336.0469 354.4531,335.7969 Q354.8438,335.6406 355.2656,335.2031 Q355.5313,334.9375 355.6719,334.8594 Q355.8281,334.7813 356.0313,334.7813 Q356.3594,334.7813 356.6094,335.0469 Q356.875,335.2969 356.875,335.6406 Q356.875,335.9844 356.5313,336.3906 Q356.0313,336.9688 355.2344,337.2969 Q354.1563,337.75 352.8594,337.75 Q351.3438,337.75 350.1406,337.125 Q349.1563,336.625 348.4688,335.5625 Q347.7813,334.4844 347.7813,333.2031 L347.7813,332.0469 Q347.7813,330.7188 348.3906,329.5781 Q349.0156,328.4219 350.1094,327.8125 Q351.2031,327.1875 352.4375,327.1875 Q353.1719,327.1875 353.8125,327.3594 Q354.4688,327.5156 355.0156,327.875 Z " fill="#000000"/><text fill="#000000" font-family="sans-serif" font-size="14" lengthAdjust="spacing" textLength="31" x="372.75" y="337.7969">Task</text><line style="stroke:#181818;stroke-width:0.5;" x1="306" x2="438" y1="348" y2="348"/><text fill="#000000" font-family="sans-serif" font-size="14" lengthAdjust="spacing" textLength="39" x="311" y="367.1074">-id: int</text><text fill="#000000" font-family="sans-serif" font-size="14" lengthAdjust="spacing" textLength="72" x="311" y="385.7285">-title: String</text><text fill="#000000" font-family="sans-serif" font-size="14" lengthAdjust="spacing" textLength="119" x="311" y="404.3496">-description: String</text><text fill="#000000" font-family="sans-serif" font-size="14" lengthAdjust="spacing" textLength="97" x="311" y="422.9707">-dueDate: Date</text><text fill="#000000" font-family="sans-serif" font-size="14" lengthAdjust="spacing" textLength="122" x="311" y="441.5918">-status: TaskStatus</text><line style="stroke:#181818;stroke-width:0.5;" x1="306" x2="438" y1="449.1055" y2="449.1055"/></g><!--class Entry--><g id="elem_Entry"><rect codeLine="29" fill="#F1F1F1" height="103.8633" id="Entry" rx="2.5" ry="2.5" style="stroke:#181818;stroke-width:0.5;" width="110" x="317" y="517"/><ellipse cx="352.25" cy="533" fill="#ADD1B2" rx="11" ry="11" style="stroke:#181818;stroke-width:1.0;"/><path d="M355.0156,528.875 Q355.1719,528.6563 355.3594,528.5469 Q355.5469,528.4375 355.7656,528.4375 Q356.1406,528.4375 356.375,528.7031 Q356.6094,528.9531 356.6094,529.5625 L356.6094,531.0156 Q356.6094,531.625 356.375,531.8906 Q356.1406,532.1563 355.7656,532.1563 Q355.4219,532.1563 355.2188,531.9531 Q355.0156,531.7656 354.9063,531.25 Q354.8594,530.8906 354.6719,530.7031 Q354.3438,530.3281 353.7344,530.1094 Q353.125,529.8906 352.5,529.8906 Q351.7344,529.8906 351.0938,530.2188 Q350.4688,530.5469 349.9688,531.2969 Q349.4844,532.0469 349.4844,533.0781 L349.4844,534.1719 Q349.4844,535.4063 350.375,536.2344 Q351.2656,537.0469 352.8594,537.0469 Q353.7969,537.0469 354.4531,536.7969 Q354.8438,536.6406 355.2656,536.2031 Q355.5313,535.9375 355.6719,535.8594 Q355.8281,535.7813 356.0313,535.7813 Q356.3594,535.7813 356.6094,536.0469 Q356.875,536.2969 356.875,536.6406 Q356.875,536.9844 356.5313,537.3906 Q356.0313,537.9688 355.2344,538.2969 Q354.1563,538.75 352.8594,538.75 Q351.3438,538.75 350.1406,538.125 Q349.1563,537.625 348.4688,536.5625 Q347.7813,535.4844 347.7813,534.2031 L347.7813,533.0469 Q347.7813,531.7188 348.3906,530.5781 Q349.0156,529.4219 350.1094,528.8125 Q351.2031,528.1875 352.4375,528.1875 Q353.1719,528.1875 353.8125,528.3594 Q354.4688,528.5156 355.0156,528.875 Z " fill="#000000"/><text fill="#000000" font-family="sans-serif" font-size="14" lengthAdjust="spacing" textLength="33" x="370.75" y="538.7969">Entry</text><line style="stroke:#181818;stroke-width:0.5;" x1="318" x2="426" y1="549" y2="549"/><text fill="#000000" font-family="sans-serif" font-size="14" lengthAdjust="spacing" textLength="41" x="323" y="568.1074">TODO</text><text fill="#000000" font-family="sans-serif" font-size="14" lengthAdjust="spacing" textLength="98" x="323" y="586.7285">IN_PROGRESS</text><text fill="#000000" font-family="sans-serif" font-size="14" lengthAdjust="spacing" textLength="39" x="323" y="605.3496">DONE</text><line style="stroke:#181818;stroke-width:0.5;" x1="318" x2="426" y1="612.8633" y2="612.8633"/></g><!--link TaskRepository to Task--><g id="link_TaskRepository_Task"><path codeLine="35" d="M272.46,256.24 C286.75,274.79 299.4683,291.3169 314.7683,311.1769 " fill="none" id="TaskRepository-to-Task" style="stroke:#181818;stroke-width:1.0;"/><polygon fill="#181818" points="318.43,315.93,316.1061,306.3592,315.3786,311.9691,309.7687,311.2415,318.43,315.93" style="stroke:#181818;stroke-width:1.0;"/></g><!--link TaskController to TaskRepository--><g id="link_TaskController_TaskRepository"><path codeLine="36" d="M334.02,92.17 C317.22,110.6 301.3416,128.0154 283.6516,147.4254 " fill="none" id="TaskController-to-TaskRepository" style="stroke:#181818;stroke-width:1.0;"/><polygon fill="#181818" points="279.61,151.86,288.6288,147.9025,282.978,148.1645,282.716,142.5137,279.61,151.86" style="stroke:#181818;stroke-width:1.0;"/></g><!--link TaskController to Task--><g id="link_TaskController_Task"><path codeLine="37" d="M415.01,92.08 C444.01,120.11 477,152 477,152 C477,152 477,256 477,256 C477,256 457.1287,280.5094 432.2787,311.1594 " fill="none" id="TaskController-to-Task" style="stroke:#181818;stroke-width:1.0;"/><polygon fill="#181818" points="428.5,315.82,437.2751,311.3482,431.6489,311.9361,431.0609,306.3099,428.5,315.82" style="stroke:#181818;stroke-width:1.0;"/></g><!--link Task to Entry--><g id="link_Task_Entry"><path codeLine="38" d="M372,457.03 C372,476.89 372,492.17 372,510.72 " fill="none" id="Task-to-Entry" style="stroke:#181818;stroke-width:1.0;"/><polygon fill="#181818" points="372,516.72,376,507.72,372,511.72,368,507.72,372,516.72" style="stroke:#181818;stroke-width:1.0;"/></g><!--SRC=[nL7BQiCm4BphA_QMXDRGioc1jWubKE8IvrvKUsClKIGZhGbkwR_NaXlyA3rN1sbdPX-3Tk5Ef6jfvHdEHfkyikQCmBP1CIYrp4-on8nRXM0nPwbBDKvmbIpCXNG9HwdSM56aaTiQeJQgzK2Cn5n9vnwOBRqtZDlSw8m-4Ew4M2WyCh01IsN5K92VIaOB4MhW8DrfZxLnnCQsy2cWEpSbybHOhYQ2UqI-8Ef4ChgbOsdPXp7u-nPG5mDSnV12ZkzztNhMfSrOSXCwT4yStFJKjEfhRFV9QBP6ARGpk__gwiTBH4KCfBa7JAowWLct65tsL84kjrJx7So41WTxFVNRm31pqtt2TL-7D4b3iDszlUxJv_qcom9Eqjt6byos74Nhq5FCllFA3wb_PGG-eE3Z6m00]--></g></svg>