<?xml version="1.0" encoding="us-ascii" standalone="no"?><svg xmlns="http://www.w3.org/2000/svg" xmlns:xlink="http://www.w3.org/1999/xlink" contentStyleType="text/css" height="748px" preserveAspectRatio="none" style="width:993px;height:748px;background:#FFFFFF;" version="1.1" viewBox="0 0 993 748" width="993px" zoomAndPan="magnify"><defs/><g><rect fill="#FFFFFF" height="553.9473" style="stroke:#181818;stroke-width:1.0;" width="10" x="42" y="93.6211"/><rect fill="#FFFFFF" height="530.6563" style="stroke:#181818;stroke-width:1.0;" width="10" x="377" y="116.9121"/><rect fill="#FFFFFF" height="171.4551" style="stroke:#181818;stroke-width:1.0;" width="10" x="671" y="148.2031"/><rect fill="#FFFFFF" height="171.4551" style="stroke:#181818;stroke-width:1.0;" width="10" x="671" y="444.8223"/><rect fill="#FFFFFF" height="31.291" style="stroke:#181818;stroke-width:1.0;" width="10" x="940" y="382.2402"/><rect fill="none" height="50.582" style="stroke:#000000;stroke-width:1.5;" width="295" x="607.5" y="238.7852"/><rect fill="none" height="50.582" style="stroke:#000000;stroke-width:1.5;" width="295" x="607.5" y="535.4043"/><line style="stroke:#181818;stroke-width:0.5;stroke-dasharray:5.0,5.0;" x1="47" x2="47" y1="83.6211" y2="665.5684"/><line style="stroke:#181818;stroke-width:0.5;stroke-dasharray:5.0,5.0;" x1="381.5" x2="381.5" y1="83.6211" y2="665.5684"/><line style="stroke:#181818;stroke-width:0.5;stroke-dasharray:5.0,5.0;" x1="675.5" x2="675.5" y1="83.6211" y2="665.5684"/><line style="stroke:#181818;stroke-width:0.5;stroke-dasharray:5.0,5.0;" x1="869.5" x2="869.5" y1="83.6211" y2="665.5684"/><line style="stroke:#181818;stroke-width:0.5;stroke-dasharray:5.0,5.0;" x1="944.5" x2="944.5" y1="83.6211" y2="665.5684"/><text fill="#000000" font-family="sans-serif" font-size="14" lengthAdjust="spacing" textLength="78" x="5" y="80.1074">Collaborator</text><ellipse cx="47" cy="13.5" fill="#E3E3E3" rx="8" ry="8" style="stroke:#181818;stroke-width:0.5;"/><path d="M47,21.5 L47,48.5 M34,29.5 L60,29.5 M47,48.5 L34,63.5 M47,48.5 L60,63.5 " fill="none" style="stroke:#181818;stroke-width:0.5;"/><text fill="#000000" font-family="sans-serif" font-size="14" lengthAdjust="spacing" textLength="78" x="5" y="679.6758">Collaborator</text><ellipse cx="47" cy="691.6895" fill="#E3E3E3" rx="8" ry="8" style="stroke:#181818;stroke-width:0.5;"/><path d="M47,699.6895 L47,726.6895 M34,707.6895 L60,707.6895 M47,726.6895 L34,741.6895 M47,726.6895 L60,741.6895 " fill="none" style="stroke:#181818;stroke-width:0.5;"/><rect fill="#E3E3E3" height="32.6211" rx="2.5" ry="2.5" style="stroke:#181818;stroke-width:0.5;" width="111" x="326.5" y="50"/><text fill="#000000" font-family="sans-serif" font-size="14" lengthAdjust="spacing" textLength="97" x="333.5" y="72.1074">:TaskController</text><rect fill="#E3E3E3" height="32.6211" rx="2.5" ry="2.5" style="stroke:#181818;stroke-width:0.5;" width="111" x="326.5" y="664.5684"/><text fill="#000000" font-family="sans-serif" font-size="14" lengthAdjust="spacing" textLength="97" x="333.5" y="686.6758">:TaskController</text><rect fill="#E3E3E3" height="32.6211" rx="2.5" ry="2.5" style="stroke:#181818;stroke-width:0.5;" width="117" x="617.5" y="50"/><text fill="#000000" font-family="sans-serif" font-size="14" lengthAdjust="spacing" textLength="103" x="624.5" y="72.1074">:TaskRepository</text><rect fill="#E3E3E3" height="32.6211" rx="2.5" ry="2.5" style="stroke:#181818;stroke-width:0.5;" width="117" x="617.5" y="664.5684"/><text fill="#000000" font-family="sans-serif" font-size="14" lengthAdjust="spacing" textLength="103" x="624.5" y="686.6758">:TaskRepository</text><rect fill="#E3E3E3" height="32.6211" rx="2.5" ry="2.5" style="stroke:#181818;stroke-width:0.5;" width="45" x="847.5" y="50"/><text fill="#000000" font-family="sans-serif" font-size="14" lengthAdjust="spacing" textLength="31" x="854.5" y="72.1074">Task</text><rect fill="#E3E3E3" height="32.6211" rx="2.5" ry="2.5" style="stroke:#181818;stroke-width:0.5;" width="45" x="847.5" y="664.5684"/><text fill="#000000" font-family="sans-serif" font-size="14" lengthAdjust="spacing" textLength="31" x="854.5" y="686.6758">Task</text><rect fill="#E3E3E3" height="32.6211" rx="2.5" ry="2.5" style="stroke:#181818;stroke-width:0.5;" width="85" x="902.5" y="50"/><text fill="#000000" font-family="sans-serif" font-size="14" lengthAdjust="spacing" textLength="71" x="909.5" y="72.1074">TaskStatus</text><rect fill="#E3E3E3" height="32.6211" rx="2.5" ry="2.5" style="stroke:#181818;stroke-width:0.5;" width="85" x="902.5" y="664.5684"/><text fill="#000000" font-family="sans-serif" font-size="14" lengthAdjust="spacing" textLength="71" x="909.5" y="686.6758">TaskStatus</text><rect fill="#FFFFFF" height="553.9473" style="stroke:#181818;stroke-width:1.0;" width="10" x="42" y="93.6211"/><rect fill="#FFFFFF" height="530.6563" style="stroke:#181818;stroke-width:1.0;" width="10" x="377" y="116.9121"/><rect fill="#FFFFFF" height="171.4551" style="stroke:#181818;stroke-width:1.0;" width="10" x="671" y="148.2031"/><rect fill="#FFFFFF" height="171.4551" style="stroke:#181818;stroke-width:1.0;" width="10" x="671" y="444.8223"/><rect fill="#FFFFFF" height="31.291" style="stroke:#181818;stroke-width:1.0;" width="10" x="940" y="382.2402"/><polygon fill="#181818" points="365,112.9121,375,116.9121,365,120.9121,369,116.9121" style="stroke:#181818;stroke-width:1.0;"/><line style="stroke:#181818;stroke-width:1.0;" x1="52" x2="371" y1="116.9121" y2="116.9121"/><text fill="#000000" font-family="sans-serif" font-size="13" font-weight="bold" lengthAdjust="spacing" textLength="7" x="59" y="111.6494">1</text><text fill="#000000" font-family="sans-serif" font-size="13" lengthAdjust="spacing" textLength="279" x="70" y="111.6494">requestTasksBetweenDates(startDate, endDate)</text><polygon fill="#181818" points="659,144.2031,669,148.2031,659,152.2031,663,148.2031" style="stroke:#181818;stroke-width:1.0;"/><line style="stroke:#181818;stroke-width:1.0;" x1="387" x2="665" y1="148.2031" y2="148.2031"/><text fill="#000000" font-family="sans-serif" font-size="13" font-weight="bold" lengthAdjust="spacing" textLength="7" x="394" y="142.9404">2</text><text fill="#000000" font-family="sans-serif" font-size="13" lengthAdjust="spacing" textLength="254" x="405" y="142.9404">getTasksBetweenDates(startDate, endDate)</text><line style="stroke:#181818;stroke-width:1.0;" x1="681" x2="723" y1="179.4941" y2="179.4941"/><line style="stroke:#181818;stroke-width:1.0;" x1="723" x2="723" y1="179.4941" y2="192.4941"/><line style="stroke:#181818;stroke-width:1.0;" x1="682" x2="723" y1="192.4941" y2="192.4941"/><polygon fill="#181818" points="692,188.4941,682,192.4941,692,196.4941,688,192.4941" style="stroke:#181818;stroke-width:1.0;"/><text fill="#000000" font-family="sans-serif" font-size="13" font-weight="bold" lengthAdjust="spacing" textLength="7" x="688" y="174.2314">3</text><text fill="#000000" font-family="sans-serif" font-size="13" lengthAdjust="spacing" textLength="159" x="699" y="174.2314">Query tasks between dates</text><polygon fill="#181818" points="858,219.7852,868,223.7852,858,227.7852,862,223.7852" style="stroke:#181818;stroke-width:1.0;"/><line style="stroke:#181818;stroke-width:1.0;" x1="681" x2="864" y1="223.7852" y2="223.7852"/><text fill="#000000" font-family="sans-serif" font-size="13" font-weight="bold" lengthAdjust="spacing" textLength="7" x="688" y="218.5225">4</text><text fill="#000000" font-family="sans-serif" font-size="13" lengthAdjust="spacing" textLength="82" x="699" y="218.5225">Retrieve tasks</text><path d="M607.5,238.7852 L680.5,238.7852 L680.5,248.0762 L670.5,258.0762 L607.5,258.0762 L607.5,238.7852 " fill="#EEEEEE" style="stroke:#000000;stroke-width:1.5;"/><rect fill="none" height="50.582" style="stroke:#000000;stroke-width:1.5;" width="295" x="607.5" y="238.7852"/><text fill="#000000" font-family="sans-serif" font-size="13" font-weight="bold" lengthAdjust="spacing" textLength="28" x="622.5" y="253.8135">loop</text><text fill="#000000" font-family="sans-serif" font-size="11" font-weight="bold" lengthAdjust="spacing" textLength="63" x="695.5" y="252.6553">[Each Task]</text><polygon fill="#181818" points="692,277.3672,682,281.3672,692,285.3672,688,281.3672" style="stroke:#181818;stroke-width:1.0;"/><line style="stroke:#181818;stroke-width:1.0;stroke-dasharray:2.0,2.0;" x1="686" x2="869" y1="281.3672" y2="281.3672"/><text fill="#000000" font-family="sans-serif" font-size="13" font-weight="bold" lengthAdjust="spacing" textLength="7" x="698" y="276.1045">5</text><text fill="#000000" font-family="sans-serif" font-size="13" lengthAdjust="spacing" textLength="70" x="709" y="276.1045">Return Task</text><polygon fill="#181818" points="398,315.6582,388,319.6582,398,323.6582,394,319.6582" style="stroke:#181818;stroke-width:1.0;"/><line style="stroke:#181818;stroke-width:1.0;stroke-dasharray:2.0,2.0;" x1="392" x2="675" y1="319.6582" y2="319.6582"/><text fill="#000000" font-family="sans-serif" font-size="13" font-weight="bold" lengthAdjust="spacing" textLength="7" x="404" y="314.3955">6</text><text fill="#000000" font-family="sans-serif" font-size="13" lengthAdjust="spacing" textLength="71" x="415" y="314.3955">List of tasks</text><polygon fill="#181818" points="858,346.9492,868,350.9492,858,354.9492,862,350.9492" style="stroke:#181818;stroke-width:1.0;"/><line style="stroke:#181818;stroke-width:1.0;" x1="387" x2="864" y1="350.9492" y2="350.9492"/><text fill="#000000" font-family="sans-serif" font-size="13" font-weight="bold" lengthAdjust="spacing" textLength="7" x="394" y="345.6865">7</text><text fill="#000000" font-family="sans-serif" font-size="13" lengthAdjust="spacing" textLength="107" x="405" y="345.6865">Sort tasks by date</text><polygon fill="#181818" points="928,378.2402,938,382.2402,928,386.2402,932,382.2402" style="stroke:#181818;stroke-width:1.0;"/><line style="stroke:#181818;stroke-width:1.0;" x1="387" x2="934" y1="382.2402" y2="382.2402"/><text fill="#000000" font-family="sans-serif" font-size="13" font-weight="bold" lengthAdjust="spacing" textLength="7" x="394" y="376.9775">8</text><text fill="#000000" font-family="sans-serif" font-size="13" lengthAdjust="spacing" textLength="139" x="405" y="376.9775">Get list of task statuses</text><polygon fill="#181818" points="398,409.5313,388,413.5313,398,417.5313,394,413.5313" style="stroke:#181818;stroke-width:1.0;"/><line style="stroke:#181818;stroke-width:1.0;stroke-dasharray:2.0,2.0;" x1="392" x2="944" y1="413.5313" y2="413.5313"/><text fill="#000000" font-family="sans-serif" font-size="13" font-weight="bold" lengthAdjust="spacing" textLength="7" x="404" y="408.2686">9</text><text fill="#000000" font-family="sans-serif" font-size="13" lengthAdjust="spacing" textLength="89" x="415" y="408.2686">List of statuses</text><polygon fill="#181818" points="659,440.8223,669,444.8223,659,448.8223,663,444.8223" style="stroke:#181818;stroke-width:1.0;"/><line style="stroke:#181818;stroke-width:1.0;" x1="387" x2="665" y1="444.8223" y2="444.8223"/><text fill="#000000" font-family="sans-serif" font-size="13" font-weight="bold" lengthAdjust="spacing" textLength="14" x="394" y="439.5596">10</text><text fill="#000000" font-family="sans-serif" font-size="13" lengthAdjust="spacing" textLength="151" x="412" y="439.5596">getTasksByStatus(status)</text><line style="stroke:#181818;stroke-width:1.0;" x1="681" x2="723" y1="476.1133" y2="476.1133"/><line style="stroke:#181818;stroke-width:1.0;" x1="723" x2="723" y1="476.1133" y2="489.1133"/><line style="stroke:#181818;stroke-width:1.0;" x1="682" x2="723" y1="489.1133" y2="489.1133"/><polygon fill="#181818" points="692,485.1133,682,489.1133,692,493.1133,688,489.1133" style="stroke:#181818;stroke-width:1.0;"/><text fill="#000000" font-family="sans-serif" font-size="13" font-weight="bold" lengthAdjust="spacing" textLength="14" x="688" y="470.8506">11</text><text fill="#000000" font-family="sans-serif" font-size="13" lengthAdjust="spacing" textLength="129" x="706" y="470.8506">Query tasks by status</text><polygon fill="#181818" points="858,516.4043,868,520.4043,858,524.4043,862,520.4043" style="stroke:#181818;stroke-width:1.0;"/><line style="stroke:#181818;stroke-width:1.0;" x1="681" x2="864" y1="520.4043" y2="520.4043"/><text fill="#000000" font-family="sans-serif" font-size="13" font-weight="bold" lengthAdjust="spacing" textLength="14" x="688" y="515.1416">12</text><text fill="#000000" font-family="sans-serif" font-size="13" lengthAdjust="spacing" textLength="82" x="706" y="515.1416">Retrieve tasks</text><path d="M607.5,535.4043 L680.5,535.4043 L680.5,544.6953 L670.5,554.6953 L607.5,554.6953 L607.5,535.4043 " fill="#EEEEEE" style="stroke:#000000;stroke-width:1.5;"/><rect fill="none" height="50.582" style="stroke:#000000;stroke-width:1.5;" width="295" x="607.5" y="535.4043"/><text fill="#000000" font-family="sans-serif" font-size="13" font-weight="bold" lengthAdjust="spacing" textLength="28" x="622.5" y="550.4326">loop</text><text fill="#000000" font-family="sans-serif" font-size="11" font-weight="bold" lengthAdjust="spacing" textLength="63" x="695.5" y="549.2744">[Each Task]</text><polygon fill="#181818" points="692,573.9863,682,577.9863,692,581.9863,688,577.9863" style="stroke:#181818;stroke-width:1.0;"/><line style="stroke:#181818;stroke-width:1.0;stroke-dasharray:2.0,2.0;" x1="686" x2="869" y1="577.9863" y2="577.9863"/><text fill="#000000" font-family="sans-serif" font-size="13" font-weight="bold" lengthAdjust="spacing" textLength="14" x="698" y="572.7236">13</text><text fill="#000000" font-family="sans-serif" font-size="13" lengthAdjust="spacing" textLength="70" x="716" y="572.7236">Return Task</text><polygon fill="#181818" points="398,612.2773,388,616.2773,398,620.2773,394,616.2773" style="stroke:#181818;stroke-width:1.0;"/><line style="stroke:#181818;stroke-width:1.0;stroke-dasharray:2.0,2.0;" x1="392" x2="675" y1="616.2773" y2="616.2773"/><text fill="#000000" font-family="sans-serif" font-size="13" font-weight="bold" lengthAdjust="spacing" textLength="14" x="404" y="611.0146">14</text><text fill="#000000" font-family="sans-serif" font-size="13" lengthAdjust="spacing" textLength="171" x="422" y="611.0146">List of tasks with given status</text><polygon fill="#181818" points="58,643.5684,48,647.5684,58,651.5684,54,647.5684" style="stroke:#181818;stroke-width:1.0;"/><line style="stroke:#181818;stroke-width:1.0;stroke-dasharray:2.0,2.0;" x1="52" x2="381" y1="647.5684" y2="647.5684"/><text fill="#000000" font-family="sans-serif" font-size="13" font-weight="bold" lengthAdjust="spacing" textLength="14" x="64" y="642.3057">15</text><text fill="#000000" font-family="sans-serif" font-size="13" lengthAdjust="spacing" textLength="283" x="82" y="642.3057">List of tasks sorted by date and filtered by status</text><!--SRC=[rPJ1Rjim38RlUWeYbtN0-W8zzD2isAL0iQGlmDYCBSGHFObEwhSl9Tc94wSeXfsc4qtz-lIJOX9srhNeSGzxTbpKdlS4uZiouRJJOh73YjRIDmIU2a5NDLD1gB7aetKLRB49P0nsmgxRRyWRywss9S6MMJRyRh0Gzh1OSjFWXZtgrm8mmFBrnIXCR65RT0ABXpSCkoKxyIgbGVIskgLQKSl1AgbFglXvgOgYj1M3-TPQKBgG13aqqQOze53oPK2N1d3_c2p0WtRXJqT1ukdmH78aSZzL7kw2A3s6Fu1S6OFlwVWP66j8gKIDECL6pugjw2-G5zXKz2aTLqAUqRyxyZr8fCCcuw6C_9k7eWizj2BnbWwKprqe6-OMdh6eSrFXQYN0_Vbw9NNUpRLQqItRvqw_s230soi79NrI-TZGeO0rUncBxbEzCsL-SjN-8e5cSXk4j3FfqEdEOKp6_82uuNg6c1WVP-shMUYpy2wp_ldj-y7K__JkSBHIGsKFEhHNxh-OX0XydVE2pWMLuqm0kXAsjX7oEJcvOyBFFzrfGlySFW00]--></g></svg>