<?xml version="1.0" encoding="us-ascii" standalone="no"?><svg xmlns="http://www.w3.org/2000/svg" xmlns:xlink="http://www.w3.org/1999/xlink" contentStyleType="text/css" height="934px" preserveAspectRatio="none" style="width:473px;height:934px;background:#FFFFFF;" version="1.1" viewBox="0 0 473 934" width="473px" zoomAndPan="magnify"><defs/><g><!--class VehicleRepository--><g id="elem_VehicleRepository"><rect codeLine="12" fill="#F1F1F1" height="80.9766" id="VehicleRepository" rx="2.5" ry="2.5" style="stroke:#181818;stroke-width:0.5;" width="167" x="217" y="415.5"/><ellipse cx="237.85" cy="431.5" fill="#ADD1B2" rx="11" ry="11" style="stroke:#181818;stroke-width:1.0;"/><path d="M240.8231,437.1431 Q240.2421,437.4419 239.6029,437.5913 Q238.9638,437.7407 238.2582,437.7407 Q235.7514,437.7407 234.4315,436.0889 Q233.1117,434.437 233.1117,431.3159 Q233.1117,428.1865 234.4315,426.5347 Q235.7514,424.8828 238.2582,424.8828 Q238.9638,424.8828 239.6112,425.0322 Q240.2587,425.1816 240.8231,425.4805 L240.8231,428.2031 Q240.1923,427.6221 239.5988,427.3523 Q239.0053,427.0825 238.3744,427.0825 Q237.0297,427.0825 236.3449,428.1492 Q235.6601,429.2158 235.6601,431.3159 Q235.6601,433.4077 236.3449,434.4744 Q237.0297,435.541 238.3744,435.541 Q239.0053,435.541 239.5988,435.2712 Q240.1923,435.0015 240.8231,434.4204 Z " fill="#000000"/><text fill="#000000" font-family="sans-serif" font-size="14" lengthAdjust="spacing" textLength="122" x="253.15" y="436.791">VehicleRepository</text><line style="stroke:#181818;stroke-width:0.5;" x1="218" x2="383" y1="447.5" y2="447.5"/><text fill="#000000" font-family="sans-serif" font-size="14" lengthAdjust="spacing" textLength="155" x="223" y="465.0352">+getVehicleRepository</text><text fill="#000000" font-family="sans-serif" font-size="14" lengthAdjust="spacing" textLength="113" x="223" y="481.5234">+registerVehicle</text><line style="stroke:#181818;stroke-width:0.5;" x1="218" x2="383" y1="488.4766" y2="488.4766"/></g><!--class CreateVehicleUI--><g id="elem_CreateVehicleUI"><rect codeLine="17" fill="#F1F1F1" height="48" id="CreateVehicleUI" rx="2.5" ry="2.5" style="stroke:#181818;stroke-width:0.5;" width="140" x="298.5" y="7"/><ellipse cx="313.5" cy="23" fill="#ADD1B2" rx="11" ry="11" style="stroke:#181818;stroke-width:1.0;"/><path d="M316.4731,28.6431 Q315.8921,28.9419 315.2529,29.0913 Q314.6138,29.2407 313.9082,29.2407 Q311.4014,29.2407 310.0815,27.5889 Q308.7617,25.937 308.7617,22.8159 Q308.7617,19.6865 310.0815,18.0347 Q311.4014,16.3828 313.9082,16.3828 Q314.6138,16.3828 315.2612,16.5322 Q315.9087,16.6816 316.4731,16.9805 L316.4731,19.7031 Q315.8423,19.1221 315.2488,18.8523 Q314.6553,18.5825 314.0244,18.5825 Q312.6797,18.5825 311.9949,19.6492 Q311.3101,20.7158 311.3101,22.8159 Q311.3101,24.9077 311.9949,25.9744 Q312.6797,27.041 314.0244,27.041 Q314.6553,27.041 315.2488,26.7712 Q315.8423,26.5015 316.4731,25.9204 Z " fill="#000000"/><text fill="#000000" font-family="sans-serif" font-size="14" lengthAdjust="spacing" textLength="108" x="327.5" y="28.291">CreateVehicleUI</text><line style="stroke:#181818;stroke-width:0.5;" x1="299.5" x2="437.5" y1="39" y2="39"/><line style="stroke:#181818;stroke-width:0.5;" x1="299.5" x2="437.5" y1="47" y2="47"/></g><!--class Repositories--><g id="elem_Repositories"><rect codeLine="21" fill="#F1F1F1" height="97.4648" id="Repositories" rx="2.5" ry="2.5" style="stroke:#181818;stroke-width:0.5;" width="209" x="185" y="241"/><ellipse cx="242.75" cy="257" fill="#ADD1B2" rx="11" ry="11" style="stroke:#181818;stroke-width:1.0;"/><path d="M245.7231,262.6431 Q245.1421,262.9419 244.5029,263.0913 Q243.8638,263.2407 243.1582,263.2407 Q240.6514,263.2407 239.3315,261.5889 Q238.0117,259.937 238.0117,256.8159 Q238.0117,253.6865 239.3315,252.0347 Q240.6514,250.3828 243.1582,250.3828 Q243.8638,250.3828 244.5112,250.5322 Q245.1587,250.6816 245.7231,250.9805 L245.7231,253.7031 Q245.0923,253.1221 244.4988,252.8523 Q243.9053,252.5825 243.2744,252.5825 Q241.9297,252.5825 241.2449,253.6492 Q240.5601,254.7158 240.5601,256.8159 Q240.5601,258.9077 241.2449,259.9744 Q241.9297,261.041 243.2744,261.041 Q243.9053,261.041 244.4988,260.7712 Q245.0923,260.5015 245.7231,259.9204 Z " fill="#000000"/><text fill="#000000" font-family="sans-serif" font-size="14" lengthAdjust="spacing" textLength="85" x="263.25" y="262.291">Repositories</text><line style="stroke:#181818;stroke-width:0.5;" x1="186" x2="393" y1="273" y2="273"/><line style="stroke:#181818;stroke-width:0.5;" x1="186" x2="393" y1="281" y2="281"/><text fill="#000000" font-family="sans-serif" font-size="14" lengthAdjust="spacing" textLength="103" x="191" y="298.5352">-Repositories()</text><text fill="#000000" font-family="sans-serif" font-size="14" lengthAdjust="spacing" textLength="197" x="191" y="315.0234">+getInstance() : Repositories</text><text fill="#000000" font-family="sans-serif" font-size="14" lengthAdjust="spacing" textLength="165" x="191" y="331.5117">+getVehicleRepository()</text></g><!--class CreateVehicleController--><g id="elem_CreateVehicleController"><rect codeLine="27" fill="#F1F1F1" height="64.4883" id="CreateVehicleController" rx="2.5" ry="2.5" style="stroke:#181818;stroke-width:0.5;" width="196" x="270.5" y="116"/><ellipse cx="285.5" cy="132" fill="#ADD1B2" rx="11" ry="11" style="stroke:#181818;stroke-width:1.0;"/><path d="M288.4731,137.6431 Q287.8921,137.9419 287.2529,138.0913 Q286.6138,138.2407 285.9082,138.2407 Q283.4014,138.2407 282.0815,136.5889 Q280.7617,134.937 280.7617,131.8159 Q280.7617,128.6865 282.0815,127.0347 Q283.4014,125.3828 285.9082,125.3828 Q286.6138,125.3828 287.2612,125.5322 Q287.9087,125.6816 288.4731,125.9805 L288.4731,128.7031 Q287.8423,128.1221 287.2488,127.8523 Q286.6553,127.5825 286.0244,127.5825 Q284.6797,127.5825 283.9949,128.6492 Q283.3101,129.7158 283.3101,131.8159 Q283.3101,133.9077 283.9949,134.9744 Q284.6797,136.041 286.0244,136.041 Q286.6553,136.041 287.2488,135.7712 Q287.8423,135.5015 288.4731,134.9204 Z " fill="#000000"/><text fill="#000000" font-family="sans-serif" font-size="14" lengthAdjust="spacing" textLength="164" x="299.5" y="137.291">CreateVehicleController</text><line style="stroke:#181818;stroke-width:0.5;" x1="271.5" x2="465.5" y1="148" y2="148"/><text fill="#000000" font-family="sans-serif" font-size="14" lengthAdjust="spacing" textLength="82" x="276.5" y="165.5352">+getVehicle</text><line style="stroke:#181818;stroke-width:0.5;" x1="271.5" x2="465.5" y1="172.4883" y2="172.4883"/></g><!--class FM--><g id="elem_FM"><rect codeLine="32" fill="#F1F1F1" height="113.9531" id="FM" rx="2.5" ry="2.5" style="stroke:#181818;stroke-width:0.5;" width="175" x="7" y="399"/><ellipse cx="80.25" cy="415" fill="#ADD1B2" rx="11" ry="11" style="stroke:#181818;stroke-width:1.0;"/><path d="M83.2231,420.6431 Q82.6421,420.9419 82.0029,421.0913 Q81.3638,421.2407 80.6582,421.2407 Q78.1514,421.2407 76.8315,419.5889 Q75.5117,417.937 75.5117,414.8159 Q75.5117,411.6865 76.8315,410.0347 Q78.1514,408.3828 80.6582,408.3828 Q81.3638,408.3828 82.0112,408.5322 Q82.6587,408.6816 83.2231,408.9805 L83.2231,411.7031 Q82.5923,411.1221 81.9988,410.8523 Q81.4053,410.5825 80.7744,410.5825 Q79.4297,410.5825 78.7449,411.6492 Q78.0601,412.7158 78.0601,414.8159 Q78.0601,416.9077 78.7449,417.9744 Q79.4297,419.041 80.7744,419.041 Q81.4053,419.041 81.9988,418.7712 Q82.5923,418.5015 83.2231,417.9204 Z " fill="#000000"/><text fill="#000000" font-family="sans-serif" font-size="14" lengthAdjust="spacing" textLength="20" x="100.75" y="420.291">FM</text><line style="stroke:#181818;stroke-width:0.5;" x1="8" x2="181" y1="431" y2="431"/><text fill="#000000" font-family="sans-serif" font-size="14" lengthAdjust="spacing" textLength="38" x="13" y="448.5352">name</text><text fill="#000000" font-family="sans-serif" font-size="14" lengthAdjust="spacing" textLength="37" x="13" y="465.0234">email</text><text fill="#000000" font-family="sans-serif" font-size="14" lengthAdjust="spacing" textLength="102" x="13" y="481.5117">phone number</text><text fill="#000000" font-family="sans-serif" font-size="14" lengthAdjust="spacing" textLength="163" x="13" y="498">identification document</text><line style="stroke:#181818;stroke-width:0.5;" x1="8" x2="181" y1="504.9531" y2="504.9531"/></g><!--class Vehicle--><g id="elem_Vehicle"><rect codeLine="40" fill="#F1F1F1" height="196.3945" id="Vehicle" rx="2.5" ry="2.5" style="stroke:#181818;stroke-width:0.5;" width="174" x="204.5" y="590"/><ellipse cx="262.75" cy="606" fill="#ADD1B2" rx="11" ry="11" style="stroke:#181818;stroke-width:1.0;"/><path d="M265.7231,611.6431 Q265.1421,611.9419 264.5029,612.0913 Q263.8638,612.2407 263.1582,612.2407 Q260.6514,612.2407 259.3315,610.5889 Q258.0117,608.937 258.0117,605.8159 Q258.0117,602.6865 259.3315,601.0347 Q260.6514,599.3828 263.1582,599.3828 Q263.8638,599.3828 264.5112,599.5322 Q265.1587,599.6816 265.7231,599.9805 L265.7231,602.7031 Q265.0923,602.1221 264.4988,601.8523 Q263.9053,601.5825 263.2744,601.5825 Q261.9297,601.5825 261.2449,602.6492 Q260.5601,603.7158 260.5601,605.8159 Q260.5601,607.9077 261.2449,608.9744 Q261.9297,610.041 263.2744,610.041 Q263.9053,610.041 264.4988,609.7712 Q265.0923,609.5015 265.7231,608.9204 Z " fill="#000000"/><text fill="#000000" font-family="sans-serif" font-size="14" lengthAdjust="spacing" textLength="49" x="283.25" y="611.291">Vehicle</text><line style="stroke:#181818;stroke-width:0.5;" x1="205.5" x2="377.5" y1="622" y2="622"/><text fill="#000000" font-family="sans-serif" font-size="14" lengthAdjust="spacing" textLength="40" x="210.5" y="639.5352">Brand</text><text fill="#000000" font-family="sans-serif" font-size="14" lengthAdjust="spacing" textLength="42" x="210.5" y="656.0234">Model</text><text fill="#000000" font-family="sans-serif" font-size="14" lengthAdjust="spacing" textLength="33" x="210.5" y="672.5117">Type</text><text fill="#000000" font-family="sans-serif" font-size="14" lengthAdjust="spacing" textLength="31" x="210.5" y="689">Tare</text><text fill="#000000" font-family="sans-serif" font-size="14" lengthAdjust="spacing" textLength="90" x="210.5" y="705.4883">Gross Weight</text><text fill="#000000" font-family="sans-serif" font-size="14" lengthAdjust="spacing" textLength="79" x="210.5" y="721.9766">Current Km</text><text fill="#000000" font-family="sans-serif" font-size="14" lengthAdjust="spacing" textLength="91" x="210.5" y="738.4648">Register Date</text><text fill="#000000" font-family="sans-serif" font-size="14" lengthAdjust="spacing" textLength="112" x="210.5" y="754.9531">Acquisition Date</text><text fill="#000000" font-family="sans-serif" font-size="14" lengthAdjust="spacing" textLength="162" x="210.5" y="771.4414">Maintenance/Check-up</text><line style="stroke:#181818;stroke-width:0.5;" x1="205.5" x2="377.5" y1="778.3945" y2="778.3945"/></g><!--class Check-up--><g id="elem_Check-up"><rect codeLine="52" fill="#F1F1F1" height="64.4883" id="Check-up" rx="2.5" ry="2.5" style="stroke:#181818;stroke-width:0.5;" width="104" x="73.5" y="863"/><ellipse cx="90.3" cy="879" fill="#ADD1B2" rx="11" ry="11" style="stroke:#181818;stroke-width:1.0;"/><path d="M93.2731,884.6431 Q92.6921,884.9419 92.0529,885.0913 Q91.4138,885.2407 90.7082,885.2407 Q88.2014,885.2407 86.8815,883.5889 Q85.5617,881.937 85.5617,878.8159 Q85.5617,875.6865 86.8815,874.0347 Q88.2014,872.3828 90.7082,872.3828 Q91.4138,872.3828 92.0612,872.5322 Q92.7087,872.6816 93.2731,872.9805 L93.2731,875.7031 Q92.6423,875.1221 92.0488,874.8523 Q91.4553,874.5825 90.8244,874.5825 Q89.4797,874.5825 88.7949,875.6492 Q88.1101,876.7158 88.1101,878.8159 Q88.1101,880.9077 88.7949,881.9744 Q89.4797,883.041 90.8244,883.041 Q91.4553,883.041 92.0488,882.7712 Q92.6423,882.5015 93.2731,881.9204 Z " fill="#000000"/><text fill="#000000" font-family="sans-serif" font-size="14" lengthAdjust="spacing" textLength="68" x="104.7" y="884.291">Check-up</text><line style="stroke:#181818;stroke-width:0.5;" x1="74.5" x2="176.5" y1="895" y2="895"/><text fill="#000000" font-family="sans-serif" font-size="14" lengthAdjust="spacing" textLength="92" x="79.5" y="912.5352">distance "km"</text><line style="stroke:#181818;stroke-width:0.5;" x1="74.5" x2="176.5" y1="919.4883" y2="919.4883"/></g><!--link CreateVehicleUI to CreateVehicleController--><g id="link_CreateVehicleUI_CreateVehicleController"><path codeLine="56" d="M368.5,55.27 C368.5,72.73 368.5,96.81 368.5,115.91 " fill="none" id="CreateVehicleUI-CreateVehicleController" style="stroke:#181818;stroke-width:1.0;"/></g><!--link Repositories to VehicleRepository--><g id="link_Repositories_VehicleRepository"><path codeLine="57" d="M292.68,338.08 C294.31,362.47 296.28,391.83 297.83,415.03 " fill="none" id="Repositories-VehicleRepository" style="stroke:#181818;stroke-width:1.0;"/></g><!--link CreateVehicleController to Repositories--><g id="link_CreateVehicleController_Repositories"><path codeLine="58" d="M350.77,180.31 C340.72,198.06 327.93,220.64 316.64,240.58 " fill="none" id="CreateVehicleController-Repositories" style="stroke:#181818;stroke-width:1.0;"/></g><!--link VehicleRepository to Vehicle--><g id="link_VehicleRepository_Vehicle"><path codeLine="59" d="M298.94,496.8 C297.94,522.51 296.58,557.16 295.3,589.84 " fill="none" id="VehicleRepository-Vehicle" style="stroke:#181818;stroke-width:1.0;"/></g><!--link CreateVehicleController to Vehicle--><g id="link_CreateVehicleController_Vehicle"><path codeLine="60" d="M383.18,180.4 C395.63,207.06 411.5,241 411.5,241 C411.5,241 411.5,338 411.5,338 C411.5,338 401.5,513 401.5,513 C401.5,513 378.23,549.81 353.09,589.57 " fill="none" id="CreateVehicleController-Vehicle" style="stroke:#181818;stroke-width:1.0;"/></g><!--link FM to Vehicle--><g id="link_FM_Vehicle"><path codeLine="61" d="M142.69,513.26 C162.4,536.27 185.78,563.57 208.1,589.62 " fill="none" id="FM-Vehicle" style="stroke:#181818;stroke-width:1.0;"/><polygon fill="#000000" points="189.7528,555.4526,186.1005,546.6713,181.6365,550.4951,189.7528,555.4526" style="stroke:#000000;stroke-width:1.0;"/><text fill="#000000" font-family="sans-serif" font-size="13" lengthAdjust="spacing" textLength="55" x="195.5" y="556.5684">registers</text><text fill="#000000" font-family="sans-serif" font-size="13" lengthAdjust="spacing" textLength="8" x="139.7995" y="533.3369">1</text><text fill="#000000" font-family="sans-serif" font-size="13" lengthAdjust="spacing" textLength="6" x="195.755" y="579.4097">*</text></g><!--link FM to Check-up--><g id="link_FM_Check-up"><path codeLine="62" d="M98.26,513.18 C104.54,607.15 116.5,786 116.5,786 C116.5,786 120.24,830.87 122.9,862.76 " fill="none" id="FM-Check-up" style="stroke:#181818;stroke-width:1.0;"/><polygon fill="#000000" points="121.8516,693.1429,124.1472,683.9136,118.2839,684.3268,121.8516,693.1429" style="stroke:#000000;stroke-width:1.0;"/><text fill="#000000" font-family="sans-serif" font-size="13" lengthAdjust="spacing" textLength="55" x="130.5" y="693.0684">registers</text><text fill="#000000" font-family="sans-serif" font-size="13" lengthAdjust="spacing" textLength="8" x="90.2308" y="533.653">1</text><text fill="#000000" font-family="sans-serif" font-size="13" lengthAdjust="spacing" textLength="6" x="115.745" y="852.1137">*</text></g><!--link Vehicle to Check-up--><g id="link_Vehicle_Check-up"><path codeLine="63" d="M212.63,786.4 C190.21,814.08 167.39,842.27 150.73,862.84 " fill="none" id="Vehicle-Check-up" style="stroke:#181818;stroke-width:1.0;"/><polygon fill="#000000" points="186.3534,828.541,194.3296,823.3612,189.7617,819.6621,186.3534,828.541" style="stroke:#000000;stroke-width:1.0;"/><text fill="#000000" font-family="sans-serif" font-size="13" lengthAdjust="spacing" textLength="37" x="198.5" y="829.5684">needs</text><text fill="#000000" font-family="sans-serif" font-size="13" lengthAdjust="spacing" textLength="8" x="198.2853" y="807.0731">1</text><text fill="#000000" font-family="sans-serif" font-size="13" lengthAdjust="spacing" textLength="8" x="147.1087" y="852.2102">1</text></g><!--SRC=[VLBBRjim4BppAzQwE6bX9BxsK21naS88V4dwE3FKMbgO3tL9fN23_dj9KOebAwbEgvdPuNAMItyWsqYM1eopJjNi34BW5iM9QQGwo0eVmr4ZCAeWRQN70b_BqlqcMy5UQZzcD5aCnmQXSVgOViJo3T9nS6BKfRJq_YO4fgSsu5Ov-qX_4Aw5M6hS1mWEcAewG4bf778sCl2CDQauuGCspbDmV8J5Oh4MdHlyoEo9V14GluyLXXcL6SQAV43kQV5Nz5ORHXcmXxzlNyI9UlKWz91FM4t0Yyji3l7ShVKnIeKNb_1f8Zf9PgF5_hVds3WRs6cDFBlOQBwxNMQjDDWLQ2JfhcfgPn5iQvwGEu1Aj87sf6HA64gdMXEHP3RDD5lUihHbL-rSYTdpMznkBYJduYkxsFWJq_ewODCoHrUuDztlGnywV8bNwv0RzQkbUFaqmokuasG3sfJUrQP6TLYrpIYO7ic3bPHZXk9WYYGwsn-iLkz5AIRxZBhvKtcdCuadAvrrZkp-Pp98xdPGh8k451-A0OtlPdYb7ZwVQOeXXk9CDZGFslMPrYAMIIV-0G00]--></g></svg>