<?xml version="1.0" encoding="us-ascii" standalone="no"?><svg xmlns="http://www.w3.org/2000/svg" xmlns:xlink="http://www.w3.org/1999/xlink" contentStyleType="text/css" height="468px" preserveAspectRatio="none" style="width:1795px;height:468px;background:#FFFFFF;" version="1.1" viewBox="0 0 1795 468" width="1795px" zoomAndPan="magnify"><defs/><g><!--class Repositories--><g id="elem_Repositories"><rect codeLine="10" fill="#F1F1F1" height="122.4844" id="Repositories" rx="2.5" ry="2.5" style="stroke:#181818;stroke-width:0.5;" width="198" x="905.5" y="16.5"/><ellipse cx="960.75" cy="32.5" fill="#ADD1B2" rx="11" ry="11" style="stroke:#181818;stroke-width:1.0;"/><path d="M963.5156,28.375 Q963.6719,28.1563 963.8594,28.0469 Q964.0469,27.9375 964.2656,27.9375 Q964.6406,27.9375 964.875,28.2031 Q965.1094,28.4531 965.1094,29.0625 L965.1094,30.5156 Q965.1094,31.125 964.875,31.3906 Q964.6406,31.6563 964.2656,31.6563 Q963.9219,31.6563 963.7188,31.4531 Q963.5156,31.2656 963.4063,30.75 Q963.3594,30.3906 963.1719,30.2031 Q962.8438,29.8281 962.2344,29.6094 Q961.625,29.3906 961,29.3906 Q960.2344,29.3906 959.5938,29.7188 Q958.9688,30.0469 958.4688,30.7969 Q957.9844,31.5469 957.9844,32.5781 L957.9844,33.6719 Q957.9844,34.9063 958.875,35.7344 Q959.7656,36.5469 961.3594,36.5469 Q962.2969,36.5469 962.9531,36.2969 Q963.3438,36.1406 963.7656,35.7031 Q964.0313,35.4375 964.1719,35.3594 Q964.3281,35.2813 964.5313,35.2813 Q964.8594,35.2813 965.1094,35.5469 Q965.375,35.7969 965.375,36.1406 Q965.375,36.4844 965.0313,36.8906 Q964.5313,37.4688 963.7344,37.7969 Q962.6563,38.25 961.3594,38.25 Q959.8438,38.25 958.6406,37.625 Q957.6563,37.125 956.9688,36.0625 Q956.2813,34.9844 956.2813,33.7031 L956.2813,32.5469 Q956.2813,31.2188 956.8906,30.0781 Q957.5156,28.9219 958.6094,28.3125 Q959.7031,27.6875 960.9375,27.6875 Q961.6719,27.6875 962.3125,27.8594 Q962.9688,28.0156 963.5156,28.375 Z " fill="#000000"/><text fill="#000000" font-family="sans-serif" font-size="14" lengthAdjust="spacing" textLength="79" x="981.25" y="38.2969">Repositories</text><line style="stroke:#181818;stroke-width:0.5;" x1="906.5" x2="1102.5" y1="48.5" y2="48.5"/><line style="stroke:#181818;stroke-width:0.5;" x1="906.5" x2="1102.5" y1="56.5" y2="56.5"/><text fill="#000000" font-family="sans-serif" font-size="14" lengthAdjust="spacing" textLength="94" x="911.5" y="75.6074">-Repositories()</text><text fill="#000000" font-family="sans-serif" font-size="14" lengthAdjust="spacing" textLength="182" x="911.5" y="94.2285">+getInstance() : Repositories</text><text fill="#000000" font-family="sans-serif" font-size="14" lengthAdjust="spacing" textLength="186" x="911.5" y="112.8496">+getGreenSpaceRepository()</text><text fill="#000000" font-family="sans-serif" font-size="14" lengthAdjust="spacing" textLength="95" x="911.5" y="131.4707">+getToDoList()</text></g><!--class ToDoList--><g id="elem_ToDoList"><rect codeLine="16" fill="#F1F1F1" height="159.7266" id="ToDoList" rx="2.5" ry="2.5" style="stroke:#181818;stroke-width:0.5;" width="391" x="7" y="264"/><ellipse cx="169.75" cy="280" fill="#ADD1B2" rx="11" ry="11" style="stroke:#181818;stroke-width:1.0;"/><path d="M172.5156,275.875 Q172.6719,275.6563 172.8594,275.5469 Q173.0469,275.4375 173.2656,275.4375 Q173.6406,275.4375 173.875,275.7031 Q174.1094,275.9531 174.1094,276.5625 L174.1094,278.0156 Q174.1094,278.625 173.875,278.8906 Q173.6406,279.1563 173.2656,279.1563 Q172.9219,279.1563 172.7188,278.9531 Q172.5156,278.7656 172.4063,278.25 Q172.3594,277.8906 172.1719,277.7031 Q171.8438,277.3281 171.2344,277.1094 Q170.625,276.8906 170,276.8906 Q169.2344,276.8906 168.5938,277.2188 Q167.9688,277.5469 167.4688,278.2969 Q166.9844,279.0469 166.9844,280.0781 L166.9844,281.1719 Q166.9844,282.4063 167.875,283.2344 Q168.7656,284.0469 170.3594,284.0469 Q171.2969,284.0469 171.9531,283.7969 Q172.3438,283.6406 172.7656,283.2031 Q173.0313,282.9375 173.1719,282.8594 Q173.3281,282.7813 173.5313,282.7813 Q173.8594,282.7813 174.1094,283.0469 Q174.375,283.2969 174.375,283.6406 Q174.375,283.9844 174.0313,284.3906 Q173.5313,284.9688 172.7344,285.2969 Q171.6563,285.75 170.3594,285.75 Q168.8438,285.75 167.6406,285.125 Q166.6563,284.625 165.9688,283.5625 Q165.2813,282.4844 165.2813,281.2031 L165.2813,280.0469 Q165.2813,278.7188 165.8906,277.5781 Q166.5156,276.4219 167.6094,275.8125 Q168.7031,275.1875 169.9375,275.1875 Q170.6719,275.1875 171.3125,275.3594 Q171.9688,275.5156 172.5156,275.875 Z " fill="#000000"/><text fill="#000000" font-family="sans-serif" font-size="14" lengthAdjust="spacing" textLength="57" x="190.25" y="285.7969">ToDoList</text><line style="stroke:#181818;stroke-width:0.5;" x1="8" x2="397" y1="296" y2="296"/><text fill="#000000" font-family="sans-serif" font-size="14" lengthAdjust="spacing" textLength="126" x="13" y="315.1074">-List&lt;Task&gt;toDoList</text><line style="stroke:#181818;stroke-width:0.5;" x1="8" x2="397" y1="322.6211" y2="322.6211"/><text fill="#000000" font-family="sans-serif" font-size="14" lengthAdjust="spacing" textLength="68" x="13" y="341.7285">+add(task)</text><text fill="#000000" font-family="sans-serif" font-size="14" lengthAdjust="spacing" textLength="156" x="13" y="360.3496">+getTaskByName(name)</text><text fill="#000000" font-family="sans-serif" font-size="14" lengthAdjust="spacing" textLength="126" x="13" y="378.9707">+validateEntry(task)</text><text fill="#000000" font-family="sans-serif" font-size="14" lengthAdjust="spacing" textLength="95" x="13" y="397.5918">+getToDoList()</text><text fill="#000000" font-family="sans-serif" font-size="14" lengthAdjust="spacing" textLength="379" x="13" y="416.2129">+addTask(title, description, urgency, duration, GreenSpace)</text></g><!--class Task--><g id="elem_Task"><rect codeLine="26" fill="#F1F1F1" height="234.2109" id="Task" rx="2.5" ry="2.5" style="stroke:#181818;stroke-width:0.5;" width="414" x="459.5" y="227"/><ellipse cx="646.75" cy="243" fill="#ADD1B2" rx="11" ry="11" style="stroke:#181818;stroke-width:1.0;"/><path d="M649.5156,238.875 Q649.6719,238.6563 649.8594,238.5469 Q650.0469,238.4375 650.2656,238.4375 Q650.6406,238.4375 650.875,238.7031 Q651.1094,238.9531 651.1094,239.5625 L651.1094,241.0156 Q651.1094,241.625 650.875,241.8906 Q650.6406,242.1563 650.2656,242.1563 Q649.9219,242.1563 649.7188,241.9531 Q649.5156,241.7656 649.4063,241.25 Q649.3594,240.8906 649.1719,240.7031 Q648.8438,240.3281 648.2344,240.1094 Q647.625,239.8906 647,239.8906 Q646.2344,239.8906 645.5938,240.2188 Q644.9688,240.5469 644.4688,241.2969 Q643.9844,242.0469 643.9844,243.0781 L643.9844,244.1719 Q643.9844,245.4063 644.875,246.2344 Q645.7656,247.0469 647.3594,247.0469 Q648.2969,247.0469 648.9531,246.7969 Q649.3438,246.6406 649.7656,246.2031 Q650.0313,245.9375 650.1719,245.8594 Q650.3281,245.7813 650.5313,245.7813 Q650.8594,245.7813 651.1094,246.0469 Q651.375,246.2969 651.375,246.6406 Q651.375,246.9844 651.0313,247.3906 Q650.5313,247.9688 649.7344,248.2969 Q648.6563,248.75 647.3594,248.75 Q645.8438,248.75 644.6406,248.125 Q643.6563,247.625 642.9688,246.5625 Q642.2813,245.4844 642.2813,244.2031 L642.2813,243.0469 Q642.2813,241.7188 642.8906,240.5781 Q643.5156,239.4219 644.6094,238.8125 Q645.7031,238.1875 646.9375,238.1875 Q647.6719,238.1875 648.3125,238.3594 Q648.9688,238.5156 649.5156,238.875 Z " fill="#000000"/><text fill="#000000" font-family="sans-serif" font-size="14" lengthAdjust="spacing" textLength="31" x="667.25" y="248.7969">Task</text><line style="stroke:#181818;stroke-width:0.5;" x1="460.5" x2="872.5" y1="259" y2="259"/><text fill="#000000" font-family="sans-serif" font-size="14" lengthAdjust="spacing" textLength="81" x="465.5" y="278.1074">-String name</text><text fill="#000000" font-family="sans-serif" font-size="14" lengthAdjust="spacing" textLength="115" x="465.5" y="296.7285">-String description</text><text fill="#000000" font-family="sans-serif" font-size="14" lengthAdjust="spacing" textLength="97" x="465.5" y="315.3496">-String urgency</text><text fill="#000000" font-family="sans-serif" font-size="14" lengthAdjust="spacing" textLength="98" x="465.5" y="333.9707">-String duration</text><text fill="#000000" font-family="sans-serif" font-size="14" lengthAdjust="spacing" textLength="166" x="465.5" y="352.5918">-GreenSpace greenSpace</text><line style="stroke:#181818;stroke-width:0.5;" x1="460.5" x2="872.5" y1="360.1055" y2="360.1055"/><text fill="#000000" font-family="sans-serif" font-size="14" lengthAdjust="spacing" textLength="402" x="465.5" y="379.2129">+ToDoEntry(name, description, urgency, duration, greenSpace)</text><text fill="#000000" font-family="sans-serif" font-size="14" lengthAdjust="spacing" textLength="171" x="465.5" y="397.834">+validateEntryName(name)</text><text fill="#000000" font-family="sans-serif" font-size="14" lengthAdjust="spacing" textLength="240" x="465.5" y="416.4551">+validateEntryDescription(description)</text><text fill="#000000" font-family="sans-serif" font-size="14" lengthAdjust="spacing" textLength="206" x="465.5" y="435.0762">+validateEntryDuration(duration)</text><text fill="#000000" font-family="sans-serif" font-size="14" lengthAdjust="spacing" textLength="203" x="465.5" y="453.6973">+validateEntryUrgency(urgency)</text></g><!--class AgendaEntry--><g id="elem_AgendaEntry"><rect codeLine="41" fill="#F1F1F1" height="103.8633" id="AgendaEntry" rx="2.5" ry="2.5" style="stroke:#181818;stroke-width:0.5;" width="158" x="1255.5" y="25.5"/><ellipse cx="1290.3" cy="41.5" fill="#ADD1B2" rx="11" ry="11" style="stroke:#181818;stroke-width:1.0;"/><path d="M1293.0656,37.375 Q1293.2219,37.1563 1293.4094,37.0469 Q1293.5969,36.9375 1293.8156,36.9375 Q1294.1906,36.9375 1294.425,37.2031 Q1294.6594,37.4531 1294.6594,38.0625 L1294.6594,39.5156 Q1294.6594,40.125 1294.425,40.3906 Q1294.1906,40.6563 1293.8156,40.6563 Q1293.4719,40.6563 1293.2688,40.4531 Q1293.0656,40.2656 1292.9563,39.75 Q1292.9094,39.3906 1292.7219,39.2031 Q1292.3938,38.8281 1291.7844,38.6094 Q1291.175,38.3906 1290.55,38.3906 Q1289.7844,38.3906 1289.1438,38.7188 Q1288.5188,39.0469 1288.0188,39.7969 Q1287.5344,40.5469 1287.5344,41.5781 L1287.5344,42.6719 Q1287.5344,43.9063 1288.425,44.7344 Q1289.3156,45.5469 1290.9094,45.5469 Q1291.8469,45.5469 1292.5031,45.2969 Q1292.8938,45.1406 1293.3156,44.7031 Q1293.5813,44.4375 1293.7219,44.3594 Q1293.8781,44.2813 1294.0813,44.2813 Q1294.4094,44.2813 1294.6594,44.5469 Q1294.925,44.7969 1294.925,45.1406 Q1294.925,45.4844 1294.5813,45.8906 Q1294.0813,46.4688 1293.2844,46.7969 Q1292.2063,47.25 1290.9094,47.25 Q1289.3938,47.25 1288.1906,46.625 Q1287.2063,46.125 1286.5188,45.0625 Q1285.8313,43.9844 1285.8313,42.7031 L1285.8313,41.5469 Q1285.8313,40.2188 1286.4406,39.0781 Q1287.0656,37.9219 1288.1594,37.3125 Q1289.2531,36.6875 1290.4875,36.6875 Q1291.2219,36.6875 1291.8625,36.8594 Q1292.5188,37.0156 1293.0656,37.375 Z " fill="#000000"/><text fill="#000000" font-family="sans-serif" font-size="14" lengthAdjust="spacing" textLength="82" x="1308.7" y="47.2969">AgendaEntry</text><line style="stroke:#181818;stroke-width:0.5;" x1="1256.5" x2="1412.5" y1="57.5" y2="57.5"/><text fill="#000000" font-family="sans-serif" font-size="14" lengthAdjust="spacing" textLength="66" x="1261.5" y="76.6074">-Task task</text><text fill="#000000" font-family="sans-serif" font-size="14" lengthAdjust="spacing" textLength="123" x="1261.5" y="95.2285">-String startingDate</text><line style="stroke:#181818;stroke-width:0.5;" x1="1256.5" x2="1412.5" y1="102.7422" y2="102.7422"/><text fill="#000000" font-family="sans-serif" font-size="14" lengthAdjust="spacing" textLength="146" x="1261.5" y="121.8496">+validateStartingDate()</text></g><!--class Agenda--><g id="elem_Agenda"><rect codeLine="48" fill="#F1F1F1" height="141.1055" id="Agenda" rx="2.5" ry="2.5" style="stroke:#181818;stroke-width:0.5;" width="244" x="908.5" y="273.5"/><ellipse cx="1001.75" cy="289.5" fill="#ADD1B2" rx="11" ry="11" style="stroke:#181818;stroke-width:1.0;"/><path d="M1004.5156,285.375 Q1004.6719,285.1563 1004.8594,285.0469 Q1005.0469,284.9375 1005.2656,284.9375 Q1005.6406,284.9375 1005.875,285.2031 Q1006.1094,285.4531 1006.1094,286.0625 L1006.1094,287.5156 Q1006.1094,288.125 1005.875,288.3906 Q1005.6406,288.6563 1005.2656,288.6563 Q1004.9219,288.6563 1004.7188,288.4531 Q1004.5156,288.2656 1004.4063,287.75 Q1004.3594,287.3906 1004.1719,287.2031 Q1003.8438,286.8281 1003.2344,286.6094 Q1002.625,286.3906 1002,286.3906 Q1001.2344,286.3906 1000.5938,286.7188 Q999.9688,287.0469 999.4688,287.7969 Q998.9844,288.5469 998.9844,289.5781 L998.9844,290.6719 Q998.9844,291.9063 999.875,292.7344 Q1000.7656,293.5469 1002.3594,293.5469 Q1003.2969,293.5469 1003.9531,293.2969 Q1004.3438,293.1406 1004.7656,292.7031 Q1005.0313,292.4375 1005.1719,292.3594 Q1005.3281,292.2813 1005.5313,292.2813 Q1005.8594,292.2813 1006.1094,292.5469 Q1006.375,292.7969 1006.375,293.1406 Q1006.375,293.4844 1006.0313,293.8906 Q1005.5313,294.4688 1004.7344,294.7969 Q1003.6563,295.25 1002.3594,295.25 Q1000.8438,295.25 999.6406,294.625 Q998.6563,294.125 997.9688,293.0625 Q997.2813,291.9844 997.2813,290.7031 L997.2813,289.5469 Q997.2813,288.2188 997.8906,287.0781 Q998.5156,285.9219 999.6094,285.3125 Q1000.7031,284.6875 1001.9375,284.6875 Q1002.6719,284.6875 1003.3125,284.8594 Q1003.9688,285.0156 1004.5156,285.375 Z " fill="#000000"/><text fill="#000000" font-family="sans-serif" font-size="14" lengthAdjust="spacing" textLength="49" x="1022.25" y="295.2969">Agenda</text><line style="stroke:#181818;stroke-width:0.5;" x1="909.5" x2="1151.5" y1="305.5" y2="305.5"/><text fill="#000000" font-family="sans-serif" font-size="14" lengthAdjust="spacing" textLength="232" x="914.5" y="324.6074">-List&lt;AgendaEntry&gt; agendaEntryList</text><line style="stroke:#181818;stroke-width:0.5;" x1="909.5" x2="1151.5" y1="332.1211" y2="332.1211"/><text fill="#000000" font-family="sans-serif" font-size="14" lengthAdjust="spacing" textLength="148" x="914.5" y="351.2285">+registerAgendaEntry()</text><text fill="#000000" font-family="sans-serif" font-size="14" lengthAdjust="spacing" textLength="42" x="914.5" y="369.8496">+add()</text><text fill="#000000" font-family="sans-serif" font-size="14" lengthAdjust="spacing" textLength="149" x="914.5" y="388.4707">+validateAgendaEntry()</text><text fill="#000000" font-family="sans-serif" font-size="14" lengthAdjust="spacing" textLength="131" x="914.5" y="407.0918">+getAgendaEntries()</text></g><!--class AgendaEntryController--><g id="elem_AgendaEntryController"><rect codeLine="57" fill="#F1F1F1" height="141.1055" id="AgendaEntryController" rx="2.5" ry="2.5" style="stroke:#181818;stroke-width:0.5;" width="339" x="1449" y="7"/><ellipse cx="1542.25" cy="23" fill="#ADD1B2" rx="11" ry="11" style="stroke:#181818;stroke-width:1.0;"/><path d="M1545.0156,18.875 Q1545.1719,18.6563 1545.3594,18.5469 Q1545.5469,18.4375 1545.7656,18.4375 Q1546.1406,18.4375 1546.375,18.7031 Q1546.6094,18.9531 1546.6094,19.5625 L1546.6094,21.0156 Q1546.6094,21.625 1546.375,21.8906 Q1546.1406,22.1563 1545.7656,22.1563 Q1545.4219,22.1563 1545.2188,21.9531 Q1545.0156,21.7656 1544.9063,21.25 Q1544.8594,20.8906 1544.6719,20.7031 Q1544.3438,20.3281 1543.7344,20.1094 Q1543.125,19.8906 1542.5,19.8906 Q1541.7344,19.8906 1541.0938,20.2188 Q1540.4688,20.5469 1539.9688,21.2969 Q1539.4844,22.0469 1539.4844,23.0781 L1539.4844,24.1719 Q1539.4844,25.4063 1540.375,26.2344 Q1541.2656,27.0469 1542.8594,27.0469 Q1543.7969,27.0469 1544.4531,26.7969 Q1544.8438,26.6406 1545.2656,26.2031 Q1545.5313,25.9375 1545.6719,25.8594 Q1545.8281,25.7813 1546.0313,25.7813 Q1546.3594,25.7813 1546.6094,26.0469 Q1546.875,26.2969 1546.875,26.6406 Q1546.875,26.9844 1546.5313,27.3906 Q1546.0313,27.9688 1545.2344,28.2969 Q1544.1563,28.75 1542.8594,28.75 Q1541.3438,28.75 1540.1406,28.125 Q1539.1563,27.625 1538.4688,26.5625 Q1537.7813,25.4844 1537.7813,24.2031 L1537.7813,23.0469 Q1537.7813,21.7188 1538.3906,20.5781 Q1539.0156,19.4219 1540.1094,18.8125 Q1541.2031,18.1875 1542.4375,18.1875 Q1543.1719,18.1875 1543.8125,18.3594 Q1544.4688,18.5156 1545.0156,18.875 Z " fill="#000000"/><text fill="#000000" font-family="sans-serif" font-size="14" lengthAdjust="spacing" textLength="144" x="1562.75" y="28.7969">AgendaEntryController</text><line style="stroke:#181818;stroke-width:0.5;" x1="1450" x2="1787" y1="39" y2="39"/><text fill="#000000" font-family="sans-serif" font-size="14" lengthAdjust="spacing" textLength="118" x="1455" y="58.1074">-ToDoList toDoList</text><text fill="#000000" font-family="sans-serif" font-size="14" lengthAdjust="spacing" textLength="106" x="1455" y="76.7285">-Agenda agenda</text><line style="stroke:#181818;stroke-width:0.5;" x1="1450" x2="1787" y1="84.2422" y2="84.2422"/><text fill="#000000" font-family="sans-serif" font-size="14" lengthAdjust="spacing" textLength="79" x="1455" y="103.3496">getAgenda()</text><text fill="#000000" font-family="sans-serif" font-size="14" lengthAdjust="spacing" textLength="87" x="1455" y="121.9707">getToDoList()</text><text fill="#000000" font-family="sans-serif" font-size="14" lengthAdjust="spacing" textLength="327" x="1455" y="140.5918">registerAgendaEntry(String startingDate, Task task)</text></g><!--class AgendaEntryUI--><g id="elem_AgendaEntryUI"><rect codeLine="65" fill="#F1F1F1" height="141.1055" id="AgendaEntryUI" rx="2.5" ry="2.5" style="stroke:#181818;stroke-width:0.5;" width="242" x="1213.5" y="273.5"/><ellipse cx="1283.25" cy="289.5" fill="#ADD1B2" rx="11" ry="11" style="stroke:#181818;stroke-width:1.0;"/><path d="M1286.0156,285.375 Q1286.1719,285.1563 1286.3594,285.0469 Q1286.5469,284.9375 1286.7656,284.9375 Q1287.1406,284.9375 1287.375,285.2031 Q1287.6094,285.4531 1287.6094,286.0625 L1287.6094,287.5156 Q1287.6094,288.125 1287.375,288.3906 Q1287.1406,288.6563 1286.7656,288.6563 Q1286.4219,288.6563 1286.2188,288.4531 Q1286.0156,288.2656 1285.9063,287.75 Q1285.8594,287.3906 1285.6719,287.2031 Q1285.3438,286.8281 1284.7344,286.6094 Q1284.125,286.3906 1283.5,286.3906 Q1282.7344,286.3906 1282.0938,286.7188 Q1281.4688,287.0469 1280.9688,287.7969 Q1280.4844,288.5469 1280.4844,289.5781 L1280.4844,290.6719 Q1280.4844,291.9063 1281.375,292.7344 Q1282.2656,293.5469 1283.8594,293.5469 Q1284.7969,293.5469 1285.4531,293.2969 Q1285.8438,293.1406 1286.2656,292.7031 Q1286.5313,292.4375 1286.6719,292.3594 Q1286.8281,292.2813 1287.0313,292.2813 Q1287.3594,292.2813 1287.6094,292.5469 Q1287.875,292.7969 1287.875,293.1406 Q1287.875,293.4844 1287.5313,293.8906 Q1287.0313,294.4688 1286.2344,294.7969 Q1285.1563,295.25 1283.8594,295.25 Q1282.3438,295.25 1281.1406,294.625 Q1280.1563,294.125 1279.4688,293.0625 Q1278.7813,291.9844 1278.7813,290.7031 L1278.7813,289.5469 Q1278.7813,288.2188 1279.3906,287.0781 Q1280.0156,285.9219 1281.1094,285.3125 Q1282.2031,284.6875 1283.4375,284.6875 Q1284.1719,284.6875 1284.8125,284.8594 Q1285.4688,285.0156 1286.0156,285.375 Z " fill="#000000"/><text fill="#000000" font-family="sans-serif" font-size="14" lengthAdjust="spacing" textLength="94" x="1303.75" y="295.2969">AgendaEntryUI</text><line style="stroke:#181818;stroke-width:0.5;" x1="1214.5" x2="1454.5" y1="305.5" y2="305.5"/><text fill="#000000" font-family="sans-serif" font-size="14" lengthAdjust="spacing" textLength="118" x="1219.5" y="324.6074">-ToDoList toDoList</text><text fill="#000000" font-family="sans-serif" font-size="14" lengthAdjust="spacing" textLength="230" x="1219.5" y="343.2285">-AgendaController agendaController</text><line style="stroke:#181818;stroke-width:0.5;" x1="1214.5" x2="1454.5" y1="350.7422" y2="350.7422"/><text fill="#000000" font-family="sans-serif" font-size="14" lengthAdjust="spacing" textLength="95" x="1219.5" y="369.8496">+getToDoList()</text><text fill="#000000" font-family="sans-serif" font-size="14" lengthAdjust="spacing" textLength="228" x="1219.5" y="388.4707">+getTaskByName (String taskName)</text><text fill="#000000" font-family="sans-serif" font-size="14" lengthAdjust="spacing" textLength="92" x="1219.5" y="407.0918">+listToDoList()</text></g><!--link Repositories to Repositories--><g id="link_Repositories_Repositories"><path codeLine="73" d="M1103.55,57.63 C1123.9,59.76 1138.5,66.38 1138.5,77.5 C1138.5,88.62 1129.8674,94.6154 1109.5174,96.7454 " fill="none" id="Repositories-to-Repositories" style="stroke:#181818;stroke-width:1.0;"/><polygon fill="#181818" points="1103.55,97.37,1112.9175,100.4114,1108.5228,96.8495,1112.0847,92.4548,1103.55,97.37" style="stroke:#181818;stroke-width:1.0;"/><text fill="#000000" font-family="sans-serif" font-size="13" lengthAdjust="spacing" textLength="49" x="1144.5" y="83.0283">instance</text></g><!--link ToDoList to Task--><g id="link_ToDoList_Task"><path codeLine="75" d="M398.27,344 C418.44,344 432.99,344 453.28,344 " fill="none" id="ToDoList-to-Task" style="stroke:#181818;stroke-width:1.0;"/><polygon fill="#181818" points="459.28,344,450.28,340,454.28,344,450.28,348,459.28,344" style="stroke:#181818;stroke-width:1.0;"/><text fill="#000000" font-family="sans-serif" font-size="13" lengthAdjust="spacing" textLength="25" x="416.25" y="337.0283">task</text><text fill="#000000" font-family="sans-serif" font-size="13" lengthAdjust="spacing" textLength="7" x="406.054" y="340.7073">1</text><text fill="#000000" font-family="sans-serif" font-size="13" lengthAdjust="spacing" textLength="5" x="446.7432" y="340.7243">*</text></g><!--link Repositories to ToDoList--><g id="link_Repositories_ToDoList"><path codeLine="77" d="M905.47,104.62 C743.92,147.23 441.5,227 441.5,227 C441.5,227 413.1182,240.7809 370.9482,261.2409 " fill="none" id="Repositories-to-ToDoList" style="stroke:#181818;stroke-width:1.0;"/><polygon fill="#181818" points="365.55,263.86,375.3933,263.5302,370.0485,261.6774,371.9012,256.3326,365.55,263.86" style="stroke:#181818;stroke-width:1.0;"/><text fill="#000000" font-family="sans-serif" font-size="13" lengthAdjust="spacing" textLength="48" x="625.5" y="193.0283">toDoList</text><text fill="#000000" font-family="sans-serif" font-size="13" lengthAdjust="spacing" textLength="7" x="373.2585" y="252.7428">1</text></g><!--link Repositories to Agenda--><g id="link_Repositories_Agenda"><path codeLine="79" d="M1010.4,138.52 C1014.34,178.61 1018.9533,225.4888 1023.0733,267.4188 " fill="none" id="Repositories-to-Agenda" style="stroke:#181818;stroke-width:1.0;"/><polygon fill="#181818" points="1023.66,273.39,1026.7607,264.042,1023.1711,268.414,1018.7991,264.8243,1023.66,273.39" style="stroke:#181818;stroke-width:1.0;"/><text fill="#000000" font-family="sans-serif" font-size="13" lengthAdjust="spacing" textLength="42" x="1017.5" y="193.0283">agenda</text><text fill="#000000" font-family="sans-serif" font-size="13" lengthAdjust="spacing" textLength="7" x="1015.5937" y="262.2697">1</text></g><!--SRC=[XLHDYzim4BthLmo-n6uIw5v32MoRKW9b3ytk3r3jMKT4aOoajBXB_dj7jcnPnkpwu8ytJ-_DZ4TQsOjG3JVy2bUjT7as-ehWp0rPZ3IylF0QJwwL20PBnrKjfmHxvfN-ArGDhrpQQKGAXQvj41ejM__1LWj1RPncarMbvDO-EcV4xvl3OwdLIVn3-CpOIkAh0wV1YFhie18-7Q4LwvR0Bsoq5KuRWHRU6D2rJS2ywC0rrEYEob8b9UO5x19IfFmmYEf4zUCORwSIp_gWVmhh2Bk750OekFlNBy_SNlOk1FhLlAfoHt0GyrhqzRLzubVC5Tr2u0-Nek8Eloj7rhCLqNtGz2Av4qxY1YgqfH6DRyy6RgP6LRQ4tWpleLXSl_xEs503gOJyJ_GJwB_wZ19W8fxWmIVb1iiUZBPGZwzz0RwWlb3lzt45zQo2j5lljl8GfVE9pI8r-EM3yHBffSyk3raMrClxqCv7WYhUqTxOrZSN_8zaGtze38sZbmE9iL7sD46x-KhbI0cwuPgexu77ZsxMrWPhUgAPi4Yi6xyYUisYD5iHwNVDtBxZVjDqrrAYyNM5QOHnqBSzDIJ5HbMIIwTtASc5tcnWx5snsDsNutjvn6n3HX5Wi-sKxaSOal7EJzr0hIKHaztFahDdkq_FeXs8SDemDYQOFMJ4opvbNLcxVYXcEfxma8rBTh6gHMBe-6xekR_-0m00]--></g></svg>