<?xml version="1.0" encoding="us-ascii" standalone="no"?><svg xmlns="http://www.w3.org/2000/svg" xmlns:xlink="http://www.w3.org/1999/xlink" contentStyleType="text/css" height="1304px" preserveAspectRatio="none" style="width:1697px;height:1304px;background:#FFFFFF;" version="1.1" viewBox="0 0 1697 1304" width="1697px" zoomAndPan="magnify"><defs/><g><rect fill="#FFFFFF" height="1109.8848" style="stroke:#181818;stroke-width:1.0;" width="10" x="92.5" y="93.6211"/><rect fill="#FFFFFF" height="101.2031" style="stroke:#181818;stroke-width:1.0;" width="10" x="577.5" y="116.9121"/><rect fill="#FFFFFF" height="281.6191" style="stroke:#181818;stroke-width:1.0;" width="10" x="577.5" y="249.4063"/><rect fill="#FFFFFF" height="31.291" style="stroke:#181818;stroke-width:1.0;" width="10" x="577.5" y="562.3164"/><rect fill="#FFFFFF" height="578.6074" style="stroke:#181818;stroke-width:1.0;" width="10" x="577.5" y="624.8984"/><rect fill="#FFFFFF" height="219.0371" style="stroke:#181818;stroke-width:1.0;" width="10" x="798.5" y="280.6973"/><rect fill="#FFFFFF" height="465.4434" style="stroke:#181818;stroke-width:1.0;" width="10" x="798.5" y="689.4805"/><rect fill="#FFFFFF" height="31.291" style="stroke:#181818;stroke-width:1.0;" width="10" x="938" y="311.9883"/><rect fill="#FFFFFF" height="31.291" style="stroke:#181818;stroke-width:1.0;" width="10" x="938" y="720.7715"/><rect fill="#FFFFFF" height="31.291" style="stroke:#181818;stroke-width:1.0;" width="10" x="1045" y="783.3535"/><rect fill="#FFFFFF" height="31.291" style="stroke:#181818;stroke-width:1.0;" width="10" x="1139" y="374.5703"/><rect fill="#FFFFFF" height="31.291" style="stroke:#181818;stroke-width:1.0;" width="10" x="1433.5" y="437.1523"/><rect fill="#FFFFFF" height="270.6973" style="stroke:#181818;stroke-width:1.0;" width="10" x="1433.5" y="845.9355"/><rect fill="#FFFFFF" height="130.873" style="stroke:#181818;stroke-width:1.0;" width="10" x="1438.5" y="947.4688"/><rect fill="#FFFFFF" height="42.291" style="stroke:#181818;stroke-width:1.0;" width="10" x="1443.5" y="991.7598"/><rect fill="none" height="457.3652" style="stroke:#000000;stroke-width:1.5;" width="1472" x="10" y="175.5332"/><rect fill="none" height="477.7344" style="stroke:#000000;stroke-width:1.5;" width="1175" x="516.5" y="646.8984"/><line style="stroke:#181818;stroke-width:0.5;stroke-dasharray:5.0,5.0;" x1="97" x2="97" y1="83.6211" y2="1221.5059"/><line style="stroke:#181818;stroke-width:0.5;stroke-dasharray:5.0,5.0;" x1="582.5" x2="582.5" y1="83.6211" y2="1221.5059"/><line style="stroke:#181818;stroke-width:0.5;stroke-dasharray:5.0,5.0;" x1="803.5" x2="803.5" y1="156.7227" y2="1221.5059"/><line style="stroke:#181818;stroke-width:0.5;stroke-dasharray:5.0,5.0;" x1="942.5" x2="942.5" y1="83.6211" y2="1221.5059"/><line style="stroke:#181818;stroke-width:0.5;stroke-dasharray:5.0,5.0;" x1="1049.5" x2="1049.5" y1="83.6211" y2="1221.5059"/><line style="stroke:#181818;stroke-width:0.5;stroke-dasharray:5.0,5.0;" x1="1143.5" x2="1143.5" y1="83.6211" y2="1221.5059"/><line style="stroke:#181818;stroke-width:0.5;stroke-dasharray:5.0,5.0;" x1="1239.5" x2="1239.5" y1="895.0566" y2="1221.5059"/><line style="stroke:#181818;stroke-width:0.5;stroke-dasharray:5.0,5.0;" x1="1438" x2="1438" y1="83.6211" y2="1221.5059"/><text fill="#000000" font-family="sans-serif" font-size="14" lengthAdjust="spacing" textLength="149" x="20" y="80.1074">Green spaces manager</text><ellipse cx="97.5" cy="13.5" fill="#E3E3E3" rx="8" ry="8" style="stroke:#181818;stroke-width:0.5;"/><path d="M97.5,21.5 L97.5,48.5 M84.5,29.5 L110.5,29.5 M97.5,48.5 L84.5,63.5 M97.5,48.5 L110.5,63.5 " fill="none" style="stroke:#181818;stroke-width:0.5;"/><text fill="#000000" font-family="sans-serif" font-size="14" lengthAdjust="spacing" textLength="149" x="20" y="1235.6133">Green spaces manager</text><ellipse cx="97.5" cy="1247.627" fill="#E3E3E3" rx="8" ry="8" style="stroke:#181818;stroke-width:0.5;"/><path d="M97.5,1255.627 L97.5,1282.627 M84.5,1263.627 L110.5,1263.627 M97.5,1282.627 L84.5,1297.627 M97.5,1282.627 L110.5,1297.627 " fill="none" style="stroke:#181818;stroke-width:0.5;"/><rect fill="#E3E3E3" height="32.6211" rx="2.5" ry="2.5" style="stroke:#181818;stroke-width:0.5;" width="112" x="526.5" y="50"/><text fill="#000000" font-family="sans-serif" font-size="14" lengthAdjust="spacing" textLength="98" x="533.5" y="72.1074">:AgendaEntryUI</text><rect fill="#E3E3E3" height="32.6211" rx="2.5" ry="2.5" style="stroke:#181818;stroke-width:0.5;" width="112" x="526.5" y="1220.5059"/><text fill="#000000" font-family="sans-serif" font-size="14" lengthAdjust="spacing" textLength="98" x="533.5" y="1242.6133">:AgendaEntryUI</text><rect fill="#E3E3E3" height="32.6211" rx="2.5" ry="2.5" style="stroke:#181818;stroke-width:0.5;" width="162" x="722.5" y="1220.5059"/><text fill="#000000" font-family="sans-serif" font-size="14" lengthAdjust="spacing" textLength="148" x="729.5" y="1242.6133">:AgendaEntryController</text><rect fill="#E3E3E3" height="32.6211" rx="2.5" ry="2.5" style="stroke:#181818;stroke-width:0.5;" width="97" x="894.5" y="50"/><text fill="#000000" font-family="sans-serif" font-size="14" lengthAdjust="spacing" textLength="83" x="901.5" y="72.1074">:Repositories</text><rect fill="#E3E3E3" height="32.6211" rx="2.5" ry="2.5" style="stroke:#181818;stroke-width:0.5;" width="97" x="894.5" y="1220.5059"/><text fill="#000000" font-family="sans-serif" font-size="14" lengthAdjust="spacing" textLength="83" x="901.5" y="1242.6133">:Repositories</text><rect fill="#E3E3E3" height="51.2422" rx="2.5" ry="2.5" style="stroke:#181818;stroke-width:0.5;" width="97" x="1001.5" y="31.3789"/><text fill="#000000" font-family="sans-serif" font-size="14" lengthAdjust="spacing" textLength="74" x="1013" y="53.4863">repositories</text><text fill="#000000" font-family="sans-serif" font-size="14" lengthAdjust="spacing" textLength="83" x="1008.5" y="72.1074">:Repositories</text><rect fill="#E3E3E3" height="51.2422" rx="2.5" ry="2.5" style="stroke:#181818;stroke-width:0.5;" width="97" x="1001.5" y="1220.5059"/><text fill="#000000" font-family="sans-serif" font-size="14" lengthAdjust="spacing" textLength="74" x="1013" y="1242.6133">repositories</text><text fill="#000000" font-family="sans-serif" font-size="14" lengthAdjust="spacing" textLength="83" x="1008.5" y="1261.2344">:Repositories</text><rect fill="#E3E3E3" height="51.2422" rx="2.5" ry="2.5" style="stroke:#181818;stroke-width:0.5;" width="71" x="1108.5" y="31.3789"/><text fill="#000000" font-family="sans-serif" font-size="14" lengthAdjust="spacing" textLength="56" x="1116" y="53.4863">toDoList:</text><text fill="#000000" font-family="sans-serif" font-size="14" lengthAdjust="spacing" textLength="57" x="1115.5" y="72.1074">ToDoList</text><rect fill="#E3E3E3" height="51.2422" rx="2.5" ry="2.5" style="stroke:#181818;stroke-width:0.5;" width="71" x="1108.5" y="1220.5059"/><text fill="#000000" font-family="sans-serif" font-size="14" lengthAdjust="spacing" textLength="56" x="1116" y="1242.6133">toDoList:</text><text fill="#000000" font-family="sans-serif" font-size="14" lengthAdjust="spacing" textLength="57" x="1115.5" y="1261.2344">ToDoList</text><rect fill="#E3E3E3" height="51.2422" rx="2.5" ry="2.5" style="stroke:#181818;stroke-width:0.5;" width="100" x="1189.5" y="1220.5059"/><text fill="#000000" font-family="sans-serif" font-size="14" lengthAdjust="spacing" textLength="81" x="1199" y="1242.6133">agendaEntry</text><text fill="#000000" font-family="sans-serif" font-size="14" lengthAdjust="spacing" textLength="86" x="1196.5" y="1261.2344">:AgendaEntry</text><rect fill="#E3E3E3" height="51.2422" rx="2.5" ry="2.5" style="stroke:#181818;stroke-width:0.5;" width="67" x="1405" y="31.3789"/><text fill="#000000" font-family="sans-serif" font-size="14" lengthAdjust="spacing" textLength="48" x="1414.5" y="53.4863">agenda</text><text fill="#000000" font-family="sans-serif" font-size="14" lengthAdjust="spacing" textLength="53" x="1412" y="72.1074">:Agenda</text><rect fill="#E3E3E3" height="51.2422" rx="2.5" ry="2.5" style="stroke:#181818;stroke-width:0.5;" width="67" x="1405" y="1220.5059"/><text fill="#000000" font-family="sans-serif" font-size="14" lengthAdjust="spacing" textLength="48" x="1414.5" y="1242.6133">agenda</text><text fill="#000000" font-family="sans-serif" font-size="14" lengthAdjust="spacing" textLength="53" x="1412" y="1261.2344">:Agenda</text><rect fill="#FFFFFF" height="1109.8848" style="stroke:#181818;stroke-width:1.0;" width="10" x="92.5" y="93.6211"/><rect fill="#FFFFFF" height="101.2031" style="stroke:#181818;stroke-width:1.0;" width="10" x="577.5" y="116.9121"/><rect fill="#FFFFFF" height="281.6191" style="stroke:#181818;stroke-width:1.0;" width="10" x="577.5" y="249.4063"/><rect fill="#FFFFFF" height="31.291" style="stroke:#181818;stroke-width:1.0;" width="10" x="577.5" y="562.3164"/><rect fill="#FFFFFF" height="578.6074" style="stroke:#181818;stroke-width:1.0;" width="10" x="577.5" y="624.8984"/><rect fill="#FFFFFF" height="219.0371" style="stroke:#181818;stroke-width:1.0;" width="10" x="798.5" y="280.6973"/><rect fill="#FFFFFF" height="465.4434" style="stroke:#181818;stroke-width:1.0;" width="10" x="798.5" y="689.4805"/><rect fill="#FFFFFF" height="31.291" style="stroke:#181818;stroke-width:1.0;" width="10" x="938" y="311.9883"/><rect fill="#FFFFFF" height="31.291" style="stroke:#181818;stroke-width:1.0;" width="10" x="938" y="720.7715"/><rect fill="#FFFFFF" height="31.291" style="stroke:#181818;stroke-width:1.0;" width="10" x="1045" y="783.3535"/><rect fill="#FFFFFF" height="31.291" style="stroke:#181818;stroke-width:1.0;" width="10" x="1139" y="374.5703"/><rect fill="#FFFFFF" height="31.291" style="stroke:#181818;stroke-width:1.0;" width="10" x="1433.5" y="437.1523"/><rect fill="#FFFFFF" height="270.6973" style="stroke:#181818;stroke-width:1.0;" width="10" x="1433.5" y="845.9355"/><rect fill="#FFFFFF" height="130.873" style="stroke:#181818;stroke-width:1.0;" width="10" x="1438.5" y="947.4688"/><rect fill="#FFFFFF" height="42.291" style="stroke:#181818;stroke-width:1.0;" width="10" x="1443.5" y="991.7598"/><polygon fill="#181818" points="565.5,112.9121,575.5,116.9121,565.5,120.9121,569.5,116.9121" style="stroke:#181818;stroke-width:1.0;"/><line style="stroke:#181818;stroke-width:1.0;" x1="102.5" x2="571.5" y1="116.9121" y2="116.9121"/><text fill="#000000" font-family="sans-serif" font-size="13" font-weight="bold" lengthAdjust="spacing" textLength="7" x="109.5" y="111.6494">1</text><text fill="#000000" font-family="sans-serif" font-size="13" lengthAdjust="spacing" textLength="224" x="120.5" y="111.6494">asks to add a new entry to the Agenda</text><polygon fill="#181818" points="710.5,144.2031,720.5,148.2031,710.5,152.2031,714.5,148.2031" style="stroke:#181818;stroke-width:1.0;"/><line style="stroke:#181818;stroke-width:1.0;" x1="587.5" x2="716.5" y1="148.2031" y2="148.2031"/><text fill="#000000" font-family="sans-serif" font-size="13" font-weight="bold" lengthAdjust="spacing" textLength="7" x="594.5" y="142.9404">2</text><text fill="#000000" font-family="sans-serif" font-size="13" lengthAdjust="spacing" textLength="36" x="605.5" y="142.9404">create</text><rect fill="#E3E3E3" height="32.6211" rx="2.5" ry="2.5" style="stroke:#181818;stroke-width:0.5;" width="162" x="722.5" y="124.9121"/><text fill="#000000" font-family="sans-serif" font-size="14" lengthAdjust="spacing" textLength="148" x="729.5" y="147.0195">:AgendaEntryController</text><path d="M10,175.5332 L83,175.5332 L83,184.8242 L73,194.8242 L10,194.8242 L10,175.5332 " fill="#EEEEEE" style="stroke:#000000;stroke-width:1.5;"/><rect fill="none" height="457.3652" style="stroke:#000000;stroke-width:1.5;" width="1472" x="10" y="175.5332"/><text fill="#000000" font-family="sans-serif" font-size="13" font-weight="bold" lengthAdjust="spacing" textLength="28" x="25" y="190.5615">loop</text><text fill="#000000" font-family="sans-serif" font-size="11" font-weight="bold" lengthAdjust="spacing" textLength="96" x="98" y="189.4033">[while flag==true]</text><polygon fill="#181818" points="113.5,214.1152,103.5,218.1152,113.5,222.1152,109.5,218.1152" style="stroke:#181818;stroke-width:1.0;"/><line style="stroke:#181818;stroke-width:1.0;stroke-dasharray:2.0,2.0;" x1="107.5" x2="581.5" y1="218.1152" y2="218.1152"/><text fill="#000000" font-family="sans-serif" font-size="13" font-weight="bold" lengthAdjust="spacing" textLength="7" x="119.5" y="212.8525">3</text><text fill="#000000" font-family="sans-serif" font-size="13" lengthAdjust="spacing" textLength="336" x="130.5" y="212.8525">requests the starting date for the  new entry in the Agenda</text><polygon fill="#181818" points="565.5,245.4063,575.5,249.4063,565.5,253.4063,569.5,249.4063" style="stroke:#181818;stroke-width:1.0;"/><line style="stroke:#181818;stroke-width:1.0;" x1="102.5" x2="571.5" y1="249.4063" y2="249.4063"/><text fill="#000000" font-family="sans-serif" font-size="13" font-weight="bold" lengthAdjust="spacing" textLength="7" x="109.5" y="244.1436">4</text><text fill="#000000" font-family="sans-serif" font-size="13" lengthAdjust="spacing" textLength="171" x="120.5" y="244.1436">types the required information</text><polygon fill="#181818" points="786.5,276.6973,796.5,280.6973,786.5,284.6973,790.5,280.6973" style="stroke:#181818;stroke-width:1.0;"/><line style="stroke:#181818;stroke-width:1.0;" x1="587.5" x2="792.5" y1="280.6973" y2="280.6973"/><text fill="#000000" font-family="sans-serif" font-size="13" font-weight="bold" lengthAdjust="spacing" textLength="7" x="594.5" y="275.4346">5</text><text fill="#000000" font-family="sans-serif" font-size="13" lengthAdjust="spacing" textLength="77" x="605.5" y="275.4346">getToDoList()</text><polygon fill="#181818" points="926,307.9883,936,311.9883,926,315.9883,930,311.9883" style="stroke:#181818;stroke-width:1.0;"/><line style="stroke:#181818;stroke-width:1.0;" x1="808.5" x2="932" y1="311.9883" y2="311.9883"/><text fill="#000000" font-family="sans-serif" font-size="13" font-weight="bold" lengthAdjust="spacing" textLength="7" x="815.5" y="306.7256">6</text><text fill="#000000" font-family="sans-serif" font-size="13" lengthAdjust="spacing" textLength="75" x="826.5" y="306.7256">getInstance()</text><polygon fill="#181818" points="819.5,339.2793,809.5,343.2793,819.5,347.2793,815.5,343.2793" style="stroke:#181818;stroke-width:1.0;"/><line style="stroke:#181818;stroke-width:1.0;" x1="813.5" x2="942" y1="343.2793" y2="343.2793"/><text fill="#000000" font-family="sans-serif" font-size="13" font-weight="bold" lengthAdjust="spacing" textLength="7" x="825.5" y="338.0166">7</text><text fill="#000000" font-family="sans-serif" font-size="13" lengthAdjust="spacing" textLength="67" x="836.5" y="338.0166">repositories</text><polygon fill="#181818" points="1127,370.5703,1137,374.5703,1127,378.5703,1131,374.5703" style="stroke:#181818;stroke-width:1.0;"/><line style="stroke:#181818;stroke-width:1.0;" x1="808.5" x2="1133" y1="374.5703" y2="374.5703"/><text fill="#000000" font-family="sans-serif" font-size="13" font-weight="bold" lengthAdjust="spacing" textLength="7" x="815.5" y="369.3076">8</text><text fill="#000000" font-family="sans-serif" font-size="13" lengthAdjust="spacing" textLength="77" x="826.5" y="369.3076">getToDoList()</text><polygon fill="#181818" points="819.5,401.8613,809.5,405.8613,819.5,409.8613,815.5,405.8613" style="stroke:#181818;stroke-width:1.0;"/><line style="stroke:#181818;stroke-width:1.0;stroke-dasharray:2.0,2.0;" x1="813.5" x2="1143" y1="405.8613" y2="405.8613"/><text fill="#000000" font-family="sans-serif" font-size="13" font-weight="bold" lengthAdjust="spacing" textLength="7" x="825.5" y="400.5986">9</text><text fill="#000000" font-family="sans-serif" font-size="13" lengthAdjust="spacing" textLength="48" x="836.5" y="400.5986">toDoList</text><polygon fill="#181818" points="1421.5,433.1523,1431.5,437.1523,1421.5,441.1523,1425.5,437.1523" style="stroke:#181818;stroke-width:1.0;"/><line style="stroke:#181818;stroke-width:1.0;" x1="808.5" x2="1427.5" y1="437.1523" y2="437.1523"/><text fill="#000000" font-family="sans-serif" font-size="13" font-weight="bold" lengthAdjust="spacing" textLength="14" x="815.5" y="431.8896">10</text><text fill="#000000" font-family="sans-serif" font-size="13" lengthAdjust="spacing" textLength="70" x="833.5" y="431.8896">getAgenda()</text><polygon fill="#181818" points="819.5,464.4434,809.5,468.4434,819.5,472.4434,815.5,468.4434" style="stroke:#181818;stroke-width:1.0;"/><line style="stroke:#181818;stroke-width:1.0;stroke-dasharray:2.0,2.0;" x1="813.5" x2="1437.5" y1="468.4434" y2="468.4434"/><text fill="#000000" font-family="sans-serif" font-size="13" font-weight="bold" lengthAdjust="spacing" textLength="14" x="825.5" y="463.1807">11</text><text fill="#000000" font-family="sans-serif" font-size="13" lengthAdjust="spacing" textLength="42" x="843.5" y="463.1807">agenda</text><polygon fill="#181818" points="598.5,495.7344,588.5,499.7344,598.5,503.7344,594.5,499.7344" style="stroke:#181818;stroke-width:1.0;"/><line style="stroke:#181818;stroke-width:1.0;stroke-dasharray:2.0,2.0;" x1="592.5" x2="802.5" y1="499.7344" y2="499.7344"/><text fill="#000000" font-family="sans-serif" font-size="13" font-weight="bold" lengthAdjust="spacing" textLength="14" x="604.5" y="494.4717">12</text><text fill="#000000" font-family="sans-serif" font-size="13" lengthAdjust="spacing" textLength="48" x="622.5" y="494.4717">toDoList</text><polygon fill="#181818" points="113.5,527.0254,103.5,531.0254,113.5,535.0254,109.5,531.0254" style="stroke:#181818;stroke-width:1.0;"/><line style="stroke:#181818;stroke-width:1.0;stroke-dasharray:2.0,2.0;" x1="107.5" x2="581.5" y1="531.0254" y2="531.0254"/><text fill="#000000" font-family="sans-serif" font-size="13" font-weight="bold" lengthAdjust="spacing" textLength="14" x="119.5" y="525.7627">13</text><text fill="#000000" font-family="sans-serif" font-size="13" lengthAdjust="spacing" textLength="433" x="137.5" y="525.7627">shows the list of tasks in the To-Do list and asks to select the desired task</text><polygon fill="#181818" points="565.5,558.3164,575.5,562.3164,565.5,566.3164,569.5,562.3164" style="stroke:#181818;stroke-width:1.0;"/><line style="stroke:#181818;stroke-width:1.0;" x1="102.5" x2="571.5" y1="562.3164" y2="562.3164"/><text fill="#000000" font-family="sans-serif" font-size="13" font-weight="bold" lengthAdjust="spacing" textLength="14" x="109.5" y="557.0537">14</text><text fill="#000000" font-family="sans-serif" font-size="13" lengthAdjust="spacing" textLength="181" x="127.5" y="557.0537">selects the required information</text><polygon fill="#181818" points="113.5,589.6074,103.5,593.6074,113.5,597.6074,109.5,593.6074" style="stroke:#181818;stroke-width:1.0;"/><line style="stroke:#181818;stroke-width:1.0;stroke-dasharray:2.0,2.0;" x1="107.5" x2="581.5" y1="593.6074" y2="593.6074"/><text fill="#000000" font-family="sans-serif" font-size="13" font-weight="bold" lengthAdjust="spacing" textLength="14" x="119.5" y="588.3447">15</text><text fill="#000000" font-family="sans-serif" font-size="13" lengthAdjust="spacing" textLength="214" x="137.5" y="588.3447">asks to continue adding more entries</text><polygon fill="#181818" points="565.5,620.8984,575.5,624.8984,565.5,628.8984,569.5,624.8984" style="stroke:#181818;stroke-width:1.0;"/><line style="stroke:#181818;stroke-width:1.0;" x1="102.5" x2="571.5" y1="624.8984" y2="624.8984"/><text fill="#000000" font-family="sans-serif" font-size="13" font-weight="bold" lengthAdjust="spacing" textLength="14" x="109.5" y="619.6357">16</text><text fill="#000000" font-family="sans-serif" font-size="13" lengthAdjust="spacing" textLength="127" x="127.5" y="619.6357">selects desired option</text><path d="M516.5,646.8984 L589.5,646.8984 L589.5,656.1895 L579.5,666.1895 L516.5,666.1895 L516.5,646.8984 " fill="#EEEEEE" style="stroke:#000000;stroke-width:1.5;"/><rect fill="none" height="477.7344" style="stroke:#000000;stroke-width:1.5;" width="1175" x="516.5" y="646.8984"/><text fill="#000000" font-family="sans-serif" font-size="13" font-weight="bold" lengthAdjust="spacing" textLength="28" x="531.5" y="661.9268">loop</text><text fill="#000000" font-family="sans-serif" font-size="11" font-weight="bold" lengthAdjust="spacing" textLength="212" x="604.5" y="660.7686">[for each agendaEntry : agendaEntries]</text><polygon fill="#181818" points="786.5,685.4805,796.5,689.4805,786.5,693.4805,790.5,689.4805" style="stroke:#181818;stroke-width:1.0;"/><line style="stroke:#181818;stroke-width:1.0;" x1="587.5" x2="792.5" y1="689.4805" y2="689.4805"/><text fill="#000000" font-family="sans-serif" font-size="13" font-weight="bold" lengthAdjust="spacing" textLength="14" x="594.5" y="684.2178">17</text><text fill="#000000" font-family="sans-serif" font-size="13" lengthAdjust="spacing" textLength="174" x="612.5" y="684.2178">addAgendaEntry(startingDate)</text><polygon fill="#181818" points="926,716.7715,936,720.7715,926,724.7715,930,720.7715" style="stroke:#181818;stroke-width:1.0;"/><line style="stroke:#181818;stroke-width:1.0;" x1="808.5" x2="932" y1="720.7715" y2="720.7715"/><text fill="#000000" font-family="sans-serif" font-size="13" font-weight="bold" lengthAdjust="spacing" textLength="14" x="815.5" y="715.5088">18</text><text fill="#000000" font-family="sans-serif" font-size="13" lengthAdjust="spacing" textLength="75" x="833.5" y="715.5088">getInstance()</text><polygon fill="#181818" points="819.5,748.0625,809.5,752.0625,819.5,756.0625,815.5,752.0625" style="stroke:#181818;stroke-width:1.0;"/><line style="stroke:#181818;stroke-width:1.0;" x1="813.5" x2="942" y1="752.0625" y2="752.0625"/><text fill="#000000" font-family="sans-serif" font-size="13" font-weight="bold" lengthAdjust="spacing" textLength="14" x="825.5" y="746.7998">19</text><text fill="#000000" font-family="sans-serif" font-size="13" lengthAdjust="spacing" textLength="67" x="843.5" y="746.7998">repositories</text><polygon fill="#181818" points="1033,779.3535,1043,783.3535,1033,787.3535,1037,783.3535" style="stroke:#181818;stroke-width:1.0;"/><line style="stroke:#181818;stroke-width:1.0;" x1="808.5" x2="1039" y1="783.3535" y2="783.3535"/><text fill="#000000" font-family="sans-serif" font-size="13" font-weight="bold" lengthAdjust="spacing" textLength="14" x="815.5" y="778.0908">20</text><text fill="#000000" font-family="sans-serif" font-size="13" lengthAdjust="spacing" textLength="70" x="833.5" y="778.0908">getAgenda()</text><polygon fill="#181818" points="819.5,810.6445,809.5,814.6445,819.5,818.6445,815.5,814.6445" style="stroke:#181818;stroke-width:1.0;"/><line style="stroke:#181818;stroke-width:1.0;stroke-dasharray:2.0,2.0;" x1="813.5" x2="1049" y1="814.6445" y2="814.6445"/><text fill="#000000" font-family="sans-serif" font-size="13" font-weight="bold" lengthAdjust="spacing" textLength="14" x="825.5" y="809.3818">21</text><text fill="#000000" font-family="sans-serif" font-size="13" lengthAdjust="spacing" textLength="44" x="843.5" y="809.3818">Agenda</text><polygon fill="#181818" points="1421.5,841.9355,1431.5,845.9355,1421.5,849.9355,1425.5,845.9355" style="stroke:#181818;stroke-width:1.0;"/><line style="stroke:#181818;stroke-width:1.0;" x1="808.5" x2="1427.5" y1="845.9355" y2="845.9355"/><text fill="#000000" font-family="sans-serif" font-size="13" font-weight="bold" lengthAdjust="spacing" textLength="14" x="815.5" y="840.6729">22</text><text fill="#000000" font-family="sans-serif" font-size="13" lengthAdjust="spacing" textLength="174" x="833.5" y="840.6729">addAgendaEntry(startingDate)</text><polygon fill="#181818" points="1300.5,873.2266,1290.5,877.2266,1300.5,881.2266,1296.5,877.2266" style="stroke:#181818;stroke-width:1.0;"/><line style="stroke:#181818;stroke-width:1.0;" x1="1294.5" x2="1432.5" y1="877.2266" y2="877.2266"/><text fill="#000000" font-family="sans-serif" font-size="13" font-weight="bold" lengthAdjust="spacing" textLength="14" x="1306.5" y="871.9639">23</text><text fill="#000000" font-family="sans-serif" font-size="13" lengthAdjust="spacing" textLength="102" x="1324.5" y="871.9639">add(agendaEntry)</text><rect fill="#E3E3E3" height="51.2422" rx="2.5" ry="2.5" style="stroke:#181818;stroke-width:0.5;" width="100" x="1189.5" y="853.9355"/><text fill="#000000" font-family="sans-serif" font-size="14" lengthAdjust="spacing" textLength="81" x="1199" y="876.043">agendaEntry</text><text fill="#000000" font-family="sans-serif" font-size="14" lengthAdjust="spacing" textLength="86" x="1196.5" y="894.6641">:AgendaEntry</text><line style="stroke:#181818;stroke-width:1.0;" x1="1443.5" x2="1490.5" y1="934.4688" y2="934.4688"/><line style="stroke:#181818;stroke-width:1.0;" x1="1490.5" x2="1490.5" y1="934.4688" y2="947.4688"/><line style="stroke:#181818;stroke-width:1.0;" x1="1449.5" x2="1490.5" y1="947.4688" y2="947.4688"/><polygon fill="#181818" points="1459.5,943.4688,1449.5,947.4688,1459.5,951.4688,1455.5,947.4688" style="stroke:#181818;stroke-width:1.0;"/><text fill="#000000" font-family="sans-serif" font-size="13" font-weight="bold" lengthAdjust="spacing" textLength="14" x="1455.5" y="929.2061">24</text><text fill="#000000" font-family="sans-serif" font-size="13" lengthAdjust="spacing" textLength="104" x="1473.5" y="929.2061">add(AgendaEntry)</text><line style="stroke:#181818;stroke-width:1.0;" x1="1448.5" x2="1495.5" y1="978.7598" y2="978.7598"/><line style="stroke:#181818;stroke-width:1.0;" x1="1495.5" x2="1495.5" y1="978.7598" y2="991.7598"/><line style="stroke:#181818;stroke-width:1.0;" x1="1454.5" x2="1495.5" y1="991.7598" y2="991.7598"/><polygon fill="#181818" points="1464.5,987.7598,1454.5,991.7598,1464.5,995.7598,1460.5,991.7598" style="stroke:#181818;stroke-width:1.0;"/><text fill="#000000" font-family="sans-serif" font-size="13" font-weight="bold" lengthAdjust="spacing" textLength="14" x="1460.5" y="973.4971">25</text><text fill="#000000" font-family="sans-serif" font-size="13" lengthAdjust="spacing" textLength="201" x="1478.5" y="973.4971">validateAgendaEntry(AgendaEntry)</text><line style="stroke:#181818;stroke-width:1.0;stroke-dasharray:2.0,2.0;" x1="1453.5" x2="1495.5" y1="1033.0508" y2="1033.0508"/><line style="stroke:#181818;stroke-width:1.0;stroke-dasharray:2.0,2.0;" x1="1495.5" x2="1495.5" y1="1033.0508" y2="1046.0508"/><line style="stroke:#181818;stroke-width:1.0;stroke-dasharray:2.0,2.0;" x1="1448.5" x2="1495.5" y1="1046.0508" y2="1046.0508"/><polygon fill="#181818" points="1458.5,1042.0508,1448.5,1046.0508,1458.5,1050.0508,1454.5,1046.0508" style="stroke:#181818;stroke-width:1.0;"/><text fill="#000000" font-family="sans-serif" font-size="13" font-weight="bold" lengthAdjust="spacing" textLength="14" x="1460.5" y="1027.7881">26</text><text fill="#000000" font-family="sans-serif" font-size="13" lengthAdjust="spacing" textLength="4" x="1478.5" y="1027.7881">&#160;</text><line style="stroke:#181818;stroke-width:1.0;stroke-dasharray:2.0,2.0;" x1="1448.5" x2="1490.5" y1="1077.3418" y2="1077.3418"/><line style="stroke:#181818;stroke-width:1.0;stroke-dasharray:2.0,2.0;" x1="1490.5" x2="1490.5" y1="1077.3418" y2="1090.3418"/><line style="stroke:#181818;stroke-width:1.0;stroke-dasharray:2.0,2.0;" x1="1443.5" x2="1490.5" y1="1090.3418" y2="1090.3418"/><polygon fill="#181818" points="1453.5,1086.3418,1443.5,1090.3418,1453.5,1094.3418,1449.5,1090.3418" style="stroke:#181818;stroke-width:1.0;"/><text fill="#000000" font-family="sans-serif" font-size="13" font-weight="bold" lengthAdjust="spacing" textLength="14" x="1455.5" y="1072.0791">27</text><text fill="#000000" font-family="sans-serif" font-size="13" lengthAdjust="spacing" textLength="4" x="1473.5" y="1072.0791">&#160;</text><polygon fill="#181818" points="819.5,1112.6328,809.5,1116.6328,819.5,1120.6328,815.5,1116.6328" style="stroke:#181818;stroke-width:1.0;"/><line style="stroke:#181818;stroke-width:1.0;stroke-dasharray:2.0,2.0;" x1="813.5" x2="1437.5" y1="1116.6328" y2="1116.6328"/><text fill="#000000" font-family="sans-serif" font-size="13" font-weight="bold" lengthAdjust="spacing" textLength="14" x="825.5" y="1111.3701">28</text><text fill="#000000" font-family="sans-serif" font-size="13" lengthAdjust="spacing" textLength="4" x="843.5" y="1111.3701">&#160;</text><polygon fill="#181818" points="598.5,1150.9238,588.5,1154.9238,598.5,1158.9238,594.5,1154.9238" style="stroke:#181818;stroke-width:1.0;"/><line style="stroke:#181818;stroke-width:1.0;stroke-dasharray:2.0,2.0;" x1="592.5" x2="802.5" y1="1154.9238" y2="1154.9238"/><text fill="#000000" font-family="sans-serif" font-size="13" font-weight="bold" lengthAdjust="spacing" textLength="14" x="604.5" y="1149.6611">29</text><text fill="#000000" font-family="sans-serif" font-size="13" lengthAdjust="spacing" textLength="42" x="622.5" y="1149.6611">agenda</text><polygon fill="#181818" points="108.5,1199.5059,98.5,1203.5059,108.5,1207.5059,104.5,1203.5059" style="stroke:#181818;stroke-width:1.0;"/><line style="stroke:#181818;stroke-width:1.0;stroke-dasharray:2.0,2.0;" x1="102.5" x2="581.5" y1="1203.5059" y2="1203.5059"/><text fill="#000000" font-family="sans-serif" font-size="13" font-weight="bold" lengthAdjust="spacing" textLength="14" x="114.5" y="1189.5977">30</text><text fill="#000000" font-family="sans-serif" font-size="13" lengthAdjust="spacing" textLength="229" x="132.5" y="1180.9521">shows operation success message and</text><text fill="#000000" font-family="sans-serif" font-size="13" lengthAdjust="spacing" textLength="248" x="136.5" y="1198.2432">displays the registered entry in the Agenda</text><!--SRC=[lLTDRzim3BtxLn2zh0sGFn2W1OgcA09qwz2cXm6zg3PZ2xKbprAQvT-FeYD5QPp6pehv4FY3V7oao2V5l4bLYqPKK6cbqwBH5O9jbfYOyAKMwPl8ySckIuG6KojKNiO6fX2PNacLmqAK1fD4BArMo-eLcoJvLiWCOQ6rVTL_4f5QtS3PNOEem10o6gY48lZc38I1kwVl2O5QcSfQA0jda-iSLIPkbMtMppEsUPuTDhdHzAlBSWDtCt-y_s3yYBKsabX8D6mJNgoVf4kCgE-wD977Yze7-7b_FT_ri7ggxwMnanSrtzoovVnX-h1hARRK2JfAXErlVymVVtKv15isQs-Jn5LNlWkBNCO4wA8R65zHoM12bcy6h0QHPI10uGhGHNAlR8411JPN0ADwXvS4H72khACHGQODaaMIb5hNi2eaDSYY5Fdb9RTGx4HUZik46kZt4eqr7DDObnirJkO2BQWrtDk8crITt3BSOnTdQjSrjW5SDDbWHa24NWahQNKxKzoI7L-v_2OvMhzuvnVxBjnQ_Yq_KVIENY8wX3HJbAfACK8wT8K8NOrvrBkBmMR5kFZRtZqA5HNv92eSasAxhc-hq57FerNWcJbgpZ76sqJz10v9aYFrIOh2j0t9IRMtGrBQTFCn-zRC9qNpsyyjogXd8CvfVFKyEwrkF0dTmsuAlMe7iIHGq0kmh4ARiPxhyLItduJAWa0PB6cNOOiC3O-lSqi-uH1hbBzYHMWXFz64WulrKVr2RfvjIbkEL4jqkkgahD8Didgv6UkhM9wVprVNUwnYVrhMy8srrqadHIWWsb1W4Zrz7FWWSuvsjE-SUqcUKgYBRWAx2tvexFz52qyJdY_GlbCrpoVjpWBGJnP283u_73HZn4ZPZinqbC3dk9woLxBURT1NtdevjRQkSdpM6OsOo7dKnHV3S3RfE93heI13TRChCBoBKhhJJ5pC_yh4K-dbD7op-C9G0sEnN9qQAlZ5qjcEG3WVTx0Qiitf6XlUJC0iK_fZG_ziw8TGtURseY2JfYx5scz2EMrxwBI-wwJRiML4Z-vu_nS0]--></g></svg>