<?xml version="1.0" encoding="UTF-8" standalone="no"?>
<!DOCTYPE svg PUBLIC "-//W3C//DTD SVG 1.1//EN"
 "http://www.w3.org/Graphics/SVG/1.1/DTD/svg11.dtd">
<!-- Generated by graphviz version 11.0.0 (20240428.1522)
 -->
<!-- Pages: 1 -->
<svg width="745pt" height="647pt"
 viewBox="0.00 0.00 745.30 647.31" xmlns="http://www.w3.org/2000/svg" xmlns:xlink="http://www.w3.org/1999/xlink">
<g id="graph0" class="graph" transform="scale(1 1) rotate(0) translate(4 643.31)">
<polygon fill="white" stroke="none" points="-4,4 -4,-643.31 741.3,-643.31 741.3,4 -4,4"/>
<text text-anchor="middle" x="368.65" y="-611.56" font-family="Arial" font-size="25.00">Escadas3 (total cost:18.0)</text>
<!-- AP -->
<g id="node1" class="node">
<title>AP</title>
<ellipse fill="none" stroke="black" cx="198.02" cy="-460.85" rx="27" ry="18"/>
<text text-anchor="middle" x="198.02" y="-455.42" font-family="Times New Roman,serif" font-size="14.00">AP</text>
</g>
<!-- Pavilhao -->
<g id="node2" class="node">
<title>Pavilhao</title>
<ellipse fill="none" stroke="black" cx="164.07" cy="-584.81" rx="42.08" ry="18"/>
<text text-anchor="middle" x="164.07" y="-579.38" font-family="Times New Roman,serif" font-size="14.00">Pavilhao</text>
</g>
<!-- AP&#45;&#45;Pavilhao -->
<g id="edge1" class="edge">
<title>AP&#45;&#45;Pavilhao</title>
<path fill="none" stroke="black" d="M188.13,-478.09C179.26,-501.36 168.02,-542.61 164.09,-566.45"/>
<text text-anchor="middle" x="170.13" y="-525.26" font-family="Arial" font-size="14.00">5</text>
</g>
<!-- Lago -->
<g id="node5" class="node">
<title>Lago</title>
<ellipse fill="none" stroke="black" cx="235.29" cy="-399.63" rx="29.61" ry="18"/>
<text text-anchor="middle" x="235.29" y="-394.2" font-family="Times New Roman,serif" font-size="14.00">Lago</text>
</g>
<!-- AP&#45;&#45;Lago -->
<g id="edge27" class="edge">
<title>AP&#45;&#45;Lago</title>
<path fill="none" stroke="black" d="M214.31,-446.04C220.4,-437.57 226.77,-426.92 231.08,-417.93"/>
<text text-anchor="middle" x="227.49" y="-435.38" font-family="Arial" font-size="14.00">9</text>
</g>
<!-- Topo -->
<g id="node6" class="node">
<title>Topo</title>
<ellipse fill="none" stroke="black" cx="376.99" cy="-444.35" rx="31.6" ry="18"/>
<text text-anchor="middle" x="376.99" y="-438.92" font-family="Times New Roman,serif" font-size="14.00">Topo</text>
</g>
<!-- AP&#45;&#45;Topo -->
<g id="edge19" class="edge">
<title>AP&#45;&#45;Topo</title>
<path fill="none" stroke="black" d="M224.88,-463.35C257.96,-462.63 313.93,-457.54 347.96,-452.21"/>
<text text-anchor="middle" x="281.94" y="-462.71" font-family="Arial" font-size="14.00">9</text>
</g>
<!-- Escadas1 -->
<g id="node8" class="node">
<title>Escadas1</title>
<ellipse fill="none" stroke="black" cx="137.14" cy="-295.41" rx="46.07" ry="18"/>
<text text-anchor="middle" x="137.14" y="-289.99" font-family="Times New Roman,serif" font-size="14.00">Escadas1</text>
</g>
<!-- AP&#45;&#45;Escadas1 -->
<g id="edge44" class="edge">
<title>AP&#45;&#45;Escadas1</title>
<path fill="none" stroke="red" stroke-width="4" d="M195.86,-442.6C187.51,-410.6 163.41,-344.88 148.51,-313.2"/>
<text text-anchor="middle" x="166.39" y="-364.48" font-family="Arial" font-size="14.00">10</text>
</g>
<!-- Biblioteca -->
<g id="node17" class="node">
<title>Biblioteca</title>
<ellipse fill="none" stroke="black" cx="91.96" cy="-568.37" rx="47.57" ry="18"/>
<text text-anchor="middle" x="91.96" y="-562.94" font-family="Times New Roman,serif" font-size="14.00">Biblioteca</text>
</g>
<!-- AP&#45;&#45;Biblioteca -->
<g id="edge26" class="edge">
<title>AP&#45;&#45;Biblioteca</title>
<path fill="none" stroke="black" d="M178.34,-473.66C156.01,-492.89 120.63,-528.86 102.78,-550.6"/>
<text text-anchor="middle" x="130.63" y="-514.39" font-family="Arial" font-size="14.00">10</text>
</g>
<!-- Teatro -->
<g id="node18" class="node">
<title>Teatro</title>
<ellipse fill="none" stroke="black" cx="284.94" cy="-569.79" rx="35.1" ry="18"/>
<text text-anchor="middle" x="284.94" y="-564.37" font-family="Times New Roman,serif" font-size="14.00">Teatro</text>
</g>
<!-- AP&#45;&#45;Teatro -->
<g id="edge30" class="edge">
<title>AP&#45;&#45;Teatro</title>
<path fill="none" stroke="black" d="M206,-478.53C219.65,-499.57 247.05,-534.16 265.8,-554.23"/>
<text text-anchor="middle" x="229.86" y="-519.94" font-family="Arial" font-size="14.00">7</text>
</g>
<!-- Pavilhao&#45;&#45;AP -->
<g id="edge40" class="edge">
<title>Pavilhao&#45;&#45;AP</title>
<path fill="none" stroke="black" d="M174.16,-567.04C183.02,-543.62 194.15,-502.68 198.02,-479.04"/>
<text text-anchor="middle" x="183.84" y="-526.32" font-family="Arial" font-size="14.00">5</text>
</g>
<!-- Pavilhao&#45;&#45;Lago -->
<g id="edge51" class="edge">
<title>Pavilhao&#45;&#45;Lago</title>
<path fill="none" stroke="black" d="M175.45,-567.23C192.52,-532.11 222.6,-453.68 232.62,-417.95"/>
<text text-anchor="middle" x="202.55" y="-496.02" font-family="Arial" font-size="14.00">6</text>
</g>
<!-- Macieirinha -->
<g id="node3" class="node">
<title>Macieirinha</title>
<ellipse fill="none" stroke="black" cx="684.24" cy="-480.98" rx="53.06" ry="18"/>
<text text-anchor="middle" x="684.24" y="-475.56" font-family="Times New Roman,serif" font-size="14.00">Macieirinha</text>
</g>
<!-- Fontaine -->
<g id="node4" class="node">
<title>Fontaine</title>
<ellipse fill="none" stroke="black" cx="626.45" cy="-346.06" rx="42.58" ry="18"/>
<text text-anchor="middle" x="626.45" y="-340.63" font-family="Times New Roman,serif" font-size="14.00">Fontaine</text>
</g>
<!-- Macieirinha&#45;&#45;Fontaine -->
<g id="edge2" class="edge">
<title>Macieirinha&#45;&#45;Fontaine</title>
<path fill="none" stroke="black" d="M681.39,-462.62C673.19,-436.49 652.96,-389.01 639.22,-363.43"/>
<text text-anchor="middle" x="654.13" y="-399.52" font-family="Arial" font-size="14.00">11</text>
</g>
<!-- ParqueInfantil -->
<g id="node12" class="node">
<title>ParqueInfantil</title>
<ellipse fill="none" stroke="black" cx="538.72" cy="-502.18" rx="62.04" ry="18"/>
<text text-anchor="middle" x="538.72" y="-496.76" font-family="Times New Roman,serif" font-size="14.00">ParqueInfantil</text>
</g>
<!-- Macieirinha&#45;&#45;ParqueInfantil -->
<g id="edge64" class="edge">
<title>Macieirinha&#45;&#45;ParqueInfantil</title>
<path fill="none" stroke="black" d="M631.18,-482.14C615.46,-484.04 598.42,-486.59 583.3,-489.31"/>
<text text-anchor="middle" x="615.27" y="-472.12" font-family="Arial" font-size="14.00">10</text>
</g>
<!-- Fontaine&#45;&#45;Macieirinha -->
<g id="edge61" class="edge">
<title>Fontaine&#45;&#45;Macieirinha</title>
<path fill="none" stroke="black" d="M629.3,-364.42C637.45,-390.41 657.5,-437.51 671.24,-463.18"/>
<text text-anchor="middle" x="639.93" y="-417.12" font-family="Arial" font-size="14.00">11</text>
</g>
<!-- Torreao -->
<g id="node11" class="node">
<title>Torreao</title>
<ellipse fill="none" stroke="black" cx="527.68" cy="-209.8" rx="40.58" ry="18"/>
<text text-anchor="middle" x="527.68" y="-204.38" font-family="Times New Roman,serif" font-size="14.00">Torreao</text>
</g>
<!-- Fontaine&#45;&#45;Torreao -->
<g id="edge37" class="edge">
<title>Fontaine&#45;&#45;Torreao</title>
<path fill="none" stroke="black" d="M618.93,-328.07C603.21,-301.46 567.68,-252.2 545.76,-226.4"/>
<text text-anchor="middle" x="576.42" y="-263.63" font-family="Arial" font-size="14.00">11</text>
</g>
<!-- Fontaine&#45;&#45;ParqueInfantil -->
<g id="edge13" class="edge">
<title>Fontaine&#45;&#45;ParqueInfantil</title>
<path fill="none" stroke="black" d="M611.47,-363.24C591.38,-393.03 557.37,-453.8 543.93,-484.16"/>
<text text-anchor="middle" x="571.08" y="-426.69" font-family="Arial" font-size="14.00">8</text>
</g>
<!-- Miradouro -->
<g id="node14" class="node">
<title>Miradouro</title>
<ellipse fill="none" stroke="black" cx="498.02" cy="-355.68" rx="50.07" ry="18"/>
<text text-anchor="middle" x="498.02" y="-350.26" font-family="Times New Roman,serif" font-size="14.00">Miradouro</text>
</g>
<!-- Fontaine&#45;&#45;Miradouro -->
<g id="edge58" class="edge">
<title>Fontaine&#45;&#45;Miradouro</title>
<path fill="none" stroke="black" d="M584.28,-342.83C570.33,-343.39 554.79,-344.53 540.8,-346.04"/>
<text text-anchor="middle" x="558.43" y="-347.28" font-family="Arial" font-size="14.00">8</text>
</g>
<!-- Lago&#45;&#45;AP -->
<g id="edge18" class="edge">
<title>Lago&#45;&#45;AP</title>
<path fill="none" stroke="black" d="M218.77,-414.75C212.71,-423.22 206.4,-433.8 202.14,-442.71"/>
<text text-anchor="middle" x="205.66" y="-415.27" font-family="Arial" font-size="14.00">9</text>
</g>
<!-- Lago&#45;&#45;Pavilhao -->
<g id="edge52" class="edge">
<title>Lago&#45;&#45;Pavilhao</title>
<path fill="none" stroke="black" d="M224.24,-416.54C207.21,-451.36 176.76,-530.7 166.71,-566.6"/>
<text text-anchor="middle" x="188.73" y="-494.36" font-family="Arial" font-size="14.00">6</text>
</g>
<!-- Lago&#45;&#45;Topo -->
<g id="edge3" class="edge">
<title>Lago&#45;&#45;Topo</title>
<path fill="none" stroke="black" d="M257.44,-412.06C281.21,-421.59 319.1,-433.69 345.85,-440.39"/>
<text text-anchor="middle" x="296.4" y="-430.49" font-family="Arial" font-size="14.00">5</text>
</g>
<!-- Lago&#45;&#45;Escadas1 -->
<g id="edge17" class="edge">
<title>Lago&#45;&#45;Escadas1</title>
<path fill="none" stroke="black" d="M225.54,-382.29C210.21,-362.55 180.61,-330.8 159.82,-311.56"/>
<text text-anchor="middle" x="190.6" y="-349.94" font-family="Arial" font-size="14.00">7</text>
</g>
<!-- Topo&#45;&#45;AP -->
<g id="edge59" class="edge">
<title>Topo&#45;&#45;AP</title>
<path fill="none" stroke="black" d="M345.33,-441.98C310.49,-443.09 255.18,-448.31 223.17,-453.61"/>
<text text-anchor="middle" x="279.06" y="-432.92" font-family="Arial" font-size="14.00">9</text>
</g>
<!-- Topo&#45;&#45;Lago -->
<g id="edge20" class="edge">
<title>Topo&#45;&#45;Lago</title>
<path fill="none" stroke="black" d="M353.89,-431.53C329.56,-421.86 291.22,-409.68 264.74,-403.16"/>
<text text-anchor="middle" x="306" y="-419.37" font-family="Arial" font-size="14.00">5</text>
</g>
<!-- Capela -->
<g id="node7" class="node">
<title>Capela</title>
<ellipse fill="none" stroke="black" cx="407.83" cy="-275.71" rx="36.09" ry="18"/>
<text text-anchor="middle" x="407.83" y="-270.28" font-family="Times New Roman,serif" font-size="14.00">Capela</text>
</g>
<!-- Topo&#45;&#45;Capela -->
<g id="edge60" class="edge">
<title>Topo&#45;&#45;Capela</title>
<path fill="none" stroke="black" d="M384.77,-426.45C393.85,-394.17 406.18,-326.55 408.88,-293.99"/>
<text text-anchor="middle" x="395.09" y="-363.53" font-family="Arial" font-size="14.00">4</text>
</g>
<!-- Topo&#45;&#45;ParqueInfantil -->
<g id="edge63" class="edge">
<title>Topo&#45;&#45;ParqueInfantil</title>
<path fill="none" stroke="black" d="M399.18,-457.55C422.28,-467.78 459.19,-481.41 489.25,-491.08"/>
<text text-anchor="middle" x="437.48" y="-477.72" font-family="Arial" font-size="14.00">7</text>
</g>
<!-- Topo&#45;&#45;Miradouro -->
<g id="edge46" class="edge">
<title>Topo&#45;&#45;Miradouro</title>
<path fill="none" stroke="black" d="M401.77,-432.78C426.08,-417.47 462.26,-390.83 482.69,-373.11"/>
<text text-anchor="middle" x="439.56" y="-407.05" font-family="Arial" font-size="14.00">3</text>
</g>
<!-- Topo&#45;&#45;Teatro -->
<g id="edge33" class="edge">
<title>Topo&#45;&#45;Teatro</title>
<path fill="none" stroke="black" d="M359.63,-459.67C339.33,-483.04 307.07,-527.2 292.34,-551.97"/>
<text text-anchor="middle" x="319.77" y="-508.5" font-family="Arial" font-size="14.00">6</text>
</g>
<!-- Capela&#45;&#45;Topo -->
<g id="edge4" class="edge">
<title>Capela&#45;&#45;Topo</title>
<path fill="none" stroke="black" d="M400.05,-293.6C390.97,-325.88 378.64,-393.5 375.94,-426.06"/>
<text text-anchor="middle" x="381.48" y="-362.93" font-family="Arial" font-size="14.00">4</text>
</g>
<!-- Escadas3 -->
<g id="node10" class="node">
<title>Escadas3</title>
<ellipse fill="none" stroke="black" cx="379.68" cy="-132.55" rx="46.07" ry="18"/>
<text text-anchor="middle" x="379.68" y="-127.12" font-family="Times New Roman,serif" font-size="14.00">Escadas3</text>
</g>
<!-- Capela&#45;&#45;Escadas3 -->
<g id="edge47" class="edge">
<title>Capela&#45;&#45;Escadas3</title>
<path fill="none" stroke="black" d="M408.91,-257.26C406.34,-229.7 396.24,-178.09 388.11,-150.7"/>
<text text-anchor="middle" x="396.47" y="-207.11" font-family="Arial" font-size="14.00">9</text>
</g>
<!-- Capela&#45;&#45;Torreao -->
<g id="edge23" class="edge">
<title>Capela&#45;&#45;Torreao</title>
<path fill="none" stroke="black" d="M438.11,-265.65C460.37,-255.05 489.87,-238.65 508.84,-226.22"/>
<text text-anchor="middle" x="466.46" y="-249.82" font-family="Arial" font-size="14.00">11</text>
</g>
<!-- Capela&#45;&#45;Miradouro -->
<g id="edge36" class="edge">
<title>Capela&#45;&#45;Miradouro</title>
<path fill="none" stroke="black" d="M419.67,-293.18C432.87,-307.25 454.4,-326.65 471.6,-340.18"/>
<text text-anchor="middle" x="440.01" y="-320.08" font-family="Arial" font-size="14.00">4</text>
</g>
<!-- Escadas1&#45;&#45;AP -->
<g id="edge39" class="edge">
<title>Escadas1&#45;&#45;AP</title>
<path fill="none" stroke="red" stroke-width="4" d="M139.3,-313.66C147.74,-346 172.26,-412.78 187.12,-444.05"/>
<text text-anchor="middle" x="152.55" y="-382.46" font-family="Arial" font-size="14.00">10</text>
</g>
<!-- Escadas1&#45;&#45;Lago -->
<g id="edge10" class="edge">
<title>Escadas1&#45;&#45;Lago</title>
<path fill="none" stroke="black" d="M147.26,-313.22C163.4,-333.91 194.71,-367.31 215.39,-386.03"/>
<text text-anchor="middle" x="175.5" y="-337.06" font-family="Arial" font-size="14.00">7</text>
</g>
<!-- Escadas2 -->
<g id="node9" class="node">
<title>Escadas2</title>
<ellipse fill="none" stroke="black" cx="206.72" cy="-135.24" rx="46.07" ry="18"/>
<text text-anchor="middle" x="206.72" y="-129.82" font-family="Times New Roman,serif" font-size="14.00">Escadas2</text>
</g>
<!-- Escadas1&#45;&#45;Escadas2 -->
<g id="edge5" class="edge">
<title>Escadas1&#45;&#45;Escadas2</title>
<path fill="none" stroke="red" stroke-width="4" d="M149.74,-277.92C166.28,-247.32 193.46,-184.52 203.51,-153.44"/>
<text text-anchor="middle" x="174.93" y="-219.06" font-family="Arial" font-size="14.00">3</text>
</g>
<!-- JardimRoseiral -->
<g id="node16" class="node">
<title>JardimRoseiral</title>
<ellipse fill="none" stroke="black" cx="65.53" cy="-169.68" rx="65.53" ry="18"/>
<text text-anchor="middle" x="65.53" y="-164.25" font-family="Times New Roman,serif" font-size="14.00">JardimRoseiral</text>
</g>
<!-- Escadas1&#45;&#45;JardimRoseiral -->
<g id="edge42" class="edge">
<title>Escadas1&#45;&#45;JardimRoseiral</title>
<path fill="none" stroke="black" d="M132.13,-277.17C121.45,-253.15 97.8,-211.32 81.59,-187.51"/>
<text text-anchor="middle" x="104.81" y="-235.46" font-family="Arial" font-size="14.00">8</text>
</g>
<!-- Escadas2&#45;&#45;Escadas1 -->
<g id="edge53" class="edge">
<title>Escadas2&#45;&#45;Escadas1</title>
<path fill="none" stroke="red" stroke-width="4" d="M194.12,-152.74C177.58,-183.33 150.4,-246.13 140.35,-277.21"/>
<text text-anchor="middle" x="160.68" y="-217.99" font-family="Arial" font-size="14.00">3</text>
</g>
<!-- Escadas2&#45;&#45;Escadas3 -->
<g id="edge15" class="edge">
<title>Escadas2&#45;&#45;Escadas3</title>
<path fill="none" stroke="red" stroke-width="4" d="M250.91,-140.53C277.15,-141.17 310.28,-140.64 336.36,-139.17"/>
<text text-anchor="middle" x="289.57" y="-143.84" font-family="Arial" font-size="14.00">5</text>
</g>
<!-- CasaRoseiral -->
<g id="node13" class="node">
<title>CasaRoseiral</title>
<ellipse fill="none" stroke="black" cx="85.73" cy="-28.26" rx="59.55" ry="18"/>
<text text-anchor="middle" x="85.73" y="-22.83" font-family="Times New Roman,serif" font-size="14.00">CasaRoseiral</text>
</g>
<!-- Escadas2&#45;&#45;CasaRoseiral -->
<g id="edge9" class="edge">
<title>Escadas2&#45;&#45;CasaRoseiral</title>
<path fill="none" stroke="black" d="M194.04,-117.71C174.76,-97.43 137.99,-64.6 112.63,-44.76"/>
<text text-anchor="middle" x="151.49" y="-84.27" font-family="Arial" font-size="14.00">4</text>
</g>
<!-- Sentimentos -->
<g id="node15" class="node">
<title>Sentimentos</title>
<ellipse fill="none" stroke="black" cx="307.14" cy="-18" rx="56.05" ry="18"/>
<text text-anchor="middle" x="307.14" y="-12.57" font-family="Times New Roman,serif" font-size="14.00">Sentimentos</text>
</g>
<!-- Escadas2&#45;&#45;Sentimentos -->
<g id="edge43" class="edge">
<title>Escadas2&#45;&#45;Sentimentos</title>
<path fill="none" stroke="black" d="M227.72,-118.75C249.31,-96.92 281.71,-58.83 297.76,-36.19"/>
<text text-anchor="middle" x="260.69" y="-80.98" font-family="Arial" font-size="14.00">7</text>
</g>
<!-- Escadas2&#45;&#45;JardimRoseiral -->
<g id="edge55" class="edge">
<title>Escadas2&#45;&#45;JardimRoseiral</title>
<path fill="none" stroke="black" d="M161.72,-139.75C142.6,-143.71 120.58,-149.15 102.44,-154.42"/>
<text text-anchor="middle" x="127.59" y="-133.3" font-family="Arial" font-size="14.00">3</text>
</g>
<!-- Escadas3&#45;&#45;Capela -->
<g id="edge6" class="edge">
<title>Escadas3&#45;&#45;Capela</title>
<path fill="none" stroke="black" d="M378.61,-150.99C381.19,-178.71 391.39,-230.74 399.54,-258.01"/>
<text text-anchor="middle" x="382.86" y="-207.87" font-family="Arial" font-size="14.00">9</text>
</g>
<!-- Escadas3&#45;&#45;Escadas2 -->
<g id="edge22" class="edge">
<title>Escadas3&#45;&#45;Escadas2</title>
<path fill="none" stroke="red" stroke-width="4" d="M335.5,-127.27C309.26,-126.63 276.13,-127.15 250.04,-128.63"/>
<text text-anchor="middle" x="288.59" y="-113.85" font-family="Arial" font-size="14.00">5</text>
</g>
<!-- Escadas3&#45;&#45;Torreao -->
<g id="edge21" class="edge">
<title>Escadas3&#45;&#45;Torreao</title>
<path fill="none" stroke="black" d="M400.15,-148.91C424.65,-164.06 465.88,-185.78 494.84,-198.94"/>
<text text-anchor="middle" x="437.57" y="-177.87" font-family="Arial" font-size="14.00">12</text>
</g>
<!-- Escadas3&#45;&#45;Sentimentos -->
<g id="edge29" class="edge">
<title>Escadas3&#45;&#45;Sentimentos</title>
<path fill="none" stroke="black" d="M373.82,-114.28C362.9,-92.53 340.33,-56.61 324.34,-35.29"/>
<text text-anchor="middle" x="346.86" y="-77.82" font-family="Arial" font-size="14.00">5</text>
</g>
<!-- Torreao&#45;&#45;Fontaine -->
<g id="edge32" class="edge">
<title>Torreao&#45;&#45;Fontaine</title>
<path fill="none" stroke="black" d="M535.2,-227.79C550.92,-254.4 586.45,-303.67 608.38,-329.46"/>
<text text-anchor="middle" x="561.21" y="-282.13" font-family="Arial" font-size="14.00">11</text>
</g>
<!-- Torreao&#45;&#45;Capela -->
<g id="edge7" class="edge">
<title>Torreao&#45;&#45;Capela</title>
<path fill="none" stroke="black" d="M495.2,-220.91C472.95,-231.66 444.29,-247.68 425.95,-259.76"/>
<text text-anchor="middle" x="450.86" y="-226.54" font-family="Arial" font-size="14.00">11</text>
</g>
<!-- Torreao&#45;&#45;Escadas3 -->
<g id="edge31" class="edge">
<title>Torreao&#45;&#45;Escadas3</title>
<path fill="none" stroke="black" d="M507.83,-193.82C484.12,-179.09 444.1,-157.93 415.07,-144.57"/>
<text text-anchor="middle" x="455.19" y="-171.88" font-family="Arial" font-size="14.00">12</text>
</g>
<!-- Torreao&#45;&#45;Miradouro -->
<g id="edge25" class="edge">
<title>Torreao&#45;&#45;Miradouro</title>
<path fill="none" stroke="black" d="M519.26,-227.64C510.75,-255.56 499.88,-309.27 497.08,-337.44"/>
<text text-anchor="middle" x="501.9" y="-285.64" font-family="Arial" font-size="14.00">9</text>
</g>
<!-- ParqueInfantil&#45;&#45;Macieirinha -->
<g id="edge28" class="edge">
<title>ParqueInfantil&#45;&#45;Macieirinha</title>
<path fill="none" stroke="black" d="M600.55,-499.91C615.22,-497.98 630.5,-495.58 643.92,-493.07"/>
<text text-anchor="middle" x="614.45" y="-499.91" font-family="Arial" font-size="14.00">10</text>
</g>
<!-- ParqueInfantil&#45;&#45;Fontaine -->
<g id="edge8" class="edge">
<title>ParqueInfantil&#45;&#45;Fontaine</title>
<path fill="none" stroke="black" d="M554.11,-484.39C574.18,-454.5 607.66,-394.66 621.1,-364.4"/>
<text text-anchor="middle" x="585.97" y="-427.73" font-family="Arial" font-size="14.00">8</text>
</g>
<!-- ParqueInfantil&#45;&#45;Topo -->
<g id="edge50" class="edge">
<title>ParqueInfantil&#45;&#45;Topo</title>
<path fill="none" stroke="black" d="M509.38,-485.89C480.6,-473.72 436.93,-458.16 407.69,-449.68"/>
<text text-anchor="middle" x="454.58" y="-469.6" font-family="Arial" font-size="14.00">7</text>
</g>
<!-- CasaRoseiral&#45;&#45;Escadas2 -->
<g id="edge35" class="edge">
<title>CasaRoseiral&#45;&#45;Escadas2</title>
<path fill="none" stroke="black" d="M98.87,-46.27C118.69,-67.02 156.22,-100.45 181.42,-119.98"/>
<text text-anchor="middle" x="134" y="-86.79" font-family="Arial" font-size="14.00">4</text>
</g>
<!-- CasaRoseiral&#45;&#45;JardimRoseiral -->
<g id="edge38" class="edge">
<title>CasaRoseiral&#45;&#45;JardimRoseiral</title>
<path fill="none" stroke="black" d="M78.33,-46.36C71.74,-73.48 64.52,-124.34 63.45,-151.5"/>
<text text-anchor="middle" x="64.7" y="-102.12" font-family="Arial" font-size="14.00">3</text>
</g>
<!-- Miradouro&#45;&#45;Fontaine -->
<g id="edge11" class="edge">
<title>Miradouro&#45;&#45;Fontaine</title>
<path fill="none" stroke="black" d="M547.8,-358.56C561.55,-357.84 576.23,-356.61 589.13,-355.09"/>
<text text-anchor="middle" x="572.91" y="-360.32" font-family="Arial" font-size="14.00">8</text>
</g>
<!-- Miradouro&#45;&#45;Topo -->
<g id="edge34" class="edge">
<title>Miradouro&#45;&#45;Topo</title>
<path fill="none" stroke="black" d="M468.09,-370.54C443.61,-386.45 410.13,-411.31 391.27,-427.83"/>
<text text-anchor="middle" x="423.45" y="-402.16" font-family="Arial" font-size="14.00">3</text>
</g>
<!-- Miradouro&#45;&#45;Capela -->
<g id="edge16" class="edge">
<title>Miradouro&#45;&#45;Capela</title>
<path fill="none" stroke="black" d="M485.81,-337.81C471.96,-323.13 449.31,-302.82 431.92,-289.39"/>
<text text-anchor="middle" x="456.07" y="-316.33" font-family="Arial" font-size="14.00">4</text>
</g>
<!-- Miradouro&#45;&#45;Torreao -->
<g id="edge56" class="edge">
<title>Miradouro&#45;&#45;Torreao</title>
<path fill="none" stroke="black" d="M506.54,-337.55C515.04,-309.53 525.86,-256.01 528.63,-227.97"/>
<text text-anchor="middle" x="515.61" y="-285.97" font-family="Arial" font-size="14.00">9</text>
</g>
<!-- Sentimentos&#45;&#45;Escadas2 -->
<g id="edge12" class="edge">
<title>Sentimentos&#45;&#45;Escadas2</title>
<path fill="none" stroke="black" d="M285.65,-35C264.01,-56.95 231.88,-94.76 215.99,-117.21"/>
<text text-anchor="middle" x="244.54" y="-79.12" font-family="Arial" font-size="14.00">7</text>
</g>
<!-- Sentimentos&#45;&#45;Escadas3 -->
<g id="edge24" class="edge">
<title>Sentimentos&#45;&#45;Escadas3</title>
<path fill="none" stroke="black" d="M313.01,-36.26C323.99,-58.15 346.76,-94.37 362.77,-115.64"/>
<text text-anchor="middle" x="331.88" y="-79.38" font-family="Arial" font-size="14.00">5</text>
</g>
<!-- JardimRoseiral&#45;&#45;Escadas1 -->
<g id="edge49" class="edge">
<title>JardimRoseiral&#45;&#45;Escadas1</title>
<path fill="none" stroke="black" d="M70.54,-187.92C81.35,-212.22 105.42,-254.74 121.64,-278.41"/>
<text text-anchor="middle" x="89.94" y="-236.6" font-family="Arial" font-size="14.00">8</text>
</g>
<!-- JardimRoseiral&#45;&#45;Escadas2 -->
<g id="edge62" class="edge">
<title>JardimRoseiral&#45;&#45;Escadas2</title>
<path fill="none" stroke="black" d="M125.35,-161.94C142.58,-158.01 160.69,-153.3 175.44,-148.84"/>
<text text-anchor="middle" x="147.2" y="-158.79" font-family="Arial" font-size="14.00">3</text>
</g>
<!-- JardimRoseiral&#45;&#45;CasaRoseiral -->
<g id="edge14" class="edge">
<title>JardimRoseiral&#45;&#45;CasaRoseiral</title>
<path fill="none" stroke="black" d="M72.93,-151.57C79.52,-124.45 86.74,-73.59 87.81,-46.43"/>
<text text-anchor="middle" x="78.32" y="-102.22" font-family="Arial" font-size="14.00">3</text>
</g>
<!-- Biblioteca&#45;&#45;AP -->
<g id="edge54" class="edge">
<title>Biblioteca&#45;&#45;AP</title>
<path fill="none" stroke="black" d="M115.23,-552.41C137.86,-532.39 171,-498.48 187.76,-477.94"/>
<text text-anchor="middle" x="161.94" y="-502.07" font-family="Arial" font-size="14.00">10</text>
</g>
<!-- Biblioteca&#45;&#45;Teatro -->
<g id="edge48" class="edge">
<title>Biblioteca&#45;&#45;Teatro</title>
<path fill="none" stroke="black" d="M137.16,-574.52C171.91,-576.17 219.17,-576.35 250.8,-574.83"/>
<text text-anchor="middle" x="199.27" y="-562.56" font-family="Arial" font-size="14.00">8</text>
</g>
<!-- Teatro&#45;&#45;AP -->
<g id="edge57" class="edge">
<title>Teatro&#45;&#45;AP</title>
<path fill="none" stroke="black" d="M276.96,-552.11C262.9,-530.44 234.26,-494.41 215.5,-474.65"/>
<text text-anchor="middle" x="243.87" y="-515.86" font-family="Arial" font-size="14.00">7</text>
</g>
<!-- Teatro&#45;&#45;Topo -->
<g id="edge41" class="edge">
<title>Teatro&#45;&#45;Topo</title>
<path fill="none" stroke="black" d="M302.74,-553.96C323.1,-530.41 355.1,-486.57 369.68,-462.02"/>
<text text-anchor="middle" x="334.25" y="-511.57" font-family="Arial" font-size="14.00">6</text>
</g>
<!-- Teatro&#45;&#45;Biblioteca -->
<g id="edge45" class="edge">
<title>Teatro&#45;&#45;Biblioteca</title>
<path fill="none" stroke="black" d="M251.36,-564.28C219.84,-562.28 172.45,-561.74 137.52,-562.87"/>
<text text-anchor="middle" x="191.59" y="-549.1" font-family="Arial" font-size="14.00">8</text>
</g>
</g>
</svg>
