<?xml version="1.0" encoding="UTF-8" standalone="no"?>
<!DOCTYPE svg PUBLIC "-//W3C//DTD SVG 1.1//EN"
 "http://www.w3.org/Graphics/SVG/1.1/DTD/svg11.dtd">
<!-- Generated by graphviz version 11.0.0 (20240428.1522)
 -->
<!-- Pages: 1 -->
<svg width="737pt" height="723pt"
 viewBox="0.00 0.00 737.21 722.51" xmlns="http://www.w3.org/2000/svg" xmlns:xlink="http://www.w3.org/1999/xlink">
<g id="graph0" class="graph" transform="scale(1 1) rotate(0) translate(4 718.51)">
<polygon fill="white" stroke="none" points="-4,4 -4,-718.51 733.21,-718.51 733.21,4 -4,4"/>
<text text-anchor="middle" x="364.61" y="-686.76" font-family="Arial" font-size="25.00">Teatro (total cost:7.0)</text>
<!-- ParqueInfantil -->
<g id="node1" class="node">
<title>ParqueInfantil</title>
<ellipse fill="none" stroke="black" cx="513.07" cy="-516.33" rx="62.04" ry="18"/>
<text text-anchor="middle" x="513.07" y="-510.91" font-family="Times New Roman,serif" font-size="14.00">ParqueInfantil</text>
</g>
<!-- Macieirinha -->
<g id="node2" class="node">
<title>Macieirinha</title>
<ellipse fill="none" stroke="black" cx="478.92" cy="-660.01" rx="53.06" ry="18"/>
<text text-anchor="middle" x="478.92" y="-654.59" font-family="Times New Roman,serif" font-size="14.00">Macieirinha</text>
</g>
<!-- ParqueInfantil&#45;&#45;Macieirinha -->
<g id="edge1" class="edge">
<title>ParqueInfantil&#45;&#45;Macieirinha</title>
<path fill="none" stroke="black" d="M508.75,-534.53C502.18,-562.17 489.76,-614.41 483.21,-641.96"/>
<text text-anchor="middle" x="487.72" y="-591.48" font-family="Arial" font-size="14.00">10</text>
</g>
<!-- Fontaine -->
<g id="node4" class="node">
<title>Fontaine</title>
<ellipse fill="none" stroke="black" cx="351.14" cy="-588.96" rx="42.58" ry="18"/>
<text text-anchor="middle" x="351.14" y="-583.54" font-family="Times New Roman,serif" font-size="14.00">Fontaine</text>
</g>
<!-- ParqueInfantil&#45;&#45;Fontaine -->
<g id="edge19" class="edge">
<title>ParqueInfantil&#45;&#45;Fontaine</title>
<path fill="none" stroke="black" d="M478.73,-531.74C449.67,-544.77 408.46,-563.25 380.81,-575.65"/>
<text text-anchor="middle" x="425.11" y="-557.13" font-family="Arial" font-size="14.00">8</text>
</g>
<!-- Topo -->
<g id="node11" class="node">
<title>Topo</title>
<ellipse fill="none" stroke="black" cx="470.98" cy="-346.18" rx="31.6" ry="18"/>
<text text-anchor="middle" x="470.98" y="-340.75" font-family="Times New Roman,serif" font-size="14.00">Topo</text>
</g>
<!-- ParqueInfantil&#45;&#45;Topo -->
<g id="edge32" class="edge">
<title>ParqueInfantil&#45;&#45;Topo</title>
<path fill="none" stroke="black" d="M508.57,-498.12C500.47,-465.37 483.53,-396.91 475.46,-364.26"/>
<text text-anchor="middle" x="487.88" y="-434.35" font-family="Arial" font-size="14.00">7</text>
</g>
<!-- Macieirinha&#45;&#45;ParqueInfantil -->
<g id="edge27" class="edge">
<title>Macieirinha&#45;&#45;ParqueInfantil</title>
<path fill="none" stroke="black" d="M483.24,-641.82C489.81,-614.18 502.23,-561.93 508.78,-534.38"/>
<text text-anchor="middle" x="487.77" y="-574.77" font-family="Arial" font-size="14.00">10</text>
</g>
<!-- Macieirinha&#45;&#45;Fontaine -->
<g id="edge44" class="edge">
<title>Macieirinha&#45;&#45;Fontaine</title>
<path fill="none" stroke="black" d="M450.88,-644.42C428.98,-632.25 398.79,-615.46 377.37,-603.55"/>
<text text-anchor="middle" x="405.69" y="-627.08" font-family="Arial" font-size="14.00">11</text>
</g>
<!-- Torreao -->
<g id="node3" class="node">
<title>Torreao</title>
<ellipse fill="none" stroke="black" cx="226.93" cy="-478.4" rx="40.58" ry="18"/>
<text text-anchor="middle" x="226.93" y="-472.97" font-family="Times New Roman,serif" font-size="14.00">Torreao</text>
</g>
<!-- Torreao&#45;&#45;Fontaine -->
<g id="edge2" class="edge">
<title>Torreao&#45;&#45;Fontaine</title>
<path fill="none" stroke="black" d="M245.25,-494.71C268.74,-515.61 309.21,-551.64 332.73,-572.58"/>
<text text-anchor="middle" x="280.73" y="-536.83" font-family="Arial" font-size="14.00">11</text>
</g>
<!-- Escadas3 -->
<g id="node6" class="node">
<title>Escadas3</title>
<ellipse fill="none" stroke="black" cx="163.75" cy="-325.94" rx="46.07" ry="18"/>
<text text-anchor="middle" x="163.75" y="-320.51" font-family="Times New Roman,serif" font-size="14.00">Escadas3</text>
</g>
<!-- Torreao&#45;&#45;Escadas3 -->
<g id="edge57" class="edge">
<title>Torreao&#45;&#45;Escadas3</title>
<path fill="none" stroke="black" d="M219.43,-460.31C207.27,-430.97 183.39,-373.33 171.24,-344"/>
<text text-anchor="middle" x="187.08" y="-405.35" font-family="Arial" font-size="14.00">12</text>
</g>
<!-- Capela -->
<g id="node10" class="node">
<title>Capela</title>
<ellipse fill="none" stroke="black" cx="304.52" cy="-363.73" rx="36.09" ry="18"/>
<text text-anchor="middle" x="304.52" y="-358.31" font-family="Times New Roman,serif" font-size="14.00">Capela</text>
</g>
<!-- Torreao&#45;&#45;Capela -->
<g id="edge61" class="edge">
<title>Torreao&#45;&#45;Capela</title>
<path fill="none" stroke="black" d="M238.71,-460.98C253.38,-439.3 278.28,-402.51 292.88,-380.93"/>
<text text-anchor="middle" x="257.57" y="-407.62" font-family="Arial" font-size="14.00">11</text>
</g>
<!-- Miradouro -->
<g id="node17" class="node">
<title>Miradouro</title>
<ellipse fill="none" stroke="black" cx="374.73" cy="-460.88" rx="50.07" ry="18"/>
<text text-anchor="middle" x="374.73" y="-455.45" font-family="Times New Roman,serif" font-size="14.00">Miradouro</text>
</g>
<!-- Torreao&#45;&#45;Miradouro -->
<g id="edge13" class="edge">
<title>Torreao&#45;&#45;Miradouro</title>
<path fill="none" stroke="black" d="M266.54,-473.7C285.09,-471.5 307.35,-468.86 326.85,-466.55"/>
<text text-anchor="middle" x="292.21" y="-456.87" font-family="Arial" font-size="14.00">9</text>
</g>
<!-- Fontaine&#45;&#45;ParqueInfantil -->
<g id="edge42" class="edge">
<title>Fontaine&#45;&#45;ParqueInfantil</title>
<path fill="none" stroke="black" d="M380.84,-575.64C408.5,-563.23 449.74,-544.74 478.79,-531.71"/>
<text text-anchor="middle" x="425.17" y="-540.61" font-family="Arial" font-size="14.00">8</text>
</g>
<!-- Fontaine&#45;&#45;Macieirinha -->
<g id="edge51" class="edge">
<title>Fontaine&#45;&#45;Macieirinha</title>
<path fill="none" stroke="black" d="M377.3,-603.51C398.77,-615.45 429.09,-632.31 451.02,-644.5"/>
<text text-anchor="middle" x="422.24" y="-627.11" font-family="Arial" font-size="14.00">11</text>
</g>
<!-- Fontaine&#45;&#45;Torreao -->
<g id="edge58" class="edge">
<title>Fontaine&#45;&#45;Torreao</title>
<path fill="none" stroke="black" d="M332.54,-572.41C308.99,-551.44 268.66,-515.55 245.24,-494.7"/>
<text text-anchor="middle" x="280.59" y="-520.21" font-family="Arial" font-size="14.00">11</text>
</g>
<!-- Fontaine&#45;&#45;Miradouro -->
<g id="edge35" class="edge">
<title>Fontaine&#45;&#45;Miradouro</title>
<path fill="none" stroke="black" d="M354.52,-570.61C359,-546.26 366.87,-503.53 371.36,-479.19"/>
<text text-anchor="middle" x="358.81" y="-511.59" font-family="Arial" font-size="14.00">8</text>
</g>
<!-- Escadas2 -->
<g id="node5" class="node">
<title>Escadas2</title>
<ellipse fill="none" stroke="black" cx="182.53" cy="-155.3" rx="46.07" ry="18"/>
<text text-anchor="middle" x="182.53" y="-149.88" font-family="Times New Roman,serif" font-size="14.00">Escadas2</text>
</g>
<!-- Escadas2&#45;&#45;Escadas3 -->
<g id="edge3" class="edge">
<title>Escadas2&#45;&#45;Escadas3</title>
<path fill="none" stroke="black" d="M180.52,-173.56C176.92,-206.32 169.39,-274.7 165.77,-307.55"/>
<text text-anchor="middle" x="169.03" y="-227.22" font-family="Arial" font-size="14.00">5</text>
</g>
<!-- CasaRoseiral -->
<g id="node9" class="node">
<title>CasaRoseiral</title>
<ellipse fill="none" stroke="black" cx="85.55" cy="-25.8" rx="59.55" ry="18"/>
<text text-anchor="middle" x="85.55" y="-20.38" font-family="Times New Roman,serif" font-size="14.00">CasaRoseiral</text>
</g>
<!-- Escadas2&#45;&#45;CasaRoseiral -->
<g id="edge6" class="edge">
<title>Escadas2&#45;&#45;CasaRoseiral</title>
<path fill="none" stroke="black" d="M169.45,-137.84C151.05,-113.26 117.67,-68.7 99.04,-43.82"/>
<text text-anchor="middle" x="130.21" y="-94.14" font-family="Arial" font-size="14.00">4</text>
</g>
<!-- Escadas1 -->
<g id="node12" class="node">
<title>Escadas1</title>
<ellipse fill="none" stroke="black" cx="347.9" cy="-101.42" rx="46.07" ry="18"/>
<text text-anchor="middle" x="347.9" y="-95.99" font-family="Times New Roman,serif" font-size="14.00">Escadas1</text>
</g>
<!-- Escadas2&#45;&#45;Escadas1 -->
<g id="edge29" class="edge">
<title>Escadas2&#45;&#45;Escadas1</title>
<path fill="none" stroke="black" d="M218.42,-143.61C246.15,-134.57 284.37,-122.12 312.09,-113.09"/>
<text text-anchor="middle" x="261.13" y="-115.05" font-family="Arial" font-size="14.00">3</text>
</g>
<!-- JardimRoseiral -->
<g id="node13" class="node">
<title>JardimRoseiral</title>
<ellipse fill="none" stroke="black" cx="228.52" cy="-18" rx="65.53" ry="18"/>
<text text-anchor="middle" x="228.52" y="-12.57" font-family="Times New Roman,serif" font-size="14.00">JardimRoseiral</text>
</g>
<!-- Escadas2&#45;&#45;JardimRoseiral -->
<g id="edge21" class="edge">
<title>Escadas2&#45;&#45;JardimRoseiral</title>
<path fill="none" stroke="black" d="M188.64,-137.07C197.44,-110.81 213.58,-62.61 222.39,-36.31"/>
<text text-anchor="middle" x="201.39" y="-89.9" font-family="Arial" font-size="14.00">3</text>
</g>
<!-- Sentimentos -->
<g id="node18" class="node">
<title>Sentimentos</title>
<ellipse fill="none" stroke="black" cx="56.05" cy="-244.29" rx="56.05" ry="18"/>
<text text-anchor="middle" x="56.05" y="-238.87" font-family="Times New Roman,serif" font-size="14.00">Sentimentos</text>
</g>
<!-- Escadas2&#45;&#45;Sentimentos -->
<g id="edge16" class="edge">
<title>Escadas2&#45;&#45;Sentimentos</title>
<path fill="none" stroke="black" d="M159.92,-171.21C137.33,-187.11 102.73,-211.45 79.76,-227.62"/>
<text text-anchor="middle" x="115.86" y="-186.01" font-family="Arial" font-size="14.00">7</text>
</g>
<!-- Escadas3&#45;&#45;Torreao -->
<g id="edge4" class="edge">
<title>Escadas3&#45;&#45;Torreao</title>
<path fill="none" stroke="black" d="M171.25,-344.03C183.4,-373.37 207.29,-431 219.44,-460.33"/>
<text text-anchor="middle" x="203.6" y="-405.38" font-family="Arial" font-size="14.00">12</text>
</g>
<!-- Escadas3&#45;&#45;Escadas2 -->
<g id="edge23" class="edge">
<title>Escadas3&#45;&#45;Escadas2</title>
<path fill="none" stroke="black" d="M165.76,-307.68C169.37,-274.92 176.89,-206.54 180.51,-173.69"/>
<text text-anchor="middle" x="169.01" y="-243.92" font-family="Arial" font-size="14.00">5</text>
</g>
<!-- Escadas3&#45;&#45;Capela -->
<g id="edge54" class="edge">
<title>Escadas3&#45;&#45;Capela</title>
<path fill="none" stroke="black" d="M202.22,-336.26C224.2,-342.17 251.44,-349.48 272.29,-355.08"/>
<text text-anchor="middle" x="233.55" y="-348.99" font-family="Arial" font-size="14.00">9</text>
</g>
<!-- Escadas3&#45;&#45;Sentimentos -->
<g id="edge39" class="edge">
<title>Escadas3&#45;&#45;Sentimentos</title>
<path fill="none" stroke="black" d="M142.22,-309.61C123.68,-295.56 97.03,-275.36 78.29,-261.15"/>
<text text-anchor="middle" x="106.2" y="-288.64" font-family="Arial" font-size="14.00">5</text>
</g>
<!-- Pavilhao -->
<g id="node7" class="node">
<title>Pavilhao</title>
<ellipse fill="none" stroke="black" cx="563.48" cy="-49.24" rx="42.08" ry="18"/>
<text text-anchor="middle" x="563.48" y="-43.82" font-family="Times New Roman,serif" font-size="14.00">Pavilhao</text>
</g>
<!-- Lago -->
<g id="node8" class="node">
<title>Lago</title>
<ellipse fill="none" stroke="black" cx="443.65" cy="-173.97" rx="29.61" ry="18"/>
<text text-anchor="middle" x="443.65" y="-168.54" font-family="Times New Roman,serif" font-size="14.00">Lago</text>
</g>
<!-- Pavilhao&#45;&#45;Lago -->
<g id="edge5" class="edge">
<title>Pavilhao&#45;&#45;Lago</title>
<path fill="none" stroke="black" d="M547.32,-66.06C524.06,-90.27 481.47,-134.6 458.8,-158.2"/>
<text text-anchor="middle" x="498.72" y="-99.06" font-family="Arial" font-size="14.00">6</text>
</g>
<!-- AP -->
<g id="node16" class="node">
<title>AP</title>
<ellipse fill="none" stroke="black" cx="521.57" cy="-192.72" rx="27" ry="18"/>
<text text-anchor="middle" x="521.57" y="-187.29" font-family="Times New Roman,serif" font-size="14.00">AP</text>
</g>
<!-- Pavilhao&#45;&#45;AP -->
<g id="edge36" class="edge">
<title>Pavilhao&#45;&#45;AP</title>
<path fill="none" stroke="black" d="M558.17,-67.41C550.11,-95.01 534.87,-147.18 526.83,-174.69"/>
<text text-anchor="middle" x="538.37" y="-107.79" font-family="Arial" font-size="14.00">5</text>
</g>
<!-- Lago&#45;&#45;Pavilhao -->
<g id="edge37" class="edge">
<title>Lago&#45;&#45;Pavilhao</title>
<path fill="none" stroke="black" d="M458.82,-158.17C481.49,-134.57 524.02,-90.31 547.28,-66.1"/>
<text text-anchor="middle" x="498.71" y="-115.56" font-family="Arial" font-size="14.00">6</text>
</g>
<!-- Lago&#45;&#45;Topo -->
<g id="edge9" class="edge">
<title>Lago&#45;&#45;Topo</title>
<path fill="none" stroke="black" d="M446.52,-192.07C451.76,-225.06 462.8,-294.61 468.07,-327.8"/>
<text text-anchor="middle" x="453.16" y="-263.06" font-family="Arial" font-size="14.00">5</text>
</g>
<!-- Lago&#45;&#45;Escadas1 -->
<g id="edge15" class="edge">
<title>Lago&#45;&#45;Escadas1</title>
<path fill="none" stroke="black" d="M424.73,-159.64C408.82,-147.58 386.07,-130.34 369.45,-117.75"/>
<text text-anchor="middle" x="393.23" y="-142.09" font-family="Arial" font-size="14.00">7</text>
</g>
<!-- Lago&#45;&#45;AP -->
<g id="edge40" class="edge">
<title>Lago&#45;&#45;AP</title>
<path fill="none" stroke="black" d="M471.34,-180.63C479.3,-182.55 487.95,-184.63 495.79,-186.52"/>
<text text-anchor="middle" x="479.48" y="-186.79" font-family="Arial" font-size="14.00">9</text>
</g>
<!-- CasaRoseiral&#45;&#45;Escadas2 -->
<g id="edge7" class="edge">
<title>CasaRoseiral&#45;&#45;Escadas2</title>
<path fill="none" stroke="black" d="M99.03,-43.81C117.67,-68.69 151.07,-113.29 169.47,-137.86"/>
<text text-anchor="middle" x="138.46" y="-94.15" font-family="Arial" font-size="14.00">4</text>
</g>
<!-- CasaRoseiral&#45;&#45;JardimRoseiral -->
<g id="edge25" class="edge">
<title>CasaRoseiral&#45;&#45;JardimRoseiral</title>
<path fill="none" stroke="black" d="M144.53,-22.58C150.99,-22.23 157.59,-21.87 164.11,-21.51"/>
<text text-anchor="middle" x="150.17" y="-8.75" font-family="Arial" font-size="14.00">3</text>
</g>
<!-- Capela&#45;&#45;Torreao -->
<g id="edge8" class="edge">
<title>Capela&#45;&#45;Torreao</title>
<path fill="none" stroke="black" d="M292.74,-381.15C278.15,-402.7 253.46,-439.19 238.82,-460.82"/>
<text text-anchor="middle" x="257.55" y="-424.15" font-family="Arial" font-size="14.00">11</text>
</g>
<!-- Capela&#45;&#45;Escadas3 -->
<g id="edge64" class="edge">
<title>Capela&#45;&#45;Escadas3</title>
<path fill="none" stroke="black" d="M272.23,-355.06C251.36,-349.46 224.11,-342.14 202.15,-336.25"/>
<text text-anchor="middle" x="233.48" y="-332.46" font-family="Arial" font-size="14.00">9</text>
</g>
<!-- Capela&#45;&#45;Topo -->
<g id="edge49" class="edge">
<title>Capela&#45;&#45;Topo</title>
<path fill="none" stroke="black" d="M340.23,-359.97C369.75,-356.85 411.26,-352.48 439.54,-349.49"/>
<text text-anchor="middle" x="386.23" y="-357.88" font-family="Arial" font-size="14.00">4</text>
</g>
<!-- Capela&#45;&#45;Miradouro -->
<g id="edge28" class="edge">
<title>Capela&#45;&#45;Miradouro</title>
<path fill="none" stroke="black" d="M317.07,-381.1C329.69,-398.56 349.06,-425.36 361.81,-443"/>
<text text-anchor="middle" x="335.27" y="-415.18" font-family="Arial" font-size="14.00">4</text>
</g>
<!-- Topo&#45;&#45;ParqueInfantil -->
<g id="edge45" class="edge">
<title>Topo&#45;&#45;ParqueInfantil</title>
<path fill="none" stroke="black" d="M475.49,-364.39C483.57,-397.05 500.43,-465.24 508.54,-498"/>
<text text-anchor="middle" x="496.13" y="-434.36" font-family="Arial" font-size="14.00">7</text>
</g>
<!-- Topo&#45;&#45;Lago -->
<g id="edge26" class="edge">
<title>Topo&#45;&#45;Lago</title>
<path fill="none" stroke="black" d="M468.11,-328.07C462.87,-295.09 451.83,-225.54 446.56,-192.35"/>
<text text-anchor="middle" x="461.47" y="-263.49" font-family="Arial" font-size="14.00">5</text>
</g>
<!-- Topo&#45;&#45;Capela -->
<g id="edge43" class="edge">
<title>Topo&#45;&#45;Capela</title>
<path fill="none" stroke="black" d="M439.67,-349.48C411.42,-352.46 369.88,-356.84 340.32,-359.96"/>
<text text-anchor="middle" x="386.36" y="-341.37" font-family="Arial" font-size="14.00">4</text>
</g>
<!-- Teatro -->
<g id="node14" class="node">
<title>Teatro</title>
<ellipse fill="none" stroke="black" cx="613.16" cy="-297.99" rx="35.1" ry="18"/>
<text text-anchor="middle" x="613.16" y="-292.56" font-family="Times New Roman,serif" font-size="14.00">Teatro</text>
</g>
<!-- Topo&#45;&#45;Teatro -->
<g id="edge48" class="edge">
<title>Topo&#45;&#45;Teatro</title>
<path fill="none" stroke="black" d="M498.4,-336.89C522.77,-328.63 558.31,-316.58 583.38,-308.08"/>
<text text-anchor="middle" x="536.5" y="-309.27" font-family="Arial" font-size="14.00">6</text>
</g>
<!-- Topo&#45;&#45;AP -->
<g id="edge53" class="edge">
<title>Topo&#45;&#45;AP</title>
<path fill="none" stroke="black" d="M476.89,-328.27C486.63,-298.7 505.98,-240 515.7,-210.51"/>
<text text-anchor="middle" x="492.18" y="-256.06" font-family="Arial" font-size="14.00">9</text>
</g>
<!-- Topo&#45;&#45;Miradouro -->
<g id="edge56" class="edge">
<title>Topo&#45;&#45;Miradouro</title>
<path fill="none" stroke="black" d="M457.19,-362.61C439.21,-384.04 407.87,-421.38 389.44,-443.34"/>
<text text-anchor="middle" x="419.36" y="-389.48" font-family="Arial" font-size="14.00">3</text>
</g>
<!-- Escadas1&#45;&#45;Escadas2 -->
<g id="edge41" class="edge">
<title>Escadas1&#45;&#45;Escadas2</title>
<path fill="none" stroke="black" d="M312.02,-113.11C284.28,-122.15 246.07,-134.6 218.35,-143.63"/>
<text text-anchor="middle" x="261.05" y="-131.57" font-family="Arial" font-size="14.00">3</text>
</g>
<!-- Escadas1&#45;&#45;Lago -->
<g id="edge24" class="edge">
<title>Escadas1&#45;&#45;Lago</title>
<path fill="none" stroke="black" d="M369.15,-117.52C385.79,-130.13 408.72,-147.5 424.73,-159.63"/>
<text text-anchor="middle" x="393.05" y="-125.45" font-family="Arial" font-size="14.00">7</text>
</g>
<!-- Escadas1&#45;&#45;JardimRoseiral -->
<g id="edge10" class="edge">
<title>Escadas1&#45;&#45;JardimRoseiral</title>
<path fill="none" stroke="black" d="M325.17,-85.53C304.47,-71.07 273.99,-49.77 252.82,-34.97"/>
<text text-anchor="middle" x="285.04" y="-63.58" font-family="Arial" font-size="14.00">8</text>
</g>
<!-- Escadas1&#45;&#45;AP -->
<g id="edge22" class="edge">
<title>Escadas1&#45;&#45;AP</title>
<path fill="none" stroke="black" d="M378.03,-115.38C402.26,-126.8 437.02,-143.66 466.69,-159.81 478.4,-166.18 491.19,-173.81 501.47,-180.12"/>
<text text-anchor="middle" x="432.18" y="-132.66" font-family="Arial" font-size="14.00">10</text>
</g>
<!-- JardimRoseiral&#45;&#45;Escadas2 -->
<g id="edge17" class="edge">
<title>JardimRoseiral&#45;&#45;Escadas2</title>
<path fill="none" stroke="black" d="M222.42,-36.23C213.62,-62.49 197.48,-110.69 188.67,-136.99"/>
<text text-anchor="middle" x="201.42" y="-73.3" font-family="Arial" font-size="14.00">3</text>
</g>
<!-- JardimRoseiral&#45;&#45;CasaRoseiral -->
<g id="edge33" class="edge">
<title>JardimRoseiral&#45;&#45;CasaRoseiral</title>
<path fill="none" stroke="black" d="M163.73,-21.54C157.38,-21.88 150.95,-22.23 144.66,-22.58"/>
<text text-anchor="middle" x="150.05" y="-25.26" font-family="Arial" font-size="14.00">3</text>
</g>
<!-- JardimRoseiral&#45;&#45;Escadas1 -->
<g id="edge52" class="edge">
<title>JardimRoseiral&#45;&#45;Escadas1</title>
<path fill="none" stroke="black" d="M252.97,-35.08C274.12,-49.86 304.46,-71.06 325.11,-85.49"/>
<text text-anchor="middle" x="293.35" y="-63.62" font-family="Arial" font-size="14.00">8</text>
</g>
<!-- Teatro&#45;&#45;Topo -->
<g id="edge55" class="edge">
<title>Teatro&#45;&#45;Topo</title>
<path fill="none" stroke="black" d="M583.35,-308.09C558.28,-316.59 522.71,-328.65 498.34,-336.9"/>
<text text-anchor="middle" x="536.45" y="-325.79" font-family="Arial" font-size="14.00">6</text>
</g>
<!-- Biblioteca -->
<g id="node15" class="node">
<title>Biblioteca</title>
<ellipse fill="none" stroke="black" cx="681.64" cy="-174.53" rx="47.57" ry="18"/>
<text text-anchor="middle" x="681.64" y="-169.11" font-family="Times New Roman,serif" font-size="14.00">Biblioteca</text>
</g>
<!-- Teatro&#45;&#45;Biblioteca -->
<g id="edge11" class="edge">
<title>Teatro&#45;&#45;Biblioteca</title>
<path fill="none" stroke="black" d="M622.97,-280.3C635.92,-256.96 658.58,-216.11 671.63,-192.59"/>
<text text-anchor="middle" x="643.14" y="-223.21" font-family="Arial" font-size="14.00">8</text>
</g>
<!-- Teatro&#45;&#45;AP -->
<g id="edge50" class="edge">
<title>Teatro&#45;&#45;AP</title>
<path fill="none" stroke="red" stroke-width="4" d="M598.85,-281.54C581.44,-261.53 552.27,-228 535.18,-208.36"/>
<text text-anchor="middle" x="562.77" y="-248.01" font-family="Arial" font-size="14.00">7</text>
</g>
<!-- Biblioteca&#45;&#45;Teatro -->
<g id="edge60" class="edge">
<title>Biblioteca&#45;&#45;Teatro</title>
<path fill="none" stroke="black" d="M671.68,-192.48C658.63,-216.02 635.86,-257.06 622.91,-280.41"/>
<text text-anchor="middle" x="643.13" y="-239.72" font-family="Arial" font-size="14.00">8</text>
</g>
<!-- Biblioteca&#45;&#45;AP -->
<g id="edge63" class="edge">
<title>Biblioteca&#45;&#45;AP</title>
<path fill="none" stroke="black" d="M635.77,-179.74C607.5,-182.96 572.23,-186.96 548.42,-189.67"/>
<text text-anchor="middle" x="582.17" y="-171.6" font-family="Arial" font-size="14.00">10</text>
</g>
<!-- AP&#45;&#45;Pavilhao -->
<g id="edge30" class="edge">
<title>AP&#45;&#45;Pavilhao</title>
<path fill="none" stroke="black" d="M526.79,-174.84C534.82,-147.34 550.12,-94.98 558.19,-67.35"/>
<text text-anchor="middle" x="538.35" y="-124.34" font-family="Arial" font-size="14.00">5</text>
</g>
<!-- AP&#45;&#45;Lago -->
<g id="edge38" class="edge">
<title>AP&#45;&#45;Lago</title>
<path fill="none" stroke="black" d="M496.05,-186.58C488.24,-184.7 479.61,-182.62 471.64,-180.71"/>
<text text-anchor="middle" x="488.03" y="-186.86" font-family="Arial" font-size="14.00">9</text>
</g>
<!-- AP&#45;&#45;Topo -->
<g id="edge14" class="edge">
<title>AP&#45;&#45;Topo</title>
<path fill="none" stroke="black" d="M515.67,-210.62C505.92,-240.19 486.57,-298.89 476.85,-328.39"/>
<text text-anchor="middle" x="492.12" y="-272.73" font-family="Arial" font-size="14.00">9</text>
</g>
<!-- AP&#45;&#45;Escadas1 -->
<g id="edge18" class="edge">
<title>AP&#45;&#45;Escadas1</title>
<path fill="none" stroke="black" d="M501.47,-180.12C491.19,-173.81 478.4,-166.18 466.69,-159.81 437.02,-143.66 402.26,-126.8 378.03,-115.38"/>
<text text-anchor="middle" x="448.68" y="-132.66" font-family="Arial" font-size="14.00">10</text>
</g>
<!-- AP&#45;&#45;Teatro -->
<g id="edge12" class="edge">
<title>AP&#45;&#45;Teatro</title>
<path fill="none" stroke="red" stroke-width="4" d="M535.08,-208.25C552.1,-227.81 581.22,-261.28 598.68,-281.35"/>
<text text-anchor="middle" x="562.59" y="-231.31" font-family="Arial" font-size="14.00">7</text>
</g>
<!-- AP&#45;&#45;Biblioteca -->
<g id="edge31" class="edge">
<title>AP&#45;&#45;Biblioteca</title>
<path fill="none" stroke="black" d="M548.36,-189.67C572.12,-186.97 607.35,-182.97 635.62,-179.76"/>
<text text-anchor="middle" x="582.05" y="-188.11" font-family="Arial" font-size="14.00">10</text>
</g>
<!-- Miradouro&#45;&#45;Torreao -->
<g id="edge20" class="edge">
<title>Miradouro&#45;&#45;Torreao</title>
<path fill="none" stroke="black" d="M326.74,-466.56C307.19,-468.88 284.86,-471.53 266.29,-473.73"/>
<text text-anchor="middle" x="292.02" y="-473.39" font-family="Arial" font-size="14.00">9</text>
</g>
<!-- Miradouro&#45;&#45;Fontaine -->
<g id="edge46" class="edge">
<title>Miradouro&#45;&#45;Fontaine</title>
<path fill="none" stroke="black" d="M371.35,-479.23C366.86,-503.58 358.99,-546.31 354.51,-570.64"/>
<text text-anchor="middle" x="358.8" y="-528.14" font-family="Arial" font-size="14.00">8</text>
</g>
<!-- Miradouro&#45;&#45;Capela -->
<g id="edge59" class="edge">
<title>Miradouro&#45;&#45;Capela</title>
<path fill="none" stroke="black" d="M361.85,-443.06C349.03,-425.31 329.48,-398.26 316.85,-380.78"/>
<text text-anchor="middle" x="335.15" y="-398.52" font-family="Arial" font-size="14.00">4</text>
</g>
<!-- Miradouro&#45;&#45;Topo -->
<g id="edge62" class="edge">
<title>Miradouro&#45;&#45;Topo</title>
<path fill="none" stroke="black" d="M389.35,-443.46C407.76,-421.52 439.15,-384.12 457.17,-362.64"/>
<text text-anchor="middle" x="419.28" y="-406.08" font-family="Arial" font-size="14.00">3</text>
</g>
<!-- Sentimentos&#45;&#45;Escadas2 -->
<g id="edge34" class="edge">
<title>Sentimentos&#45;&#45;Escadas2</title>
<path fill="none" stroke="black" d="M79.84,-227.56C102.74,-211.44 137.13,-187.25 159.7,-171.37"/>
<text text-anchor="middle" x="115.77" y="-202.57" font-family="Arial" font-size="14.00">7</text>
</g>
<!-- Sentimentos&#45;&#45;Escadas3 -->
<g id="edge47" class="edge">
<title>Sentimentos&#45;&#45;Escadas3</title>
<path fill="none" stroke="black" d="M78.37,-261.21C97.1,-275.41 123.69,-295.57 142.2,-309.6"/>
<text text-anchor="middle" x="114.49" y="-288.67" font-family="Arial" font-size="14.00">5</text>
</g>
</g>
</svg>
