<?xml version="1.0" encoding="us-ascii" standalone="no"?><svg xmlns="http://www.w3.org/2000/svg" xmlns:xlink="http://www.w3.org/1999/xlink" contentStyleType="text/css" height="428px" preserveAspectRatio="none" style="width:743px;height:428px;background:#FFFFFF;" version="1.1" viewBox="0 0 743 428" width="743px" zoomAndPan="magnify"><defs/><g><text fill="#000000" font-family="sans-serif" font-size="14" font-weight="bold" lengthAdjust="spacing" textLength="363" x="189.25" y="28.5352">System Sequence Diagram (SSD) - Alternative One</text><rect fill="#FFFFFF" height="176.8633" style="stroke:#181818;stroke-width:1.0;" width="10" x="64.5" y="145.4648"/><rect fill="#FFFFFF" height="29.3105" style="stroke:#181818;stroke-width:1.0;" width="10" x="699.5" y="166.7754"/><rect fill="#FFFFFF" height="29.3105" style="stroke:#181818;stroke-width:1.0;" width="10" x="699.5" y="225.3965"/><rect fill="#FFFFFF" height="29.3105" style="stroke:#181818;stroke-width:1.0;" width="10" x="699.5" y="284.0176"/><line style="stroke:#181818;stroke-width:0.5;stroke-dasharray:5.0,5.0;" x1="69" x2="69" y1="135.4648" y2="331.3281"/><line style="stroke:#181818;stroke-width:0.5;stroke-dasharray:5.0,5.0;" x1="704.5" x2="704.5" y1="135.4648" y2="331.3281"/><text fill="#000000" font-family="sans-serif" font-size="14" lengthAdjust="spacing" textLength="123" x="5" y="116.0234">Human Resources</text><text fill="#000000" font-family="sans-serif" font-size="14" lengthAdjust="spacing" textLength="60" x="36.5" y="132.5117">Manager</text><ellipse cx="69.5" cy="50.9883" fill="#E3E3E3" rx="8" ry="8" style="stroke:#181818;stroke-width:0.5;"/><path d="M69.5,58.9883 L69.5,85.9883 M56.5,66.9883 L82.5,66.9883 M69.5,85.9883 L56.5,100.9883 M69.5,85.9883 L82.5,100.9883 " fill="none" style="stroke:#181818;stroke-width:0.5;"/><text fill="#000000" font-family="sans-serif" font-size="14" lengthAdjust="spacing" textLength="123" x="5" y="343.8633">Human Resources</text><text fill="#000000" font-family="sans-serif" font-size="14" lengthAdjust="spacing" textLength="60" x="36.5" y="360.3516">Manager</text><ellipse cx="69.5" cy="371.8047" fill="#E3E3E3" rx="8" ry="8" style="stroke:#181818;stroke-width:0.5;"/><path d="M69.5,379.8047 L69.5,406.8047 M56.5,387.8047 L82.5,387.8047 M69.5,406.8047 L56.5,421.8047 M69.5,406.8047 L82.5,421.8047 " fill="none" style="stroke:#181818;stroke-width:0.5;"/><rect fill="#E3E3E3" height="30.4883" rx="2.5" ry="2.5" style="stroke:#181818;stroke-width:0.5;" width="66" x="671.5" y="103.9766"/><text fill="#000000" font-family="sans-serif" font-size="14" lengthAdjust="spacing" textLength="52" x="678.5" y="124.5117">:System</text><rect fill="#E3E3E3" height="30.4883" rx="2.5" ry="2.5" style="stroke:#181818;stroke-width:0.5;" width="66" x="671.5" y="330.3281"/><text fill="#000000" font-family="sans-serif" font-size="14" lengthAdjust="spacing" textLength="52" x="678.5" y="350.8633">:System</text><rect fill="#FFFFFF" height="176.8633" style="stroke:#181818;stroke-width:1.0;" width="10" x="64.5" y="145.4648"/><rect fill="#FFFFFF" height="29.3105" style="stroke:#181818;stroke-width:1.0;" width="10" x="699.5" y="166.7754"/><rect fill="#FFFFFF" height="29.3105" style="stroke:#181818;stroke-width:1.0;" width="10" x="699.5" y="225.3965"/><rect fill="#FFFFFF" height="29.3105" style="stroke:#181818;stroke-width:1.0;" width="10" x="699.5" y="284.0176"/><polygon fill="#181818" points="687.5,162.7754,697.5,166.7754,687.5,170.7754,691.5,166.7754" style="stroke:#181818;stroke-width:1.0;"/><line style="stroke:#181818;stroke-width:1.0;" x1="74.5" x2="693.5" y1="166.7754" y2="166.7754"/><text fill="#000000" font-family="sans-serif" font-size="13" font-weight="bold" lengthAdjust="spacing" textLength="9" x="81.5" y="162.0332">1</text><text fill="#000000" font-family="sans-serif" font-size="13" lengthAdjust="spacing" textLength="298" x="94.5" y="162.0332">asks to generate a team proposal automatically</text><polygon fill="#181818" points="85.5,192.0859,75.5,196.0859,85.5,200.0859,81.5,196.0859" style="stroke:#181818;stroke-width:1.0;"/><line style="stroke:#181818;stroke-width:1.0;stroke-dasharray:2.0,2.0;" x1="79.5" x2="703.5" y1="196.0859" y2="196.0859"/><text fill="#000000" font-family="sans-serif" font-size="13" font-weight="bold" lengthAdjust="spacing" textLength="9" x="91.5" y="191.3438">2</text><text fill="#000000" font-family="sans-serif" font-size="13" lengthAdjust="spacing" textLength="588" x="104.5" y="191.3438">requests data (i.e. a reference, a designation, an informal description, a technical description)</text><polygon fill="#181818" points="687.5,221.3965,697.5,225.3965,687.5,229.3965,691.5,225.3965" style="stroke:#181818;stroke-width:1.0;"/><line style="stroke:#181818;stroke-width:1.0;" x1="74.5" x2="693.5" y1="225.3965" y2="225.3965"/><text fill="#000000" font-family="sans-serif" font-size="13" font-weight="bold" lengthAdjust="spacing" textLength="9" x="81.5" y="220.6543">3</text><text fill="#000000" font-family="sans-serif" font-size="13" lengthAdjust="spacing" textLength="131" x="94.5" y="220.6543">types requested data</text><polygon fill="#181818" points="85.5,250.707,75.5,254.707,85.5,258.707,81.5,254.707" style="stroke:#181818;stroke-width:1.0;"/><line style="stroke:#181818;stroke-width:1.0;stroke-dasharray:2.0,2.0;" x1="79.5" x2="703.5" y1="254.707" y2="254.707"/><text fill="#000000" font-family="sans-serif" font-size="13" font-weight="bold" lengthAdjust="spacing" textLength="9" x="91.5" y="249.9648">4</text><text fill="#000000" font-family="sans-serif" font-size="13" lengthAdjust="spacing" textLength="442" x="104.5" y="249.9648">shows list of existing task categories and (In)Success of the operation</text><polygon fill="#181818" points="687.5,280.0176,697.5,284.0176,687.5,288.0176,691.5,284.0176" style="stroke:#181818;stroke-width:1.0;"/><line style="stroke:#181818;stroke-width:1.0;" x1="74.5" x2="693.5" y1="284.0176" y2="284.0176"/><text fill="#000000" font-family="sans-serif" font-size="13" font-weight="bold" lengthAdjust="spacing" textLength="9" x="81.5" y="279.2754">5</text><text fill="#000000" font-family="sans-serif" font-size="13" lengthAdjust="spacing" textLength="245" x="94.5" y="279.2754">selects a team automatically generated</text><polygon fill="#181818" points="85.5,309.3281,75.5,313.3281,85.5,317.3281,81.5,313.3281" style="stroke:#181818;stroke-width:1.0;"/><line style="stroke:#181818;stroke-width:1.0;stroke-dasharray:2.0,2.0;" x1="79.5" x2="703.5" y1="313.3281" y2="313.3281"/><text fill="#000000" font-family="sans-serif" font-size="13" font-weight="bold" lengthAdjust="spacing" textLength="9" x="91.5" y="308.5859">6</text><text fill="#000000" font-family="sans-serif" font-size="13" lengthAdjust="spacing" textLength="170" x="104.5" y="308.5859">displays operation success</text><!--SRC=[dPBDJYin38NtynHMLwr4-m1T8261TEy28J5RDYRZpaHDd11xW7bxd6cdWCHTNB9Av9_p-JXoz9onO8IOEBcXf4YWPQH6Bf6CxeWzjJe5Wa9EaVlmDK46xDARvnuE68IQHhrQQZk9KeIMNaPYHt3hiQ_fwxQztS0MRe9IOLJ_Il30LeQZ9XxZCnMxEqq5Ld_6Y0oF96aiZkI9xv6DfQm01UvY3caYQWn3lVCPMM6rF-dE6QVhtCs_ej9dIGDsbXTihnVQlPKT1JH1JqobrY0eLHjAoaamGCMCXkqmX6dkSsc_wC7vd9jkhVz5QsyUcYEY0XqgmjhlQ6SYXGvKgb5NzkX8V5-zIMnF1i-7LAA9My0Ldyy18tC3LvAlWSsitz6FM3_Eh5CcMRYecy5-CvaCwKqWU5581w1tkzHleUOfE6lJf-9D2Bc3zL_UjAEpfKhDrO4WvMgu3V3V_4B1_gKig_gseSiYE_ZDI9sN772IJpgG4_O_A3y0]--></g></svg>