<?xml version="1.0" encoding="us-ascii" standalone="no"?><svg xmlns="http://www.w3.org/2000/svg" xmlns:xlink="http://www.w3.org/1999/xlink" contentStyleType="text/css" height="835px" preserveAspectRatio="none" style="width:332px;height:835px;background:#FFFFFF;" version="1.1" viewBox="0 0 332 835" width="332px" zoomAndPan="magnify"><defs/><g><!--class AgendaRepository--><g id="elem_AgendaRepository"><rect codeLine="12" fill="#F1F1F1" height="80.9766" id="AgendaRepository" rx="2.5" ry="2.5" style="stroke:#181818;stroke-width:0.5;" width="167" x="97" y="381.47"/><ellipse cx="116.05" cy="397.47" fill="#ADD1B2" rx="11" ry="11" style="stroke:#181818;stroke-width:1.0;"/><path d="M119.0231,403.1131 Q118.4421,403.4119 117.8029,403.5613 Q117.1638,403.7107 116.4582,403.7107 Q113.9514,403.7107 112.6315,402.0589 Q111.3117,400.407 111.3117,397.2859 Q111.3117,394.1565 112.6315,392.5047 Q113.9514,390.8528 116.4582,390.8528 Q117.1638,390.8528 117.8112,391.0022 Q118.4587,391.1516 119.0231,391.4505 L119.0231,394.1731 Q118.3923,393.5921 117.7988,393.3223 Q117.2053,393.0525 116.5744,393.0525 Q115.2297,393.0525 114.5449,394.1192 Q113.8601,395.1858 113.8601,397.2859 Q113.8601,399.3777 114.5449,400.4444 Q115.2297,401.511 116.5744,401.511 Q117.2053,401.511 117.7988,401.2412 Q118.3923,400.9715 119.0231,400.3904 Z " fill="#000000"/><text fill="#000000" font-family="sans-serif" font-size="14" lengthAdjust="spacing" textLength="126" x="130.95" y="402.761">AgendaRepository</text><line style="stroke:#181818;stroke-width:0.5;" x1="98" x2="263" y1="413.47" y2="413.47"/><text fill="#000000" font-family="sans-serif" font-size="14" lengthAdjust="spacing" textLength="155" x="103" y="431.0052">+getVehicleRepository</text><text fill="#000000" font-family="sans-serif" font-size="14" lengthAdjust="spacing" textLength="113" x="103" y="447.4934">+registerVehicle</text><line style="stroke:#181818;stroke-width:0.5;" x1="98" x2="263" y1="454.4466" y2="454.4466"/></g><!--class Repositories--><g id="elem_Repositories"><rect codeLine="19" fill="#F1F1F1" height="97.4648" id="Repositories" rx="2.5" ry="2.5" style="stroke:#181818;stroke-width:0.5;" width="209" x="59" y="224"/><ellipse cx="116.75" cy="240" fill="#ADD1B2" rx="11" ry="11" style="stroke:#181818;stroke-width:1.0;"/><path d="M119.7231,245.6431 Q119.1421,245.9419 118.5029,246.0913 Q117.8638,246.2407 117.1582,246.2407 Q114.6514,246.2407 113.3315,244.5889 Q112.0117,242.937 112.0117,239.8159 Q112.0117,236.6865 113.3315,235.0347 Q114.6514,233.3828 117.1582,233.3828 Q117.8638,233.3828 118.5112,233.5322 Q119.1587,233.6816 119.7231,233.9805 L119.7231,236.7031 Q119.0923,236.1221 118.4988,235.8523 Q117.9053,235.5825 117.2744,235.5825 Q115.9297,235.5825 115.2449,236.6492 Q114.5601,237.7158 114.5601,239.8159 Q114.5601,241.9077 115.2449,242.9744 Q115.9297,244.041 117.2744,244.041 Q117.9053,244.041 118.4988,243.7712 Q119.0923,243.5015 119.7231,242.9204 Z " fill="#000000"/><text fill="#000000" font-family="sans-serif" font-size="14" lengthAdjust="spacing" textLength="85" x="137.25" y="245.291">Repositories</text><line style="stroke:#181818;stroke-width:0.5;" x1="60" x2="267" y1="256" y2="256"/><line style="stroke:#181818;stroke-width:0.5;" x1="60" x2="267" y1="264" y2="264"/><text fill="#000000" font-family="sans-serif" font-size="14" lengthAdjust="spacing" textLength="103" x="65" y="281.5352">-Repositories()</text><text fill="#000000" font-family="sans-serif" font-size="14" lengthAdjust="spacing" textLength="197" x="65" y="298.0234">+getInstance() : Repositories</text><text fill="#000000" font-family="sans-serif" font-size="14" lengthAdjust="spacing" textLength="147" x="65" y="314.5117">+AgendaRepository()</text></g><!--class GSM--><g id="elem_GSM"><rect codeLine="26" fill="#F1F1F1" height="113.9531" id="GSM" rx="2.5" ry="2.5" style="stroke:#181818;stroke-width:0.5;" width="175" x="7" y="523.44"/><ellipse cx="75.25" cy="539.44" fill="#ADD1B2" rx="11" ry="11" style="stroke:#181818;stroke-width:1.0;"/><path d="M78.2231,545.0831 Q77.6421,545.3819 77.0029,545.5313 Q76.3638,545.6807 75.6582,545.6807 Q73.1514,545.6807 71.8315,544.0289 Q70.5117,542.377 70.5117,539.2559 Q70.5117,536.1265 71.8315,534.4747 Q73.1514,532.8228 75.6582,532.8228 Q76.3638,532.8228 77.0112,532.9722 Q77.6587,533.1216 78.2231,533.4205 L78.2231,536.1431 Q77.5923,535.5621 76.9988,535.2923 Q76.4053,535.0225 75.7744,535.0225 Q74.4297,535.0225 73.7449,536.0892 Q73.0601,537.1558 73.0601,539.2559 Q73.0601,541.3477 73.7449,542.4144 Q74.4297,543.481 75.7744,543.481 Q76.4053,543.481 76.9988,543.2112 Q77.5923,542.9415 78.2231,542.3604 Z " fill="#000000"/><text fill="#000000" font-family="sans-serif" font-size="14" lengthAdjust="spacing" textLength="30" x="95.75" y="544.731">GSM</text><line style="stroke:#181818;stroke-width:0.5;" x1="8" x2="181" y1="555.44" y2="555.44"/><text fill="#000000" font-family="sans-serif" font-size="14" lengthAdjust="spacing" textLength="38" x="13" y="572.9752">name</text><text fill="#000000" font-family="sans-serif" font-size="14" lengthAdjust="spacing" textLength="37" x="13" y="589.4634">email</text><text fill="#000000" font-family="sans-serif" font-size="14" lengthAdjust="spacing" textLength="102" x="13" y="605.9517">phone number</text><text fill="#000000" font-family="sans-serif" font-size="14" lengthAdjust="spacing" textLength="163" x="13" y="622.44">identification document</text><line style="stroke:#181818;stroke-width:0.5;" x1="8" x2="181" y1="629.3931" y2="629.3931"/></g><!--class Entry--><g id="elem_Entry"><rect codeLine="34" fill="#F1F1F1" height="113.9531" id="Entry" rx="2.5" ry="2.5" style="stroke:#181818;stroke-width:0.5;" width="69" x="146" y="714.4"/><ellipse cx="161.9" cy="730.4" fill="#ADD1B2" rx="11" ry="11" style="stroke:#181818;stroke-width:1.0;"/><path d="M164.8731,736.0431 Q164.2921,736.3419 163.6529,736.4913 Q163.0138,736.6407 162.3082,736.6407 Q159.8014,736.6407 158.4815,734.9889 Q157.1617,733.337 157.1617,730.2159 Q157.1617,727.0865 158.4815,725.4347 Q159.8014,723.7828 162.3082,723.7828 Q163.0138,723.7828 163.6612,723.9322 Q164.3087,724.0816 164.8731,724.3805 L164.8731,727.1031 Q164.2423,726.5221 163.6488,726.2523 Q163.0553,725.9825 162.4244,725.9825 Q161.0797,725.9825 160.3949,727.0492 Q159.7101,728.1158 159.7101,730.2159 Q159.7101,732.3077 160.3949,733.3744 Q161.0797,734.441 162.4244,734.441 Q163.0553,734.441 163.6488,734.1712 Q164.2423,733.9015 164.8731,733.3204 Z " fill="#000000"/><text fill="#000000" font-family="sans-serif" font-size="14" lengthAdjust="spacing" textLength="35" x="176.1" y="735.691">Entry</text><line style="stroke:#181818;stroke-width:0.5;" x1="147" x2="214" y1="746.4" y2="746.4"/><text fill="#000000" font-family="sans-serif" font-size="14" lengthAdjust="spacing" textLength="49" x="152" y="763.9352">entryID</text><text fill="#000000" font-family="sans-serif" font-size="14" lengthAdjust="spacing" textLength="28" x="152" y="780.4234">task</text><text fill="#000000" font-family="sans-serif" font-size="14" lengthAdjust="spacing" textLength="57" x="152" y="796.9117">dueDate</text><text fill="#000000" font-family="sans-serif" font-size="14" lengthAdjust="spacing" textLength="41" x="152" y="813.4">status</text><line style="stroke:#181818;stroke-width:0.5;" x1="147" x2="214" y1="820.3531" y2="820.3531"/></g><!--class AdminUI--><g id="elem_AdminUI"><rect fill="#F1F1F1" height="48" id="AdminUI" rx="2.5" ry="2.5" style="stroke:#181818;stroke-width:0.5;" width="91" x="197" y="7"/><ellipse cx="212" cy="23" fill="#ADD1B2" rx="11" ry="11" style="stroke:#181818;stroke-width:1.0;"/><path d="M214.9731,28.6431 Q214.3921,28.9419 213.7529,29.0913 Q213.1138,29.2407 212.4082,29.2407 Q209.9014,29.2407 208.5815,27.5889 Q207.2617,25.937 207.2617,22.8159 Q207.2617,19.6865 208.5815,18.0347 Q209.9014,16.3828 212.4082,16.3828 Q213.1138,16.3828 213.7612,16.5322 Q214.4087,16.6816 214.9731,16.9805 L214.9731,19.7031 Q214.3423,19.1221 213.7488,18.8523 Q213.1553,18.5825 212.5244,18.5825 Q211.1797,18.5825 210.4949,19.6492 Q209.8101,20.7158 209.8101,22.8159 Q209.8101,24.9077 210.4949,25.9744 Q211.1797,27.041 212.5244,27.041 Q213.1553,27.041 213.7488,26.7712 Q214.3423,26.5015 214.9731,25.9204 Z " fill="#000000"/><text fill="#000000" font-family="sans-serif" font-size="14" lengthAdjust="spacing" textLength="59" x="226" y="28.291">AdminUI</text><line style="stroke:#181818;stroke-width:0.5;" x1="198" x2="287" y1="39" y2="39"/><line style="stroke:#181818;stroke-width:0.5;" x1="198" x2="287" y1="47" y2="47"/></g><!--class AgendaController--><g id="elem_AgendaController"><rect fill="#F1F1F1" height="48" id="AgendaController" rx="2.5" ry="2.5" style="stroke:#181818;stroke-width:0.5;" width="155" x="165" y="115"/><ellipse cx="180" cy="131" fill="#ADD1B2" rx="11" ry="11" style="stroke:#181818;stroke-width:1.0;"/><path d="M182.9731,136.6431 Q182.3921,136.9419 181.7529,137.0913 Q181.1138,137.2407 180.4082,137.2407 Q177.9014,137.2407 176.5815,135.5889 Q175.2617,133.937 175.2617,130.8159 Q175.2617,127.6865 176.5815,126.0347 Q177.9014,124.3828 180.4082,124.3828 Q181.1138,124.3828 181.7612,124.5322 Q182.4087,124.6816 182.9731,124.9805 L182.9731,127.7031 Q182.3423,127.1221 181.7488,126.8523 Q181.1553,126.5825 180.5244,126.5825 Q179.1797,126.5825 178.4949,127.6492 Q177.8101,128.7158 177.8101,130.8159 Q177.8101,132.9077 178.4949,133.9744 Q179.1797,135.041 180.5244,135.041 Q181.1553,135.041 181.7488,134.7712 Q182.3423,134.5015 182.9731,133.9204 Z " fill="#000000"/><text fill="#000000" font-family="sans-serif" font-size="14" lengthAdjust="spacing" textLength="123" x="194" y="136.291">AgendaController</text><line style="stroke:#181818;stroke-width:0.5;" x1="166" x2="319" y1="147" y2="147"/><line style="stroke:#181818;stroke-width:0.5;" x1="166" x2="319" y1="155" y2="155"/></g><!--class Agenda--><g id="elem_Agenda"><rect fill="#F1F1F1" height="48" id="Agenda" rx="2.5" ry="2.5" style="stroke:#181818;stroke-width:0.5;" width="85" x="240" y="556.42"/><ellipse cx="255" cy="572.42" fill="#ADD1B2" rx="11" ry="11" style="stroke:#181818;stroke-width:1.0;"/><path d="M257.9731,578.0631 Q257.3921,578.3619 256.7529,578.5113 Q256.1138,578.6607 255.4082,578.6607 Q252.9014,578.6607 251.5815,577.0089 Q250.2617,575.357 250.2617,572.2359 Q250.2617,569.1065 251.5815,567.4547 Q252.9014,565.8028 255.4082,565.8028 Q256.1138,565.8028 256.7612,565.9522 Q257.4087,566.1016 257.9731,566.4005 L257.9731,569.1231 Q257.3423,568.5421 256.7488,568.2723 Q256.1553,568.0025 255.5244,568.0025 Q254.1797,568.0025 253.4949,569.0692 Q252.8101,570.1358 252.8101,572.2359 Q252.8101,574.3277 253.4949,575.3944 Q254.1797,576.461 255.5244,576.461 Q256.1553,576.461 256.7488,576.1912 Q257.3423,575.9215 257.9731,575.3404 Z " fill="#000000"/><text fill="#000000" font-family="sans-serif" font-size="14" lengthAdjust="spacing" textLength="53" x="269" y="577.711">Agenda</text><line style="stroke:#181818;stroke-width:0.5;" x1="241" x2="324" y1="588.42" y2="588.42"/><line style="stroke:#181818;stroke-width:0.5;" x1="241" x2="324" y1="596.42" y2="596.42"/></g><!--link AdminUI to AgendaController--><g id="link_AdminUI_AgendaController"><path codeLine="42" d="M242.5,55.26 C242.5,72.94 242.5,91.13 242.5,108.79 " fill="none" id="AdminUI-to-AgendaController" style="stroke:#181818;stroke-width:1.0;"/><polygon fill="#181818" points="242.5,114.79,246.5,105.79,242.5,109.79,238.5,105.79,242.5,114.79" style="stroke:#181818;stroke-width:1.0;"/></g><!--link Repositories to AgendaRepository--><g id="link_Repositories_AgendaRepository"><path codeLine="43" d="M169.07,321.94 C171.27,341.06 173.0898,356.8298 175.1998,375.0498 " fill="none" id="Repositories-to-AgendaRepository" style="stroke:#181818;stroke-width:1.0;"/><polygon fill="#181818" points="175.89,381.01,178.8281,371.6096,175.3148,376.0432,170.8812,372.5299,175.89,381.01" style="stroke:#181818;stroke-width:1.0;"/></g><!--link AgendaController to Repositories--><g id="link_AgendaController_Repositories"><path codeLine="44" d="M228.56,163.25 C218.55,179.94 207.7862,197.8946 195.4362,218.4846 " fill="none" id="AgendaController-to-Repositories" style="stroke:#181818;stroke-width:1.0;"/><polygon fill="#181818" points="192.35,223.63,200.4096,217.9694,194.9219,219.3422,193.5491,213.8544,192.35,223.63" style="stroke:#181818;stroke-width:1.0;"/></g><!--link AgendaRepository to Agenda--><g id="link_AgendaRepository_Agenda"><path codeLine="45" d="M206.5,462.84 C225.74,492.36 248.0125,526.5243 264.0425,551.1043 " fill="none" id="AgendaRepository-to-Agenda" style="stroke:#181818;stroke-width:1.0;"/><polygon fill="#181818" points="267.32,556.13,265.7542,546.4064,264.5887,551.9419,259.0532,550.7765,267.32,556.13" style="stroke:#181818;stroke-width:1.0;"/></g><!--link AgendaController to Agenda--><g id="link_AgendaController_Agenda"><path codeLine="46" d="M254.48,163.4 C267.2,188.26 285.5,224 285.5,224 C285.5,224 285.5,321.47 285.5,321.47 C285.5,321.47 283.5799,486.5804 282.8399,550.0704 " fill="none" id="AgendaController-to-Agenda" style="stroke:#181818;stroke-width:1.0;"/><polygon fill="#181818" points="282.77,556.07,286.8746,547.1172,282.8283,551.0703,278.8752,547.024,282.77,556.07" style="stroke:#181818;stroke-width:1.0;"/></g><!--link GSM to Entry--><g id="link_GSM_Entry"><path codeLine="47" d="M76.79,637.81 C71.7,654.01 67.5,667.4 67.5,667.4 C67.5,667.4 67.5,684.4 67.5,684.4 C67.5,684.4 112.47,718.61 145.67,743.88 " fill="none" id="GSM-Entry" style="stroke:#181818;stroke-width:1.0;"/><polygon fill="#000000" points="75.2231,680.2487,72.7618,671.0621,67.8321,674.2634,75.2231,680.2487" style="stroke:#000000;stroke-width:1.0;"/><text fill="#000000" font-family="sans-serif" font-size="13" lengthAdjust="spacing" textLength="55" x="81.5" y="680.9684">registers</text><text fill="#000000" font-family="sans-serif" font-size="13" lengthAdjust="spacing" textLength="8" x="66.2798" y="657.8996">1</text><text fill="#000000" font-family="sans-serif" font-size="13" lengthAdjust="spacing" textLength="6" x="131.8676" y="734.2623">*</text></g><!--link GSM to Entry--><g id="link_GSM_Entry"><path codeLine="48" d="M125.33,637.81 C134.18,654.01 141.5,667.4 141.5,667.4 C141.5,667.4 150.07,690.02 159.17,714.06 " fill="none" id="GSM-Entry-1" style="stroke:#181818;stroke-width:1.0;"/><polygon fill="#000000" points="154.5282,680.6254,153.5454,671.1658,148.1729,673.5501,154.5282,680.6254" style="stroke:#000000;stroke-width:1.0;"/><text fill="#000000" font-family="sans-serif" font-size="13" lengthAdjust="spacing" textLength="47" x="161.5" y="680.9684">cancels</text><text fill="#000000" font-family="sans-serif" font-size="13" lengthAdjust="spacing" textLength="8" x="120.4322" y="657.8996">1</text><text fill="#000000" font-family="sans-serif" font-size="13" lengthAdjust="spacing" textLength="6" x="150.2048" y="703.7478">*</text></g><!--link Agenda to Entry--><g id="link_Agenda_Entry"><path codeLine="49" d="M269.99,604.59 C255.36,631.69 230.63,677.51 210.87,714.11 " fill="none" id="Agenda-Entry" style="stroke:#181818;stroke-width:1.0;"/><polygon fill="#000000" points="238.1249,680.4551,245.0077,673.8917,239.8353,671.0997,238.1249,680.4551" style="stroke:#000000;stroke-width:1.0;"/><text fill="#000000" font-family="sans-serif" font-size="13" lengthAdjust="spacing" textLength="51" x="249.5" y="680.9684">made of</text><text fill="#000000" font-family="sans-serif" font-size="13" lengthAdjust="spacing" textLength="8" x="257.9657" y="624.9158">1</text><text fill="#000000" font-family="sans-serif" font-size="13" lengthAdjust="spacing" textLength="6" x="208.2057" y="703.8039">*</text></g><!--SRC=[TL8xRy8m4DxzAuuiq5P8PUs0X4fLPUXIrEx6EP8JVaJsfLLQyT_hE402efukzptk_3dJi2TRIoyD66UTghmp2EmR50DIIxMN9MwurGWU5KjRwZ4XLB9mtsHBs4aTneWcYzpM2BNJRVSXfZT0vzc9aKff6SAAsTEsOSoLinlwGNWKOgfnny0EF9KLGq7TEkHiHE0BAr9nmtUiNI1sleN9PB8GoGrM9Tf23jYlW7WUIkJFNZT0FUAnfC3eZx0uY7XwhpELC41lDBzepkvw3uZskGqnC8MpEtYw81qfruj5xU4ywNNprljRQJ0LQ2JfLDMLimYsCLlqgK45MgOTATb50eLJZOcTaTsBvTFDiIlpTQfPXdqgYWRNalj1SMjkGXAl2aFs8uVvV7bSzzb5kTCwJhu8Os2CuhoM9DP54jUIaSzjzH6ByK2so68BiliCidI_BEPyUhm0o_z9gdiMtL5wkzii8uluX-uYwmy0]--></g></svg>