<?xml version="1.0" encoding="us-ascii" standalone="no"?><svg xmlns="http://www.w3.org/2000/svg" xmlns:xlink="http://www.w3.org/1999/xlink" contentStyleType="text/css" height="487px" preserveAspectRatio="none" style="width:1067px;height:487px;background:#FFFFFF;" version="1.1" viewBox="0 0 1067 487" width="1067px" zoomAndPan="magnify"><defs/><g><rect fill="#FFFFFF" height="297.2832" style="stroke:#181818;stroke-width:1.0;" width="10" x="81" y="91.4883"/><rect fill="#FFFFFF" height="275.9727" style="stroke:#181818;stroke-width:1.0;" width="10" x="568" y="112.7988"/><rect fill="#FFFFFF" height="175.8633" style="stroke:#181818;stroke-width:1.0;" width="10" x="718.5" y="183.5977"/><rect fill="#FFFFFF" height="29.3105" style="stroke:#181818;stroke-width:1.0;" width="10" x="850.5" y="212.9082"/><rect fill="#FFFFFF" height="29.3105" style="stroke:#181818;stroke-width:1.0;" width="10" x="984" y="271.5293"/><line style="stroke:#181818;stroke-width:0.5;stroke-dasharray:5.0,5.0;" x1="86" x2="86" y1="81.4883" y2="406.7715"/><line style="stroke:#181818;stroke-width:0.5;stroke-dasharray:5.0,5.0;" x1="572.5" x2="572.5" y1="81.4883" y2="406.7715"/><line style="stroke:#181818;stroke-width:0.5;stroke-dasharray:5.0,5.0;" x1="723" x2="723" y1="151.543" y2="406.7715"/><line style="stroke:#181818;stroke-width:0.5;stroke-dasharray:5.0,5.0;" x1="855" x2="855" y1="81.4883" y2="406.7715"/><line style="stroke:#181818;stroke-width:0.5;stroke-dasharray:5.0,5.0;" x1="989" x2="989" y1="81.4883" y2="406.7715"/><text fill="#000000" font-family="sans-serif" font-size="14" lengthAdjust="spacing" textLength="156" x="5" y="78.5352">Green Spaces Manager</text><ellipse cx="86" cy="13.5" fill="#E3E3E3" rx="8" ry="8" style="stroke:#181818;stroke-width:0.5;"/><path d="M86,21.5 L86,48.5 M73,29.5 L99,29.5 M86,48.5 L73,63.5 M86,48.5 L99,63.5 " fill="none" style="stroke:#181818;stroke-width:0.5;"/><text fill="#000000" font-family="sans-serif" font-size="14" lengthAdjust="spacing" textLength="156" x="5" y="419.3066">Green Spaces Manager</text><ellipse cx="86" cy="430.7598" fill="#E3E3E3" rx="8" ry="8" style="stroke:#181818;stroke-width:0.5;"/><path d="M86,438.7598 L86,465.7598 M73,446.7598 L99,446.7598 M86,465.7598 L73,480.7598 M86,465.7598 L99,480.7598 " fill="none" style="stroke:#181818;stroke-width:0.5;"/><rect fill="#E3E3E3" height="30.4883" rx="2.5" ry="2.5" style="stroke:#181818;stroke-width:0.5;" width="77" x="534.5" y="50"/><text fill="#000000" font-family="sans-serif" font-size="14" lengthAdjust="spacing" textLength="63" x="541.5" y="70.5352">:AdminUI</text><rect fill="#E3E3E3" height="30.4883" rx="2.5" ry="2.5" style="stroke:#181818;stroke-width:0.5;" width="77" x="534.5" y="405.7715"/><text fill="#000000" font-family="sans-serif" font-size="14" lengthAdjust="spacing" textLength="63" x="541.5" y="426.3066">:AdminUI</text><rect fill="#E3E3E3" height="30.4883" rx="2.5" ry="2.5" style="stroke:#181818;stroke-width:0.5;" width="141" x="653" y="405.7715"/><text fill="#000000" font-family="sans-serif" font-size="14" lengthAdjust="spacing" textLength="127" x="660" y="426.3066">:AgendaController</text><rect fill="#E3E3E3" height="30.4883" rx="2.5" ry="2.5" style="stroke:#181818;stroke-width:0.5;" width="103" x="804" y="50"/><text fill="#000000" font-family="sans-serif" font-size="14" lengthAdjust="spacing" textLength="89" x="811" y="70.5352">:Repositories</text><rect fill="#E3E3E3" height="30.4883" rx="2.5" ry="2.5" style="stroke:#181818;stroke-width:0.5;" width="103" x="804" y="405.7715"/><text fill="#000000" font-family="sans-serif" font-size="14" lengthAdjust="spacing" textLength="89" x="811" y="426.3066">:Repositories</text><rect fill="#E3E3E3" height="46.9766" rx="2.5" ry="2.5" style="stroke:#181818;stroke-width:0.5;" width="144" x="917" y="33.5117"/><text fill="#000000" font-family="sans-serif" font-size="14" lengthAdjust="spacing" textLength="130" x="924" y="54.0469">AgendaRepository:</text><text fill="#000000" font-family="sans-serif" font-size="14" lengthAdjust="spacing" textLength="126" x="926" y="70.5352">AgendaRepository</text><rect fill="#E3E3E3" height="46.9766" rx="2.5" ry="2.5" style="stroke:#181818;stroke-width:0.5;" width="144" x="917" y="405.7715"/><text fill="#000000" font-family="sans-serif" font-size="14" lengthAdjust="spacing" textLength="130" x="924" y="426.3066">AgendaRepository:</text><text fill="#000000" font-family="sans-serif" font-size="14" lengthAdjust="spacing" textLength="126" x="926" y="442.7949">AgendaRepository</text><rect fill="#FFFFFF" height="297.2832" style="stroke:#181818;stroke-width:1.0;" width="10" x="81" y="91.4883"/><rect fill="#FFFFFF" height="275.9727" style="stroke:#181818;stroke-width:1.0;" width="10" x="568" y="112.7988"/><rect fill="#FFFFFF" height="175.8633" style="stroke:#181818;stroke-width:1.0;" width="10" x="718.5" y="183.5977"/><rect fill="#FFFFFF" height="29.3105" style="stroke:#181818;stroke-width:1.0;" width="10" x="850.5" y="212.9082"/><rect fill="#FFFFFF" height="29.3105" style="stroke:#181818;stroke-width:1.0;" width="10" x="984" y="271.5293"/><polygon fill="#181818" points="556,108.7988,566,112.7988,556,116.7988,560,112.7988" style="stroke:#181818;stroke-width:1.0;"/><line style="stroke:#181818;stroke-width:1.0;" x1="91" x2="562" y1="112.7988" y2="112.7988"/><text fill="#000000" font-family="sans-serif" font-size="13" font-weight="bold" lengthAdjust="spacing" textLength="9" x="98" y="108.0566">1</text><text fill="#000000" font-family="sans-serif" font-size="13" lengthAdjust="spacing" textLength="236" x="111" y="108.0566">asks to cancel an entry in the Agenda</text><polygon fill="#181818" points="641,138.1094,651,142.1094,641,146.1094,645,142.1094" style="stroke:#181818;stroke-width:1.0;"/><line style="stroke:#181818;stroke-width:1.0;" x1="578" x2="647" y1="142.1094" y2="142.1094"/><text fill="#000000" font-family="sans-serif" font-size="13" font-weight="bold" lengthAdjust="spacing" textLength="9" x="585" y="137.3672">2</text><text fill="#000000" font-family="sans-serif" font-size="13" lengthAdjust="spacing" textLength="38" x="598" y="137.3672">create</text><rect fill="#E3E3E3" height="30.4883" rx="2.5" ry="2.5" style="stroke:#181818;stroke-width:0.5;" width="141" x="653" y="120.7988"/><text fill="#000000" font-family="sans-serif" font-size="14" lengthAdjust="spacing" textLength="127" x="660" y="141.334">:AgendaController</text><polygon fill="#181818" points="706.5,179.5977,716.5,183.5977,706.5,187.5977,710.5,183.5977" style="stroke:#181818;stroke-width:1.0;"/><line style="stroke:#181818;stroke-width:1.0;" x1="578" x2="712.5" y1="183.5977" y2="183.5977"/><text fill="#000000" font-family="sans-serif" font-size="13" font-weight="bold" lengthAdjust="spacing" textLength="9" x="585" y="178.8555">3</text><text fill="#000000" font-family="sans-serif" font-size="13" lengthAdjust="spacing" textLength="52" x="598" y="178.8555">getEntry</text><polygon fill="#181818" points="838.5,208.9082,848.5,212.9082,838.5,216.9082,842.5,212.9082" style="stroke:#181818;stroke-width:1.0;"/><line style="stroke:#181818;stroke-width:1.0;" x1="728.5" x2="844.5" y1="212.9082" y2="212.9082"/><text fill="#000000" font-family="sans-serif" font-size="13" font-weight="bold" lengthAdjust="spacing" textLength="9" x="735.5" y="208.166">4</text><text fill="#000000" font-family="sans-serif" font-size="13" lengthAdjust="spacing" textLength="81" x="748.5" y="208.166">getInstance()</text><polygon fill="#181818" points="739.5,238.2188,729.5,242.2188,739.5,246.2188,735.5,242.2188" style="stroke:#181818;stroke-width:1.0;"/><line style="stroke:#181818;stroke-width:1.0;stroke-dasharray:2.0,2.0;" x1="733.5" x2="854.5" y1="242.2188" y2="242.2188"/><text fill="#000000" font-family="sans-serif" font-size="13" font-weight="bold" lengthAdjust="spacing" textLength="9" x="745.5" y="237.4766">5</text><text fill="#000000" font-family="sans-serif" font-size="13" lengthAdjust="spacing" textLength="75" x="758.5" y="237.4766">repositories</text><polygon fill="#181818" points="972,267.5293,982,271.5293,972,275.5293,976,271.5293" style="stroke:#181818;stroke-width:1.0;"/><line style="stroke:#181818;stroke-width:1.0;" x1="728.5" x2="978" y1="271.5293" y2="271.5293"/><text fill="#000000" font-family="sans-serif" font-size="13" font-weight="bold" lengthAdjust="spacing" textLength="9" x="735.5" y="266.7871">6</text><text fill="#000000" font-family="sans-serif" font-size="13" lengthAdjust="spacing" textLength="142" x="748.5" y="266.7871">getAgendaRepository()</text><polygon fill="#181818" points="739.5,296.8398,729.5,300.8398,739.5,304.8398,735.5,300.8398" style="stroke:#181818;stroke-width:1.0;"/><line style="stroke:#181818;stroke-width:1.0;stroke-dasharray:2.0,2.0;" x1="733.5" x2="988" y1="300.8398" y2="300.8398"/><text fill="#000000" font-family="sans-serif" font-size="13" font-weight="bold" lengthAdjust="spacing" textLength="9" x="745.5" y="296.0977">7</text><text fill="#000000" font-family="sans-serif" font-size="13" lengthAdjust="spacing" textLength="112" x="758.5" y="296.0977">agendaRepository</text><polygon fill="#181818" points="589,326.1504,579,330.1504,589,334.1504,585,330.1504" style="stroke:#181818;stroke-width:1.0;"/><line style="stroke:#181818;stroke-width:1.0;stroke-dasharray:2.0,2.0;" x1="583" x2="717.5" y1="330.1504" y2="330.1504"/><text fill="#000000" font-family="sans-serif" font-size="13" font-weight="bold" lengthAdjust="spacing" textLength="9" x="595" y="325.4082">8</text><text fill="#000000" font-family="sans-serif" font-size="13" lengthAdjust="spacing" textLength="72" x="608" y="325.4082">cancelEntry</text><polygon fill="#181818" points="589,355.4609,579,359.4609,589,363.4609,585,359.4609" style="stroke:#181818;stroke-width:1.0;"/><line style="stroke:#181818;stroke-width:1.0;stroke-dasharray:2.0,2.0;" x1="583" x2="722.5" y1="359.4609" y2="359.4609"/><text fill="#000000" font-family="sans-serif" font-size="13" font-weight="bold" lengthAdjust="spacing" textLength="9" x="595" y="354.7188">9</text><text fill="#000000" font-family="sans-serif" font-size="13" lengthAdjust="spacing" textLength="84" x="608" y="354.7188">changeStatus</text><polygon fill="#181818" points="97,384.7715,87,388.7715,97,392.7715,93,388.7715" style="stroke:#181818;stroke-width:1.0;"/><line style="stroke:#181818;stroke-width:1.0;stroke-dasharray:2.0,2.0;" x1="91" x2="572" y1="388.7715" y2="388.7715"/><text fill="#000000" font-family="sans-serif" font-size="13" font-weight="bold" lengthAdjust="spacing" textLength="18" x="103" y="384.0293">10</text><text fill="#000000" font-family="sans-serif" font-size="13" lengthAdjust="spacing" textLength="431" x="125" y="384.0293">agenda's entry changes its status to cancelled without being deleted</text><!--SRC=[bLJBRkCm3BphAuXSqXRD3-HGeCWk5W6sbwQzzS98Z2t4bbo9RZT_lvIT-XMdG7MooU6GGv6AH-ig35X2wPtNUV0b0OUQLEmy5UeZPhJZKq4GI3Ewh1W2Oex6VrgNmG6BI4fXpTxLvPw2KilS6eA3zxpt_nHgzW4MVmAHWvqmKuGdT48V5e0H7dyzAI5bgss5Zc6nVZIbTQ_RnlkwdJepSWOttd7mHN7csBmy_vtWdgdoqKfgIx71T8RJpYOrKkyuf6NkOUitDpKrH2yOZnjaoiJGkvHAIks7E1f92iv7Vc3r849WBT772En1ezDK03eWqN42wu1pYMlIzQ4TeNH1BM5mX6qbf8bxBHVqNbFa20OPuIRGWG99Wdim57Mm5Lllxa6o77meiO0tD_OmwTnPBPwHsTG1so_j8z-gOG5B7IXLrdH-Mjb3OxwxazfQcBe24K16_3lrO8JeX3Vq8rSwJQXGp5nfoxXraLEBRsulOZlgkNcuGASpbsLr5f2Qty_PHRYXdwNx4ZO_OgsswKn-f_7QgCx9l9ApLugJnD-flReZLoH_BKYx69S3COFCvKsI5mgv7lTzKCNbz8psfXMqZESbR1aZMDcasF3sgrgGWK_BkQyPzfJUFKDoXsJKJDgqhQ3Km98UXFy0]--></g></svg>