<?xml version="1.0" encoding="us-ascii" standalone="no"?><svg xmlns="http://www.w3.org/2000/svg" xmlns:xlink="http://www.w3.org/1999/xlink" contentStyleType="text/css" height="664px" preserveAspectRatio="none" style="width:1025px;height:664px;background:#FFFFFF;" version="1.1" viewBox="0 0 1025 664" width="1025px" zoomAndPan="magnify"><defs/><g><rect fill="#FFFFFF" height="474.457" style="stroke:#181818;stroke-width:1.0;" width="10" x="96.5" y="91.4883"/><rect fill="#FFFFFF" height="277.2832" style="stroke:#181818;stroke-width:1.0;" width="10" x="489.5" y="112.7988"/><rect fill="#FFFFFF" height="29.3105" style="stroke:#181818;stroke-width:1.0;" width="10" x="489.5" y="419.3926"/><rect fill="#FFFFFF" height="87.9316" style="stroke:#181818;stroke-width:1.0;" width="10" x="489.5" y="478.0137"/><rect fill="#FFFFFF" height="146.5527" style="stroke:#181818;stroke-width:1.0;" width="10" x="660.5" y="183.5977"/><rect fill="#FFFFFF" height="29.3105" style="stroke:#181818;stroke-width:1.0;" width="10" x="813" y="212.9082"/><rect fill="#FFFFFF" height="29.3105" style="stroke:#181818;stroke-width:1.0;" width="10" x="944.5" y="271.5293"/><rect fill="#FFFFFF" height="29.3105" style="stroke:#181818;stroke-width:1.0;" width="10" x="944.5" y="507.3242"/><line style="stroke:#181818;stroke-width:0.5;stroke-dasharray:5.0,5.0;" x1="101" x2="101" y1="81.4883" y2="583.9453"/><line style="stroke:#181818;stroke-width:0.5;stroke-dasharray:5.0,5.0;" x1="494.5" x2="494.5" y1="81.4883" y2="583.9453"/><line style="stroke:#181818;stroke-width:0.5;stroke-dasharray:5.0,5.0;" x1="665.5" x2="665.5" y1="151.543" y2="583.9453"/><line style="stroke:#181818;stroke-width:0.5;stroke-dasharray:5.0,5.0;" x1="817.5" x2="817.5" y1="81.4883" y2="583.9453"/><line style="stroke:#181818;stroke-width:0.5;stroke-dasharray:5.0,5.0;" x1="949.5" x2="949.5" y1="81.4883" y2="583.9453"/><text fill="#000000" font-family="sans-serif" font-size="14" lengthAdjust="spacing" textLength="187" x="5" y="78.5352">Human Resources Manager</text><ellipse cx="101.5" cy="13.5" fill="#E3E3E3" rx="8" ry="8" style="stroke:#181818;stroke-width:0.5;"/><path d="M101.5,21.5 L101.5,48.5 M88.5,29.5 L114.5,29.5 M101.5,48.5 L88.5,63.5 M101.5,48.5 L114.5,63.5 " fill="none" style="stroke:#181818;stroke-width:0.5;"/><text fill="#000000" font-family="sans-serif" font-size="14" lengthAdjust="spacing" textLength="187" x="5" y="596.4805">Human Resources Manager</text><ellipse cx="101.5" cy="607.9336" fill="#E3E3E3" rx="8" ry="8" style="stroke:#181818;stroke-width:0.5;"/><path d="M101.5,615.9336 L101.5,642.9336 M88.5,623.9336 L114.5,623.9336 M101.5,642.9336 L88.5,657.9336 M101.5,642.9336 L114.5,657.9336 " fill="none" style="stroke:#181818;stroke-width:0.5;"/><rect fill="#E3E3E3" height="30.4883" rx="2.5" ry="2.5" style="stroke:#181818;stroke-width:0.5;" width="126" x="431.5" y="50"/><text fill="#000000" font-family="sans-serif" font-size="14" lengthAdjust="spacing" textLength="112" x="438.5" y="70.5352">:CreateVehicleUI</text><rect fill="#E3E3E3" height="30.4883" rx="2.5" ry="2.5" style="stroke:#181818;stroke-width:0.5;" width="126" x="431.5" y="582.9453"/><text fill="#000000" font-family="sans-serif" font-size="14" lengthAdjust="spacing" textLength="112" x="438.5" y="603.4805">:CreateVehicleUI</text><rect fill="#E3E3E3" height="30.4883" rx="2.5" ry="2.5" style="stroke:#181818;stroke-width:0.5;" width="182" x="574.5" y="582.9453"/><text fill="#000000" font-family="sans-serif" font-size="14" lengthAdjust="spacing" textLength="168" x="581.5" y="603.4805">:CreateVehicleController</text><rect fill="#E3E3E3" height="30.4883" rx="2.5" ry="2.5" style="stroke:#181818;stroke-width:0.5;" width="103" x="766.5" y="50"/><text fill="#000000" font-family="sans-serif" font-size="14" lengthAdjust="spacing" textLength="89" x="773.5" y="70.5352">:Repositories</text><rect fill="#E3E3E3" height="30.4883" rx="2.5" ry="2.5" style="stroke:#181818;stroke-width:0.5;" width="103" x="766.5" y="582.9453"/><text fill="#000000" font-family="sans-serif" font-size="14" lengthAdjust="spacing" textLength="89" x="773.5" y="603.4805">:Repositories</text><rect fill="#E3E3E3" height="46.9766" rx="2.5" ry="2.5" style="stroke:#181818;stroke-width:0.5;" width="140" x="879.5" y="33.5117"/><text fill="#000000" font-family="sans-serif" font-size="14" lengthAdjust="spacing" textLength="126" x="886.5" y="54.0469">VehicleRepository:</text><text fill="#000000" font-family="sans-serif" font-size="14" lengthAdjust="spacing" textLength="122" x="888.5" y="70.5352">VehicleRepository</text><rect fill="#E3E3E3" height="46.9766" rx="2.5" ry="2.5" style="stroke:#181818;stroke-width:0.5;" width="140" x="879.5" y="582.9453"/><text fill="#000000" font-family="sans-serif" font-size="14" lengthAdjust="spacing" textLength="126" x="886.5" y="603.4805">VehicleRepository:</text><text fill="#000000" font-family="sans-serif" font-size="14" lengthAdjust="spacing" textLength="122" x="888.5" y="619.9688">VehicleRepository</text><rect fill="#FFFFFF" height="474.457" style="stroke:#181818;stroke-width:1.0;" width="10" x="96.5" y="91.4883"/><rect fill="#FFFFFF" height="277.2832" style="stroke:#181818;stroke-width:1.0;" width="10" x="489.5" y="112.7988"/><rect fill="#FFFFFF" height="29.3105" style="stroke:#181818;stroke-width:1.0;" width="10" x="489.5" y="419.3926"/><rect fill="#FFFFFF" height="87.9316" style="stroke:#181818;stroke-width:1.0;" width="10" x="489.5" y="478.0137"/><rect fill="#FFFFFF" height="146.5527" style="stroke:#181818;stroke-width:1.0;" width="10" x="660.5" y="183.5977"/><rect fill="#FFFFFF" height="29.3105" style="stroke:#181818;stroke-width:1.0;" width="10" x="813" y="212.9082"/><rect fill="#FFFFFF" height="29.3105" style="stroke:#181818;stroke-width:1.0;" width="10" x="944.5" y="271.5293"/><rect fill="#FFFFFF" height="29.3105" style="stroke:#181818;stroke-width:1.0;" width="10" x="944.5" y="507.3242"/><polygon fill="#181818" points="477.5,108.7988,487.5,112.7988,477.5,116.7988,481.5,112.7988" style="stroke:#181818;stroke-width:1.0;"/><line style="stroke:#181818;stroke-width:1.0;" x1="106.5" x2="483.5" y1="112.7988" y2="112.7988"/><text fill="#000000" font-family="sans-serif" font-size="13" font-weight="bold" lengthAdjust="spacing" textLength="9" x="113.5" y="108.0566">1</text><text fill="#000000" font-family="sans-serif" font-size="13" lengthAdjust="spacing" textLength="157" x="126.5" y="108.0566">asks to register a vehicle</text><polygon fill="#181818" points="562.5,138.1094,572.5,142.1094,562.5,146.1094,566.5,142.1094" style="stroke:#181818;stroke-width:1.0;"/><line style="stroke:#181818;stroke-width:1.0;" x1="499.5" x2="568.5" y1="142.1094" y2="142.1094"/><text fill="#000000" font-family="sans-serif" font-size="13" font-weight="bold" lengthAdjust="spacing" textLength="9" x="506.5" y="137.3672">2</text><text fill="#000000" font-family="sans-serif" font-size="13" lengthAdjust="spacing" textLength="38" x="519.5" y="137.3672">create</text><rect fill="#E3E3E3" height="30.4883" rx="2.5" ry="2.5" style="stroke:#181818;stroke-width:0.5;" width="182" x="574.5" y="120.7988"/><text fill="#000000" font-family="sans-serif" font-size="14" lengthAdjust="spacing" textLength="168" x="581.5" y="141.334">:CreateVehicleController</text><polygon fill="#181818" points="648.5,179.5977,658.5,183.5977,648.5,187.5977,652.5,183.5977" style="stroke:#181818;stroke-width:1.0;"/><line style="stroke:#181818;stroke-width:1.0;" x1="499.5" x2="654.5" y1="183.5977" y2="183.5977"/><text fill="#000000" font-family="sans-serif" font-size="13" font-weight="bold" lengthAdjust="spacing" textLength="9" x="506.5" y="178.8555">3</text><text fill="#000000" font-family="sans-serif" font-size="13" lengthAdjust="spacing" textLength="65" x="519.5" y="178.8555">getVehicle</text><polygon fill="#181818" points="801,208.9082,811,212.9082,801,216.9082,805,212.9082" style="stroke:#181818;stroke-width:1.0;"/><line style="stroke:#181818;stroke-width:1.0;" x1="670.5" x2="807" y1="212.9082" y2="212.9082"/><text fill="#000000" font-family="sans-serif" font-size="13" font-weight="bold" lengthAdjust="spacing" textLength="9" x="677.5" y="208.166">4</text><text fill="#000000" font-family="sans-serif" font-size="13" lengthAdjust="spacing" textLength="81" x="690.5" y="208.166">getInstance()</text><polygon fill="#181818" points="681.5,238.2188,671.5,242.2188,681.5,246.2188,677.5,242.2188" style="stroke:#181818;stroke-width:1.0;"/><line style="stroke:#181818;stroke-width:1.0;stroke-dasharray:2.0,2.0;" x1="675.5" x2="817" y1="242.2188" y2="242.2188"/><text fill="#000000" font-family="sans-serif" font-size="13" font-weight="bold" lengthAdjust="spacing" textLength="9" x="687.5" y="237.4766">5</text><text fill="#000000" font-family="sans-serif" font-size="13" lengthAdjust="spacing" textLength="75" x="700.5" y="237.4766">repositories</text><polygon fill="#181818" points="932.5,267.5293,942.5,271.5293,932.5,275.5293,936.5,271.5293" style="stroke:#181818;stroke-width:1.0;"/><line style="stroke:#181818;stroke-width:1.0;" x1="670.5" x2="938.5" y1="271.5293" y2="271.5293"/><text fill="#000000" font-family="sans-serif" font-size="13" font-weight="bold" lengthAdjust="spacing" textLength="9" x="677.5" y="266.7871">6</text><text fill="#000000" font-family="sans-serif" font-size="13" lengthAdjust="spacing" textLength="140" x="690.5" y="266.7871">getVehicleRepository()</text><polygon fill="#181818" points="681.5,296.8398,671.5,300.8398,681.5,304.8398,677.5,300.8398" style="stroke:#181818;stroke-width:1.0;"/><line style="stroke:#181818;stroke-width:1.0;stroke-dasharray:2.0,2.0;" x1="675.5" x2="948.5" y1="300.8398" y2="300.8398"/><text fill="#000000" font-family="sans-serif" font-size="13" font-weight="bold" lengthAdjust="spacing" textLength="9" x="687.5" y="296.0977">7</text><text fill="#000000" font-family="sans-serif" font-size="13" lengthAdjust="spacing" textLength="111" x="700.5" y="296.0977">vehicleRepository</text><polygon fill="#181818" points="510.5,326.1504,500.5,330.1504,510.5,334.1504,506.5,330.1504" style="stroke:#181818;stroke-width:1.0;"/><line style="stroke:#181818;stroke-width:1.0;stroke-dasharray:2.0,2.0;" x1="504.5" x2="664.5" y1="330.1504" y2="330.1504"/><text fill="#000000" font-family="sans-serif" font-size="13" font-weight="bold" lengthAdjust="spacing" textLength="9" x="516.5" y="325.4082">8</text><text fill="#000000" font-family="sans-serif" font-size="13" lengthAdjust="spacing" textLength="95" x="529.5" y="325.4082">vehicleRegister</text><polygon fill="#181818" points="117.5,386.082,107.5,390.082,117.5,394.082,113.5,390.082" style="stroke:#181818;stroke-width:1.0;"/><line style="stroke:#181818;stroke-width:1.0;stroke-dasharray:2.0,2.0;" x1="111.5" x2="493.5" y1="390.082" y2="390.082"/><text fill="#000000" font-family="sans-serif" font-size="13" font-weight="bold" lengthAdjust="spacing" textLength="9" x="123.5" y="370.0293">9</text><text fill="#000000" font-family="sans-serif" font-size="13" lengthAdjust="spacing" textLength="346" x="136.5" y="354.7188">requests data (Brand, Model, Type, Tare, Gross Weight ,</text><text fill="#000000" font-family="sans-serif" font-size="13" lengthAdjust="spacing" textLength="280" x="140.5" y="370.0293">Current Km, Register Date, Acquisition Date,</text><text fill="#000000" font-family="sans-serif" font-size="13" lengthAdjust="spacing" textLength="280" x="140.5" y="385.3398">Maintenance/Check- up Frequency (in Kms))</text><polygon fill="#181818" points="477.5,415.3926,487.5,419.3926,477.5,423.3926,481.5,419.3926" style="stroke:#181818;stroke-width:1.0;"/><line style="stroke:#181818;stroke-width:1.0;" x1="106.5" x2="483.5" y1="419.3926" y2="419.3926"/><text fill="#000000" font-family="sans-serif" font-size="13" font-weight="bold" lengthAdjust="spacing" textLength="18" x="113.5" y="414.6504">10</text><text fill="#000000" font-family="sans-serif" font-size="13" lengthAdjust="spacing" textLength="131" x="135.5" y="414.6504">types requested data</text><polygon fill="#181818" points="117.5,444.7031,107.5,448.7031,117.5,452.7031,113.5,448.7031" style="stroke:#181818;stroke-width:1.0;"/><line style="stroke:#181818;stroke-width:1.0;stroke-dasharray:2.0,2.0;" x1="111.5" x2="493.5" y1="448.7031" y2="448.7031"/><text fill="#000000" font-family="sans-serif" font-size="13" font-weight="bold" lengthAdjust="spacing" textLength="18" x="123.5" y="443.9609">11</text><text fill="#000000" font-family="sans-serif" font-size="13" lengthAdjust="spacing" textLength="260" x="145.5" y="443.9609">shows all data and requests confirmation</text><polygon fill="#181818" points="477.5,474.0137,487.5,478.0137,477.5,482.0137,481.5,478.0137" style="stroke:#181818;stroke-width:1.0;"/><line style="stroke:#181818;stroke-width:1.0;" x1="106.5" x2="483.5" y1="478.0137" y2="478.0137"/><text fill="#000000" font-family="sans-serif" font-size="13" font-weight="bold" lengthAdjust="spacing" textLength="18" x="113.5" y="473.2715">12</text><text fill="#000000" font-family="sans-serif" font-size="13" lengthAdjust="spacing" textLength="87" x="135.5" y="473.2715">confirms data</text><polygon fill="#181818" points="932.5,503.3242,942.5,507.3242,932.5,511.3242,936.5,507.3242" style="stroke:#181818;stroke-width:1.0;"/><line style="stroke:#181818;stroke-width:1.0;" x1="499.5" x2="938.5" y1="507.3242" y2="507.3242"/><text fill="#000000" font-family="sans-serif" font-size="13" font-weight="bold" lengthAdjust="spacing" textLength="18" x="506.5" y="502.582">13</text><text fill="#000000" font-family="sans-serif" font-size="13" lengthAdjust="spacing" textLength="93" x="528.5" y="502.582">registerVehicle</text><polygon fill="#181818" points="510.5,532.6348,500.5,536.6348,510.5,540.6348,506.5,536.6348" style="stroke:#181818;stroke-width:1.0;"/><line style="stroke:#181818;stroke-width:1.0;stroke-dasharray:2.0,2.0;" x1="504.5" x2="948.5" y1="536.6348" y2="536.6348"/><text fill="#000000" font-family="sans-serif" font-size="13" font-weight="bold" lengthAdjust="spacing" textLength="18" x="516.5" y="531.8926">14</text><text fill="#000000" font-family="sans-serif" font-size="13" lengthAdjust="spacing" textLength="45" x="538.5" y="531.8926">Vehicle</text><polygon fill="#181818" points="112.5,561.9453,102.5,565.9453,112.5,569.9453,108.5,565.9453" style="stroke:#181818;stroke-width:1.0;"/><line style="stroke:#181818;stroke-width:1.0;stroke-dasharray:2.0,2.0;" x1="106.5" x2="493.5" y1="565.9453" y2="565.9453"/><text fill="#000000" font-family="sans-serif" font-size="13" font-weight="bold" lengthAdjust="spacing" textLength="18" x="118.5" y="561.2031">15</text><text fill="#000000" font-family="sans-serif" font-size="13" lengthAdjust="spacing" textLength="170" x="140.5" y="561.2031">displays operation success</text><!--SRC=[bLLDRzim3BthLn2v92qSx9v3WIx5jc3B9KsxIo-ipDX2RCaLvNRvzwFjnCw7dNKw137rzCX7FygyDRP0ZpdapZgTUfSJ15-IudQdGBt5X1x3BYFmf0FQ93i6S8gn-p0sWGrcJ4fX6PmjyrVoIerJ4nDid0klxez27Po7qOyoHmihObTwJGnBj9B1Zm0PxX-MIdY3qQP06s0qctl2GC-K6ftHqw96FIskWURE1k-oR4yvNwz-dS5NL3WsKemXhZ5jOFTeAdsYuFJ8dhh3pLxiHQocMYDlvr9C8e5kIwbAlNcNZLgZWlsI1vZUYIAOoUajGt3IviHm80y8xqsE3j-oI0_K68wMK4o5gIAS2SLRIHmOOWm84qyRycGrHH0JQs-AO9oD08pTE9zZ1Y_sT2UGJgtHidCIZakFpJ_jEDoeumB6kduBJSFFAxkhmxUtKbi3KmCG0IGKzhqzmRJIwmGdMzMg3mj9pxjiE1UMnRsQ9ZSNPrlgFYDSeAlLbsMwbr2rlpFOnV6O_Y_TGLY_iqxwrOMlYHooQ9_EWQITrFVppDVq3Wx7WEZ3PBH9ci5G0_INnhWs55yzsZY2fOifYs2zAsGwrkZbzxjtpF2RJ986Y6GqvgMNyGdmCu_WK0GyICe8xlLRQKI734KJ4VWIZGraAxDzcQUajrCe2_XMvxTw1nDZXOflkdTq9A8QxFER8KXnVAYVubg0khWEUaLpwZuOCCiQrIAvwuDsTcDa_AlYrIVAsEFvIlvca0UjUhZQdWVljN-PyueXwnfRvhxUVihwvuRgzzCCOiD5XZi6Lr1pAmANMhvetDVBeyVg0_0N]--></g></svg>