<?xml version="1.0" encoding="UTF-8" standalone="no"?>
<!DOCTYPE svg PUBLIC "-//W3C//DTD SVG 1.1//EN"
 "http://www.w3.org/Graphics/SVG/1.1/DTD/svg11.dtd">
<!-- Generated by graphviz version 11.0.0 (20240428.1522)
 -->
<!-- Pages: 1 -->
<svg width="849pt" height="1061pt"
 viewBox="0.00 0.00 848.50 1061.20" xmlns="http://www.w3.org/2000/svg" xmlns:xlink="http://www.w3.org/1999/xlink">
<g id="graph0" class="graph" transform="scale(1 1) rotate(0) translate(4 1057.2)">
<polygon fill="white" stroke="none" points="-4,4 -4,-1057.2 844.5,-1057.2 844.5,4 -4,4"/>
<text text-anchor="middle" x="420.25" y="-1025.45" font-family="Arial" font-size="25.00">Minimum Spanning Tree (total cost:141.0)</text>
<!-- Tilia -->
<g id="node1" class="node">
<title>Tilia</title>
<ellipse fill="none" stroke="black" cx="358.38" cy="-757.15" rx="27" ry="18"/>
<text text-anchor="middle" x="358.38" y="-751.73" font-family="Times New Roman,serif" font-size="14.00">Tilia</text>
</g>
<!-- Camelia_e3 -->
<g id="node2" class="node">
<title>Camelia_e3</title>
<ellipse fill="none" stroke="black" cx="507.84" cy="-729.4" rx="53.56" ry="18"/>
<text text-anchor="middle" x="507.84" y="-723.98" font-family="Times New Roman,serif" font-size="14.00">Camelia_e3</text>
</g>
<!-- Tilia&#45;&#45;Camelia_e3 -->
<g id="edge1" class="edge">
<title>Tilia&#45;&#45;Camelia_e3</title>
<path fill="none" stroke="red" stroke-width="4" d="M384.76,-752.26C405.71,-748.37 435.54,-742.83 460.59,-738.18"/>
<text text-anchor="middle" x="417.01" y="-748.7" font-family="Arial" font-size="14.00">3</text>
</g>
<!-- Camelia_e2 -->
<g id="node6" class="node">
<title>Camelia_e2</title>
<ellipse fill="none" stroke="black" cx="492.6" cy="-856.39" rx="53.56" ry="18"/>
<text text-anchor="middle" x="492.6" y="-850.97" font-family="Times New Roman,serif" font-size="14.00">Camelia_e2</text>
</g>
<!-- Tilia&#45;&#45;Camelia_e2 -->
<g id="edge22" class="edge">
<title>Tilia&#45;&#45;Camelia_e2</title>
<path fill="none" stroke="black" d="M376.76,-770.75C401.03,-788.69 443.74,-820.27 469.97,-839.66"/>
<text text-anchor="middle" x="418.51" y="-807.86" font-family="Arial" font-size="14.00">7</text>
</g>
<!-- Camelia_e4 -->
<g id="node19" class="node">
<title>Camelia_e4</title>
<ellipse fill="none" stroke="black" cx="446.97" cy="-626.56" rx="53.56" ry="18"/>
<text text-anchor="middle" x="446.97" y="-621.13" font-family="Times New Roman,serif" font-size="14.00">Camelia_e4</text>
</g>
<!-- Tilia&#45;&#45;Camelia_e4 -->
<g id="edge24" class="edge">
<title>Tilia&#45;&#45;Camelia_e4</title>
<path fill="none" stroke="black" d="M369.78,-740.35C386.51,-715.69 417.58,-669.88 434.76,-644.55"/>
<text text-anchor="middle" x="397.98" y="-695.9" font-family="Arial" font-size="14.00">7</text>
</g>
<!-- Castanheiro_India -->
<g id="node23" class="node">
<title>Castanheiro_India</title>
<ellipse fill="none" stroke="black" cx="226.94" cy="-639.13" rx="78.01" ry="18"/>
<text text-anchor="middle" x="226.94" y="-633.71" font-family="Times New Roman,serif" font-size="14.00">Castanheiro_India</text>
</g>
<!-- Tilia&#45;&#45;Castanheiro_India -->
<g id="edge34" class="edge">
<title>Tilia&#45;&#45;Castanheiro_India</title>
<path fill="none" stroke="black" d="M342,-742.45C317.78,-720.69 272.48,-680.02 246.53,-656.72"/>
<text text-anchor="middle" x="290.79" y="-703.36" font-family="Arial" font-size="14.00">9</text>
</g>
<!-- Camelia_d3 -->
<g id="node3" class="node">
<title>Camelia_d3</title>
<ellipse fill="none" stroke="black" cx="626.45" cy="-614.23" rx="54.56" ry="18"/>
<text text-anchor="middle" x="626.45" y="-608.8" font-family="Times New Roman,serif" font-size="14.00">Camelia_d3</text>
</g>
<!-- Camelia_e3&#45;&#45;Camelia_d3 -->
<g id="edge37" class="edge">
<title>Camelia_e3&#45;&#45;Camelia_d3</title>
<path fill="none" stroke="black" d="M525.6,-712.16C547.96,-690.45 586.16,-653.36 608.57,-631.59"/>
<text text-anchor="middle" x="558.81" y="-675.1" font-family="Arial" font-size="14.00">10</text>
</g>
<!-- Camelia_e3&#45;&#45;Camelia_e4 -->
<g id="edge17" class="edge">
<title>Camelia_e3&#45;&#45;Camelia_e4</title>
<path fill="none" stroke="red" stroke-width="4" d="M497.24,-711.49C486.13,-692.73 468.79,-663.43 457.65,-644.61"/>
<text text-anchor="middle" x="473.33" y="-681.27" font-family="Arial" font-size="14.00">6</text>
</g>
<!-- Camelia_d2 -->
<g id="node4" class="node">
<title>Camelia_d2</title>
<ellipse fill="none" stroke="black" cx="659.32" cy="-782.52" rx="54.56" ry="18"/>
<text text-anchor="middle" x="659.32" y="-777.09" font-family="Times New Roman,serif" font-size="14.00">Camelia_d2</text>
</g>
<!-- Camelia_d3&#45;&#45;Camelia_d2 -->
<g id="edge2" class="edge">
<title>Camelia_d3&#45;&#45;Camelia_d2</title>
<path fill="none" stroke="red" stroke-width="4" d="M630.03,-632.56C636.35,-664.93 649.42,-731.85 655.74,-764.21"/>
<text text-anchor="middle" x="638.76" y="-701.59" font-family="Arial" font-size="14.00">4</text>
</g>
<!-- Camelia_d1 -->
<g id="node11" class="node">
<title>Camelia_d1</title>
<ellipse fill="none" stroke="black" cx="690.68" cy="-940.37" rx="54.56" ry="18"/>
<text text-anchor="middle" x="690.68" y="-934.95" font-family="Times New Roman,serif" font-size="14.00">Camelia_d1</text>
</g>
<!-- Camelia_d2&#45;&#45;Camelia_d1 -->
<g id="edge7" class="edge">
<title>Camelia_d2&#45;&#45;Camelia_d1</title>
<path fill="none" stroke="red" stroke-width="4" d="M662.98,-800.93C669.02,-831.35 681.02,-891.73 687.05,-922.07"/>
<text text-anchor="middle" x="670.89" y="-864.73" font-family="Arial" font-size="14.00">5</text>
</g>
<!-- Camelia_e1 -->
<g id="node5" class="node">
<title>Camelia_e1</title>
<ellipse fill="none" stroke="black" cx="527.9" cy="-998.7" rx="53.56" ry="18"/>
<text text-anchor="middle" x="527.9" y="-993.27" font-family="Times New Roman,serif" font-size="14.00">Camelia_e1</text>
</g>
<!-- Camelia_e1&#45;&#45;Camelia_e2 -->
<g id="edge3" class="edge">
<title>Camelia_e1&#45;&#45;Camelia_e2</title>
<path fill="none" stroke="red" stroke-width="4" d="M523.36,-980.39C516.58,-953.06 503.9,-901.92 497.13,-874.64"/>
<text text-anchor="middle" x="506.12" y="-930.7" font-family="Arial" font-size="14.00">4</text>
</g>
<!-- Camelia_e1&#45;&#45;Camelia_d1 -->
<g id="edge43" class="edge">
<title>Camelia_e1&#45;&#45;Camelia_d1</title>
<path fill="none" stroke="black" d="M564.84,-985.46C591.2,-976.02 626.53,-963.36 653.04,-953.86"/>
<text text-anchor="middle" x="600.63" y="-972.88" font-family="Arial" font-size="14.00">10</text>
</g>
<!-- Camelia_e2&#45;&#45;Camelia_e3 -->
<g id="edge8" class="edge">
<title>Camelia_e2&#45;&#45;Camelia_e3</title>
<path fill="none" stroke="red" stroke-width="4" d="M494.82,-837.93C497.72,-813.71 502.79,-771.5 505.67,-747.48"/>
<text text-anchor="middle" x="496.13" y="-795.83" font-family="Arial" font-size="14.00">5</text>
</g>
<!-- Camelia_e2&#45;&#45;Camelia_d2 -->
<g id="edge35" class="edge">
<title>Camelia_e2&#45;&#45;Camelia_d2</title>
<path fill="none" stroke="red" stroke-width="4" d="M525.54,-841.8C554.67,-828.89 596.97,-810.15 626.16,-797.21"/>
<text text-anchor="middle" x="567.58" y="-822.71" font-family="Arial" font-size="14.00">10</text>
</g>
<!-- Carvalho -->
<g id="node7" class="node">
<title>Carvalho</title>
<ellipse fill="none" stroke="black" cx="377.72" cy="-917.47" rx="44.08" ry="18"/>
<text text-anchor="middle" x="377.72" y="-912.04" font-family="Times New Roman,serif" font-size="14.00">Carvalho</text>
</g>
<!-- Carvalho&#45;&#45;Tilia -->
<g id="edge32" class="edge">
<title>Carvalho&#45;&#45;Tilia</title>
<path fill="none" stroke="black" d="M375.5,-899.08C371.77,-868.15 364.29,-806.11 360.57,-775.33"/>
<text text-anchor="middle" x="363.9" y="-840.35" font-family="Arial" font-size="14.00">9</text>
</g>
<!-- Carvalho&#45;&#45;Camelia_e1 -->
<g id="edge4" class="edge">
<title>Carvalho&#45;&#45;Camelia_e1</title>
<path fill="none" stroke="red" stroke-width="4" d="M404.57,-931.99C431.23,-946.41 471.96,-968.44 499.24,-983.19"/>
<text text-anchor="middle" x="447.55" y="-960.67" font-family="Arial" font-size="14.00">4</text>
</g>
<!-- Carvalho&#45;&#45;Camelia_e2 -->
<g id="edge15" class="edge">
<title>Carvalho&#45;&#45;Camelia_e2</title>
<path fill="none" stroke="black" d="M404.94,-902.99C422.59,-893.61 445.56,-881.4 463.56,-871.83"/>
<text text-anchor="middle" x="430" y="-890.68" font-family="Arial" font-size="14.00">6</text>
</g>
<!-- Abrunheiro -->
<g id="node8" class="node">
<title>Abrunheiro</title>
<ellipse fill="none" stroke="black" cx="87.46" cy="-154.73" rx="52.56" ry="18"/>
<text text-anchor="middle" x="87.46" y="-149.31" font-family="Times New Roman,serif" font-size="14.00">Abrunheiro</text>
</g>
<!-- Ginkgo -->
<g id="node9" class="node">
<title>Ginkgo</title>
<ellipse fill="none" stroke="black" cx="152.98" cy="-18" rx="38.09" ry="18"/>
<text text-anchor="middle" x="152.98" y="-12.57" font-family="Times New Roman,serif" font-size="14.00">Ginkgo</text>
</g>
<!-- Abrunheiro&#45;&#45;Ginkgo -->
<g id="edge5" class="edge">
<title>Abrunheiro&#45;&#45;Ginkgo</title>
<path fill="none" stroke="red" stroke-width="4" d="M96.16,-136.58C108.76,-110.28 131.95,-61.89 144.45,-35.8"/>
<text text-anchor="middle" x="116.22" y="-89.31" font-family="Arial" font-size="14.00">4</text>
</g>
<!-- Camelia_d7 -->
<g id="node14" class="node">
<title>Camelia_d7</title>
<ellipse fill="none" stroke="black" cx="259.8" cy="-116.9" rx="54.56" ry="18"/>
<text text-anchor="middle" x="259.8" y="-111.47" font-family="Times New Roman,serif" font-size="14.00">Camelia_d7</text>
</g>
<!-- Abrunheiro&#45;&#45;Camelia_d7 -->
<g id="edge48" class="edge">
<title>Abrunheiro&#45;&#45;Camelia_d7</title>
<path fill="none" stroke="black" d="M132.29,-144.89C157.43,-139.37 188.71,-132.5 214,-126.95"/>
<text text-anchor="middle" x="164.84" y="-139.13" font-family="Arial" font-size="14.00">13</text>
</g>
<!-- Camelia_e9 -->
<g id="node17" class="node">
<title>Camelia_e9</title>
<ellipse fill="none" stroke="black" cx="174.5" cy="-234" rx="53.56" ry="18"/>
<text text-anchor="middle" x="174.5" y="-228.57" font-family="Times New Roman,serif" font-size="14.00">Camelia_e9</text>
</g>
<!-- Abrunheiro&#45;&#45;Camelia_e9 -->
<g id="edge18" class="edge">
<title>Abrunheiro&#45;&#45;Camelia_e9</title>
<path fill="none" stroke="red" stroke-width="4" d="M106.35,-171.93C120.95,-185.23 141.06,-203.54 155.65,-216.83"/>
<text text-anchor="middle" x="126.88" y="-197.59" font-family="Arial" font-size="14.00">6</text>
</g>
<!-- Ginkgo&#45;&#45;Camelia_d7 -->
<g id="edge47" class="edge">
<title>Ginkgo&#45;&#45;Camelia_d7</title>
<path fill="none" stroke="black" d="M170.62,-34.33C190.05,-52.33 221.19,-81.15 241.06,-99.54"/>
<text text-anchor="middle" x="197.43" y="-69.99" font-family="Arial" font-size="14.00">12</text>
</g>
<!-- Camelia_d4 -->
<g id="node10" class="node">
<title>Camelia_d4</title>
<ellipse fill="none" stroke="black" cx="508.3" cy="-489.46" rx="54.56" ry="18"/>
<text text-anchor="middle" x="508.3" y="-484.03" font-family="Times New Roman,serif" font-size="14.00">Camelia_d4</text>
</g>
<!-- Camelia_d4&#45;&#45;Camelia_d3 -->
<g id="edge6" class="edge">
<title>Camelia_d4&#45;&#45;Camelia_d3</title>
<path fill="none" stroke="red" stroke-width="4" d="M524.97,-507.07C547.49,-530.85 587.38,-572.97 609.86,-596.7"/>
<text text-anchor="middle" x="563.31" y="-555.1" font-family="Arial" font-size="14.00">5</text>
</g>
<!-- Sobreiro -->
<g id="node12" class="node">
<title>Sobreiro</title>
<ellipse fill="none" stroke="black" cx="797.42" cy="-844.83" rx="43.08" ry="18"/>
<text text-anchor="middle" x="797.42" y="-839.4" font-family="Times New Roman,serif" font-size="14.00">Sobreiro</text>
</g>
<!-- Sobreiro&#45;&#45;Camelia_d2 -->
<g id="edge27" class="edge">
<title>Sobreiro&#45;&#45;Camelia_d2</title>
<path fill="none" stroke="black" d="M767.8,-831.46C745.45,-821.38 714.81,-807.55 691.79,-797.17"/>
<text text-anchor="middle" x="725.92" y="-817.63" font-family="Arial" font-size="14.00">7</text>
</g>
<!-- Sobreiro&#45;&#45;Camelia_d1 -->
<g id="edge9" class="edge">
<title>Sobreiro&#45;&#45;Camelia_d1</title>
<path fill="none" stroke="red" stroke-width="4" d="M778.83,-861.47C759.48,-878.8 729.32,-905.79 709.78,-923.28"/>
<text text-anchor="middle" x="740.25" y="-895.51" font-family="Arial" font-size="14.00">5</text>
</g>
<!-- Liquidanbar -->
<g id="node13" class="node">
<title>Liquidanbar</title>
<ellipse fill="none" stroke="black" cx="55.06" cy="-330.44" rx="55.06" ry="18"/>
<text text-anchor="middle" x="55.06" y="-325.01" font-family="Times New Roman,serif" font-size="14.00">Liquidanbar</text>
</g>
<!-- Liquidanbar&#45;&#45;Abrunheiro -->
<g id="edge10" class="edge">
<title>Liquidanbar&#45;&#45;Abrunheiro</title>
<path fill="none" stroke="red" stroke-width="4" d="M58.4,-312.3C64.61,-278.63 77.85,-206.83 84.09,-173.04"/>
<text text-anchor="middle" x="67.11" y="-245.92" font-family="Arial" font-size="14.00">5</text>
</g>
<!-- Camelia_e8 -->
<g id="node16" class="node">
<title>Camelia_e8</title>
<ellipse fill="none" stroke="black" cx="180.01" cy="-364.54" rx="53.56" ry="18"/>
<text text-anchor="middle" x="180.01" y="-359.12" font-family="Times New Roman,serif" font-size="14.00">Camelia_e8</text>
</g>
<!-- Liquidanbar&#45;&#45;Camelia_e8 -->
<g id="edge30" class="edge">
<title>Liquidanbar&#45;&#45;Camelia_e8</title>
<path fill="none" stroke="black" d="M97.71,-342.08C110.72,-345.63 125.01,-349.53 137.97,-353.07"/>
<text text-anchor="middle" x="121.98" y="-350.78" font-family="Arial" font-size="14.00">8</text>
</g>
<!-- Liquidanbar&#45;&#45;Camelia_e9 -->
<g id="edge19" class="edge">
<title>Liquidanbar&#45;&#45;Camelia_e9</title>
<path fill="none" stroke="black" d="M76.13,-313.42C97.97,-295.79 131.87,-268.41 153.63,-250.85"/>
<text text-anchor="middle" x="110.79" y="-285.31" font-family="Arial" font-size="14.00">6</text>
</g>
<!-- Camelia_d6 -->
<g id="node15" class="node">
<title>Camelia_d6</title>
<ellipse fill="none" stroke="black" cx="319.39" cy="-258.69" rx="54.56" ry="18"/>
<text text-anchor="middle" x="319.39" y="-253.27" font-family="Times New Roman,serif" font-size="14.00">Camelia_d6</text>
</g>
<!-- Camelia_d7&#45;&#45;Camelia_d6 -->
<g id="edge11" class="edge">
<title>Camelia_d7&#45;&#45;Camelia_d6</title>
<path fill="none" stroke="red" stroke-width="4" d="M267.47,-135.14C278.91,-162.37 300.33,-213.33 311.75,-240.51"/>
<text text-anchor="middle" x="285.49" y="-191.04" font-family="Arial" font-size="14.00">6</text>
</g>
<!-- Camelia_d5 -->
<g id="node18" class="node">
<title>Camelia_d5</title>
<ellipse fill="none" stroke="black" cx="387.52" cy="-394.83" rx="54.56" ry="18"/>
<text text-anchor="middle" x="387.52" y="-389.41" font-family="Times New Roman,serif" font-size="14.00">Camelia_d5</text>
</g>
<!-- Camelia_d6&#45;&#45;Camelia_d5 -->
<g id="edge16" class="edge">
<title>Camelia_d6&#45;&#45;Camelia_d5</title>
<path fill="none" stroke="red" stroke-width="4" d="M328.43,-276.77C341.47,-302.81 365.38,-350.6 378.43,-376.68"/>
<text text-anchor="middle" x="349.3" y="-329.91" font-family="Arial" font-size="14.00">6</text>
</g>
<!-- Camelia_e8&#45;&#45;Camelia_d6 -->
<g id="edge42" class="edge">
<title>Camelia_e8&#45;&#45;Camelia_d6</title>
<path fill="none" stroke="black" d="M202.1,-347.77C228.19,-327.95 271.35,-295.17 297.41,-275.39"/>
<text text-anchor="middle" x="241.52" y="-314.76" font-family="Arial" font-size="14.00">10</text>
</g>
<!-- Camelia_e8&#45;&#45;Camelia_e9 -->
<g id="edge12" class="edge">
<title>Camelia_e8&#45;&#45;Camelia_e9</title>
<path fill="none" stroke="red" stroke-width="4" d="M179.23,-346.11C178.18,-321.23 176.32,-277.16 175.27,-252.33"/>
<text text-anchor="middle" x="173.13" y="-302.4" font-family="Arial" font-size="14.00">6</text>
</g>
<!-- Camelia_e9&#45;&#45;Camelia_d7 -->
<g id="edge41" class="edge">
<title>Camelia_e9&#45;&#45;Camelia_d7</title>
<path fill="none" stroke="black" d="M187.45,-216.21C203.49,-194.2 230.64,-156.93 246.73,-134.85"/>
<text text-anchor="middle" x="208.82" y="-178.76" font-family="Arial" font-size="14.00">10</text>
</g>
<!-- Camelia_e9&#45;&#45;Camelia_d6 -->
<g id="edge44" class="edge">
<title>Camelia_e9&#45;&#45;Camelia_d6</title>
<path fill="none" stroke="black" d="M222.74,-242.22C238.06,-244.83 255,-247.72 270.36,-250.34"/>
<text text-anchor="middle" x="238.28" y="-249.47" font-family="Arial" font-size="14.00">11</text>
</g>
<!-- Camelia_d5&#45;&#45;Camelia_d4 -->
<g id="edge13" class="edge">
<title>Camelia_d5&#45;&#45;Camelia_d4</title>
<path fill="none" stroke="red" stroke-width="4" d="M409.11,-411.75C431.1,-428.97 464.97,-455.52 486.89,-472.69"/>
<text text-anchor="middle" x="443.9" y="-445.44" font-family="Arial" font-size="14.00">6</text>
</g>
<!-- Camelia_e4&#45;&#45;Camelia_d4 -->
<g id="edge40" class="edge">
<title>Camelia_e4&#45;&#45;Camelia_d4</title>
<path fill="none" stroke="black" d="M455.11,-608.35C466.84,-582.13 488.37,-534 500.12,-507.74"/>
<text text-anchor="middle" x="469.36" y="-561.26" font-family="Arial" font-size="14.00">10</text>
</g>
<!-- Camelia_e6 -->
<g id="node20" class="node">
<title>Camelia_e6</title>
<ellipse fill="none" stroke="black" cx="353.32" cy="-561.2" rx="53.56" ry="18"/>
<text text-anchor="middle" x="353.32" y="-555.78" font-family="Times New Roman,serif" font-size="14.00">Camelia_e6</text>
</g>
<!-- Camelia_e4&#45;&#45;Camelia_e6 -->
<g id="edge14" class="edge">
<title>Camelia_e4&#45;&#45;Camelia_e6</title>
<path fill="none" stroke="red" stroke-width="4" d="M423.34,-610.06C409.14,-600.16 391.14,-587.59 376.94,-577.69"/>
<text text-anchor="middle" x="404.26" y="-580.58" font-family="Arial" font-size="14.00">6</text>
</g>
<!-- Camelia_e6&#45;&#45;Camelia_d4 -->
<g id="edge36" class="edge">
<title>Camelia_e6&#45;&#45;Camelia_d4</title>
<path fill="none" stroke="black" d="M385.43,-546.34C411.94,-534.06 449.39,-516.73 475.96,-504.43"/>
<text text-anchor="middle" x="422.42" y="-528.59" font-family="Arial" font-size="14.00">10</text>
</g>
<!-- Camelia_e7 -->
<g id="node22" class="node">
<title>Camelia_e7</title>
<ellipse fill="none" stroke="black" cx="244.02" cy="-494.58" rx="53.56" ry="18"/>
<text text-anchor="middle" x="244.02" y="-489.15" font-family="Times New Roman,serif" font-size="14.00">Camelia_e7</text>
</g>
<!-- Camelia_e6&#45;&#45;Camelia_e7 -->
<g id="edge50" class="edge">
<title>Camelia_e6&#45;&#45;Camelia_e7</title>
<path fill="none" stroke="black" d="M326.86,-545.07C309.68,-534.6 287.37,-521 270.24,-510.56"/>
<text text-anchor="middle" x="290.28" y="-531" font-family="Arial" font-size="14.00">20</text>
</g>
<!-- Folhado -->
<g id="node21" class="node">
<title>Folhado</title>
<ellipse fill="none" stroke="black" cx="477.44" cy="-320.23" rx="41.58" ry="18"/>
<text text-anchor="middle" x="477.44" y="-314.81" font-family="Times New Roman,serif" font-size="14.00">Folhado</text>
</g>
<!-- Folhado&#45;&#45;Camelia_d4 -->
<g id="edge45" class="edge">
<title>Folhado&#45;&#45;Camelia_d4</title>
<path fill="none" stroke="black" d="M480.8,-338.66C486.74,-371.21 499.01,-438.51 504.94,-471.05"/>
<text text-anchor="middle" x="484.62" y="-408.06" font-family="Arial" font-size="14.00">11</text>
</g>
<!-- Folhado&#45;&#45;Camelia_d6 -->
<g id="edge25" class="edge">
<title>Folhado&#45;&#45;Camelia_d6</title>
<path fill="none" stroke="black" d="M446.21,-308.07C420.03,-297.88 382.64,-283.32 355.24,-272.65"/>
<text text-anchor="middle" x="397.06" y="-293.74" font-family="Arial" font-size="14.00">7</text>
</g>
<!-- Folhado&#45;&#45;Camelia_d5 -->
<g id="edge20" class="edge">
<title>Folhado&#45;&#45;Camelia_d5</title>
<path fill="none" stroke="red" stroke-width="4" d="M457.93,-336.42C443.16,-348.67 422.92,-365.46 407.93,-377.9"/>
<text text-anchor="middle" x="428.88" y="-360.29" font-family="Arial" font-size="14.00">6</text>
</g>
<!-- Camelia_e7&#45;&#45;Camelia_e8 -->
<g id="edge21" class="edge">
<title>Camelia_e7&#45;&#45;Camelia_e8</title>
<path fill="none" stroke="red" stroke-width="4" d="M235.12,-476.49C222.89,-451.65 201.03,-407.23 188.84,-382.47"/>
<text text-anchor="middle" x="207.84" y="-432.65" font-family="Arial" font-size="14.00">7</text>
</g>
<!-- Camelia_e7&#45;&#45;Camelia_d5 -->
<g id="edge39" class="edge">
<title>Camelia_e7&#45;&#45;Camelia_d5</title>
<path fill="none" stroke="black" d="M267.72,-478.1C294.3,-459.62 337.19,-429.82 363.79,-411.33"/>
<text text-anchor="middle" x="307.5" y="-447.92" font-family="Arial" font-size="14.00">10</text>
</g>
<!-- Castanheiro_India&#45;&#45;Camelia_e6 -->
<g id="edge23" class="edge">
<title>Castanheiro_India&#45;&#45;Camelia_e6</title>
<path fill="none" stroke="red" stroke-width="4" d="M254.68,-622.03C276.33,-608.68 306.19,-590.26 327.38,-577.2"/>
<text text-anchor="middle" x="287.08" y="-602.71" font-family="Arial" font-size="14.00">7</text>
</g>
<!-- Castanheiro_India&#45;&#45;Camelia_e7 -->
<g id="edge49" class="edge">
<title>Castanheiro_India&#45;&#45;Camelia_e7</title>
<path fill="none" stroke="black" d="M229.1,-620.82C232.39,-593.02 238.6,-540.45 241.88,-512.74"/>
<text text-anchor="middle" x="227.24" y="-569.95" font-family="Arial" font-size="14.00">16</text>
</g>
<!-- Olaia -->
<g id="node24" class="node">
<title>Olaia</title>
<ellipse fill="none" stroke="black" cx="116.39" cy="-497.88" rx="29.61" ry="18"/>
<text text-anchor="middle" x="116.39" y="-492.46" font-family="Times New Roman,serif" font-size="14.00">Olaia</text>
</g>
<!-- Castanheiro_India&#45;&#45;Olaia -->
<g id="edge38" class="edge">
<title>Castanheiro_India&#45;&#45;Olaia</title>
<path fill="none" stroke="red" stroke-width="4" d="M212.72,-620.95C191.02,-593.24 150,-540.83 129.19,-514.24"/>
<text text-anchor="middle" x="162.37" y="-570.37" font-family="Arial" font-size="14.00">10</text>
</g>
<!-- Olaia&#45;&#45;Liquidanbar -->
<g id="edge26" class="edge">
<title>Olaia&#45;&#45;Liquidanbar</title>
<path fill="none" stroke="red" stroke-width="4" d="M109.83,-479.96C98.08,-447.9 73.6,-381.07 61.76,-348.74"/>
<text text-anchor="middle" x="81.71" y="-417.65" font-family="Arial" font-size="14.00">7</text>
</g>
<!-- Olaia&#45;&#45;Camelia_e8 -->
<g id="edge31" class="edge">
<title>Olaia&#45;&#45;Camelia_e8</title>
<path fill="none" stroke="black" d="M124.84,-480.18C136.94,-454.81 159.09,-408.39 171.32,-382.75"/>
<text text-anchor="middle" x="143.91" y="-434.77" font-family="Arial" font-size="14.00">8</text>
</g>
<!-- Olaia&#45;&#45;Camelia_e7 -->
<g id="edge28" class="edge">
<title>Olaia&#45;&#45;Camelia_e7</title>
<path fill="none" stroke="black" d="M146.32,-497.11C159.43,-496.77 175.24,-496.36 190.27,-495.97"/>
<text text-anchor="middle" x="163.45" y="-499.76" font-family="Arial" font-size="14.00">8</text>
</g>
<!-- Magnolia -->
<g id="node25" class="node">
<title>Magnolia</title>
<ellipse fill="none" stroke="black" cx="419.51" cy="-169.81" rx="44.58" ry="18"/>
<text text-anchor="middle" x="419.51" y="-164.38" font-family="Times New Roman,serif" font-size="14.00">Magnolia</text>
</g>
<!-- Magnolia&#45;&#45;Camelia_d7 -->
<g id="edge46" class="edge">
<title>Magnolia&#45;&#45;Camelia_d7</title>
<path fill="none" stroke="black" d="M384.46,-158.2C359.21,-149.83 325.12,-138.54 298.98,-129.87"/>
<text text-anchor="middle" x="333.8" y="-147.35" font-family="Arial" font-size="14.00">12</text>
</g>
<!-- Magnolia&#45;&#45;Camelia_d6 -->
<g id="edge29" class="edge">
<title>Magnolia&#45;&#45;Camelia_d6</title>
<path fill="none" stroke="red" stroke-width="4" d="M400.68,-186.53C383,-202.22 356.68,-225.58 338.82,-241.44"/>
<text text-anchor="middle" x="365.69" y="-217.12" font-family="Arial" font-size="14.00">8</text>
</g>
<!-- Magnolia&#45;&#45;Folhado -->
<g id="edge33" class="edge">
<title>Magnolia&#45;&#45;Folhado</title>
<path fill="none" stroke="black" d="M426.5,-187.95C437.63,-216.86 459.28,-273.07 470.43,-302.02"/>
<text text-anchor="middle" x="444.33" y="-248.17" font-family="Arial" font-size="14.00">9</text>
</g>
</g>
</svg>
