<?xml version="1.0" encoding="UTF-8" standalone="no"?>
<!DOCTYPE svg PUBLIC "-//W3C//DTD SVG 1.1//EN"
 "http://www.w3.org/Graphics/SVG/1.1/DTD/svg11.dtd">
<!-- Generated by graphviz version 11.0.0 (20240428.1522)
 -->
<!-- Pages: 1 -->
<svg width="461pt" height="329pt"
 viewBox="0.00 0.00 460.50 328.61" xmlns="http://www.w3.org/2000/svg" xmlns:xlink="http://www.w3.org/1999/xlink">
<g id="graph0" class="graph" transform="scale(1 1) rotate(0) translate(4 324.61)">
<polygon fill="white" stroke="none" points="-4,4 -4,-324.61 456.5,-324.61 456.5,4 -4,4"/>
<text text-anchor="middle" x="226.25" y="-292.86" font-family="Arial" font-size="25.00">Minimum Spanning Tree (total cost:18.0)</text>
<!-- C3 -->
<g id="node1" class="node">
<title>C3</title>
<ellipse fill="none" stroke="black" cx="95.77" cy="-69.64" rx="27" ry="18"/>
<text text-anchor="middle" x="95.77" y="-64.21" font-family="Times New Roman,serif" font-size="14.00">C3</text>
</g>
<!-- F6 -->
<g id="node2" class="node">
<title>F6</title>
<ellipse fill="none" stroke="black" cx="204.33" cy="-131.02" rx="27" ry="18"/>
<text text-anchor="middle" x="204.33" y="-125.59" font-family="Times New Roman,serif" font-size="14.00">F6</text>
</g>
<!-- C3&#45;&#45;F6 -->
<g id="edge1" class="edge">
<title>C3&#45;&#45;F6</title>
<path fill="none" stroke="red" stroke-width="4" d="M116.7,-81.47C135.92,-92.34 164.26,-108.36 183.47,-119.22"/>
<text text-anchor="middle" x="145.96" y="-103.55" font-family="Arial" font-size="14.00">2</text>
</g>
<!-- D4 -->
<g id="node6" class="node">
<title>D4</title>
<ellipse fill="none" stroke="black" cx="86.16" cy="-239.38" rx="27" ry="18"/>
<text text-anchor="middle" x="86.16" y="-233.96" font-family="Times New Roman,serif" font-size="14.00">D4</text>
</g>
<!-- C3&#45;&#45;D4 -->
<g id="edge8" class="edge">
<title>C3&#45;&#45;D4</title>
<path fill="none" stroke="black" d="M94.74,-87.8C92.89,-120.39 89.04,-188.42 87.19,-221.09"/>
<text text-anchor="middle" x="86.84" y="-157.61" font-family="Arial" font-size="14.00">6</text>
</g>
<!-- B2 -->
<g id="node3" class="node">
<title>B2</title>
<ellipse fill="none" stroke="black" cx="258.79" cy="-18" rx="27" ry="18"/>
<text text-anchor="middle" x="258.79" y="-12.57" font-family="Times New Roman,serif" font-size="14.00">B2</text>
</g>
<!-- B2&#45;&#45;C3 -->
<g id="edge2" class="edge">
<title>B2&#45;&#45;C3</title>
<path fill="none" stroke="red" stroke-width="4" d="M234.03,-25.84C203.3,-35.58 151.2,-52.08 120.49,-61.81"/>
<text text-anchor="middle" x="173.13" y="-47.03" font-family="Arial" font-size="14.00">2</text>
</g>
<!-- B2&#45;&#45;F6 -->
<g id="edge6" class="edge">
<title>B2&#45;&#45;F6</title>
<path fill="none" stroke="black" d="M250.52,-35.17C240.28,-56.41 222.95,-92.37 212.68,-113.69"/>
<text text-anchor="middle" x="227.49" y="-77.6" font-family="Arial" font-size="14.00">5</text>
</g>
<!-- A1 -->
<g id="node5" class="node">
<title>A1</title>
<ellipse fill="none" stroke="black" cx="366.34" cy="-148.73" rx="27" ry="18"/>
<text text-anchor="middle" x="366.34" y="-143.31" font-family="Times New Roman,serif" font-size="14.00">A1</text>
</g>
<!-- B2&#45;&#45;A1 -->
<g id="edge4" class="edge">
<title>B2&#45;&#45;A1</title>
<path fill="none" stroke="red" stroke-width="4" d="M271.98,-34.03C292.62,-59.12 332.34,-107.4 353.05,-132.57"/>
<text text-anchor="middle" x="308.36" y="-86.47" font-family="Arial" font-size="14.00">4</text>
</g>
<!-- E5 -->
<g id="node4" class="node">
<title>E5</title>
<ellipse fill="none" stroke="black" cx="249.7" cy="-266.11" rx="27" ry="18"/>
<text text-anchor="middle" x="249.7" y="-260.69" font-family="Times New Roman,serif" font-size="14.00">E5</text>
</g>
<!-- E5&#45;&#45;F6 -->
<g id="edge3" class="edge">
<title>E5&#45;&#45;F6</title>
<path fill="none" stroke="red" stroke-width="4" d="M243.68,-248.17C235,-222.33 219.07,-174.91 210.38,-149.03"/>
<text text-anchor="middle" x="222.91" y="-201.82" font-family="Arial" font-size="14.00">4</text>
</g>
<!-- A1&#45;&#45;E5 -->
<g id="edge5" class="edge">
<title>A1&#45;&#45;E5</title>
<path fill="none" stroke="black" d="M351.09,-164.08C328.74,-186.57 287.31,-228.27 264.95,-250.76"/>
<text text-anchor="middle" x="303.9" y="-210.62" font-family="Arial" font-size="14.00">5</text>
</g>
<!-- D4&#45;&#45;E5 -->
<g id="edge7" class="edge">
<title>D4&#45;&#45;E5</title>
<path fill="none" stroke="red" stroke-width="4" d="M112.8,-243.74C143.21,-248.71 192.66,-256.79 223.07,-261.76"/>
<text text-anchor="middle" x="163.81" y="-255.95" font-family="Arial" font-size="14.00">6</text>
</g>
</g>
</svg>
