<?xml version="1.0" encoding="UTF-8" standalone="no"?>
<!DOCTYPE svg PUBLIC "-//W3C//DTD SVG 1.1//EN"
 "http://www.w3.org/Graphics/SVG/1.1/DTD/svg11.dtd">
<!-- Generated by graphviz version 11.0.0 (20240428.1522)
 -->
<!-- Pages: 1 -->
<svg width="821pt" height="1034pt"
 viewBox="0.00 0.00 821.30 1033.99" xmlns="http://www.w3.org/2000/svg" xmlns:xlink="http://www.w3.org/1999/xlink">
<g id="graph0" class="graph" transform="scale(1 1) rotate(0) translate(4 1029.99)">
<polygon fill="white" stroke="none" points="-4,4 -4,-1029.99 817.3,-1029.99 817.3,4 -4,4"/>
<text text-anchor="middle" x="406.65" y="-998.24" font-family="Arial" font-size="25.00">Minimum Spanning Tree (total cost:141.0)</text>
<!-- Tilia -->
<g id="node1" class="node">
<title>Tilia</title>
<ellipse fill="none" stroke="black" cx="461.07" cy="-689.44" rx="27" ry="18"/>
<text text-anchor="middle" x="461.07" y="-684.02" font-family="Times New Roman,serif" font-size="14.00">Tilia</text>
</g>
<!-- Camelia_e3 -->
<g id="node2" class="node">
<title>Camelia_e3</title>
<ellipse fill="none" stroke="black" cx="343.4" cy="-822.83" rx="53.56" ry="18"/>
<text text-anchor="middle" x="343.4" y="-817.4" font-family="Times New Roman,serif" font-size="14.00">Camelia_e3</text>
</g>
<!-- Tilia&#45;&#45;Camelia_e3 -->
<g id="edge1" class="edge">
<title>Tilia&#45;&#45;Camelia_e3</title>
<path fill="none" stroke="red" stroke-width="4" d="M454.32,-707.23C452.78,-710.48 451,-713.77 449.01,-716.67 424.65,-752.29 387.47,-786.35 364.35,-805.9"/>
<text text-anchor="middle" x="408.87" y="-763.52" font-family="Arial" font-size="14.00">3</text>
</g>
<!-- Camelia_e2 -->
<g id="node4" class="node">
<title>Camelia_e2</title>
<ellipse fill="none" stroke="black" cx="480.29" cy="-860.28" rx="53.56" ry="18"/>
<text text-anchor="middle" x="480.29" y="-854.86" font-family="Times New Roman,serif" font-size="14.00">Camelia_e2</text>
</g>
<!-- Tilia&#45;&#45;Camelia_e2 -->
<g id="edge22" class="edge">
<title>Tilia&#45;&#45;Camelia_e2</title>
<path fill="none" stroke="black" d="M463.13,-707.72C466.82,-740.52 474.52,-808.99 478.22,-841.87"/>
<text text-anchor="middle" x="466.55" y="-777.96" font-family="Arial" font-size="14.00">7</text>
</g>
<!-- Camelia_e4 -->
<g id="node17" class="node">
<title>Camelia_e4</title>
<ellipse fill="none" stroke="black" cx="275.69" cy="-701.27" rx="53.56" ry="18"/>
<text text-anchor="middle" x="275.69" y="-695.85" font-family="Times New Roman,serif" font-size="14.00">Camelia_e4</text>
</g>
<!-- Tilia&#45;&#45;Camelia_e4 -->
<g id="edge24" class="edge">
<title>Tilia&#45;&#45;Camelia_e4</title>
<path fill="none" stroke="black" d="M433.72,-691.19C406.12,-692.95 362.81,-695.71 328.5,-697.9"/>
<text text-anchor="middle" x="379.5" y="-681.08" font-family="Arial" font-size="14.00">7</text>
</g>
<!-- Castanheiro_India -->
<g id="node24" class="node">
<title>Castanheiro_India</title>
<ellipse fill="none" stroke="black" cx="489.41" cy="-502.53" rx="78.01" ry="18"/>
<text text-anchor="middle" x="489.41" y="-497.11" font-family="Times New Roman,serif" font-size="14.00">Castanheiro_India</text>
</g>
<!-- Tilia&#45;&#45;Castanheiro_India -->
<g id="edge32" class="edge">
<title>Tilia&#45;&#45;Castanheiro_India</title>
<path fill="none" stroke="black" d="M463.84,-671.18C469.26,-635.45 481.2,-556.66 486.63,-520.87"/>
<text text-anchor="middle" x="471.11" y="-599.25" font-family="Arial" font-size="14.00">9</text>
</g>
<!-- Camelia_d3 -->
<g id="node6" class="node">
<title>Camelia_d3</title>
<ellipse fill="none" stroke="black" cx="389.42" cy="-716.67" rx="54.56" ry="18"/>
<text text-anchor="middle" x="389.42" y="-711.24" font-family="Times New Roman,serif" font-size="14.00">Camelia_d3</text>
</g>
<!-- Camelia_e3&#45;&#45;Camelia_d3 -->
<g id="edge35" class="edge">
<title>Camelia_e3&#45;&#45;Camelia_d3</title>
<path fill="none" stroke="red" stroke-width="4" d="M351.2,-804.82C359.67,-785.3 373.1,-754.32 381.57,-734.76"/>
<text text-anchor="middle" x="358.13" y="-773" font-family="Arial" font-size="14.00">10</text>
</g>
<!-- Camelia_e3&#45;&#45;Camelia_e4 -->
<g id="edge14" class="edge">
<title>Camelia_e3&#45;&#45;Camelia_e4</title>
<path fill="none" stroke="red" stroke-width="4" d="M333.41,-804.89C320.61,-781.91 298.54,-742.3 285.72,-719.28"/>
<text text-anchor="middle" x="305.45" y="-765.3" font-family="Arial" font-size="14.00">6</text>
</g>
<!-- Camelia_e1 -->
<g id="node3" class="node">
<title>Camelia_e1</title>
<ellipse fill="none" stroke="black" cx="592.04" cy="-971.49" rx="53.56" ry="18"/>
<text text-anchor="middle" x="592.04" y="-966.07" font-family="Times New Roman,serif" font-size="14.00">Camelia_e1</text>
</g>
<!-- Camelia_e1&#45;&#45;Camelia_e2 -->
<g id="edge2" class="edge">
<title>Camelia_e1&#45;&#45;Camelia_e2</title>
<path fill="none" stroke="red" stroke-width="4" d="M574.58,-954.12C553.58,-933.22 518.57,-898.38 497.63,-877.54"/>
<text text-anchor="middle" x="531.96" y="-919.01" font-family="Arial" font-size="14.00">4</text>
</g>
<!-- Camelia_d1 -->
<g id="node11" class="node">
<title>Camelia_d1</title>
<ellipse fill="none" stroke="black" cx="715.21" cy="-889.91" rx="54.56" ry="18"/>
<text text-anchor="middle" x="715.21" y="-884.48" font-family="Times New Roman,serif" font-size="14.00">Camelia_d1</text>
</g>
<!-- Camelia_e1&#45;&#45;Camelia_d1 -->
<g id="edge38" class="edge">
<title>Camelia_e1&#45;&#45;Camelia_d1</title>
<path fill="none" stroke="black" d="M616.67,-955.18C638.15,-940.95 669.15,-920.42 690.62,-906.2"/>
<text text-anchor="middle" x="645.4" y="-933.88" font-family="Arial" font-size="14.00">10</text>
</g>
<!-- Camelia_e2&#45;&#45;Camelia_e3 -->
<g id="edge7" class="edge">
<title>Camelia_e2&#45;&#45;Camelia_e3</title>
<path fill="none" stroke="red" stroke-width="4" d="M438.1,-848.74C421.29,-844.14 401.99,-838.86 385.21,-834.27"/>
<text text-anchor="middle" x="407.52" y="-844.7" font-family="Arial" font-size="14.00">5</text>
</g>
<!-- Camelia_d2 -->
<g id="node7" class="node">
<title>Camelia_d2</title>
<ellipse fill="none" stroke="black" cx="605.39" cy="-753.78" rx="54.56" ry="18"/>
<text text-anchor="middle" x="605.39" y="-748.36" font-family="Times New Roman,serif" font-size="14.00">Camelia_d2</text>
</g>
<!-- Camelia_e2&#45;&#45;Camelia_d2 -->
<g id="edge43" class="edge">
<title>Camelia_e2&#45;&#45;Camelia_d2</title>
<path fill="none" stroke="black" d="M495.16,-842.85C500.56,-836.66 506.75,-829.68 512.55,-823.48 518.63,-816.99 519.89,-815.05 526.69,-809.32 543.69,-794.98 564.27,-780.55 580.12,-770"/>
<text text-anchor="middle" x="526.22" y="-789.64" font-family="Arial" font-size="14.00">10</text>
</g>
<!-- Carvalho -->
<g id="node5" class="node">
<title>Carvalho</title>
<ellipse fill="none" stroke="black" cx="560.81" cy="-823.48" rx="44.08" ry="18"/>
<text text-anchor="middle" x="560.81" y="-818.05" font-family="Times New Roman,serif" font-size="14.00">Carvalho</text>
</g>
<!-- Carvalho&#45;&#45;Tilia -->
<g id="edge33" class="edge">
<title>Carvalho&#45;&#45;Tilia</title>
<path fill="none" stroke="black" d="M547.77,-805.96C528.34,-779.84 492.05,-731.08 473.18,-705.71"/>
<text text-anchor="middle" x="506.14" y="-758.75" font-family="Arial" font-size="14.00">9</text>
</g>
<!-- Carvalho&#45;&#45;Camelia_e1 -->
<g id="edge3" class="edge">
<title>Carvalho&#45;&#45;Camelia_e1</title>
<path fill="none" stroke="red" stroke-width="4" d="M564.63,-841.63C570.63,-870.04 582.16,-924.7 588.18,-953.2"/>
<text text-anchor="middle" x="572.27" y="-900.58" font-family="Arial" font-size="14.00">4</text>
</g>
<!-- Carvalho&#45;&#45;Camelia_e2 -->
<g id="edge13" class="edge">
<title>Carvalho&#45;&#45;Camelia_e2</title>
<path fill="none" stroke="black" d="M531.28,-836.98C525.18,-839.77 518.72,-842.72 512.52,-845.55"/>
<text text-anchor="middle" x="517.81" y="-827.95" font-family="Arial" font-size="14.00">6</text>
</g>
<!-- Camelia_d3&#45;&#45;Camelia_d2 -->
<g id="edge4" class="edge">
<title>Camelia_d3&#45;&#45;Camelia_d2</title>
<path fill="none" stroke="red" stroke-width="4" d="M438.43,-725.09C473.77,-731.16 521.28,-739.33 556.58,-745.39"/>
<text text-anchor="middle" x="493.39" y="-738.44" font-family="Arial" font-size="14.00">4</text>
</g>
<!-- Camelia_d2&#45;&#45;Camelia_d1 -->
<g id="edge8" class="edge">
<title>Camelia_d2&#45;&#45;Camelia_d1</title>
<path fill="none" stroke="red" stroke-width="4" d="M619.75,-771.58C640.79,-797.67 679.8,-846.02 700.85,-872.11"/>
<text text-anchor="middle" x="656.17" y="-825.04" font-family="Arial" font-size="14.00">5</text>
</g>
<!-- Abrunheiro -->
<g id="node8" class="node">
<title>Abrunheiro</title>
<ellipse fill="none" stroke="black" cx="251.28" cy="-61.59" rx="52.56" ry="18"/>
<text text-anchor="middle" x="251.28" y="-56.16" font-family="Times New Roman,serif" font-size="14.00">Abrunheiro</text>
</g>
<!-- Ginkgo -->
<g id="node9" class="node">
<title>Ginkgo</title>
<ellipse fill="none" stroke="black" cx="107.04" cy="-18" rx="38.09" ry="18"/>
<text text-anchor="middle" x="107.04" y="-12.57" font-family="Times New Roman,serif" font-size="14.00">Ginkgo</text>
</g>
<!-- Abrunheiro&#45;&#45;Ginkgo -->
<g id="edge5" class="edge">
<title>Abrunheiro&#45;&#45;Ginkgo</title>
<path fill="none" stroke="red" stroke-width="4" d="M211.48,-49.56C188.8,-42.71 160.74,-34.23 139.42,-27.79"/>
<text text-anchor="middle" x="170.82" y="-41.72" font-family="Arial" font-size="14.00">4</text>
</g>
<!-- Camelia_e9 -->
<g id="node14" class="node">
<title>Camelia_e9</title>
<ellipse fill="none" stroke="black" cx="251.79" cy="-178.27" rx="53.56" ry="18"/>
<text text-anchor="middle" x="251.79" y="-172.85" font-family="Times New Roman,serif" font-size="14.00">Camelia_e9</text>
</g>
<!-- Abrunheiro&#45;&#45;Camelia_e9 -->
<g id="edge11" class="edge">
<title>Abrunheiro&#45;&#45;Camelia_e9</title>
<path fill="none" stroke="red" stroke-width="4" d="M251.36,-80.08C251.46,-101.93 251.61,-138.06 251.71,-159.87"/>
<text text-anchor="middle" x="247.41" y="-123.19" font-family="Arial" font-size="14.00">6</text>
</g>
<!-- Camelia_d7 -->
<g id="node18" class="node">
<title>Camelia_d7</title>
<ellipse fill="none" stroke="black" cx="109.16" cy="-163.76" rx="54.56" ry="18"/>
<text text-anchor="middle" x="109.16" y="-158.34" font-family="Times New Roman,serif" font-size="14.00">Camelia_d7</text>
</g>
<!-- Abrunheiro&#45;&#45;Camelia_d7 -->
<g id="edge48" class="edge">
<title>Abrunheiro&#45;&#45;Camelia_d7</title>
<path fill="none" stroke="black" d="M228.13,-78.23C201.7,-97.23 158.73,-128.13 132.3,-147.13"/>
<text text-anchor="middle" x="171.96" y="-115.88" font-family="Arial" font-size="14.00">13</text>
</g>
<!-- Ginkgo&#45;&#45;Camelia_d7 -->
<g id="edge46" class="edge">
<title>Ginkgo&#45;&#45;Camelia_d7</title>
<path fill="none" stroke="black" d="M107.31,-36.46C107.72,-64.5 108.49,-117.5 108.9,-145.45"/>
<text text-anchor="middle" x="99.85" y="-94.19" font-family="Arial" font-size="14.00">12</text>
</g>
<!-- Sobreiro -->
<g id="node10" class="node">
<title>Sobreiro</title>
<ellipse fill="none" stroke="black" cx="770.22" cy="-767.88" rx="43.08" ry="18"/>
<text text-anchor="middle" x="770.22" y="-762.46" font-family="Times New Roman,serif" font-size="14.00">Sobreiro</text>
</g>
<!-- Sobreiro&#45;&#45;Camelia_d2 -->
<g id="edge27" class="edge">
<title>Sobreiro&#45;&#45;Camelia_d2</title>
<path fill="none" stroke="black" d="M727.77,-764.25C706.69,-762.45 681.01,-760.25 658.62,-758.34"/>
<text text-anchor="middle" x="689.56" y="-764.54" font-family="Arial" font-size="14.00">7</text>
</g>
<!-- Sobreiro&#45;&#45;Camelia_d1 -->
<g id="edge6" class="edge">
<title>Sobreiro&#45;&#45;Camelia_d1</title>
<path fill="none" stroke="red" stroke-width="4" d="M762.1,-785.89C751.7,-808.96 733.78,-848.72 723.36,-871.83"/>
<text text-anchor="middle" x="738.61" y="-832.05" font-family="Arial" font-size="14.00">5</text>
</g>
<!-- Liquidanbar -->
<g id="node12" class="node">
<title>Liquidanbar</title>
<ellipse fill="none" stroke="black" cx="400.8" cy="-159.16" rx="55.06" ry="18"/>
<text text-anchor="middle" x="400.8" y="-153.74" font-family="Times New Roman,serif" font-size="14.00">Liquidanbar</text>
</g>
<!-- Liquidanbar&#45;&#45;Abrunheiro -->
<g id="edge9" class="edge">
<title>Liquidanbar&#45;&#45;Abrunheiro</title>
<path fill="none" stroke="red" stroke-width="4" d="M375.78,-142.83C348.01,-124.71 303.49,-95.66 275.89,-77.65"/>
<text text-anchor="middle" x="321.65" y="-113.4" font-family="Arial" font-size="14.00">5</text>
</g>
<!-- Liquidanbar&#45;&#45;Camelia_e9 -->
<g id="edge15" class="edge">
<title>Liquidanbar&#45;&#45;Camelia_e9</title>
<path fill="none" stroke="black" d="M349.1,-165.79C333.97,-167.73 317.45,-169.85 302.39,-171.79"/>
<text text-anchor="middle" x="321.6" y="-171.99" font-family="Arial" font-size="14.00">6</text>
</g>
<!-- Camelia_e8 -->
<g id="node19" class="node">
<title>Camelia_e8</title>
<ellipse fill="none" stroke="black" cx="339.5" cy="-274.52" rx="53.56" ry="18"/>
<text text-anchor="middle" x="339.5" y="-269.1" font-family="Times New Roman,serif" font-size="14.00">Camelia_e8</text>
</g>
<!-- Liquidanbar&#45;&#45;Camelia_e8 -->
<g id="edge29" class="edge">
<title>Liquidanbar&#45;&#45;Camelia_e8</title>
<path fill="none" stroke="black" d="M391.22,-177.19C379.71,-198.86 360.5,-235.01 349.01,-256.62"/>
<text text-anchor="middle" x="365.98" y="-220.13" font-family="Arial" font-size="14.00">8</text>
</g>
<!-- Camelia_d4 -->
<g id="node13" class="node">
<title>Camelia_d4</title>
<ellipse fill="none" stroke="black" cx="230.07" cy="-597.87" rx="54.56" ry="18"/>
<text text-anchor="middle" x="230.07" y="-592.45" font-family="Times New Roman,serif" font-size="14.00">Camelia_d4</text>
</g>
<!-- Camelia_d4&#45;&#45;Camelia_d3 -->
<g id="edge10" class="edge">
<title>Camelia_d4&#45;&#45;Camelia_d3</title>
<path fill="none" stroke="red" stroke-width="4" d="M252.56,-614.64C282.93,-637.28 336.73,-677.39 367.04,-699.98"/>
<text text-anchor="middle" x="305.7" y="-660.53" font-family="Arial" font-size="14.00">5</text>
</g>
<!-- Camelia_d6 -->
<g id="node15" class="node">
<title>Camelia_d6</title>
<ellipse fill="none" stroke="black" cx="174.05" cy="-303.12" rx="54.56" ry="18"/>
<text text-anchor="middle" x="174.05" y="-297.7" font-family="Times New Roman,serif" font-size="14.00">Camelia_d6</text>
</g>
<!-- Camelia_e9&#45;&#45;Camelia_d6 -->
<g id="edge45" class="edge">
<title>Camelia_e9&#45;&#45;Camelia_d6</title>
<path fill="none" stroke="black" d="M240.65,-196.16C225.87,-219.9 199.93,-261.55 185.16,-285.27"/>
<text text-anchor="middle" x="204.65" y="-243.92" font-family="Arial" font-size="14.00">11</text>
</g>
<!-- Camelia_e9&#45;&#45;Camelia_d7 -->
<g id="edge40" class="edge">
<title>Camelia_e9&#45;&#45;Camelia_d7</title>
<path fill="none" stroke="black" d="M200.3,-173.04C187.69,-171.75 174.19,-170.38 161.54,-169.09"/>
<text text-anchor="middle" x="172.68" y="-174.27" font-family="Arial" font-size="14.00">10</text>
</g>
<!-- Camelia_d5 -->
<g id="node16" class="node">
<title>Camelia_d5</title>
<ellipse fill="none" stroke="black" cx="228.81" cy="-445.3" rx="54.56" ry="18"/>
<text text-anchor="middle" x="228.81" y="-439.88" font-family="Times New Roman,serif" font-size="14.00">Camelia_d5</text>
</g>
<!-- Camelia_d6&#45;&#45;Camelia_d5 -->
<g id="edge12" class="edge">
<title>Camelia_d6&#45;&#45;Camelia_d5</title>
<path fill="none" stroke="red" stroke-width="4" d="M181.09,-321.42C191.61,-348.72 211.29,-399.82 221.79,-427.08"/>
<text text-anchor="middle" x="197.32" y="-377.46" font-family="Arial" font-size="14.00">6</text>
</g>
<!-- Camelia_d5&#45;&#45;Camelia_d4 -->
<g id="edge17" class="edge">
<title>Camelia_d5&#45;&#45;Camelia_d4</title>
<path fill="none" stroke="red" stroke-width="4" d="M228.96,-463.71C229.2,-493.03 229.67,-550.04 229.91,-579.41"/>
<text text-anchor="middle" x="225.31" y="-524.74" font-family="Arial" font-size="14.00">6</text>
</g>
<!-- Camelia_e4&#45;&#45;Camelia_d4 -->
<g id="edge39" class="edge">
<title>Camelia_e4&#45;&#45;Camelia_d4</title>
<path fill="none" stroke="black" d="M267.74,-683.26C259.42,-664.4 246.42,-634.94 238.08,-616.03"/>
<text text-anchor="middle" x="244.67" y="-652.86" font-family="Arial" font-size="14.00">10</text>
</g>
<!-- Camelia_e6 -->
<g id="node20" class="node">
<title>Camelia_e6</title>
<ellipse fill="none" stroke="black" cx="350.74" cy="-551.47" rx="53.56" ry="18"/>
<text text-anchor="middle" x="350.74" y="-546.05" font-family="Times New Roman,serif" font-size="14.00">Camelia_e6</text>
</g>
<!-- Camelia_e4&#45;&#45;Camelia_e6 -->
<g id="edge19" class="edge">
<title>Camelia_e4&#45;&#45;Camelia_e6</title>
<path fill="none" stroke="red" stroke-width="4" d="M284.74,-683.2C299.17,-654.41 327.21,-598.44 341.66,-569.61"/>
<text text-anchor="middle" x="309.07" y="-629.62" font-family="Arial" font-size="14.00">6</text>
</g>
<!-- Camelia_d7&#45;&#45;Camelia_d6 -->
<g id="edge16" class="edge">
<title>Camelia_d7&#45;&#45;Camelia_d6</title>
<path fill="none" stroke="red" stroke-width="4" d="M117.64,-181.98C130.08,-208.69 153.12,-258.19 165.56,-284.9"/>
<text text-anchor="middle" x="137.48" y="-236.64" font-family="Arial" font-size="14.00">6</text>
</g>
<!-- Camelia_e8&#45;&#45;Camelia_e9 -->
<g id="edge18" class="edge">
<title>Camelia_e8&#45;&#45;Camelia_e9</title>
<path fill="none" stroke="red" stroke-width="4" d="M323.41,-256.87C307.59,-239.5 283.57,-213.14 267.77,-195.82"/>
<text text-anchor="middle" x="291.45" y="-229.53" font-family="Arial" font-size="14.00">6</text>
</g>
<!-- Camelia_e8&#45;&#45;Camelia_d6 -->
<g id="edge41" class="edge">
<title>Camelia_e8&#45;&#45;Camelia_d6</title>
<path fill="none" stroke="black" d="M291.64,-282.79C270.07,-286.52 244.63,-290.92 222.94,-294.67"/>
<text text-anchor="middle" x="249.09" y="-291.92" font-family="Arial" font-size="14.00">10</text>
</g>
<!-- Camelia_e6&#45;&#45;Camelia_d4 -->
<g id="edge37" class="edge">
<title>Camelia_e6&#45;&#45;Camelia_d4</title>
<path fill="none" stroke="black" d="M314.86,-565.27C299.44,-571.2 281.45,-578.12 266.02,-584.05"/>
<text text-anchor="middle" x="282.19" y="-561.36" font-family="Arial" font-size="14.00">10</text>
</g>
<!-- Camelia_e7 -->
<g id="node22" class="node">
<title>Camelia_e7</title>
<ellipse fill="none" stroke="black" cx="383.24" cy="-414.76" rx="53.56" ry="18"/>
<text text-anchor="middle" x="383.24" y="-409.34" font-family="Times New Roman,serif" font-size="14.00">Camelia_e7</text>
</g>
<!-- Camelia_e6&#45;&#45;Camelia_e7 -->
<g id="edge50" class="edge">
<title>Camelia_e6&#45;&#45;Camelia_e7</title>
<path fill="none" stroke="black" d="M355.13,-533.04C361.36,-506.8 372.73,-458.98 378.92,-432.91"/>
<text text-anchor="middle" x="358.79" y="-486.11" font-family="Arial" font-size="14.00">20</text>
</g>
<!-- Folhado -->
<g id="node21" class="node">
<title>Folhado</title>
<ellipse fill="none" stroke="black" cx="119.05" cy="-464.53" rx="41.58" ry="18"/>
<text text-anchor="middle" x="119.05" y="-459.1" font-family="Times New Roman,serif" font-size="14.00">Folhado</text>
</g>
<!-- Folhado&#45;&#45;Camelia_d4 -->
<g id="edge44" class="edge">
<title>Folhado&#45;&#45;Camelia_d4</title>
<path fill="none" stroke="black" d="M133.34,-481.69C154.54,-507.15 194.11,-554.69 215.48,-580.36"/>
<text text-anchor="middle" x="166.1" y="-534.15" font-family="Arial" font-size="14.00">11</text>
</g>
<!-- Folhado&#45;&#45;Camelia_d6 -->
<g id="edge26" class="edge">
<title>Folhado&#45;&#45;Camelia_d6</title>
<path fill="none" stroke="black" d="M125.25,-446.33C135.87,-415.16 157.41,-351.96 167.95,-321.01"/>
<text text-anchor="middle" x="142.5" y="-386.79" font-family="Arial" font-size="14.00">7</text>
</g>
<!-- Folhado&#45;&#45;Camelia_d5 -->
<g id="edge20" class="edge">
<title>Folhado&#45;&#45;Camelia_d5</title>
<path fill="none" stroke="red" stroke-width="4" d="M158.06,-457.7C165.2,-456.44 172.74,-455.12 180.13,-453.83"/>
<text text-anchor="middle" x="164.88" y="-458.98" font-family="Arial" font-size="14.00">6</text>
</g>
<!-- Camelia_e7&#45;&#45;Camelia_d5 -->
<g id="edge36" class="edge">
<title>Camelia_e7&#45;&#45;Camelia_d5</title>
<path fill="none" stroke="red" stroke-width="4" d="M336.48,-424.01C317.4,-427.78 295.35,-432.14 276.2,-435.93"/>
<text text-anchor="middle" x="298.12" y="-433.16" font-family="Arial" font-size="14.00">10</text>
</g>
<!-- Camelia_e7&#45;&#45;Camelia_e8 -->
<g id="edge21" class="edge">
<title>Camelia_e7&#45;&#45;Camelia_e8</title>
<path fill="none" stroke="red" stroke-width="4" d="M377.52,-396.43C369.14,-369.55 353.6,-319.74 345.22,-292.86"/>
<text text-anchor="middle" x="357.24" y="-347.84" font-family="Arial" font-size="14.00">7</text>
</g>
<!-- Olaia -->
<g id="node23" class="node">
<title>Olaia</title>
<ellipse fill="none" stroke="black" cx="474.96" cy="-321.7" rx="29.61" ry="18"/>
<text text-anchor="middle" x="474.96" y="-316.27" font-family="Times New Roman,serif" font-size="14.00">Olaia</text>
</g>
<!-- Olaia&#45;&#45;Liquidanbar -->
<g id="edge23" class="edge">
<title>Olaia&#45;&#45;Liquidanbar</title>
<path fill="none" stroke="red" stroke-width="4" d="M466.89,-303.99C452.7,-272.89 423.44,-208.77 409.1,-177.34"/>
<text text-anchor="middle" x="433.92" y="-243.99" font-family="Arial" font-size="14.00">7</text>
</g>
<!-- Olaia&#45;&#45;Camelia_e8 -->
<g id="edge31" class="edge">
<title>Olaia&#45;&#45;Camelia_e8</title>
<path fill="none" stroke="black" d="M448.84,-312.6C428.55,-305.53 400.11,-295.63 377.32,-287.69"/>
<text text-anchor="middle" x="409.89" y="-303.67" font-family="Arial" font-size="14.00">8</text>
</g>
<!-- Olaia&#45;&#45;Camelia_e7 -->
<g id="edge28" class="edge">
<title>Olaia&#45;&#45;Camelia_e7</title>
<path fill="none" stroke="black" d="M459.4,-337.48C443.05,-354.08 417.38,-380.12 400.44,-397.31"/>
<text text-anchor="middle" x="426.02" y="-370.37" font-family="Arial" font-size="14.00">8</text>
</g>
<!-- Castanheiro_India&#45;&#45;Camelia_e6 -->
<g id="edge25" class="edge">
<title>Castanheiro_India&#45;&#45;Camelia_e6</title>
<path fill="none" stroke="red" stroke-width="4" d="M445.91,-517.88C427.33,-524.44 405.85,-532.02 388.01,-538.32"/>
<text text-anchor="middle" x="412.56" y="-531.4" font-family="Arial" font-size="14.00">7</text>
</g>
<!-- Castanheiro_India&#45;&#45;Camelia_e7 -->
<g id="edge49" class="edge">
<title>Castanheiro_India&#45;&#45;Camelia_e7</title>
<path fill="none" stroke="black" d="M467.92,-484.77C449.14,-469.24 422.05,-446.85 403.61,-431.6"/>
<text text-anchor="middle" x="427.39" y="-461.28" font-family="Arial" font-size="14.00">16</text>
</g>
<!-- Castanheiro_India&#45;&#45;Olaia -->
<g id="edge42" class="edge">
<title>Castanheiro_India&#45;&#45;Olaia</title>
<path fill="none" stroke="black" d="M487.94,-484.2C485.17,-449.54 479.2,-374.78 476.43,-340.08"/>
<text text-anchor="middle" x="473.94" y="-415.35" font-family="Arial" font-size="14.00">10</text>
</g>
<!-- Magnolia -->
<g id="node25" class="node">
<title>Magnolia</title>
<ellipse fill="none" stroke="black" cx="44.58" cy="-320.03" rx="44.58" ry="18"/>
<text text-anchor="middle" x="44.58" y="-314.61" font-family="Times New Roman,serif" font-size="14.00">Magnolia</text>
</g>
<!-- Magnolia&#45;&#45;Camelia_d6 -->
<g id="edge30" class="edge">
<title>Magnolia&#45;&#45;Camelia_d6</title>
<path fill="none" stroke="red" stroke-width="4" d="M87.33,-314.45C98.67,-312.97 111.04,-311.35 122.78,-309.82"/>
<text text-anchor="middle" x="100.78" y="-315.35" font-family="Arial" font-size="14.00">8</text>
</g>
<!-- Magnolia&#45;&#45;Camelia_d7 -->
<g id="edge47" class="edge">
<title>Magnolia&#45;&#45;Camelia_d7</title>
<path fill="none" stroke="black" d="M52.11,-301.8C64.56,-271.69 89.26,-211.91 101.67,-181.88"/>
<text text-anchor="middle" x="68.66" y="-245.01" font-family="Arial" font-size="14.00">12</text>
</g>
<!-- Magnolia&#45;&#45;Folhado -->
<g id="edge34" class="edge">
<title>Magnolia&#45;&#45;Folhado</title>
<path fill="none" stroke="black" d="M53.86,-338.04C68.21,-365.88 95.61,-419.04 109.89,-446.75"/>
<text text-anchor="middle" x="77.77" y="-395.65" font-family="Arial" font-size="14.00">9</text>
</g>
</g>
</svg>
