<?xml version="1.0" encoding="us-ascii" standalone="no"?><svg xmlns="http://www.w3.org/2000/svg" xmlns:xlink="http://www.w3.org/1999/xlink" contentStyleType="text/css" height="755px" preserveAspectRatio="none" style="width:853px;height:755px;background:#FFFFFF;" version="1.1" viewBox="0 0 853 755" width="853px" zoomAndPan="magnify"><defs/><g><!--class FleetManager--><g id="elem_FleetManager"><rect codeLine="5" fill="#F1F1F1" height="48" id="FleetManager" rx="2.5" ry="2.5" style="stroke:#181818;stroke-width:0.5;" width="120" x="171.5" y="7"/><ellipse cx="186.5" cy="23" fill="#ADD1B2" rx="11" ry="11" style="stroke:#181818;stroke-width:1.0;"/><path d="M189.2656,18.875 Q189.4219,18.6563 189.6094,18.5469 Q189.7969,18.4375 190.0156,18.4375 Q190.3906,18.4375 190.625,18.7031 Q190.8594,18.9531 190.8594,19.5625 L190.8594,21.0156 Q190.8594,21.625 190.625,21.8906 Q190.3906,22.1563 190.0156,22.1563 Q189.6719,22.1563 189.4688,21.9531 Q189.2656,21.7656 189.1563,21.25 Q189.1094,20.8906 188.9219,20.7031 Q188.5938,20.3281 187.9844,20.1094 Q187.375,19.8906 186.75,19.8906 Q185.9844,19.8906 185.3438,20.2188 Q184.7188,20.5469 184.2188,21.2969 Q183.7344,22.0469 183.7344,23.0781 L183.7344,24.1719 Q183.7344,25.4063 184.625,26.2344 Q185.5156,27.0469 187.1094,27.0469 Q188.0469,27.0469 188.7031,26.7969 Q189.0938,26.6406 189.5156,26.2031 Q189.7813,25.9375 189.9219,25.8594 Q190.0781,25.7813 190.2813,25.7813 Q190.6094,25.7813 190.8594,26.0469 Q191.125,26.2969 191.125,26.6406 Q191.125,26.9844 190.7813,27.3906 Q190.2813,27.9688 189.4844,28.2969 Q188.4063,28.75 187.1094,28.75 Q185.5938,28.75 184.3906,28.125 Q183.4063,27.625 182.7188,26.5625 Q182.0313,25.4844 182.0313,24.2031 L182.0313,23.0469 Q182.0313,21.7188 182.6406,20.5781 Q183.2656,19.4219 184.3594,18.8125 Q185.4531,18.1875 186.6875,18.1875 Q187.4219,18.1875 188.0625,18.3594 Q188.7188,18.5156 189.2656,18.875 Z " fill="#000000"/><text fill="#000000" font-family="sans-serif" font-size="14" lengthAdjust="spacing" textLength="88" x="200.5" y="28.7969">FleetManager</text><line style="stroke:#181818;stroke-width:0.5;" x1="172.5" x2="290.5" y1="39" y2="39"/><line style="stroke:#181818;stroke-width:0.5;" x1="172.5" x2="290.5" y1="47" y2="47"/></g><!--class CheckUpListUI--><g id="elem_CheckUpListUI"><rect codeLine="6" fill="#F1F1F1" height="48" id="CheckUpListUI" rx="2.5" ry="2.5" style="stroke:#181818;stroke-width:0.5;" width="123" x="170" y="134"/><ellipse cx="185" cy="150" fill="#ADD1B2" rx="11" ry="11" style="stroke:#181818;stroke-width:1.0;"/><path d="M187.7656,145.875 Q187.9219,145.6563 188.1094,145.5469 Q188.2969,145.4375 188.5156,145.4375 Q188.8906,145.4375 189.125,145.7031 Q189.3594,145.9531 189.3594,146.5625 L189.3594,148.0156 Q189.3594,148.625 189.125,148.8906 Q188.8906,149.1563 188.5156,149.1563 Q188.1719,149.1563 187.9688,148.9531 Q187.7656,148.7656 187.6563,148.25 Q187.6094,147.8906 187.4219,147.7031 Q187.0938,147.3281 186.4844,147.1094 Q185.875,146.8906 185.25,146.8906 Q184.4844,146.8906 183.8438,147.2188 Q183.2188,147.5469 182.7188,148.2969 Q182.2344,149.0469 182.2344,150.0781 L182.2344,151.1719 Q182.2344,152.4063 183.125,153.2344 Q184.0156,154.0469 185.6094,154.0469 Q186.5469,154.0469 187.2031,153.7969 Q187.5938,153.6406 188.0156,153.2031 Q188.2813,152.9375 188.4219,152.8594 Q188.5781,152.7813 188.7813,152.7813 Q189.1094,152.7813 189.3594,153.0469 Q189.625,153.2969 189.625,153.6406 Q189.625,153.9844 189.2813,154.3906 Q188.7813,154.9688 187.9844,155.2969 Q186.9063,155.75 185.6094,155.75 Q184.0938,155.75 182.8906,155.125 Q181.9063,154.625 181.2188,153.5625 Q180.5313,152.4844 180.5313,151.2031 L180.5313,150.0469 Q180.5313,148.7188 181.1406,147.5781 Q181.7656,146.4219 182.8594,145.8125 Q183.9531,145.1875 185.1875,145.1875 Q185.9219,145.1875 186.5625,145.3594 Q187.2188,145.5156 187.7656,145.875 Z " fill="#000000"/><text fill="#000000" font-family="sans-serif" font-size="14" lengthAdjust="spacing" textLength="91" x="199" y="155.7969">CheckUpListUI</text><line style="stroke:#181818;stroke-width:0.5;" x1="171" x2="292" y1="166" y2="166"/><line style="stroke:#181818;stroke-width:0.5;" x1="171" x2="292" y1="174" y2="174"/></g><!--class CheckUpListController--><g id="elem_CheckUpListController"><rect codeLine="7" fill="#F1F1F1" height="85.2422" id="CheckUpListController" rx="2.5" ry="2.5" style="stroke:#181818;stroke-width:0.5;" width="449" x="7" y="261"/><ellipse cx="156.75" cy="277" fill="#ADD1B2" rx="11" ry="11" style="stroke:#181818;stroke-width:1.0;"/><path d="M159.5156,272.875 Q159.6719,272.6563 159.8594,272.5469 Q160.0469,272.4375 160.2656,272.4375 Q160.6406,272.4375 160.875,272.7031 Q161.1094,272.9531 161.1094,273.5625 L161.1094,275.0156 Q161.1094,275.625 160.875,275.8906 Q160.6406,276.1563 160.2656,276.1563 Q159.9219,276.1563 159.7188,275.9531 Q159.5156,275.7656 159.4063,275.25 Q159.3594,274.8906 159.1719,274.7031 Q158.8438,274.3281 158.2344,274.1094 Q157.625,273.8906 157,273.8906 Q156.2344,273.8906 155.5938,274.2188 Q154.9688,274.5469 154.4688,275.2969 Q153.9844,276.0469 153.9844,277.0781 L153.9844,278.1719 Q153.9844,279.4063 154.875,280.2344 Q155.7656,281.0469 157.3594,281.0469 Q158.2969,281.0469 158.9531,280.7969 Q159.3438,280.6406 159.7656,280.2031 Q160.0313,279.9375 160.1719,279.8594 Q160.3281,279.7813 160.5313,279.7813 Q160.8594,279.7813 161.1094,280.0469 Q161.375,280.2969 161.375,280.6406 Q161.375,280.9844 161.0313,281.3906 Q160.5313,281.9688 159.7344,282.2969 Q158.6563,282.75 157.3594,282.75 Q155.8438,282.75 154.6406,282.125 Q153.6563,281.625 152.9688,280.5625 Q152.2813,279.4844 152.2813,278.2031 L152.2813,277.0469 Q152.2813,275.7188 152.8906,274.5781 Q153.5156,273.4219 154.6094,272.8125 Q155.7031,272.1875 156.9375,272.1875 Q157.6719,272.1875 158.3125,272.3594 Q158.9688,272.5156 159.5156,272.875 Z " fill="#000000"/><text fill="#000000" font-family="sans-serif" font-size="14" lengthAdjust="spacing" textLength="141" x="177.25" y="282.7969">CheckUpListController</text><line style="stroke:#181818;stroke-width:0.5;" x1="8" x2="455" y1="293" y2="293"/><line style="stroke:#181818;stroke-width:0.5;" x1="8" x2="455" y1="301" y2="301"/><ellipse cx="18" cy="315.8105" fill="#84BE84" rx="3" ry="3" style="stroke:#038048;stroke-width:1.0;"/><text fill="#000000" font-family="sans-serif" font-size="14" lengthAdjust="spacing" textLength="423" x="27" y="320.1074">CheckUpListController(organizationRepository, vehiclesRepository)</text><rect fill="#F24D5C" height="6" style="stroke:#C82930;stroke-width:1.0;" width="6" x="15" y="331.4316"/><text fill="#000000" font-family="sans-serif" font-size="14" lengthAdjust="spacing" textLength="175" x="27" y="338.7285">getEmployeeFromSession()</text></g><!--class Repositories--><g id="elem_Repositories"><rect codeLine="14" fill="#F1F1F1" height="122.4844" id="Repositories" rx="2.5" ry="2.5" style="stroke:#181818;stroke-width:0.5;" width="204" x="39.5" y="425"/><ellipse cx="97.75" cy="441" fill="#ADD1B2" rx="11" ry="11" style="stroke:#181818;stroke-width:1.0;"/><path d="M100.5156,436.875 Q100.6719,436.6563 100.8594,436.5469 Q101.0469,436.4375 101.2656,436.4375 Q101.6406,436.4375 101.875,436.7031 Q102.1094,436.9531 102.1094,437.5625 L102.1094,439.0156 Q102.1094,439.625 101.875,439.8906 Q101.6406,440.1563 101.2656,440.1563 Q100.9219,440.1563 100.7188,439.9531 Q100.5156,439.7656 100.4063,439.25 Q100.3594,438.8906 100.1719,438.7031 Q99.8438,438.3281 99.2344,438.1094 Q98.625,437.8906 98,437.8906 Q97.2344,437.8906 96.5938,438.2188 Q95.9688,438.5469 95.4688,439.2969 Q94.9844,440.0469 94.9844,441.0781 L94.9844,442.1719 Q94.9844,443.4063 95.875,444.2344 Q96.7656,445.0469 98.3594,445.0469 Q99.2969,445.0469 99.9531,444.7969 Q100.3438,444.6406 100.7656,444.2031 Q101.0313,443.9375 101.1719,443.8594 Q101.3281,443.7813 101.5313,443.7813 Q101.8594,443.7813 102.1094,444.0469 Q102.375,444.2969 102.375,444.6406 Q102.375,444.9844 102.0313,445.3906 Q101.5313,445.9688 100.7344,446.2969 Q99.6563,446.75 98.3594,446.75 Q96.8438,446.75 95.6406,446.125 Q94.6563,445.625 93.9688,444.5625 Q93.2813,443.4844 93.2813,442.2031 L93.2813,441.0469 Q93.2813,439.7188 93.8906,438.5781 Q94.5156,437.4219 95.6094,436.8125 Q96.7031,436.1875 97.9375,436.1875 Q98.6719,436.1875 99.3125,436.3594 Q99.9688,436.5156 100.5156,436.875 Z " fill="#000000"/><text fill="#000000" font-family="sans-serif" font-size="14" lengthAdjust="spacing" textLength="79" x="118.25" y="446.7969">Repositories</text><line style="stroke:#181818;stroke-width:0.5;" x1="40.5" x2="242.5" y1="457" y2="457"/><line style="stroke:#181818;stroke-width:0.5;" x1="40.5" x2="242.5" y1="465" y2="465"/><rect fill="#F24D5C" height="6" style="stroke:#C82930;stroke-width:1.0;" width="6" x="47.5" y="476.8105"/><text fill="#000000" font-family="sans-serif" font-size="14" lengthAdjust="spacing" textLength="89" x="59.5" y="484.1074">Repositories()</text><ellipse cx="50.5" cy="498.4316" fill="#84BE84" rx="3" ry="3" style="stroke:#038048;stroke-width:1.0;"/><text fill="#000000" font-family="sans-serif" font-size="14" lengthAdjust="spacing" textLength="174" x="59.5" y="502.7285">getInstance() : Repositories</text><ellipse cx="50.5" cy="517.0527" fill="#84BE84" rx="3" ry="3" style="stroke:#038048;stroke-width:1.0;"/><text fill="#000000" font-family="sans-serif" font-size="14" lengthAdjust="spacing" textLength="151" x="59.5" y="521.3496">getVehiclesRepository()</text><ellipse cx="50.5" cy="535.6738" fill="#84BE84" rx="3" ry="3" style="stroke:#038048;stroke-width:1.0;"/><text fill="#000000" font-family="sans-serif" font-size="14" lengthAdjust="spacing" textLength="178" x="59.5" y="539.9707">getOrganizationRepository()</text></g><!--class VehiclesRepository--><g id="elem_VehiclesRepository"><rect codeLine="20" fill="#F1F1F1" height="66.6211" id="VehiclesRepository" rx="2.5" ry="2.5" style="stroke:#181818;stroke-width:0.5;" width="181" x="195" y="653.5"/><ellipse cx="222.6" cy="669.5" fill="#ADD1B2" rx="11" ry="11" style="stroke:#181818;stroke-width:1.0;"/><path d="M225.3656,665.375 Q225.5219,665.1563 225.7094,665.0469 Q225.8969,664.9375 226.1156,664.9375 Q226.4906,664.9375 226.725,665.2031 Q226.9594,665.4531 226.9594,666.0625 L226.9594,667.5156 Q226.9594,668.125 226.725,668.3906 Q226.4906,668.6563 226.1156,668.6563 Q225.7719,668.6563 225.5688,668.4531 Q225.3656,668.2656 225.2563,667.75 Q225.2094,667.3906 225.0219,667.2031 Q224.6938,666.8281 224.0844,666.6094 Q223.475,666.3906 222.85,666.3906 Q222.0844,666.3906 221.4438,666.7188 Q220.8188,667.0469 220.3188,667.7969 Q219.8344,668.5469 219.8344,669.5781 L219.8344,670.6719 Q219.8344,671.9063 220.725,672.7344 Q221.6156,673.5469 223.2094,673.5469 Q224.1469,673.5469 224.8031,673.2969 Q225.1938,673.1406 225.6156,672.7031 Q225.8813,672.4375 226.0219,672.3594 Q226.1781,672.2813 226.3813,672.2813 Q226.7094,672.2813 226.9594,672.5469 Q227.225,672.7969 227.225,673.1406 Q227.225,673.4844 226.8813,673.8906 Q226.3813,674.4688 225.5844,674.7969 Q224.5063,675.25 223.2094,675.25 Q221.6938,675.25 220.4906,674.625 Q219.5063,674.125 218.8188,673.0625 Q218.1313,671.9844 218.1313,670.7031 L218.1313,669.5469 Q218.1313,668.2188 218.7406,667.0781 Q219.3656,665.9219 220.4594,665.3125 Q221.5531,664.6875 222.7875,664.6875 Q223.5219,664.6875 224.1625,664.8594 Q224.8188,665.0156 225.3656,665.375 Z " fill="#000000"/><text fill="#000000" font-family="sans-serif" font-size="14" lengthAdjust="spacing" textLength="121" x="239.4" y="675.2969">VehiclesRepository</text><line style="stroke:#181818;stroke-width:0.5;" x1="196" x2="375" y1="685.5" y2="685.5"/><line style="stroke:#181818;stroke-width:0.5;" x1="196" x2="375" y1="693.5" y2="693.5"/><ellipse cx="206" cy="708.3105" fill="#84BE84" rx="3" ry="3" style="stroke:#038048;stroke-width:1.0;"/><text fill="#000000" font-family="sans-serif" font-size="14" lengthAdjust="spacing" textLength="155" x="215" y="712.6074">getVehicleByPlate(plate)</text></g><!--class CheckUpList--><g id="elem_CheckUpList"><rect codeLine="31" fill="#F1F1F1" height="103.8633" id="CheckUpList" rx="2.5" ry="2.5" style="stroke:#181818;stroke-width:0.5;" width="315" x="531" y="434"/><ellipse cx="644.75" cy="450" fill="#ADD1B2" rx="11" ry="11" style="stroke:#181818;stroke-width:1.0;"/><path d="M647.5156,445.875 Q647.6719,445.6563 647.8594,445.5469 Q648.0469,445.4375 648.2656,445.4375 Q648.6406,445.4375 648.875,445.7031 Q649.1094,445.9531 649.1094,446.5625 L649.1094,448.0156 Q649.1094,448.625 648.875,448.8906 Q648.6406,449.1563 648.2656,449.1563 Q647.9219,449.1563 647.7188,448.9531 Q647.5156,448.7656 647.4063,448.25 Q647.3594,447.8906 647.1719,447.7031 Q646.8438,447.3281 646.2344,447.1094 Q645.625,446.8906 645,446.8906 Q644.2344,446.8906 643.5938,447.2188 Q642.9688,447.5469 642.4688,448.2969 Q641.9844,449.0469 641.9844,450.0781 L641.9844,451.1719 Q641.9844,452.4063 642.875,453.2344 Q643.7656,454.0469 645.3594,454.0469 Q646.2969,454.0469 646.9531,453.7969 Q647.3438,453.6406 647.7656,453.2031 Q648.0313,452.9375 648.1719,452.8594 Q648.3281,452.7813 648.5313,452.7813 Q648.8594,452.7813 649.1094,453.0469 Q649.375,453.2969 649.375,453.6406 Q649.375,453.9844 649.0313,454.3906 Q648.5313,454.9688 647.7344,455.2969 Q646.6563,455.75 645.3594,455.75 Q643.8438,455.75 642.6406,455.125 Q641.6563,454.625 640.9688,453.5625 Q640.2813,452.4844 640.2813,451.2031 L640.2813,450.0469 Q640.2813,448.7188 640.8906,447.5781 Q641.5156,446.4219 642.6094,445.8125 Q643.7031,445.1875 644.9375,445.1875 Q645.6719,445.1875 646.3125,445.3594 Q646.9688,445.5156 647.5156,445.875 Z " fill="#000000"/><text fill="#000000" font-family="sans-serif" font-size="14" lengthAdjust="spacing" textLength="79" x="665.25" y="455.7969">CheckUpList</text><line style="stroke:#181818;stroke-width:0.5;" x1="532" x2="845" y1="466" y2="466"/><rect fill="none" height="6" style="stroke:#C82930;stroke-width:1.0;" width="6" x="539" y="477.8105"/><text fill="#000000" font-family="sans-serif" font-size="14" lengthAdjust="spacing" textLength="257" x="551" y="485.1074">vehiclesNeedMaintenance: List&lt;Vehicle&gt;</text><line style="stroke:#181818;stroke-width:0.5;" x1="532" x2="845" y1="492.6211" y2="492.6211"/><ellipse cx="542" cy="507.4316" fill="#84BE84" rx="3" ry="3" style="stroke:#038048;stroke-width:1.0;"/><text fill="#000000" font-family="sans-serif" font-size="14" lengthAdjust="spacing" textLength="178" x="551" y="511.7285">addVehicle(vehicle: Vehicle)</text><ellipse cx="542" cy="526.0527" fill="#84BE84" rx="3" ry="3" style="stroke:#038048;stroke-width:1.0;"/><text fill="#000000" font-family="sans-serif" font-size="14" lengthAdjust="spacing" textLength="289" x="551" y="530.3496">getVehiclesNeedMaintenance(): List&lt;Vehicle&gt;</text></g><!--class Vehicle--><g id="elem_Vehicle"><rect codeLine="37" fill="#F1F1F1" height="122.4844" id="Vehicle" rx="2.5" ry="2.5" style="stroke:#181818;stroke-width:0.5;" width="149" x="614" y="626"/><ellipse cx="661.25" cy="642" fill="#ADD1B2" rx="11" ry="11" style="stroke:#181818;stroke-width:1.0;"/><path d="M664.0156,637.875 Q664.1719,637.6563 664.3594,637.5469 Q664.5469,637.4375 664.7656,637.4375 Q665.1406,637.4375 665.375,637.7031 Q665.6094,637.9531 665.6094,638.5625 L665.6094,640.0156 Q665.6094,640.625 665.375,640.8906 Q665.1406,641.1563 664.7656,641.1563 Q664.4219,641.1563 664.2188,640.9531 Q664.0156,640.7656 663.9063,640.25 Q663.8594,639.8906 663.6719,639.7031 Q663.3438,639.3281 662.7344,639.1094 Q662.125,638.8906 661.5,638.8906 Q660.7344,638.8906 660.0938,639.2188 Q659.4688,639.5469 658.9688,640.2969 Q658.4844,641.0469 658.4844,642.0781 L658.4844,643.1719 Q658.4844,644.4063 659.375,645.2344 Q660.2656,646.0469 661.8594,646.0469 Q662.7969,646.0469 663.4531,645.7969 Q663.8438,645.6406 664.2656,645.2031 Q664.5313,644.9375 664.6719,644.8594 Q664.8281,644.7813 665.0313,644.7813 Q665.3594,644.7813 665.6094,645.0469 Q665.875,645.2969 665.875,645.6406 Q665.875,645.9844 665.5313,646.3906 Q665.0313,646.9688 664.2344,647.2969 Q663.1563,647.75 661.8594,647.75 Q660.3438,647.75 659.1406,647.125 Q658.1563,646.625 657.4688,645.5625 Q656.7813,644.4844 656.7813,643.2031 L656.7813,642.0469 Q656.7813,640.7188 657.3906,639.5781 Q658.0156,638.4219 659.1094,637.8125 Q660.2031,637.1875 661.4375,637.1875 Q662.1719,637.1875 662.8125,637.3594 Q663.4688,637.5156 664.0156,637.875 Z " fill="#000000"/><text fill="#000000" font-family="sans-serif" font-size="14" lengthAdjust="spacing" textLength="46" x="681.75" y="647.7969">Vehicle</text><line style="stroke:#181818;stroke-width:0.5;" x1="615" x2="762" y1="658" y2="658"/><rect fill="none" height="6" style="stroke:#C82930;stroke-width:1.0;" width="6" x="622" y="669.8105"/><text fill="#000000" font-family="sans-serif" font-size="14" lengthAdjust="spacing" textLength="76" x="634" y="677.1074">plate: String</text><rect fill="none" height="6" style="stroke:#C82930;stroke-width:1.0;" width="6" x="622" y="688.4316"/><text fill="#000000" font-family="sans-serif" font-size="14" lengthAdjust="spacing" textLength="82" x="634" y="695.7285">brand: String</text><rect fill="none" height="6" style="stroke:#C82930;stroke-width:1.0;" width="6" x="622" y="707.0527"/><text fill="#000000" font-family="sans-serif" font-size="14" lengthAdjust="spacing" textLength="83" x="634" y="714.3496">model: String</text><rect fill="none" height="6" style="stroke:#C82930;stroke-width:1.0;" width="6" x="622" y="725.6738"/><text fill="#000000" font-family="sans-serif" font-size="14" lengthAdjust="spacing" textLength="123" x="634" y="732.9707">currentKms: double</text><line style="stroke:#181818;stroke-width:0.5;" x1="615" x2="762" y1="740.4844" y2="740.4844"/></g><!--link FleetManager to CheckUpListUI--><g id="link_FleetManager_CheckUpListUI"><path codeLine="25" d="M231.5,55.22 C231.5,77.67 231.5,105.5 231.5,127.91 " fill="none" id="FleetManager-to-CheckUpListUI" style="stroke:#181818;stroke-width:1.0;"/><polygon fill="#181818" points="231.5,133.91,235.5,124.91,231.5,128.91,227.5,124.91,231.5,133.91" style="stroke:#181818;stroke-width:1.0;"/><text fill="#000000" font-family="sans-serif" font-size="13" lengthAdjust="spacing" textLength="165" x="232.5" y="100.0283">requests maintenance report</text></g><!--link CheckUpListUI to CheckUpListController--><g id="link_CheckUpListUI_CheckUpListController"><path codeLine="26" d="M231.5,182.06 C231.5,203.29 231.5,229.29 231.5,254.98 " fill="none" id="CheckUpListUI-to-CheckUpListController" style="stroke:#181818;stroke-width:1.0;"/><polygon fill="#181818" points="231.5,260.98,235.5,251.98,231.5,255.98,227.5,251.98,231.5,260.98" style="stroke:#181818;stroke-width:1.0;"/><text fill="#000000" font-family="sans-serif" font-size="13" lengthAdjust="spacing" textLength="132" x="232.5" y="227.0283">generateCheckUpList()</text></g><!--link CheckUpListController to Repositories--><g id="link_CheckUpListController_Repositories"><path codeLine="27" d="M61.03,346.09 C49.28,354.33 38.83,364.2 30.5,376 C17.81,393.99 20.3,407.2367 35.25,422.8467 " fill="none" id="CheckUpListController-to-Repositories" style="stroke:#181818;stroke-width:1.0;"/><polygon fill="#181818" points="39.4,427.18,36.0638,417.9134,35.9416,423.569,30.2861,423.4468,39.4,427.18" style="stroke:#181818;stroke-width:1.0;"/><text fill="#000000" font-family="sans-serif" font-size="13" lengthAdjust="spacing" textLength="75" x="31.5" y="391.0283">getInstance()</text></g><!--link CheckUpListController to Repositories--><g id="link_CheckUpListController_Repositories"><path codeLine="28" d="M169.81,346.3 C160.92,355.06 152.94,365.02 147.5,376 C140.13,390.86 137.3902,402.297 136.5902,418.817 " fill="none" id="CheckUpListController-to-Repositories-1" style="stroke:#181818;stroke-width:1.0;"/><polygon fill="#181818" points="136.3,424.81,140.7306,416.014,136.5418,419.8159,132.74,415.6271,136.3,424.81" style="stroke:#181818;stroke-width:1.0;"/><text fill="#000000" font-family="sans-serif" font-size="13" lengthAdjust="spacing" textLength="138" x="148.5" y="391.0283">getVehiclesRepository()</text></g><!--link CheckUpListController to VehiclesRepository--><g id="link_CheckUpListController_VehiclesRepository"><path codeLine="29" d="M274.35,346.01 C281.38,355.16 287.62,365.34 291.5,376 C326.3,471.6 307.7291,589.1501 294.9591,647.2001 " fill="none" id="CheckUpListController-to-VehiclesRepository" style="stroke:#181818;stroke-width:1.0;"/><polygon fill="#181818" points="293.67,653.06,299.5102,645.1296,294.7442,648.1768,291.697,643.4108,293.67,653.06" style="stroke:#181818;stroke-width:1.0;"/><text fill="#000000" font-family="sans-serif" font-size="13" lengthAdjust="spacing" textLength="180" x="312.5" y="491.5283">getVehiclesNeedMaintenance()</text></g><!--link CheckUpListController to CheckUpList--><g id="link_CheckUpListController_CheckUpList"><path codeLine="44" d="M336.63,346.02 C402.79,372.15 483.0597,403.8553 553.3997,431.6453 " fill="none" id="CheckUpListController-to-CheckUpList" style="stroke:#181818;stroke-width:1.0;"/><polygon fill="#181818" points="558.98,433.85,552.0794,426.8228,554.3298,432.0128,549.1398,434.2632,558.98,433.85" style="stroke:#181818;stroke-width:1.0;"/><text fill="#000000" font-family="sans-serif" font-size="13" lengthAdjust="spacing" textLength="43" x="461.5" y="391.0283">creates</text></g><!--link CheckUpList to Vehicle--><g id="link_CheckUpList_Vehicle"><path codeLine="45" d="M688.5,538.25 C688.5,564.96 688.5,591.81 688.5,619.74 " fill="none" id="CheckUpList-to-Vehicle" style="stroke:#181818;stroke-width:1.0;"/><polygon fill="#181818" points="688.5,625.74,692.5,616.74,688.5,620.74,684.5,616.74,688.5,625.74" style="stroke:#181818;stroke-width:1.0;"/><text fill="#000000" font-family="sans-serif" font-size="13" lengthAdjust="spacing" textLength="49" x="689.5" y="592.0283">contains</text></g><!--link Repositories to VehiclesRepository--><g id="link_Repositories_VehiclesRepository"><path codeLine="47" d="M185.1,547.25 C210.34,582.14 237.6221,619.8395 258.4021,648.5495 " fill="none" id="Repositories-to-VehiclesRepository" style="stroke:#181818;stroke-width:1.0;"/><polygon fill="#181818" points="261.92,653.41,259.8834,643.774,258.9884,649.3596,253.4028,648.4646,261.92,653.41" style="stroke:#181818;stroke-width:1.0;"/><text fill="#000000" font-family="sans-serif" font-size="13" lengthAdjust="spacing" textLength="31" x="219.5" y="592.0283">holds</text></g><!--SRC=[bLJBRjim4BppAtYBXDG_81Gvn6s084bJr4dl3BML256aiakdK8tyUrOkQr4F7wg33hCxmzbPIXVK6DSfLArilVEwHj-23BW7CLOwfHjLmIxq5YI23ifLDcsWMfN-jt6L_AKiWH3QAY9vOm72WtBCnGXjQz3DStTlA3pVBh6jTm6zjO07SRbUo3nMofa_AXZlVa3doGIF_IVv1hNH5cZ4SY7vkRYK5OGdHSrM1QWy6g3iL4AeM1vmrnXhCwTQYANDZDLVzr-0D9fkE3WBIIN1_vAFtAzjPtqFSCEHxe1eOENYFGvzSibkv26oKZ1QF9g_TSIPQyXoMKoQnfQVY-bJWSVLp18xI_fXeNtTVxSySTODxrmmLwGRbflDrNI_R1RXTGyKIBRAk01kc8B1pcCGqzuPUrmugrJW0FdGfCxUrxi7dKcunJJ1_wAjfdfUODa-bVa6K3wCGR3MyXCuNOQtTL8XXwxFKV8gRacLPKIoo2l-kScNbsJXOoxwBgRtucJgkFj2xWBornwn5rIkd66jBy7ECBr711VkMYfawVSl_0lXSywdcOPII8t0HrFQdsO-T32TXo8X9eiykvZQsvB41m00]--></g></svg>